<?xml version="1.0" standalone="no"?><!DOCTYPE svg PUBLIC "-//W3C//DTD SVG 1.1//EN" "http://www.w3.org/Graphics/SVG/1.1/DTD/svg11.dtd" ><svg version="1.1" xmlns="http://www.w3.org/2000/svg"><defs><font horiz-adv-x="0" id="font"><font-face ascent="750" bbox="-68 -279 1173 968" cap-height="646" descent="-250" font-family="Folha Texto" font-stretch="normal" font-style="normal" font-weight="700" units-per-em="1000" x-height="482" /><missing-glyph d="M0 0V646H500V0ZM60 586V60H440V586Z" horiz-adv-x="500" /><glyph glyph-name=".null" horiz-adv-x="0" /><glyph d="M-5 0 -3 29 11 32Q33 37 44 47Q55 57 65 80L302 651H354Q373 651 383 643.5Q393 636 397 617L530 82Q536 57 547 47Q558 37 580 33L595 30L593 0H293L296 32L382 42L348 192H175L117 41L196 32L193 0ZM193 238H338L285 473Z" glyph-name="A" horiz-adv-x="584" unicode="A" /><glyph d="M703 -8Q697 -8 681 -6.5Q665 -5 645.5 -4Q626 -3 605.5 -1.5Q585 0 570 0H243L246 31L327 42L340 192H189L104 41L173 31L171 0H-12L-11 29L0 32Q22 38 33.5 49Q45 60 58 82L338 566Q341 572 343 577.5Q345 583 345 588Q345 596 339.5 601.5Q334 607 324 609L287 616L290 646H767Q781 646 787 639.5Q793 633 793 621Q793 617 792.5 609Q792 601 791 589L779 458H753L749 487Q740 553 712 576Q684 599 623 599H520L499 364H646L668 454H697L677 226H649L642 317H495L472 53Q490 50 515.5 48Q541 46 564 46Q631 46 668 75.5Q705 105 734 174L746 202L771 197L736 23Q733 7 726 -0.5Q719 -8 703 -8ZM214 238H344L367 512Z" glyph-name="AE" horiz-adv-x="784" unicode="&#198;" /><glyph d="M417 692 411 709 546 846Q558 859 562.5 861.5Q567 864 572 864Q588 864 605 846Q622 828 622 800Q622 772 606 755Q590 738 563 731ZM703 -8Q697 -8 681 -6.5Q665 -5 645.5 -4Q626 -3 605.5 -1.5Q585 0 570 0H243L246 31L327 42L340 192H189L104 41L173 31L171 0H-12L-11 29L0 32Q22 38 33.5 49Q45 60 58 82L338 566Q341 572 343 577.5Q345 583 345 588Q345 596 339.5 601.5Q334 607 324 609L287 616L290 646H767Q781 646 787 639.5Q793 633 793 621Q793 617 792.5 609Q792 601 791 589L779 458H753L749 487Q740 553 712 576Q684 599 623 599H520L499 364H646L668 454H697L677 226H649L642 317H495L472 53Q490 50 515.5 48Q541 46 564 46Q631 46 668 75.5Q705 105 734 174L746 202L771 197L736 23Q733 7 726 -0.5Q719 -8 703 -8ZM214 238H344L367 512Z" glyph-name="AEacute" horiz-adv-x="784" unicode="&#508;" /><glyph d="M304 692 298 709 433 846Q445 859 449.5 861.5Q454 864 459 864Q475 864 492 846Q509 828 509 800Q509 772 493 755Q477 738 450 731ZM-5 0 -3 29 11 32Q33 37 44 47Q55 57 65 80L302 651H354Q373 651 383 643.5Q393 636 397 617L530 82Q536 57 547 47Q558 37 580 33L595 30L593 0H293L296 32L382 42L348 192H175L117 41L196 32L193 0ZM193 238H338L285 473Z" glyph-name="Aacute" horiz-adv-x="584" unicode="&#193;" /><glyph d="M340 693Q295 693 269 724.5Q243 756 243 814Q243 823 243 830Q243 837 244 844H265Q272 810 293 794.5Q314 779 348 779Q382 779 405.5 794.5Q429 810 441 844H463Q453 765 423 729Q393 693 340 693ZM-5 0 -3 29 11 32Q33 37 44 47Q55 57 65 80L302 651H354Q373 651 383 643.5Q393 636 397 617L530 82Q536 57 547 47Q558 37 580 33L595 30L593 0H293L296 32L382 42L348 192H175L117 41L196 32L193 0ZM193 238H338L285 473Z" glyph-name="Abreve" horiz-adv-x="584" unicode="&#258;" /><glyph d="M236 693 217 697 285 817Q298 839 308.5 846.5Q319 854 337 854H372Q390 854 399 846.5Q408 839 416 817L465 697L445 693L347 770ZM-5 0 -3 29 11 32Q33 37 44 47Q55 57 65 80L302 651H354Q373 651 383 643.5Q393 636 397 617L530 82Q536 57 547 47Q558 37 580 33L595 30L593 0H293L296 32L382 42L348 192H175L117 41L196 32L193 0ZM193 238H338L285 473Z" glyph-name="Acircumflex" horiz-adv-x="584" unicode="&#194;" /><glyph d="M245 699Q213 699 196 717.5Q179 736 179 765Q179 800 200.5 824Q222 848 259 848Q291 848 308.5 829.5Q326 811 326 782Q326 747 304 723Q282 699 245 699ZM435 699Q403 699 386 717.5Q369 736 369 765Q369 800 390.5 824Q412 848 449 848Q481 848 498.5 829.5Q516 811 516 782Q516 747 494 723Q472 699 435 699ZM-5 0 -3 29 11 32Q33 37 44 47Q55 57 65 80L302 651H354Q373 651 383 643.5Q393 636 397 617L530 82Q536 57 547 47Q558 37 580 33L595 30L593 0H293L296 32L382 42L348 192H175L117 41L196 32L193 0ZM193 238H338L285 473Z" glyph-name="Adieresis" horiz-adv-x="584" unicode="&#196;" /><glyph d="M376 693 232 733Q210 740 198.5 755.5Q187 771 187 793Q187 821 206.5 842Q226 863 249 863Q253 863 258 860.5Q263 858 273 845L386 710ZM-5 0 -3 29 11 32Q33 37 44 47Q55 57 65 80L302 651H354Q373 651 383 643.5Q393 636 397 617L530 82Q536 57 547 47Q558 37 580 33L595 30L593 0H293L296 32L382 42L348 192H175L117 41L196 32L193 0ZM193 238H338L285 473Z" glyph-name="Agrave" horiz-adv-x="584" unicode="&#192;" /><glyph d="M224 737 229 790H469L464 737ZM-5 0 -3 29 11 32Q33 37 44 47Q55 57 65 80L302 651H354Q373 651 383 643.5Q393 636 397 617L530 82Q536 57 547 47Q558 37 580 33L595 30L593 0H293L296 32L382 42L348 192H175L117 41L196 32L193 0ZM193 238H338L285 473Z" glyph-name="Amacron" horiz-adv-x="584" unicode="&#256;" /><glyph d="M370 -246Q330 -246 307 -223Q284 -200 284 -160Q284 -110 320 -70Q356 -30 428 0H293L296 32L382 42L348 192H175L117 41L196 32L193 0H-5L-3 29L11 32Q33 37 44 47Q55 57 65 80L302 651H354Q373 651 383 643.5Q393 636 397 617L530 82Q536 57 547 47Q558 37 580 33L595 30L593 0H481Q435 -37 415.5 -69Q396 -101 396 -138Q396 -161 406 -173.5Q416 -186 434 -186Q447 -186 460 -181.5Q473 -177 487 -169L480 -198Q455 -223 427.5 -234.5Q400 -246 370 -246ZM193 238H338L285 473Z" glyph-name="Aogonek" horiz-adv-x="584" unicode="&#260;" /><glyph d="M339 685Q301 685 274 709Q247 733 247 779Q247 828 276.5 861.5Q306 895 358 895Q397 895 424 871Q451 847 451 801Q451 752 421.5 718.5Q392 685 339 685ZM344 736Q365 736 377.5 753Q390 770 390 798Q390 820 380.5 832Q371 844 354 844Q332 844 319.5 827.5Q307 811 307 782Q307 760 317 748Q327 736 344 736ZM-5 0 -3 29 11 32Q33 37 44 47Q55 57 65 80L302 651H354Q373 651 383 643.5Q393 636 397 617L530 82Q536 57 547 47Q558 37 580 33L595 30L593 0H293L296 32L382 42L348 192H175L117 41L196 32L193 0ZM193 238H338L285 473Z" glyph-name="Aring" horiz-adv-x="584" unicode="&#197;" /><glyph d="M379 704Q363 704 351.5 709Q340 714 330 720Q320 726 310 731Q300 736 286 736Q276 736 265.5 729.5Q255 723 248 701H224Q229 765 252 795Q275 825 308 825Q338 825 356.5 809.5Q375 794 402 794Q418 794 429 804.5Q440 815 445 840L469 839Q463 773 441 738.5Q419 704 379 704ZM-5 0 -3 29 11 32Q33 37 44 47Q55 57 65 80L302 651H354Q373 651 383 643.5Q393 636 397 617L530 82Q536 57 547 47Q558 37 580 33L595 30L593 0H293L296 32L382 42L348 192H175L117 41L196 32L193 0ZM193 238H338L285 473Z" glyph-name="Atilde" horiz-adv-x="584" unicode="&#195;" /><glyph d="M23 0 26 30 64 37Q93 43 104.5 56Q116 69 118 103L155 514Q156 533 157 544.5Q158 556 158 560Q158 583 148 594Q138 605 113 609L77 616L79 646H333Q440 646 502 606Q564 566 564 486Q564 420 517 383Q470 346 392 341Q476 334 523.5 293Q571 252 571 180Q571 92 502.5 46Q434 0 317 0ZM317 359Q364 359 393 388.5Q422 418 422 478Q422 528 397.5 559Q373 590 336 597Q329 598 319.5 599Q310 600 304 601L284 362Q291 361 300 360Q309 359 317 359ZM305 43Q359 43 389.5 78Q420 113 420 179Q420 237 390.5 273Q361 309 315 313Q306 314 295.5 314Q285 314 279 314L256 52Q266 48 278 45.5Q290 43 305 43Z" glyph-name="B" horiz-adv-x="588" unicode="B" /><glyph d="M327 -14Q203 -14 136.5 64.5Q70 143 70 280Q70 361 94 431Q118 501 160.5 551.5Q203 602 262.5 631Q322 660 393 660Q438 660 467.5 654.5Q497 649 533 633Q552 625 560 613Q568 601 568 583Q568 578 566.5 562Q565 546 564 527L556 442H529Q518 527 483 569.5Q448 612 391 612Q356 612 326.5 589Q297 566 276.5 523.5Q256 481 244.5 421Q233 361 233 287Q233 162 266.5 98Q300 34 364 34Q413 34 450 77Q487 120 524 219L551 216L528 88Q520 43 507 28Q494 13 456 2Q425 -7 396 -10.5Q367 -14 327 -14Z" glyph-name="C" horiz-adv-x="574" unicode="C" /><glyph glyph-name="CR" horiz-adv-x="223" unicode="" /><glyph d="M345 692 339 709 474 846Q486 859 490.5 861.5Q495 864 500 864Q516 864 533 846Q550 828 550 800Q550 772 534 755Q518 738 491 731ZM327 -14Q203 -14 136.5 64.5Q70 143 70 280Q70 361 94 431Q118 501 160.5 551.5Q203 602 262.5 631Q322 660 393 660Q438 660 467.5 654.5Q497 649 533 633Q552 625 560 613Q568 601 568 583Q568 578 566.5 562Q565 546 564 527L556 442H529Q518 527 483 569.5Q448 612 391 612Q356 612 326.5 589Q297 566 276.5 523.5Q256 481 244.5 421Q233 361 233 287Q233 162 266.5 98Q300 34 364 34Q413 34 450 77Q487 120 524 219L551 216L528 88Q520 43 507 28Q494 13 456 2Q425 -7 396 -10.5Q367 -14 327 -14Z" glyph-name="Cacute" horiz-adv-x="574" unicode="&#262;" /><glyph d="M363 694Q345 694 336 702Q327 710 319 731L270 851L290 856L388 777L497 856L518 851L449 731Q437 709 426.5 701.5Q416 694 398 694ZM327 -14Q203 -14 136.5 64.5Q70 143 70 280Q70 361 94 431Q118 501 160.5 551.5Q203 602 262.5 631Q322 660 393 660Q438 660 467.5 654.5Q497 649 533 633Q552 625 560 613Q568 601 568 583Q568 578 566.5 562Q565 546 564 527L556 442H529Q518 527 483 569.5Q448 612 391 612Q356 612 326.5 589Q297 566 276.5 523.5Q256 481 244.5 421Q233 361 233 287Q233 162 266.5 98Q300 34 364 34Q413 34 450 77Q487 120 524 219L551 216L528 88Q520 43 507 28Q494 13 456 2Q425 -7 396 -10.5Q367 -14 327 -14Z" glyph-name="Ccaron" horiz-adv-x="574" unicode="&#268;" /><glyph d="M303 -248Q259 -248 234.5 -228Q210 -208 210 -179Q210 -165 219.5 -156Q229 -147 245 -147Q258 -147 262 -149.5Q266 -152 267 -163L274 -215Q278 -217 282 -218Q286 -219 291 -219Q311 -219 324 -207Q337 -195 337 -171Q337 -146 323 -130.5Q309 -115 280 -105L321 -14Q199 -11 134.5 67Q70 145 70 280Q70 361 94 431Q118 501 160.5 551.5Q203 602 262.5 631Q322 660 393 660Q438 660 467.5 654.5Q497 649 533 633Q552 625 560 613Q568 601 568 583Q568 578 566.5 562Q565 546 564 527L556 442H529Q518 527 483 569.5Q448 612 391 612Q356 612 326.5 589Q297 566 276.5 523.5Q256 481 244.5 421Q233 361 233 287Q233 162 266.5 98Q300 34 364 34Q413 34 450 77Q487 120 524 219L551 216L528 88Q520 43 507 28Q494 13 456 2Q433 -4 412 -8Q391 -12 369 -13L341 -55Q378 -63 398.5 -86.5Q419 -110 419 -147Q419 -190 387 -219Q355 -248 303 -248Z" glyph-name="Ccedilla" horiz-adv-x="574" unicode="&#199;" /><glyph d="M277 693 258 697 326 817Q339 839 349.5 846.5Q360 854 378 854H413Q431 854 440 846.5Q449 839 457 817L506 697L486 693L388 770ZM327 -14Q203 -14 136.5 64.5Q70 143 70 280Q70 361 94 431Q118 501 160.5 551.5Q203 602 262.5 631Q322 660 393 660Q438 660 467.5 654.5Q497 649 533 633Q552 625 560 613Q568 601 568 583Q568 578 566.5 562Q565 546 564 527L556 442H529Q518 527 483 569.5Q448 612 391 612Q356 612 326.5 589Q297 566 276.5 523.5Q256 481 244.5 421Q233 361 233 287Q233 162 266.5 98Q300 34 364 34Q413 34 450 77Q487 120 524 219L551 216L528 88Q520 43 507 28Q494 13 456 2Q425 -7 396 -10.5Q367 -14 327 -14Z" glyph-name="Ccircumflex" horiz-adv-x="574" unicode="&#264;" /><glyph d="M382 700Q349 700 331 719.5Q313 739 313 770Q313 807 335.5 831.5Q358 856 396 856Q430 856 447.5 836.5Q465 817 465 787Q465 750 443 725Q421 700 382 700ZM327 -14Q203 -14 136.5 64.5Q70 143 70 280Q70 361 94 431Q118 501 160.5 551.5Q203 602 262.5 631Q322 660 393 660Q438 660 467.5 654.5Q497 649 533 633Q552 625 560 613Q568 601 568 583Q568 578 566.5 562Q565 546 564 527L556 442H529Q518 527 483 569.5Q448 612 391 612Q356 612 326.5 589Q297 566 276.5 523.5Q256 481 244.5 421Q233 361 233 287Q233 162 266.5 98Q300 34 364 34Q413 34 450 77Q487 120 524 219L551 216L528 88Q520 43 507 28Q494 13 456 2Q425 -7 396 -10.5Q367 -14 327 -14Z" glyph-name="Cdotaccent" horiz-adv-x="574" unicode="&#266;" /><glyph d="M23 0 26 30 64 37Q93 43 104.5 56Q116 69 118 103L155 515Q156 534 157 545Q158 556 158 560Q158 583 148 594Q138 605 113 609L77 616L79 646H262Q350 646 421 625Q492 604 541 564.5Q590 525 616.5 466.5Q643 408 643 333Q643 250 617 187Q591 124 542.5 83Q494 42 424.5 21Q355 0 270 0ZM305 45Q390 45 436.5 117.5Q483 190 483 327Q483 442 434.5 513.5Q386 585 308 599L260 53Q268 50 280.5 47.5Q293 45 305 45Z" glyph-name="D" horiz-adv-x="653" unicode="D" /><glyph d="M344 694Q326 694 317 702Q308 710 300 731L251 851L271 856L369 777L478 856L499 851L430 731Q418 709 407.5 701.5Q397 694 379 694ZM23 0 26 30 64 37Q93 43 104.5 56Q116 69 118 103L155 515Q156 534 157 545Q158 556 158 560Q158 583 148 594Q138 605 113 609L77 616L79 646H262Q350 646 421 625Q492 604 541 564.5Q590 525 616.5 466.5Q643 408 643 333Q643 250 617 187Q591 124 542.5 83Q494 42 424.5 21Q355 0 270 0ZM305 45Q390 45 436.5 117.5Q483 190 483 327Q483 442 434.5 513.5Q386 585 308 599L260 53Q268 50 280.5 47.5Q293 45 305 45Z" glyph-name="Dcaron" horiz-adv-x="653" unicode="&#270;" /><glyph d="M23 0 26 30 64 37Q93 43 104.5 56Q116 69 118 103L138 318H84L87 359H141L155 515Q156 534 157 545Q158 556 158 560Q158 583 148 594Q138 605 113 609L77 616L79 646H262Q350 646 421 625Q492 604 541 564.5Q590 525 616.5 466.5Q643 408 643 333Q643 250 617 187Q591 124 542.5 83Q494 42 424.5 21Q355 0 270 0ZM305 45Q390 45 436.5 117.5Q483 190 483 327Q483 442 434.5 513.5Q386 585 308 599L287 359H381L377 318H283L260 53Q268 50 280.5 47.5Q293 45 305 45Z" glyph-name="Dcroat" horiz-adv-x="653" unicode="&#272;" /><glyph d="M35 0 39 36 285 652H352L489 36L486 0ZM92 54H344L261 494Z" glyph-name="Delta" horiz-adv-x="522" unicode="&#8710;" /><glyph d="M23 0 26 30 64 37Q93 43 104.5 56Q116 69 118 103L155 518Q156 536 157 546Q158 556 158 560Q158 583 148 594Q138 605 113 609L77 616L79 646H554Q568 646 574 639.5Q580 633 580 621Q580 617 579.5 609Q579 601 578 589L566 458H540L536 487Q526 553 498.5 576Q471 599 410 599H307L286 364H433L455 454H484L464 226H436L429 317H282L259 53Q277 50 302.5 48Q328 46 351 46Q417 46 454.5 75.5Q492 105 521 174L532 202L558 197L523 23Q520 7 513 -0.5Q506 -8 490 -8Q484 -8 468 -6.5Q452 -5 432.5 -4Q413 -3 392.5 -1.5Q372 0 357 0Z" glyph-name="E" horiz-adv-x="571" unicode="E" /><glyph d="M322 692 316 709 451 846Q463 859 467.5 861.5Q472 864 477 864Q493 864 510 846Q527 828 527 800Q527 772 511 755Q495 738 468 731ZM23 0 26 30 64 37Q93 43 104.5 56Q116 69 118 103L155 518Q156 536 157 546Q158 556 158 560Q158 583 148 594Q138 605 113 609L77 616L79 646H554Q568 646 574 639.5Q580 633 580 621Q580 617 579.5 609Q579 601 578 589L566 458H540L536 487Q526 553 498.5 576Q471 599 410 599H307L286 364H433L455 454H484L464 226H436L429 317H282L259 53Q277 50 302.5 48Q328 46 351 46Q417 46 454.5 75.5Q492 105 521 174L532 202L558 197L523 23Q520 7 513 -0.5Q506 -8 490 -8Q484 -8 468 -6.5Q452 -5 432.5 -4Q413 -3 392.5 -1.5Q372 0 357 0Z" glyph-name="Eacute" horiz-adv-x="571" unicode="&#201;" /><glyph d="M358 693Q313 693 287 724.5Q261 756 261 814Q261 823 261 830Q261 837 262 844H283Q290 810 311 794.5Q332 779 366 779Q400 779 423.5 794.5Q447 810 459 844H481Q471 765 441 729Q411 693 358 693ZM23 0 26 30 64 37Q93 43 104.5 56Q116 69 118 103L155 518Q156 536 157 546Q158 556 158 560Q158 583 148 594Q138 605 113 609L77 616L79 646H554Q568 646 574 639.5Q580 633 580 621Q580 617 579.5 609Q579 601 578 589L566 458H540L536 487Q526 553 498.5 576Q471 599 410 599H307L286 364H433L455 454H484L464 226H436L429 317H282L259 53Q277 50 302.5 48Q328 46 351 46Q417 46 454.5 75.5Q492 105 521 174L532 202L558 197L523 23Q520 7 513 -0.5Q506 -8 490 -8Q484 -8 468 -6.5Q452 -5 432.5 -4Q413 -3 392.5 -1.5Q372 0 357 0Z" glyph-name="Ebreve" horiz-adv-x="571" unicode="&#276;" /><glyph d="M340 694Q322 694 313 702Q304 710 296 731L247 851L267 856L365 777L474 856L495 851L426 731Q414 709 403.5 701.5Q393 694 375 694ZM23 0 26 30 64 37Q93 43 104.5 56Q116 69 118 103L155 518Q156 536 157 546Q158 556 158 560Q158 583 148 594Q138 605 113 609L77 616L79 646H554Q568 646 574 639.5Q580 633 580 621Q580 617 579.5 609Q579 601 578 589L566 458H540L536 487Q526 553 498.5 576Q471 599 410 599H307L286 364H433L455 454H484L464 226H436L429 317H282L259 53Q277 50 302.5 48Q328 46 351 46Q417 46 454.5 75.5Q492 105 521 174L532 202L558 197L523 23Q520 7 513 -0.5Q506 -8 490 -8Q484 -8 468 -6.5Q452 -5 432.5 -4Q413 -3 392.5 -1.5Q372 0 357 0Z" glyph-name="Ecaron" horiz-adv-x="571" unicode="&#282;" /><glyph d="M254 693 235 697 303 817Q316 839 326.5 846.5Q337 854 355 854H390Q408 854 417 846.5Q426 839 434 817L483 697L463 693L365 770ZM23 0 26 30 64 37Q93 43 104.5 56Q116 69 118 103L155 518Q156 536 157 546Q158 556 158 560Q158 583 148 594Q138 605 113 609L77 616L79 646H554Q568 646 574 639.5Q580 633 580 621Q580 617 579.5 609Q579 601 578 589L566 458H540L536 487Q526 553 498.5 576Q471 599 410 599H307L286 364H433L455 454H484L464 226H436L429 317H282L259 53Q277 50 302.5 48Q328 46 351 46Q417 46 454.5 75.5Q492 105 521 174L532 202L558 197L523 23Q520 7 513 -0.5Q506 -8 490 -8Q484 -8 468 -6.5Q452 -5 432.5 -4Q413 -3 392.5 -1.5Q372 0 357 0Z" glyph-name="Ecircumflex" horiz-adv-x="571" unicode="&#202;" /><glyph d="M263 699Q231 699 214 717.5Q197 736 197 765Q197 800 218.5 824Q240 848 277 848Q309 848 326.5 829.5Q344 811 344 782Q344 747 322 723Q300 699 263 699ZM453 699Q421 699 404 717.5Q387 736 387 765Q387 800 408.5 824Q430 848 467 848Q499 848 516.5 829.5Q534 811 534 782Q534 747 512 723Q490 699 453 699ZM23 0 26 30 64 37Q93 43 104.5 56Q116 69 118 103L155 518Q156 536 157 546Q158 556 158 560Q158 583 148 594Q138 605 113 609L77 616L79 646H554Q568 646 574 639.5Q580 633 580 621Q580 617 579.5 609Q579 601 578 589L566 458H540L536 487Q526 553 498.5 576Q471 599 410 599H307L286 364H433L455 454H484L464 226H436L429 317H282L259 53Q277 50 302.5 48Q328 46 351 46Q417 46 454.5 75.5Q492 105 521 174L532 202L558 197L523 23Q520 7 513 -0.5Q506 -8 490 -8Q484 -8 468 -6.5Q452 -5 432.5 -4Q413 -3 392.5 -1.5Q372 0 357 0Z" glyph-name="Edieresis" horiz-adv-x="571" unicode="&#203;" /><glyph d="M359 700Q326 700 308 719.5Q290 739 290 770Q290 807 312.5 831.5Q335 856 373 856Q407 856 424.5 836.5Q442 817 442 787Q442 750 420 725Q398 700 359 700ZM23 0 26 30 64 37Q93 43 104.5 56Q116 69 118 103L155 518Q156 536 157 546Q158 556 158 560Q158 583 148 594Q138 605 113 609L77 616L79 646H554Q568 646 574 639.5Q580 633 580 621Q580 617 579.5 609Q579 601 578 589L566 458H540L536 487Q526 553 498.5 576Q471 599 410 599H307L286 364H433L455 454H484L464 226H436L429 317H282L259 53Q277 50 302.5 48Q328 46 351 46Q417 46 454.5 75.5Q492 105 521 174L532 202L558 197L523 23Q520 7 513 -0.5Q506 -8 490 -8Q484 -8 468 -6.5Q452 -5 432.5 -4Q413 -3 392.5 -1.5Q372 0 357 0Z" glyph-name="Edotaccent" horiz-adv-x="571" unicode="&#278;" /><glyph d="M394 693 250 733Q228 740 216.5 755.5Q205 771 205 793Q205 821 224.5 842Q244 863 267 863Q271 863 276 860.5Q281 858 291 845L404 710ZM23 0 26 30 64 37Q93 43 104.5 56Q116 69 118 103L155 518Q156 536 157 546Q158 556 158 560Q158 583 148 594Q138 605 113 609L77 616L79 646H554Q568 646 574 639.5Q580 633 580 621Q580 617 579.5 609Q579 601 578 589L566 458H540L536 487Q526 553 498.5 576Q471 599 410 599H307L286 364H433L455 454H484L464 226H436L429 317H282L259 53Q277 50 302.5 48Q328 46 351 46Q417 46 454.5 75.5Q492 105 521 174L532 202L558 197L523 23Q520 7 513 -0.5Q506 -8 490 -8Q484 -8 468 -6.5Q452 -5 432.5 -4Q413 -3 392.5 -1.5Q372 0 357 0Z" glyph-name="Egrave" horiz-adv-x="571" unicode="&#200;" /><glyph d="M242 737 247 790H487L482 737ZM23 0 26 30 64 37Q93 43 104.5 56Q116 69 118 103L155 518Q156 536 157 546Q158 556 158 560Q158 583 148 594Q138 605 113 609L77 616L79 646H554Q568 646 574 639.5Q580 633 580 621Q580 617 579.5 609Q579 601 578 589L566 458H540L536 487Q526 553 498.5 576Q471 599 410 599H307L286 364H433L455 454H484L464 226H436L429 317H282L259 53Q277 50 302.5 48Q328 46 351 46Q417 46 454.5 75.5Q492 105 521 174L532 202L558 197L523 23Q520 7 513 -0.5Q506 -8 490 -8Q484 -8 468 -6.5Q452 -5 432.5 -4Q413 -3 392.5 -1.5Q372 0 357 0Z" glyph-name="Emacron" horiz-adv-x="571" unicode="&#274;" /><glyph d="M310 -157 303 -132Q364 -90 385 -49Q406 -8 413 62L417 111L203 497L163 44L258 29L255 0H25L27 30L56 35Q84 41 96 54Q108 67 112 105L151 471Q153 494 155.5 519.5Q158 545 158 550Q158 575 148 587.5Q138 600 114 606L76 616L79 646H246Q274 646 284.5 640.5Q295 635 305 618L523 213L557 602L462 617L465 646H695L692 616L662 610Q634 605 622.5 592Q611 579 607 541L568 151Q562 87 547 39.5Q532 -8 503 -44Q474 -80 427 -107Q380 -134 310 -157Z" glyph-name="Eng" horiz-adv-x="651" unicode="&#330;" /><glyph d="M377 -248Q335 -248 312 -223.5Q289 -199 289 -159Q289 -118 323 -76Q357 -34 424 -3Q408 -2 389 -1Q370 0 357 0H23L26 30L64 37Q93 43 104.5 56Q116 69 118 103L155 518Q156 536 157 546Q158 556 158 560Q158 583 148 594Q138 605 113 609L77 616L79 646H554Q568 646 574 639.5Q580 633 580 621Q580 617 579.5 609Q579 601 578 589L566 458H540L536 487Q526 553 498.5 576Q471 599 410 599H307L286 364H433L455 454H484L464 226H436L429 317H282L259 53Q277 50 302.5 48Q328 46 351 46Q417 46 454.5 75.5Q492 105 521 174L532 202L558 197L523 23Q520 7 513 -0.5Q506 -8 490 -8Q487 -8 482.5 -8Q478 -8 473 -7Q430 -47 414 -78.5Q398 -110 398 -141Q398 -163 410 -176Q422 -189 443 -189Q453 -189 464.5 -185Q476 -181 490 -172L484 -199Q462 -224 435 -236Q408 -248 377 -248Z" glyph-name="Eogonek" horiz-adv-x="571" unicode="&#280;" /><glyph d="M23 0 26 30 64 37Q93 43 104.5 56Q116 69 118 103L138 318H84L87 359H141L155 515Q156 534 157 545Q158 556 158 560Q158 583 148 594Q138 605 113 609L77 616L79 646H262Q350 646 421 625Q492 604 541 564.5Q590 525 616.5 466.5Q643 408 643 333Q643 250 617 187Q591 124 542.5 83Q494 42 424.5 21Q355 0 270 0ZM305 45Q390 45 436.5 117.5Q483 190 483 327Q483 442 434.5 513.5Q386 585 308 599L287 359H381L377 318H283L260 53Q268 50 280.5 47.5Q293 45 305 45Z" glyph-name="Eth" horiz-adv-x="653" unicode="&#208;" /><glyph d="M49 252 56 299H111Q112 315 113.5 330Q115 345 116 359H67L74 406H125Q152 521 227.5 590.5Q303 660 414 660Q451 660 475 654.5Q499 649 534 633Q552 625 560.5 613.5Q569 602 569 583Q569 579 568 564Q567 549 565 527L557 442H530Q519 528 490.5 570Q462 612 413 612Q362 612 328 557Q294 502 281 406H483L476 359H276Q275 345 274.5 330Q274 315 274 299H465L457 252H275Q278 144 305.5 89Q333 34 385 34Q426 34 455.5 75Q485 116 525 219L552 216L529 88Q521 43 508 28Q495 13 457 2Q440 -3 428.5 -6Q417 -9 405.5 -11Q394 -13 381 -13.5Q368 -14 348 -14Q232 -14 174.5 55Q117 124 112 252Z" glyph-name="Euro" horiz-adv-x="582" unicode="&#8364;" /><glyph d="M58 198 64 240H102Q103 253 104 265Q105 277 107 288H71L77 329H115Q140 419 207.5 475Q275 531 372 531Q404 531 428.5 526Q453 521 484 509Q500 502 507.5 491.5Q515 481 515 466Q515 462 514 450.5Q513 439 511 421L505 350H481Q471 419 442 453Q413 487 370 487Q326 487 297 445.5Q268 404 258 329H442L436 288H253Q252 277 251.5 265Q251 253 251 240H426L420 198H252Q256 114 279.5 72.5Q303 31 349 31Q385 31 416 65Q447 99 482 182L506 179L482 71Q475 35 460 21.5Q445 8 411 -1Q381 -8 364.5 -10.5Q348 -13 314 -13Q213 -13 161 42.5Q109 98 103 198Z" glyph-name="Euro.smcp" horiz-adv-x="551" /><glyph d="M23 0 26 30 64 37Q93 43 104.5 56Q116 69 118 103L155 518Q156 536 157 546Q158 556 158 560Q158 583 148 593.5Q138 604 113 609L77 616L79 646H548Q562 646 569 640Q576 634 576 621Q576 620 575 610Q574 600 572 582L562 458H536L531 487Q521 553 494 576Q467 599 406 599H308L287 356H425L449 447H478L458 218H430L421 309H282L259 45L371 33L369 0Z" glyph-name="F" horiz-adv-x="545" unicode="F" /><glyph d="M341 -14Q210 -14 139 68Q68 150 68 291Q68 369 91.5 437Q115 505 158 554.5Q201 604 260.5 632Q320 660 392 660Q438 660 476 651Q514 642 542 629Q559 620 565.5 609.5Q572 599 572 581Q572 577 571 565Q570 553 569 540L560 443H532Q516 531 480.5 571.5Q445 612 385 612Q320 612 273.5 539.5Q227 467 227 310Q227 179 266 106.5Q305 34 369 34Q378 34 386 36Q394 38 402 40L420 253L346 264L349 296H604L602 264L585 260Q569 256 561.5 246Q554 236 552 207L540 74Q538 49 530.5 36Q523 23 504 16Q466 1 429 -6.5Q392 -14 341 -14Z" glyph-name="G" horiz-adv-x="608" unicode="G" /><glyph d="M378 693Q333 693 307 724.5Q281 756 281 814Q281 823 281 830Q281 837 282 844H303Q310 810 331 794.5Q352 779 386 779Q420 779 443.5 794.5Q467 810 479 844H501Q491 765 461 729Q431 693 378 693ZM341 -14Q210 -14 139 68Q68 150 68 291Q68 369 91.5 437Q115 505 158 554.5Q201 604 260.5 632Q320 660 392 660Q438 660 476 651Q514 642 542 629Q559 620 565.5 609.5Q572 599 572 581Q572 577 571 565Q570 553 569 540L560 443H532Q516 531 480.5 571.5Q445 612 385 612Q320 612 273.5 539.5Q227 467 227 310Q227 179 266 106.5Q305 34 369 34Q378 34 386 36Q394 38 402 40L420 253L346 264L349 296H604L602 264L585 260Q569 256 561.5 246Q554 236 552 207L540 74Q538 49 530.5 36Q523 23 504 16Q466 1 429 -6.5Q392 -14 341 -14Z" glyph-name="Gbreve" horiz-adv-x="608" unicode="&#286;" /><glyph d="M274 693 255 697 323 817Q336 839 346.5 846.5Q357 854 375 854H410Q428 854 437 846.5Q446 839 454 817L503 697L483 693L385 770ZM341 -14Q210 -14 139 68Q68 150 68 291Q68 369 91.5 437Q115 505 158 554.5Q201 604 260.5 632Q320 660 392 660Q438 660 476 651Q514 642 542 629Q559 620 565.5 609.5Q572 599 572 581Q572 577 571 565Q570 553 569 540L560 443H532Q516 531 480.5 571.5Q445 612 385 612Q320 612 273.5 539.5Q227 467 227 310Q227 179 266 106.5Q305 34 369 34Q378 34 386 36Q394 38 402 40L420 253L346 264L349 296H604L602 264L585 260Q569 256 561.5 246Q554 236 552 207L540 74Q538 49 530.5 36Q523 23 504 16Q466 1 429 -6.5Q392 -14 341 -14Z" glyph-name="Gcircumflex" horiz-adv-x="608" unicode="&#284;" /><glyph d="M341 -14Q210 -14 139 68Q68 150 68 291Q68 369 91.5 437Q115 505 158 554.5Q201 604 260.5 632Q320 660 392 660Q438 660 476 651Q514 642 542 629Q559 620 565.5 609.5Q572 599 572 581Q572 577 571 565Q570 553 569 540L560 443H532Q516 531 480.5 571.5Q445 612 385 612Q320 612 273.5 539.5Q227 467 227 310Q227 179 266 106.5Q305 34 369 34Q378 34 386 36Q394 38 402 40L420 253L346 264L349 296H604L602 264L585 260Q569 256 561.5 246Q554 236 552 207L540 74Q538 49 530.5 36Q523 23 504 16Q466 1 429 -6.5Q392 -14 341 -14ZM244 -270 240 -253Q264 -231 278.5 -211Q293 -191 302 -165L283 -105Q281 -99 280 -95Q279 -91 279 -89Q279 -78 296 -68.5Q313 -59 337 -59Q368 -59 383.5 -78Q399 -97 399 -125Q399 -170 362 -206Q325 -242 244 -270Z" glyph-name="Gcommaaccent" horiz-adv-x="608" unicode="&#290;" /><glyph d="M379 700Q346 700 328 719.5Q310 739 310 770Q310 807 332.5 831.5Q355 856 393 856Q427 856 444.5 836.5Q462 817 462 787Q462 750 440 725Q418 700 379 700ZM341 -14Q210 -14 139 68Q68 150 68 291Q68 369 91.5 437Q115 505 158 554.5Q201 604 260.5 632Q320 660 392 660Q438 660 476 651Q514 642 542 629Q559 620 565.5 609.5Q572 599 572 581Q572 577 571 565Q570 553 569 540L560 443H532Q516 531 480.5 571.5Q445 612 385 612Q320 612 273.5 539.5Q227 467 227 310Q227 179 266 106.5Q305 34 369 34Q378 34 386 36Q394 38 402 40L420 253L346 264L349 296H604L602 264L585 260Q569 256 561.5 246Q554 236 552 207L540 74Q538 49 530.5 36Q523 23 504 16Q466 1 429 -6.5Q392 -14 341 -14Z" glyph-name="Gdotaccent" horiz-adv-x="608" unicode="&#288;" /><glyph d="M431 -13Q361 -13 320 19.5Q279 52 279 107Q279 132 293 147Q307 162 331 162Q346 162 351 157.5Q356 153 361 134L384 40Q394 34 403 31.5Q412 29 424 29Q464 29 484.5 60.5Q505 92 505 154Q505 220 470.5 259.5Q436 299 358 322L357 350L523 585H382Q331 585 308.5 561.5Q286 538 281 479L240 0H13L16 30L53 37Q84 43 94.5 56Q105 69 108 103L138 443Q146 537 203.5 591.5Q261 646 352 646H626L630 615L459 381Q549 370 602.5 316.5Q656 263 656 185Q656 90 597 38.5Q538 -13 431 -13Z" glyph-name="Germandbls" horiz-adv-x="666" unicode="&#7838;" /><glyph d="M23 0 26 30 64 37Q93 43 104.5 56Q116 69 118 103L155 518Q156 536 157 546Q158 556 158 560Q158 583 148 593.5Q138 604 113 609L77 616L79 646H387L384 615L308 604L287 368H496L517 604L444 615L446 646H753L750 616L713 609Q683 603 671.5 590Q660 577 658 543L622 137Q621 118 619.5 104Q618 90 618 86Q618 63 627.5 52Q637 41 662 37L699 30L696 0H388L390 31L468 42L492 320H283L259 42L332 31L329 0Z" glyph-name="H" horiz-adv-x="719" unicode="H" /><glyph d="M23 0 26 30 64 37Q93 43 104.5 56Q116 69 118 103L151 470H85L88 511H155Q156 535 157 545.5Q158 556 158 560Q158 583 148 593.5Q138 604 113 609L77 616L79 646H387L384 615L308 604L300 511H509L517 604L444 615L446 646H753L750 616L713 609Q683 603 671.5 590Q660 577 658 543L655 511H723L719 470H651L622 137Q621 118 619.5 104Q618 90 618 86Q618 63 627.5 52Q637 41 662 37L699 30L696 0H388L390 31L468 42L492 320H283L259 42L332 31L329 0ZM287 368H496L506 470H297Z" glyph-name="Hbar" horiz-adv-x="719" unicode="&#294;" /><glyph d="M316 693 297 697 365 817Q378 839 388.5 846.5Q399 854 417 854H452Q470 854 479 846.5Q488 839 496 817L545 697L525 693L427 770ZM23 0 26 30 64 37Q93 43 104.5 56Q116 69 118 103L155 518Q156 536 157 546Q158 556 158 560Q158 583 148 593.5Q138 604 113 609L77 616L79 646H387L384 615L308 604L287 368H496L517 604L444 615L446 646H753L750 616L713 609Q683 603 671.5 590Q660 577 658 543L622 137Q621 118 619.5 104Q618 90 618 86Q618 63 627.5 52Q637 41 662 37L699 30L696 0H388L390 31L468 42L492 320H283L259 42L332 31L329 0Z" glyph-name="Hcircumflex" horiz-adv-x="719" unicode="&#292;" /><glyph d="M23 0 26 30 63 37Q93 43 104.5 56Q116 69 118 103L155 520Q156 536 157 546Q158 556 158 560Q158 583 148 593.5Q138 604 113 609L77 616L79 646H397L394 616L358 609Q328 603 316.5 590Q305 577 303 543L266 126Q265 110 264 100Q263 90 263 86Q263 63 273 52Q283 41 308 37L345 30L343 0Z" glyph-name="I" horiz-adv-x="364" unicode="I" /><glyph d="M23 0 26 30 63 37Q93 43 104.5 56Q116 69 118 103L155 520Q156 536 157 546Q158 556 158 560Q158 583 148 593.5Q138 604 113 609L77 616L79 646H397L394 616L358 609Q328 603 316.5 590Q305 577 303 543L266 126Q265 110 264 100Q263 90 263 86Q263 63 273 52Q283 41 308 37L345 30L343 0ZM361 -157 354 -132Q385 -111 404.5 -92Q424 -73 436.5 -48Q449 -23 456 11.5Q463 46 467 96L505 520Q506 536 507 546Q508 556 508 560Q508 583 497.5 594Q487 605 463 609L426 616L429 646H747L745 616L708 609Q677 603 666 590Q655 577 652 543L619 155Q613 87 598 38Q583 -11 553.5 -46Q524 -81 477 -107.5Q430 -134 361 -157Z" glyph-name="IJ" horiz-adv-x="697" unicode="&#306;" /><glyph d="M204 692 198 709 333 846Q345 859 349.5 861.5Q354 864 359 864Q375 864 392 846Q409 828 409 800Q409 772 393 755Q377 738 350 731ZM23 0 26 30 63 37Q93 43 104.5 56Q116 69 118 103L155 520Q156 536 157 546Q158 556 158 560Q158 583 148 593.5Q138 604 113 609L77 616L79 646H397L394 616L358 609Q328 603 316.5 590Q305 577 303 543L266 126Q265 110 264 100Q263 90 263 86Q263 63 273 52Q283 41 308 37L345 30L343 0Z" glyph-name="Iacute" horiz-adv-x="364" unicode="&#205;" /><glyph d="M240 693Q195 693 169 724.5Q143 756 143 814Q143 823 143 830Q143 837 144 844H165Q172 810 193 794.5Q214 779 248 779Q282 779 305.5 794.5Q329 810 341 844H363Q353 765 323 729Q293 693 240 693ZM23 0 26 30 63 37Q93 43 104.5 56Q116 69 118 103L155 520Q156 536 157 546Q158 556 158 560Q158 583 148 593.5Q138 604 113 609L77 616L79 646H397L394 616L358 609Q328 603 316.5 590Q305 577 303 543L266 126Q265 110 264 100Q263 90 263 86Q263 63 273 52Q283 41 308 37L345 30L343 0Z" glyph-name="Ibreve" horiz-adv-x="364" unicode="&#300;" /><glyph d="M136 693 117 697 185 817Q198 839 208.5 846.5Q219 854 237 854H272Q290 854 299 846.5Q308 839 316 817L365 697L345 693L247 770ZM23 0 26 30 63 37Q93 43 104.5 56Q116 69 118 103L155 520Q156 536 157 546Q158 556 158 560Q158 583 148 593.5Q138 604 113 609L77 616L79 646H397L394 616L358 609Q328 603 316.5 590Q305 577 303 543L266 126Q265 110 264 100Q263 90 263 86Q263 63 273 52Q283 41 308 37L345 30L343 0Z" glyph-name="Icircumflex" horiz-adv-x="364" unicode="&#206;" /><glyph d="M145 699Q113 699 96 717.5Q79 736 79 765Q79 800 100.5 824Q122 848 159 848Q191 848 208.5 829.5Q226 811 226 782Q226 747 204 723Q182 699 145 699ZM335 699Q303 699 286 717.5Q269 736 269 765Q269 800 290.5 824Q312 848 349 848Q381 848 398.5 829.5Q416 811 416 782Q416 747 394 723Q372 699 335 699ZM23 0 26 30 63 37Q93 43 104.5 56Q116 69 118 103L155 520Q156 536 157 546Q158 556 158 560Q158 583 148 593.5Q138 604 113 609L77 616L79 646H397L394 616L358 609Q328 603 316.5 590Q305 577 303 543L266 126Q265 110 264 100Q263 90 263 86Q263 63 273 52Q283 41 308 37L345 30L343 0Z" glyph-name="Idieresis" horiz-adv-x="364" unicode="&#207;" /><glyph d="M241 700Q208 700 190 719.5Q172 739 172 770Q172 807 194.5 831.5Q217 856 255 856Q289 856 306.5 836.5Q324 817 324 787Q324 750 302 725Q280 700 241 700ZM23 0 26 30 63 37Q93 43 104.5 56Q116 69 118 103L155 520Q156 536 157 546Q158 556 158 560Q158 583 148 593.5Q138 604 113 609L77 616L79 646H397L394 616L358 609Q328 603 316.5 590Q305 577 303 543L266 126Q265 110 264 100Q263 90 263 86Q263 63 273 52Q283 41 308 37L345 30L343 0Z" glyph-name="Idotaccent" horiz-adv-x="364" unicode="&#304;" /><glyph d="M276 693 132 733Q110 740 98.5 755.5Q87 771 87 793Q87 821 106.5 842Q126 863 149 863Q153 863 158 860.5Q163 858 173 845L286 710ZM23 0 26 30 63 37Q93 43 104.5 56Q116 69 118 103L155 520Q156 536 157 546Q158 556 158 560Q158 583 148 593.5Q138 604 113 609L77 616L79 646H397L394 616L358 609Q328 603 316.5 590Q305 577 303 543L266 126Q265 110 264 100Q263 90 263 86Q263 63 273 52Q283 41 308 37L345 30L343 0Z" glyph-name="Igrave" horiz-adv-x="364" unicode="&#204;" /><glyph d="M124 737 129 790H369L364 737ZM23 0 26 30 63 37Q93 43 104.5 56Q116 69 118 103L155 520Q156 536 157 546Q158 556 158 560Q158 583 148 593.5Q138 604 113 609L77 616L79 646H397L394 616L358 609Q328 603 316.5 590Q305 577 303 543L266 126Q265 110 264 100Q263 90 263 86Q263 63 273 52Q283 41 308 37L345 30L343 0Z" glyph-name="Imacron" horiz-adv-x="364" unicode="&#298;" /><glyph d="M114 -248Q74 -248 51 -225Q28 -202 28 -162Q28 -111 65 -70.5Q102 -30 176 0H23L26 30L63 37Q93 43 104.5 56Q116 69 118 103L155 520Q156 536 157 546Q158 556 158 560Q158 583 148 593.5Q138 604 113 609L77 616L79 646H397L394 616L358 609Q328 603 316.5 590Q305 577 303 543L266 126Q265 110 264 100Q263 90 263 86Q263 63 273 52Q283 41 308 37L345 30L343 0H227Q181 -37 160.5 -70.5Q140 -104 140 -141Q140 -163 150 -175.5Q160 -188 178 -188Q191 -188 204 -183.5Q217 -179 231 -171L224 -201Q199 -225 171.5 -236.5Q144 -248 114 -248Z" glyph-name="Iogonek" horiz-adv-x="364" unicode="&#302;" /><glyph d="M279 704Q263 704 251.5 709Q240 714 230 720Q220 726 210 731Q200 736 186 736Q176 736 165.5 729.5Q155 723 148 701H124Q129 765 152 795Q175 825 208 825Q238 825 256.5 809.5Q275 794 302 794Q318 794 329 804.5Q340 815 345 840L369 839Q363 773 341 738.5Q319 704 279 704ZM23 0 26 30 63 37Q93 43 104.5 56Q116 69 118 103L155 520Q156 536 157 546Q158 556 158 560Q158 583 148 593.5Q138 604 113 609L77 616L79 646H397L394 616L358 609Q328 603 316.5 590Q305 577 303 543L266 126Q265 110 264 100Q263 90 263 86Q263 63 273 52Q283 41 308 37L345 30L343 0Z" glyph-name="Itilde" horiz-adv-x="364" unicode="&#296;" /><glyph d="M-3 -157 -10 -132Q21 -111 40.5 -92Q60 -73 72.5 -48Q85 -23 92 11.5Q99 46 103 96L141 520Q142 536 143 546Q144 556 144 560Q144 583 133.5 594Q123 605 99 609L62 616L65 646H383L381 616L344 609Q313 603 302 590Q291 577 288 543L255 155Q249 87 234 38Q219 -11 189.5 -46Q160 -81 113 -107.5Q66 -134 -3 -157Z" glyph-name="J" horiz-adv-x="333" unicode="J" /><glyph d="M123 693 104 697 172 817Q185 839 195.5 846.5Q206 854 224 854H259Q277 854 286 846.5Q295 839 303 817L352 697L332 693L234 770ZM-3 -157 -10 -132Q21 -111 40.5 -92Q60 -73 72.5 -48Q85 -23 92 11.5Q99 46 103 96L141 520Q142 536 143 546Q144 556 144 560Q144 583 133.5 594Q123 605 99 609L62 616L65 646H383L381 616L344 609Q313 603 302 590Q291 577 288 543L255 155Q249 87 234 38Q219 -11 189.5 -46Q160 -81 113 -107.5Q66 -134 -3 -157Z" glyph-name="Jcircumflex" horiz-adv-x="333" unicode="&#308;" /><glyph d="M23 0 26 30 64 37Q93 43 104.5 56Q116 69 118 103L155 518Q156 536 157 546Q158 556 158 560Q158 583 148 594Q138 605 113 609L77 616L79 646H383L380 615L306 604L257 42L327 31L325 0ZM531 0Q491 0 470.5 15.5Q450 31 434 59L286 326L288 339L560 605L479 616L482 646H701L698 615L675 607Q646 598 631.5 591Q617 584 600 566L415 387L600 68Q610 51 620 43.5Q630 36 651 31L648 0Z" glyph-name="K" horiz-adv-x="639" unicode="K" /><glyph d="M23 0 26 30 64 37Q93 43 104.5 56Q116 69 118 103L155 518Q156 536 157 546Q158 556 158 560Q158 583 148 594Q138 605 113 609L77 616L79 646H383L380 615L306 604L257 42L327 31L325 0ZM531 0Q491 0 470.5 15.5Q450 31 434 59L286 326L288 339L560 605L479 616L482 646H701L698 615L675 607Q646 598 631.5 591Q617 584 600 566L415 387L600 68Q610 51 620 43.5Q630 36 651 31L648 0ZM257 -270 253 -253Q277 -231 291.5 -211Q306 -191 315 -165L296 -105Q294 -99 293 -95Q292 -91 292 -89Q292 -78 309 -68.5Q326 -59 350 -59Q381 -59 396.5 -78Q412 -97 412 -125Q412 -170 375 -206Q338 -242 257 -270Z" glyph-name="Kcommaaccent" horiz-adv-x="639" unicode="&#310;" /><glyph d="M461 -8Q457 -8 439.5 -6.5Q422 -5 400.5 -4Q379 -3 357 -1.5Q335 0 320 0H23L26 30L64 37Q93 43 104.5 56Q116 69 118 103L155 520Q156 536 157 546Q158 556 158 560Q158 583 148 593.5Q138 604 113 609L77 616L79 646H419L416 614L309 602L261 51Q271 49 285 48Q299 47 311 47Q376 47 418.5 78.5Q461 110 495 188L511 224L536 219L495 21Q492 7 483.5 -0.5Q475 -8 461 -8Z" glyph-name="L" horiz-adv-x="540" unicode="L" /><glyph d="M203 692 197 709 332 846Q344 859 348.5 861.5Q353 864 358 864Q374 864 391 846Q408 828 408 800Q408 772 392 755Q376 738 349 731ZM461 -8Q457 -8 439.5 -6.5Q422 -5 400.5 -4Q379 -3 357 -1.5Q335 0 320 0H23L26 30L64 37Q93 43 104.5 56Q116 69 118 103L155 520Q156 536 157 546Q158 556 158 560Q158 583 148 593.5Q138 604 113 609L77 616L79 646H419L416 614L309 602L261 51Q271 49 285 48Q299 47 311 47Q376 47 418.5 78.5Q461 110 495 188L511 224L536 219L495 21Q492 7 483.5 -0.5Q475 -8 461 -8Z" glyph-name="Lacute" horiz-adv-x="539" unicode="&#313;" /><glyph d="M444 431 425 438 464 618Q469 643 474.5 648.5Q480 654 497 654Q527 654 547.5 639Q568 624 568 598Q568 581 560.5 567Q553 553 542 539ZM461 -8Q457 -8 439.5 -6.5Q422 -5 400.5 -4Q379 -3 357 -1.5Q335 0 320 0H23L26 30L64 37Q93 43 104.5 56Q116 69 118 103L155 520Q156 536 157 546Q158 556 158 560Q158 583 148 593.5Q138 604 113 609L77 616L79 646H419L416 614L309 602L261 51Q271 49 285 48Q299 47 311 47Q376 47 418.5 78.5Q461 110 495 188L511 224L536 219L495 21Q492 7 483.5 -0.5Q475 -8 461 -8Z" glyph-name="Lcaron" horiz-adv-x="539" unicode="&#317;" /><glyph d="M461 -8Q457 -8 439.5 -6.5Q422 -5 400.5 -4Q379 -3 357 -1.5Q335 0 320 0H23L26 30L64 37Q93 43 104.5 56Q116 69 118 103L155 520Q156 536 157 546Q158 556 158 560Q158 583 148 593.5Q138 604 113 609L77 616L79 646H419L416 614L309 602L261 51Q271 49 285 48Q299 47 311 47Q376 47 418.5 78.5Q461 110 495 188L511 224L536 219L495 21Q492 7 483.5 -0.5Q475 -8 461 -8ZM198 -270 194 -253Q218 -231 232.5 -211Q247 -191 256 -165L237 -105Q235 -99 234 -95Q233 -91 233 -89Q233 -78 250 -68.5Q267 -59 291 -59Q322 -59 337.5 -78Q353 -97 353 -125Q353 -170 316 -206Q279 -242 198 -270Z" glyph-name="Lcommaaccent" horiz-adv-x="539" unicode="&#315;" /><glyph d="M989 -8Q985 -8 967.5 -6.5Q950 -5 928.5 -4Q907 -3 885 -1.5Q863 0 848 0H551L554 30L592 37Q621 43 632.5 56Q644 69 646 103L683 520Q684 536 685 546Q686 556 686 560Q686 583 676 593.5Q666 604 641 609L605 616L607 646H947L944 614L837 602L789 51Q799 49 813 48Q827 47 839 47Q904 47 946.5 78.5Q989 110 1023 188L1039 224L1064 219L1023 21Q1020 7 1011.5 -0.5Q1003 -8 989 -8ZM461 -8Q457 -8 439.5 -6.5Q422 -5 400.5 -4Q379 -3 357 -1.5Q335 0 320 0H23L26 30L64 37Q93 43 104.5 56Q116 69 118 103L155 520Q156 536 157 546Q158 556 158 560Q158 583 148 593.5Q138 604 113 609L77 616L79 646H419L416 614L309 602L261 51Q271 49 285 48Q299 47 311 47Q376 47 418.5 78.5Q461 110 495 188L511 224L536 219L495 21Q492 7 483.5 -0.5Q475 -8 461 -8ZM477 301Q446 301 426.5 320.5Q407 340 407 371Q407 408 430.5 434Q454 460 489 460Q520 460 539 440Q558 420 558 389Q558 352 535.5 326.5Q513 301 477 301Z" glyph-name="Ldot" horiz-adv-x="1067" unicode="&#319;" /><glyph d="M461 -8Q457 -8 439.5 -6.5Q422 -5 400.5 -4Q379 -3 357 -1.5Q335 0 320 0H23L26 30L64 37Q93 43 104.5 56Q116 69 118 103L131 248L68 212L71 263L136 301L155 520Q156 536 157 546Q158 556 158 560Q158 583 148 593.5Q138 604 113 609L77 616L79 646H419L416 614L309 602L291 388L394 448L391 397L286 336L261 51Q271 49 285 48Q299 47 311 47Q376 47 418.5 78.5Q461 110 495 188L511 224L536 219L495 21Q492 7 483.5 -0.5Q475 -8 461 -8Z" glyph-name="Lslash" horiz-adv-x="539" unicode="&#321;" /><glyph d="M20 0 22 29 57 37Q80 41 90.5 52Q101 63 105 91L164 499Q168 529 170 545.5Q172 562 172 567Q172 585 164 593.5Q156 602 134 606L90 616L93 646H303Q325 646 336 638.5Q347 631 351 611L426 292L577 646H829L826 616L785 607Q755 600 745 588Q735 576 734 540L714 115Q713 100 713 92.5Q713 85 713 81Q713 61 721 51.5Q729 42 747 38L785 30L782 0H469L471 31L566 44L588 531L398 82H362Q347 82 339.5 87.5Q332 93 327 113L222 529L156 43L247 30L245 0Z" glyph-name="M" horiz-adv-x="810" unicode="M" /><glyph d="M25 0 27 30 56 35Q84 41 96 54Q108 67 112 105L151 471Q153 495 155.5 519.5Q158 544 158 550Q158 575 148 587.5Q138 600 114 606L76 616L79 646H246Q274 646 284.5 640.5Q295 635 305 618L523 213L557 602L462 617L465 646H695L692 616L662 610Q634 605 622.5 592Q611 579 607 541L552 -1H516Q495 -1 483.5 5.5Q472 12 462 30L203 497L163 44L258 29L255 0Z" glyph-name="N" horiz-adv-x="651" unicode="N" /><glyph d="M360 692 354 709 489 846Q501 859 505.5 861.5Q510 864 515 864Q531 864 548 846Q565 828 565 800Q565 772 549 755Q533 738 506 731ZM25 0 27 30 56 35Q84 41 96 54Q108 67 112 105L151 471Q153 495 155.5 519.5Q158 544 158 550Q158 575 148 587.5Q138 600 114 606L76 616L79 646H246Q274 646 284.5 640.5Q295 635 305 618L523 213L557 602L462 617L465 646H695L692 616L662 610Q634 605 622.5 592Q611 579 607 541L552 -1H516Q495 -1 483.5 5.5Q472 12 462 30L203 497L163 44L258 29L255 0Z" glyph-name="Nacute" horiz-adv-x="650" unicode="&#323;" /><glyph d="M378 694Q360 694 351 702Q342 710 334 731L285 851L305 856L403 777L512 856L533 851L464 731Q452 709 441.5 701.5Q431 694 413 694ZM25 0 27 30 56 35Q84 41 96 54Q108 67 112 105L151 471Q153 495 155.5 519.5Q158 544 158 550Q158 575 148 587.5Q138 600 114 606L76 616L79 646H246Q274 646 284.5 640.5Q295 635 305 618L523 213L557 602L462 617L465 646H695L692 616L662 610Q634 605 622.5 592Q611 579 607 541L552 -1H516Q495 -1 483.5 5.5Q472 12 462 30L203 497L163 44L258 29L255 0Z" glyph-name="Ncaron" horiz-adv-x="650" unicode="&#327;" /><glyph d="M25 0 27 30 56 35Q84 41 96 54Q108 67 112 105L151 471Q153 495 155.5 519.5Q158 544 158 550Q158 575 148 587.5Q138 600 114 606L76 616L79 646H246Q274 646 284.5 640.5Q295 635 305 618L523 213L557 602L462 617L465 646H695L692 616L662 610Q634 605 622.5 592Q611 579 607 541L552 -1H516Q495 -1 483.5 5.5Q472 12 462 30L203 497L163 44L258 29L255 0ZM227 -270 223 -253Q247 -231 261.5 -211Q276 -191 285 -165L266 -105Q264 -99 263 -95Q262 -91 262 -89Q262 -78 279 -68.5Q296 -59 320 -59Q351 -59 366.5 -78Q382 -97 382 -125Q382 -170 345 -206Q308 -242 227 -270Z" glyph-name="Ncommaaccent" horiz-adv-x="650" unicode="&#325;" /><glyph d="M435 704Q419 704 407.5 709Q396 714 386 720Q376 726 366 731Q356 736 342 736Q332 736 321.5 729.5Q311 723 304 701H280Q285 765 308 795Q331 825 364 825Q394 825 412.5 809.5Q431 794 458 794Q474 794 485 804.5Q496 815 501 840L525 839Q519 773 497 738.5Q475 704 435 704ZM25 0 27 30 56 35Q84 41 96 54Q108 67 112 105L151 471Q153 495 155.5 519.5Q158 544 158 550Q158 575 148 587.5Q138 600 114 606L76 616L79 646H246Q274 646 284.5 640.5Q295 635 305 618L523 213L557 602L462 617L465 646H695L692 616L662 610Q634 605 622.5 592Q611 579 607 541L552 -1H516Q495 -1 483.5 5.5Q472 12 462 30L203 497L163 44L258 29L255 0Z" glyph-name="Ntilde" horiz-adv-x="650" unicode="&#209;" /><glyph d="M325 -14Q269 -14 221.5 6Q174 26 140 63.5Q106 101 87 155Q68 209 68 276Q68 357 92 427.5Q116 498 158.5 549Q201 600 260 630Q319 660 390 660Q446 660 493.5 640Q541 620 575 582.5Q609 545 628 491Q647 437 647 370Q647 289 623 218.5Q599 148 556.5 97Q514 46 455 16Q396 -14 325 -14ZM344 34Q401 34 442.5 125Q484 216 484 379Q484 486 453 549Q422 612 371 612Q314 612 272.5 520.5Q231 429 231 267Q231 160 262 97Q293 34 344 34Z" glyph-name="O" horiz-adv-x="658" unicode="O" /><glyph d="M783 -8Q777 -8 761 -6.5Q745 -5 725.5 -4Q706 -3 685 -1.5Q664 0 649 0H332Q213 0 140.5 71.5Q68 143 68 276Q68 356 92.5 424.5Q117 493 161 542Q205 591 266.5 618.5Q328 646 400 646H846Q860 646 866.5 639.5Q873 633 873 621Q873 617 872 609Q871 601 870 589L859 458H832L828 487Q819 553 791.5 576Q764 599 703 599H600L579 364H725L747 454H777L756 226H728L721 317H575L552 53Q570 50 595 48Q620 46 644 46Q710 46 747 75.5Q784 105 813 174L825 202L851 197L816 23Q813 7 805.5 -0.5Q798 -8 783 -8ZM346 48Q364 48 379.5 52.5Q395 57 408 68L451 559Q443 578 428.5 588Q414 598 392 598Q362 598 333 576.5Q304 555 281.5 513.5Q259 472 245 410Q231 348 231 267Q231 158 263 103Q295 48 346 48Z" glyph-name="OE" horiz-adv-x="864" unicode="&#338;" /><glyph d="M353 692 347 709 482 846Q494 859 498.5 861.5Q503 864 508 864Q524 864 541 846Q558 828 558 800Q558 772 542 755Q526 738 499 731ZM325 -14Q269 -14 221.5 6Q174 26 140 63.5Q106 101 87 155Q68 209 68 276Q68 357 92 427.5Q116 498 158.5 549Q201 600 260 630Q319 660 390 660Q446 660 493.5 640Q541 620 575 582.5Q609 545 628 491Q647 437 647 370Q647 289 623 218.5Q599 148 556.5 97Q514 46 455 16Q396 -14 325 -14ZM344 34Q401 34 442.5 125Q484 216 484 379Q484 486 453 549Q422 612 371 612Q314 612 272.5 520.5Q231 429 231 267Q231 160 262 97Q293 34 344 34Z" glyph-name="Oacute" horiz-adv-x="658" unicode="&#211;" /><glyph d="M389 693Q344 693 318 724.5Q292 756 292 814Q292 823 292 830Q292 837 293 844H314Q321 810 342 794.5Q363 779 397 779Q431 779 454.5 794.5Q478 810 490 844H512Q502 765 472 729Q442 693 389 693ZM325 -14Q269 -14 221.5 6Q174 26 140 63.5Q106 101 87 155Q68 209 68 276Q68 357 92 427.5Q116 498 158.5 549Q201 600 260 630Q319 660 390 660Q446 660 493.5 640Q541 620 575 582.5Q609 545 628 491Q647 437 647 370Q647 289 623 218.5Q599 148 556.5 97Q514 46 455 16Q396 -14 325 -14ZM344 34Q401 34 442.5 125Q484 216 484 379Q484 486 453 549Q422 612 371 612Q314 612 272.5 520.5Q231 429 231 267Q231 160 262 97Q293 34 344 34Z" glyph-name="Obreve" horiz-adv-x="658" unicode="&#334;" /><glyph d="M285 693 266 697 334 817Q347 839 357.5 846.5Q368 854 386 854H421Q439 854 448 846.5Q457 839 465 817L514 697L494 693L396 770ZM325 -14Q269 -14 221.5 6Q174 26 140 63.5Q106 101 87 155Q68 209 68 276Q68 357 92 427.5Q116 498 158.5 549Q201 600 260 630Q319 660 390 660Q446 660 493.5 640Q541 620 575 582.5Q609 545 628 491Q647 437 647 370Q647 289 623 218.5Q599 148 556.5 97Q514 46 455 16Q396 -14 325 -14ZM344 34Q401 34 442.5 125Q484 216 484 379Q484 486 453 549Q422 612 371 612Q314 612 272.5 520.5Q231 429 231 267Q231 160 262 97Q293 34 344 34Z" glyph-name="Ocircumflex" horiz-adv-x="658" unicode="&#212;" /><glyph d="M294 699Q262 699 245 717.5Q228 736 228 765Q228 800 249.5 824Q271 848 308 848Q340 848 357.5 829.5Q375 811 375 782Q375 747 353 723Q331 699 294 699ZM484 699Q452 699 435 717.5Q418 736 418 765Q418 800 439.5 824Q461 848 498 848Q530 848 547.5 829.5Q565 811 565 782Q565 747 543 723Q521 699 484 699ZM325 -14Q269 -14 221.5 6Q174 26 140 63.5Q106 101 87 155Q68 209 68 276Q68 357 92 427.5Q116 498 158.5 549Q201 600 260 630Q319 660 390 660Q446 660 493.5 640Q541 620 575 582.5Q609 545 628 491Q647 437 647 370Q647 289 623 218.5Q599 148 556.5 97Q514 46 455 16Q396 -14 325 -14ZM344 34Q401 34 442.5 125Q484 216 484 379Q484 486 453 549Q422 612 371 612Q314 612 272.5 520.5Q231 429 231 267Q231 160 262 97Q293 34 344 34Z" glyph-name="Odieresis" horiz-adv-x="658" unicode="&#214;" /><glyph d="M425 693 281 733Q259 740 247.5 755.5Q236 771 236 793Q236 821 255.5 842Q275 863 298 863Q302 863 307 860.5Q312 858 322 845L435 710ZM325 -14Q269 -14 221.5 6Q174 26 140 63.5Q106 101 87 155Q68 209 68 276Q68 357 92 427.5Q116 498 158.5 549Q201 600 260 630Q319 660 390 660Q446 660 493.5 640Q541 620 575 582.5Q609 545 628 491Q647 437 647 370Q647 289 623 218.5Q599 148 556.5 97Q514 46 455 16Q396 -14 325 -14ZM344 34Q401 34 442.5 125Q484 216 484 379Q484 486 453 549Q422 612 371 612Q314 612 272.5 520.5Q231 429 231 267Q231 160 262 97Q293 34 344 34Z" glyph-name="Ograve" horiz-adv-x="658" unicode="&#210;" /><glyph d="M311 687 296 699 370 856Q380 876 385.5 882Q391 888 401 888Q422 888 444 873.5Q466 859 466 831Q466 815 457 801.5Q448 788 433 778ZM421 686 414 703 533 828Q546 840 550 843Q554 846 560 846Q576 846 593.5 831Q611 816 611 788Q611 766 598.5 750Q586 734 563 727ZM325 -14Q269 -14 221.5 6Q174 26 140 63.5Q106 101 87 155Q68 209 68 276Q68 357 92 427.5Q116 498 158.5 549Q201 600 260 630Q319 660 390 660Q446 660 493.5 640Q541 620 575 582.5Q609 545 628 491Q647 437 647 370Q647 289 623 218.5Q599 148 556.5 97Q514 46 455 16Q396 -14 325 -14ZM344 34Q401 34 442.5 125Q484 216 484 379Q484 486 453 549Q422 612 371 612Q314 612 272.5 520.5Q231 429 231 267Q231 160 262 97Q293 34 344 34Z" glyph-name="Ohungarumlaut" horiz-adv-x="658" unicode="&#336;" /><glyph d="M273 737 278 790H518L513 737ZM325 -14Q269 -14 221.5 6Q174 26 140 63.5Q106 101 87 155Q68 209 68 276Q68 357 92 427.5Q116 498 158.5 549Q201 600 260 630Q319 660 390 660Q446 660 493.5 640Q541 620 575 582.5Q609 545 628 491Q647 437 647 370Q647 289 623 218.5Q599 148 556.5 97Q514 46 455 16Q396 -14 325 -14ZM344 34Q401 34 442.5 125Q484 216 484 379Q484 486 453 549Q422 612 371 612Q314 612 272.5 520.5Q231 429 231 267Q231 160 262 97Q293 34 344 34Z" glyph-name="Omacron" horiz-adv-x="658" unicode="&#332;" /><glyph d="M63 -8Q50 -8 44 -0.5Q38 7 38 23L33 200L57 205L63 174Q79 104 108 74Q137 44 194 43H317Q224 70 173.5 149.5Q123 229 130 337Q134 407 159 466.5Q184 526 225 568.5Q266 611 321 635Q376 659 439 659Q501 659 550.5 637.5Q600 616 633 576.5Q666 537 682 481.5Q698 426 694 359Q691 303 672 251.5Q653 200 621 158.5Q589 117 546 87Q503 57 452 43H574Q631 44 665 73.5Q699 103 727 174L739 205L762 200L727 23Q723 7 716.5 -0.5Q710 -8 697 -8Q694 -8 680.5 -7Q667 -6 649 -4.5Q631 -3 612 -1.5Q593 0 581 0H409L407 34Q461 63 500 151Q539 239 546 361Q553 477 523.5 543Q494 609 434 609Q368 609 326 535.5Q284 462 277 332Q270 219 293.5 141.5Q317 64 360 35L353 0H179Q167 0 148 -1.5Q129 -3 111 -4.5Q93 -6 79 -7Q65 -8 63 -8Z" glyph-name="Omega" horiz-adv-x="760" unicode="&#8486;" /><glyph d="M38 -22 124 83Q98 119 83 168Q68 217 68 276Q68 357 92 427.5Q116 498 158.5 549Q201 600 260 630Q319 660 390 660Q438 660 480 645.5Q522 631 554 603L607 667H670L588 567Q616 530 631.5 480Q647 430 647 370Q647 289 623 218.5Q599 148 556.5 97Q514 46 455 16Q396 -14 325 -14Q275 -14 232.5 1.5Q190 17 157 47L100 -22ZM231 267Q231 253 231.5 240Q232 227 233 214L470 502Q457 554 431 583Q405 612 371 612Q314 612 272.5 520.5Q231 429 231 267ZM344 34Q401 34 442.5 125Q484 216 484 379Q484 395 483 410Q482 425 481 439L243 151Q256 96 282 65Q308 34 344 34Z" glyph-name="Oslash" horiz-adv-x="658" unicode="&#216;" /><glyph d="M353 692 347 709 482 846Q494 859 498.5 861.5Q503 864 508 864Q524 864 541 846Q558 828 558 800Q558 772 542 755Q526 738 499 731ZM38 -22 124 83Q98 119 83 168Q68 217 68 276Q68 357 92 427.5Q116 498 158.5 549Q201 600 260 630Q319 660 390 660Q438 660 480 645.5Q522 631 554 603L607 667H670L588 567Q616 530 631.5 480Q647 430 647 370Q647 289 623 218.5Q599 148 556.5 97Q514 46 455 16Q396 -14 325 -14Q275 -14 232.5 1.5Q190 17 157 47L100 -22ZM231 267Q231 253 231.5 240Q232 227 233 214L470 502Q457 554 431 583Q405 612 371 612Q314 612 272.5 520.5Q231 429 231 267ZM344 34Q401 34 442.5 125Q484 216 484 379Q484 395 483 410Q482 425 481 439L243 151Q256 96 282 65Q308 34 344 34Z" glyph-name="Oslashacute" horiz-adv-x="658" unicode="&#510;" /><glyph d="M428 704Q412 704 400.5 709Q389 714 379 720Q369 726 359 731Q349 736 335 736Q325 736 314.5 729.5Q304 723 297 701H273Q278 765 301 795Q324 825 357 825Q387 825 405.5 809.5Q424 794 451 794Q467 794 478 804.5Q489 815 494 840L518 839Q512 773 490 738.5Q468 704 428 704ZM325 -14Q269 -14 221.5 6Q174 26 140 63.5Q106 101 87 155Q68 209 68 276Q68 357 92 427.5Q116 498 158.5 549Q201 600 260 630Q319 660 390 660Q446 660 493.5 640Q541 620 575 582.5Q609 545 628 491Q647 437 647 370Q647 289 623 218.5Q599 148 556.5 97Q514 46 455 16Q396 -14 325 -14ZM344 34Q401 34 442.5 125Q484 216 484 379Q484 486 453 549Q422 612 371 612Q314 612 272.5 520.5Q231 429 231 267Q231 160 262 97Q293 34 344 34Z" glyph-name="Otilde" horiz-adv-x="659" unicode="&#213;" /><glyph d="M23 0 26 30 64 37Q93 43 104.5 56Q116 69 118 103L155 518Q156 536 157 546Q158 556 158 560Q158 583 148 593.5Q138 604 113 609L77 616L79 646H312Q443 646 515 593Q587 540 587 443Q587 350 523 300Q459 250 343 250Q327 250 310 252.5Q293 255 278 259L259 45L371 33L369 0ZM318 294Q371 294 402.5 332.5Q434 371 434 443Q434 515 404 554.5Q374 594 331 599Q326 600 319 600.5Q312 601 307 600L281 301Q290 298 299 296Q308 294 318 294Z" glyph-name="P" horiz-adv-x="569" unicode="P" /><glyph d="M539 -159Q476 -159 440.5 -144.5Q405 -130 374 -96L334 -52Q310 -25 288.5 -8Q267 9 243 9Q216 9 189.5 -9.5Q163 -28 134 -63L112 -39Q133 -12 154 7Q175 26 195 39Q138 70 104 131Q70 192 70 276Q70 358 94.5 428.5Q119 499 161.5 550.5Q204 602 263 631Q322 660 391 660Q450 660 497.5 639Q545 618 578.5 580Q612 542 630 488.5Q648 435 648 370Q648 301 630.5 241.5Q613 182 582 136.5Q551 91 507 60Q463 29 412 15Q421 8 429.5 -0.5Q438 -9 446 -17L491 -64Q527 -100 546.5 -111Q566 -122 600 -123L597 -152Q588 -155 569.5 -157Q551 -159 539 -159ZM297 66Q321 66 341.5 59Q362 52 380 41Q424 70 454.5 158.5Q485 247 485 379Q485 490 458 551Q431 612 380 612Q348 612 321 586Q294 560 275 514.5Q256 469 245 405.5Q234 342 234 267Q234 196 242.5 144.5Q251 93 270 64Q277 65 283.5 65.5Q290 66 297 66Z" glyph-name="Q" horiz-adv-x="662" unicode="Q" /><glyph d="M23 0 26 30 64 37Q93 43 104.5 56Q116 69 118 103L155 518Q156 536 157 546Q158 556 158 560Q158 583 148 594Q138 605 113 609L77 616L79 646H328Q443 646 510.5 600.5Q578 555 578 474Q578 404 525 361.5Q472 319 382 316Q419 309 446 291Q473 273 494 239Q518 199 529 159.5Q540 120 554 86Q564 63 574.5 50Q585 37 612 30L610 0H546Q492 0 461.5 13.5Q431 27 411 67Q403 83 396 103.5Q389 124 383.5 144.5Q378 165 373.5 184.5Q369 204 365 217Q352 260 334.5 277Q317 294 291 294H277L254 43L332 31L329 0ZM314 336Q363 336 395 367.5Q427 399 427 465Q427 522 397 559.5Q367 597 325 601Q318 602 312.5 601.5Q307 601 303 601L281 339Q286 338 296 337Q306 336 314 336Z" glyph-name="R" horiz-adv-x="596" unicode="R" /><glyph d="M316 692 310 709 445 846Q457 859 461.5 861.5Q466 864 471 864Q487 864 504 846Q521 828 521 800Q521 772 505 755Q489 738 462 731ZM23 0 26 30 64 37Q93 43 104.5 56Q116 69 118 103L155 518Q156 536 157 546Q158 556 158 560Q158 583 148 594Q138 605 113 609L77 616L79 646H328Q443 646 510.5 600.5Q578 555 578 474Q578 404 525 361.5Q472 319 382 316Q419 309 446 291Q473 273 494 239Q518 199 529 159.5Q540 120 554 86Q564 63 574.5 50Q585 37 612 30L610 0H546Q492 0 461.5 13.5Q431 27 411 67Q403 83 396 103.5Q389 124 383.5 144.5Q378 165 373.5 184.5Q369 204 365 217Q352 260 334.5 277Q317 294 291 294H277L254 43L332 31L329 0ZM314 336Q363 336 395 367.5Q427 399 427 465Q427 522 397 559.5Q367 597 325 601Q318 602 312.5 601.5Q307 601 303 601L281 339Q286 338 296 337Q306 336 314 336Z" glyph-name="Racute" horiz-adv-x="596" unicode="&#340;" /><glyph d="M334 694Q316 694 307 702Q298 710 290 731L241 851L261 856L359 777L468 856L489 851L420 731Q408 709 397.5 701.5Q387 694 369 694ZM23 0 26 30 64 37Q93 43 104.5 56Q116 69 118 103L155 518Q156 536 157 546Q158 556 158 560Q158 583 148 594Q138 605 113 609L77 616L79 646H328Q443 646 510.5 600.5Q578 555 578 474Q578 404 525 361.5Q472 319 382 316Q419 309 446 291Q473 273 494 239Q518 199 529 159.5Q540 120 554 86Q564 63 574.5 50Q585 37 612 30L610 0H546Q492 0 461.5 13.5Q431 27 411 67Q403 83 396 103.5Q389 124 383.5 144.5Q378 165 373.5 184.5Q369 204 365 217Q352 260 334.5 277Q317 294 291 294H277L254 43L332 31L329 0ZM314 336Q363 336 395 367.5Q427 399 427 465Q427 522 397 559.5Q367 597 325 601Q318 602 312.5 601.5Q307 601 303 601L281 339Q286 338 296 337Q306 336 314 336Z" glyph-name="Rcaron" horiz-adv-x="596" unicode="&#344;" /><glyph d="M23 0 26 30 64 37Q93 43 104.5 56Q116 69 118 103L155 518Q156 536 157 546Q158 556 158 560Q158 583 148 594Q138 605 113 609L77 616L79 646H328Q443 646 510.5 600.5Q578 555 578 474Q578 404 525 361.5Q472 319 382 316Q419 309 446 291Q473 273 494 239Q518 199 529 159.5Q540 120 554 86Q564 63 574.5 50Q585 37 612 30L610 0H546Q492 0 461.5 13.5Q431 27 411 67Q403 83 396 103.5Q389 124 383.5 144.5Q378 165 373.5 184.5Q369 204 365 217Q352 260 334.5 277Q317 294 291 294H277L254 43L332 31L329 0ZM314 336Q363 336 395 367.5Q427 399 427 465Q427 522 397 559.5Q367 597 325 601Q318 602 312.5 601.5Q307 601 303 601L281 339Q286 338 296 337Q306 336 314 336ZM245 -270 241 -253Q265 -231 279.5 -211Q294 -191 303 -165L284 -105Q282 -99 281 -95Q280 -91 280 -89Q280 -78 297 -68.5Q314 -59 338 -59Q369 -59 384.5 -78Q400 -97 400 -125Q400 -170 363 -206Q326 -242 245 -270Z" glyph-name="Rcommaaccent" horiz-adv-x="596" unicode="&#342;" /><glyph d="M229 -14Q183 -14 149.5 -8.5Q116 -3 91 7Q69 17 59.5 29.5Q50 42 49 62Q49 73 48.5 84.5Q48 96 49 104L52 207L79 212Q100 118 139.5 74.5Q179 31 245 31Q297 31 327.5 58Q358 85 358 133Q358 170 335.5 196.5Q313 223 262 247L226 264Q153 298 117.5 345Q82 392 82 455Q82 544 144.5 602Q207 660 304 660Q344 660 378.5 654Q413 648 444 636Q460 629 466.5 618.5Q473 608 473 590Q473 586 472 574.5Q471 563 470 553L460 456H434Q423 534 386.5 574.5Q350 615 291 615Q247 615 221.5 590.5Q196 566 196 523Q196 483 220.5 453Q245 423 298 398L338 379Q409 345 441.5 301.5Q474 258 474 197Q474 150 455.5 110.5Q437 71 405 43.5Q373 16 327.5 1Q282 -14 229 -14Z" glyph-name="S" horiz-adv-x="490" unicode="S" /><glyph d="M255 692 249 709 384 846Q396 859 400.5 861.5Q405 864 410 864Q426 864 443 846Q460 828 460 800Q460 772 444 755Q428 738 401 731ZM229 -14Q183 -14 149.5 -8.5Q116 -3 91 7Q69 17 59.5 29.5Q50 42 49 62Q49 73 48.5 84.5Q48 96 49 104L52 207L79 212Q100 118 139.5 74.5Q179 31 245 31Q297 31 327.5 58Q358 85 358 133Q358 170 335.5 196.5Q313 223 262 247L226 264Q153 298 117.5 345Q82 392 82 455Q82 544 144.5 602Q207 660 304 660Q344 660 378.5 654Q413 648 444 636Q460 629 466.5 618.5Q473 608 473 590Q473 586 472 574.5Q471 563 470 553L460 456H434Q423 534 386.5 574.5Q350 615 291 615Q247 615 221.5 590.5Q196 566 196 523Q196 483 220.5 453Q245 423 298 398L338 379Q409 345 441.5 301.5Q474 258 474 197Q474 150 455.5 110.5Q437 71 405 43.5Q373 16 327.5 1Q282 -14 229 -14Z" glyph-name="Sacute" horiz-adv-x="490" unicode="&#346;" /><glyph d="M273 694Q255 694 246 702Q237 710 229 731L180 851L200 856L298 777L407 856L428 851L359 731Q347 709 336.5 701.5Q326 694 308 694ZM229 -14Q183 -14 149.5 -8.5Q116 -3 91 7Q69 17 59.5 29.5Q50 42 49 62Q49 73 48.5 84.5Q48 96 49 104L52 207L79 212Q100 118 139.5 74.5Q179 31 245 31Q297 31 327.5 58Q358 85 358 133Q358 170 335.5 196.5Q313 223 262 247L226 264Q153 298 117.5 345Q82 392 82 455Q82 544 144.5 602Q207 660 304 660Q344 660 378.5 654Q413 648 444 636Q460 629 466.5 618.5Q473 608 473 590Q473 586 472 574.5Q471 563 470 553L460 456H434Q423 534 386.5 574.5Q350 615 291 615Q247 615 221.5 590.5Q196 566 196 523Q196 483 220.5 453Q245 423 298 398L338 379Q409 345 441.5 301.5Q474 258 474 197Q474 150 455.5 110.5Q437 71 405 43.5Q373 16 327.5 1Q282 -14 229 -14Z" glyph-name="Scaron" horiz-adv-x="490" unicode="&#352;" /><glyph d="M194 -248Q151 -248 126.5 -228Q102 -208 102 -179Q102 -165 111.5 -156Q121 -147 137 -147Q150 -147 154 -149.5Q158 -152 159 -163L166 -215Q170 -217 174 -218Q178 -219 183 -219Q203 -219 216 -207Q229 -195 229 -171Q229 -146 215 -130.5Q201 -115 172 -105L212 -14Q173 -13 143.5 -8Q114 -3 91 7Q69 17 59.5 29.5Q50 42 49 62Q49 73 48.5 84.5Q48 96 49 104L52 207L79 212Q100 118 139.5 74.5Q179 31 245 31Q297 31 327.5 58Q358 85 358 133Q358 170 335.5 196.5Q313 223 262 247L226 264Q153 298 117.5 345Q82 392 82 455Q82 544 144.5 602Q207 660 304 660Q344 660 378.5 654Q413 648 444 636Q460 629 466.5 618.5Q473 608 473 590Q473 586 472 574.5Q471 563 470 553L460 456H434Q423 534 386.5 574.5Q350 615 291 615Q247 615 221.5 590.5Q196 566 196 523Q196 483 220.5 453Q245 423 298 398L338 379Q409 345 441.5 301.5Q474 258 474 197Q474 110 414.5 53Q355 -4 260 -13L232 -55Q270 -63 290.5 -86.5Q311 -110 311 -147Q311 -190 279 -219Q247 -248 194 -248Z" glyph-name="Scedilla" horiz-adv-x="490" unicode="&#350;" /><glyph d="M187 693 168 697 236 817Q249 839 259.5 846.5Q270 854 288 854H323Q341 854 350 846.5Q359 839 367 817L416 697L396 693L298 770ZM229 -14Q183 -14 149.5 -8.5Q116 -3 91 7Q69 17 59.5 29.5Q50 42 49 62Q49 73 48.5 84.5Q48 96 49 104L52 207L79 212Q100 118 139.5 74.5Q179 31 245 31Q297 31 327.5 58Q358 85 358 133Q358 170 335.5 196.5Q313 223 262 247L226 264Q153 298 117.5 345Q82 392 82 455Q82 544 144.5 602Q207 660 304 660Q344 660 378.5 654Q413 648 444 636Q460 629 466.5 618.5Q473 608 473 590Q473 586 472 574.5Q471 563 470 553L460 456H434Q423 534 386.5 574.5Q350 615 291 615Q247 615 221.5 590.5Q196 566 196 523Q196 483 220.5 453Q245 423 298 398L338 379Q409 345 441.5 301.5Q474 258 474 197Q474 150 455.5 110.5Q437 71 405 43.5Q373 16 327.5 1Q282 -14 229 -14Z" glyph-name="Scircumflex" horiz-adv-x="490" unicode="&#348;" /><glyph d="M229 -14Q183 -14 149.5 -8.5Q116 -3 91 7Q69 17 59.5 29.5Q50 42 49 62Q49 73 48.5 84.5Q48 96 49 104L52 207L79 212Q100 118 139.5 74.5Q179 31 245 31Q297 31 327.5 58Q358 85 358 133Q358 170 335.5 196.5Q313 223 262 247L226 264Q153 298 117.5 345Q82 392 82 455Q82 544 144.5 602Q207 660 304 660Q344 660 378.5 654Q413 648 444 636Q460 629 466.5 618.5Q473 608 473 590Q473 586 472 574.5Q471 563 470 553L460 456H434Q423 534 386.5 574.5Q350 615 291 615Q247 615 221.5 590.5Q196 566 196 523Q196 483 220.5 453Q245 423 298 398L338 379Q409 345 441.5 301.5Q474 258 474 197Q474 150 455.5 110.5Q437 71 405 43.5Q373 16 327.5 1Q282 -14 229 -14ZM150 -270 146 -253Q170 -231 184.5 -211Q199 -191 208 -165L189 -105Q187 -99 186 -95Q185 -91 185 -89Q185 -78 202 -68.5Q219 -59 243 -59Q274 -59 289.5 -78Q305 -97 305 -125Q305 -170 268 -206Q231 -242 150 -270Z" glyph-name="Scommaaccent" horiz-adv-x="490" unicode="&#536;" /><glyph d="M122 0 125 30 170 39Q205 46 217 58Q229 70 232 109L275 599H259Q199 599 165 572.5Q131 546 110 480L99 444H73L88 617Q89 631 97 638.5Q105 646 119 646H589Q602 646 608.5 640Q615 634 615 621Q615 617 614.5 608Q614 599 613 589L600 444H573L568 480Q559 546 529 572.5Q499 599 440 599H421L381 133Q379 116 378 104.5Q377 93 377 87Q377 65 387 54.5Q397 44 428 39L482 30L479 0Z" glyph-name="T" horiz-adv-x="595" unicode="T" /><glyph d="M122 0 125 30 170 39Q205 46 217 58Q229 70 232 109L249 299H148L151 341H253L275 599H259Q199 599 165 572.5Q131 546 110 480L99 444H73L88 617Q89 631 97 638.5Q105 646 119 646H589Q602 646 608.5 640Q615 634 615 621Q615 617 614.5 608Q614 599 613 589L600 444H573L568 480Q559 546 529 572.5Q499 599 440 599H421L399 341H506L502 299H395L381 133Q379 116 378 104.5Q377 93 377 87Q377 65 387 54.5Q397 44 428 39L482 30L479 0Z" glyph-name="Tbar" horiz-adv-x="595" unicode="&#358;" /><glyph d="M338 694Q320 694 311 702Q302 710 294 731L245 851L265 856L363 777L472 856L493 851L424 731Q412 709 401.5 701.5Q391 694 373 694ZM122 0 125 30 170 39Q205 46 217 58Q229 70 232 109L275 599H259Q199 599 165 572.5Q131 546 110 480L99 444H73L88 617Q89 631 97 638.5Q105 646 119 646H589Q602 646 608.5 640Q615 634 615 621Q615 617 614.5 608Q614 599 613 589L600 444H573L568 480Q559 546 529 572.5Q499 599 440 599H421L381 133Q379 116 378 104.5Q377 93 377 87Q377 65 387 54.5Q397 44 428 39L482 30L479 0Z" glyph-name="Tcaron" horiz-adv-x="595" unicode="&#356;" /><glyph d="M243 -248Q199 -248 174.5 -228Q150 -208 150 -179Q150 -165 160 -156Q170 -147 185 -147Q198 -147 202 -149.5Q206 -152 207 -163L214 -215Q218 -217 222 -218Q226 -219 231 -219Q251 -219 264 -207Q277 -195 277 -171Q277 -146 263.5 -130.5Q250 -115 220 -105L267 0H122L125 30L170 39Q205 46 217 58Q229 70 232 109L275 599H259Q199 599 165 572.5Q131 546 110 480L99 444H73L88 617Q89 631 97 638.5Q105 646 119 646H589Q602 646 608.5 640Q615 634 615 621Q615 617 614.5 608Q614 599 613 589L600 444H573L568 480Q559 546 529 572.5Q499 599 440 599H421L381 133Q379 116 378 104.5Q377 93 377 87Q377 65 387 54.5Q397 44 428 39L482 30L479 0H317L281 -55Q318 -63 338.5 -86.5Q359 -110 359 -147Q359 -190 327 -219Q295 -248 243 -248Z" glyph-name="Tcedilla" horiz-adv-x="595" unicode="&#354;" /><glyph d="M122 0 125 30 170 39Q205 46 217 58Q229 70 232 109L275 599H259Q199 599 165 572.5Q131 546 110 480L99 444H73L88 617Q89 631 97 638.5Q105 646 119 646H589Q602 646 608.5 640Q615 634 615 621Q615 617 614.5 608Q614 599 613 589L600 444H573L568 480Q559 546 529 572.5Q499 599 440 599H421L381 133Q379 116 378 104.5Q377 93 377 87Q377 65 387 54.5Q397 44 428 39L482 30L479 0ZM189 -270 185 -253Q209 -231 223.5 -211Q238 -191 247 -165L228 -105Q226 -99 225 -95Q224 -91 224 -89Q224 -78 241 -68.5Q258 -59 282 -59Q313 -59 328.5 -78Q344 -97 344 -125Q344 -170 307 -206Q270 -242 189 -270Z" glyph-name="Tcommaaccent" horiz-adv-x="595" unicode="&#538;" /><glyph d="M23 0 26 30 63 37Q93 43 104.5 56Q116 69 118 103L155 520Q156 536 157 546Q158 556 158 560Q158 583 148 593.5Q138 604 113 609L77 616L79 646H398L395 616L358 609Q328 603 316.5 590Q305 577 303 543L300 517Q427 517 501.5 469.5Q576 422 576 323Q576 230 513 184Q450 138 328 138Q314 138 299 139.5Q284 141 268 145L266 126Q265 110 264 100Q263 90 263 86Q263 63 273 52Q283 41 308 37L344 30L342 0ZM301 182Q352 182 387.5 214.5Q423 247 423 323Q423 393 392 428.5Q361 464 318 470Q313 470 307 470.5Q301 471 296 471L271 186Q278 185 286 183.5Q294 182 301 182Z" glyph-name="Thorn" horiz-adv-x="566" unicode="&#222;" /><glyph d="M333 -13Q224 -13 165 48.5Q106 110 106 227Q106 244 108 266Q110 288 111 301L130 516Q131 530 132 543Q133 556 133 560Q133 584 123 594Q113 604 88 609L57 616L59 646H372L369 614L285 603L254 255Q253 238 251.5 211Q250 184 250 171Q250 103 278.5 69Q307 35 358 35Q424 35 458 81.5Q492 128 502 240L533 604L462 616L465 646H687L685 616L650 609Q619 602 607.5 589Q596 576 593 542L567 244Q556 110 498 48.5Q440 -13 333 -13Z" glyph-name="U" horiz-adv-x="633" unicode="U" /><glyph d="M384 692 378 709 513 846Q525 859 529.5 861.5Q534 864 539 864Q555 864 572 846Q589 828 589 800Q589 772 573 755Q557 738 530 731ZM333 -13Q224 -13 165 48.5Q106 110 106 227Q106 244 108 266Q110 288 111 301L130 516Q131 530 132 543Q133 556 133 560Q133 584 123 594Q113 604 88 609L57 616L59 646H372L369 614L285 603L254 255Q253 238 251.5 211Q250 184 250 171Q250 103 278.5 69Q307 35 358 35Q424 35 458 81.5Q492 128 502 240L533 604L462 616L465 646H687L685 616L650 609Q619 602 607.5 589Q596 576 593 542L567 244Q556 110 498 48.5Q440 -13 333 -13Z" glyph-name="Uacute" horiz-adv-x="633" unicode="&#218;" /><glyph d="M420 693Q375 693 349 724.5Q323 756 323 814Q323 823 323 830Q323 837 324 844H345Q352 810 373 794.5Q394 779 428 779Q462 779 485.5 794.5Q509 810 521 844H543Q533 765 503 729Q473 693 420 693ZM333 -13Q224 -13 165 48.5Q106 110 106 227Q106 244 108 266Q110 288 111 301L130 516Q131 530 132 543Q133 556 133 560Q133 584 123 594Q113 604 88 609L57 616L59 646H372L369 614L285 603L254 255Q253 238 251.5 211Q250 184 250 171Q250 103 278.5 69Q307 35 358 35Q424 35 458 81.5Q492 128 502 240L533 604L462 616L465 646H687L685 616L650 609Q619 602 607.5 589Q596 576 593 542L567 244Q556 110 498 48.5Q440 -13 333 -13Z" glyph-name="Ubreve" horiz-adv-x="633" unicode="&#364;" /><glyph d="M316 693 297 697 365 817Q378 839 388.5 846.5Q399 854 417 854H452Q470 854 479 846.5Q488 839 496 817L545 697L525 693L427 770ZM333 -13Q224 -13 165 48.5Q106 110 106 227Q106 244 108 266Q110 288 111 301L130 516Q131 530 132 543Q133 556 133 560Q133 584 123 594Q113 604 88 609L57 616L59 646H372L369 614L285 603L254 255Q253 238 251.5 211Q250 184 250 171Q250 103 278.5 69Q307 35 358 35Q424 35 458 81.5Q492 128 502 240L533 604L462 616L465 646H687L685 616L650 609Q619 602 607.5 589Q596 576 593 542L567 244Q556 110 498 48.5Q440 -13 333 -13Z" glyph-name="Ucircumflex" horiz-adv-x="633" unicode="&#219;" /><glyph d="M325 699Q293 699 276 717.5Q259 736 259 765Q259 800 280.5 824Q302 848 339 848Q371 848 388.5 829.5Q406 811 406 782Q406 747 384 723Q362 699 325 699ZM515 699Q483 699 466 717.5Q449 736 449 765Q449 800 470.5 824Q492 848 529 848Q561 848 578.5 829.5Q596 811 596 782Q596 747 574 723Q552 699 515 699ZM333 -13Q224 -13 165 48.5Q106 110 106 227Q106 244 108 266Q110 288 111 301L130 516Q131 530 132 543Q133 556 133 560Q133 584 123 594Q113 604 88 609L57 616L59 646H372L369 614L285 603L254 255Q253 238 251.5 211Q250 184 250 171Q250 103 278.5 69Q307 35 358 35Q424 35 458 81.5Q492 128 502 240L533 604L462 616L465 646H687L685 616L650 609Q619 602 607.5 589Q596 576 593 542L567 244Q556 110 498 48.5Q440 -13 333 -13Z" glyph-name="Udieresis" horiz-adv-x="633" unicode="&#220;" /><glyph d="M456 693 312 733Q290 740 278.5 755.5Q267 771 267 793Q267 821 286.5 842Q306 863 329 863Q333 863 338 860.5Q343 858 353 845L466 710ZM333 -13Q224 -13 165 48.5Q106 110 106 227Q106 244 108 266Q110 288 111 301L130 516Q131 530 132 543Q133 556 133 560Q133 584 123 594Q113 604 88 609L57 616L59 646H372L369 614L285 603L254 255Q253 238 251.5 211Q250 184 250 171Q250 103 278.5 69Q307 35 358 35Q424 35 458 81.5Q492 128 502 240L533 604L462 616L465 646H687L685 616L650 609Q619 602 607.5 589Q596 576 593 542L567 244Q556 110 498 48.5Q440 -13 333 -13Z" glyph-name="Ugrave" horiz-adv-x="633" unicode="&#217;" /><glyph d="M342 687 327 699 401 856Q411 876 416.5 882Q422 888 432 888Q453 888 475 873.5Q497 859 497 831Q497 815 488 801.5Q479 788 464 778ZM452 686 445 703 564 828Q577 840 581 843Q585 846 591 846Q607 846 624.5 831Q642 816 642 788Q642 766 629.5 750Q617 734 594 727ZM333 -13Q224 -13 165 48.5Q106 110 106 227Q106 244 108 266Q110 288 111 301L130 516Q131 530 132 543Q133 556 133 560Q133 584 123 594Q113 604 88 609L57 616L59 646H372L369 614L285 603L254 255Q253 238 251.5 211Q250 184 250 171Q250 103 278.5 69Q307 35 358 35Q424 35 458 81.5Q492 128 502 240L533 604L462 616L465 646H687L685 616L650 609Q619 602 607.5 589Q596 576 593 542L567 244Q556 110 498 48.5Q440 -13 333 -13Z" glyph-name="Uhungarumlaut" horiz-adv-x="633" unicode="&#368;" /><glyph d="M304 737 309 790H549L544 737ZM333 -13Q224 -13 165 48.5Q106 110 106 227Q106 244 108 266Q110 288 111 301L130 516Q131 530 132 543Q133 556 133 560Q133 584 123 594Q113 604 88 609L57 616L59 646H372L369 614L285 603L254 255Q253 238 251.5 211Q250 184 250 171Q250 103 278.5 69Q307 35 358 35Q424 35 458 81.5Q492 128 502 240L533 604L462 616L465 646H687L685 616L650 609Q619 602 607.5 589Q596 576 593 542L567 244Q556 110 498 48.5Q440 -13 333 -13Z" glyph-name="Umacron" horiz-adv-x="633" unicode="&#362;" /><glyph d="M341 -240Q299 -240 276 -215Q253 -190 253 -150Q253 -115 278 -79Q303 -43 352 -13H333Q224 -13 165 48.5Q106 110 106 227Q106 244 108 266Q110 288 111 301L130 516Q131 530 132 543Q133 556 133 560Q133 584 123 594Q113 604 88 609L57 616L59 646H372L369 614L285 603L254 255Q253 238 251.5 211Q250 184 250 171Q250 103 278.5 69Q307 35 358 35Q424 35 458 81.5Q492 128 502 240L533 604L462 616L465 646H687L685 616L650 609Q619 602 607.5 589Q596 576 593 542L567 244Q560 152 531 95.5Q502 39 453 6Q400 -30 381 -64.5Q362 -99 362 -132Q362 -154 374 -167Q386 -180 407 -180Q417 -180 428.5 -176Q440 -172 454 -163L448 -190Q426 -215 399 -227.5Q372 -240 341 -240Z" glyph-name="Uogonek" horiz-adv-x="633" unicode="&#370;" /><glyph d="M419 685Q381 685 354 709Q327 733 327 779Q327 828 356.5 861.5Q386 895 438 895Q477 895 504 871Q531 847 531 801Q531 752 501.5 718.5Q472 685 419 685ZM424 736Q445 736 457.5 753Q470 770 470 798Q470 820 460.5 832Q451 844 434 844Q412 844 399.5 827.5Q387 811 387 782Q387 760 397 748Q407 736 424 736ZM333 -13Q224 -13 165 48.5Q106 110 106 227Q106 244 108 266Q110 288 111 301L130 516Q131 530 132 543Q133 556 133 560Q133 584 123 594Q113 604 88 609L57 616L59 646H372L369 614L285 603L254 255Q253 238 251.5 211Q250 184 250 171Q250 103 278.5 69Q307 35 358 35Q424 35 458 81.5Q492 128 502 240L533 604L462 616L465 646H687L685 616L650 609Q619 602 607.5 589Q596 576 593 542L567 244Q556 110 498 48.5Q440 -13 333 -13Z" glyph-name="Uring" horiz-adv-x="633" unicode="&#366;" /><glyph d="M459 704Q443 704 431.5 709Q420 714 410 720Q400 726 390 731Q380 736 366 736Q356 736 345.5 729.5Q335 723 328 701H304Q309 765 332 795Q355 825 388 825Q418 825 436.5 809.5Q455 794 482 794Q498 794 509 804.5Q520 815 525 840L549 839Q543 773 521 738.5Q499 704 459 704ZM333 -13Q224 -13 165 48.5Q106 110 106 227Q106 244 108 266Q110 288 111 301L130 516Q131 530 132 543Q133 556 133 560Q133 584 123 594Q113 604 88 609L57 616L59 646H372L369 614L285 603L254 255Q253 238 251.5 211Q250 184 250 171Q250 103 278.5 69Q307 35 358 35Q424 35 458 81.5Q492 128 502 240L533 604L462 616L465 646H687L685 616L650 609Q619 602 607.5 589Q596 576 593 542L567 244Q556 110 498 48.5Q440 -13 333 -13Z" glyph-name="Utilde" horiz-adv-x="633" unicode="&#360;" /><glyph d="M275 -4Q251 -4 241 5Q231 14 226 34L91 574Q87 590 79.5 598.5Q72 607 56 611L41 615L44 646H331L329 614L239 602L338 186L506 603L432 615L435 646H625L623 616L598 610Q583 607 573.5 597.5Q564 588 556 568L321 -4Z" glyph-name="V" horiz-adv-x="562" unicode="V" /><glyph d="M249 -4Q230 -4 219 3.5Q208 11 205 30L107 574Q104 590 95.5 598Q87 606 71 610L55 614L58 646H332L329 613L255 605L321 192L449 544L435 605L389 613L391 646H665L662 613L590 605L652 196L806 604L736 615L739 646H920L917 616L899 612Q883 608 873 599Q863 590 856 571L634 -4H580Q561 -4 550 3.5Q539 11 536 30L470 440L312 -4Z" glyph-name="W" horiz-adv-x="866" unicode="W" /><glyph d="M490 692 484 709 619 846Q631 859 635.5 861.5Q640 864 645 864Q661 864 678 846Q695 828 695 800Q695 772 679 755Q663 738 636 731ZM249 -4Q230 -4 219 3.5Q208 11 205 30L107 574Q104 590 95.5 598Q87 606 71 610L55 614L58 646H332L329 613L255 605L321 192L449 544L435 605L389 613L391 646H665L662 613L590 605L652 196L806 604L736 615L739 646H920L917 616L899 612Q883 608 873 599Q863 590 856 571L634 -4H580Q561 -4 550 3.5Q539 11 536 30L470 440L312 -4Z" glyph-name="Wacute" horiz-adv-x="867" unicode="&#7810;" /><glyph d="M422 693 403 697 471 817Q484 839 494.5 846.5Q505 854 523 854H558Q576 854 585 846.5Q594 839 602 817L651 697L631 693L533 770ZM249 -4Q230 -4 219 3.5Q208 11 205 30L107 574Q104 590 95.5 598Q87 606 71 610L55 614L58 646H332L329 613L255 605L321 192L449 544L435 605L389 613L391 646H665L662 613L590 605L652 196L806 604L736 615L739 646H920L917 616L899 612Q883 608 873 599Q863 590 856 571L634 -4H580Q561 -4 550 3.5Q539 11 536 30L470 440L312 -4Z" glyph-name="Wcircumflex" horiz-adv-x="867" unicode="&#372;" /><glyph d="M431 699Q399 699 382 717.5Q365 736 365 765Q365 800 386.5 824Q408 848 445 848Q477 848 494.5 829.5Q512 811 512 782Q512 747 490 723Q468 699 431 699ZM621 699Q589 699 572 717.5Q555 736 555 765Q555 800 576.5 824Q598 848 635 848Q667 848 684.5 829.5Q702 811 702 782Q702 747 680 723Q658 699 621 699ZM249 -4Q230 -4 219 3.5Q208 11 205 30L107 574Q104 590 95.5 598Q87 606 71 610L55 614L58 646H332L329 613L255 605L321 192L449 544L435 605L389 613L391 646H665L662 613L590 605L652 196L806 604L736 615L739 646H920L917 616L899 612Q883 608 873 599Q863 590 856 571L634 -4H580Q561 -4 550 3.5Q539 11 536 30L470 440L312 -4Z" glyph-name="Wdieresis" horiz-adv-x="867" unicode="&#7812;" /><glyph d="M562 693 418 733Q396 740 384.5 755.5Q373 771 373 793Q373 821 392.5 842Q412 863 435 863Q439 863 444 860.5Q449 858 459 845L572 710ZM249 -4Q230 -4 219 3.5Q208 11 205 30L107 574Q104 590 95.5 598Q87 606 71 610L55 614L58 646H332L329 613L255 605L321 192L449 544L435 605L389 613L391 646H665L662 613L590 605L652 196L806 604L736 615L739 646H920L917 616L899 612Q883 608 873 599Q863 590 856 571L634 -4H580Q561 -4 550 3.5Q539 11 536 30L470 440L312 -4Z" glyph-name="Wgrave" horiz-adv-x="867" unicode="&#7808;" /><glyph d="M-4 0 -2 29 13 32Q38 38 50.5 46.5Q63 55 77 75L245 308L116 571Q107 589 97 597.5Q87 606 70 611L55 616L58 646H345L342 614L261 602L351 418L486 604L418 615L421 646H620L618 617L598 612Q577 608 561 595.5Q545 583 526 558L378 365L520 81Q530 60 542.5 48.5Q555 37 576 33L595 29L593 0H294L297 31L376 43L273 254L129 42L199 31L196 0Z" glyph-name="X" horiz-adv-x="583" unicode="X" /><glyph d="M384 700Q351 700 333 719.5Q315 739 315 770Q315 807 337.5 831.5Q360 856 398 856Q432 856 449.5 836.5Q467 817 467 787Q467 750 445 725Q423 700 384 700ZM-4 0 -2 29 13 32Q38 38 50.5 46.5Q63 55 77 75L245 308L116 571Q107 589 97 597.5Q87 606 70 611L55 616L58 646H345L342 614L261 602L351 418L486 604L418 615L421 646H620L618 617L598 612Q577 608 561 595.5Q545 583 526 558L378 365L520 81Q530 60 542.5 48.5Q555 37 576 33L595 29L593 0H294L297 31L376 43L273 254L129 42L199 31L196 0Z" glyph-name="Xdot" horiz-adv-x="583" unicode="&#7818;" /><glyph d="M111 0 114 30 169 40Q200 46 210.5 58Q221 70 224 104L237 260L93 577Q88 590 79 599Q70 608 57 612L43 616L46 646H326L323 613L242 603L356 344L513 603L441 615L443 646H635L632 617L610 610Q593 606 582 597.5Q571 589 559 569L387 288L373 128Q372 112 370.5 101.5Q369 91 369 87Q369 65 379 55Q389 45 414 41L472 31L469 0Z" glyph-name="Y" horiz-adv-x="567" unicode="Y" /><glyph d="M348 692 342 709 477 846Q489 859 493.5 861.5Q498 864 503 864Q519 864 536 846Q553 828 553 800Q553 772 537 755Q521 738 494 731ZM111 0 114 30 169 40Q200 46 210.5 58Q221 70 224 104L237 260L93 577Q88 590 79 599Q70 608 57 612L43 616L46 646H326L323 613L242 603L356 344L513 603L441 615L443 646H635L632 617L610 610Q593 606 582 597.5Q571 589 559 569L387 288L373 128Q372 112 370.5 101.5Q369 91 369 87Q369 65 379 55Q389 45 414 41L472 31L469 0Z" glyph-name="Yacute" horiz-adv-x="567" unicode="&#221;" /><glyph d="M280 693 261 697 329 817Q342 839 352.5 846.5Q363 854 381 854H416Q434 854 443 846.5Q452 839 460 817L509 697L489 693L391 770ZM111 0 114 30 169 40Q200 46 210.5 58Q221 70 224 104L237 260L93 577Q88 590 79 599Q70 608 57 612L43 616L46 646H326L323 613L242 603L356 344L513 603L441 615L443 646H635L632 617L610 610Q593 606 582 597.5Q571 589 559 569L387 288L373 128Q372 112 370.5 101.5Q369 91 369 87Q369 65 379 55Q389 45 414 41L472 31L469 0Z" glyph-name="Ycircumflex" horiz-adv-x="567" unicode="&#374;" /><glyph d="M289 699Q257 699 240 717.5Q223 736 223 765Q223 800 244.5 824Q266 848 303 848Q335 848 352.5 829.5Q370 811 370 782Q370 747 348 723Q326 699 289 699ZM479 699Q447 699 430 717.5Q413 736 413 765Q413 800 434.5 824Q456 848 493 848Q525 848 542.5 829.5Q560 811 560 782Q560 747 538 723Q516 699 479 699ZM111 0 114 30 169 40Q200 46 210.5 58Q221 70 224 104L237 260L93 577Q88 590 79 599Q70 608 57 612L43 616L46 646H326L323 613L242 603L356 344L513 603L441 615L443 646H635L632 617L610 610Q593 606 582 597.5Q571 589 559 569L387 288L373 128Q372 112 370.5 101.5Q369 91 369 87Q369 65 379 55Q389 45 414 41L472 31L469 0Z" glyph-name="Ydieresis" horiz-adv-x="567" unicode="&#376;" /><glyph d="M420 693 276 733Q254 740 242.5 755.5Q231 771 231 793Q231 821 250.5 842Q270 863 293 863Q297 863 302 860.5Q307 858 317 845L430 710ZM111 0 114 30 169 40Q200 46 210.5 58Q221 70 224 104L237 260L93 577Q88 590 79 599Q70 608 57 612L43 616L46 646H326L323 613L242 603L356 344L513 603L441 615L443 646H635L632 617L610 610Q593 606 582 597.5Q571 589 559 569L387 288L373 128Q372 112 370.5 101.5Q369 91 369 87Q369 65 379 55Q389 45 414 41L472 31L469 0Z" glyph-name="Ygrave" horiz-adv-x="567" unicode="&#7922;" /><glyph d="M473 -8Q468 -8 452.5 -6.5Q437 -5 416.5 -4Q396 -3 373.5 -1.5Q351 0 333 0H42L40 36L382 599H265Q208 599 175.5 574.5Q143 550 124 485L112 444H86L101 615Q102 630 110 638Q118 646 133 646H551L553 605L213 50Q234 49 268 48Q302 47 323 47Q389 48 431 79Q473 110 507 188L523 224L549 219L507 21Q504 7 496 -0.5Q488 -8 473 -8Z" glyph-name="Z" horiz-adv-x="550" unicode="Z" /><glyph d="M293 692 287 709 422 846Q434 859 438.5 861.5Q443 864 448 864Q464 864 481 846Q498 828 498 800Q498 772 482 755Q466 738 439 731ZM473 -8Q468 -8 452.5 -6.5Q437 -5 416.5 -4Q396 -3 373.5 -1.5Q351 0 333 0H42L40 36L382 599H265Q208 599 175.5 574.5Q143 550 124 485L112 444H86L101 615Q102 630 110 638Q118 646 133 646H551L553 605L213 50Q234 49 268 48Q302 47 323 47Q389 48 431 79Q473 110 507 188L523 224L549 219L507 21Q504 7 496 -0.5Q488 -8 473 -8Z" glyph-name="Zacute" horiz-adv-x="550" unicode="&#377;" /><glyph d="M311 694Q293 694 284 702Q275 710 267 731L218 851L238 856L336 777L445 856L466 851L397 731Q385 709 374.5 701.5Q364 694 346 694ZM473 -8Q468 -8 452.5 -6.5Q437 -5 416.5 -4Q396 -3 373.5 -1.5Q351 0 333 0H42L40 36L382 599H265Q208 599 175.5 574.5Q143 550 124 485L112 444H86L101 615Q102 630 110 638Q118 646 133 646H551L553 605L213 50Q234 49 268 48Q302 47 323 47Q389 48 431 79Q473 110 507 188L523 224L549 219L507 21Q504 7 496 -0.5Q488 -8 473 -8Z" glyph-name="Zcaron" horiz-adv-x="550" unicode="&#381;" /><glyph d="M330 700Q297 700 279 719.5Q261 739 261 770Q261 807 283.5 831.5Q306 856 344 856Q378 856 395.5 836.5Q413 817 413 787Q413 750 391 725Q369 700 330 700ZM473 -8Q468 -8 452.5 -6.5Q437 -5 416.5 -4Q396 -3 373.5 -1.5Q351 0 333 0H42L40 36L382 599H265Q208 599 175.5 574.5Q143 550 124 485L112 444H86L101 615Q102 630 110 638Q118 646 133 646H551L553 605L213 50Q234 49 268 48Q302 47 323 47Q389 48 431 79Q473 110 507 188L523 224L549 219L507 21Q504 7 496 -0.5Q488 -8 473 -8Z" glyph-name="Zdotaccent" horiz-adv-x="550" unicode="&#379;" /><glyph d="M473 -8Q468 -8 452.5 -6.5Q437 -5 416.5 -4Q396 -3 373.5 -1.5Q351 0 333 0H42L40 36L206 310H120L124 351H231L382 599H265Q208 599 175.5 574.5Q143 550 124 485L112 444H86L101 615Q102 630 110 638Q118 646 133 646H551L553 605L397 351H477L473 310H372L213 50Q234 49 268 48Q302 47 323 47Q389 48 431 79Q473 110 507 188L523 224L549 219L507 21Q504 7 496 -0.5Q488 -8 473 -8Z" glyph-name="Zstroke" horiz-adv-x="550" unicode="&#437;" /><glyph d="M204 -14Q138 -14 100.5 45.5Q63 105 63 204Q63 265 80.5 319Q98 373 129.5 413Q161 453 207 476Q253 499 309 499Q366 499 418.5 488.5Q471 478 517 458Q509 427 501.5 391Q494 355 491 311L476 146Q473 112 472 93.5Q471 75 471 69Q471 53 482 44Q493 35 531 32L529 5Q508 0 482 -5Q456 -10 431 -10Q386 -10 367 12.5Q348 35 348 76Q348 80 349 92Q350 104 351 117Q321 58 284.5 22Q248 -14 204 -14ZM258 74Q273 74 289 93.5Q305 113 319 146Q333 179 343 222.5Q353 266 356 313L365 419Q353 435 340 446Q327 457 306 457Q266 457 237 390Q208 323 208 213Q208 144 221 109Q234 74 258 74Z" glyph-name="a" horiz-adv-x="548" unicode="a" /><glyph d="M0 0 2 28 14 31Q33 35 43.5 41Q54 47 63 66L266 523H322Q339 523 347.5 517Q356 511 360 496L477 69Q482 49 491.5 42Q501 35 520 31L534 28L532 0H267L269 30L341 40L313 150H162L116 40L181 31L179 0ZM181 195H302L256 373Z" glyph-name="a.smcp" horiz-adv-x="532" /><glyph d="M276 545 265 562 380 715Q393 732 398.5 735.5Q404 739 410 739Q431 739 452 721.5Q473 704 473 672Q473 646 460 629Q447 612 420 602ZM204 -14Q138 -14 100.5 45.5Q63 105 63 204Q63 265 80.5 319Q98 373 129.5 413Q161 453 207 476Q253 499 309 499Q366 499 418.5 488.5Q471 478 517 458Q509 427 501.5 391Q494 355 491 311L476 146Q473 112 472 93.5Q471 75 471 69Q471 53 482 44Q493 35 531 32L529 5Q508 0 482 -5Q456 -10 431 -10Q386 -10 367 12.5Q348 35 348 76Q348 80 349 92Q350 104 351 117Q321 58 284.5 22Q248 -14 204 -14ZM258 74Q273 74 289 93.5Q305 113 319 146Q333 179 343 222.5Q353 266 356 313L365 419Q353 435 340 446Q327 457 306 457Q266 457 237 390Q208 323 208 213Q208 144 221 109Q234 74 258 74Z" glyph-name="aacute" horiz-adv-x="548" unicode="&#225;" /><glyph d="M272 564 266 581 401 718Q413 731 417.5 733.5Q422 736 427 736Q443 736 460 718Q477 700 477 672Q477 644 461 627Q445 610 418 603ZM0 0 2 28 14 31Q33 35 43.5 41Q54 47 63 66L266 523H322Q339 523 347.5 517Q356 511 360 496L477 69Q482 49 491.5 42Q501 35 520 31L534 28L532 0H267L269 30L341 40L313 150H162L116 40L181 31L179 0ZM181 195H302L256 373Z" glyph-name="aacute.smcp" horiz-adv-x="532" /><glyph d="M314 550Q268 550 245 584Q222 618 222 687Q222 697 222 709Q222 721 223 731L245 735Q252 689 271 668.5Q290 648 324 648Q358 648 380.5 668.5Q403 689 420 735L442 731Q431 638 399.5 594Q368 550 314 550ZM204 -14Q138 -14 100.5 45.5Q63 105 63 204Q63 265 80.5 319Q98 373 129.5 413Q161 453 207 476Q253 499 309 499Q366 499 418.5 488.5Q471 478 517 458Q509 427 501.5 391Q494 355 491 311L476 146Q473 112 472 93.5Q471 75 471 69Q471 53 482 44Q493 35 531 32L529 5Q508 0 482 -5Q456 -10 431 -10Q386 -10 367 12.5Q348 35 348 76Q348 80 349 92Q350 104 351 117Q321 58 284.5 22Q248 -14 204 -14ZM258 74Q273 74 289 93.5Q305 113 319 146Q333 179 343 222.5Q353 266 356 313L365 419Q353 435 340 446Q327 457 306 457Q266 457 237 390Q208 323 208 213Q208 144 221 109Q234 74 258 74Z" glyph-name="abreve" horiz-adv-x="548" unicode="&#259;" /><glyph d="M308 565Q263 565 237 596.5Q211 628 211 686Q211 695 211 702Q211 709 212 716H233Q240 682 261 666.5Q282 651 316 651Q350 651 373.5 666.5Q397 682 409 716H431Q421 637 391 601Q361 565 308 565ZM0 0 2 28 14 31Q33 35 43.5 41Q54 47 63 66L266 523H322Q339 523 347.5 517Q356 511 360 496L477 69Q482 49 491.5 42Q501 35 520 31L534 28L532 0H267L269 30L341 40L313 150H162L116 40L181 31L179 0ZM181 195H302L256 373Z" glyph-name="abreve.smcp" horiz-adv-x="532" /><glyph d="M219 537 198 541 261 697Q270 719 280.5 727Q291 735 311 735H352Q371 735 380 727Q389 719 394 697L430 541L410 537L323 639ZM204 -14Q138 -14 100.5 45.5Q63 105 63 204Q63 265 80.5 319Q98 373 129.5 413Q161 453 207 476Q253 499 309 499Q366 499 418.5 488.5Q471 478 517 458Q509 427 501.5 391Q494 355 491 311L476 146Q473 112 472 93.5Q471 75 471 69Q471 53 482 44Q493 35 531 32L529 5Q508 0 482 -5Q456 -10 431 -10Q386 -10 367 12.5Q348 35 348 76Q348 80 349 92Q350 104 351 117Q321 58 284.5 22Q248 -14 204 -14ZM258 74Q273 74 289 93.5Q305 113 319 146Q333 179 343 222.5Q353 266 356 313L365 419Q353 435 340 446Q327 457 306 457Q266 457 237 390Q208 323 208 213Q208 144 221 109Q234 74 258 74Z" glyph-name="acircumflex" horiz-adv-x="548" unicode="&#226;" /><glyph d="M204 565 185 569 253 689Q266 711 276.5 718.5Q287 726 305 726H340Q358 726 367 718.5Q376 711 384 689L433 569L413 565L315 642ZM0 0 2 28 14 31Q33 35 43.5 41Q54 47 63 66L266 523H322Q339 523 347.5 517Q356 511 360 496L477 69Q482 49 491.5 42Q501 35 520 31L534 28L532 0H267L269 30L341 40L313 150H162L116 40L181 31L179 0ZM181 195H302L256 373Z" glyph-name="acircumflex.smcp" horiz-adv-x="532" /><glyph d="M229 545 218 562 333 715Q346 732 351.5 735.5Q357 739 363 739Q384 739 405 721.5Q426 704 426 672Q426 646 413 629Q400 612 373 602Z" glyph-name="acute" horiz-adv-x="440" unicode="&#180;" /><glyph d="M244 692 238 709 373 846Q385 859 389.5 861.5Q394 864 399 864Q415 864 432 846Q449 828 449 800Q449 772 433 755Q417 738 390 731Z" glyph-name="acute.case" horiz-adv-x="440" /><glyph d="M226 567Q198 567 179.5 585Q161 603 161 632Q161 669 183.5 692.5Q206 716 239 716Q268 716 286 698Q304 680 304 649Q304 614 282 590.5Q260 567 226 567ZM408 567Q379 567 361 585Q343 603 343 632Q343 669 365 692.5Q387 716 421 716Q449 716 467.5 698Q486 680 486 649Q486 614 463.5 590.5Q441 567 408 567ZM204 -14Q138 -14 100.5 45.5Q63 105 63 204Q63 265 80.5 319Q98 373 129.5 413Q161 453 207 476Q253 499 309 499Q366 499 418.5 488.5Q471 478 517 458Q509 427 501.5 391Q494 355 491 311L476 146Q473 112 472 93.5Q471 75 471 69Q471 53 482 44Q493 35 531 32L529 5Q508 0 482 -5Q456 -10 431 -10Q386 -10 367 12.5Q348 35 348 76Q348 80 349 92Q350 104 351 117Q321 58 284.5 22Q248 -14 204 -14ZM258 74Q273 74 289 93.5Q305 113 319 146Q333 179 343 222.5Q353 266 356 313L365 419Q353 435 340 446Q327 457 306 457Q266 457 237 390Q208 323 208 213Q208 144 221 109Q234 74 258 74Z" glyph-name="adieresis" horiz-adv-x="548" unicode="&#228;" /><glyph d="M213 571Q181 571 164 589.5Q147 608 147 637Q147 672 168.5 696Q190 720 227 720Q259 720 276.5 701.5Q294 683 294 654Q294 619 272 595Q250 571 213 571ZM403 571Q371 571 354 589.5Q337 608 337 637Q337 672 358.5 696Q380 720 417 720Q449 720 466.5 701.5Q484 683 484 654Q484 619 462 595Q440 571 403 571ZM0 0 2 28 14 31Q33 35 43.5 41Q54 47 63 66L266 523H322Q339 523 347.5 517Q356 511 360 496L477 69Q482 49 491.5 42Q501 35 520 31L534 28L532 0H267L269 30L341 40L313 150H162L116 40L181 31L179 0ZM181 195H302L256 373Z" glyph-name="adieresis.smcp" horiz-adv-x="532" /><glyph d="M203 -14Q137 -14 99.5 45.5Q62 105 62 204Q62 269 81 323.5Q100 378 134.5 417Q169 456 217.5 477.5Q266 499 324 499Q367 499 402 493Q437 487 471 473Q495 486 522.5 493.5Q550 501 580 501Q643 501 681.5 472Q720 443 720 392Q720 344 685.5 314.5Q651 285 570 263L466 233Q466 149 497 108.5Q528 68 590 68Q621 68 647.5 78Q674 88 702 111L712 91Q672 38 628.5 12Q585 -14 532 -14Q464 -14 416.5 18.5Q369 51 348 110Q316 50 278.5 18Q241 -14 203 -14ZM468 290 526 297Q574 303 595.5 324Q617 345 617 390Q617 423 604.5 441.5Q592 460 570 460Q535 460 505.5 414.5Q476 369 468 290ZM257 74Q275 74 296 97.5Q317 121 335 161Q334 173 333 185.5Q332 198 332 211Q332 268 348.5 318.5Q365 369 394 408Q378 430 360 443.5Q342 457 317 457Q293 457 273 439Q253 421 238 388.5Q223 356 215 311Q207 266 207 213Q207 147 219.5 110.5Q232 74 257 74Z" glyph-name="ae" horiz-adv-x="718" unicode="&#230;" /><glyph d="M628 -6Q623 -6 608.5 -5Q594 -4 576 -3Q558 -2 539 -1Q520 0 507 0H209L212 28L286 39L296 150H163L96 40L156 30L154 0H-16L-13 29L-3 31Q17 35 29 43Q41 51 52 70L286 448Q289 452 290.5 457Q292 462 292 466Q292 472 286.5 476.5Q281 481 270 483L238 490L241 518H681Q694 518 699 512Q704 506 704 496Q704 493 704 486.5Q704 480 703 471L693 355H668L664 386Q656 440 632.5 459Q609 478 555 478H462L445 295H575L594 370H619L602 175H577L572 251H441L423 50Q439 47 462.5 44Q486 41 507 41Q565 41 599.5 68.5Q634 96 656 153L665 176L689 172L658 18Q655 5 648.5 -0.5Q642 -6 628 -6ZM190 195H300L320 410Z" glyph-name="ae.smcp" horiz-adv-x="709" /><glyph d="M423 545 412 562 527 715Q540 732 545.5 735.5Q551 739 557 739Q578 739 599 721.5Q620 704 620 672Q620 646 607 629Q594 612 567 602ZM203 -14Q137 -14 99.5 45.5Q62 105 62 204Q62 269 81 323.5Q100 378 134.5 417Q169 456 217.5 477.5Q266 499 324 499Q367 499 402 493Q437 487 471 473Q495 486 522.5 493.5Q550 501 580 501Q643 501 681.5 472Q720 443 720 392Q720 344 685.5 314.5Q651 285 570 263L466 233Q466 149 497 108.5Q528 68 590 68Q621 68 647.5 78Q674 88 702 111L712 91Q672 38 628.5 12Q585 -14 532 -14Q464 -14 416.5 18.5Q369 51 348 110Q316 50 278.5 18Q241 -14 203 -14ZM468 290 526 297Q574 303 595.5 324Q617 345 617 390Q617 423 604.5 441.5Q592 460 570 460Q535 460 505.5 414.5Q476 369 468 290ZM257 74Q275 74 296 97.5Q317 121 335 161Q334 173 333 185.5Q332 198 332 211Q332 268 348.5 318.5Q365 369 394 408Q378 430 360 443.5Q342 457 317 457Q293 457 273 439Q253 421 238 388.5Q223 356 215 311Q207 266 207 213Q207 147 219.5 110.5Q232 74 257 74Z" glyph-name="aeacute" horiz-adv-x="718" unicode="&#509;" /><glyph d="M392 567 386 584 521 721Q533 734 537.5 736.5Q542 739 547 739Q563 739 580 721Q597 703 597 675Q597 647 581 630Q565 613 538 606ZM628 -6Q623 -6 608.5 -5Q594 -4 576 -3Q558 -2 539 -1Q520 0 507 0H209L212 28L286 39L296 150H163L96 40L156 30L154 0H-16L-13 29L-3 31Q17 35 29 43Q41 51 52 70L286 448Q289 452 290.5 457Q292 462 292 466Q292 472 286.5 476.5Q281 481 270 483L238 490L241 518H681Q694 518 699 512Q704 506 704 496Q704 493 704 486.5Q704 480 703 471L693 355H668L664 386Q656 440 632.5 459Q609 478 555 478H462L445 295H575L594 370H619L602 175H577L572 251H441L423 50Q439 47 462.5 44Q486 41 507 41Q565 41 599.5 68.5Q634 96 656 153L665 176L689 172L658 18Q655 5 648.5 -0.5Q642 -6 628 -6ZM190 195H300L320 410Z" glyph-name="aeacute.smcp" horiz-adv-x="709" /><glyph d="M353 543 220 599Q198 608 186 624.5Q174 641 174 664Q174 696 196 716.5Q218 737 244 737Q252 737 256 733.5Q260 730 270 713L366 563ZM204 -14Q138 -14 100.5 45.5Q63 105 63 204Q63 265 80.5 319Q98 373 129.5 413Q161 453 207 476Q253 499 309 499Q366 499 418.5 488.5Q471 478 517 458Q509 427 501.5 391Q494 355 491 311L476 146Q473 112 472 93.5Q471 75 471 69Q471 53 482 44Q493 35 531 32L529 5Q508 0 482 -5Q456 -10 431 -10Q386 -10 367 12.5Q348 35 348 76Q348 80 349 92Q350 104 351 117Q321 58 284.5 22Q248 -14 204 -14ZM258 74Q273 74 289 93.5Q305 113 319 146Q333 179 343 222.5Q353 266 356 313L365 419Q353 435 340 446Q327 457 306 457Q266 457 237 390Q208 323 208 213Q208 144 221 109Q234 74 258 74Z" glyph-name="agrave" horiz-adv-x="548" unicode="&#224;" /><glyph d="M344 565 200 605Q178 612 166.5 627.5Q155 643 155 665Q155 693 174.5 714Q194 735 217 735Q221 735 226 732.5Q231 730 241 717L354 582ZM0 0 2 28 14 31Q33 35 43.5 41Q54 47 63 66L266 523H322Q339 523 347.5 517Q356 511 360 496L477 69Q482 49 491.5 42Q501 35 520 31L534 28L532 0H267L269 30L341 40L313 150H162L116 40L181 31L179 0ZM181 195H302L256 373Z" glyph-name="agrave.smcp" horiz-adv-x="532" /><glyph d="M215 599 220 650H428L424 599ZM204 -14Q138 -14 100.5 45.5Q63 105 63 204Q63 265 80.5 319Q98 373 129.5 413Q161 453 207 476Q253 499 309 499Q366 499 418.5 488.5Q471 478 517 458Q509 427 501.5 391Q494 355 491 311L476 146Q473 112 472 93.5Q471 75 471 69Q471 53 482 44Q493 35 531 32L529 5Q508 0 482 -5Q456 -10 431 -10Q386 -10 367 12.5Q348 35 348 76Q348 80 349 92Q350 104 351 117Q321 58 284.5 22Q248 -14 204 -14ZM258 74Q273 74 289 93.5Q305 113 319 146Q333 179 343 222.5Q353 266 356 313L365 419Q353 435 340 446Q327 457 306 457Q266 457 237 390Q208 323 208 213Q208 144 221 109Q234 74 258 74Z" glyph-name="amacron" horiz-adv-x="548" unicode="&#257;" /><glyph d="M192 609 197 662H437L432 609ZM0 0 2 28 14 31Q33 35 43.5 41Q54 47 63 66L266 523H322Q339 523 347.5 517Q356 511 360 496L477 69Q482 49 491.5 42Q501 35 520 31L534 28L532 0H267L269 30L341 40L313 150H162L116 40L181 31L179 0ZM181 195H302L256 373Z" glyph-name="amacron.smcp" horiz-adv-x="532" /><glyph d="M745 246Q718 246 694 252Q670 258 645 270Q610 139 527.5 62.5Q445 -14 320 -14Q184 -14 120 46.5Q56 107 56 207Q56 273 74.5 328Q93 383 123.5 421Q154 459 193.5 480Q233 501 274 501Q311 501 333.5 481.5Q356 462 356 425Q356 421 356 415.5Q356 410 355 406Q389 442 411 476.5Q433 511 443 542L406 621Q404 625 403.5 628Q403 631 403 632Q403 639 417.5 648Q432 657 452 657Q480 657 492 641Q504 625 504 599Q504 564 487.5 522Q471 480 425 429Q372 369 309 316Q246 263 189 226Q202 145 245 92Q288 39 354 39Q455 39 506 111Q557 183 582 311Q566 323 541.5 336.5Q517 350 498 350Q490 350 484.5 348.5Q479 347 473 345L502 262Q503 258 504 255.5Q505 253 505 251Q505 245 493 238Q481 231 466 231Q441 231 429 246.5Q417 262 417 291Q417 342 452 377Q487 412 541 412Q567 412 590.5 403.5Q614 395 633 382L664 360Q680 348 710 325Q740 302 760 291Q760 296 760.5 308Q761 320 761.5 332.5Q762 345 763 355Q764 365 764 367Q765 377 769.5 380.5Q774 384 784 384Q803 384 818.5 370Q834 356 834 331Q834 307 824.5 291Q815 275 801.5 265Q788 255 772.5 250.5Q757 246 745 246ZM183 305Q183 298 183 292Q183 286 184 279Q197 283 208.5 289Q220 295 230 301Q261 320 272.5 343.5Q284 367 284 386Q284 408 274 421Q264 434 246 434Q221 434 202 402.5Q183 371 183 305Z" glyph-name="ampersand" horiz-adv-x="824" unicode="&amp;" /><glyph d="M279 -14Q172 -14 115 34Q58 82 58 170Q58 224 75.5 269.5Q93 315 120.5 347.5Q148 380 183 398Q218 416 253 416Q288 416 308 398.5Q328 381 328 350Q328 346 327.5 342Q327 338 326 334Q354 361 372 387.5Q390 414 399 439L367 502Q366 504 365 506.5Q364 509 364 510Q364 517 377 524.5Q390 532 407 532Q432 532 443.5 517.5Q455 503 455 481Q455 452 439 420Q423 388 383 348Q343 306 288 263.5Q233 221 174 185Q187 121 224 79.5Q261 38 317 38Q403 38 449.5 88Q496 138 521 254Q497 269 478.5 278.5Q460 288 444 288Q438 288 432.5 287Q427 286 421 284L447 220Q448 216 449 213Q450 210 450 209Q450 202 441 194.5Q432 187 416 187Q391 187 378.5 199Q366 211 366 234Q366 276 397.5 307Q429 338 478 338Q498 338 521.5 331Q545 324 564 312L593 294Q606 284 629.5 266Q653 248 669 240L691 303Q694 310 697 312Q700 314 707 314Q726 314 737.5 301.5Q749 289 749 270Q749 239 724.5 217Q700 195 660 195Q641 195 617 204Q593 213 573 224Q542 114 464 50Q386 -14 279 -14ZM169 230Q185 235 199 241.5Q213 248 223 255Q245 268 253 283.5Q261 299 261 312Q261 329 252 340Q243 351 227 351Q201 351 184.5 326.5Q168 302 168 255Q168 248 168 243.5Q168 239 169 230Z" glyph-name="ampersand.smcp" horiz-adv-x="742" /><glyph d="M399 -248Q358 -248 335.5 -225Q313 -202 313 -162Q313 -116 344.5 -77.5Q376 -39 438 -10H431Q386 -10 367 12.5Q348 35 348 76Q348 80 349 92Q350 104 351 117Q321 58 284.5 22Q248 -14 204 -14Q138 -14 100.5 45.5Q63 105 63 204Q63 265 80.5 319Q98 373 129.5 413Q161 453 207 476Q253 499 309 499Q366 499 418.5 488.5Q471 478 517 458Q509 427 501.5 391Q494 355 491 311L476 146Q473 112 472 93.5Q471 75 471 69Q471 53 482 44Q493 35 531 32L529 5Q485 -17 454.5 -56.5Q424 -96 424 -140Q424 -162 434 -175Q444 -188 462 -188Q475 -188 488.5 -183.5Q502 -179 516 -171L509 -201Q484 -225 456.5 -236.5Q429 -248 399 -248ZM258 74Q273 74 289 93.5Q305 113 319 146Q333 179 343 222.5Q353 266 356 313L365 419Q353 435 340 446Q327 457 306 457Q266 457 237 390Q208 323 208 213Q208 144 221 109Q234 74 258 74Z" glyph-name="aogonek" horiz-adv-x="548" unicode="&#261;" /><glyph d="M0 0 2 28 14 31Q33 35 43.5 41Q54 47 63 66L266 523H322Q339 523 347.5 517Q356 511 360 496L477 69Q482 49 491.5 42Q501 35 520 31L534 28L532 0H433Q386 -43 368 -76Q350 -109 350 -141Q350 -163 362 -176Q374 -189 396 -189Q406 -189 417.5 -185Q429 -181 443 -172L437 -199Q415 -224 388 -236Q361 -248 330 -248Q288 -248 265 -223.5Q242 -199 242 -159Q242 -117 277 -74Q312 -31 383 0H267L269 30L341 40L313 150H162L116 40L181 31L179 0ZM181 195H302L256 373Z" glyph-name="aogonek.smcp" horiz-adv-x="532" /><glyph d="M346 376Q314 376 291 386.5Q268 397 249 410Q230 423 211 433.5Q192 444 169 444Q143 444 124.5 430.5Q106 417 85 383L70 390Q94 465 127.5 497Q161 529 197 529Q229 529 252 518.5Q275 508 294.5 495.5Q314 483 333.5 472.5Q353 462 378 462Q415 462 433.5 477Q452 492 474 535L490 532Q468 442 429 409Q390 376 346 376ZM329 176Q297 176 274 186.5Q251 197 232 210Q213 223 194 233.5Q175 244 152 244Q126 244 107.5 230.5Q89 217 68 183L53 190Q77 265 110.5 297Q144 329 180 329Q212 329 235 318.5Q258 308 277.5 295.5Q297 283 316.5 272.5Q336 262 361 262Q398 262 416.5 277Q435 292 457 335L473 332Q451 242 412 209Q373 176 329 176Z" glyph-name="approxequal" horiz-adv-x="475" unicode="&#8776;" /><glyph d="M315 541Q272 541 246.5 566.5Q221 592 221 635Q221 686 251.5 719.5Q282 753 333 753Q376 753 401 727.5Q426 702 426 659Q426 608 395.5 574.5Q365 541 315 541ZM319 593Q339 593 351 610.5Q363 628 363 656Q363 676 354 688.5Q345 701 329 701Q308 701 296 683.5Q284 666 284 638Q284 617 293 605Q302 593 319 593ZM204 -14Q138 -14 100.5 45.5Q63 105 63 204Q63 265 80.5 319Q98 373 129.5 413Q161 453 207 476Q253 499 309 499Q366 499 418.5 488.5Q471 478 517 458Q509 427 501.5 391Q494 355 491 311L476 146Q473 112 472 93.5Q471 75 471 69Q471 53 482 44Q493 35 531 32L529 5Q508 0 482 -5Q456 -10 431 -10Q386 -10 367 12.5Q348 35 348 76Q348 80 349 92Q350 104 351 117Q321 58 284.5 22Q248 -14 204 -14ZM258 74Q273 74 289 93.5Q305 113 319 146Q333 179 343 222.5Q353 266 356 313L365 419Q353 435 340 446Q327 457 306 457Q266 457 237 390Q208 323 208 213Q208 144 221 109Q234 74 258 74Z" glyph-name="aring" horiz-adv-x="548" unicode="&#229;" /><glyph d="M307 557Q269 557 242 581Q215 605 215 651Q215 700 244.5 733.5Q274 767 326 767Q365 767 392 743Q419 719 419 673Q419 624 389.5 590.5Q360 557 307 557ZM312 608Q333 608 345.5 625Q358 642 358 670Q358 692 348.5 704Q339 716 322 716Q300 716 287.5 699.5Q275 683 275 654Q275 632 285 620Q295 608 312 608ZM0 0 2 28 14 31Q33 35 43.5 41Q54 47 63 66L266 523H322Q339 523 347.5 517Q356 511 360 496L477 69Q482 49 491.5 42Q501 35 520 31L534 28L532 0H267L269 30L341 40L313 150H162L116 40L181 31L179 0ZM181 195H302L256 373Z" glyph-name="aring.smcp" horiz-adv-x="532" /><glyph d="M57 199 253 643 335 650 452 199H309L242 494L119 199Z" glyph-name="asciicircum" horiz-adv-x="474" unicode="^" /><glyph d="M338 276Q306 276 283 286.5Q260 297 241 310Q222 323 203 333.5Q184 344 161 344Q135 344 116.5 330.5Q98 317 77 283L62 290Q86 365 119.5 397Q153 429 189 429Q221 429 244 418.5Q267 408 286.5 395.5Q306 383 325.5 372.5Q345 362 370 362Q407 362 425.5 377Q444 392 466 435L482 432Q460 342 421 309Q382 276 338 276Z" glyph-name="asciitilde" horiz-adv-x="475" unicode="~" /><glyph d="M285 383Q281 383 278.5 387Q276 391 275 401L246 546L215 457Q202 421 189.5 406Q177 391 161 391Q138 391 118 413Q98 435 100 454Q100 456 103 460Q106 464 112 469L230 558Q191 555 165.5 554.5Q140 554 136 554Q105 555 92 567Q79 579 80 602Q81 626 96 652.5Q111 679 121 679Q124 679 127 677Q130 675 135 671L236 580L216 667Q213 680 211 693Q209 706 210 714Q211 739 225.5 750.5Q240 762 267 762Q283 762 299.5 756Q316 750 315 744Q315 742 314 737Q313 732 310 725L256 581L326 638Q342 651 356.5 659Q371 667 381 667Q399 667 410 645Q421 623 419 586Q418 569 413 565Q408 561 396 560L262 561L326 508Q345 492 354.5 478Q364 464 363 448Q361 420 337 401.5Q313 383 285 383Z" glyph-name="asterisk" horiz-adv-x="390" unicode="*" /><glyph d="M363 -192Q291 -192 233 -167Q175 -142 135 -96.5Q95 -51 73.5 14.5Q52 80 52 160Q52 270 85 362Q118 454 176.5 519.5Q235 585 316 622Q397 659 492 659Q561 659 619 639Q677 619 718.5 581.5Q760 544 783 488Q806 432 806 361Q806 295 785 235.5Q764 176 729 132Q694 88 646 62Q598 36 544 36Q510 36 489.5 53.5Q469 71 469 108Q469 111 469.5 120.5Q470 130 471 143Q444 88 413 61Q382 34 350 34Q296 34 265 83Q234 132 234 213Q234 266 249 310.5Q264 355 290.5 387Q317 419 354.5 437Q392 455 436 455Q485 455 526.5 446Q568 437 605 421Q597 388 592 359.5Q587 331 584 302L573 165Q571 143 570 128Q569 113 569 108Q569 95 573.5 89.5Q578 84 590 84Q615 84 638 104.5Q661 125 678.5 161Q696 197 707 247.5Q718 298 718 358Q718 478 654 544.5Q590 611 483 611Q405 611 340.5 579.5Q276 548 231 491Q186 434 161.5 353Q137 272 137 174Q137 105 155.5 48Q174 -9 208 -49Q242 -89 290.5 -111Q339 -133 398 -133Q446 -133 477.5 -127.5Q509 -122 547 -109L543 -136Q507 -160 459 -176Q411 -192 363 -192ZM394 105Q407 105 420.5 121.5Q434 138 445 165.5Q456 193 464 228.5Q472 264 475 302L482 390Q471 406 460 413.5Q449 421 434 421Q399 421 375.5 363.5Q352 306 352 220Q352 164 363.5 134.5Q375 105 394 105Z" glyph-name="at" horiz-adv-x="797" unicode="@" /><glyph d="M367 -108Q295 -108 237 -83Q179 -58 139 -12.5Q99 33 77.5 98.5Q56 164 56 244Q56 354 89 446Q122 538 180.5 603.5Q239 669 320 706Q401 743 496 743Q565 743 623 723Q681 703 722.5 665.5Q764 628 787 572Q810 516 810 445Q810 379 789 319.5Q768 260 733 216Q698 172 650 146Q602 120 548 120Q514 120 493.5 137.5Q473 155 473 192Q473 195 473.5 204.5Q474 214 475 227Q448 172 417 145Q386 118 354 118Q300 118 269 167Q238 216 238 297Q238 350 253 394.5Q268 439 294.5 471Q321 503 358.5 521Q396 539 440 539Q489 539 530.5 530Q572 521 609 505Q601 472 596 443.5Q591 415 588 386L577 249Q575 227 574 212Q573 197 573 192Q573 179 577.5 173.5Q582 168 594 168Q619 168 642 188.5Q665 209 682.5 245Q700 281 711 331.5Q722 382 722 442Q722 562 658 628.5Q594 695 487 695Q409 695 344.5 663.5Q280 632 235 575Q190 518 165.5 437Q141 356 141 258Q141 189 159.5 132Q178 75 212 35Q246 -5 294.5 -27Q343 -49 402 -49Q450 -49 481.5 -43.5Q513 -38 551 -25L547 -52Q511 -76 463 -92Q415 -108 367 -108ZM398 189Q411 189 424.5 205.5Q438 222 449 249.5Q460 277 468 312.5Q476 348 479 386L486 474Q475 490 464 497.5Q453 505 438 505Q403 505 379.5 447.5Q356 390 356 304Q356 248 367.5 218.5Q379 189 398 189Z" glyph-name="at.case" horiz-adv-x="799" /><glyph d="M200 558Q204 632 226.5 667Q249 702 284 702Q299 702 311 696Q323 690 334 683.5Q345 677 356.5 671Q368 665 381 665Q398 665 407 678.5Q416 692 423 726L447 722Q440 644 417.5 604.5Q395 565 358 565Q341 565 327.5 571.5Q314 578 302.5 586.5Q291 595 280.5 601.5Q270 608 259 608Q247 608 239 597Q231 586 224 558ZM204 -14Q138 -14 100.5 45.5Q63 105 63 204Q63 265 80.5 319Q98 373 129.5 413Q161 453 207 476Q253 499 309 499Q366 499 418.5 488.5Q471 478 517 458Q509 427 501.5 391Q494 355 491 311L476 146Q473 112 472 93.5Q471 75 471 69Q471 53 482 44Q493 35 531 32L529 5Q508 0 482 -5Q456 -10 431 -10Q386 -10 367 12.5Q348 35 348 76Q348 80 349 92Q350 104 351 117Q321 58 284.5 22Q248 -14 204 -14ZM258 74Q273 74 289 93.5Q305 113 319 146Q333 179 343 222.5Q353 266 356 313L365 419Q353 435 340 446Q327 457 306 457Q266 457 237 390Q208 323 208 213Q208 144 221 109Q234 74 258 74Z" glyph-name="atilde" horiz-adv-x="548" unicode="&#227;" /><glyph d="M347 576Q331 576 319.5 581Q308 586 298 592Q288 598 278 603Q268 608 254 608Q244 608 233.5 601.5Q223 595 216 573H192Q197 637 220 667Q243 697 276 697Q306 697 324.5 681.5Q343 666 370 666Q386 666 397 676.5Q408 687 413 712L437 711Q431 645 409 610.5Q387 576 347 576ZM0 0 2 28 14 31Q33 35 43.5 41Q54 47 63 66L266 523H322Q339 523 347.5 517Q356 511 360 496L477 69Q482 49 491.5 42Q501 35 520 31L534 28L532 0H267L269 30L341 40L313 150H162L116 40L181 31L179 0ZM181 195H302L256 373Z" glyph-name="atilde.smcp" horiz-adv-x="532" /><glyph d="M276 -11Q213 -11 158 3.5Q103 18 69 47Q72 65 75.5 89Q79 113 82 137.5Q85 162 87.5 186.5Q90 211 92 230L126 589Q127 607 128 621Q129 635 129 642Q129 657 123.5 665.5Q118 674 99 681L64 692L66 717Q98 727 154 733Q210 739 261 739H283Q273 688 266.5 636Q260 584 255 531L242 386Q268 437 306 469.5Q344 502 384 502Q455 502 493 443Q531 384 531 292Q531 226 514 170.5Q497 115 464.5 74.5Q432 34 384.5 11.5Q337 -11 276 -11ZM277 31Q323 31 354 98.5Q385 166 385 275Q385 342 369.5 377Q354 412 326 412Q294 412 263.5 346.5Q233 281 223 158L216 74Q226 57 240.5 44Q255 31 277 31Z" glyph-name="b" horiz-adv-x="550" unicode="b" /><glyph d="M23 0 26 28 64 36Q89 40 100.5 53.5Q112 67 114 97L141 393Q142 406 143 419Q144 432 144 436Q144 458 135.5 468Q127 478 104 482L66 490L68 518H310Q410 518 464.5 484Q519 450 519 387Q519 336 478.5 306Q438 276 365 273Q441 267 483 233Q525 199 525 144Q525 76 464.5 38Q404 0 296 0ZM293 291Q333 291 355.5 315.5Q378 340 378 382Q378 420 360 444Q342 468 308 473Q302 474 295.5 474.5Q289 475 284 475L268 294Q272 293 280.5 292Q289 291 293 291ZM284 42Q330 42 353 67.5Q376 93 376 144Q376 189 352 216Q328 243 289 247Q283 248 275.5 248.5Q268 249 264 249L246 49Q255 45 264 43.5Q273 42 284 42Z" glyph-name="b.smcp" horiz-adv-x="548" /><glyph d="M304 -250 71 750H134L366 -250Z" glyph-name="backslash" horiz-adv-x="393" unicode="\" /><glyph d="M40 -250 128 750H187L100 -250Z" glyph-name="bar" horiz-adv-x="183" unicode="|" /><glyph d="M310 -232Q212 -231 167 -191Q122 -151 122 -80Q122 -62 124.5 -33Q127 -4 130 27Q133 58 135.5 85.5Q138 113 138 127Q138 174 121.5 196.5Q105 219 59 225L63 268Q115 274 136.5 303Q158 332 163 395L177 550Q184 632 236.5 678Q289 724 393 726L390 693Q347 686 331.5 655.5Q316 625 309 541L297 406Q290 328 250.5 290.5Q211 253 134 246Q198 241 234 209Q270 177 270 109Q270 91 267.5 61.5Q265 32 262 0Q259 -32 256.5 -62.5Q254 -93 254 -111Q254 -154 267 -174.5Q280 -195 313 -200Z" glyph-name="braceleft" horiz-adv-x="359" unicode="{" /><glyph d="M321 -97Q225 -95 180 -56Q135 -17 135 54Q135 69 137 90Q139 111 141 132Q143 153 145 173Q147 193 147 207Q147 251 129.5 272.5Q112 294 69 300L72 342Q123 349 144 377.5Q165 406 170 466L179 567Q186 651 238.5 696Q291 741 395 743L390 698Q368 695 355 688.5Q342 682 334 667Q326 652 322 625.5Q318 599 314 556L307 474Q302 406 269.5 369.5Q237 333 172 321Q229 311 255 279.5Q281 248 281 194Q281 178 279 156Q277 134 275 110Q273 86 271 63Q269 40 269 22Q269 -15 281.5 -31.5Q294 -48 325 -52Z" glyph-name="braceleft.case" horiz-adv-x="358" /><glyph d="M291 -77Q207 -76 159.5 -45Q112 -14 112 43Q112 56 113.5 73.5Q115 91 117 108.5Q119 126 120.5 141.5Q122 157 122 166Q122 202 106.5 219Q91 236 53 241L56 273Q102 279 120 301.5Q138 324 142 373L149 453Q155 520 209.5 557Q264 594 356 595L352 560Q312 553 301 533Q290 513 285 447L279 379Q274 325 238 295.5Q202 266 145 257Q195 248 225.5 223.5Q256 199 256 155Q256 145 254.5 127Q253 109 251 89.5Q249 70 247.5 50Q246 30 246 16Q246 -13 256.5 -25.5Q267 -38 295 -42Z" glyph-name="braceleft.smcp" horiz-adv-x="339" /><glyph d="M92 726Q190 725 235 685Q280 645 280 574Q280 556 277.5 527Q275 498 272 467Q269 436 266.5 408.5Q264 381 264 367Q264 320 280.5 297.5Q297 275 343 269L339 226Q287 220 265.5 191Q244 162 239 99L225 -56Q218 -138 165.5 -184Q113 -230 9 -232L12 -199Q55 -192 70.5 -161.5Q86 -131 93 -47L105 88Q112 166 151.5 203.5Q191 241 268 248Q204 253 168 285Q132 317 132 385Q132 403 134.5 432.5Q137 462 140 494Q143 526 145.5 556.5Q148 587 148 605Q148 648 135 668.5Q122 689 89 694Z" glyph-name="braceright" horiz-adv-x="358" unicode="}" /><glyph d="M93 743Q189 741 234 702Q279 663 279 592Q279 577 277 556Q275 535 273 514Q271 493 269 473Q267 453 267 439Q267 395 284.5 373.5Q302 352 345 346L342 304Q291 297 270 268.5Q249 240 244 180L235 79Q228 -5 175.5 -50Q123 -95 19 -97L24 -52Q46 -49 59 -42.5Q72 -36 80 -21Q88 -6 92 20.5Q96 47 100 90L107 172Q112 240 144.5 276.5Q177 313 242 325Q185 335 159 366.5Q133 398 133 452Q133 468 135 490Q137 512 139 536Q141 560 143 583Q145 606 145 624Q145 661 132.5 677.5Q120 694 89 698Z" glyph-name="braceright.case" horiz-adv-x="358" /><glyph d="M94 594Q178 593 225.5 562Q273 531 273 474Q273 461 271.5 443.5Q270 426 268 408.5Q266 391 264.5 375.5Q263 360 263 351Q263 315 278.5 298Q294 281 332 276L329 244Q283 238 265 215.5Q247 193 243 144L236 64Q230 -3 175.5 -40Q121 -77 29 -78L33 -43Q73 -36 84 -16Q95 4 100 70L106 138Q111 192 147 221.5Q183 251 240 260Q190 269 159.5 293.5Q129 318 129 362Q129 372 130.5 390Q132 408 134 427.5Q136 447 137.5 467Q139 487 139 501Q139 530 128.5 542.5Q118 555 90 559Z" glyph-name="braceright.smcp" horiz-adv-x="340" /><glyph d="M78 -235 163 725H401L397 681H295L219 -191H322L317 -235Z" glyph-name="bracketleft" horiz-adv-x="359" unicode="[" /><glyph d="M90 -96 163 742H404L400 694H303L239 -48H336L331 -96Z" glyph-name="bracketleft.case" horiz-adv-x="359" /><glyph d="M76 -77 139 593H365L361 554H275L220 -37H306L301 -77Z" glyph-name="bracketleft.smcp" horiz-adv-x="340" /><glyph d="M323 725 238 -235H0L4 -191H106L182 681H79L84 725Z" glyph-name="bracketright" horiz-adv-x="358" unicode="]" /><glyph d="M325 742 252 -96H11L15 -48H112L176 694H79L84 742Z" glyph-name="bracketright.case" horiz-adv-x="359" /><glyph d="M308 593 245 -77H19L23 -38H109L164 553H78L83 593Z" glyph-name="bracketright.smcp" horiz-adv-x="339" /><glyph d="M267 550Q221 550 198 584Q175 618 175 687Q175 697 175 709Q175 721 176 731L198 735Q205 689 224 668.5Q243 648 277 648Q311 648 333.5 668.5Q356 689 373 735L395 731Q384 638 352.5 594Q321 550 267 550Z" glyph-name="breve" horiz-adv-x="440" unicode="&#728;" /><glyph d="M280 693Q235 693 209 724.5Q183 756 183 814Q183 823 183 830Q183 837 184 844H205Q212 810 233 794.5Q254 779 288 779Q322 779 345.5 794.5Q369 810 381 844H403Q393 765 363 729Q333 693 280 693Z" glyph-name="breve.case" horiz-adv-x="440" /><glyph d="M87 281 128 750H187L146 281ZM40 -250 81 219H141L100 -250Z" glyph-name="brokenbar" horiz-adv-x="183" unicode="&#166;" /><glyph d="M211 218Q162 218 131.5 249.5Q101 281 101 331Q101 392 139 433.5Q177 475 233 475Q282 475 312.5 443.5Q343 412 343 361Q343 300 305 259Q267 218 211 218Z" glyph-name="bullet" horiz-adv-x="383" unicode="&#8226;" /><glyph d="M259 -14Q169 -14 114 45.5Q59 105 59 206Q59 269 77.5 323Q96 377 128.5 416.5Q161 456 206 478.5Q251 501 302 501Q366 501 410.5 466Q455 431 455 382Q455 356 439 338.5Q423 321 390 321Q376 321 372 325.5Q368 330 364 349L341 452Q334 454 325 456Q316 458 307 458Q263 458 233.5 401Q204 344 204 238Q204 157 235.5 111.5Q267 66 322 66Q352 66 376.5 77Q401 88 423 109L434 90Q401 43 357 14.5Q313 -14 259 -14Z" glyph-name="c" horiz-adv-x="446" unicode="c" /><glyph d="M295 -14Q187 -14 125.5 50Q64 114 64 225Q64 291 85.5 347.5Q107 404 145.5 445Q184 486 237 509Q290 532 353 532Q389 532 417.5 526Q446 520 478 508Q494 502 501 492Q508 482 508 467Q508 463 506.5 450Q505 437 504 421L497 347H474Q464 416 432.5 451Q401 486 352 486Q289 486 252 416Q215 346 215 230Q215 130 242.5 81.5Q270 33 326 33Q371 33 405 69.5Q439 106 471 187L495 183L473 71Q466 34 455 21.5Q444 9 410 1Q380 -6 355.5 -10Q331 -14 295 -14Z" glyph-name="c.smcp" horiz-adv-x="526" /><glyph d="M254 545 243 562 358 715Q371 732 376.5 735.5Q382 739 388 739Q409 739 430 721.5Q451 704 451 672Q451 646 438 629Q425 612 398 602ZM259 -14Q169 -14 114 45.5Q59 105 59 206Q59 269 77.5 323Q96 377 128.5 416.5Q161 456 206 478.5Q251 501 302 501Q366 501 410.5 466Q455 431 455 382Q455 356 439 338.5Q423 321 390 321Q376 321 372 325.5Q368 330 364 349L341 452Q334 454 325 456Q316 458 307 458Q263 458 233.5 401Q204 344 204 238Q204 157 235.5 111.5Q267 66 322 66Q352 66 376.5 77Q401 88 423 109L434 90Q401 43 357 14.5Q313 -14 259 -14Z" glyph-name="cacute" horiz-adv-x="446" unicode="&#263;" /><glyph d="M300 564 294 581 429 718Q441 731 445.5 733.5Q450 736 455 736Q471 736 488 718Q505 700 505 672Q505 644 489 627Q473 610 446 603ZM295 -14Q187 -14 125.5 50Q64 114 64 225Q64 291 85.5 347.5Q107 404 145.5 445Q184 486 237 509Q290 532 353 532Q389 532 417.5 526Q446 520 478 508Q494 502 501 492Q508 482 508 467Q508 463 506.5 450Q505 437 504 421L497 347H474Q464 416 432.5 451Q401 486 352 486Q289 486 252 416Q215 346 215 230Q215 130 242.5 81.5Q270 33 326 33Q371 33 405 69.5Q439 106 471 187L495 183L473 71Q466 34 455 21.5Q444 9 410 1Q380 -6 355.5 -10Q331 -14 295 -14Z" glyph-name="cacute.smcp" horiz-adv-x="526" /><glyph d="M247 552Q228 552 219.5 559.5Q211 567 206 589L170 745L189 750L276 647L381 750L401 745L338 589Q329 567 319 559.5Q309 552 290 552Z" glyph-name="caron" horiz-adv-x="440" unicode="&#711;" /><glyph d="M262 694Q244 694 235 702Q226 710 218 731L169 851L189 856L287 777L396 856L417 851L348 731Q336 709 325.5 701.5Q315 694 297 694Z" glyph-name="caron.case" horiz-adv-x="440" /><glyph d="M244 509 226 517 263 690Q270 719 275.5 725.5Q281 732 298 732Q321 732 343 719Q365 706 365 678Q365 665 360.5 653Q356 641 347 630Z" glyph-name="caronSlovak" horiz-adv-x="440" /><glyph d="M218 431 199 438 238 618Q243 643 248.5 648.5Q254 654 271 654Q301 654 321.5 639Q342 624 342 598Q342 581 334.5 567Q327 553 316 539Z" glyph-name="caronSlovak.case" horiz-adv-x="440" /><glyph d="M272 552Q253 552 244.5 559.5Q236 567 231 589L195 745L214 750L301 647L406 750L426 745L363 589Q354 567 344 559.5Q334 552 315 552ZM259 -14Q169 -14 114 45.5Q59 105 59 206Q59 269 77.5 323Q96 377 128.5 416.5Q161 456 206 478.5Q251 501 302 501Q366 501 410.5 466Q455 431 455 382Q455 356 439 338.5Q423 321 390 321Q376 321 372 325.5Q368 330 364 349L341 452Q334 454 325 456Q316 458 307 458Q263 458 233.5 401Q204 344 204 238Q204 157 235.5 111.5Q267 66 322 66Q352 66 376.5 77Q401 88 423 109L434 90Q401 43 357 14.5Q313 -14 259 -14Z" glyph-name="ccaron" horiz-adv-x="446" unicode="&#269;" /><glyph d="M318 566Q300 566 291 574Q282 582 274 603L225 723L245 728L343 649L452 728L473 723L404 603Q392 581 381.5 573.5Q371 566 353 566ZM295 -14Q187 -14 125.5 50Q64 114 64 225Q64 291 85.5 347.5Q107 404 145.5 445Q184 486 237 509Q290 532 353 532Q389 532 417.5 526Q446 520 478 508Q494 502 501 492Q508 482 508 467Q508 463 506.5 450Q505 437 504 421L497 347H474Q464 416 432.5 451Q401 486 352 486Q289 486 252 416Q215 346 215 230Q215 130 242.5 81.5Q270 33 326 33Q371 33 405 69.5Q439 106 471 187L495 183L473 71Q466 34 455 21.5Q444 9 410 1Q380 -6 355.5 -10Q331 -14 295 -14Z" glyph-name="ccaron.smcp" horiz-adv-x="526" /><glyph d="M201 -248Q157 -248 134 -227Q111 -206 111 -178Q111 -165 121 -156Q131 -147 147 -147Q160 -147 163.5 -149.5Q167 -152 169 -164L177 -216Q180 -217 183.5 -217.5Q187 -218 191 -218Q211 -218 223.5 -206Q236 -194 236 -171Q236 -147 221 -129.5Q206 -112 177 -102L220 -11Q147 2 103 59Q59 116 59 206Q59 269 77.5 323Q96 377 128.5 416.5Q161 456 206 478.5Q251 501 302 501Q366 501 410.5 466Q455 431 455 382Q455 356 439 338.5Q423 321 390 321Q376 321 372 325.5Q368 330 364 349L341 452Q334 454 325 456Q316 458 307 458Q263 458 233.5 401Q204 344 204 238Q204 157 235.5 111.5Q267 66 322 66Q352 66 376.5 77Q401 88 423 109L434 90Q402 44 359.5 15.5Q317 -13 265 -14L241 -48Q272 -58 297 -81.5Q322 -105 322 -147Q322 -193 290 -220.5Q258 -248 201 -248Z" glyph-name="ccedilla" horiz-adv-x="446" unicode="&#231;" /><glyph d="M267 -248Q224 -248 200.5 -227Q177 -206 177 -178Q177 -165 187.5 -156Q198 -147 214 -147Q227 -147 230 -149.5Q233 -152 235 -164L243 -216Q246 -217 249.5 -217.5Q253 -218 257 -218Q277 -218 290 -206Q303 -194 303 -171Q303 -147 287.5 -129.5Q272 -112 244 -102L285 -14Q181 -11 122.5 53Q64 117 64 225Q64 291 85.5 347.5Q107 404 145.5 445Q184 486 237 509Q290 532 353 532Q389 532 417.5 526Q446 520 478 508Q494 502 501 492Q508 482 508 467Q508 463 506.5 450Q505 437 504 421L497 347H474Q464 416 432.5 451Q401 486 352 486Q289 486 252 416Q215 346 215 230Q215 130 242.5 81.5Q270 33 326 33Q371 33 405 69.5Q439 106 471 187L495 183L473 71Q466 34 455 21.5Q444 9 410 1Q389 -4 371 -8Q353 -12 332 -13L307 -48Q338 -58 363 -81.5Q388 -105 388 -147Q388 -193 356 -220.5Q324 -248 267 -248Z" glyph-name="ccedilla.smcp" horiz-adv-x="526" /><glyph d="M197 537 176 541 239 697Q248 719 258.5 727Q269 735 289 735H330Q349 735 358 727Q367 719 372 697L408 541L388 537L301 639ZM259 -14Q169 -14 114 45.5Q59 105 59 206Q59 269 77.5 323Q96 377 128.5 416.5Q161 456 206 478.5Q251 501 302 501Q366 501 410.5 466Q455 431 455 382Q455 356 439 338.5Q423 321 390 321Q376 321 372 325.5Q368 330 364 349L341 452Q334 454 325 456Q316 458 307 458Q263 458 233.5 401Q204 344 204 238Q204 157 235.5 111.5Q267 66 322 66Q352 66 376.5 77Q401 88 423 109L434 90Q401 43 357 14.5Q313 -14 259 -14Z" glyph-name="ccircumflex" horiz-adv-x="446" unicode="&#265;" /><glyph d="M232 565 213 569 281 689Q294 711 304.5 718.5Q315 726 333 726H368Q386 726 395 718.5Q404 711 412 689L461 569L441 565L343 642ZM295 -14Q187 -14 125.5 50Q64 114 64 225Q64 291 85.5 347.5Q107 404 145.5 445Q184 486 237 509Q290 532 353 532Q389 532 417.5 526Q446 520 478 508Q494 502 501 492Q508 482 508 467Q508 463 506.5 450Q505 437 504 421L497 347H474Q464 416 432.5 451Q401 486 352 486Q289 486 252 416Q215 346 215 230Q215 130 242.5 81.5Q270 33 326 33Q371 33 405 69.5Q439 106 471 187L495 183L473 71Q466 34 455 21.5Q444 9 410 1Q380 -6 355.5 -10Q331 -14 295 -14Z" glyph-name="ccircumflex.smcp" horiz-adv-x="526" /><glyph d="M294 564Q263 564 244 582.5Q225 601 225 633Q225 671 248 695Q271 719 308 719Q340 719 359 700Q378 681 378 650Q378 612 355 588Q332 564 294 564ZM259 -14Q169 -14 114 45.5Q59 105 59 206Q59 269 77.5 323Q96 377 128.5 416.5Q161 456 206 478.5Q251 501 302 501Q366 501 410.5 466Q455 431 455 382Q455 356 439 338.5Q423 321 390 321Q376 321 372 325.5Q368 330 364 349L341 452Q334 454 325 456Q316 458 307 458Q263 458 233.5 401Q204 344 204 238Q204 157 235.5 111.5Q267 66 322 66Q352 66 376.5 77Q401 88 423 109L434 90Q401 43 357 14.5Q313 -14 259 -14Z" glyph-name="cdotaccent" horiz-adv-x="446" unicode="&#267;" /><glyph d="M337 572Q304 572 286 591.5Q268 611 268 642Q268 679 290.5 703.5Q313 728 351 728Q385 728 402.5 708.5Q420 689 420 659Q420 622 398 597Q376 572 337 572ZM295 -14Q187 -14 125.5 50Q64 114 64 225Q64 291 85.5 347.5Q107 404 145.5 445Q184 486 237 509Q290 532 353 532Q389 532 417.5 526Q446 520 478 508Q494 502 501 492Q508 482 508 467Q508 463 506.5 450Q505 437 504 421L497 347H474Q464 416 432.5 451Q401 486 352 486Q289 486 252 416Q215 346 215 230Q215 130 242.5 81.5Q270 33 326 33Q371 33 405 69.5Q439 106 471 187L495 183L473 71Q466 34 455 21.5Q444 9 410 1Q380 -6 355.5 -10Q331 -14 295 -14Z" glyph-name="cdotaccent.smcp" horiz-adv-x="526" /><glyph d="M177 -248Q134 -248 110.5 -227Q87 -206 87 -178Q87 -165 97.5 -156Q108 -147 124 -147Q137 -147 140 -149.5Q143 -152 145 -164L153 -216Q156 -217 159.5 -217.5Q163 -218 167 -218Q187 -218 200 -206Q213 -194 213 -171Q213 -147 197.5 -129.5Q182 -112 154 -102L208 15H262L217 -48Q248 -58 273 -81.5Q298 -105 298 -147Q298 -193 266 -220.5Q234 -248 177 -248Z" glyph-name="cedilla" horiz-adv-x="440" unicode="&#184;" /><glyph d="M181 -248Q138 -248 113.5 -228Q89 -208 89 -179Q89 -165 98.5 -156Q108 -147 124 -147Q137 -147 141 -149.5Q145 -152 146 -163L153 -215Q157 -217 161 -218Q165 -219 170 -219Q190 -219 203 -207Q216 -195 216 -171Q216 -146 202 -130.5Q188 -115 159 -105L212 15H266L219 -55Q257 -63 277.5 -86.5Q298 -110 298 -147Q298 -190 266 -219Q234 -248 181 -248Z" glyph-name="cedilla.case" horiz-adv-x="440" /><glyph d="M178 -116 224 74Q149 91 107 149Q65 207 65 292Q65 355 85.5 408.5Q106 462 142 500Q178 538 227 560Q276 582 332 582Q336 582 339.5 582Q343 582 347 581L388 750H428L386 576Q435 564 466.5 533Q498 502 498 462Q498 436 480.5 419Q463 402 428 402Q412 402 407.5 406Q403 410 399 429L375 532L286 166Q300 156 317 151.5Q334 147 353 147Q386 147 413 158Q440 169 464 190L476 171Q440 124 392.5 95.5Q345 67 285 67Q279 67 273.5 67Q268 67 263 68L218 -116ZM220 319Q220 280 229 249.5Q238 219 254 197L337 539Q288 539 254 482Q220 425 220 319Z" glyph-name="cent" horiz-adv-x="490" unicode="&#162;" /><glyph d="M172 -93 211 57Q145 68 104 113.5Q63 159 63 229Q63 279 81 322.5Q99 366 130 398Q161 430 204 448.5Q247 467 296 467Q302 467 307.5 467Q313 467 319 466L354 600H389L352 460Q392 449 417 424Q442 399 442 370Q442 349 426.5 335Q411 321 380 321Q367 321 363 325Q359 329 355 344L339 408L265 128Q276 123 288.5 120.5Q301 118 315 118Q343 118 367 127.5Q391 137 411 153L422 135Q391 98 348.5 75.5Q306 53 255 53Q253 53 250.5 53Q248 53 245 53L207 -93ZM200 255Q200 221 209.5 194Q219 167 236 149L309 431Q307 431 304 431Q301 431 299 431Q256 431 228 385Q200 339 200 255Z" glyph-name="cent.smcp" horiz-adv-x="452" /><glyph d="M172 537 151 541 214 697Q223 719 233.5 727Q244 735 264 735H305Q324 735 333 727Q342 719 347 697L383 541L363 537L276 639Z" glyph-name="circumflex" horiz-adv-x="440" unicode="&#710;" /><glyph d="M176 693 157 697 225 817Q238 839 248.5 846.5Q259 854 277 854H312Q330 854 339 846.5Q348 839 356 817L405 697L385 693L287 770Z" glyph-name="circumflex.case" horiz-adv-x="440" /><glyph d="M155 293Q121 293 103.5 313.5Q86 334 86 366Q86 407 109 434Q132 461 169 461Q202 461 219.5 440Q237 419 237 388Q237 347 214.5 320Q192 293 155 293ZM128 -9Q94 -9 76.5 11.5Q59 32 59 64Q59 105 82 132Q105 159 142 159Q175 159 192.5 138Q210 117 210 86Q210 45 187.5 18Q165 -9 128 -9Z" glyph-name="colon" horiz-adv-x="256" unicode=":" /><glyph d="M31 -167 20 -147Q52 -112 72.5 -73.5Q93 -35 98 -1L66 94Q64 102 63 105.5Q62 109 62 112Q62 125 82.5 141Q103 157 131 157Q169 157 189 132.5Q209 108 209 63Q209 6 166.5 -57Q124 -120 31 -167Z" glyph-name="comma" horiz-adv-x="256" unicode="," /><glyph d="M125 -279 119 -261Q147 -238 161 -218Q175 -198 182 -171L156 -107Q154 -103 153 -100Q152 -97 152 -94Q152 -82 173 -70Q194 -58 216 -58Q247 -58 264.5 -77.5Q282 -97 282 -128Q282 -179 242 -217.5Q202 -256 125 -279Z" glyph-name="commaaccent" horiz-adv-x="440" unicode="&#63171;" /><glyph d="M121 -270 117 -253Q141 -231 155.5 -211Q170 -191 179 -165L160 -105Q158 -99 157 -95Q156 -91 156 -89Q156 -78 173 -68.5Q190 -59 214 -59Q245 -59 260.5 -78Q276 -97 276 -125Q276 -170 239 -206Q202 -242 121 -270Z" glyph-name="commaaccent.case" horiz-adv-x="440" /><glyph d="M358 -22Q293 -22 240 0Q187 22 149.5 61.5Q112 101 91.5 158Q71 215 71 284Q71 370 97 443Q123 516 169.5 568.5Q216 621 280.5 651Q345 681 420 681Q485 681 538.5 659Q592 637 629.5 597.5Q667 558 687.5 501Q708 444 708 375Q708 289 681.5 216Q655 143 608.5 90.5Q562 38 497.5 8Q433 -22 358 -22ZM364 44Q424 44 473.5 67.5Q523 91 557.5 133.5Q592 176 611.5 236Q631 296 631 368Q631 484 573 549.5Q515 615 414 615Q355 615 305.5 591.5Q256 568 221.5 525.5Q187 483 167.5 423Q148 363 148 291Q148 175 205.5 109.5Q263 44 364 44ZM384 169Q321 169 286 207.5Q251 246 251 312Q251 352 263 387.5Q275 423 296.5 449Q318 475 349 490.5Q380 506 417 506Q442 506 458.5 502.5Q475 499 490 492Q500 488 503.5 482Q507 476 507 466Q507 465 507.5 464.5Q508 464 507 456L501 397H488Q481 441 462.5 460.5Q444 480 411 480Q375 480 356 433Q337 386 337 319Q337 261 354 227.5Q371 194 402 194Q428 194 448.5 218Q469 242 485 286L498 285L486 220Q483 198 477 191Q471 184 452 177Q439 173 422.5 171Q406 169 384 169Z" glyph-name="copyright" horiz-adv-x="720" unicode="&#169;" /><glyph d="M74 93 41 135 108 202Q94 227 86.5 256.5Q79 286 81 318Q82 353 95.5 387Q109 421 130 446L74 515L115 556L165 481Q187 498 213 508Q239 518 266 518Q292 518 316.5 508Q341 498 360 481L422 556L457 515L389 447Q404 424 411 394Q418 364 416 331Q414 296 401 262Q388 228 367 203L423 135L382 93L332 168Q310 151 284 141Q258 131 232 131Q205 131 180.5 141Q156 151 137 168ZM239 212Q276 212 304 246Q332 280 334 332Q337 378 315 407.5Q293 437 258 437Q218 437 191.5 404Q165 371 162 318Q160 271 181.5 241.5Q203 212 239 212Z" glyph-name="currency" horiz-adv-x="444" unicode="&#164;" /><glyph d="M213 -14Q144 -14 103 44.5Q62 103 62 204Q62 269 80.5 323.5Q99 378 131 417Q163 456 206.5 477.5Q250 499 300 499Q322 499 346 495Q370 491 384 487L393 589Q394 607 395.5 621Q397 635 397 642Q397 657 391 666Q385 675 366 681L326 692L328 717Q344 721 368 725.5Q392 730 418.5 732.5Q445 735 473.5 737Q502 739 528 739H550Q541 688 534 636Q527 584 523 531L489 146Q486 118 484.5 97Q483 76 483 69Q483 50 496.5 42Q510 34 544 32L542 5Q512 -2 487.5 -6Q463 -10 443 -10Q401 -10 380.5 11.5Q360 33 360 76Q360 81 361.5 93.5Q363 106 364 121Q335 57 295.5 21.5Q256 -14 213 -14ZM266 74Q300 74 329.5 144Q359 214 369 330L376 411Q366 432 349 444.5Q332 457 311 457Q270 457 238.5 391.5Q207 326 207 213Q207 145 222.5 109.5Q238 74 266 74Z" glyph-name="d" horiz-adv-x="558" unicode="d" /><glyph d="M23 0 26 28 64 36Q89 40 100.5 53Q112 66 114 97L141 393Q142 409 143 420.5Q144 432 144 436Q144 458 135.5 468Q127 478 104 482L66 490L68 518H241Q319 518 382 501Q445 484 489 452Q533 420 557 373Q581 326 581 266Q581 200 557.5 149.5Q534 99 491 66Q448 33 386 16.5Q324 0 249 0ZM288 42Q362 42 396 98Q430 154 430 262Q430 359 389 411Q348 463 287 473L249 49Q256 46 267 44Q278 42 288 42Z" glyph-name="d.smcp" horiz-adv-x="597" /><glyph d="M160 -249 225 492H101L107 555H231L248 750H357L340 555H466L461 492H335L269 -249Z" glyph-name="dagger" horiz-adv-x="475" unicode="&#8224;" /><glyph d="M59 5 65 68H188L225 492H101L107 555H231L248 750H357L340 555H466L461 492H335L297 68H424L418 5H292L269 -250H160L183 5Z" glyph-name="daggerdbl" horiz-adv-x="475" unicode="&#8225;" /><glyph d="M213 -14Q144 -14 103 44.5Q62 103 62 204Q62 269 80.5 323.5Q99 378 131 417Q163 456 206.5 477.5Q250 499 300 499Q322 499 346 495Q370 491 384 487L393 589Q394 607 395.5 621Q397 635 397 642Q397 657 391 666Q385 675 366 681L326 692L328 717Q344 721 368 725.5Q392 730 418.5 732.5Q445 735 473.5 737Q502 739 528 739H550Q541 688 534 636Q527 584 523 531L489 146Q486 118 484.5 97Q483 76 483 69Q483 50 496.5 42Q510 34 544 32L542 5Q512 -2 487.5 -6Q463 -10 443 -10Q401 -10 380.5 11.5Q360 33 360 76Q360 81 361.5 93.5Q363 106 364 121Q335 57 295.5 21.5Q256 -14 213 -14ZM583 513 565 521 602 694Q609 723 614.5 729.5Q620 736 637 736Q660 736 682 723Q704 710 704 682Q704 669 699.5 657Q695 645 686 634ZM266 74Q300 74 329.5 144Q359 214 369 330L376 411Q366 432 349 444.5Q332 457 311 457Q270 457 238.5 391.5Q207 326 207 213Q207 145 222.5 109.5Q238 74 266 74Z" glyph-name="dcaron" horiz-adv-x="558" unicode="&#271;" /><glyph d="M316 566Q298 566 289 574Q280 582 272 603L223 723L243 728L341 649L450 728L471 723L402 603Q390 581 379.5 573.5Q369 566 351 566ZM23 0 26 28 64 36Q89 40 100.5 53Q112 66 114 97L141 393Q142 409 143 420.5Q144 432 144 436Q144 458 135.5 468Q127 478 104 482L66 490L68 518H241Q319 518 382 501Q445 484 489 452Q533 420 557 373Q581 326 581 266Q581 200 557.5 149.5Q534 99 491 66Q448 33 386 16.5Q324 0 249 0ZM288 42Q362 42 396 98Q430 154 430 262Q430 359 389 411Q348 463 287 473L249 49Q256 46 267 44Q278 42 288 42Z" glyph-name="dcaron.smcp" horiz-adv-x="597" /><glyph d="M213 -14Q144 -14 103 44.5Q62 103 62 204Q62 269 80.5 323.5Q99 378 131 417Q163 456 206.5 477.5Q250 499 300 499Q322 499 346 495Q370 491 384 487L392 573H309L312 613H395Q396 623 396.5 630.5Q397 638 397 642Q397 657 391 666Q385 675 366 681L326 692L328 717Q344 721 368 725.5Q392 730 418.5 732.5Q445 735 473.5 737Q502 739 528 739H550Q544 708 539.5 676.5Q535 645 531 613H573L570 573H527L489 146Q486 118 484.5 97Q483 76 483 69Q483 50 496.5 42Q510 34 544 32L542 5Q512 -2 487.5 -6Q463 -10 443 -10Q401 -10 380.5 11.5Q360 33 360 76Q360 81 361.5 93.5Q363 106 364 121Q335 57 295.5 21.5Q256 -14 213 -14ZM266 74Q300 74 329.5 144Q359 214 369 330L376 411Q366 432 349 444.5Q332 457 311 457Q270 457 238.5 391.5Q207 326 207 213Q207 145 222.5 109.5Q238 74 266 74Z" glyph-name="dcroat" horiz-adv-x="558" unicode="&#273;" /><glyph d="M23 0 26 28 64 36Q89 40 100.5 53Q112 66 114 97L128 247H75L80 287H132L141 393Q142 409 143 420.5Q144 432 144 436Q144 458 135.5 468Q127 478 104 482L66 490L68 518H241Q319 518 382 501Q445 484 489 452Q533 420 557 373Q581 326 581 266Q581 200 557.5 149.5Q534 99 491 66Q448 33 386 16.5Q324 0 249 0ZM288 42Q362 42 396 98Q430 154 430 262Q430 359 389 411Q348 463 287 473L270 287H352L348 247H267L249 49Q256 46 267 44Q278 42 288 42Z" glyph-name="dcroat.smcp" horiz-adv-x="597" /><glyph d="M197 331Q135 331 99.5 370Q64 409 64 472Q64 510 75 544Q86 578 107 603Q128 628 158 642.5Q188 657 225 657Q288 657 323 618.5Q358 580 358 516Q358 478 347 444Q336 410 315 385Q294 360 264 345.5Q234 331 197 331ZM201 391Q238 391 261 425Q284 459 284 513Q284 554 267 575.5Q250 597 221 597Q184 597 161 563Q138 529 138 475Q138 434 155 412.5Q172 391 201 391Z" glyph-name="degree" horiz-adv-x="339" unicode="&#176;" /><glyph d="M179 567Q151 567 132.5 585Q114 603 114 632Q114 669 136.5 692.5Q159 716 192 716Q221 716 239 698Q257 680 257 649Q257 614 235 590.5Q213 567 179 567ZM361 567Q332 567 314 585Q296 603 296 632Q296 669 318 692.5Q340 716 374 716Q402 716 420.5 698Q439 680 439 649Q439 614 416.5 590.5Q394 567 361 567Z" glyph-name="dieresis" horiz-adv-x="440" unicode="&#168;" /><glyph d="M185 699Q153 699 136 717.5Q119 736 119 765Q119 800 140.5 824Q162 848 199 848Q231 848 248.5 829.5Q266 811 266 782Q266 747 244 723Q222 699 185 699ZM375 699Q343 699 326 717.5Q309 736 309 765Q309 800 330.5 824Q352 848 389 848Q421 848 438.5 829.5Q456 811 456 782Q456 747 434 723Q412 699 375 699Z" glyph-name="dieresis.case" horiz-adv-x="440" /><glyph d="M279 464Q255 464 241 479Q227 494 227 518Q227 546 244.5 565.5Q262 585 288 585Q312 585 326 570Q340 555 340 531Q340 503 323 483.5Q306 464 279 464ZM91 308 96 370H444L439 308ZM248 91Q224 91 209.5 106.5Q195 122 195 145Q195 173 212.5 193Q230 213 257 213Q280 213 294.5 198Q309 183 309 159Q309 131 292 111Q275 91 248 91Z" glyph-name="divide" horiz-adv-x="475" unicode="&#247;" /><glyph d="M156 -116 181 -12Q157 -9 136.5 -4.5Q116 0 100 7Q78 17 68.5 29.5Q59 42 58 62Q58 73 57.5 84.5Q57 96 58 104L61 207L88 212Q104 142 129.5 100Q155 58 194 42L247 258L235 264Q162 298 126.5 345Q91 392 91 455Q91 544 153.5 602Q216 660 313 660Q321 660 329 660Q337 660 344 659L366 750H406L383 655Q402 652 419.5 647.5Q437 643 453 636Q469 629 475.5 618.5Q482 608 482 590Q482 586 481 574.5Q480 563 479 553L469 456H443Q436 507 417 543Q398 579 369 597L319 392L347 379Q418 345 450.5 301.5Q483 258 483 197Q483 150 464.5 110.5Q446 71 414 43.5Q382 16 336.5 1Q291 -14 238 -14Q234 -14 229.5 -14Q225 -14 221 -14L196 -116ZM205 523Q205 487 224 459.5Q243 432 284 410L332 612Q325 613 316.5 614Q308 615 300 615Q256 615 230.5 590.5Q205 566 205 523ZM367 133Q367 167 347.5 193Q328 219 283 241L232 32Q237 31 242.5 31Q248 31 254 31Q306 31 336.5 58Q367 85 367 133Z" glyph-name="dollar" horiz-adv-x="481" unicode="$" /><glyph d="M148 -93 170 -11Q151 -9 134.5 -4.5Q118 0 103 5Q86 11 76.5 21.5Q67 32 66 50Q65 55 65 65Q65 75 66 84L69 179L92 183Q104 125 127 90Q150 55 183 41L226 205L221 207Q155 234 124 272Q93 310 93 364Q93 434 146.5 483Q200 532 292 532Q297 532 302 532Q307 532 312 532L330 600H365L346 529Q365 526 382.5 522Q400 518 416 512Q431 506 437.5 496.5Q444 487 444 474Q444 470 443 460Q442 450 441 440L431 354H407Q400 400 381.5 431.5Q363 463 333 477L292 320L327 306Q391 279 419 244.5Q447 210 447 159Q447 124 432.5 92.5Q418 61 390 37.5Q362 14 320.5 0Q279 -14 226 -14Q221 -14 215.5 -14Q210 -14 205 -14L184 -93ZM203 419Q203 391 216.5 371Q230 351 260 335L300 487Q296 488 290.5 488Q285 488 280 488Q246 488 224.5 469Q203 450 203 419ZM333 107Q333 137 315.5 156Q298 175 258 191L217 32Q222 31 228.5 30.5Q235 30 241 30Q282 30 307.5 49.5Q333 69 333 107Z" glyph-name="dollar.smcp" horiz-adv-x="483" /><glyph d="M269 564Q238 564 219 582.5Q200 601 200 633Q200 671 223 695Q246 719 283 719Q315 719 334 700Q353 681 353 650Q353 612 330 588Q307 564 269 564Z" glyph-name="dotaccent" horiz-adv-x="440" unicode="&#729;" /><glyph d="M281 700Q248 700 230 719.5Q212 739 212 770Q212 807 234.5 831.5Q257 856 295 856Q329 856 346.5 836.5Q364 817 364 787Q364 750 342 725Q320 700 281 700Z" glyph-name="dotaccent.case" horiz-adv-x="440" /><glyph d="M181 -9Q132 -9 111 14.5Q90 38 90 85Q90 92 91 111Q92 130 96 167L112 333Q113 349 115 369.5Q117 390 117 396Q117 415 108 424Q99 433 79 433Q77 433 72 432.5Q67 432 63 431L66 462Q90 472 124 479.5Q158 487 177 487Q214 487 234 470Q254 453 254 413Q254 408 253 386.5Q252 365 250 341L230 146Q227 113 226 97.5Q225 82 225 76Q225 57 237.5 48.5Q250 40 289 39L287 11Q265 4 234 -2.5Q203 -9 181 -9Z" glyph-name="dotlessi" horiz-adv-x="300" unicode="&#305;" /><glyph d="M19 -246Q-24 -246 -45.5 -226.5Q-67 -207 -67 -182Q-67 -163 -57.5 -152Q-48 -141 -35 -141Q-33 -141 -30 -142Q-27 -143 -22 -146L61 -189Q73 -161 78.5 -129Q84 -97 87 -48L114 333Q115 349 116.5 367.5Q118 386 118 392Q118 411 109 419.5Q100 428 80 428Q77 428 72.5 428Q68 428 64 427L67 458Q91 468 125 477.5Q159 487 179 487Q217 487 236.5 470.5Q256 454 256 414Q256 409 254.5 387Q253 365 252 341L232 103Q226 24 205.5 -40.5Q185 -105 156 -150.5Q127 -196 91.5 -221Q56 -246 19 -246Z" glyph-name="dotlessj" horiz-adv-x="292" unicode="&#567;" /><glyph d="M259 -14Q166 -14 113 46Q60 106 60 211Q60 271 78.5 324.5Q97 378 130 417Q163 456 209 478.5Q255 501 308 501Q370 501 408.5 474Q447 447 447 396Q447 348 412.5 318.5Q378 289 299 264L194 231Q194 150 223.5 109Q253 68 317 68Q348 68 375 78Q402 88 430 111L440 91Q406 46 362.5 16Q319 -14 259 -14ZM196 289 250 296Q296 302 320 325Q344 348 344 391Q344 421 332.5 440.5Q321 460 298 460Q264 460 234.5 416.5Q205 373 196 289Z" glyph-name="e" horiz-adv-x="446" unicode="e" /><glyph d="M23 0 26 28 64 36Q89 40 100.5 53Q112 66 114 97L141 393Q142 409 143 420.5Q144 432 144 436Q144 458 135.5 468Q127 478 104 482L66 490L68 518H504Q517 518 522.5 512Q528 506 528 496Q528 493 527.5 487Q527 481 526 471L516 355H492L487 387Q480 440 455.5 459Q431 478 378 478H285L268 295H398L417 370H442L425 175H400L395 251H265L247 50Q263 47 286 44Q309 41 330 41Q389 41 423.5 68.5Q458 96 480 153L488 176L513 172L481 18Q478 5 472 -0.5Q466 -6 452 -6Q447 -6 432.5 -5Q418 -4 400 -3Q382 -2 363 -1Q344 0 331 0Z" glyph-name="e.smcp" horiz-adv-x="532" /><glyph d="M253 545 242 562 357 715Q370 732 375.5 735.5Q381 739 387 739Q408 739 429 721.5Q450 704 450 672Q450 646 437 629Q424 612 397 602ZM259 -14Q166 -14 113 46Q60 106 60 211Q60 271 78.5 324.5Q97 378 130 417Q163 456 209 478.5Q255 501 308 501Q370 501 408.5 474Q447 447 447 396Q447 348 412.5 318.5Q378 289 299 264L194 231Q194 150 223.5 109Q253 68 317 68Q348 68 375 78Q402 88 430 111L440 91Q406 46 362.5 16Q319 -14 259 -14ZM196 289 250 296Q296 302 320 325Q344 348 344 391Q344 421 332.5 440.5Q321 460 298 460Q264 460 234.5 416.5Q205 373 196 289Z" glyph-name="eacute" horiz-adv-x="446" unicode="&#233;" /><glyph d="M274 564 268 581 403 718Q415 731 419.5 733.5Q424 736 429 736Q445 736 462 718Q479 700 479 672Q479 644 463 627Q447 610 420 603ZM23 0 26 28 64 36Q89 40 100.5 53Q112 66 114 97L141 393Q142 409 143 420.5Q144 432 144 436Q144 458 135.5 468Q127 478 104 482L66 490L68 518H504Q517 518 522.5 512Q528 506 528 496Q528 493 527.5 487Q527 481 526 471L516 355H492L487 387Q480 440 455.5 459Q431 478 378 478H285L268 295H398L417 370H442L425 175H400L395 251H265L247 50Q263 47 286 44Q309 41 330 41Q389 41 423.5 68.5Q458 96 480 153L488 176L513 172L481 18Q478 5 472 -0.5Q466 -6 452 -6Q447 -6 432.5 -5Q418 -4 400 -3Q382 -2 363 -1Q344 0 331 0Z" glyph-name="eacute.smcp" horiz-adv-x="533" /><glyph d="M291 550Q245 550 222 584Q199 618 199 687Q199 697 199 709Q199 721 200 731L222 735Q229 689 248 668.5Q267 648 301 648Q335 648 357.5 668.5Q380 689 397 735L419 731Q408 638 376.5 594Q345 550 291 550ZM259 -14Q166 -14 113 46Q60 106 60 211Q60 271 78.5 324.5Q97 378 130 417Q163 456 209 478.5Q255 501 308 501Q370 501 408.5 474Q447 447 447 396Q447 348 412.5 318.5Q378 289 299 264L194 231Q194 150 223.5 109Q253 68 317 68Q348 68 375 78Q402 88 430 111L440 91Q406 46 362.5 16Q319 -14 259 -14ZM196 289 250 296Q296 302 320 325Q344 348 344 391Q344 421 332.5 440.5Q321 460 298 460Q264 460 234.5 416.5Q205 373 196 289Z" glyph-name="ebreve" horiz-adv-x="446" unicode="&#277;" /><glyph d="M310 565Q265 565 239 596.5Q213 628 213 686Q213 695 213 702Q213 709 214 716H235Q242 682 263 666.5Q284 651 318 651Q352 651 375.5 666.5Q399 682 411 716H433Q423 637 393 601Q363 565 310 565ZM23 0 26 28 64 36Q89 40 100.5 53Q112 66 114 97L141 393Q142 409 143 420.5Q144 432 144 436Q144 458 135.5 468Q127 478 104 482L66 490L68 518H504Q517 518 522.5 512Q528 506 528 496Q528 493 527.5 487Q527 481 526 471L516 355H492L487 387Q480 440 455.5 459Q431 478 378 478H285L268 295H398L417 370H442L425 175H400L395 251H265L247 50Q263 47 286 44Q309 41 330 41Q389 41 423.5 68.5Q458 96 480 153L488 176L513 172L481 18Q478 5 472 -0.5Q466 -6 452 -6Q447 -6 432.5 -5Q418 -4 400 -3Q382 -2 363 -1Q344 0 331 0Z" glyph-name="ebreve.smcp" horiz-adv-x="533" /><glyph d="M271 552Q252 552 243.5 559.5Q235 567 230 589L194 745L213 750L300 647L405 750L425 745L362 589Q353 567 343 559.5Q333 552 314 552ZM259 -14Q166 -14 113 46Q60 106 60 211Q60 271 78.5 324.5Q97 378 130 417Q163 456 209 478.5Q255 501 308 501Q370 501 408.5 474Q447 447 447 396Q447 348 412.5 318.5Q378 289 299 264L194 231Q194 150 223.5 109Q253 68 317 68Q348 68 375 78Q402 88 430 111L440 91Q406 46 362.5 16Q319 -14 259 -14ZM196 289 250 296Q296 302 320 325Q344 348 344 391Q344 421 332.5 440.5Q321 460 298 460Q264 460 234.5 416.5Q205 373 196 289Z" glyph-name="ecaron" horiz-adv-x="446" unicode="&#283;" /><glyph d="M292 566Q274 566 265 574Q256 582 248 603L199 723L219 728L317 649L426 728L447 723L378 603Q366 581 355.5 573.5Q345 566 327 566ZM23 0 26 28 64 36Q89 40 100.5 53Q112 66 114 97L141 393Q142 409 143 420.5Q144 432 144 436Q144 458 135.5 468Q127 478 104 482L66 490L68 518H504Q517 518 522.5 512Q528 506 528 496Q528 493 527.5 487Q527 481 526 471L516 355H492L487 387Q480 440 455.5 459Q431 478 378 478H285L268 295H398L417 370H442L425 175H400L395 251H265L247 50Q263 47 286 44Q309 41 330 41Q389 41 423.5 68.5Q458 96 480 153L488 176L513 172L481 18Q478 5 472 -0.5Q466 -6 452 -6Q447 -6 432.5 -5Q418 -4 400 -3Q382 -2 363 -1Q344 0 331 0Z" glyph-name="ecaron.smcp" horiz-adv-x="533" /><glyph d="M196 537 175 541 238 697Q247 719 257.5 727Q268 735 288 735H329Q348 735 357 727Q366 719 371 697L407 541L387 537L300 639ZM259 -14Q166 -14 113 46Q60 106 60 211Q60 271 78.5 324.5Q97 378 130 417Q163 456 209 478.5Q255 501 308 501Q370 501 408.5 474Q447 447 447 396Q447 348 412.5 318.5Q378 289 299 264L194 231Q194 150 223.5 109Q253 68 317 68Q348 68 375 78Q402 88 430 111L440 91Q406 46 362.5 16Q319 -14 259 -14ZM196 289 250 296Q296 302 320 325Q344 348 344 391Q344 421 332.5 440.5Q321 460 298 460Q264 460 234.5 416.5Q205 373 196 289Z" glyph-name="ecircumflex" horiz-adv-x="446" unicode="&#234;" /><glyph d="M206 565 187 569 255 689Q268 711 278.5 718.5Q289 726 307 726H342Q360 726 369 718.5Q378 711 386 689L435 569L415 565L317 642ZM23 0 26 28 64 36Q89 40 100.5 53Q112 66 114 97L141 393Q142 409 143 420.5Q144 432 144 436Q144 458 135.5 468Q127 478 104 482L66 490L68 518H504Q517 518 522.5 512Q528 506 528 496Q528 493 527.5 487Q527 481 526 471L516 355H492L487 387Q480 440 455.5 459Q431 478 378 478H285L268 295H398L417 370H442L425 175H400L395 251H265L247 50Q263 47 286 44Q309 41 330 41Q389 41 423.5 68.5Q458 96 480 153L488 176L513 172L481 18Q478 5 472 -0.5Q466 -6 452 -6Q447 -6 432.5 -5Q418 -4 400 -3Q382 -2 363 -1Q344 0 331 0Z" glyph-name="ecircumflex.smcp" horiz-adv-x="533" /><glyph d="M203 567Q175 567 156.5 585Q138 603 138 632Q138 669 160.5 692.5Q183 716 216 716Q245 716 263 698Q281 680 281 649Q281 614 259 590.5Q237 567 203 567ZM385 567Q356 567 338 585Q320 603 320 632Q320 669 342 692.5Q364 716 398 716Q426 716 444.5 698Q463 680 463 649Q463 614 440.5 590.5Q418 567 385 567ZM259 -14Q166 -14 113 46Q60 106 60 211Q60 271 78.5 324.5Q97 378 130 417Q163 456 209 478.5Q255 501 308 501Q370 501 408.5 474Q447 447 447 396Q447 348 412.5 318.5Q378 289 299 264L194 231Q194 150 223.5 109Q253 68 317 68Q348 68 375 78Q402 88 430 111L440 91Q406 46 362.5 16Q319 -14 259 -14ZM196 289 250 296Q296 302 320 325Q344 348 344 391Q344 421 332.5 440.5Q321 460 298 460Q264 460 234.5 416.5Q205 373 196 289Z" glyph-name="edieresis" horiz-adv-x="446" unicode="&#235;" /><glyph d="M215 571Q183 571 166 589.5Q149 608 149 637Q149 672 170.5 696Q192 720 229 720Q261 720 278.5 701.5Q296 683 296 654Q296 619 274 595Q252 571 215 571ZM405 571Q373 571 356 589.5Q339 608 339 637Q339 672 360.5 696Q382 720 419 720Q451 720 468.5 701.5Q486 683 486 654Q486 619 464 595Q442 571 405 571ZM23 0 26 28 64 36Q89 40 100.5 53Q112 66 114 97L141 393Q142 409 143 420.5Q144 432 144 436Q144 458 135.5 468Q127 478 104 482L66 490L68 518H504Q517 518 522.5 512Q528 506 528 496Q528 493 527.5 487Q527 481 526 471L516 355H492L487 387Q480 440 455.5 459Q431 478 378 478H285L268 295H398L417 370H442L425 175H400L395 251H265L247 50Q263 47 286 44Q309 41 330 41Q389 41 423.5 68.5Q458 96 480 153L488 176L513 172L481 18Q478 5 472 -0.5Q466 -6 452 -6Q447 -6 432.5 -5Q418 -4 400 -3Q382 -2 363 -1Q344 0 331 0Z" glyph-name="edieresis.smcp" horiz-adv-x="533" /><glyph d="M293 564Q262 564 243 582.5Q224 601 224 633Q224 671 247 695Q270 719 307 719Q339 719 358 700Q377 681 377 650Q377 612 354 588Q331 564 293 564ZM259 -14Q166 -14 113 46Q60 106 60 211Q60 271 78.5 324.5Q97 378 130 417Q163 456 209 478.5Q255 501 308 501Q370 501 408.5 474Q447 447 447 396Q447 348 412.5 318.5Q378 289 299 264L194 231Q194 150 223.5 109Q253 68 317 68Q348 68 375 78Q402 88 430 111L440 91Q406 46 362.5 16Q319 -14 259 -14ZM196 289 250 296Q296 302 320 325Q344 348 344 391Q344 421 332.5 440.5Q321 460 298 460Q264 460 234.5 416.5Q205 373 196 289Z" glyph-name="edotaccent" horiz-adv-x="446" unicode="&#279;" /><glyph d="M311 572Q278 572 260 591.5Q242 611 242 642Q242 679 264.5 703.5Q287 728 325 728Q359 728 376.5 708.5Q394 689 394 659Q394 622 372 597Q350 572 311 572ZM23 0 26 28 64 36Q89 40 100.5 53Q112 66 114 97L141 393Q142 409 143 420.5Q144 432 144 436Q144 458 135.5 468Q127 478 104 482L66 490L68 518H504Q517 518 522.5 512Q528 506 528 496Q528 493 527.5 487Q527 481 526 471L516 355H492L487 387Q480 440 455.5 459Q431 478 378 478H285L268 295H398L417 370H442L425 175H400L395 251H265L247 50Q263 47 286 44Q309 41 330 41Q389 41 423.5 68.5Q458 96 480 153L488 176L513 172L481 18Q478 5 472 -0.5Q466 -6 452 -6Q447 -6 432.5 -5Q418 -4 400 -3Q382 -2 363 -1Q344 0 331 0Z" glyph-name="edotaccent.smcp" horiz-adv-x="533" /><glyph d="M324 543 191 599Q169 608 157 624.5Q145 641 145 664Q145 696 167 716.5Q189 737 215 737Q223 737 227 733.5Q231 730 241 713L337 563ZM259 -14Q166 -14 113 46Q60 106 60 211Q60 271 78.5 324.5Q97 378 130 417Q163 456 209 478.5Q255 501 308 501Q370 501 408.5 474Q447 447 447 396Q447 348 412.5 318.5Q378 289 299 264L194 231Q194 150 223.5 109Q253 68 317 68Q348 68 375 78Q402 88 430 111L440 91Q406 46 362.5 16Q319 -14 259 -14ZM196 289 250 296Q296 302 320 325Q344 348 344 391Q344 421 332.5 440.5Q321 460 298 460Q264 460 234.5 416.5Q205 373 196 289Z" glyph-name="egrave" horiz-adv-x="446" unicode="&#232;" /><glyph d="M346 565 202 605Q180 612 168.5 627.5Q157 643 157 665Q157 693 176.5 714Q196 735 219 735Q223 735 228 732.5Q233 730 243 717L356 582ZM23 0 26 28 64 36Q89 40 100.5 53Q112 66 114 97L141 393Q142 409 143 420.5Q144 432 144 436Q144 458 135.5 468Q127 478 104 482L66 490L68 518H504Q517 518 522.5 512Q528 506 528 496Q528 493 527.5 487Q527 481 526 471L516 355H492L487 387Q480 440 455.5 459Q431 478 378 478H285L268 295H398L417 370H442L425 175H400L395 251H265L247 50Q263 47 286 44Q309 41 330 41Q389 41 423.5 68.5Q458 96 480 153L488 176L513 172L481 18Q478 5 472 -0.5Q466 -6 452 -6Q447 -6 432.5 -5Q418 -4 400 -3Q382 -2 363 -1Q344 0 331 0Z" glyph-name="egrave.smcp" horiz-adv-x="533" /><glyph d="M237 -13Q150 -13 101.5 26Q53 65 53 135Q53 191 92 234.5Q131 278 194 300L189 303Q145 328 118 367.5Q91 407 91 464Q91 547 150.5 603Q210 659 314 659Q392 659 439.5 617.5Q487 576 487 507Q487 456 453.5 416.5Q420 377 364 359L392 343Q436 317 457.5 279.5Q479 242 479 193Q479 148 461 110Q443 72 411 45Q379 18 334.5 2.5Q290 -13 237 -13ZM329 379Q353 405 367 438Q381 471 381 514Q381 560 357 588.5Q333 617 296 617Q255 617 234 590.5Q213 564 213 524Q213 486 234 454.5Q255 423 296 399ZM251 29Q297 29 324.5 58.5Q352 88 352 140Q352 180 330 207.5Q308 235 264 260L225 282Q194 257 176 222.5Q158 188 158 145Q158 94 183.5 61.5Q209 29 251 29Z" glyph-name="eight" horiz-adv-x="503" unicode="8" /><glyph d="M134 -14Q88 -14 61 8Q34 30 34 68Q34 99 52 123.5Q70 148 109 160L97 167Q77 180 64.5 199.5Q52 219 52 247Q52 294 86.5 326Q121 358 176 358Q216 358 244.5 338.5Q273 319 273 279Q273 248 255.5 225.5Q238 203 204 193L218 185Q242 171 256 151Q270 131 270 100Q270 54 233.5 20Q197 -14 134 -14ZM188 202Q204 220 210.5 240Q217 260 217 279Q217 305 204 319.5Q191 334 168 334Q146 334 133.5 318.5Q121 303 121 281Q121 258 132.5 242.5Q144 227 170 212ZM141 10Q169 10 184.5 27Q200 44 200 71Q200 93 188 108.5Q176 124 149 140L129 150Q108 136 98 115Q88 94 88 69Q88 42 101.5 26Q115 10 141 10Z" glyph-name="eight.dnom" horiz-adv-x="288" /><glyph d="M234 -14Q144 -14 96 31Q48 76 48 145Q48 198 83 249Q118 300 183 327Q137 358 113 396.5Q89 435 89 483Q89 567 148 623Q207 679 304 679Q379 679 428 637.5Q477 596 477 527Q477 470 443.5 430Q410 390 361 368Q414 332 440.5 286Q467 240 467 191Q467 99 403 42.5Q339 -14 234 -14ZM332 388Q352 416 362.5 447.5Q373 479 373 522Q373 571 350 601.5Q327 632 293 632Q257 632 237.5 608.5Q218 585 218 541Q218 501 239.5 469Q261 437 300 410ZM243 32Q280 32 304.5 60Q329 88 329 142Q329 187 306 222Q283 257 244 284L207 309Q179 275 165 236.5Q151 198 151 153Q151 101 175.5 66.5Q200 32 243 32Z" glyph-name="eight.osf" horiz-adv-x="484" /><glyph d="M220 -14Q142 -14 100.5 19Q59 52 59 109Q59 153 89.5 187.5Q120 222 173 238Q130 260 108 292.5Q86 325 86 371Q86 437 139 484.5Q192 532 288 532Q358 532 399 497Q440 462 440 406Q440 367 414 334.5Q388 302 339 288L352 281Q392 259 414.5 228.5Q437 198 437 155Q437 83 378.5 34.5Q320 -14 220 -14ZM303 308Q322 330 330.5 354Q339 378 339 412Q339 446 320 467.5Q301 489 270 489Q240 489 222 470Q204 451 204 420Q204 389 221 366Q238 343 275 323ZM233 29Q270 29 292.5 50Q315 71 315 111Q315 142 294 164.5Q273 187 242 203L205 221Q182 201 168 174Q154 147 154 115Q154 76 174.5 52.5Q195 29 233 29Z" glyph-name="eight.smcp" horiz-adv-x="471" /><glyph d="M167 368Q121 368 94 390Q67 412 67 450Q67 481 85 505.5Q103 530 142 542L130 549Q110 562 97.5 581.5Q85 601 85 629Q85 676 119.5 708Q154 740 209 740Q249 740 277.5 720.5Q306 701 306 661Q306 630 288.5 607.5Q271 585 237 575L251 567Q275 553 289 533Q303 513 303 482Q303 436 266.5 402Q230 368 167 368ZM221 584Q237 602 243.5 622Q250 642 250 661Q250 687 237 701.5Q224 716 201 716Q179 716 166.5 700.5Q154 685 154 663Q154 640 165.5 624.5Q177 609 203 594ZM174 392Q202 392 217.5 409Q233 426 233 453Q233 475 221 490.5Q209 506 182 522L162 532Q141 518 131 497Q121 476 121 451Q121 424 134.5 408Q148 392 174 392Z" glyph-name="eight.sup" horiz-adv-x="288" /><glyph d="M226 -13Q139 -13 90.5 26Q42 65 42 135Q42 191 81 234.5Q120 278 183 300L178 303Q134 328 107 367.5Q80 407 80 464Q80 547 139.5 603Q199 659 303 659Q381 659 428.5 617.5Q476 576 476 507Q476 456 442.5 416.5Q409 377 353 359L381 343Q425 317 446.5 279.5Q468 242 468 193Q468 148 450 110Q432 72 400 45Q368 18 323.5 2.5Q279 -13 226 -13ZM318 379Q342 405 356 438Q370 471 370 514Q370 560 346 588.5Q322 617 285 617Q244 617 223 590.5Q202 564 202 524Q202 486 223 454.5Q244 423 285 399ZM240 29Q286 29 313.5 58.5Q341 88 341 140Q341 180 319 207.5Q297 235 253 260L214 282Q183 257 165 222.5Q147 188 147 145Q147 94 172.5 61.5Q198 29 240 29Z" glyph-name="eight.tf" horiz-adv-x="475" /><glyph d="M228 -14Q138 -14 90 31Q42 76 42 145Q42 198 77 249Q112 300 177 327Q131 358 107 396.5Q83 435 83 483Q83 567 142 623Q201 679 298 679Q373 679 422 637.5Q471 596 471 527Q471 470 437.5 430Q404 390 355 368Q408 332 434.5 286Q461 240 461 191Q461 99 397 42.5Q333 -14 228 -14ZM326 388Q346 416 356.5 447.5Q367 479 367 522Q367 571 344 601.5Q321 632 287 632Q251 632 231.5 608.5Q212 585 212 541Q212 501 233.5 469Q255 437 294 410ZM237 32Q274 32 298.5 60Q323 88 323 142Q323 187 300 222Q277 257 238 284L201 309Q173 275 159 236.5Q145 198 145 153Q145 101 169.5 66.5Q194 32 237 32Z" glyph-name="eight.tosf" horiz-adv-x="475" /><glyph d="M128 -9Q94 -9 76.5 11.5Q59 32 59 64Q59 105 82 132Q105 159 142 159Q175 159 192.5 138Q210 117 210 86Q210 45 187.5 18Q165 -9 128 -9ZM339 -9Q305 -9 287.5 11.5Q270 32 270 64Q270 105 293 132Q316 159 353 159Q386 159 403.5 138Q421 117 421 86Q421 45 398.5 18Q376 -9 339 -9ZM550 -9Q516 -9 498.5 11.5Q481 32 481 64Q481 105 504 132Q527 159 564 159Q597 159 614.5 138Q632 117 632 86Q632 45 609.5 18Q587 -9 550 -9Z" glyph-name="ellipsis" horiz-adv-x="678" unicode="&#8230;" /><glyph d="M192 599 197 650H405L401 599ZM259 -14Q166 -14 113 46Q60 106 60 211Q60 271 78.5 324.5Q97 378 130 417Q163 456 209 478.5Q255 501 308 501Q370 501 408.5 474Q447 447 447 396Q447 348 412.5 318.5Q378 289 299 264L194 231Q194 150 223.5 109Q253 68 317 68Q348 68 375 78Q402 88 430 111L440 91Q406 46 362.5 16Q319 -14 259 -14ZM196 289 250 296Q296 302 320 325Q344 348 344 391Q344 421 332.5 440.5Q321 460 298 460Q264 460 234.5 416.5Q205 373 196 289Z" glyph-name="emacron" horiz-adv-x="446" unicode="&#275;" /><glyph d="M194 609 199 662H439L434 609ZM23 0 26 28 64 36Q89 40 100.5 53Q112 66 114 97L141 393Q142 409 143 420.5Q144 432 144 436Q144 458 135.5 468Q127 478 104 482L66 490L68 518H504Q517 518 522.5 512Q528 506 528 496Q528 493 527.5 487Q527 481 526 471L516 355H492L487 387Q480 440 455.5 459Q431 478 378 478H285L268 295H398L417 370H442L425 175H400L395 251H265L247 50Q263 47 286 44Q309 41 330 41Q389 41 423.5 68.5Q458 96 480 153L488 176L513 172L481 18Q478 5 472 -0.5Q466 -6 452 -6Q447 -6 432.5 -5Q418 -4 400 -3Q382 -2 363 -1Q344 0 331 0Z" glyph-name="emacron.smcp" horiz-adv-x="533" /><glyph d="M60 234 65 283H868L863 234Z" glyph-name="emdash" horiz-adv-x="883" unicode="&#8212;" /><glyph d="M76 318 80 370H867L862 318Z" glyph-name="emdash.case" horiz-adv-x="883" /><glyph d="M60 234 65 283H427L423 234Z" glyph-name="endash" horiz-adv-x="442" unicode="&#8211;" /><glyph d="M76 318 80 370H430L425 318Z" glyph-name="endash.case" horiz-adv-x="446" /><glyph d="M291 -246Q243 -246 221.5 -229.5Q200 -213 200 -184Q200 -168 209 -157Q218 -146 232 -146Q236 -146 238 -147Q240 -148 245 -152L316 -201Q335 -176 344 -144Q353 -112 359 -48L385 283Q387 311 389 335Q391 359 391 371Q391 397 382 410.5Q373 424 354 424Q313 424 276 348Q239 272 228 105L223 35Q222 16 212.5 8Q203 0 188 0H74Q81 40 88.5 90.5Q96 141 100 187L115 333Q116 349 118 367.5Q120 386 120 392Q120 411 111 419.5Q102 428 82 428Q79 428 74.5 428Q70 428 66 427L69 458Q93 468 126.5 477.5Q160 487 179 487Q213 487 231 472Q249 457 249 420Q249 416 248 405.5Q247 395 246 384Q282 436 325 469Q368 502 411 502Q464 502 495 472Q526 442 526 376Q526 367 524 332Q522 297 519 266L502 84Q489 -73 430.5 -159.5Q372 -246 291 -246Z" glyph-name="eng" horiz-adv-x="565" unicode="&#331;" /><glyph d="M261 -232 253 -207Q280 -191 297.5 -175Q315 -159 326 -139Q337 -119 342.5 -91.5Q348 -64 352 -23L362 92L187 383L156 44L247 30L244 0H23L26 29L53 34Q78 38 90 49Q102 60 105 91L138 375Q139 394 141 411.5Q143 429 143 433Q143 454 132.5 463.5Q122 473 100 480L70 489L73 518H230Q255 518 264.5 513Q274 508 282 494L465 184L492 474L401 488L404 518H622L619 489L591 484Q566 480 555.5 470Q545 460 542 429L497 22Q491 -32 477.5 -72Q464 -112 437.5 -141.5Q411 -171 368.5 -192.5Q326 -214 261 -232Z" glyph-name="eng.smcp" horiz-adv-x="592" /><glyph d="M225 -245Q185 -245 162.5 -222Q140 -199 140 -159Q140 -115 168 -78.5Q196 -42 252 -14Q165 -10 112.5 47Q60 104 60 211Q60 271 78.5 324.5Q97 378 130 417Q163 456 209 478.5Q255 501 308 501Q374 501 410.5 473.5Q447 446 447 395Q447 347 412.5 318Q378 289 299 264L194 231Q194 150 223.5 109Q253 68 317 68Q348 68 375 78Q402 88 430 111L440 91Q418 63 393 40Q368 17 340 -2Q290 -35 270.5 -67.5Q251 -100 251 -137Q251 -160 261 -172.5Q271 -185 289 -185Q302 -185 315.5 -180.5Q329 -176 342 -168L335 -197Q310 -222 282.5 -233.5Q255 -245 225 -245ZM196 289 250 296Q296 302 320 325Q344 348 344 391Q344 421 332.5 440.5Q321 460 298 460Q264 460 234.5 416.5Q205 373 196 289Z" glyph-name="eogonek" horiz-adv-x="446" unicode="&#281;" /><glyph d="M337 -248Q295 -248 272 -223.5Q249 -199 249 -159Q249 -117 283 -75Q317 -33 386 -2Q372 -1 357 -0.5Q342 0 331 0H23L26 28L64 36Q89 40 100.5 53Q112 66 114 97L141 393Q142 409 143 420.5Q144 432 144 436Q144 458 135.5 468Q127 478 104 482L66 490L68 518H504Q517 518 522.5 512Q528 506 528 496Q528 493 527.5 487Q527 481 526 471L516 355H492L487 387Q480 440 455.5 459Q431 478 378 478H285L268 295H398L417 370H442L425 175H400L395 251H265L247 50Q263 47 286 44Q309 41 330 41Q389 41 423.5 68.5Q458 96 480 153L488 176L513 172L481 18Q478 5 472 -0.5Q466 -6 452 -6Q449 -6 444.5 -6Q440 -6 434 -5Q390 -46 374 -78Q358 -110 358 -141Q358 -163 370 -176Q382 -189 403 -189Q413 -189 424.5 -185Q436 -181 450 -172L444 -199Q422 -224 395 -236Q368 -248 337 -248Z" glyph-name="eogonek.smcp" horiz-adv-x="533" /><glyph d="M99 408 104 470H452L447 408ZM81 208 86 270H434L429 208Z" glyph-name="equal" horiz-adv-x="475" unicode="=" /><glyph d="M364 -12Q299 -12 241.5 9.5Q184 31 141.5 70.5Q99 110 74 167.5Q49 225 49 297Q49 374 79 441Q109 508 159 556.5Q209 605 274.5 633Q340 661 411 661Q478 661 534 637.5Q590 614 630.5 573Q671 532 693.5 475Q716 418 716 352Q716 344 716 335.5Q716 327 715 319H167Q165 319 163.5 318Q162 317 162 315Q162 311 159.5 281Q157 251 154 216.5Q151 182 148.5 153.5Q146 125 146 125Q146 121 147.5 116.5Q149 112 151 109Q186 66 246.5 42Q307 18 367 18Q442 18 510.5 49Q579 80 622 131H660Q608 66 533 27Q458 -12 364 -12ZM169 348H600Q602 348 603 350Q604 352 604 353Q604 357 606.5 386Q609 415 612 447.5Q615 480 617.5 507Q620 534 620 534Q620 538 618.5 543Q617 548 614 552Q580 596 524.5 617Q469 638 411 638Q351 638 292.5 616.5Q234 595 191 549Q186 544 183.5 538.5Q181 533 180 526Q180 520 177.5 492.5Q175 465 172.5 434.5Q170 404 168 379Q166 354 166 353Q166 351 167 349.5Q168 348 169 348Z" glyph-name="estimated" horiz-adv-x="706" unicode="&#8494;" /><glyph d="M270 -14Q174 -14 117 49Q60 112 60 217Q60 281 80 333Q100 385 134 421Q168 457 213 477Q258 497 308 497Q325 497 344.5 493Q364 489 376 484Q372 512 359.5 543.5Q347 575 330 606L232 567L225 604L309 638Q291 664 270 688.5Q249 713 225 732L265 736Q291 720 316 701.5Q341 683 364 661L466 702L475 662L394 630Q455 561 490.5 469Q526 377 526 270Q526 207 506 154Q486 101 451.5 64Q417 27 370 6.5Q323 -14 270 -14ZM285 30Q327 30 353 97.5Q379 165 379 280Q379 361 357.5 408Q336 455 301 455Q259 455 233 388.5Q207 322 207 207Q207 126 229 78Q251 30 285 30Z" glyph-name="eth" horiz-adv-x="544" unicode="&#240;" /><glyph d="M23 0 26 28 64 36Q89 40 100.5 53Q112 66 114 97L128 247H75L80 287H132L141 393Q142 409 143 420.5Q144 432 144 436Q144 458 135.5 468Q127 478 104 482L66 490L68 518H241Q319 518 382 501Q445 484 489 452Q533 420 557 373Q581 326 581 266Q581 200 557.5 149.5Q534 99 491 66Q448 33 386 16.5Q324 0 249 0ZM288 42Q362 42 396 98Q430 154 430 262Q430 359 389 411Q348 463 287 473L270 287H352L348 247H267L249 49Q256 46 267 44Q278 42 288 42Z" glyph-name="eth.smcp" horiz-adv-x="597" /><glyph d="M154 202 127 556Q126 575 124.5 595.5Q123 616 123 623Q123 639 146.5 646.5Q170 654 208 654Q245 654 266 639Q287 624 287 590Q287 580 284.5 565.5Q282 551 279 539L193 202ZM155 -9Q125 -9 107.5 8.5Q90 26 90 57Q90 95 112.5 119Q135 143 169 143Q199 143 216 126Q233 109 233 78Q233 40 211 15.5Q189 -9 155 -9Z" glyph-name="exclam" horiz-adv-x="313" unicode="!" /><glyph d="M142 178 110 444Q108 461 107.5 477Q107 493 107 498Q107 511 131 520.5Q155 530 189 530Q224 530 242.5 514.5Q261 499 261 471Q261 461 258.5 448.5Q256 436 254 427L177 178ZM142 -9Q114 -9 98 7.5Q82 24 82 53Q82 89 103 112Q124 135 156 135Q184 135 200.5 118.5Q217 102 217 74Q217 38 196 14.5Q175 -9 142 -9Z" glyph-name="exclam.smcp" horiz-adv-x="279" /><glyph d="M201 496Q231 496 248.5 478.5Q266 461 266 430Q266 392 243.5 368Q221 344 187 344Q157 344 140 361Q123 378 123 409Q123 447 145 471.5Q167 496 201 496ZM202 285 229 -69Q230 -88 231.5 -108.5Q233 -129 233 -136Q233 -152 209.5 -159.5Q186 -167 148 -167Q111 -167 90 -152Q69 -137 69 -103Q69 -93 71.5 -78.5Q74 -64 77 -52L163 285Z" glyph-name="exclamdown" horiz-adv-x="314" unicode="&#161;" /><glyph d="M215 656Q245 656 262.5 638.5Q280 621 280 590Q280 552 257.5 528Q235 504 201 504Q171 504 154 521Q137 538 137 569Q137 607 159 631.5Q181 656 215 656ZM216 445 243 91Q244 72 245.5 51.5Q247 31 247 24Q247 8 223.5 0.5Q200 -7 162 -7Q125 -7 104 8Q83 23 83 57Q83 67 85.5 81.5Q88 96 91 108L177 445Z" glyph-name="exclamdown.case" horiz-adv-x="314" /><glyph d="M183 526Q211 526 227 509.5Q243 493 243 464Q243 428 222 405Q201 382 169 382Q141 382 124.5 398.5Q108 415 108 443Q108 479 129 502.5Q150 526 183 526ZM183 339 215 73Q217 56 217.5 40Q218 24 218 19Q218 6 194 -3.5Q170 -13 136 -13Q101 -13 82.5 2.5Q64 18 64 46Q64 56 66.5 68.5Q69 81 71 90L148 339Z" glyph-name="exclamdown.smcp" horiz-adv-x="279" /><glyph d="M38 -246Q-2 -246 -21.5 -229.5Q-41 -213 -41 -185Q-41 -169 -32 -159Q-23 -149 -10 -149Q-8 -149 -6 -150.5Q-4 -152 5 -156L76 -194Q90 -163 96 -125Q102 -87 105 -24L122 428H72L73 469L99 477Q113 481 119.5 487.5Q126 494 127 507L130 530Q135 575 153 614.5Q171 654 198.5 682.5Q226 711 260.5 727.5Q295 744 333 744Q379 744 407.5 725.5Q436 707 436 676Q436 656 423 643.5Q410 631 391 631Q384 631 380.5 632.5Q377 634 373 638L304 705Q284 683 275 650.5Q266 618 263 558L259 481L375 486L368 453Q365 437 358 432.5Q351 428 334 428H259L246 96Q243 18 224 -46Q205 -110 176 -154Q147 -198 110.5 -222Q74 -246 38 -246Z" glyph-name="f" horiz-adv-x="338" unicode="f" /><glyph d="M23 0 26 28 64 36Q89 40 100.5 53Q112 66 114 97L141 393Q142 409 143 420.5Q144 432 144 436Q144 458 135.5 468Q127 478 104 482L66 490L68 518H497Q509 518 515.5 512.5Q522 507 522 497Q522 496 521.5 488Q521 480 520 465L509 355H485L482 378Q474 431 449.5 452Q425 473 371 473H287L271 288H389L409 363H436L417 169H391L386 244H266L249 42L358 30L356 0Z" glyph-name="f.smcp" horiz-adv-x="508" /><glyph d="M40 -246Q-5 -246 -26 -228.5Q-47 -211 -47 -184Q-47 -167 -37.5 -155.5Q-28 -144 -12 -144Q-6 -144 -3 -145.5Q0 -147 5 -150L72 -194Q87 -166 95 -129.5Q103 -93 106 -24L121 428H77V469L102 477Q116 482 121 488Q126 494 127 507L128 524Q131 566 148.5 605Q166 644 194 673Q222 702 259 719.5Q296 737 339 737Q362 737 384.5 732Q407 727 423 718Q455 727 495.5 733Q536 739 574 739H599Q591 699 583 641Q575 583 570 531L555 391Q582 442 618 472Q654 502 694 502Q766 502 805 443.5Q844 385 844 292Q844 227 827 171.5Q810 116 777.5 75.5Q745 35 696 12Q647 -11 584 -11Q521 -11 468.5 3.5Q416 18 382 47Q385 65 389 89Q393 113 396 137.5Q399 162 402 186.5Q405 211 407 230L437 554Q438 566 438.5 576.5Q439 587 439 593Q439 608 434.5 615.5Q430 623 418 630L306 699Q287 678 276 646Q265 614 262 551L259 481L375 486L368 453Q364 437 357 432.5Q350 428 334 428H258L239 79Q235 10 217 -49.5Q199 -109 171.5 -152.5Q144 -196 110 -221Q76 -246 40 -246ZM591 31Q637 31 667.5 98.5Q698 166 698 275Q698 338 682 375Q666 412 638 412Q607 412 577 346.5Q547 281 537 158L530 72Q539 55 553.5 43Q568 31 591 31Z" glyph-name="f_b" horiz-adv-x="863" /><glyph d="M39 -246Q-4 -246 -25.5 -228Q-47 -210 -47 -183Q-47 -167 -37 -155Q-27 -143 -11 -143Q-9 -143 -6 -144.5Q-3 -146 4 -150L75 -194Q88 -164 95 -126.5Q102 -89 105 -24L122 428H77L78 469L102 477Q117 482 121.5 488Q126 494 127 507L130 525Q135 567 152 606Q169 645 195.5 674.5Q222 704 257 722Q292 740 333 740Q379 740 407.5 721.5Q436 703 436 672Q436 651 423 638.5Q410 626 391 626Q384 626 380.5 627.5Q377 629 373 634L304 701Q285 680 276 648.5Q267 617 264 554L260 481H432L437 530Q442 572 459 611Q476 650 503 679Q530 708 565 726Q600 744 641 744Q687 744 715.5 725.5Q744 707 744 676Q744 656 730.5 643.5Q717 631 698 631Q691 631 688 632.5Q685 634 681 638L612 705Q593 684 584 652.5Q575 621 571 558L567 481L683 486L676 453Q672 437 665 432.5Q658 428 642 428H566L547 108Q543 39 525 -21Q507 -81 479.5 -124.5Q452 -168 418 -193Q384 -218 348 -218Q305 -218 284 -200Q263 -182 263 -155Q263 -139 272.5 -126.5Q282 -114 298 -114Q300 -114 303 -115.5Q306 -117 313 -122L384 -165Q397 -135 404 -97.5Q411 -60 414 5L429 428H259L238 79Q234 10 216 -49.5Q198 -109 170.5 -152.5Q143 -196 109 -221Q75 -246 39 -246Z" glyph-name="f_f" horiz-adv-x="642" unicode="&#64256;" /><glyph d="M39 -246Q-4 -246 -25.5 -228Q-47 -210 -47 -183Q-47 -167 -37 -155Q-27 -143 -11 -143Q-9 -143 -6 -144.5Q-3 -146 4 -150L75 -194Q88 -164 95 -126.5Q102 -89 105 -24L122 428H77L78 469L102 477Q117 482 121.5 488Q126 494 127 507L130 525Q135 567 152 606Q169 645 195.5 674.5Q222 704 257 722Q292 740 333 740Q379 740 407.5 721.5Q436 703 436 672Q436 651 423 638.5Q410 626 391 626Q384 626 380.5 627.5Q377 629 373 634L304 701Q285 680 276 648.5Q267 617 264 554L260 481H432L437 530Q441 572 460 611Q479 650 507.5 679.5Q536 709 574 726.5Q612 744 655 744Q677 744 697.5 739Q718 734 735 725Q767 732 807.5 735.5Q848 739 887 739H911Q903 699 895 641Q887 583 882 531L868 391Q894 442 930 472Q966 502 1006 502Q1078 502 1117 443.5Q1156 385 1156 292Q1156 227 1139 171.5Q1122 116 1089.5 75.5Q1057 35 1008 12Q959 -11 896 -11Q833 -11 780.5 3.5Q728 18 694 47Q697 65 701 89Q705 113 708 137.5Q711 162 714 186.5Q717 211 719 230L748 554Q749 566 750 575.5Q751 585 751 591Q751 605 746 614Q741 623 730 630L620 699Q601 678 587.5 646Q574 614 570 551L567 481L683 486L676 453Q672 437 665 432.5Q658 428 642 428H566L551 200Q546 131 527.5 71.5Q509 12 482 -31.5Q455 -75 421 -100Q387 -125 351 -125Q308 -125 287 -107Q266 -89 266 -62Q266 -46 275.5 -34Q285 -22 301 -22Q303 -22 306 -23.5Q309 -25 316 -29L387 -72Q401 -43 408 -5.5Q415 32 417 98L429 428H259L238 79Q234 10 216 -49.5Q198 -109 170.5 -152.5Q143 -196 109 -221Q75 -246 39 -246ZM903 31Q949 31 979.5 98.5Q1010 166 1010 275Q1010 338 994.5 375Q979 412 951 412Q920 412 890 346.5Q860 281 849 158L842 72Q851 55 866 43Q881 31 903 31Z" glyph-name="f_f_b" horiz-adv-x="1175" /><glyph d="M39 -246Q-4 -246 -25.5 -228Q-47 -210 -47 -183Q-47 -167 -37 -155Q-27 -143 -11 -143Q-9 -143 -6 -144.5Q-3 -146 4 -150L75 -194Q88 -164 95 -126.5Q102 -89 105 -24L122 428H77L78 469L102 477Q117 482 121.5 488Q126 494 127 507L130 525Q135 567 152 606Q169 645 195.5 674.5Q222 704 257 722Q292 740 333 740Q379 740 407.5 721.5Q436 703 436 672Q436 651 423 638.5Q410 626 391 626Q384 626 380.5 627.5Q377 629 373 634L304 701Q285 680 276 648.5Q267 617 264 554L260 481H432L437 530Q441 572 460 611Q479 650 507.5 679.5Q536 709 574 726.5Q612 744 655 744Q677 744 697.5 739Q718 734 735 725Q767 732 807.5 735.5Q848 739 887 739H911Q904 704 896.5 648Q889 592 882 531L867 390Q903 442 944.5 472Q986 502 1030 502Q1083 502 1112.5 470Q1142 438 1142 378Q1142 368 1139.5 332.5Q1137 297 1133 266L1118 146Q1114 115 1112 97Q1110 79 1110 72Q1110 53 1124.5 44.5Q1139 36 1173 35L1171 8Q1144 1 1121.5 -3.5Q1099 -8 1081 -8Q1029 -8 1002 13.5Q975 35 975 80Q975 90 977.5 115Q980 140 982 157L1000 283Q1004 311 1005.5 335Q1007 359 1007 371Q1007 397 998 410.5Q989 424 970 424Q927 424 891.5 348Q856 272 844 106L840 35Q839 16 829.5 8Q820 0 805 0H690Q697 40 704.5 90.5Q712 141 716 187L748 554Q749 566 750 575.5Q751 585 751 591Q751 605 746 614Q741 623 730 630L620 699Q601 678 587.5 646Q574 614 570 551L567 481L683 486L676 453Q672 437 665 432.5Q658 428 642 428H566L551 200Q546 131 527.5 71.5Q509 12 482 -31.5Q455 -75 421 -100Q387 -125 351 -125Q308 -125 287 -107Q266 -89 266 -62Q266 -46 275.5 -34Q285 -22 301 -22Q303 -22 306 -23.5Q309 -25 316 -29L387 -72Q401 -43 408 -5.5Q415 32 417 98L429 428H259L238 79Q234 10 216 -49.5Q198 -109 170.5 -152.5Q143 -196 109 -221Q75 -246 39 -246Z" glyph-name="f_f_h" horiz-adv-x="1182" /><glyph d="M39 -246Q-4 -246 -25.5 -228Q-47 -210 -47 -183Q-47 -167 -37 -155Q-27 -143 -11 -143Q-9 -143 -6 -144.5Q-3 -146 4 -150L75 -194Q88 -164 95 -126.5Q102 -89 105 -24L122 428H77L78 469L102 477Q117 482 121.5 488Q126 494 127 507L130 525Q135 567 152 606Q169 645 195.5 674.5Q222 704 257 722Q292 740 333 740Q379 740 407.5 721.5Q436 703 436 672Q436 651 423 638.5Q410 626 391 626Q384 626 380.5 627.5Q377 629 373 634L304 701Q285 680 276 648.5Q267 617 264 554L260 481H432L438 530Q442 572 460.5 611Q479 650 507.5 679.5Q536 709 573.5 726.5Q611 744 652 744Q688 744 724.5 737Q761 730 789.5 716.5Q818 703 836 682.5Q854 662 854 636Q854 604 837 589Q820 574 795 574Q780 574 774 576.5Q768 579 755 590L628 697Q602 681 588 647.5Q574 614 571 551L567 481Q589 482 623 483Q657 484 689 485Q721 486 746 486.5Q771 487 776 487Q813 488 833.5 470.5Q854 453 854 413Q854 408 852.5 386.5Q851 365 849 341L830 146Q827 113 825.5 97.5Q824 82 824 76Q824 57 837 48.5Q850 40 889 39L887 11Q864 4 836.5 -2.5Q809 -9 787 -9Q738 -9 713 14.5Q688 38 688 85Q688 92 689.5 111Q691 130 695 167L711 333Q712 349 713.5 367.5Q715 386 715 392Q715 408 709 417Q703 426 690 428H566L551 200Q546 131 527.5 71.5Q509 12 482 -31.5Q455 -75 421 -100Q387 -125 351 -125Q308 -125 287 -107Q266 -89 266 -62Q266 -46 275.5 -34Q285 -22 301 -22Q303 -22 306 -23.5Q309 -25 316 -29L387 -72Q401 -43 408 -5.5Q415 32 417 98L429 428H259L238 79Q234 10 216 -49.5Q198 -109 170.5 -152.5Q143 -196 109 -221Q75 -246 39 -246Z" glyph-name="f_f_i" horiz-adv-x="900" unicode="&#64259;" /><glyph d="M614 -246Q572 -246 550 -226.5Q528 -207 528 -182Q528 -163 537.5 -152Q547 -141 560 -141Q562 -141 565 -142Q568 -143 573 -146L653 -191Q666 -163 672 -130Q678 -97 682 -48L711 333Q712 349 713.5 367.5Q715 386 715 392Q715 408 709 417Q703 426 690 428H566L551 200Q546 131 527.5 71.5Q509 12 482 -31.5Q455 -75 421 -100Q387 -125 351 -125Q308 -125 287 -107Q266 -89 266 -62Q266 -46 275.5 -34Q285 -22 301 -22Q303 -22 306 -23.5Q309 -25 316 -29L387 -72Q401 -43 408 -5.5Q415 32 417 98L429 428H259L238 79Q234 10 216 -49.5Q198 -109 170.5 -152.5Q143 -196 109 -221Q75 -246 39 -246Q-4 -246 -25.5 -228Q-47 -210 -47 -183Q-47 -167 -37 -155Q-27 -143 -11 -143Q-9 -143 -6 -144.5Q-3 -146 4 -150L75 -194Q88 -164 95 -126.5Q102 -89 105 -24L122 428H77L78 469L102 477Q117 482 121.5 488Q126 494 127 507L130 525Q135 567 152 606Q169 645 195.5 674.5Q222 704 257 722Q292 740 333 740Q379 740 407.5 721.5Q436 703 436 672Q436 651 423 638.5Q410 626 391 626Q384 626 380.5 627.5Q377 629 373 634L304 701Q285 680 276 648.5Q267 617 264 554L260 481H432L438 530Q443 572 461.5 611Q480 650 508.5 679.5Q537 709 574 726.5Q611 744 652 744Q688 744 724.5 737Q761 730 789.5 716.5Q818 703 836 682.5Q854 662 854 636Q854 604 837 589Q820 574 795 574Q780 574 774 576.5Q768 579 755 590L628 697Q602 681 588 647.5Q574 614 571 551L567 481Q589 482 623 483Q657 484 689 485Q721 486 746 486.5Q771 487 776 487Q813 488 833.5 470.5Q854 453 854 413Q854 408 853 386.5Q852 365 850 341L825 84Q817 5 797 -56.5Q777 -118 748.5 -160Q720 -202 685.5 -224Q651 -246 614 -246Z" glyph-name="f_f_j" horiz-adv-x="889" /><glyph d="M39 -246Q-4 -246 -25.5 -228Q-47 -210 -47 -183Q-47 -167 -37 -155Q-27 -143 -11 -143Q-9 -143 -6 -144.5Q-3 -146 4 -150L75 -194Q88 -164 95 -126.5Q102 -89 105 -24L122 428H77L78 469L102 477Q117 482 121.5 488Q126 494 127 507L130 525Q135 567 152 606Q169 645 195.5 674.5Q222 704 257 722Q292 740 333 740Q379 740 407.5 721.5Q436 703 436 672Q436 651 423 638.5Q410 626 391 626Q384 626 380.5 627.5Q377 629 373 634L304 701Q285 680 276 648.5Q267 617 264 554L260 481H432L437 530Q441 572 460 611Q479 650 507.5 679.5Q536 709 574 726.5Q612 744 655 744Q677 744 697.5 739Q718 734 735 725Q767 732 807.5 735.5Q848 739 887 739H911Q904 700 896 644.5Q888 589 884 531L863 284Q920 304 962.5 329.5Q1005 355 1033 393L1015 464Q1014 471 1013 475Q1012 479 1012 480Q1012 487 1024 492.5Q1036 498 1052 498Q1081 498 1097.5 481Q1114 464 1114 435Q1114 401 1087 370Q1060 339 997 302Q1004 284 1019.5 252Q1035 220 1051 186Q1067 152 1082.5 122Q1098 92 1105 78Q1116 56 1124.5 47Q1133 38 1148 37Q1151 37 1153.5 36.5Q1156 36 1162 36L1160 8Q1146 2 1118 -5Q1090 -12 1065 -12Q1020 -12 998 6Q976 24 957 68Q953 78 943 102.5Q933 127 921.5 154.5Q910 182 900 207.5Q890 233 886 245L858 228L842 41Q841 21 830 10.5Q819 0 802 0H691Q698 34 704.5 83Q711 132 715 185L748 554Q749 566 750 575.5Q751 585 751 591Q751 605 746 614Q741 623 730 630L620 699Q601 678 587.5 646Q574 614 570 551L567 481L683 486L676 453Q672 437 665 432.5Q658 428 642 428H566L551 200Q546 131 527.5 71.5Q509 12 482 -31.5Q455 -75 421 -100Q387 -125 351 -125Q308 -125 287 -107Q266 -89 266 -62Q266 -46 275.5 -34Q285 -22 301 -22Q303 -22 306 -23.5Q309 -25 316 -29L387 -72Q401 -43 408 -5.5Q415 32 417 98L429 428H259L238 79Q234 10 216 -49.5Q198 -109 170.5 -152.5Q143 -196 109 -221Q75 -246 39 -246Z" glyph-name="f_f_k" horiz-adv-x="1139" /><glyph d="M39 -246Q-4 -246 -25.5 -228Q-47 -210 -47 -183Q-47 -167 -37 -155Q-27 -143 -11 -143Q-9 -143 -6 -144.5Q-3 -146 4 -150L75 -194Q88 -164 95 -126.5Q102 -89 105 -24L122 428H77L78 469L102 477Q117 482 121.5 488Q126 494 127 507L130 525Q135 567 152 606Q169 645 195.5 674.5Q222 704 257 722Q292 740 333 740Q379 740 407.5 721.5Q436 703 436 672Q436 651 423 638.5Q410 626 391 626Q384 626 380.5 627.5Q377 629 373 634L304 701Q285 680 276 648.5Q267 617 264 554L260 481H432L437 530Q441 572 460 611Q479 650 507.5 679.5Q536 709 574 726.5Q612 744 655 744Q677 744 697.5 739Q718 734 735 725Q767 732 807.5 735.5Q848 739 887 739H911Q902 696 894 638.5Q886 581 882 531L848 146Q845 113 844 97.5Q843 82 843 76Q843 57 855.5 48.5Q868 40 907 39L905 11Q881 4 853 -2.5Q825 -9 806 -9Q756 -9 732.5 12.5Q709 34 709 82Q709 89 710 109.5Q711 130 714 167L748 554Q749 566 750 575.5Q751 585 751 591Q751 605 746 614Q741 623 730 630L620 699Q601 678 587.5 646Q574 614 570 551L567 481L683 486L676 453Q672 437 665 432.5Q658 428 642 428H566L551 200Q546 131 527.5 71.5Q509 12 482 -31.5Q455 -75 421 -100Q387 -125 351 -125Q308 -125 287 -107Q266 -89 266 -62Q266 -46 275.5 -34Q285 -22 301 -22Q303 -22 306 -23.5Q309 -25 316 -29L387 -72Q401 -43 408 -5.5Q415 32 417 98L429 428H259L238 79Q234 10 216 -49.5Q198 -109 170.5 -152.5Q143 -196 109 -221Q75 -246 39 -246Z" glyph-name="f_f_l" horiz-adv-x="917" unicode="&#64260;" /><glyph d="M40 -246Q-5 -246 -26 -228.5Q-47 -211 -47 -184Q-47 -167 -37.5 -155.5Q-28 -144 -12 -144Q-6 -144 -3 -145.5Q0 -147 5 -150L72 -194Q87 -166 95 -129.5Q103 -93 106 -24L121 428H77V469L102 477Q116 482 121 488Q126 494 127 507L128 524Q131 566 148.5 605Q166 644 194 673Q222 702 259 719.5Q296 737 339 737Q362 737 384.5 732Q407 727 423 718Q455 727 496 733Q537 739 575 739H600Q593 702 585.5 647Q578 592 571 531L556 390Q591 442 633 472Q675 502 718 502Q772 502 801 470Q830 438 830 378Q830 368 828 332.5Q826 297 822 266L806 146Q802 115 800 97Q798 79 798 72Q798 53 812.5 44.5Q827 36 861 35L859 8Q833 1 810 -3.5Q787 -8 769 -8Q718 -8 690.5 13.5Q663 35 663 80Q663 90 665.5 115Q668 140 671 157L688 283Q692 311 693.5 335Q695 359 695 371Q695 397 686.5 410.5Q678 424 658 424Q615 424 579.5 348Q544 272 533 106L528 35Q527 16 517.5 8Q508 0 493 0H379Q386 40 393.5 90.5Q401 141 405 187L437 554Q438 566 438.5 575.5Q439 585 439 591Q439 605 434.5 614Q430 623 418 630L306 699Q287 678 276 646Q265 614 262 551L259 481L375 486L368 453Q364 437 357 432.5Q350 428 334 428H258L239 79Q235 10 217 -49.5Q199 -109 171.5 -152.5Q144 -196 110 -221Q76 -246 40 -246Z" glyph-name="f_h" horiz-adv-x="870" /><glyph d="M319 -246Q276 -246 254.5 -226.5Q233 -207 233 -182Q233 -163 242 -152Q251 -141 264 -141Q267 -141 269.5 -142Q272 -143 277 -146L357 -191Q370 -163 376 -130Q382 -97 386 -48L414 333Q415 349 416.5 367.5Q418 386 418 392Q418 408 412 417Q406 426 393 428H261L243 156Q239 87 221.5 25.5Q204 -36 176 -81.5Q148 -127 110.5 -154Q73 -181 29 -181Q-18 -181 -39.5 -162Q-61 -143 -61 -114Q-61 -95 -49.5 -83.5Q-38 -72 -22 -72Q-16 -72 -13 -73.5Q-10 -75 -6 -79L61 -136Q80 -108 90 -67.5Q100 -27 104 42L124 428H75L76 469L105 477Q119 481 124.5 487.5Q130 494 131 507L132 524Q136 566 154 605Q172 644 200.5 673Q229 702 266.5 719.5Q304 737 347 737Q375 737 409.5 733.5Q444 730 474.5 720Q505 710 526 693Q547 676 550 649Q553 617 537.5 595.5Q522 574 491 574Q476 574 470 576.5Q464 579 451 590L324 697Q299 681 285 647.5Q271 614 267 551L262 481Q280 482 314.5 483Q349 484 384 485Q419 486 447 486.5Q475 487 479 487Q516 488 536.5 470.5Q557 453 557 413Q557 408 555.5 386.5Q554 365 552 341L530 84Q523 5 502.5 -56.5Q482 -118 453.5 -160Q425 -202 390 -224Q355 -246 319 -246Z" glyph-name="f_j" horiz-adv-x="592" /><glyph d="M40 -246Q-5 -246 -26 -228.5Q-47 -211 -47 -184Q-47 -167 -37.5 -155.5Q-28 -144 -12 -144Q-6 -144 -3 -145.5Q0 -147 5 -150L72 -194Q87 -166 95 -129.5Q103 -93 106 -24L121 428H77V469L102 477Q116 482 121 488Q126 494 127 507L128 524Q131 566 148.5 605Q166 644 194 673Q222 702 259 719.5Q296 737 339 737Q362 737 384.5 732Q407 727 423 718Q455 726 495.5 732.5Q536 739 574 739H598Q591 698 583 643.5Q575 589 571 531L550 284Q607 304 649.5 329.5Q692 355 721 393L703 464Q701 471 700 475Q699 479 699 480Q699 487 711 492.5Q723 498 740 498Q768 498 784.5 481Q801 464 801 435Q801 401 774 370Q747 339 684 302Q691 284 706.5 252Q722 220 738.5 186Q755 152 770 122Q785 92 792 78Q803 56 811.5 47Q820 38 835 37Q838 37 840.5 36.5Q843 36 849 36L847 8Q833 2 805 -5Q777 -12 752 -12Q707 -12 685 6Q663 24 644 68Q640 78 630 102.5Q620 127 608.5 154.5Q597 182 587 207.5Q577 233 573 245L545 228L529 35Q528 16 518.5 8Q509 0 494 0H376Q383 34 390.5 83Q398 132 403 185L437 554Q438 566 438.5 575.5Q439 585 439 591Q439 605 434.5 614Q430 623 418 630L306 699Q287 678 276 646Q265 614 262 551L259 481L375 486L368 453Q364 437 357 432.5Q350 428 334 428H258L239 79Q235 10 217 -49.5Q199 -109 171.5 -152.5Q144 -196 110 -221Q76 -246 40 -246Z" glyph-name="f_k" horiz-adv-x="826" /><glyph d="M34 -246Q-13 -246 -34 -226Q-55 -206 -55 -179Q-55 -162 -44.5 -151Q-34 -140 -18 -140Q-12 -140 -9 -141Q-6 -142 -1 -146L66 -202Q83 -174 91.5 -133.5Q100 -93 103 -24L123 428H74V469L103 477Q118 481 123 487.5Q128 494 129 507L130 524Q134 566 151.5 605Q169 644 197 673Q225 702 263 719.5Q301 737 344 737Q372 737 406.5 733.5Q441 730 471.5 720Q502 710 523 693Q544 676 547 649Q550 617 534.5 595.5Q519 574 488 574Q474 574 468 576.5Q462 579 449 590L321 697Q296 681 282 647.5Q268 614 264 551L261 481Q283 482 318 483Q353 484 386.5 485Q420 486 446 486.5Q472 487 477 487Q514 488 534 470.5Q554 453 554 413Q554 408 553 386.5Q552 365 550 341L530 146Q527 113 526 97.5Q525 82 525 76Q525 57 537.5 48.5Q550 40 589 39L587 11Q565 4 537 -2.5Q509 -9 488 -9Q438 -9 413.5 14.5Q389 38 389 85Q389 92 390.5 111Q392 130 396 167L412 333Q413 349 414.5 367.5Q416 386 416 392Q416 408 409.5 417Q403 426 390 428H260L241 79Q237 10 219.5 -49.5Q202 -109 175 -152.5Q148 -196 111.5 -221Q75 -246 34 -246Z" glyph-name="fi" horiz-adv-x="600" unicode="&#64257;" /><glyph d="M23 0 26 28 64 36Q89 40 100.5 53Q112 66 114 97L141 393Q142 409 143 420.5Q144 432 144 436Q144 458 135.5 468Q127 478 104 482L66 490L68 518H497Q509 518 515.5 512.5Q522 507 522 497Q522 496 521.5 488Q521 480 520 465L509 355H485L482 378Q474 431 449.5 452Q425 473 371 473H287L271 288H389L409 363H436L417 169H391L386 244H266L249 42L358 30L356 0ZM531 0 534 28 572 36Q597 40 608.5 53Q620 66 622 97L649 393Q650 409 651 420.5Q652 432 652 436Q652 458 643 468Q634 478 611 482L574 490L576 518H882L880 490L842 482Q816 478 804.5 465Q793 452 791 421L764 125Q763 109 762 97.5Q761 86 761 82Q761 60 770 50Q779 40 802 36L840 28L837 0Z" glyph-name="fi.smcp" horiz-adv-x="859" /><glyph d="M198 -14Q123 -14 79 19.5Q35 53 35 109Q35 135 49 150Q63 165 87 165Q110 165 116 159Q122 153 127 130L148 40Q157 35 166.5 32Q176 29 188 29Q236 29 263.5 59Q291 89 291 143Q291 209 240 248.5Q189 288 102 293L159 646H365Q390 646 403.5 651Q417 656 428 673L434 682L461 680L438 562Q434 540 421.5 531Q409 522 388 522H189L168 399Q286 392 359 339Q432 286 432 192Q432 143 414.5 105Q397 67 366 40.5Q335 14 291.5 0Q248 -14 198 -14Z" glyph-name="five" horiz-adv-x="464" unicode="5" /><glyph d="M115 -14Q77 -14 50.5 6.5Q24 27 24 56Q24 72 33 82Q42 92 57 92Q70 92 73.5 89Q77 86 78 72L85 18Q90 14 97.5 12.5Q105 11 115 11Q141 11 155.5 27Q170 43 170 72Q170 109 143 129Q116 149 64 150L94 350H217Q230 350 236.5 353.5Q243 357 249 365L252 370L267 369L253 301Q251 289 244.5 283.5Q238 278 228 278H112L102 214Q176 214 213.5 184.5Q251 155 251 101Q251 51 212.5 18.5Q174 -14 115 -14Z" glyph-name="five.dnom" horiz-adv-x="268" /><glyph d="M170 -195Q95 -195 53.5 -158.5Q12 -122 12 -73Q12 -46 29.5 -30.5Q47 -15 72 -15Q91 -15 96.5 -21Q102 -27 106 -50L124 -145Q133 -149 142 -151.5Q151 -154 164 -154Q210 -154 239.5 -123.5Q269 -93 269 -32Q269 37 228 79.5Q187 122 91 137L147 482H341Q366 482 379.5 487Q393 492 403 510L408 519L435 516L411 391Q407 367 395 358Q383 349 362 349Q349 349 316.5 352Q284 355 259 355H178L156 231Q280 224 346 165Q412 106 412 14Q412 -34 394 -73Q376 -112 343.5 -139Q311 -166 266.5 -180.5Q222 -195 170 -195Z" glyph-name="five.osf" horiz-adv-x="457" /><glyph d="M186 -14Q111 -14 75.5 18Q40 50 40 87Q40 109 53 126Q66 143 90 143Q110 143 116.5 138Q123 133 127 114L145 40Q152 36 162.5 34Q173 32 183 32Q217 32 240.5 52.5Q264 73 264 115Q264 165 221.5 193.5Q179 222 104 223L147 518H331Q352 518 363.5 521.5Q375 525 385 540L391 549L419 547L398 434Q395 417 384 409Q373 401 354 401H181L167 319Q274 319 338 274.5Q402 230 402 151Q402 71 344.5 28.5Q287 -14 186 -14Z" glyph-name="five.smcp" horiz-adv-x="441" /><glyph d="M148 368Q110 368 83.5 388.5Q57 409 57 438Q57 454 66 464Q75 474 90 474Q103 474 106.5 471Q110 468 111 454L118 400Q123 396 130.5 394.5Q138 393 148 393Q174 393 188.5 409Q203 425 203 454Q203 491 176 511Q149 531 97 532L127 732H250Q263 732 269.5 735.5Q276 739 282 747L285 752L300 751L286 683Q284 671 277.5 665.5Q271 660 261 660H145L135 596Q209 596 246.5 566.5Q284 537 284 483Q284 433 245.5 400.5Q207 368 148 368Z" glyph-name="five.sup" horiz-adv-x="268" /><glyph d="M206 -14Q131 -14 87 19.5Q43 53 43 109Q43 135 57 150Q71 165 95 165Q118 165 124 159Q130 153 135 130L156 40Q165 35 174.5 32Q184 29 196 29Q244 29 271.5 59Q299 89 299 143Q299 209 248 248.5Q197 288 110 293L167 646H373Q398 646 411.5 651Q425 656 436 673L442 682L469 680L446 562Q442 540 429.5 531Q417 522 396 522H197L176 399Q294 392 367 339Q440 286 440 192Q440 143 422.5 105Q405 67 374 40.5Q343 14 299.5 0Q256 -14 206 -14Z" glyph-name="five.tf" horiz-adv-x="475" /><glyph d="M184 -195Q109 -195 67.5 -158.5Q26 -122 26 -73Q26 -46 43.5 -30.5Q61 -15 86 -15Q105 -15 110.5 -21Q116 -27 120 -50L138 -145Q147 -149 156 -151.5Q165 -154 178 -154Q224 -154 253.5 -123.5Q283 -93 283 -32Q283 37 242 79.5Q201 122 105 137L161 482H355Q380 482 393.5 487Q407 492 417 510L422 519L449 516L425 391Q421 367 409 358Q397 349 376 349Q363 349 330.5 352Q298 355 273 355H192L170 231Q294 224 360 165Q426 106 426 14Q426 -34 408 -73Q390 -112 357.5 -139Q325 -166 280.5 -180.5Q236 -195 184 -195Z" glyph-name="five.tosf" horiz-adv-x="475" /><glyph d="M40 -246Q-5 -246 -26 -228.5Q-47 -211 -47 -184Q-47 -167 -37.5 -155.5Q-28 -144 -12 -144Q-6 -144 -3 -145.5Q0 -147 5 -150L72 -194Q87 -166 95 -129.5Q103 -93 106 -24L121 428H77V469L102 477Q116 482 121 488Q126 494 127 507L128 524Q131 566 148.5 605Q166 644 194 673Q222 702 259 719.5Q296 737 339 737Q362 737 384.5 732Q407 727 423 718Q455 725 495.5 728.5Q536 732 574 732H599Q590 689 582 632Q574 575 570 524L537 146Q534 113 532.5 97.5Q531 82 531 76Q531 57 544 48.5Q557 40 596 39L594 11Q569 4 541 -2.5Q513 -9 494 -9Q445 -9 421 12.5Q397 34 397 82Q397 89 398 109.5Q399 130 403 167L437 554Q438 566 438.5 575.5Q439 585 439 591Q439 605 434.5 614Q430 623 418 630L306 699Q287 678 276 646Q265 614 262 551L259 481L375 486L368 453Q364 437 357 432.5Q350 428 334 428H258L239 79Q235 10 217 -49.5Q199 -109 171.5 -152.5Q144 -196 110 -221Q76 -246 40 -246Z" glyph-name="fl" horiz-adv-x="606" unicode="&#64258;" /><glyph d="M23 0 26 28 64 36Q89 40 100.5 53Q112 66 114 97L141 393Q142 409 143 420.5Q144 432 144 436Q144 458 135.5 468Q127 478 104 482L66 490L68 518H497Q509 518 515.5 512.5Q522 507 522 497Q522 496 521.5 488Q521 480 520 465L509 355H485L482 378Q474 431 449.5 452Q425 473 371 473H287L271 288H389L409 363H436L417 169H391L386 244H266L249 42L358 30L356 0ZM936 -6Q932 -6 917 -5Q902 -4 882.5 -3Q863 -2 843 -1Q823 0 810 0H531L534 28L572 36Q597 40 608.5 53Q620 66 622 97L649 393Q650 409 651 420.5Q652 432 652 436Q652 458 643.5 468Q635 478 612 482L574 490L576 518H899L896 487L795 476L758 50Q767 48 782.5 45Q798 42 814 42Q871 42 905.5 73.5Q940 105 966 168L980 202L1004 197L968 17Q966 5 957.5 -0.5Q949 -6 936 -6Z" glyph-name="fl.smcp" horiz-adv-x="1011" /><glyph d="M156 0 159 33 260 45 271 169H45L44 204L297 615Q308 633 322 639.5Q336 646 356 647L448 652Q442 621 436 574.5Q430 528 426 481L407 257H490L472 169H400L395 113Q394 98 393 91Q392 84 392 81Q392 61 399.5 51.5Q407 42 425 39L477 29L474 0ZM132 257H278L302 535Z" glyph-name="four" horiz-adv-x="516" unicode="4" /><glyph d="M87 -6 88 13 144 19 150 86H23V106L164 333Q169 343 176.5 346.5Q184 350 195 351L249 354Q247 337 243.5 311Q240 285 238 259L227 136H275L266 86H223L221 66Q220 56 219.5 48Q219 40 219 38Q219 28 223 22.5Q227 17 236 15L258 11L257 -6ZM73 136H154L168 290Z" glyph-name="four.dnom" horiz-adv-x="285" /><glyph d="M238 -185 255 11H26L24 52L286 449Q297 467 310 474Q323 481 342 482L439 488Q433 458 426.5 412.5Q420 367 416 323L396 98H476L460 11H389L372 -175ZM113 98H263L286 362Z" glyph-name="four.osf" horiz-adv-x="492" /><glyph d="M152 0 155 29 238 39 246 129H45L44 159L265 492Q276 509 289.5 515Q303 521 321 522L422 525Q417 500 410.5 461Q404 422 401 385L384 208H459L441 129H378L376 109Q375 97 374.5 89.5Q374 82 374 79Q374 60 381.5 50Q389 40 411 36L452 28L449 0ZM137 208H253L271 411Z" glyph-name="four.smcp" horiz-adv-x="486" /><glyph d="M121 376 122 395 178 401 184 468H57V488L198 715Q203 725 210.5 728.5Q218 732 229 733L283 736Q281 719 277.5 693Q274 667 272 641L261 518H309L300 468H257L255 448Q254 438 253.5 430Q253 422 253 420Q253 410 257 404.5Q261 399 270 397L292 393L291 376ZM107 518H188L202 672Z" glyph-name="four.sup" horiz-adv-x="286" /><glyph d="M135 0 138 33 239 45 250 169H24L23 204L276 615Q287 633 301 639.5Q315 646 335 647L427 652Q421 621 415 574.5Q409 528 405 481L386 257H469L451 169H379L374 113Q373 98 372 91Q371 84 371 81Q371 61 378.5 51.5Q386 42 404 39L456 29L453 0ZM111 257H257L281 535Z" glyph-name="four.tf" horiz-adv-x="475" /><glyph d="M240 -185 257 11H28L26 52L288 449Q299 467 312 474Q325 481 344 482L441 488Q435 458 428.5 412.5Q422 367 418 323L398 98H478L462 11H391L374 -175ZM115 98H265L288 362Z" glyph-name="four.tosf" horiz-adv-x="475" /><glyph d="M36 0H-27L344 646H407Z" glyph-name="fraction" horiz-adv-x="324" unicode="&#8260;" /><glyph d="M205 -249Q129 -249 81 -217.5Q33 -186 33 -136Q33 -110 49 -95Q65 -80 91 -80Q105 -80 110 -84.5Q115 -89 120 -105L145 -196Q157 -201 170 -203.5Q183 -206 199 -206Q260 -206 292 -162.5Q324 -119 334 -19L345 94Q318 44 283.5 15Q249 -14 209 -14Q140 -14 101.5 44Q63 102 63 204Q63 267 80.5 321.5Q98 376 129.5 415.5Q161 455 206 477.5Q251 500 307 500Q364 500 424 484.5Q484 469 518 450Q508 398 501.5 343.5Q495 289 491 237L471 6Q466 -55 444 -102.5Q422 -150 387 -182.5Q352 -215 305.5 -232Q259 -249 205 -249ZM262 74Q296 74 325 143.5Q354 213 364 330L371 415Q361 434 345 445.5Q329 457 308 457Q266 457 236.5 390.5Q207 324 207 213Q207 145 220.5 109.5Q234 74 262 74Z" glyph-name="g" horiz-adv-x="541" unicode="g" /><glyph d="M210 -249Q117 -249 68.5 -215Q20 -181 20 -129Q20 -92 51.5 -65.5Q83 -39 134 -32Q109 -24 93.5 -4Q78 16 78 41Q78 75 112 105.5Q146 136 195 150Q133 159 100.5 202Q68 245 68 305Q68 346 83 382.5Q98 419 125 445.5Q152 472 191 487Q230 502 279 502Q307 502 326 497.5Q345 493 366 483L465 543Q473 548 477 549.5Q481 551 485 551Q489 551 494.5 540Q500 529 500 510Q500 481 484 467Q468 453 434 453Q424 453 411 455.5Q398 458 385 461Q419 441 439.5 401Q460 361 460 323Q460 245 406 194Q352 143 251 138Q229 137 210 123.5Q191 110 191 95Q191 82 202 74Q213 66 237 62L319 50Q392 40 426.5 11Q461 -18 461 -71Q461 -109 442 -142Q423 -175 390 -198.5Q357 -222 310.5 -235.5Q264 -249 210 -249ZM257 181Q289 181 308 224.5Q327 268 327 340Q327 391 311.5 425.5Q296 460 271 460Q240 460 221 415.5Q202 371 202 299Q202 248 217.5 214.5Q233 181 257 181ZM237 -208Q282 -208 313 -186Q344 -164 344 -127Q344 -99 321.5 -82.5Q299 -66 250 -56Q227 -52 208 -49Q189 -46 182 -46Q154 -46 140 -63Q126 -80 126 -108Q126 -149 155.5 -178.5Q185 -208 237 -208Z" glyph-name="g.alt" horiz-adv-x="493" /><glyph d="M306 -14Q191 -14 126.5 46.5Q62 107 62 232Q62 294 83 348.5Q104 403 142 443.5Q180 484 234 508Q288 532 354 532Q393 532 430 524Q467 516 491 506Q507 500 513 489.5Q519 479 519 465Q519 461 518.5 452Q518 443 517 433L509 345H482Q467 416 434.5 451Q402 486 351 486Q287 486 249.5 424.5Q212 363 212 247Q212 133 244 82.5Q276 32 334 32Q341 32 349.5 33.5Q358 35 365 37L380 198L312 208L315 238H547L544 208L529 205Q514 202 506.5 194Q499 186 497 163L487 60Q485 38 478 28Q471 18 455 13Q422 2 386 -6Q350 -14 306 -14Z" glyph-name="g.smcp" horiz-adv-x="560" /><glyph d="M317 550Q271 550 248 584Q225 618 225 687Q225 697 225 709Q225 721 226 731L248 735Q255 689 274 668.5Q293 648 327 648Q361 648 383.5 668.5Q406 689 423 735L445 731Q434 638 402.5 594Q371 550 317 550ZM205 -249Q129 -249 81 -217.5Q33 -186 33 -136Q33 -110 49 -95Q65 -80 91 -80Q105 -80 110 -84.5Q115 -89 120 -105L145 -196Q157 -201 170 -203.5Q183 -206 199 -206Q260 -206 292 -162.5Q324 -119 334 -19L345 94Q318 44 283.5 15Q249 -14 209 -14Q140 -14 101.5 44Q63 102 63 204Q63 267 80.5 321.5Q98 376 129.5 415.5Q161 455 206 477.5Q251 500 307 500Q364 500 424 484.5Q484 469 518 450Q508 398 501.5 343.5Q495 289 491 237L471 6Q466 -55 444 -102.5Q422 -150 387 -182.5Q352 -215 305.5 -232Q259 -249 205 -249ZM262 74Q296 74 325 143.5Q354 213 364 330L371 415Q361 434 345 445.5Q329 457 308 457Q266 457 236.5 390.5Q207 324 207 213Q207 145 220.5 109.5Q234 74 262 74Z" glyph-name="gbreve" horiz-adv-x="541" unicode="&#287;" /><glyph d="M278 550Q232 550 209 584Q186 618 186 687Q186 697 186 709Q186 721 187 731L209 735Q216 689 235 668.5Q254 648 288 648Q322 648 344.5 668.5Q367 689 384 735L406 731Q395 638 363.5 594Q332 550 278 550ZM210 -249Q117 -249 68.5 -215Q20 -181 20 -129Q20 -92 51.5 -65.5Q83 -39 134 -32Q109 -24 93.5 -4Q78 16 78 41Q78 75 112 105.5Q146 136 195 150Q133 159 100.5 202Q68 245 68 305Q68 346 83 382.5Q98 419 125 445.5Q152 472 191 487Q230 502 279 502Q307 502 326 497.5Q345 493 366 483L465 543Q473 548 477 549.5Q481 551 485 551Q489 551 494.5 540Q500 529 500 510Q500 481 484 467Q468 453 434 453Q424 453 411 455.5Q398 458 385 461Q419 441 439.5 401Q460 361 460 323Q460 245 406 194Q352 143 251 138Q229 137 210 123.5Q191 110 191 95Q191 82 202 74Q213 66 237 62L319 50Q392 40 426.5 11Q461 -18 461 -71Q461 -109 442 -142Q423 -175 390 -198.5Q357 -222 310.5 -235.5Q264 -249 210 -249ZM257 181Q289 181 308 224.5Q327 268 327 340Q327 391 311.5 425.5Q296 460 271 460Q240 460 221 415.5Q202 371 202 299Q202 248 217.5 214.5Q233 181 257 181ZM237 -208Q282 -208 313 -186Q344 -164 344 -127Q344 -99 321.5 -82.5Q299 -66 250 -56Q227 -52 208 -49Q189 -46 182 -46Q154 -46 140 -63Q126 -80 126 -108Q126 -149 155.5 -178.5Q185 -208 237 -208Z" glyph-name="gbreve.alt" horiz-adv-x="493" /><glyph d="M328 565Q283 565 257 596.5Q231 628 231 686Q231 695 231 702Q231 709 232 716H253Q260 682 281 666.5Q302 651 336 651Q370 651 393.5 666.5Q417 682 429 716H451Q441 637 411 601Q381 565 328 565ZM306 -14Q191 -14 126.5 46.5Q62 107 62 232Q62 294 83 348.5Q104 403 142 443.5Q180 484 234 508Q288 532 354 532Q393 532 430 524Q467 516 491 506Q507 500 513 489.5Q519 479 519 465Q519 461 518.5 452Q518 443 517 433L509 345H482Q467 416 434.5 451Q402 486 351 486Q287 486 249.5 424.5Q212 363 212 247Q212 133 244 82.5Q276 32 334 32Q341 32 349.5 33.5Q358 35 365 37L380 198L312 208L315 238H547L544 208L529 205Q514 202 506.5 194Q499 186 497 163L487 60Q485 38 478 28Q471 18 455 13Q422 2 386 -6Q350 -14 306 -14Z" glyph-name="gbreve.smcp" horiz-adv-x="560" /><glyph d="M222 537 201 541 264 697Q273 719 283.5 727Q294 735 314 735H355Q374 735 383 727Q392 719 397 697L433 541L413 537L326 639ZM205 -249Q129 -249 81 -217.5Q33 -186 33 -136Q33 -110 49 -95Q65 -80 91 -80Q105 -80 110 -84.5Q115 -89 120 -105L145 -196Q157 -201 170 -203.5Q183 -206 199 -206Q260 -206 292 -162.5Q324 -119 334 -19L345 94Q318 44 283.5 15Q249 -14 209 -14Q140 -14 101.5 44Q63 102 63 204Q63 267 80.5 321.5Q98 376 129.5 415.5Q161 455 206 477.5Q251 500 307 500Q364 500 424 484.5Q484 469 518 450Q508 398 501.5 343.5Q495 289 491 237L471 6Q466 -55 444 -102.5Q422 -150 387 -182.5Q352 -215 305.5 -232Q259 -249 205 -249ZM262 74Q296 74 325 143.5Q354 213 364 330L371 415Q361 434 345 445.5Q329 457 308 457Q266 457 236.5 390.5Q207 324 207 213Q207 145 220.5 109.5Q234 74 262 74Z" glyph-name="gcircumflex" horiz-adv-x="541" unicode="&#285;" /><glyph d="M176 537 155 541 218 697Q227 719 237.5 727Q248 735 268 735H309Q328 735 337 727Q346 719 351 697L387 541L367 537L280 639ZM210 -249Q117 -249 68.5 -215Q20 -181 20 -129Q20 -92 51.5 -65.5Q83 -39 134 -32Q109 -24 93.5 -4Q78 16 78 41Q78 75 112 105.5Q146 136 195 150Q133 159 100.5 202Q68 245 68 305Q68 346 83 382.5Q98 419 125 445.5Q152 472 191 487Q230 502 279 502Q307 502 326 497.5Q345 493 366 483L465 543Q473 548 477 549.5Q481 551 485 551Q489 551 494.5 540Q500 529 500 510Q500 481 484 467Q468 453 434 453Q424 453 411 455.5Q398 458 385 461Q419 441 439.5 401Q460 361 460 323Q460 245 406 194Q352 143 251 138Q229 137 210 123.5Q191 110 191 95Q191 82 202 74Q213 66 237 62L319 50Q392 40 426.5 11Q461 -18 461 -71Q461 -109 442 -142Q423 -175 390 -198.5Q357 -222 310.5 -235.5Q264 -249 210 -249ZM257 181Q289 181 308 224.5Q327 268 327 340Q327 391 311.5 425.5Q296 460 271 460Q240 460 221 415.5Q202 371 202 299Q202 248 217.5 214.5Q233 181 257 181ZM237 -208Q282 -208 313 -186Q344 -164 344 -127Q344 -99 321.5 -82.5Q299 -66 250 -56Q227 -52 208 -49Q189 -46 182 -46Q154 -46 140 -63Q126 -80 126 -108Q126 -149 155.5 -178.5Q185 -208 237 -208Z" glyph-name="gcircumflex.alt" horiz-adv-x="493" /><glyph d="M224 565 205 569 273 689Q286 711 296.5 718.5Q307 726 325 726H360Q378 726 387 718.5Q396 711 404 689L453 569L433 565L335 642ZM306 -14Q191 -14 126.5 46.5Q62 107 62 232Q62 294 83 348.5Q104 403 142 443.5Q180 484 234 508Q288 532 354 532Q393 532 430 524Q467 516 491 506Q507 500 513 489.5Q519 479 519 465Q519 461 518.5 452Q518 443 517 433L509 345H482Q467 416 434.5 451Q402 486 351 486Q287 486 249.5 424.5Q212 363 212 247Q212 133 244 82.5Q276 32 334 32Q341 32 349.5 33.5Q358 35 365 37L380 198L312 208L315 238H547L544 208L529 205Q514 202 506.5 194Q499 186 497 163L487 60Q485 38 478 28Q471 18 455 13Q422 2 386 -6Q350 -14 306 -14Z" glyph-name="gcircumflex.smcp" horiz-adv-x="560" /><glyph d="M318 557Q288 557 272 574.5Q256 592 256 624Q256 670 296.5 707Q337 744 416 770L421 752Q393 730 378 708Q363 686 356 665L376 597Q378 592 378.5 590Q379 588 379 587Q379 578 361 567.5Q343 557 318 557ZM205 -249Q129 -249 81 -217.5Q33 -186 33 -136Q33 -110 49 -95Q65 -80 91 -80Q105 -80 110 -84.5Q115 -89 120 -105L145 -196Q157 -201 170 -203.5Q183 -206 199 -206Q260 -206 292 -162.5Q324 -119 334 -19L345 94Q318 44 283.5 15Q249 -14 209 -14Q140 -14 101.5 44Q63 102 63 204Q63 267 80.5 321.5Q98 376 129.5 415.5Q161 455 206 477.5Q251 500 307 500Q364 500 424 484.5Q484 469 518 450Q508 398 501.5 343.5Q495 289 491 237L471 6Q466 -55 444 -102.5Q422 -150 387 -182.5Q352 -215 305.5 -232Q259 -249 205 -249ZM262 74Q296 74 325 143.5Q354 213 364 330L371 415Q361 434 345 445.5Q329 457 308 457Q266 457 236.5 390.5Q207 324 207 213Q207 145 220.5 109.5Q234 74 262 74Z" glyph-name="gcommaaccent" horiz-adv-x="541" unicode="&#291;" /><glyph d="M284 557Q254 557 238 574.5Q222 592 222 624Q222 670 262.5 707Q303 744 382 770L387 752Q359 730 344 708Q329 686 322 665L342 597Q344 592 344.5 590Q345 588 345 587Q345 578 327 567.5Q309 557 284 557ZM210 -249Q117 -249 68.5 -215Q20 -181 20 -129Q20 -92 51.5 -65.5Q83 -39 134 -32Q109 -24 93.5 -4Q78 16 78 41Q78 75 112 105.5Q146 136 195 150Q133 159 100.5 202Q68 245 68 305Q68 346 83 382.5Q98 419 125 445.5Q152 472 191 487Q230 502 279 502Q307 502 326 497.5Q345 493 366 483L465 543Q473 548 477 549.5Q481 551 485 551Q489 551 494.5 540Q500 529 500 510Q500 481 484 467Q468 453 434 453Q424 453 411 455.5Q398 458 385 461Q419 441 439.5 401Q460 361 460 323Q460 245 406 194Q352 143 251 138Q229 137 210 123.5Q191 110 191 95Q191 82 202 74Q213 66 237 62L319 50Q392 40 426.5 11Q461 -18 461 -71Q461 -109 442 -142Q423 -175 390 -198.5Q357 -222 310.5 -235.5Q264 -249 210 -249ZM257 181Q289 181 308 224.5Q327 268 327 340Q327 391 311.5 425.5Q296 460 271 460Q240 460 221 415.5Q202 371 202 299Q202 248 217.5 214.5Q233 181 257 181ZM237 -208Q282 -208 313 -186Q344 -164 344 -127Q344 -99 321.5 -82.5Q299 -66 250 -56Q227 -52 208 -49Q189 -46 182 -46Q154 -46 140 -63Q126 -80 126 -108Q126 -149 155.5 -178.5Q185 -208 237 -208Z" glyph-name="gcommaaccent.alt" horiz-adv-x="493" /><glyph d="M306 -14Q191 -14 126.5 46.5Q62 107 62 232Q62 294 83 348.5Q104 403 142 443.5Q180 484 234 508Q288 532 354 532Q393 532 430 524Q467 516 491 506Q507 500 513 489.5Q519 479 519 465Q519 461 518.5 452Q518 443 517 433L509 345H482Q467 416 434.5 451Q402 486 351 486Q287 486 249.5 424.5Q212 363 212 247Q212 133 244 82.5Q276 32 334 32Q341 32 349.5 33.5Q358 35 365 37L380 198L312 208L315 238H547L544 208L529 205Q514 202 506.5 194Q499 186 497 163L487 60Q485 38 478 28Q471 18 455 13Q422 2 386 -6Q350 -14 306 -14ZM211 -270 207 -253Q231 -231 245.5 -211Q260 -191 269 -165L250 -105Q248 -99 247 -95Q246 -91 246 -89Q246 -78 263 -68.5Q280 -59 304 -59Q335 -59 350.5 -78Q366 -97 366 -125Q366 -170 329 -206Q292 -242 211 -270Z" glyph-name="gcommaaccent.smcp" horiz-adv-x="560" /><glyph d="M319 564Q288 564 269 582.5Q250 601 250 633Q250 671 273 695Q296 719 333 719Q365 719 384 700Q403 681 403 650Q403 612 380 588Q357 564 319 564ZM205 -249Q129 -249 81 -217.5Q33 -186 33 -136Q33 -110 49 -95Q65 -80 91 -80Q105 -80 110 -84.5Q115 -89 120 -105L145 -196Q157 -201 170 -203.5Q183 -206 199 -206Q260 -206 292 -162.5Q324 -119 334 -19L345 94Q318 44 283.5 15Q249 -14 209 -14Q140 -14 101.5 44Q63 102 63 204Q63 267 80.5 321.5Q98 376 129.5 415.5Q161 455 206 477.5Q251 500 307 500Q364 500 424 484.5Q484 469 518 450Q508 398 501.5 343.5Q495 289 491 237L471 6Q466 -55 444 -102.5Q422 -150 387 -182.5Q352 -215 305.5 -232Q259 -249 205 -249ZM262 74Q296 74 325 143.5Q354 213 364 330L371 415Q361 434 345 445.5Q329 457 308 457Q266 457 236.5 390.5Q207 324 207 213Q207 145 220.5 109.5Q234 74 262 74Z" glyph-name="gdotaccent" horiz-adv-x="541" unicode="&#289;" /><glyph d="M275 564Q244 564 225 582.5Q206 601 206 633Q206 671 229 695Q252 719 289 719Q321 719 340 700Q359 681 359 650Q359 612 336 588Q313 564 275 564ZM210 -249Q117 -249 68.5 -215Q20 -181 20 -129Q20 -92 51.5 -65.5Q83 -39 134 -32Q109 -24 93.5 -4Q78 16 78 41Q78 75 112 105.5Q146 136 195 150Q133 159 100.5 202Q68 245 68 305Q68 346 83 382.5Q98 419 125 445.5Q152 472 191 487Q230 502 279 502Q307 502 326 497.5Q345 493 366 483L465 543Q473 548 477 549.5Q481 551 485 551Q489 551 494.5 540Q500 529 500 510Q500 481 484 467Q468 453 434 453Q424 453 411 455.5Q398 458 385 461Q419 441 439.5 401Q460 361 460 323Q460 245 406 194Q352 143 251 138Q229 137 210 123.5Q191 110 191 95Q191 82 202 74Q213 66 237 62L319 50Q392 40 426.5 11Q461 -18 461 -71Q461 -109 442 -142Q423 -175 390 -198.5Q357 -222 310.5 -235.5Q264 -249 210 -249ZM257 181Q289 181 308 224.5Q327 268 327 340Q327 391 311.5 425.5Q296 460 271 460Q240 460 221 415.5Q202 371 202 299Q202 248 217.5 214.5Q233 181 257 181ZM237 -208Q282 -208 313 -186Q344 -164 344 -127Q344 -99 321.5 -82.5Q299 -66 250 -56Q227 -52 208 -49Q189 -46 182 -46Q154 -46 140 -63Q126 -80 126 -108Q126 -149 155.5 -178.5Q185 -208 237 -208Z" glyph-name="gdotaccent.alt" horiz-adv-x="493" /><glyph d="M329 572Q296 572 278 591.5Q260 611 260 642Q260 679 282.5 703.5Q305 728 343 728Q377 728 394.5 708.5Q412 689 412 659Q412 622 390 597Q368 572 329 572ZM306 -14Q191 -14 126.5 46.5Q62 107 62 232Q62 294 83 348.5Q104 403 142 443.5Q180 484 234 508Q288 532 354 532Q393 532 430 524Q467 516 491 506Q507 500 513 489.5Q519 479 519 465Q519 461 518.5 452Q518 443 517 433L509 345H482Q467 416 434.5 451Q402 486 351 486Q287 486 249.5 424.5Q212 363 212 247Q212 133 244 82.5Q276 32 334 32Q341 32 349.5 33.5Q358 35 365 37L380 198L312 208L315 238H547L544 208L529 205Q514 202 506.5 194Q499 186 497 163L487 60Q485 38 478 28Q471 18 455 13Q422 2 386 -6Q350 -14 306 -14Z" glyph-name="gdotaccent.smcp" horiz-adv-x="560" /><glyph d="M33 -246Q-12 -246 -31 -227.5Q-50 -209 -50 -184Q-50 -169 -41 -157.5Q-32 -146 -19 -146Q-15 -146 -12 -147Q-9 -148 -4 -151L73 -188Q88 -158 95 -125.5Q102 -93 104 -24L123 428H76V469L101 477Q115 482 121.5 488Q128 494 129 507L131 522Q135 568 154.5 609Q174 650 204 680Q234 710 274.5 727.5Q315 745 362 745Q399 745 433.5 736.5Q468 728 493.5 710.5Q519 693 533 666Q547 639 543 601Q540 558 518.5 531.5Q497 505 472.5 485Q448 465 428 445.5Q408 426 408 397Q408 370 433.5 347.5Q459 325 500 303L515 295Q564 267 590.5 233Q617 199 617 152Q617 77 568.5 31.5Q520 -14 436 -14Q365 -14 327 13.5Q289 41 289 84Q289 106 303 120.5Q317 135 342 135Q349 135 351.5 132.5Q354 130 358 121L393 36Q403 31 414.5 28.5Q426 26 442 26Q479 26 497 47.5Q515 69 515 101Q515 127 500.5 144.5Q486 162 457 178L438 188Q384 217 356.5 252.5Q329 288 329 337Q329 376 343.5 404Q358 432 374.5 460Q391 488 405.5 522Q420 556 420 607Q420 647 400 671.5Q380 696 343 696Q306 696 287.5 660.5Q269 625 265 553L238 79Q234 10 217 -49.5Q200 -109 173 -152.5Q146 -196 110 -221Q74 -246 33 -246Z" glyph-name="germandbls" horiz-adv-x="615" unicode="&#223;" /><glyph d="M397 -10Q334 -10 297 16Q260 42 260 87Q260 107 273.5 119Q287 131 307 131Q321 131 325.5 127.5Q330 124 334 108L355 33Q364 28 371.5 26.5Q379 25 389 25Q426 25 444 50Q462 75 462 124Q462 177 428 210Q394 243 332 259L331 281L477 469H353Q307 469 287.5 450Q268 431 264 384L230 0H13L16 27L53 34Q80 38 90.5 50.5Q101 63 103 92L128 355Q135 428 190.5 473Q246 518 327 518H568L572 493L421 306Q500 297 547.5 254.5Q595 212 595 149Q595 74 543 32Q491 -10 397 -10Z" glyph-name="germandbls.smcp" horiz-adv-x="603" /><glyph d="M306 543 173 599Q151 608 139 624.5Q127 641 127 664Q127 696 149 716.5Q171 737 197 737Q205 737 209 733.5Q213 730 223 713L319 563Z" glyph-name="grave" horiz-adv-x="440" unicode="`" /><glyph d="M316 693 172 733Q150 740 138.5 755.5Q127 771 127 793Q127 821 146.5 842Q166 863 189 863Q193 863 198 860.5Q203 858 213 845L326 710Z" glyph-name="grave.case" horiz-adv-x="440" /><glyph d="M63 66 59 154 352 338 91 523 108 600 445 372 439 307Z" glyph-name="greater" horiz-adv-x="475" unicode="&gt;" /><glyph d="M69 210 76 283H350L100 565L109 654L448 279L439 210ZM51 0 57 72H430L423 0Z" glyph-name="greaterequal" horiz-adv-x="475" unicode="&#8805;" /><glyph d="M200 37 67 183Q57 193 52.5 204Q48 215 48 228Q48 229 48.5 235.5Q49 242 50 249Q51 266 58 277.5Q65 289 77 300L235 447L264 440L162 241L229 44ZM376 37 243 183Q233 193 228.5 204Q224 215 224 228Q224 229 224.5 235.5Q225 242 226 249Q227 266 234 277.5Q241 289 253 300L411 447L440 440L338 241L405 44Z" glyph-name="guillemotleft" horiz-adv-x="431" unicode="&#171;" /><glyph d="M213 78 78 262Q70 273 64.5 283Q59 293 59 306Q59 308 60 319.5Q61 331 62 345Q63 360 69.5 370Q76 380 90 396L257 579L285 573L179 328L243 85ZM404 78 269 262Q261 273 255.5 283Q250 293 250 306Q250 308 251 319.5Q252 331 253 345Q254 360 260.5 370Q267 380 281 396L448 579L476 573L370 328L434 85Z" glyph-name="guillemotleft.case" horiz-adv-x="451" /><glyph d="M97 446 230 300Q240 290 244.5 279Q249 268 249 255Q249 254 248.5 247.5Q248 241 247 234Q246 217 239 205.5Q232 194 220 183L62 36L33 43L135 242L68 439ZM273 446 406 300Q416 290 420.5 279Q425 268 425 255Q425 254 424.5 247.5Q424 241 423 234Q422 217 415 205.5Q408 194 396 183L238 36L209 43L311 242L244 439Z" glyph-name="guillemotright" horiz-adv-x="431" unicode="&#187;" /><glyph d="M104 580 239 396Q247 385 252.5 375Q258 365 258 352Q258 350 257 338.5Q256 327 255 313Q254 298 247.5 288Q241 278 227 262L60 79L32 85L138 330L74 573ZM295 580 430 396Q438 385 443.5 375Q449 365 449 352Q449 350 448 338.5Q447 327 446 313Q445 298 438.5 288Q432 278 418 262L251 79L223 85L329 330L265 573Z" glyph-name="guillemotright.case" horiz-adv-x="450" /><glyph d="M200 37 67 183Q57 193 52.5 204Q48 215 48 228Q48 229 48.5 235.5Q49 242 50 249Q51 266 58 277.5Q65 289 77 300L235 447L264 440L162 241L229 44Z" glyph-name="guilsinglleft" horiz-adv-x="255" unicode="&#8249;" /><glyph d="M213 78 78 262Q70 273 64.5 283Q59 293 59 306Q59 308 60 319.5Q61 331 62 345Q63 360 69.5 370Q76 380 90 396L257 579L285 573L179 328L243 85Z" glyph-name="guilsinglleft.case" horiz-adv-x="259" /><glyph d="M97 446 230 300Q240 290 244.5 279Q249 268 249 255Q249 254 248.5 247.5Q248 241 247 234Q246 217 239 205.5Q232 194 220 183L62 36L33 43L135 242L68 439Z" glyph-name="guilsinglright" horiz-adv-x="255" unicode="&#8250;" /><glyph d="M104 580 239 396Q247 385 252.5 375Q258 365 258 352Q258 350 257 338.5Q256 327 255 313Q254 298 247.5 288Q241 278 227 262L60 79L32 85L138 330L74 573Z" glyph-name="guilsinglright.case" horiz-adv-x="259" /><glyph d="M454 -8Q402 -8 378.5 13.5Q355 35 355 80Q355 90 357.5 115Q360 140 362 157L380 283Q384 311 385.5 335Q387 359 387 371Q387 397 377.5 410.5Q368 424 349 424Q303 424 268 348Q233 272 222 106L217 35Q216 16 206.5 8Q197 0 182 0H67Q74 40 80.5 90.5Q87 141 91 187L129 589Q130 607 131 621Q132 635 132 642Q132 657 126.5 665.5Q121 674 102 681L66 692L68 717Q101 727 157 733Q213 739 264 739H286Q277 688 270.5 636Q264 584 259 531L245 391Q281 442 323.5 472Q366 502 409 502Q462 502 492 470Q522 438 522 378Q522 368 519.5 332.5Q517 297 513 266L497 146Q493 115 491.5 97Q490 79 490 72Q490 53 504 44.5Q518 36 552 35L550 8Q529 2 502.5 -3Q476 -8 454 -8Z" glyph-name="h" horiz-adv-x="562" unicode="h" /><glyph d="M23 0 26 28 64 36Q89 40 100.5 53Q112 66 114 97L141 393Q142 409 143 420.5Q144 432 144 436Q144 458 135.5 468Q127 478 104 482L66 490L68 518H357L354 488L288 479L272 299H444L459 477L395 488L398 518H685L682 490L644 482Q618 478 607 465Q596 452 594 421L567 125Q566 109 565 97.5Q564 86 564 82Q564 60 572.5 50Q581 40 605 36L643 28L640 0H351L354 30L420 39L440 252H267L249 41L313 30L311 0Z" glyph-name="h.smcp" horiz-adv-x="662" /><glyph d="M454 -8Q402 -8 378.5 13.5Q355 35 355 80Q355 90 357.5 115Q360 140 362 157L380 283Q384 311 385.5 335Q387 359 387 371Q387 397 377.5 410.5Q368 424 349 424Q303 424 268 348Q233 272 222 106L217 35Q216 16 206.5 8Q197 0 182 0H67Q74 40 80.5 90.5Q87 141 91 187L127 573H75L80 613H131Q132 623 132 630.5Q132 638 132 642Q132 657 126.5 665.5Q121 674 102 681L66 692L68 717Q101 727 157 733Q213 739 264 739H286Q280 708 275.5 676.5Q271 645 267 613H344L339 573H263L245 391Q281 442 323.5 472Q366 502 409 502Q462 502 492 470Q522 438 522 378Q522 368 519.5 332.5Q517 297 513 266L497 146Q493 115 491.5 97Q490 79 490 72Q490 53 504 44.5Q518 36 552 35L550 8Q529 2 502.5 -3Q476 -8 454 -8Z" glyph-name="hbar" horiz-adv-x="562" unicode="&#295;" /><glyph d="M23 0 26 28 64 36Q89 40 100.5 53Q112 66 114 97L139 376H77L80 416H143Q144 423 144 428.5Q144 434 144 436Q144 458 135.5 468Q127 478 104 482L66 490L68 518H357L354 488L288 479L282 416H453L459 477L395 488L398 518H685L682 490L644 482Q618 478 607 464.5Q596 451 593 416H657L654 376H589L567 125Q566 109 565 97.5Q564 86 564 82Q564 60 572.5 50Q581 40 605 36L643 28L640 0H351L354 30L420 39L440 252H267L249 41L313 30L311 0ZM272 299H444L450 376H279Z" glyph-name="hbar.smcp" horiz-adv-x="662" /><glyph d="M118 766 97 770 160 926Q169 948 179.5 956Q190 964 210 964H251Q270 964 279 956Q288 948 293 926L329 770L309 766L222 868ZM454 -8Q402 -8 378.5 13.5Q355 35 355 80Q355 90 357.5 115Q360 140 362 157L380 283Q384 311 385.5 335Q387 359 387 371Q387 397 377.5 410.5Q368 424 349 424Q303 424 268 348Q233 272 222 106L217 35Q216 16 206.5 8Q197 0 182 0H67Q74 40 80.5 90.5Q87 141 91 187L129 589Q130 607 131 621Q132 635 132 642Q132 657 126.5 665.5Q121 674 102 681L66 692L68 717Q101 727 157 733Q213 739 264 739H286Q277 688 270.5 636Q264 584 259 531L245 391Q281 442 323.5 472Q366 502 409 502Q462 502 492 470Q522 438 522 378Q522 368 519.5 332.5Q517 297 513 266L497 146Q493 115 491.5 97Q490 79 490 72Q490 53 504 44.5Q518 36 552 35L550 8Q529 2 502.5 -3Q476 -8 454 -8Z" glyph-name="hcircumflex" horiz-adv-x="562" unicode="&#293;" /><glyph d="M277 565 258 569 326 689Q339 711 349.5 718.5Q360 726 378 726H413Q431 726 440 718.5Q449 711 457 689L506 569L486 565L388 642ZM23 0 26 28 64 36Q89 40 100.5 53Q112 66 114 97L141 393Q142 409 143 420.5Q144 432 144 436Q144 458 135.5 468Q127 478 104 482L66 490L68 518H357L354 488L288 479L272 299H444L459 477L395 488L398 518H685L682 490L644 482Q618 478 607 465Q596 452 594 421L567 125Q566 109 565 97.5Q564 86 564 82Q564 60 572.5 50Q581 40 605 36L643 28L640 0H351L354 30L420 39L440 252H267L249 41L313 30L311 0Z" glyph-name="hcircumflex.smcp" horiz-adv-x="662" /></font>
</defs>
</svg>
