<?xml version="1.0" standalone="no"?><!DOCTYPE svg PUBLIC "-//W3C//DTD SVG 1.1//EN" "http://www.w3.org/Graphics/SVG/1.1/DTD/svg11.dtd" ><svg version="1.1" xmlns="http://www.w3.org/2000/svg"><defs><font horiz-adv-x="0" id="font"><font-face ascent="750" bbox="-61 -253 1059 955" cap-height="646" descent="-250" font-family="Folha Texto" font-stretch="normal" font-style="normal" font-weight="350" units-per-em="1000" x-height="474" /><missing-glyph d="M0 0V646H500V0ZM60 586V60H440V586Z" horiz-adv-x="500" /><glyph glyph-name=".null" horiz-adv-x="0" /><glyph d="M-8 0 -6 25 10 28Q30 32 39 39.5Q48 47 58 70L299 650H342Q357 650 365 643Q373 636 377 620L517 70Q521 51 531.5 42.5Q542 34 563 30L581 27L579 0H321L324 27L425 39L382 214H172L103 38L195 27L193 0ZM188 254H372L302 543Z" glyph-name="A" horiz-adv-x="574" unicode="A" /><glyph d="M684 -7Q678 -7 657 -6Q636 -5 610 -3.5Q584 -2 555.5 -1Q527 0 506 0H239L241 26L342 37L357 214H196L98 37L183 26L181 0H-5L-3 25L6 28Q25 35 36 44.5Q47 54 59 75L343 573Q345 577 346.5 581Q348 585 348 589Q348 599 340 605.5Q332 612 316 615L280 621L282 646H753Q764 646 770.5 640.5Q777 635 777 624Q777 621 776.5 613.5Q776 606 775 598L763 462H740L736 495Q728 561 698 583Q668 605 599 605H480L459 361H632L657 449H680L662 233H638L629 321H455L432 48Q451 44 479.5 40.5Q508 37 537 37Q576 37 603.5 43.5Q631 50 651.5 65Q672 80 688.5 104.5Q705 129 721 166L734 195L755 190L718 18Q715 4 707 -1.5Q699 -7 684 -7ZM219 254H360L385 553Z" glyph-name="AE" horiz-adv-x="772" unicode="&#198;" /><glyph d="M439 690 434 705 556 828Q568 841 573 843Q578 845 582 845Q592 845 607.5 833.5Q623 822 623 793Q623 766 606.5 752.5Q590 739 569 732ZM684 -7Q678 -7 657 -6Q636 -5 610 -3.5Q584 -2 555.5 -1Q527 0 506 0H239L241 26L342 37L357 214H196L98 37L183 26L181 0H-5L-3 25L6 28Q25 35 36 44.5Q47 54 59 75L343 573Q345 577 346.5 581Q348 585 348 589Q348 599 340 605.5Q332 612 316 615L280 621L282 646H753Q764 646 770.5 640.5Q777 635 777 624Q777 621 776.5 613.5Q776 606 775 598L763 462H740L736 495Q728 561 698 583Q668 605 599 605H480L459 361H632L657 449H680L662 233H638L629 321H455L432 48Q451 44 479.5 40.5Q508 37 537 37Q576 37 603.5 43.5Q631 50 651.5 65Q672 80 688.5 104.5Q705 129 721 166L734 195L755 190L718 18Q715 4 707 -1.5Q699 -7 684 -7ZM219 254H360L385 553Z" glyph-name="AEacute" horiz-adv-x="772" unicode="&#508;" /><glyph d="M299 690 294 705 416 828Q428 841 433 843Q438 845 442 845Q452 845 467.5 833.5Q483 822 483 793Q483 766 466.5 752.5Q450 739 429 732ZM-8 0 -6 25 10 28Q30 32 39 39.5Q48 47 58 70L299 650H342Q357 650 365 643Q373 636 377 620L517 70Q521 51 531.5 42.5Q542 34 563 30L581 27L579 0H321L324 27L425 39L382 214H172L103 38L195 27L193 0ZM188 254H372L302 543Z" glyph-name="Aacute" horiz-adv-x="574" unicode="&#193;" /><glyph d="M326 696Q283 696 259 725Q235 754 235 811Q235 817 235 823Q235 829 236 836H254Q259 804 279 788Q299 772 333 772Q367 772 389.5 787.5Q412 803 424 836H442Q436 767 405 731.5Q374 696 326 696ZM-8 0 -6 25 10 28Q30 32 39 39.5Q48 47 58 70L299 650H342Q357 650 365 643Q373 636 377 620L517 70Q521 51 531.5 42.5Q542 34 563 30L581 27L579 0H321L324 27L425 39L382 214H172L103 38L195 27L193 0ZM188 254H372L302 543Z" glyph-name="Abreve" horiz-adv-x="574" unicode="&#258;" /><glyph d="M231 696 215 700 291 805Q302 821 310 826.5Q318 832 333 832H346Q361 832 368.5 826.5Q376 821 384 805L441 700L425 696L333 764ZM-8 0 -6 25 10 28Q30 32 39 39.5Q48 47 58 70L299 650H342Q357 650 365 643Q373 636 377 620L517 70Q521 51 531.5 42.5Q542 34 563 30L581 27L579 0H321L324 27L425 39L382 214H172L103 38L195 27L193 0ZM188 254H372L302 543Z" glyph-name="Acircumflex" horiz-adv-x="574" unicode="&#194;" /><glyph d="M251 717Q230 717 217.5 730.5Q205 744 205 766Q205 792 220.5 809.5Q236 827 263 827Q284 827 296.5 813.5Q309 800 309 778Q309 752 293.5 734.5Q278 717 251 717ZM403 717Q382 717 369.5 730.5Q357 744 357 766Q357 792 372.5 809.5Q388 827 415 827Q436 827 448.5 813.5Q461 800 461 778Q461 752 445.5 734.5Q430 717 403 717ZM-8 0 -6 25 10 28Q30 32 39 39.5Q48 47 58 70L299 650H342Q357 650 365 643Q373 636 377 620L517 70Q521 51 531.5 42.5Q542 34 563 30L581 27L579 0H321L324 27L425 39L382 214H172L103 38L195 27L193 0ZM188 254H372L302 543Z" glyph-name="Adieresis" horiz-adv-x="574" unicode="&#196;" /><glyph d="M355 690 226 732Q206 739 195.5 753.5Q185 768 185 790Q185 813 200 829Q215 845 232 845Q236 845 240 842.5Q244 840 254 828L362 706ZM-8 0 -6 25 10 28Q30 32 39 39.5Q48 47 58 70L299 650H342Q357 650 365 643Q373 636 377 620L517 70Q521 51 531.5 42.5Q542 34 563 30L581 27L579 0H321L324 27L425 39L382 214H172L103 38L195 27L193 0ZM188 254H372L302 543Z" glyph-name="Agrave" horiz-adv-x="574" unicode="&#192;" /><glyph d="M217 737 222 785H447L443 737ZM-8 0 -6 25 10 28Q30 32 39 39.5Q48 47 58 70L299 650H342Q357 650 365 643Q373 636 377 620L517 70Q521 51 531.5 42.5Q542 34 563 30L581 27L579 0H321L324 27L425 39L382 214H172L103 38L195 27L193 0ZM188 254H372L302 543Z" glyph-name="Amacron" horiz-adv-x="574" unicode="&#256;" /><glyph d="M392 -240Q355 -240 334 -217.5Q313 -195 313 -157Q313 -114 344.5 -73Q376 -32 431 0H321L324 27L425 39L382 214H172L103 38L195 27L193 0H-8L-6 25L10 28Q30 32 39 39.5Q48 47 58 70L299 650H342Q357 650 365 643Q373 636 377 620L517 70Q521 51 531.5 42.5Q542 34 563 30L581 27L579 0H472Q429 -39 409 -72Q389 -105 389 -139Q389 -162 401.5 -177Q414 -192 433 -192Q449 -192 460 -189Q471 -186 488 -176L484 -197Q463 -220 440 -230Q417 -240 392 -240ZM188 254H372L302 543Z" glyph-name="Aogonek" horiz-adv-x="574" unicode="&#260;" /><glyph d="M326 692Q289 692 267.5 713.5Q246 735 246 771Q246 816 274 846Q302 876 343 876Q380 876 401.5 854.5Q423 833 423 797Q423 752 395 722Q367 692 326 692ZM330 734Q352 734 364.5 750Q377 766 377 793Q377 812 367 823Q357 834 339 834Q317 834 304.5 818Q292 802 292 775Q292 756 302 745Q312 734 330 734ZM-8 0 -6 25 10 28Q30 32 39 39.5Q48 47 58 70L299 650H342Q357 650 365 643Q373 636 377 620L517 70Q521 51 531.5 42.5Q542 34 563 30L581 27L579 0H321L324 27L425 39L382 214H172L103 38L195 27L193 0ZM188 254H372L302 543Z" glyph-name="Aring" horiz-adv-x="574" unicode="&#197;" /><glyph d="M364 718Q333 718 318 732Q303 746 279 746Q266 746 256.5 738.5Q247 731 239 709H220Q229 763 248.5 790Q268 817 299 817Q324 817 341.5 803Q359 789 385 789Q401 789 410 799.5Q419 810 426 834L445 832Q438 774 418.5 746Q399 718 364 718ZM-8 0 -6 25 10 28Q30 32 39 39.5Q48 47 58 70L299 650H342Q357 650 365 643Q373 636 377 620L517 70Q521 51 531.5 42.5Q542 34 563 30L581 27L579 0H321L324 27L425 39L382 214H172L103 38L195 27L193 0ZM188 254H372L302 543Z" glyph-name="Atilde" horiz-adv-x="574" unicode="&#195;" /><glyph d="M24 0 26 25 63 31Q106 38 120 52.5Q134 67 138 113L171 495Q173 519 174.5 537Q176 555 176 560Q176 588 162.5 599Q149 610 114 615L78 621L80 646H311Q415 646 476.5 606.5Q538 567 538 489Q538 427 494.5 386.5Q451 346 370 337Q449 329 495.5 290Q542 251 542 179Q542 93 477 46.5Q412 0 299 0ZM307 357Q376 357 408.5 389.5Q441 422 441 484Q441 542 404 575Q367 608 309 608Q302 608 289.5 607.5Q277 607 272 606L251 361Q257 360 278.5 358.5Q300 357 307 357ZM299 35Q367 35 404.5 72.5Q442 110 442 176Q442 242 403 280.5Q364 319 295 319Q286 319 270 319Q254 319 247 318L223 47Q237 43 257.5 39Q278 35 299 35Z" glyph-name="B" horiz-adv-x="567" unicode="B" /><glyph d="M322 -14Q204 -14 140.5 63.5Q77 141 77 277Q77 357 99.5 427Q122 497 162 548.5Q202 600 258 630Q314 660 380 660Q425 660 456 653Q487 646 521 630Q539 622 544.5 611Q550 600 550 584Q550 578 548.5 562.5Q547 547 546 530L539 449H515Q509 538 472 580Q435 622 367 622Q327 622 292.5 598.5Q258 575 233.5 532.5Q209 490 195 428.5Q181 367 181 292Q181 165 223.5 94.5Q266 24 342 24Q393 24 434 69.5Q475 115 509 212L534 209L510 85Q503 46 489.5 29.5Q476 13 445 4Q411 -6 382 -10Q353 -14 322 -14Z" glyph-name="C" horiz-adv-x="559" unicode="C" /><glyph glyph-name="CR" horiz-adv-x="228" unicode="" /><glyph d="M347 690 342 705 464 828Q476 841 481 843Q486 845 490 845Q500 845 515.5 833.5Q531 822 531 793Q531 766 514.5 752.5Q498 739 477 732ZM322 -14Q204 -14 140.5 63.5Q77 141 77 277Q77 357 99.5 427Q122 497 162 548.5Q202 600 258 630Q314 660 380 660Q425 660 456 653Q487 646 521 630Q539 622 544.5 611Q550 600 550 584Q550 578 548.5 562.5Q547 547 546 530L539 449H515Q509 538 472 580Q435 622 367 622Q327 622 292.5 598.5Q258 575 233.5 532.5Q209 490 195 428.5Q181 367 181 292Q181 165 223.5 94.5Q266 24 342 24Q393 24 434 69.5Q475 115 509 212L534 209L510 85Q503 46 489.5 29.5Q476 13 445 4Q411 -6 382 -10Q353 -14 322 -14Z" glyph-name="Cacute" horiz-adv-x="560" unicode="&#262;" /><glyph d="M369 700Q353 700 346 706.5Q339 713 331 729L271 836L288 840L381 772L485 840L501 836L424 729Q413 713 404.5 706.5Q396 700 381 700ZM322 -14Q204 -14 140.5 63.5Q77 141 77 277Q77 357 99.5 427Q122 497 162 548.5Q202 600 258 630Q314 660 380 660Q425 660 456 653Q487 646 521 630Q539 622 544.5 611Q550 600 550 584Q550 578 548.5 562.5Q547 547 546 530L539 449H515Q509 538 472 580Q435 622 367 622Q327 622 292.5 598.5Q258 575 233.5 532.5Q209 490 195 428.5Q181 367 181 292Q181 165 223.5 94.5Q266 24 342 24Q393 24 434 69.5Q475 115 509 212L534 209L510 85Q503 46 489.5 29.5Q476 13 445 4Q411 -6 382 -10Q353 -14 322 -14Z" glyph-name="Ccaron" horiz-adv-x="560" unicode="&#268;" /><glyph d="M274 -247Q238 -247 212.5 -227.5Q187 -208 187 -180Q187 -167 196 -157.5Q205 -148 218 -148Q230 -148 234 -150.5Q238 -153 239 -160L247 -217Q252 -221 256.5 -222.5Q261 -224 267 -224Q288 -224 300.5 -209.5Q313 -195 313 -170Q313 -146 299.5 -129.5Q286 -113 260 -105L299 -13Q192 -6 134.5 71Q77 148 77 277Q77 357 99.5 427Q122 497 162 548.5Q202 600 258 630Q314 660 380 660Q425 660 456 653Q487 646 521 630Q539 622 544.5 611Q550 600 550 584Q550 578 548.5 562.5Q547 547 546 530L539 449H515Q509 538 472 580Q435 622 367 622Q327 622 292.5 598.5Q258 575 233.5 532.5Q209 490 195 428.5Q181 367 181 292Q181 165 223.5 94.5Q266 24 342 24Q393 24 434 69.5Q475 115 509 212L534 209L510 85Q503 46 489.5 29.5Q476 13 445 4Q417 -4 392 -8.5Q367 -13 342 -14L314 -61Q350 -71 368 -93Q386 -115 386 -148Q386 -191 354.5 -219Q323 -247 274 -247Z" glyph-name="Ccedilla" horiz-adv-x="560" unicode="&#199;" /><glyph d="M279 696 263 700 339 805Q350 821 358 826.5Q366 832 381 832H394Q409 832 416.5 826.5Q424 821 432 805L489 700L473 696L381 764ZM322 -14Q204 -14 140.5 63.5Q77 141 77 277Q77 357 99.5 427Q122 497 162 548.5Q202 600 258 630Q314 660 380 660Q425 660 456 653Q487 646 521 630Q539 622 544.5 611Q550 600 550 584Q550 578 548.5 562.5Q547 547 546 530L539 449H515Q509 538 472 580Q435 622 367 622Q327 622 292.5 598.5Q258 575 233.5 532.5Q209 490 195 428.5Q181 367 181 292Q181 165 223.5 94.5Q266 24 342 24Q393 24 434 69.5Q475 115 509 212L534 209L510 85Q503 46 489.5 29.5Q476 13 445 4Q411 -6 382 -10Q353 -14 322 -14Z" glyph-name="Ccircumflex" horiz-adv-x="560" unicode="&#264;" /><glyph d="M376 716Q354 716 341 731.5Q328 747 328 769Q328 796 344 815Q360 834 388 834Q410 834 423 818.5Q436 803 436 781Q436 754 420 735Q404 716 376 716ZM322 -14Q204 -14 140.5 63.5Q77 141 77 277Q77 357 99.5 427Q122 497 162 548.5Q202 600 258 630Q314 660 380 660Q425 660 456 653Q487 646 521 630Q539 622 544.5 611Q550 600 550 584Q550 578 548.5 562.5Q547 547 546 530L539 449H515Q509 538 472 580Q435 622 367 622Q327 622 292.5 598.5Q258 575 233.5 532.5Q209 490 195 428.5Q181 367 181 292Q181 165 223.5 94.5Q266 24 342 24Q393 24 434 69.5Q475 115 509 212L534 209L510 85Q503 46 489.5 29.5Q476 13 445 4Q411 -6 382 -10Q353 -14 322 -14Z" glyph-name="Cdotaccent" horiz-adv-x="560" unicode="&#266;" /><glyph d="M24 0 26 25 63 31Q106 38 120 52.5Q134 67 138 113L171 499Q173 522 174.5 538Q176 554 176 560Q176 588 162.5 599Q149 610 114 615L78 621L80 646H230Q318 646 389.5 624Q461 602 510 561Q559 520 585.5 459Q612 398 612 320Q612 159 517.5 79.5Q423 0 253 0ZM289 38Q400 38 455.5 111Q511 184 511 313Q511 387 492.5 442Q474 497 442 533Q410 569 366 587Q322 605 272 606L223 47Q233 44 253.5 41Q274 38 289 38Z" glyph-name="D" horiz-adv-x="632" unicode="D" /><glyph d="M353 700Q337 700 330 706.5Q323 713 315 729L255 836L272 840L365 772L469 840L485 836L408 729Q397 713 388.5 706.5Q380 700 365 700ZM24 0 26 25 63 31Q106 38 120 52.5Q134 67 138 113L171 499Q173 522 174.5 538Q176 554 176 560Q176 588 162.5 599Q149 610 114 615L78 621L80 646H230Q318 646 389.5 624Q461 602 510 561Q559 520 585.5 459Q612 398 612 320Q612 159 517.5 79.5Q423 0 253 0ZM289 38Q400 38 455.5 111Q511 184 511 313Q511 387 492.5 442Q474 497 442 533Q410 569 366 587Q322 605 272 606L223 47Q233 44 253.5 41Q274 38 289 38Z" glyph-name="Dcaron" horiz-adv-x="633" unicode="&#270;" /><glyph d="M24 0 26 25 63 31Q106 38 120 52.5Q134 67 138 113L156 320H94L97 356H159L171 499Q173 522 174.5 538Q176 554 176 560Q176 588 162.5 599Q149 610 114 615L78 621L80 646H230Q318 646 389.5 624Q461 602 510 561Q559 520 585.5 459Q612 398 612 320Q612 159 517.5 79.5Q423 0 253 0ZM289 38Q400 38 455.5 111Q511 184 511 313Q511 387 492.5 442Q474 497 442 533Q410 569 366 587Q322 605 272 606L250 356H367L364 320H247L223 47Q233 44 253.5 41Q274 38 289 38Z" glyph-name="Dcroat" horiz-adv-x="633" unicode="&#272;" /><glyph d="M35 0 38 32 289 652H319L460 32L457 0ZM76 43H372L274 544Z" glyph-name="Delta" horiz-adv-x="493" unicode="&#8710;" /><glyph d="M24 0 26 25 63 31Q106 38 120 52.5Q134 67 138 113L172 508Q174 531 175 542.5Q176 554 176 560Q176 588 162.5 599Q149 610 114 615L78 621L80 646H544Q555 646 561.5 640.5Q568 635 568 624Q568 621 567.5 613.5Q567 606 566 598L554 462H531L527 495Q519 561 489 583Q459 605 390 605H271L250 361H423L448 449H471L453 233H429L420 321H246L223 48Q242 44 270.5 40.5Q299 37 328 37Q367 37 394.5 43.5Q422 50 442.5 65Q463 80 479.5 104.5Q496 129 512 166L525 195L546 190L509 18Q506 4 498 -1.5Q490 -7 475 -7Q469 -7 448 -6Q427 -5 401 -3.5Q375 -2 346.5 -1Q318 0 297 0Z" glyph-name="E" horiz-adv-x="563" unicode="E" /><glyph d="M332 690 327 705 449 828Q461 841 466 843Q471 845 475 845Q485 845 500.5 833.5Q516 822 516 793Q516 766 499.5 752.5Q483 739 462 732ZM24 0 26 25 63 31Q106 38 120 52.5Q134 67 138 113L172 508Q174 531 175 542.5Q176 554 176 560Q176 588 162.5 599Q149 610 114 615L78 621L80 646H544Q555 646 561.5 640.5Q568 635 568 624Q568 621 567.5 613.5Q567 606 566 598L554 462H531L527 495Q519 561 489 583Q459 605 390 605H271L250 361H423L448 449H471L453 233H429L420 321H246L223 48Q242 44 270.5 40.5Q299 37 328 37Q367 37 394.5 43.5Q422 50 442.5 65Q463 80 479.5 104.5Q496 129 512 166L525 195L546 190L509 18Q506 4 498 -1.5Q490 -7 475 -7Q469 -7 448 -6Q427 -5 401 -3.5Q375 -2 346.5 -1Q318 0 297 0Z" glyph-name="Eacute" horiz-adv-x="563" unicode="&#201;" /><glyph d="M359 696Q316 696 292 725Q268 754 268 811Q268 817 268 823Q268 829 269 836H287Q292 804 312 788Q332 772 366 772Q400 772 422.5 787.5Q445 803 457 836H475Q469 767 438 731.5Q407 696 359 696ZM24 0 26 25 63 31Q106 38 120 52.5Q134 67 138 113L172 508Q174 531 175 542.5Q176 554 176 560Q176 588 162.5 599Q149 610 114 615L78 621L80 646H544Q555 646 561.5 640.5Q568 635 568 624Q568 621 567.5 613.5Q567 606 566 598L554 462H531L527 495Q519 561 489 583Q459 605 390 605H271L250 361H423L448 449H471L453 233H429L420 321H246L223 48Q242 44 270.5 40.5Q299 37 328 37Q367 37 394.5 43.5Q422 50 442.5 65Q463 80 479.5 104.5Q496 129 512 166L525 195L546 190L509 18Q506 4 498 -1.5Q490 -7 475 -7Q469 -7 448 -6Q427 -5 401 -3.5Q375 -2 346.5 -1Q318 0 297 0Z" glyph-name="Ebreve" horiz-adv-x="563" unicode="&#276;" /><glyph d="M354 700Q338 700 331 706.5Q324 713 316 729L256 836L273 840L366 772L470 840L486 836L409 729Q398 713 389.5 706.5Q381 700 366 700ZM24 0 26 25 63 31Q106 38 120 52.5Q134 67 138 113L172 508Q174 531 175 542.5Q176 554 176 560Q176 588 162.5 599Q149 610 114 615L78 621L80 646H544Q555 646 561.5 640.5Q568 635 568 624Q568 621 567.5 613.5Q567 606 566 598L554 462H531L527 495Q519 561 489 583Q459 605 390 605H271L250 361H423L448 449H471L453 233H429L420 321H246L223 48Q242 44 270.5 40.5Q299 37 328 37Q367 37 394.5 43.5Q422 50 442.5 65Q463 80 479.5 104.5Q496 129 512 166L525 195L546 190L509 18Q506 4 498 -1.5Q490 -7 475 -7Q469 -7 448 -6Q427 -5 401 -3.5Q375 -2 346.5 -1Q318 0 297 0Z" glyph-name="Ecaron" horiz-adv-x="563" unicode="&#282;" /><glyph d="M264 696 248 700 324 805Q335 821 343 826.5Q351 832 366 832H379Q394 832 401.5 826.5Q409 821 417 805L474 700L458 696L366 764ZM24 0 26 25 63 31Q106 38 120 52.5Q134 67 138 113L172 508Q174 531 175 542.5Q176 554 176 560Q176 588 162.5 599Q149 610 114 615L78 621L80 646H544Q555 646 561.5 640.5Q568 635 568 624Q568 621 567.5 613.5Q567 606 566 598L554 462H531L527 495Q519 561 489 583Q459 605 390 605H271L250 361H423L448 449H471L453 233H429L420 321H246L223 48Q242 44 270.5 40.5Q299 37 328 37Q367 37 394.5 43.5Q422 50 442.5 65Q463 80 479.5 104.5Q496 129 512 166L525 195L546 190L509 18Q506 4 498 -1.5Q490 -7 475 -7Q469 -7 448 -6Q427 -5 401 -3.5Q375 -2 346.5 -1Q318 0 297 0Z" glyph-name="Ecircumflex" horiz-adv-x="563" unicode="&#202;" /><glyph d="M284 717Q263 717 250.5 730.5Q238 744 238 766Q238 792 253.5 809.5Q269 827 296 827Q317 827 329.5 813.5Q342 800 342 778Q342 752 326.5 734.5Q311 717 284 717ZM436 717Q415 717 402.5 730.5Q390 744 390 766Q390 792 405.5 809.5Q421 827 448 827Q469 827 481.5 813.5Q494 800 494 778Q494 752 478.5 734.5Q463 717 436 717ZM24 0 26 25 63 31Q106 38 120 52.5Q134 67 138 113L172 508Q174 531 175 542.5Q176 554 176 560Q176 588 162.5 599Q149 610 114 615L78 621L80 646H544Q555 646 561.5 640.5Q568 635 568 624Q568 621 567.5 613.5Q567 606 566 598L554 462H531L527 495Q519 561 489 583Q459 605 390 605H271L250 361H423L448 449H471L453 233H429L420 321H246L223 48Q242 44 270.5 40.5Q299 37 328 37Q367 37 394.5 43.5Q422 50 442.5 65Q463 80 479.5 104.5Q496 129 512 166L525 195L546 190L509 18Q506 4 498 -1.5Q490 -7 475 -7Q469 -7 448 -6Q427 -5 401 -3.5Q375 -2 346.5 -1Q318 0 297 0Z" glyph-name="Edieresis" horiz-adv-x="563" unicode="&#203;" /><glyph d="M361 716Q339 716 326 731.5Q313 747 313 769Q313 796 329 815Q345 834 373 834Q395 834 408 818.5Q421 803 421 781Q421 754 405 735Q389 716 361 716ZM24 0 26 25 63 31Q106 38 120 52.5Q134 67 138 113L172 508Q174 531 175 542.5Q176 554 176 560Q176 588 162.5 599Q149 610 114 615L78 621L80 646H544Q555 646 561.5 640.5Q568 635 568 624Q568 621 567.5 613.5Q567 606 566 598L554 462H531L527 495Q519 561 489 583Q459 605 390 605H271L250 361H423L448 449H471L453 233H429L420 321H246L223 48Q242 44 270.5 40.5Q299 37 328 37Q367 37 394.5 43.5Q422 50 442.5 65Q463 80 479.5 104.5Q496 129 512 166L525 195L546 190L509 18Q506 4 498 -1.5Q490 -7 475 -7Q469 -7 448 -6Q427 -5 401 -3.5Q375 -2 346.5 -1Q318 0 297 0Z" glyph-name="Edotaccent" horiz-adv-x="563" unicode="&#278;" /><glyph d="M388 690 259 732Q239 739 228.5 753.5Q218 768 218 790Q218 813 233 829Q248 845 265 845Q269 845 273 842.5Q277 840 287 828L395 706ZM24 0 26 25 63 31Q106 38 120 52.5Q134 67 138 113L172 508Q174 531 175 542.5Q176 554 176 560Q176 588 162.5 599Q149 610 114 615L78 621L80 646H544Q555 646 561.5 640.5Q568 635 568 624Q568 621 567.5 613.5Q567 606 566 598L554 462H531L527 495Q519 561 489 583Q459 605 390 605H271L250 361H423L448 449H471L453 233H429L420 321H246L223 48Q242 44 270.5 40.5Q299 37 328 37Q367 37 394.5 43.5Q422 50 442.5 65Q463 80 479.5 104.5Q496 129 512 166L525 195L546 190L509 18Q506 4 498 -1.5Q490 -7 475 -7Q469 -7 448 -6Q427 -5 401 -3.5Q375 -2 346.5 -1Q318 0 297 0Z" glyph-name="Egrave" horiz-adv-x="563" unicode="&#200;" /><glyph d="M250 737 255 785H480L476 737ZM24 0 26 25 63 31Q106 38 120 52.5Q134 67 138 113L172 508Q174 531 175 542.5Q176 554 176 560Q176 588 162.5 599Q149 610 114 615L78 621L80 646H544Q555 646 561.5 640.5Q568 635 568 624Q568 621 567.5 613.5Q567 606 566 598L554 462H531L527 495Q519 561 489 583Q459 605 390 605H271L250 361H423L448 449H471L453 233H429L420 321H246L223 48Q242 44 270.5 40.5Q299 37 328 37Q367 37 394.5 43.5Q422 50 442.5 65Q463 80 479.5 104.5Q496 129 512 166L525 195L546 190L509 18Q506 4 498 -1.5Q490 -7 475 -7Q469 -7 448 -6Q427 -5 401 -3.5Q375 -2 346.5 -1Q318 0 297 0Z" glyph-name="Emacron" horiz-adv-x="563" unicode="&#274;" /><glyph d="M345 -157 340 -133Q400 -96 427 -61.5Q454 -27 463 35L466 55L218 545L174 40L281 26L279 0H27L29 25L64 32Q98 39 112.5 52.5Q127 66 130 98L169 487Q171 507 173 526.5Q175 546 175 553Q175 581 163 593Q151 605 123 611L87 619L89 646H238Q257 646 268 640Q279 634 285 621L521 141L561 606L454 620L456 646H709L706 621L667 613Q634 606 622 593Q610 580 607 548L566 144Q560 88 550 41.5Q540 -5 516.5 -42.5Q493 -80 452 -109Q411 -138 345 -157Z" glyph-name="Eng" horiz-adv-x="664" unicode="&#330;" /><glyph d="M381 -247Q343 -247 321.5 -225Q300 -203 300 -164Q300 -121 333 -79.5Q366 -38 424 -5Q395 -4 358.5 -2Q322 0 297 0H24L26 25L63 31Q106 38 120 52.5Q134 67 138 113L172 508Q174 531 175 542.5Q176 554 176 560Q176 588 162.5 599Q149 610 114 615L78 621L80 646H544Q555 646 561.5 640.5Q568 635 568 624Q568 621 567.5 613.5Q567 606 566 598L554 462H531L527 495Q519 561 489 583Q459 605 390 605H271L250 361H423L448 449H471L453 233H429L420 321H246L223 48Q242 44 270.5 40.5Q299 37 328 37Q367 37 394.5 43.5Q422 50 442.5 65Q463 80 479.5 104.5Q496 129 512 166L525 195L546 190L509 18Q506 4 498 -1.5Q490 -7 475 -7H461Q419 -40 398.5 -74.5Q378 -109 378 -146Q378 -171 390.5 -184Q403 -197 427 -197Q438 -197 449.5 -193Q461 -189 477 -179L473 -200Q457 -222 432 -234.5Q407 -247 381 -247Z" glyph-name="Eogonek" horiz-adv-x="563" unicode="&#280;" /><glyph d="M24 0 26 25 63 31Q106 38 120 52.5Q134 67 138 113L156 320H94L97 356H159L171 499Q173 522 174.5 538Q176 554 176 560Q176 588 162.5 599Q149 610 114 615L78 621L80 646H230Q318 646 389.5 624Q461 602 510 561Q559 520 585.5 459Q612 398 612 320Q612 159 517.5 79.5Q423 0 253 0ZM289 38Q400 38 455.5 111Q511 184 511 313Q511 387 492.5 442Q474 497 442 533Q410 569 366 587Q322 605 272 606L250 356H367L364 320H247L223 47Q233 44 253.5 41Q274 38 289 38Z" glyph-name="Eth" horiz-adv-x="633" unicode="&#208;" /><glyph d="M40 266 46 306H98Q99 322 100 337Q101 352 103 366H60L66 406H111Q137 522 208.5 591Q280 660 380 660Q416 660 442 653.5Q468 647 501 630Q517 622 523.5 611.5Q530 601 530 584Q530 580 529 568Q528 556 526 530L519 449H495Q489 539 458 580.5Q427 622 367 622Q304 622 263 565.5Q222 509 208 406H448L442 366H204Q203 352 202 337Q201 322 201 306H428L422 266H201Q205 150 242 87Q279 24 342 24Q382 24 413 63Q444 102 490 212L514 209L490 85Q483 45 469.5 29Q456 13 425 4Q383 -8 365.5 -11Q348 -14 322 -14Q213 -14 156 56.5Q99 127 97 266Z" glyph-name="Euro" horiz-adv-x="551" unicode="&#8364;" /><glyph d="M47 208 51 245H97Q97 258 98.5 270Q100 282 102 293H56L60 330H110Q134 420 196.5 474Q259 528 345 528Q377 528 400 522.5Q423 517 452 504Q466 497 471.5 489Q477 481 477 467Q477 463 476.5 454Q476 445 474 424L468 359H447Q442 431 414.5 464.5Q387 498 334 498Q280 498 244 454Q208 410 195 330H409L403 293H191Q190 282 189 270Q188 258 188 245H391L385 208H189Q193 117 225 68Q257 19 312 19Q347 19 374.5 50.5Q402 82 442 170L463 167L442 68Q435 37 424 23.5Q413 10 385 3Q348 -7 332.5 -9Q317 -11 294 -11Q199 -11 149 44Q99 99 96 208Z" glyph-name="Euro.smcp" horiz-adv-x="507" /><glyph d="M24 0 26 25 63 31Q106 38 120 52.5Q134 67 138 113L172 508Q174 531 175 542.5Q176 554 176 560Q176 588 162.5 598.5Q149 609 114 615L78 621L80 646H538Q549 646 555.5 640.5Q562 635 562 624Q562 621 561.5 613.5Q561 606 560 598L548 462H525L521 495Q513 561 483 583Q453 605 384 605H272L250 353H417L442 441H466L447 225H423L414 313H246L222 39L344 27L342 0Z" glyph-name="F" horiz-adv-x="534" unicode="F" /><glyph d="M340 -14Q278 -14 228.5 8Q179 30 145.5 68Q112 106 94 158.5Q76 211 76 272Q76 362 100 434Q124 506 164.5 556Q205 606 260 633Q315 660 376 660Q431 660 470 649Q509 638 535 625Q550 618 556 608Q562 598 562 582Q562 578 561.5 567Q561 556 560 547L552 453H528Q516 543 474 582Q432 621 364 621Q326 621 292.5 601Q259 581 234 541.5Q209 502 194.5 441.5Q180 381 180 300Q180 170 228.5 97Q277 24 364 24Q382 24 397 28Q412 32 429 38L447 249L363 259L365 288H597L594 259L580 257Q557 254 546 243.5Q535 233 532 203L519 60Q518 40 511 29.5Q504 19 485 12Q449 -1 418.5 -7.5Q388 -14 340 -14Z" glyph-name="G" horiz-adv-x="601" unicode="G" /><glyph d="M364 696Q321 696 297 725Q273 754 273 811Q273 817 273 823Q273 829 274 836H292Q297 804 317 788Q337 772 371 772Q405 772 427.5 787.5Q450 803 462 836H480Q474 767 443 731.5Q412 696 364 696ZM340 -14Q278 -14 228.5 8Q179 30 145.5 68Q112 106 94 158.5Q76 211 76 272Q76 362 100 434Q124 506 164.5 556Q205 606 260 633Q315 660 376 660Q431 660 470 649Q509 638 535 625Q550 618 556 608Q562 598 562 582Q562 578 561.5 567Q561 556 560 547L552 453H528Q516 543 474 582Q432 621 364 621Q326 621 292.5 601Q259 581 234 541.5Q209 502 194.5 441.5Q180 381 180 300Q180 170 228.5 97Q277 24 364 24Q382 24 397 28Q412 32 429 38L447 249L363 259L365 288H597L594 259L580 257Q557 254 546 243.5Q535 233 532 203L519 60Q518 40 511 29.5Q504 19 485 12Q449 -1 418.5 -7.5Q388 -14 340 -14Z" glyph-name="Gbreve" horiz-adv-x="601" unicode="&#286;" /><glyph d="M269 696 253 700 329 805Q340 821 348 826.5Q356 832 371 832H384Q399 832 406.5 826.5Q414 821 422 805L479 700L463 696L371 764ZM340 -14Q278 -14 228.5 8Q179 30 145.5 68Q112 106 94 158.5Q76 211 76 272Q76 362 100 434Q124 506 164.5 556Q205 606 260 633Q315 660 376 660Q431 660 470 649Q509 638 535 625Q550 618 556 608Q562 598 562 582Q562 578 561.5 567Q561 556 560 547L552 453H528Q516 543 474 582Q432 621 364 621Q326 621 292.5 601Q259 581 234 541.5Q209 502 194.5 441.5Q180 381 180 300Q180 170 228.5 97Q277 24 364 24Q382 24 397 28Q412 32 429 38L447 249L363 259L365 288H597L594 259L580 257Q557 254 546 243.5Q535 233 532 203L519 60Q518 40 511 29.5Q504 19 485 12Q449 -1 418.5 -7.5Q388 -14 340 -14Z" glyph-name="Gcircumflex" horiz-adv-x="601" unicode="&#284;" /><glyph d="M340 -14Q278 -14 228.5 8Q179 30 145.5 68Q112 106 94 158.5Q76 211 76 272Q76 362 100 434Q124 506 164.5 556Q205 606 260 633Q315 660 376 660Q431 660 470 649Q509 638 535 625Q550 618 556 608Q562 598 562 582Q562 578 561.5 567Q561 556 560 547L552 453H528Q516 543 474 582Q432 621 364 621Q326 621 292.5 601Q259 581 234 541.5Q209 502 194.5 441.5Q180 381 180 300Q180 170 228.5 97Q277 24 364 24Q382 24 397 28Q412 32 429 38L447 249L363 259L365 288H597L594 259L580 257Q557 254 546 243.5Q535 233 532 203L519 60Q518 40 511 29.5Q504 19 485 12Q449 -1 418.5 -7.5Q388 -14 340 -14ZM239 -244 236 -230Q265 -208 276 -192.5Q287 -177 294 -160L276 -115Q274 -108 273 -105.5Q272 -103 272 -101Q272 -90 286 -80.5Q300 -71 317 -71Q341 -71 354 -85Q367 -99 367 -124Q367 -164 336.5 -192.5Q306 -221 239 -244Z" glyph-name="Gcommaaccent" horiz-adv-x="601" unicode="&#290;" /><glyph d="M366 716Q344 716 331 731.5Q318 747 318 769Q318 796 334 815Q350 834 378 834Q400 834 413 818.5Q426 803 426 781Q426 754 410 735Q394 716 366 716ZM340 -14Q278 -14 228.5 8Q179 30 145.5 68Q112 106 94 158.5Q76 211 76 272Q76 362 100 434Q124 506 164.5 556Q205 606 260 633Q315 660 376 660Q431 660 470 649Q509 638 535 625Q550 618 556 608Q562 598 562 582Q562 578 561.5 567Q561 556 560 547L552 453H528Q516 543 474 582Q432 621 364 621Q326 621 292.5 601Q259 581 234 541.5Q209 502 194.5 441.5Q180 381 180 300Q180 170 228.5 97Q277 24 364 24Q382 24 397 28Q412 32 429 38L447 249L363 259L365 288H597L594 259L580 257Q557 254 546 243.5Q535 233 532 203L519 60Q518 40 511 29.5Q504 19 485 12Q449 -1 418.5 -7.5Q388 -14 340 -14Z" glyph-name="Gdotaccent" horiz-adv-x="601" unicode="&#288;" /><glyph d="M415 -12Q344 -12 299.5 23.5Q255 59 255 116Q255 140 268.5 153.5Q282 167 304 167Q323 167 329 163Q335 159 337 145L355 45Q373 32 385 28Q397 24 419 24Q468 24 492.5 57Q517 90 517 155Q517 236 468 282Q419 328 327 332L330 355L507 605H363Q306 605 279.5 580Q253 555 249 498L208 0H13L15 25L52 31Q96 38 109.5 53Q123 68 127 113L158 465Q166 555 218.5 600.5Q271 646 367 646H606L610 624L421 365Q507 357 561.5 303.5Q616 250 616 173Q616 85 563.5 36.5Q511 -12 415 -12Z" glyph-name="Germandbls" horiz-adv-x="640" unicode="&#7838;" /><glyph d="M24 0 26 25 63 31Q106 38 120 52.5Q134 67 138 113L172 508Q174 531 174.5 542.5Q175 554 175 560Q175 588 162 598.5Q149 609 114 615L78 621L80 646H374L372 620L271 608L250 365H510L531 608L432 620L434 646H729L727 621L690 615Q647 608 633 593.5Q619 579 615 533L582 143Q580 118 579 105Q578 92 578 86Q578 58 591 47Q604 36 639 31L675 25L673 0H378L380 26L482 38L507 324H246L222 38L320 26L318 0Z" glyph-name="H" horiz-adv-x="697" unicode="H" /><glyph d="M24 0 26 25 63 31Q106 38 120 52.5Q134 67 138 113L169 478H99L102 514H173Q174 534 174.5 544.5Q175 555 175 560Q175 588 162 598.5Q149 609 114 615L78 621L80 646H374L372 620L271 608L263 514H523L531 608L432 620L434 646H729L727 621L690 615Q647 608 633 593.5Q619 579 615 533L613 514H687L684 478H610L582 143Q580 118 579 105Q578 92 578 86Q578 58 591 47Q604 36 639 31L675 25L673 0H378L380 26L482 38L507 324H246L222 38L320 26L318 0ZM250 365H510L520 478H260Z" glyph-name="Hbar" horiz-adv-x="697" unicode="&#294;" /><glyph d="M313 696 297 700 373 805Q384 821 392 826.5Q400 832 415 832H428Q443 832 450.5 826.5Q458 821 466 805L523 700L507 696L415 764ZM24 0 26 25 63 31Q106 38 120 52.5Q134 67 138 113L172 508Q174 531 174.5 542.5Q175 554 175 560Q175 588 162 598.5Q149 609 114 615L78 621L80 646H374L372 620L271 608L250 365H510L531 608L432 620L434 646H729L727 621L690 615Q647 608 633 593.5Q619 579 615 533L582 143Q580 118 579 105Q578 92 578 86Q578 58 591 47Q604 36 639 31L675 25L673 0H378L380 26L482 38L507 324H246L222 38L320 26L318 0Z" glyph-name="Hcircumflex" horiz-adv-x="697" unicode="&#292;" /><glyph d="M24 0 26 25 62 31Q105 38 119.5 52.5Q134 67 138 113L172 513Q173 531 174 542.5Q175 554 175 560Q175 588 161.5 598.5Q148 609 113 615L78 621L80 646H376L374 621L339 615Q296 608 282 593.5Q268 579 264 533L230 133Q229 116 228 104Q227 92 227 86Q227 58 240 47Q253 36 288 31L327 25L325 0Z" glyph-name="I" horiz-adv-x="346" unicode="I" /><glyph d="M24 0 26 25 62 31Q105 38 119.5 52.5Q134 67 138 113L172 513Q173 531 174 542.5Q175 554 175 560Q175 588 161.5 598.5Q148 609 113 615L78 621L80 646H376L374 621L339 615Q296 608 282 593.5Q268 579 264 533L230 133Q229 116 228 104Q227 92 227 86Q227 58 240 47Q253 36 288 31L327 25L325 0ZM344 -157 339 -133Q377 -109 401 -88Q425 -67 439 -38.5Q453 -10 460.5 33Q468 76 474 142L507 513Q508 531 509 542.5Q510 554 510 560Q510 588 496.5 599Q483 610 448 615L412 621L414 646H713L711 621L674 615Q631 608 617 593.5Q603 579 599 533L566 156Q560 83 546.5 32Q533 -19 508 -54.5Q483 -90 443 -114Q403 -138 344 -157Z" glyph-name="IJ" horiz-adv-x="661" unicode="&#306;" /><glyph d="M206 690 201 705 323 828Q335 841 340 843Q345 845 349 845Q359 845 374.5 833.5Q390 822 390 793Q390 766 373.5 752.5Q357 739 336 732ZM24 0 26 25 62 31Q105 38 119.5 52.5Q134 67 138 113L172 513Q173 531 174 542.5Q175 554 175 560Q175 588 161.5 598.5Q148 609 113 615L78 621L80 646H376L374 621L339 615Q296 608 282 593.5Q268 579 264 533L230 133Q229 116 228 104Q227 92 227 86Q227 58 240 47Q253 36 288 31L327 25L325 0Z" glyph-name="Iacute" horiz-adv-x="346" unicode="&#205;" /><glyph d="M233 696Q190 696 166 725Q142 754 142 811Q142 817 142 823Q142 829 143 836H161Q166 804 186 788Q206 772 240 772Q274 772 296.5 787.5Q319 803 331 836H349Q343 767 312 731.5Q281 696 233 696ZM24 0 26 25 62 31Q105 38 119.5 52.5Q134 67 138 113L172 513Q173 531 174 542.5Q175 554 175 560Q175 588 161.5 598.5Q148 609 113 615L78 621L80 646H376L374 621L339 615Q296 608 282 593.5Q268 579 264 533L230 133Q229 116 228 104Q227 92 227 86Q227 58 240 47Q253 36 288 31L327 25L325 0Z" glyph-name="Ibreve" horiz-adv-x="346" unicode="&#300;" /><glyph d="M138 696 122 700 198 805Q209 821 217 826.5Q225 832 240 832H253Q268 832 275.5 826.5Q283 821 291 805L348 700L332 696L240 764ZM24 0 26 25 62 31Q105 38 119.5 52.5Q134 67 138 113L172 513Q173 531 174 542.5Q175 554 175 560Q175 588 161.5 598.5Q148 609 113 615L78 621L80 646H376L374 621L339 615Q296 608 282 593.5Q268 579 264 533L230 133Q229 116 228 104Q227 92 227 86Q227 58 240 47Q253 36 288 31L327 25L325 0Z" glyph-name="Icircumflex" horiz-adv-x="346" unicode="&#206;" /><glyph d="M158 717Q137 717 124.5 730.5Q112 744 112 766Q112 792 127.5 809.5Q143 827 170 827Q191 827 203.5 813.5Q216 800 216 778Q216 752 200.5 734.5Q185 717 158 717ZM310 717Q289 717 276.5 730.5Q264 744 264 766Q264 792 279.5 809.5Q295 827 322 827Q343 827 355.5 813.5Q368 800 368 778Q368 752 352.5 734.5Q337 717 310 717ZM24 0 26 25 62 31Q105 38 119.5 52.5Q134 67 138 113L172 513Q173 531 174 542.5Q175 554 175 560Q175 588 161.5 598.5Q148 609 113 615L78 621L80 646H376L374 621L339 615Q296 608 282 593.5Q268 579 264 533L230 133Q229 116 228 104Q227 92 227 86Q227 58 240 47Q253 36 288 31L327 25L325 0Z" glyph-name="Idieresis" horiz-adv-x="346" unicode="&#207;" /><glyph d="M235 716Q213 716 200 731.5Q187 747 187 769Q187 796 203 815Q219 834 247 834Q269 834 282 818.5Q295 803 295 781Q295 754 279 735Q263 716 235 716ZM24 0 26 25 62 31Q105 38 119.5 52.5Q134 67 138 113L172 513Q173 531 174 542.5Q175 554 175 560Q175 588 161.5 598.5Q148 609 113 615L78 621L80 646H376L374 621L339 615Q296 608 282 593.5Q268 579 264 533L230 133Q229 116 228 104Q227 92 227 86Q227 58 240 47Q253 36 288 31L327 25L325 0Z" glyph-name="Idotaccent" horiz-adv-x="346" unicode="&#304;" /><glyph d="M262 690 133 732Q113 739 102.5 753.5Q92 768 92 790Q92 813 107 829Q122 845 139 845Q143 845 147 842.5Q151 840 161 828L269 706ZM24 0 26 25 62 31Q105 38 119.5 52.5Q134 67 138 113L172 513Q173 531 174 542.5Q175 554 175 560Q175 588 161.5 598.5Q148 609 113 615L78 621L80 646H376L374 621L339 615Q296 608 282 593.5Q268 579 264 533L230 133Q229 116 228 104Q227 92 227 86Q227 58 240 47Q253 36 288 31L327 25L325 0Z" glyph-name="Igrave" horiz-adv-x="346" unicode="&#204;" /><glyph d="M124 737 129 785H354L350 737ZM24 0 26 25 62 31Q105 38 119.5 52.5Q134 67 138 113L172 513Q173 531 174 542.5Q175 554 175 560Q175 588 161.5 598.5Q148 609 113 615L78 621L80 646H376L374 621L339 615Q296 608 282 593.5Q268 579 264 533L230 133Q229 116 228 104Q227 92 227 86Q227 58 240 47Q253 36 288 31L327 25L325 0Z" glyph-name="Imacron" horiz-adv-x="346" unicode="&#298;" /><glyph d="M117 -247Q80 -247 59 -224.5Q38 -202 38 -164Q38 -119 73 -76Q108 -33 169 0H24L26 25L62 31Q105 38 119.5 52.5Q134 67 138 113L172 513Q173 531 174 542.5Q175 554 175 560Q175 588 161.5 598.5Q148 609 113 615L78 621L80 646H376L374 621L339 615Q296 608 282 593.5Q268 579 264 533L230 133Q229 116 228 104Q227 92 227 86Q227 58 240 47Q253 36 288 31L327 25L325 0H205Q157 -41 135.5 -76Q114 -111 114 -146Q114 -169 126.5 -184Q139 -199 158 -199Q174 -199 185 -196Q196 -193 213 -183L209 -204Q188 -227 165 -237Q142 -247 117 -247Z" glyph-name="Iogonek" horiz-adv-x="346" unicode="&#302;" /><glyph d="M271 718Q240 718 225 732Q210 746 186 746Q173 746 163.5 738.5Q154 731 146 709H127Q136 763 155.5 790Q175 817 206 817Q231 817 248.5 803Q266 789 292 789Q308 789 317 799.5Q326 810 333 834L352 832Q345 774 325.5 746Q306 718 271 718ZM24 0 26 25 62 31Q105 38 119.5 52.5Q134 67 138 113L172 513Q173 531 174 542.5Q175 554 175 560Q175 588 161.5 598.5Q148 609 113 615L78 621L80 646H376L374 621L339 615Q296 608 282 593.5Q268 579 264 533L230 133Q229 116 228 104Q227 92 227 86Q227 58 240 47Q253 36 288 31L327 25L325 0Z" glyph-name="Itilde" horiz-adv-x="346" unicode="&#296;" /><glyph d="M-2 -157 -7 -133Q31 -109 55 -88Q79 -67 93 -38.5Q107 -10 114.5 33Q122 76 128 142L161 513Q162 531 163 542.5Q164 554 164 560Q164 588 150.5 599Q137 610 102 615L66 621L68 646H367L365 621L328 615Q285 608 271 593.5Q257 579 253 533L220 156Q214 83 200.5 32Q187 -19 162 -54.5Q137 -90 97 -114Q57 -138 -2 -157Z" glyph-name="J" horiz-adv-x="315" unicode="J" /><glyph d="M126 696 110 700 186 805Q197 821 205 826.5Q213 832 228 832H241Q256 832 263.5 826.5Q271 821 279 805L336 700L320 696L228 764ZM-2 -157 -7 -133Q31 -109 55 -88Q79 -67 93 -38.5Q107 -10 114.5 33Q122 76 128 142L161 513Q162 531 163 542.5Q164 554 164 560Q164 588 150.5 599Q137 610 102 615L66 621L68 646H367L365 621L328 615Q285 608 271 593.5Q257 579 253 533L220 156Q214 83 200.5 32Q187 -19 162 -54.5Q137 -90 97 -114Q57 -138 -2 -157Z" glyph-name="Jcircumflex" horiz-adv-x="315" unicode="&#308;" /><glyph d="M24 0 26 25 63 31Q106 38 120 52.5Q134 67 138 113L172 508Q174 531 175 542.5Q176 554 176 560Q176 588 162.5 599Q149 610 114 615L78 621L80 646H367L365 620L272 608L222 38L313 26L311 0ZM532 0Q499 0 480.5 9Q462 18 446 43L267 323L268 334L538 608L442 621L444 646H664L662 621L647 617Q627 612 611.5 606Q596 600 582 586L352 357L544 65Q555 48 568.5 40.5Q582 33 610 26L607 0Z" glyph-name="K" horiz-adv-x="602" unicode="K" /><glyph d="M24 0 26 25 63 31Q106 38 120 52.5Q134 67 138 113L172 508Q174 531 175 542.5Q176 554 176 560Q176 588 162.5 599Q149 610 114 615L78 621L80 646H367L365 620L272 608L222 38L313 26L311 0ZM532 0Q499 0 480.5 9Q462 18 446 43L267 323L268 334L538 608L442 621L444 646H664L662 621L647 617Q627 612 611.5 606Q596 600 582 586L352 357L544 65Q555 48 568.5 40.5Q582 33 610 26L607 0ZM261 -244 258 -230Q287 -208 298 -192.5Q309 -177 316 -160L298 -115Q296 -108 295 -105.5Q294 -103 294 -101Q294 -90 308 -80.5Q322 -71 339 -71Q363 -71 376 -85Q389 -99 389 -124Q389 -164 358.5 -192.5Q328 -221 261 -244Z" glyph-name="Kcommaaccent" horiz-adv-x="603" unicode="&#310;" /><glyph d="M434 -8Q428 -8 408 -6.5Q388 -5 362.5 -4Q337 -3 309 -1.5Q281 0 259 0H24L26 25L63 31Q106 38 120 52.5Q134 67 138 113L173 513Q174 531 175 542.5Q176 554 176 560Q176 588 162.5 598.5Q149 609 114 615L78 621L80 646H398L396 619L272 606L223 46Q233 44 250 42Q267 40 282 40Q352 40 394 69.5Q436 99 470 176L488 216L509 211L468 18Q465 4 456.5 -2Q448 -8 434 -8Z" glyph-name="L" horiz-adv-x="518" unicode="L" /><glyph d="M201 690 196 705 318 828Q330 841 335 843Q340 845 344 845Q354 845 369.5 833.5Q385 822 385 793Q385 766 368.5 752.5Q352 739 331 732ZM434 -8Q428 -8 408 -6.5Q388 -5 362.5 -4Q337 -3 309 -1.5Q281 0 259 0H24L26 25L63 31Q106 38 120 52.5Q134 67 138 113L173 513Q174 531 175 542.5Q176 554 176 560Q176 588 162.5 598.5Q149 609 114 615L78 621L80 646H398L396 619L272 606L223 46Q233 44 250 42Q267 40 282 40Q352 40 394 69.5Q436 99 470 176L488 216L509 211L468 18Q465 4 456.5 -2Q448 -8 434 -8Z" glyph-name="Lacute" horiz-adv-x="518" unicode="&#313;" /><glyph d="M432 445 416 452 445 611Q450 637 456 645Q462 653 475 653Q501 653 515.5 640Q530 627 530 605Q530 593 524.5 580Q519 567 506 549ZM434 -8Q428 -8 408 -6.5Q388 -5 362.5 -4Q337 -3 309 -1.5Q281 0 259 0H24L26 25L63 31Q106 38 120 52.5Q134 67 138 113L173 513Q174 531 175 542.5Q176 554 176 560Q176 588 162.5 598.5Q149 609 114 615L78 621L80 646H398L396 619L272 606L223 46Q233 44 250 42Q267 40 282 40Q352 40 394 69.5Q436 99 470 176L488 216L509 211L468 18Q465 4 456.5 -2Q448 -8 434 -8Z" glyph-name="Lcaron" horiz-adv-x="518" unicode="&#317;" /><glyph d="M434 -8Q428 -8 408 -6.5Q388 -5 362.5 -4Q337 -3 309 -1.5Q281 0 259 0H24L26 25L63 31Q106 38 120 52.5Q134 67 138 113L173 513Q174 531 175 542.5Q176 554 176 560Q176 588 162.5 598.5Q149 609 114 615L78 621L80 646H398L396 619L272 606L223 46Q233 44 250 42Q267 40 282 40Q352 40 394 69.5Q436 99 470 176L488 216L509 211L468 18Q465 4 456.5 -2Q448 -8 434 -8ZM191 -244 188 -230Q217 -208 228 -192.5Q239 -177 246 -160L228 -115Q226 -108 225 -105.5Q224 -103 224 -101Q224 -90 238 -80.5Q252 -71 269 -71Q293 -71 306 -85Q319 -99 319 -124Q319 -164 288.5 -192.5Q258 -221 191 -244Z" glyph-name="Lcommaaccent" horiz-adv-x="518" unicode="&#315;" /><glyph d="M926 -8Q920 -8 900 -6.5Q880 -5 854.5 -4Q829 -3 801 -1.5Q773 0 751 0H516L518 25L555 31Q598 38 612 52.5Q626 67 630 113L665 513Q666 531 667 542.5Q668 554 668 560Q668 588 654.5 598.5Q641 609 606 615L570 621L572 646H890L888 619L764 606L715 46Q725 44 742 42Q759 40 774 40Q844 40 886 69.5Q928 99 962 176L980 216L1001 211L960 18Q957 4 948.5 -2Q940 -8 926 -8ZM434 -8Q428 -8 408 -6.5Q388 -5 362.5 -4Q337 -3 309 -1.5Q281 0 259 0H24L26 25L63 31Q106 38 120 52.5Q134 67 138 113L173 513Q174 531 175 542.5Q176 554 176 560Q176 588 162.5 598.5Q149 609 114 615L78 621L80 646H398L396 619L272 606L223 46Q233 44 250 42Q267 40 282 40Q352 40 394 69.5Q436 99 470 176L488 216L509 211L468 18Q465 4 456.5 -2Q448 -8 434 -8ZM433 316Q411 316 398 330.5Q385 345 385 368Q385 395 400.5 414.5Q416 434 443 434Q465 434 478 419.5Q491 405 491 382Q491 355 475.5 335.5Q460 316 433 316Z" glyph-name="Ldot" horiz-adv-x="1010" unicode="&#319;" /><glyph d="M434 -8Q428 -8 408 -6.5Q388 -5 362.5 -4Q337 -3 309 -1.5Q281 0 259 0H24L26 25L63 31Q106 38 120 52.5Q134 67 138 113L152 279L74 232V276L157 325L173 513Q174 531 175 542.5Q176 554 176 560Q176 588 162.5 598.5Q149 609 114 615L78 621L80 646H398L396 619L272 606L252 382L374 455V410L248 335L223 46Q233 44 250 42Q267 40 282 40Q352 40 394 69.5Q436 99 470 176L488 216L509 211L468 18Q465 4 456.5 -2Q448 -8 434 -8Z" glyph-name="Lslash" horiz-adv-x="518" unicode="&#321;" /><glyph d="M25 0 27 24 67 33Q98 40 110.5 51Q123 62 127 90L184 497Q188 527 190 545Q192 563 192 568Q192 588 181 598.5Q170 609 142 613L96 621L98 646H266Q288 646 300 638Q312 630 316 613L425 208L618 646H828L826 621L783 614Q743 607 730.5 590.5Q718 574 716 533L697 131Q696 106 695.5 97.5Q695 89 695 84Q695 60 706 49.5Q717 39 744 34L783 27L781 0H498L500 26L603 39L626 558L414 84H393Q377 84 370.5 88Q364 92 360 108L234 553L168 38L266 26L263 0Z" glyph-name="M" horiz-adv-x="809" unicode="M" /><glyph d="M27 0 29 25 64 32Q98 39 112.5 52.5Q127 66 130 98L169 487Q171 507 173 526.5Q175 546 175 553Q175 581 163 593Q151 605 123 611L87 619L89 646H238Q257 646 268 640Q279 634 285 621L521 141L561 606L454 620L456 646H709L706 621L667 613Q634 606 622 593Q610 580 607 548L551 -3H524Q510 -3 500 2Q490 7 484 19L218 545L174 40L281 26L279 0Z" glyph-name="N" horiz-adv-x="664" unicode="N" /><glyph d="M383 690 378 705 500 828Q512 841 517 843Q522 845 526 845Q536 845 551.5 833.5Q567 822 567 793Q567 766 550.5 752.5Q534 739 513 732ZM27 0 29 25 64 32Q98 39 112.5 52.5Q127 66 130 98L169 487Q171 507 173 526.5Q175 546 175 553Q175 581 163 593Q151 605 123 611L87 619L89 646H238Q257 646 268 640Q279 634 285 621L521 141L561 606L454 620L456 646H709L706 621L667 613Q634 606 622 593Q610 580 607 548L551 -3H524Q510 -3 500 2Q490 7 484 19L218 545L174 40L281 26L279 0Z" glyph-name="Nacute" horiz-adv-x="664" unicode="&#323;" /><glyph d="M405 700Q389 700 382 706.5Q375 713 367 729L307 836L324 840L417 772L521 840L537 836L460 729Q449 713 440.5 706.5Q432 700 417 700ZM27 0 29 25 64 32Q98 39 112.5 52.5Q127 66 130 98L169 487Q171 507 173 526.5Q175 546 175 553Q175 581 163 593Q151 605 123 611L87 619L89 646H238Q257 646 268 640Q279 634 285 621L521 141L561 606L454 620L456 646H709L706 621L667 613Q634 606 622 593Q610 580 607 548L551 -3H524Q510 -3 500 2Q490 7 484 19L218 545L174 40L281 26L279 0Z" glyph-name="Ncaron" horiz-adv-x="664" unicode="&#327;" /><glyph d="M27 0 29 25 64 32Q98 39 112.5 52.5Q127 66 130 98L169 487Q171 507 173 526.5Q175 546 175 553Q175 581 163 593Q151 605 123 611L87 619L89 646H238Q257 646 268 640Q279 634 285 621L521 141L561 606L454 620L456 646H709L706 621L667 613Q634 606 622 593Q610 580 607 548L551 -3H524Q510 -3 500 2Q490 7 484 19L218 545L174 40L281 26L279 0ZM246 -244 243 -230Q272 -208 283 -192.5Q294 -177 301 -160L283 -115Q281 -108 280 -105.5Q279 -103 279 -101Q279 -90 293 -80.5Q307 -71 324 -71Q348 -71 361 -85Q374 -99 374 -124Q374 -164 343.5 -192.5Q313 -221 246 -244Z" glyph-name="Ncommaaccent" horiz-adv-x="664" unicode="&#325;" /><glyph d="M448 718Q417 718 402 732Q387 746 363 746Q350 746 340.5 738.5Q331 731 323 709H304Q313 763 332.5 790Q352 817 383 817Q408 817 425.5 803Q443 789 469 789Q485 789 494 799.5Q503 810 510 834L529 832Q522 774 502.5 746Q483 718 448 718ZM27 0 29 25 64 32Q98 39 112.5 52.5Q127 66 130 98L169 487Q171 507 173 526.5Q175 546 175 553Q175 581 163 593Q151 605 123 611L87 619L89 646H238Q257 646 268 640Q279 634 285 621L521 141L561 606L454 620L456 646H709L706 621L667 613Q634 606 622 593Q610 580 607 548L551 -3H524Q510 -3 500 2Q490 7 484 19L218 545L174 40L281 26L279 0Z" glyph-name="Ntilde" horiz-adv-x="664" unicode="&#209;" /><glyph d="M318 -14Q210 -14 143.5 63.5Q77 141 77 281Q77 362 98.5 432Q120 502 158.5 552.5Q197 603 250 631.5Q303 660 365 660Q473 660 539.5 582.5Q606 505 606 365Q606 284 584.5 214Q563 144 524.5 93.5Q486 43 433 14.5Q380 -14 318 -14ZM331 25Q405 25 453.5 117.5Q502 210 502 367Q502 484 461.5 552.5Q421 621 352 621Q278 621 229.5 528.5Q181 436 181 279Q181 162 221.5 93.5Q262 25 331 25Z" glyph-name="O" horiz-adv-x="626" unicode="O" /><glyph d="M771 -7Q765 -7 744 -6Q723 -5 697 -3.5Q671 -2 642.5 -1Q614 0 593 0H320Q210 0 143.5 72.5Q77 145 77 281Q77 362 101 429.5Q125 497 165.5 545Q206 593 260.5 619.5Q315 646 376 646H840Q851 646 857.5 640.5Q864 635 864 624Q864 621 863.5 613.5Q863 606 862 598L850 462H827L823 495Q815 561 785 583Q755 605 686 605H567L546 361H719L744 449H767L749 233H725L716 321H542L519 48Q538 44 566.5 40.5Q595 37 624 37Q663 37 690.5 43.5Q718 50 738.5 65Q759 80 775.5 104.5Q792 129 808 166L821 195L842 190L805 18Q802 4 794 -1.5Q786 -7 771 -7ZM339 39Q367 39 389.5 45Q412 51 430 69L472 557Q456 585 432 596Q408 607 374 607Q292 607 236.5 521Q181 435 181 279Q181 157 225 98Q269 39 339 39Z" glyph-name="OE" horiz-adv-x="859" unicode="&#338;" /><glyph d="M346 690 341 705 463 828Q475 841 480 843Q485 845 489 845Q499 845 514.5 833.5Q530 822 530 793Q530 766 513.5 752.5Q497 739 476 732ZM318 -14Q210 -14 143.5 63.5Q77 141 77 281Q77 362 98.5 432Q120 502 158.5 552.5Q197 603 250 631.5Q303 660 365 660Q473 660 539.5 582.5Q606 505 606 365Q606 284 584.5 214Q563 144 524.5 93.5Q486 43 433 14.5Q380 -14 318 -14ZM331 25Q405 25 453.5 117.5Q502 210 502 367Q502 484 461.5 552.5Q421 621 352 621Q278 621 229.5 528.5Q181 436 181 279Q181 162 221.5 93.5Q262 25 331 25Z" glyph-name="Oacute" horiz-adv-x="626" unicode="&#211;" /><glyph d="M373 696Q330 696 306 725Q282 754 282 811Q282 817 282 823Q282 829 283 836H301Q306 804 326 788Q346 772 380 772Q414 772 436.5 787.5Q459 803 471 836H489Q483 767 452 731.5Q421 696 373 696ZM318 -14Q210 -14 143.5 63.5Q77 141 77 281Q77 362 98.5 432Q120 502 158.5 552.5Q197 603 250 631.5Q303 660 365 660Q473 660 539.5 582.5Q606 505 606 365Q606 284 584.5 214Q563 144 524.5 93.5Q486 43 433 14.5Q380 -14 318 -14ZM331 25Q405 25 453.5 117.5Q502 210 502 367Q502 484 461.5 552.5Q421 621 352 621Q278 621 229.5 528.5Q181 436 181 279Q181 162 221.5 93.5Q262 25 331 25Z" glyph-name="Obreve" horiz-adv-x="626" unicode="&#334;" /><glyph d="M278 696 262 700 338 805Q349 821 357 826.5Q365 832 380 832H393Q408 832 415.5 826.5Q423 821 431 805L488 700L472 696L380 764ZM318 -14Q210 -14 143.5 63.5Q77 141 77 281Q77 362 98.5 432Q120 502 158.5 552.5Q197 603 250 631.5Q303 660 365 660Q473 660 539.5 582.5Q606 505 606 365Q606 284 584.5 214Q563 144 524.5 93.5Q486 43 433 14.5Q380 -14 318 -14ZM331 25Q405 25 453.5 117.5Q502 210 502 367Q502 484 461.5 552.5Q421 621 352 621Q278 621 229.5 528.5Q181 436 181 279Q181 162 221.5 93.5Q262 25 331 25Z" glyph-name="Ocircumflex" horiz-adv-x="626" unicode="&#212;" /><glyph d="M298 717Q277 717 264.5 730.5Q252 744 252 766Q252 792 267.5 809.5Q283 827 310 827Q331 827 343.5 813.5Q356 800 356 778Q356 752 340.5 734.5Q325 717 298 717ZM450 717Q429 717 416.5 730.5Q404 744 404 766Q404 792 419.5 809.5Q435 827 462 827Q483 827 495.5 813.5Q508 800 508 778Q508 752 492.5 734.5Q477 717 450 717ZM318 -14Q210 -14 143.5 63.5Q77 141 77 281Q77 362 98.5 432Q120 502 158.5 552.5Q197 603 250 631.5Q303 660 365 660Q473 660 539.5 582.5Q606 505 606 365Q606 284 584.5 214Q563 144 524.5 93.5Q486 43 433 14.5Q380 -14 318 -14ZM331 25Q405 25 453.5 117.5Q502 210 502 367Q502 484 461.5 552.5Q421 621 352 621Q278 621 229.5 528.5Q181 436 181 279Q181 162 221.5 93.5Q262 25 331 25Z" glyph-name="Odieresis" horiz-adv-x="626" unicode="&#214;" /><glyph d="M402 690 273 732Q253 739 242.5 753.5Q232 768 232 790Q232 813 247 829Q262 845 279 845Q283 845 287 842.5Q291 840 301 828L409 706ZM318 -14Q210 -14 143.5 63.5Q77 141 77 281Q77 362 98.5 432Q120 502 158.5 552.5Q197 603 250 631.5Q303 660 365 660Q473 660 539.5 582.5Q606 505 606 365Q606 284 584.5 214Q563 144 524.5 93.5Q486 43 433 14.5Q380 -14 318 -14ZM331 25Q405 25 453.5 117.5Q502 210 502 367Q502 484 461.5 552.5Q421 621 352 621Q278 621 229.5 528.5Q181 436 181 279Q181 162 221.5 93.5Q262 25 331 25Z" glyph-name="Ograve" horiz-adv-x="626" unicode="&#210;" /><glyph d="M294 688 282 699 354 846Q364 868 370 874.5Q376 881 383 881Q406 881 422 867Q438 853 438 832Q438 819 429.5 805Q421 791 406 779ZM407 696 402 711 516 827Q527 839 531.5 842Q536 845 542 845Q560 845 573.5 830Q587 815 587 795Q587 776 573 761.5Q559 747 531 737ZM318 -14Q210 -14 143.5 63.5Q77 141 77 281Q77 362 98.5 432Q120 502 158.5 552.5Q197 603 250 631.5Q303 660 365 660Q473 660 539.5 582.5Q606 505 606 365Q606 284 584.5 214Q563 144 524.5 93.5Q486 43 433 14.5Q380 -14 318 -14ZM331 25Q405 25 453.5 117.5Q502 210 502 367Q502 484 461.5 552.5Q421 621 352 621Q278 621 229.5 528.5Q181 436 181 279Q181 162 221.5 93.5Q262 25 331 25Z" glyph-name="Ohungarumlaut" horiz-adv-x="626" unicode="&#336;" /><glyph d="M264 737 269 785H494L490 737ZM318 -14Q210 -14 143.5 63.5Q77 141 77 281Q77 362 98.5 432Q120 502 158.5 552.5Q197 603 250 631.5Q303 660 365 660Q473 660 539.5 582.5Q606 505 606 365Q606 284 584.5 214Q563 144 524.5 93.5Q486 43 433 14.5Q380 -14 318 -14ZM331 25Q405 25 453.5 117.5Q502 210 502 367Q502 484 461.5 552.5Q421 621 352 621Q278 621 229.5 528.5Q181 436 181 279Q181 162 221.5 93.5Q262 25 331 25Z" glyph-name="Omacron" horiz-adv-x="626" unicode="&#332;" /><glyph d="M85 -8Q72 -8 66 -2Q60 4 59 18L53 199L73 204L83 164Q102 88 132.5 59Q163 30 226 29L316 28Q277 42 244 70.5Q211 99 187.5 138Q164 177 150.5 224.5Q137 272 137 323Q137 392 160.5 453.5Q184 515 225 560Q266 605 321 631.5Q376 658 439 658Q552 658 621 584.5Q690 511 690 392Q690 333 671 275Q652 217 619.5 167.5Q587 118 543 81Q499 44 449 28L536 29Q599 30 634.5 58.5Q670 87 703 164L719 204L739 199L701 18Q698 4 691 -2Q684 -8 671 -8Q667 -8 650.5 -6.5Q634 -5 611.5 -4Q589 -3 563.5 -1.5Q538 0 516 0H406L408 31Q445 39 479 73.5Q513 108 538.5 158.5Q564 209 579 272.5Q594 336 594 401Q594 502 551 560.5Q508 619 433 619Q340 619 286.5 536.5Q233 454 233 311Q233 260 242.5 213.5Q252 167 268.5 130.5Q285 94 308.5 68.5Q332 43 359 34L356 0H241Q220 0 194.5 -1.5Q169 -3 146 -4Q123 -5 106 -6.5Q89 -8 85 -8Z" glyph-name="Omega" horiz-adv-x="757" unicode="&#8486;" /><glyph d="M26 -20 121 94Q100 130 88.5 177Q77 224 77 281Q77 362 98.5 432Q120 502 158.5 552.5Q197 603 250 631.5Q303 660 365 660Q416 660 459.5 642Q503 624 534 590L597 666H650L559 557Q581 520 593.5 472Q606 424 606 365Q606 284 584.5 214Q563 144 524.5 93.5Q486 43 433 14.5Q380 -14 318 -14Q265 -14 221 5Q177 24 146 60L79 -20ZM181 279Q181 251 183.5 225.5Q186 200 190 178L477 522Q458 569 426.5 595Q395 621 352 621Q278 621 229.5 528.5Q181 436 181 279ZM331 25Q405 25 453.5 117.5Q502 210 502 367Q502 397 499 424Q496 451 491 475L204 130Q223 80 255.5 52.5Q288 25 331 25Z" glyph-name="Oslash" horiz-adv-x="626" unicode="&#216;" /><glyph d="M346 690 341 705 463 828Q475 841 480 843Q485 845 489 845Q499 845 514.5 833.5Q530 822 530 793Q530 766 513.5 752.5Q497 739 476 732ZM26 -20 121 94Q100 130 88.5 177Q77 224 77 281Q77 362 98.5 432Q120 502 158.5 552.5Q197 603 250 631.5Q303 660 365 660Q416 660 459.5 642Q503 624 534 590L597 666H650L559 557Q581 520 593.5 472Q606 424 606 365Q606 284 584.5 214Q563 144 524.5 93.5Q486 43 433 14.5Q380 -14 318 -14Q265 -14 221 5Q177 24 146 60L79 -20ZM181 279Q181 251 183.5 225.5Q186 200 190 178L477 522Q458 569 426.5 595Q395 621 352 621Q278 621 229.5 528.5Q181 436 181 279ZM331 25Q405 25 453.5 117.5Q502 210 502 367Q502 397 499 424Q496 451 491 475L204 130Q223 80 255.5 52.5Q288 25 331 25Z" glyph-name="Oslashacute" horiz-adv-x="626" unicode="&#510;" /><glyph d="M411 718Q380 718 365 732Q350 746 326 746Q313 746 303.5 738.5Q294 731 286 709H267Q276 763 295.5 790Q315 817 346 817Q371 817 388.5 803Q406 789 432 789Q448 789 457 799.5Q466 810 473 834L492 832Q485 774 465.5 746Q446 718 411 718ZM318 -14Q210 -14 143.5 63.5Q77 141 77 281Q77 362 98.5 432Q120 502 158.5 552.5Q197 603 250 631.5Q303 660 365 660Q473 660 539.5 582.5Q606 505 606 365Q606 284 584.5 214Q563 144 524.5 93.5Q486 43 433 14.5Q380 -14 318 -14ZM331 25Q405 25 453.5 117.5Q502 210 502 367Q502 484 461.5 552.5Q421 621 352 621Q278 621 229.5 528.5Q181 436 181 279Q181 162 221.5 93.5Q262 25 331 25Z" glyph-name="Otilde" horiz-adv-x="626" unicode="&#213;" /><glyph d="M24 0 26 25 63 31Q106 38 120 52.5Q134 67 138 113L172 508Q174 531 175 542.5Q176 554 176 560Q176 588 162.5 598.5Q149 609 114 615L78 621L80 646H312Q422 646 488 594.5Q554 543 554 455Q554 359 492.5 310.5Q431 262 316 262Q295 262 274 266.5Q253 271 243 275L222 39L344 27L342 0ZM306 299Q381 299 416 338Q451 377 451 455Q451 533 410 571Q369 609 306 609Q296 609 287.5 608Q279 607 272 606L246 311Q256 306 271 302.5Q286 299 306 299Z" glyph-name="P" horiz-adv-x="542" unicode="P" /><glyph d="M513 -150Q470 -150 439 -140Q408 -130 377 -97L337 -56Q318 -37 292.5 -14Q267 9 239 9Q208 9 186.5 -6.5Q165 -22 136 -51L120 -33Q142 -8 161 9.5Q180 27 196 37Q141 71 110.5 134Q80 197 80 281Q80 362 101.5 432Q123 502 160.5 552.5Q198 603 250.5 631.5Q303 660 364 660Q422 660 467 639Q512 618 543 579.5Q574 541 590 486Q606 431 606 365Q606 300 589 240.5Q572 181 542 133.5Q512 86 470 53.5Q428 21 379 9Q384 4 390 -2Q396 -8 402 -14L462 -71Q492 -99 512.5 -109Q533 -119 568 -120L566 -142Q559 -145 542 -147.5Q525 -150 513 -150ZM280 62Q305 62 323 53Q341 44 357 29Q414 48 457.5 136.5Q501 225 501 367Q501 484 463 552.5Q425 621 356 621Q275 621 230 528.5Q185 436 185 279Q185 194 198.5 139.5Q212 85 239 57Q250 60 260 61Q270 62 280 62Z" glyph-name="Q" horiz-adv-x="626" unicode="Q" /><glyph d="M24 0 26 25 63 31Q106 38 120 52.5Q134 67 138 113L172 508Q174 531 175 542.5Q176 554 176 560Q176 588 162.5 599Q149 610 114 615L78 621L80 646H306Q416 646 480.5 600.5Q545 555 545 471Q545 393 488.5 351.5Q432 310 338 308Q370 301 398.5 283.5Q427 266 447 232Q473 187 485.5 148Q498 109 517 68Q524 53 537 41Q550 29 581 25L579 0H526Q489 0 463.5 10.5Q438 21 419 57Q403 88 390 130Q377 172 366 199Q345 248 324.5 272.5Q304 297 263 297H245L222 38L316 26L314 0ZM297 333Q364 333 403.5 367Q443 401 443 474Q443 538 406 573.5Q369 609 313 609Q300 609 289.5 608.5Q279 608 272 607L249 339Q259 337 270.5 335Q282 333 297 333Z" glyph-name="R" horiz-adv-x="567" unicode="R" /><glyph d="M305 690 300 705 422 828Q434 841 439 843Q444 845 448 845Q458 845 473.5 833.5Q489 822 489 793Q489 766 472.5 752.5Q456 739 435 732ZM24 0 26 25 63 31Q106 38 120 52.5Q134 67 138 113L172 508Q174 531 175 542.5Q176 554 176 560Q176 588 162.5 599Q149 610 114 615L78 621L80 646H306Q416 646 480.5 600.5Q545 555 545 471Q545 393 488.5 351.5Q432 310 338 308Q370 301 398.5 283.5Q427 266 447 232Q473 187 485.5 148Q498 109 517 68Q524 53 537 41Q550 29 581 25L579 0H526Q489 0 463.5 10.5Q438 21 419 57Q403 88 390 130Q377 172 366 199Q345 248 324.5 272.5Q304 297 263 297H245L222 38L316 26L314 0ZM297 333Q364 333 403.5 367Q443 401 443 474Q443 538 406 573.5Q369 609 313 609Q300 609 289.5 608.5Q279 608 272 607L249 339Q259 337 270.5 335Q282 333 297 333Z" glyph-name="Racute" horiz-adv-x="567" unicode="&#340;" /><glyph d="M327 700Q311 700 304 706.5Q297 713 289 729L229 836L246 840L339 772L443 840L459 836L382 729Q371 713 362.5 706.5Q354 700 339 700ZM24 0 26 25 63 31Q106 38 120 52.5Q134 67 138 113L172 508Q174 531 175 542.5Q176 554 176 560Q176 588 162.5 599Q149 610 114 615L78 621L80 646H306Q416 646 480.5 600.5Q545 555 545 471Q545 393 488.5 351.5Q432 310 338 308Q370 301 398.5 283.5Q427 266 447 232Q473 187 485.5 148Q498 109 517 68Q524 53 537 41Q550 29 581 25L579 0H526Q489 0 463.5 10.5Q438 21 419 57Q403 88 390 130Q377 172 366 199Q345 248 324.5 272.5Q304 297 263 297H245L222 38L316 26L314 0ZM297 333Q364 333 403.5 367Q443 401 443 474Q443 538 406 573.5Q369 609 313 609Q300 609 289.5 608.5Q279 608 272 607L249 339Q259 337 270.5 335Q282 333 297 333Z" glyph-name="Rcaron" horiz-adv-x="567" unicode="&#344;" /><glyph d="M24 0 26 25 63 31Q106 38 120 52.5Q134 67 138 113L172 508Q174 531 175 542.5Q176 554 176 560Q176 588 162.5 599Q149 610 114 615L78 621L80 646H306Q416 646 480.5 600.5Q545 555 545 471Q545 393 488.5 351.5Q432 310 338 308Q370 301 398.5 283.5Q427 266 447 232Q473 187 485.5 148Q498 109 517 68Q524 53 537 41Q550 29 581 25L579 0H526Q489 0 463.5 10.5Q438 21 419 57Q403 88 390 130Q377 172 366 199Q345 248 324.5 272.5Q304 297 263 297H245L222 38L316 26L314 0ZM297 333Q364 333 403.5 367Q443 401 443 474Q443 538 406 573.5Q369 609 313 609Q300 609 289.5 608.5Q279 608 272 607L249 339Q259 337 270.5 335Q282 333 297 333ZM237 -244 234 -230Q263 -208 274 -192.5Q285 -177 292 -160L274 -115Q272 -108 271 -105.5Q270 -103 270 -101Q270 -90 284 -80.5Q298 -71 315 -71Q339 -71 352 -85Q365 -99 365 -124Q365 -164 334.5 -192.5Q304 -221 237 -244Z" glyph-name="Rcommaaccent" horiz-adv-x="567" unicode="&#342;" /><glyph d="M231 -14Q192 -14 163.5 -10.5Q135 -7 110 2Q80 12 68.5 23Q57 34 54 54Q53 60 52.5 70Q52 80 52 89V200L77 204Q95 112 132 68Q169 24 231 24Q291 24 325 54Q359 84 359 144Q359 183 335 215Q311 247 261 272L237 284Q156 324 120 368.5Q84 413 84 479Q84 556 138.5 608Q193 660 277 660Q319 660 351 654Q383 648 414 634Q428 627 434.5 616Q441 605 441 587Q441 582 440 569Q439 556 438 546L429 466H406Q398 546 365.5 584Q333 622 273 622Q223 622 192.5 593Q162 564 162 511Q162 469 189.5 439Q217 409 280 378L308 364Q379 328 411 284.5Q443 241 443 181Q443 135 427 99Q411 63 383 38Q355 13 316 -0.5Q277 -14 231 -14Z" glyph-name="S" horiz-adv-x="468" unicode="S" /><glyph d="M246 690 241 705 363 828Q375 841 380 843Q385 845 389 845Q399 845 414.5 833.5Q430 822 430 793Q430 766 413.5 752.5Q397 739 376 732ZM231 -14Q192 -14 163.5 -10.5Q135 -7 110 2Q80 12 68.5 23Q57 34 54 54Q53 60 52.5 70Q52 80 52 89V200L77 204Q95 112 132 68Q169 24 231 24Q291 24 325 54Q359 84 359 144Q359 183 335 215Q311 247 261 272L237 284Q156 324 120 368.5Q84 413 84 479Q84 556 138.5 608Q193 660 277 660Q319 660 351 654Q383 648 414 634Q428 627 434.5 616Q441 605 441 587Q441 582 440 569Q439 556 438 546L429 466H406Q398 546 365.5 584Q333 622 273 622Q223 622 192.5 593Q162 564 162 511Q162 469 189.5 439Q217 409 280 378L308 364Q379 328 411 284.5Q443 241 443 181Q443 135 427 99Q411 63 383 38Q355 13 316 -0.5Q277 -14 231 -14Z" glyph-name="Sacute" horiz-adv-x="468" unicode="&#346;" /><glyph d="M268 700Q252 700 245 706.5Q238 713 230 729L170 836L187 840L280 772L384 840L400 836L323 729Q312 713 303.5 706.5Q295 700 280 700ZM231 -14Q192 -14 163.5 -10.5Q135 -7 110 2Q80 12 68.5 23Q57 34 54 54Q53 60 52.5 70Q52 80 52 89V200L77 204Q95 112 132 68Q169 24 231 24Q291 24 325 54Q359 84 359 144Q359 183 335 215Q311 247 261 272L237 284Q156 324 120 368.5Q84 413 84 479Q84 556 138.5 608Q193 660 277 660Q319 660 351 654Q383 648 414 634Q428 627 434.5 616Q441 605 441 587Q441 582 440 569Q439 556 438 546L429 466H406Q398 546 365.5 584Q333 622 273 622Q223 622 192.5 593Q162 564 162 511Q162 469 189.5 439Q217 409 280 378L308 364Q379 328 411 284.5Q443 241 443 181Q443 135 427 99Q411 63 383 38Q355 13 316 -0.5Q277 -14 231 -14Z" glyph-name="Scaron" horiz-adv-x="468" unicode="&#352;" /><glyph d="M182 -247Q146 -247 120.5 -227.5Q95 -208 95 -180Q95 -167 104 -157.5Q113 -148 126 -148Q138 -148 142 -150.5Q146 -153 147 -160L155 -217Q160 -221 164.5 -222.5Q169 -224 175 -224Q196 -224 208.5 -209.5Q221 -195 221 -170Q221 -146 207.5 -129.5Q194 -113 168 -105L207 -14Q177 -13 154 -9Q131 -5 110 2Q80 12 68.5 23Q57 34 54 54Q53 60 52.5 70Q52 80 52 89V200L77 204Q95 112 132 68Q169 24 231 24Q291 24 325 54Q359 84 359 144Q359 183 335 215Q311 247 261 272L237 284Q156 324 120 368.5Q84 413 84 479Q84 556 138.5 608Q193 660 277 660Q319 660 351 654Q383 648 414 634Q428 627 434.5 616Q441 605 441 587Q441 582 440 569Q439 556 438 546L429 466H406Q398 546 365.5 584Q333 622 273 622Q223 622 192.5 593Q162 564 162 511Q162 469 189.5 439Q217 409 280 378L308 364Q379 328 411 284.5Q443 241 443 181Q443 94 388.5 43Q334 -8 250 -13L222 -61Q258 -71 276 -93Q294 -115 294 -148Q294 -191 262.5 -219Q231 -247 182 -247Z" glyph-name="Scedilla" horiz-adv-x="468" unicode="&#350;" /><glyph d="M178 696 162 700 238 805Q249 821 257 826.5Q265 832 280 832H293Q308 832 315.5 826.5Q323 821 331 805L388 700L372 696L280 764ZM231 -14Q192 -14 163.5 -10.5Q135 -7 110 2Q80 12 68.5 23Q57 34 54 54Q53 60 52.5 70Q52 80 52 89V200L77 204Q95 112 132 68Q169 24 231 24Q291 24 325 54Q359 84 359 144Q359 183 335 215Q311 247 261 272L237 284Q156 324 120 368.5Q84 413 84 479Q84 556 138.5 608Q193 660 277 660Q319 660 351 654Q383 648 414 634Q428 627 434.5 616Q441 605 441 587Q441 582 440 569Q439 556 438 546L429 466H406Q398 546 365.5 584Q333 622 273 622Q223 622 192.5 593Q162 564 162 511Q162 469 189.5 439Q217 409 280 378L308 364Q379 328 411 284.5Q443 241 443 181Q443 135 427 99Q411 63 383 38Q355 13 316 -0.5Q277 -14 231 -14Z" glyph-name="Scircumflex" horiz-adv-x="468" unicode="&#348;" /><glyph d="M231 -14Q192 -14 163.5 -10.5Q135 -7 110 2Q80 12 68.5 23Q57 34 54 54Q53 60 52.5 70Q52 80 52 89V200L77 204Q95 112 132 68Q169 24 231 24Q291 24 325 54Q359 84 359 144Q359 183 335 215Q311 247 261 272L237 284Q156 324 120 368.5Q84 413 84 479Q84 556 138.5 608Q193 660 277 660Q319 660 351 654Q383 648 414 634Q428 627 434.5 616Q441 605 441 587Q441 582 440 569Q439 556 438 546L429 466H406Q398 546 365.5 584Q333 622 273 622Q223 622 192.5 593Q162 564 162 511Q162 469 189.5 439Q217 409 280 378L308 364Q379 328 411 284.5Q443 241 443 181Q443 135 427 99Q411 63 383 38Q355 13 316 -0.5Q277 -14 231 -14ZM141 -244 138 -230Q167 -208 178 -192.5Q189 -177 196 -160L178 -115Q176 -108 175 -105.5Q174 -103 174 -101Q174 -90 188 -80.5Q202 -71 219 -71Q243 -71 256 -85Q269 -99 269 -124Q269 -164 238.5 -192.5Q208 -221 141 -244Z" glyph-name="Scommaaccent" horiz-adv-x="468" unicode="&#536;" /><glyph d="M120 0 122 25 163 33Q207 42 221 55.5Q235 69 239 115L281 605H256Q196 605 161.5 580.5Q127 556 109 492L99 456H76L90 620Q91 633 98 639.5Q105 646 118 646H550Q561 646 567.5 640.5Q574 635 574 624Q574 620 573 611.5Q572 603 571 587L559 456H535L532 492Q527 556 495 580.5Q463 605 403 605H372L333 147Q331 125 329.5 109.5Q328 94 328 88Q328 60 341.5 50Q355 40 391 34L445 25L442 0Z" glyph-name="T" horiz-adv-x="555" unicode="T" /><glyph d="M120 0 122 25 163 33Q207 42 221 55.5Q235 69 239 115L255 300H132L135 336H258L281 605H256Q196 605 161.5 580.5Q127 556 109 492L99 456H76L90 620Q91 633 98 639.5Q105 646 118 646H550Q561 646 567.5 640.5Q574 635 574 624Q574 620 573 611.5Q572 603 571 587L559 456H535L532 492Q527 556 495 580.5Q463 605 403 605H372L349 336H476L473 300H346L333 147Q331 125 329.5 109.5Q328 94 328 88Q328 60 341.5 50Q355 40 391 34L445 25L442 0Z" glyph-name="Tbar" horiz-adv-x="556" unicode="&#358;" /><glyph d="M326 700Q310 700 303 706.5Q296 713 288 729L228 836L245 840L338 772L442 840L458 836L381 729Q370 713 361.5 706.5Q353 700 338 700ZM120 0 122 25 163 33Q207 42 221 55.5Q235 69 239 115L281 605H256Q196 605 161.5 580.5Q127 556 109 492L99 456H76L90 620Q91 633 98 639.5Q105 646 118 646H550Q561 646 567.5 640.5Q574 635 574 624Q574 620 573 611.5Q572 603 571 587L559 456H535L532 492Q527 556 495 580.5Q463 605 403 605H372L333 147Q331 125 329.5 109.5Q328 94 328 88Q328 60 341.5 50Q355 40 391 34L445 25L442 0Z" glyph-name="Tcaron" horiz-adv-x="556" unicode="&#356;" /><glyph d="M212 -247Q176 -247 150.5 -227.5Q125 -208 125 -180Q125 -167 134 -157.5Q143 -148 156 -148Q168 -148 172 -150.5Q176 -153 177 -160L185 -217Q190 -221 194.5 -222.5Q199 -224 205 -224Q226 -224 238.5 -209.5Q251 -195 251 -170Q251 -146 237.5 -129.5Q224 -113 198 -105L243 0H120L122 25L163 33Q207 42 221 55.5Q235 69 239 115L281 605H256Q196 605 161.5 580.5Q127 556 109 492L99 456H76L90 620Q91 633 98 639.5Q105 646 118 646H550Q561 646 567.5 640.5Q574 635 574 624Q574 620 573 611.5Q572 603 571 587L559 456H535L532 492Q527 556 495 580.5Q463 605 403 605H372L333 147Q331 125 329.5 109.5Q328 94 328 88Q328 60 341.5 50Q355 40 391 34L445 25L442 0H288L252 -61Q288 -71 306 -93Q324 -115 324 -148Q324 -191 292.5 -219Q261 -247 212 -247Z" glyph-name="Tcedilla" horiz-adv-x="556" unicode="&#354;" /><glyph d="M120 0 122 25 163 33Q207 42 221 55.5Q235 69 239 115L281 605H256Q196 605 161.5 580.5Q127 556 109 492L99 456H76L90 620Q91 633 98 639.5Q105 646 118 646H550Q561 646 567.5 640.5Q574 635 574 624Q574 620 573 611.5Q572 603 571 587L559 456H535L532 492Q527 556 495 580.5Q463 605 403 605H372L333 147Q331 125 329.5 109.5Q328 94 328 88Q328 60 341.5 50Q355 40 391 34L445 25L442 0ZM171 -244 168 -230Q197 -208 208 -192.5Q219 -177 226 -160L208 -115Q206 -108 205 -105.5Q204 -103 204 -101Q204 -90 218 -80.5Q232 -71 249 -71Q273 -71 286 -85Q299 -99 299 -124Q299 -164 268.5 -192.5Q238 -221 171 -244Z" glyph-name="Tcommaaccent" horiz-adv-x="556" unicode="&#538;" /><glyph d="M24 0 26 25 62 31Q105 38 119.5 52.5Q134 67 138 113L172 513Q173 531 174 542.5Q175 554 175 560Q175 588 161.5 598.5Q148 609 113 615L78 621L80 646H378L376 621L339 615Q296 608 282 593.5Q268 579 264 533L263 515Q392 515 467.5 473Q543 431 543 337Q543 242 481.5 194.5Q420 147 289 147Q276 147 262 148.5Q248 150 232 152L230 133Q229 116 228 104Q227 92 227 86Q227 58 240 47Q253 36 288 31L324 25L322 0ZM272 182Q344 182 391 214.5Q438 247 438 335Q438 407 394.5 443.5Q351 480 285 480Q278 480 271.5 480Q265 480 259 479L235 187Q242 186 253.5 184Q265 182 272 182Z" glyph-name="Thorn" horiz-adv-x="545" unicode="&#222;" /><glyph d="M321 -12Q225 -12 173.5 45.5Q122 103 122 210Q122 223 123.5 248.5Q125 274 126 288L146 513Q147 528 148 540.5Q149 553 149 559Q149 587 136 597.5Q123 608 87 615L61 620L63 646H355L353 619L247 608L218 274Q217 259 215 233.5Q213 208 213 195Q213 114 246.5 71Q280 28 343 28Q412 28 451 81.5Q490 135 501 258L532 608L442 619L444 646H684L682 620L652 615Q609 608 596 593.5Q583 579 579 533L555 255Q543 115 485.5 51.5Q428 -12 321 -12Z" glyph-name="U" horiz-adv-x="635" unicode="U" /><glyph d="M373 690 368 705 490 828Q502 841 507 843Q512 845 516 845Q526 845 541.5 833.5Q557 822 557 793Q557 766 540.5 752.5Q524 739 503 732ZM321 -12Q225 -12 173.5 45.5Q122 103 122 210Q122 223 123.5 248.5Q125 274 126 288L146 513Q147 528 148 540.5Q149 553 149 559Q149 587 136 597.5Q123 608 87 615L61 620L63 646H355L353 619L247 608L218 274Q217 259 215 233.5Q213 208 213 195Q213 114 246.5 71Q280 28 343 28Q412 28 451 81.5Q490 135 501 258L532 608L442 619L444 646H684L682 620L652 615Q609 608 596 593.5Q583 579 579 533L555 255Q543 115 485.5 51.5Q428 -12 321 -12Z" glyph-name="Uacute" horiz-adv-x="635" unicode="&#218;" /><glyph d="M400 696Q357 696 333 725Q309 754 309 811Q309 817 309 823Q309 829 310 836H328Q333 804 353 788Q373 772 407 772Q441 772 463.5 787.5Q486 803 498 836H516Q510 767 479 731.5Q448 696 400 696ZM321 -12Q225 -12 173.5 45.5Q122 103 122 210Q122 223 123.5 248.5Q125 274 126 288L146 513Q147 528 148 540.5Q149 553 149 559Q149 587 136 597.5Q123 608 87 615L61 620L63 646H355L353 619L247 608L218 274Q217 259 215 233.5Q213 208 213 195Q213 114 246.5 71Q280 28 343 28Q412 28 451 81.5Q490 135 501 258L532 608L442 619L444 646H684L682 620L652 615Q609 608 596 593.5Q583 579 579 533L555 255Q543 115 485.5 51.5Q428 -12 321 -12Z" glyph-name="Ubreve" horiz-adv-x="635" unicode="&#364;" /><glyph d="M305 696 289 700 365 805Q376 821 384 826.5Q392 832 407 832H420Q435 832 442.5 826.5Q450 821 458 805L515 700L499 696L407 764ZM321 -12Q225 -12 173.5 45.5Q122 103 122 210Q122 223 123.5 248.5Q125 274 126 288L146 513Q147 528 148 540.5Q149 553 149 559Q149 587 136 597.5Q123 608 87 615L61 620L63 646H355L353 619L247 608L218 274Q217 259 215 233.5Q213 208 213 195Q213 114 246.5 71Q280 28 343 28Q412 28 451 81.5Q490 135 501 258L532 608L442 619L444 646H684L682 620L652 615Q609 608 596 593.5Q583 579 579 533L555 255Q543 115 485.5 51.5Q428 -12 321 -12Z" glyph-name="Ucircumflex" horiz-adv-x="635" unicode="&#219;" /><glyph d="M325 717Q304 717 291.5 730.5Q279 744 279 766Q279 792 294.5 809.5Q310 827 337 827Q358 827 370.5 813.5Q383 800 383 778Q383 752 367.5 734.5Q352 717 325 717ZM477 717Q456 717 443.5 730.5Q431 744 431 766Q431 792 446.5 809.5Q462 827 489 827Q510 827 522.5 813.5Q535 800 535 778Q535 752 519.5 734.5Q504 717 477 717ZM321 -12Q225 -12 173.5 45.5Q122 103 122 210Q122 223 123.5 248.5Q125 274 126 288L146 513Q147 528 148 540.5Q149 553 149 559Q149 587 136 597.5Q123 608 87 615L61 620L63 646H355L353 619L247 608L218 274Q217 259 215 233.5Q213 208 213 195Q213 114 246.5 71Q280 28 343 28Q412 28 451 81.5Q490 135 501 258L532 608L442 619L444 646H684L682 620L652 615Q609 608 596 593.5Q583 579 579 533L555 255Q543 115 485.5 51.5Q428 -12 321 -12Z" glyph-name="Udieresis" horiz-adv-x="635" unicode="&#220;" /><glyph d="M429 690 300 732Q280 739 269.5 753.5Q259 768 259 790Q259 813 274 829Q289 845 306 845Q310 845 314 842.5Q318 840 328 828L436 706ZM321 -12Q225 -12 173.5 45.5Q122 103 122 210Q122 223 123.5 248.5Q125 274 126 288L146 513Q147 528 148 540.5Q149 553 149 559Q149 587 136 597.5Q123 608 87 615L61 620L63 646H355L353 619L247 608L218 274Q217 259 215 233.5Q213 208 213 195Q213 114 246.5 71Q280 28 343 28Q412 28 451 81.5Q490 135 501 258L532 608L442 619L444 646H684L682 620L652 615Q609 608 596 593.5Q583 579 579 533L555 255Q543 115 485.5 51.5Q428 -12 321 -12Z" glyph-name="Ugrave" horiz-adv-x="635" unicode="&#217;" /><glyph d="M321 688 309 699 381 846Q391 868 397 874.5Q403 881 410 881Q433 881 449 867Q465 853 465 832Q465 819 456.5 805Q448 791 433 779ZM434 696 429 711 543 827Q554 839 558.5 842Q563 845 569 845Q587 845 600.5 830Q614 815 614 795Q614 776 600 761.5Q586 747 558 737ZM321 -12Q225 -12 173.5 45.5Q122 103 122 210Q122 223 123.5 248.5Q125 274 126 288L146 513Q147 528 148 540.5Q149 553 149 559Q149 587 136 597.5Q123 608 87 615L61 620L63 646H355L353 619L247 608L218 274Q217 259 215 233.5Q213 208 213 195Q213 114 246.5 71Q280 28 343 28Q412 28 451 81.5Q490 135 501 258L532 608L442 619L444 646H684L682 620L652 615Q609 608 596 593.5Q583 579 579 533L555 255Q543 115 485.5 51.5Q428 -12 321 -12Z" glyph-name="Uhungarumlaut" horiz-adv-x="635" unicode="&#368;" /><glyph d="M291 737 296 785H521L517 737ZM321 -12Q225 -12 173.5 45.5Q122 103 122 210Q122 223 123.5 248.5Q125 274 126 288L146 513Q147 528 148 540.5Q149 553 149 559Q149 587 136 597.5Q123 608 87 615L61 620L63 646H355L353 619L247 608L218 274Q217 259 215 233.5Q213 208 213 195Q213 114 246.5 71Q280 28 343 28Q412 28 451 81.5Q490 135 501 258L532 608L442 619L444 646H684L682 620L652 615Q609 608 596 593.5Q583 579 579 533L555 255Q543 115 485.5 51.5Q428 -12 321 -12Z" glyph-name="Umacron" horiz-adv-x="635" unicode="&#362;" /><glyph d="M320 -247Q282 -247 260.5 -225Q239 -203 239 -164Q239 -123 269 -83Q299 -43 353 -11Q346 -12 337.5 -12Q329 -12 321 -12Q225 -12 173.5 45.5Q122 103 122 210Q122 223 123.5 248.5Q125 274 126 288L146 513Q147 528 148 540.5Q149 553 149 559Q149 587 136 597.5Q123 608 87 615L61 620L63 646H355L353 619L247 608L218 274Q217 259 215 233.5Q213 208 213 195Q213 114 246.5 71Q280 28 343 28Q412 28 451 81.5Q490 135 501 258L532 608L442 619L444 646H684L682 620L652 615Q609 608 596 593.5Q583 579 579 533L555 255Q546 153 514 93Q482 33 425 3Q372 -25 344.5 -64.5Q317 -104 317 -146Q317 -171 329.5 -184Q342 -197 366 -197Q377 -197 388.5 -193Q400 -189 416 -179L412 -200Q396 -222 371 -234.5Q346 -247 320 -247Z" glyph-name="Uogonek" horiz-adv-x="635" unicode="&#370;" /><glyph d="M400 692Q363 692 341.5 713.5Q320 735 320 771Q320 816 348 846Q376 876 417 876Q454 876 475.5 854.5Q497 833 497 797Q497 752 469 722Q441 692 400 692ZM404 734Q426 734 438.5 750Q451 766 451 793Q451 812 441 823Q431 834 413 834Q391 834 378.5 818Q366 802 366 775Q366 756 376 745Q386 734 404 734ZM321 -12Q225 -12 173.5 45.5Q122 103 122 210Q122 223 123.5 248.5Q125 274 126 288L146 513Q147 528 148 540.5Q149 553 149 559Q149 587 136 597.5Q123 608 87 615L61 620L63 646H355L353 619L247 608L218 274Q217 259 215 233.5Q213 208 213 195Q213 114 246.5 71Q280 28 343 28Q412 28 451 81.5Q490 135 501 258L532 608L442 619L444 646H684L682 620L652 615Q609 608 596 593.5Q583 579 579 533L555 255Q543 115 485.5 51.5Q428 -12 321 -12Z" glyph-name="Uring" horiz-adv-x="635" unicode="&#366;" /><glyph d="M438 718Q407 718 392 732Q377 746 353 746Q340 746 330.5 738.5Q321 731 313 709H294Q303 763 322.5 790Q342 817 373 817Q398 817 415.5 803Q433 789 459 789Q475 789 484 799.5Q493 810 500 834L519 832Q512 774 492.5 746Q473 718 438 718ZM321 -12Q225 -12 173.5 45.5Q122 103 122 210Q122 223 123.5 248.5Q125 274 126 288L146 513Q147 528 148 540.5Q149 553 149 559Q149 587 136 597.5Q123 608 87 615L61 620L63 646H355L353 619L247 608L218 274Q217 259 215 233.5Q213 208 213 195Q213 114 246.5 71Q280 28 343 28Q412 28 451 81.5Q490 135 501 258L532 608L442 619L444 646H684L682 620L652 615Q609 608 596 593.5Q583 579 579 533L555 255Q543 115 485.5 51.5Q428 -12 321 -12Z" glyph-name="Utilde" horiz-adv-x="635" unicode="&#360;" /><glyph d="M281 -5Q261 -5 252.5 3Q244 11 240 27L108 568Q102 591 95.5 599.5Q89 608 71 613L55 618L58 646H302L300 617L197 606L314 112L516 608L421 619L424 646H626L623 618L596 611Q582 607 572 598.5Q562 590 553 568L317 -5Z" glyph-name="V" horiz-adv-x="568" unicode="V" /><glyph d="M260 -5Q241 -5 232 3Q223 11 219 31L119 569Q115 593 107.5 601.5Q100 610 81 614L64 618L66 646H304L302 617L211 608L301 91L450 545L438 608L382 618L384 646H630L627 617L536 608L624 106L798 608L717 619L719 646H901L898 620L881 614Q860 607 851.5 596Q843 585 834 560L635 -5H585Q567 -5 558 3Q549 11 545 31L469 456L322 -5Z" glyph-name="W" horiz-adv-x="864" unicode="W" /><glyph d="M473 690 468 705 590 828Q602 841 607 843Q612 845 616 845Q626 845 641.5 833.5Q657 822 657 793Q657 766 640.5 752.5Q624 739 603 732ZM260 -5Q241 -5 232 3Q223 11 219 31L119 569Q115 593 107.5 601.5Q100 610 81 614L64 618L66 646H304L302 617L211 608L301 91L450 545L438 608L382 618L384 646H630L627 617L536 608L624 106L798 608L717 619L719 646H901L898 620L881 614Q860 607 851.5 596Q843 585 834 560L635 -5H585Q567 -5 558 3Q549 11 545 31L469 456L322 -5Z" glyph-name="Wacute" horiz-adv-x="864" unicode="&#7810;" /><glyph d="M405 696 389 700 465 805Q476 821 484 826.5Q492 832 507 832H520Q535 832 542.5 826.5Q550 821 558 805L615 700L599 696L507 764ZM260 -5Q241 -5 232 3Q223 11 219 31L119 569Q115 593 107.5 601.5Q100 610 81 614L64 618L66 646H304L302 617L211 608L301 91L450 545L438 608L382 618L384 646H630L627 617L536 608L624 106L798 608L717 619L719 646H901L898 620L881 614Q860 607 851.5 596Q843 585 834 560L635 -5H585Q567 -5 558 3Q549 11 545 31L469 456L322 -5Z" glyph-name="Wcircumflex" horiz-adv-x="864" unicode="&#372;" /><glyph d="M425 717Q404 717 391.5 730.5Q379 744 379 766Q379 792 394.5 809.5Q410 827 437 827Q458 827 470.5 813.5Q483 800 483 778Q483 752 467.5 734.5Q452 717 425 717ZM577 717Q556 717 543.5 730.5Q531 744 531 766Q531 792 546.5 809.5Q562 827 589 827Q610 827 622.5 813.5Q635 800 635 778Q635 752 619.5 734.5Q604 717 577 717ZM260 -5Q241 -5 232 3Q223 11 219 31L119 569Q115 593 107.5 601.5Q100 610 81 614L64 618L66 646H304L302 617L211 608L301 91L450 545L438 608L382 618L384 646H630L627 617L536 608L624 106L798 608L717 619L719 646H901L898 620L881 614Q860 607 851.5 596Q843 585 834 560L635 -5H585Q567 -5 558 3Q549 11 545 31L469 456L322 -5Z" glyph-name="Wdieresis" horiz-adv-x="864" unicode="&#7812;" /><glyph d="M529 690 400 732Q380 739 369.5 753.5Q359 768 359 790Q359 813 374 829Q389 845 406 845Q410 845 414 842.5Q418 840 428 828L536 706ZM260 -5Q241 -5 232 3Q223 11 219 31L119 569Q115 593 107.5 601.5Q100 610 81 614L64 618L66 646H304L302 617L211 608L301 91L450 545L438 608L382 618L384 646H630L627 617L536 608L624 106L798 608L717 619L719 646H901L898 620L881 614Q860 607 851.5 596Q843 585 834 560L635 -5H585Q567 -5 558 3Q549 11 545 31L469 456L322 -5Z" glyph-name="Wgrave" horiz-adv-x="864" unicode="&#7808;" /><glyph d="M-11 0 -9 24 8 28Q37 35 53 46.5Q69 58 82 77L255 319L133 579Q126 594 113 601Q100 608 84 612L61 617L64 646H308L305 617L224 606L320 392L475 609L398 619L401 646H602L600 622L573 615Q549 609 533 595Q517 581 502 561L343 350L472 83Q481 64 497.5 49.5Q514 35 536 30L560 24L558 0H305L307 27L388 38L277 274L117 37L197 27L195 0Z" glyph-name="X" horiz-adv-x="557" unicode="X" /><glyph d="M354 716Q332 716 319 731.5Q306 747 306 769Q306 796 322 815Q338 834 366 834Q388 834 401 818.5Q414 803 414 781Q414 754 398 735Q382 716 354 716ZM-11 0 -9 24 8 28Q37 35 53 46.5Q69 58 82 77L255 319L133 579Q126 594 113 601Q100 608 84 612L61 617L64 646H308L305 617L224 606L320 392L475 609L398 619L401 646H602L600 622L573 615Q549 609 533 595Q517 581 502 561L343 350L472 83Q481 64 497.5 49.5Q514 35 536 30L560 24L558 0H305L307 27L388 38L277 274L117 37L197 27L195 0Z" glyph-name="Xdot" horiz-adv-x="557" unicode="&#7818;" /><glyph d="M97 0 99 25 145 33Q190 40 203.5 54.5Q217 69 221 115L234 268L91 582Q87 590 79 600Q71 610 58 614L42 619L45 646H281L279 618L186 609L308 332L474 610L392 619L394 646H585L583 620L556 611Q538 605 528 597.5Q518 590 508 574L326 274L315 145Q314 128 312.5 111.5Q311 95 311 90Q311 61 323.5 50Q336 39 373 33L418 25L416 0Z" glyph-name="Y" horiz-adv-x="516" unicode="Y" /><glyph d="M310 690 305 705 427 828Q439 841 444 843Q449 845 453 845Q463 845 478.5 833.5Q494 822 494 793Q494 766 477.5 752.5Q461 739 440 732ZM97 0 99 25 145 33Q190 40 203.5 54.5Q217 69 221 115L234 268L91 582Q87 590 79 600Q71 610 58 614L42 619L45 646H281L279 618L186 609L308 332L474 610L392 619L394 646H585L583 620L556 611Q538 605 528 597.5Q518 590 508 574L326 274L315 145Q314 128 312.5 111.5Q311 95 311 90Q311 61 323.5 50Q336 39 373 33L418 25L416 0Z" glyph-name="Yacute" horiz-adv-x="516" unicode="&#221;" /><glyph d="M242 696 226 700 302 805Q313 821 321 826.5Q329 832 344 832H357Q372 832 379.5 826.5Q387 821 395 805L452 700L436 696L344 764ZM97 0 99 25 145 33Q190 40 203.5 54.5Q217 69 221 115L234 268L91 582Q87 590 79 600Q71 610 58 614L42 619L45 646H281L279 618L186 609L308 332L474 610L392 619L394 646H585L583 620L556 611Q538 605 528 597.5Q518 590 508 574L326 274L315 145Q314 128 312.5 111.5Q311 95 311 90Q311 61 323.5 50Q336 39 373 33L418 25L416 0Z" glyph-name="Ycircumflex" horiz-adv-x="516" unicode="&#374;" /><glyph d="M262 717Q241 717 228.5 730.5Q216 744 216 766Q216 792 231.5 809.5Q247 827 274 827Q295 827 307.5 813.5Q320 800 320 778Q320 752 304.5 734.5Q289 717 262 717ZM414 717Q393 717 380.5 730.5Q368 744 368 766Q368 792 383.5 809.5Q399 827 426 827Q447 827 459.5 813.5Q472 800 472 778Q472 752 456.5 734.5Q441 717 414 717ZM97 0 99 25 145 33Q190 40 203.5 54.5Q217 69 221 115L234 268L91 582Q87 590 79 600Q71 610 58 614L42 619L45 646H281L279 618L186 609L308 332L474 610L392 619L394 646H585L583 620L556 611Q538 605 528 597.5Q518 590 508 574L326 274L315 145Q314 128 312.5 111.5Q311 95 311 90Q311 61 323.5 50Q336 39 373 33L418 25L416 0Z" glyph-name="Ydieresis" horiz-adv-x="516" unicode="&#376;" /><glyph d="M366 690 237 732Q217 739 206.5 753.5Q196 768 196 790Q196 813 211 829Q226 845 243 845Q247 845 251 842.5Q255 840 265 828L373 706ZM97 0 99 25 145 33Q190 40 203.5 54.5Q217 69 221 115L234 268L91 582Q87 590 79 600Q71 610 58 614L42 619L45 646H281L279 618L186 609L308 332L474 610L392 619L394 646H585L583 620L556 611Q538 605 528 597.5Q518 590 508 574L326 274L315 145Q314 128 312.5 111.5Q311 95 311 90Q311 61 323.5 50Q336 39 373 33L418 25L416 0Z" glyph-name="Ygrave" horiz-adv-x="516" unicode="&#7922;" /><glyph d="M433 -8Q427 -8 409.5 -6.5Q392 -5 367.5 -4Q343 -3 314.5 -1.5Q286 0 258 0H30V20L404 605H253Q193 605 164 580Q135 555 116 492L105 456H83L97 620Q98 633 105 639.5Q112 646 125 646H527V626L153 44Q165 44 182 43.5Q199 43 217 42.5Q235 42 252 41.5Q269 41 281 41Q352 41 392.5 69.5Q433 98 468 176L486 216L508 211L467 18Q464 4 455.5 -2Q447 -8 433 -8Z" glyph-name="Z" horiz-adv-x="520" unicode="Z" /><glyph d="M282 690 277 705 399 828Q411 841 416 843Q421 845 425 845Q435 845 450.5 833.5Q466 822 466 793Q466 766 449.5 752.5Q433 739 412 732ZM433 -8Q427 -8 409.5 -6.5Q392 -5 367.5 -4Q343 -3 314.5 -1.5Q286 0 258 0H30V20L404 605H253Q193 605 164 580Q135 555 116 492L105 456H83L97 620Q98 633 105 639.5Q112 646 125 646H527V626L153 44Q165 44 182 43.5Q199 43 217 42.5Q235 42 252 41.5Q269 41 281 41Q352 41 392.5 69.5Q433 98 468 176L486 216L508 211L467 18Q464 4 455.5 -2Q447 -8 433 -8Z" glyph-name="Zacute" horiz-adv-x="520" unicode="&#377;" /><glyph d="M304 700Q288 700 281 706.5Q274 713 266 729L206 836L223 840L316 772L420 840L436 836L359 729Q348 713 339.5 706.5Q331 700 316 700ZM433 -8Q427 -8 409.5 -6.5Q392 -5 367.5 -4Q343 -3 314.5 -1.5Q286 0 258 0H30V20L404 605H253Q193 605 164 580Q135 555 116 492L105 456H83L97 620Q98 633 105 639.5Q112 646 125 646H527V626L153 44Q165 44 182 43.5Q199 43 217 42.5Q235 42 252 41.5Q269 41 281 41Q352 41 392.5 69.5Q433 98 468 176L486 216L508 211L467 18Q464 4 455.5 -2Q447 -8 433 -8Z" glyph-name="Zcaron" horiz-adv-x="520" unicode="&#381;" /><glyph d="M311 716Q289 716 276 731.5Q263 747 263 769Q263 796 279 815Q295 834 323 834Q345 834 358 818.5Q371 803 371 781Q371 754 355 735Q339 716 311 716ZM433 -8Q427 -8 409.5 -6.5Q392 -5 367.5 -4Q343 -3 314.5 -1.5Q286 0 258 0H30V20L404 605H253Q193 605 164 580Q135 555 116 492L105 456H83L97 620Q98 633 105 639.5Q112 646 125 646H527V626L153 44Q165 44 182 43.5Q199 43 217 42.5Q235 42 252 41.5Q269 41 281 41Q352 41 392.5 69.5Q433 98 468 176L486 216L508 211L467 18Q464 4 455.5 -2Q447 -8 433 -8Z" glyph-name="Zdotaccent" horiz-adv-x="520" unicode="&#379;" /><glyph d="M433 -8Q427 -8 409.5 -6.5Q392 -5 367.5 -4Q343 -3 314.5 -1.5Q286 0 258 0H30V20L219 315H118L122 351H242L404 605H253Q193 605 164 580Q135 555 116 492L105 456H83L97 620Q98 633 105 639.5Q112 646 125 646H527V626L350 351H456L452 315H327L153 44Q165 44 182 43.5Q199 43 217 42.5Q235 42 252 41.5Q269 41 281 41Q352 41 392.5 69.5Q433 98 468 176L486 216L508 211L467 18Q464 4 455.5 -2Q447 -8 433 -8Z" glyph-name="Zstroke" horiz-adv-x="520" unicode="&#437;" /><glyph d="M203 -14Q138 -14 104 41.5Q70 97 70 189Q70 255 87.5 310.5Q105 366 136 405.5Q167 445 210.5 467.5Q254 490 305 490Q359 490 395 482Q431 474 470 456Q463 420 458 384.5Q453 349 450 312L435 137Q434 118 432.5 99Q431 80 431 73Q431 48 446.5 39.5Q462 31 507 31L505 9Q483 2 461.5 -2.5Q440 -7 424 -7Q392 -7 372.5 11Q353 29 353 66Q353 71 354 88.5Q355 106 357 127Q319 48 281 17Q243 -14 203 -14ZM236 43Q258 43 279.5 65Q301 87 319 124Q337 161 349.5 209.5Q362 258 366 310L375 416Q357 433 335 445Q313 457 286 457Q229 457 194.5 392.5Q160 328 160 220Q160 135 180.5 89Q201 43 236 43Z" glyph-name="a" horiz-adv-x="515" unicode="a" /><glyph d="M-3 0 -1 25 13 28Q31 32 40 37Q49 42 57 61L265 522H304Q317 522 324 516.5Q331 511 335 498L459 61Q463 46 472 39Q481 32 499 28L514 25L512 0H287L289 27L377 37L341 169H155L98 37L176 27L174 0ZM171 207H331L270 435Z" glyph-name="a.smcp" horiz-adv-x="509" /><glyph d="M265 549 256 562 353 694Q366 712 371 715.5Q376 719 381 719Q393 719 410.5 708Q428 697 428 666Q428 646 416 633.5Q404 621 388 613ZM203 -14Q138 -14 104 41.5Q70 97 70 189Q70 255 87.5 310.5Q105 366 136 405.5Q167 445 210.5 467.5Q254 490 305 490Q359 490 395 482Q431 474 470 456Q463 420 458 384.5Q453 349 450 312L435 137Q434 118 432.5 99Q431 80 431 73Q431 48 446.5 39.5Q462 31 507 31L505 9Q483 2 461.5 -2.5Q440 -7 424 -7Q392 -7 372.5 11Q353 29 353 66Q353 71 354 88.5Q355 106 357 127Q319 48 281 17Q243 -14 203 -14ZM236 43Q258 43 279.5 65Q301 87 319 124Q337 161 349.5 209.5Q362 258 366 310L375 416Q357 433 335 445Q313 457 286 457Q229 457 194.5 392.5Q160 328 160 220Q160 135 180.5 89Q201 43 236 43Z" glyph-name="aacute" horiz-adv-x="515" unicode="&#225;" /><glyph d="M271 562 266 577 388 700Q400 713 405 715Q410 717 414 717Q424 717 439.5 705.5Q455 694 455 665Q455 638 438.5 624.5Q422 611 401 604ZM-3 0 -1 25 13 28Q31 32 40 37Q49 42 57 61L265 522H304Q317 522 324 516.5Q331 511 335 498L459 61Q463 46 472 39Q481 32 499 28L514 25L512 0H287L289 27L377 37L341 169H155L98 37L176 27L174 0ZM171 207H331L270 435Z" glyph-name="aacute.smcp" horiz-adv-x="509" /><glyph d="M303 551Q261 551 239 584Q217 617 217 685Q217 692 217 700Q217 708 218 716L236 720Q242 674 261 650.5Q280 627 310 627Q341 627 363 650Q385 673 401 720L418 716Q408 633 378.5 592Q349 551 303 551ZM203 -14Q138 -14 104 41.5Q70 97 70 189Q70 255 87.5 310.5Q105 366 136 405.5Q167 445 210.5 467.5Q254 490 305 490Q359 490 395 482Q431 474 470 456Q463 420 458 384.5Q453 349 450 312L435 137Q434 118 432.5 99Q431 80 431 73Q431 48 446.5 39.5Q462 31 507 31L505 9Q483 2 461.5 -2.5Q440 -7 424 -7Q392 -7 372.5 11Q353 29 353 66Q353 71 354 88.5Q355 106 357 127Q319 48 281 17Q243 -14 203 -14ZM236 43Q258 43 279.5 65Q301 87 319 124Q337 161 349.5 209.5Q362 258 366 310L375 416Q357 433 335 445Q313 457 286 457Q229 457 194.5 392.5Q160 328 160 220Q160 135 180.5 89Q201 43 236 43Z" glyph-name="abreve" horiz-adv-x="515" unicode="&#259;" /><glyph d="M298 568Q255 568 231 597Q207 626 207 683Q207 689 207 695Q207 701 208 708H226Q231 676 251 660Q271 644 305 644Q339 644 361.5 659.5Q384 675 396 708H414Q408 639 377 603.5Q346 568 298 568ZM-3 0 -1 25 13 28Q31 32 40 37Q49 42 57 61L265 522H304Q317 522 324 516.5Q331 511 335 498L459 61Q463 46 472 39Q481 32 499 28L514 25L512 0H287L289 27L377 37L341 169H155L98 37L176 27L174 0ZM171 207H331L270 435Z" glyph-name="abreve.smcp" horiz-adv-x="509" /><glyph d="M213 540 195 544 266 687Q275 704 283 710.5Q291 717 306 717H328Q344 717 350.5 710.5Q357 704 363 687L411 544L392 540L311 640ZM203 -14Q138 -14 104 41.5Q70 97 70 189Q70 255 87.5 310.5Q105 366 136 405.5Q167 445 210.5 467.5Q254 490 305 490Q359 490 395 482Q431 474 470 456Q463 420 458 384.5Q453 349 450 312L435 137Q434 118 432.5 99Q431 80 431 73Q431 48 446.5 39.5Q462 31 507 31L505 9Q483 2 461.5 -2.5Q440 -7 424 -7Q392 -7 372.5 11Q353 29 353 66Q353 71 354 88.5Q355 106 357 127Q319 48 281 17Q243 -14 203 -14ZM236 43Q258 43 279.5 65Q301 87 319 124Q337 161 349.5 209.5Q362 258 366 310L375 416Q357 433 335 445Q313 457 286 457Q229 457 194.5 392.5Q160 328 160 220Q160 135 180.5 89Q201 43 236 43Z" glyph-name="acircumflex" horiz-adv-x="515" unicode="&#226;" /><glyph d="M203 568 187 572 263 677Q274 693 282 698.5Q290 704 305 704H318Q333 704 340.5 698.5Q348 693 356 677L413 572L397 568L305 636ZM-3 0 -1 25 13 28Q31 32 40 37Q49 42 57 61L265 522H304Q317 522 324 516.5Q331 511 335 498L459 61Q463 46 472 39Q481 32 499 28L514 25L512 0H287L289 27L377 37L341 169H155L98 37L176 27L174 0ZM171 207H331L270 435Z" glyph-name="acircumflex.smcp" horiz-adv-x="509" /><glyph d="M230 549 221 562 318 694Q331 712 336 715.5Q341 719 346 719Q358 719 375.5 708Q393 697 393 666Q393 646 381 633.5Q369 621 353 613Z" glyph-name="acute" horiz-adv-x="440" unicode="&#180;" /><glyph d="M253 690 248 705 370 828Q382 841 387 843Q392 845 396 845Q406 845 421.5 833.5Q437 822 437 793Q437 766 420.5 752.5Q404 739 383 732Z" glyph-name="acute.case" horiz-adv-x="440" /><glyph d="M229 581Q208 581 195.5 594.5Q183 608 183 630Q183 656 198.5 673.5Q214 691 241 691Q262 691 274.5 677.5Q287 664 287 642Q287 616 271.5 598.5Q256 581 229 581ZM380 581Q359 581 346.5 594.5Q334 608 334 630Q334 656 349.5 673.5Q365 691 392 691Q413 691 425.5 677.5Q438 664 438 642Q438 616 422.5 598.5Q407 581 380 581ZM203 -14Q138 -14 104 41.5Q70 97 70 189Q70 255 87.5 310.5Q105 366 136 405.5Q167 445 210.5 467.5Q254 490 305 490Q359 490 395 482Q431 474 470 456Q463 420 458 384.5Q453 349 450 312L435 137Q434 118 432.5 99Q431 80 431 73Q431 48 446.5 39.5Q462 31 507 31L505 9Q483 2 461.5 -2.5Q440 -7 424 -7Q392 -7 372.5 11Q353 29 353 66Q353 71 354 88.5Q355 106 357 127Q319 48 281 17Q243 -14 203 -14ZM236 43Q258 43 279.5 65Q301 87 319 124Q337 161 349.5 209.5Q362 258 366 310L375 416Q357 433 335 445Q313 457 286 457Q229 457 194.5 392.5Q160 328 160 220Q160 135 180.5 89Q201 43 236 43Z" glyph-name="adieresis" horiz-adv-x="515" unicode="&#228;" /><glyph d="M223 589Q202 589 189.5 602.5Q177 616 177 638Q177 664 192.5 681.5Q208 699 235 699Q256 699 268.5 685.5Q281 672 281 650Q281 624 265.5 606.5Q250 589 223 589ZM375 589Q354 589 341.5 602.5Q329 616 329 638Q329 664 344.5 681.5Q360 699 387 699Q408 699 420.5 685.5Q433 672 433 650Q433 624 417.5 606.5Q402 589 375 589ZM-3 0 -1 25 13 28Q31 32 40 37Q49 42 57 61L265 522H304Q317 522 324 516.5Q331 511 335 498L459 61Q463 46 472 39Q481 32 499 28L514 25L512 0H287L289 27L377 37L341 169H155L98 37L176 27L174 0ZM171 207H331L270 435Z" glyph-name="adieresis.smcp" horiz-adv-x="509" /><glyph d="M208 -14Q137 -14 103 41.5Q69 97 69 189Q69 255 86.5 310.5Q104 366 135 405.5Q166 445 209.5 467.5Q253 490 304 490Q351 490 381.5 483.5Q412 477 440 461Q464 476 492 484Q520 492 551 492Q603 492 640 465Q677 438 677 387Q677 340 642.5 310.5Q608 281 533 262L412 232Q412 136 448.5 90Q485 44 551 44Q581 44 606.5 55Q632 66 659 89L666 73Q635 33 597.5 9Q560 -15 510 -15Q448 -15 406 13Q364 41 343 92Q309 37 275.5 11.5Q242 -14 208 -14ZM414 279 487 287Q540 293 568.5 314Q597 335 597 381Q597 415 579 436.5Q561 458 530 458Q486 458 453.5 418Q421 378 414 279ZM233 43Q260 43 285 72Q310 101 327 153Q325 166 324 180Q323 194 323 208Q323 269 339 320Q355 371 382 409Q365 425 342 441Q319 457 284 457Q227 457 193 392.5Q159 328 159 220Q159 145 177.5 94Q196 43 233 43Z" glyph-name="ae" horiz-adv-x="681" unicode="&#230;" /><glyph d="M589 -6Q584 -6 565.5 -5Q547 -4 524 -3Q501 -2 476 -1Q451 0 432 0H200L202 27L287 37L299 169H159L78 37L149 26L147 0H-20L-17 26L-7 28Q9 31 18.5 37.5Q28 44 38 60L282 458Q284 462 285 465Q286 468 286 471Q286 479 278 483Q270 487 257 489L233 493L235 518H650Q660 518 665.5 513Q671 508 671 499Q671 497 670.5 491Q670 485 669 478L658 362H637L633 388Q625 441 599 460Q573 479 513 479H411L394 293H543L565 365H585L570 182H549L541 255H391L373 45Q390 41 412 38Q434 35 460 35Q529 35 562.5 58Q596 81 621 142L631 167L652 163L619 14Q617 3 609.5 -1.5Q602 -6 589 -6ZM182 207H303L325 442Z" glyph-name="ae.smcp" horiz-adv-x="678" /><glyph d="M412 549 403 562 500 694Q513 712 518 715.5Q523 719 528 719Q540 719 557.5 708Q575 697 575 666Q575 646 563 633.5Q551 621 535 613ZM208 -14Q137 -14 103 41.5Q69 97 69 189Q69 255 86.5 310.5Q104 366 135 405.5Q166 445 209.5 467.5Q253 490 304 490Q351 490 381.5 483.5Q412 477 440 461Q464 476 492 484Q520 492 551 492Q603 492 640 465Q677 438 677 387Q677 340 642.5 310.5Q608 281 533 262L412 232Q412 136 448.5 90Q485 44 551 44Q581 44 606.5 55Q632 66 659 89L666 73Q635 33 597.5 9Q560 -15 510 -15Q448 -15 406 13Q364 41 343 92Q309 37 275.5 11.5Q242 -14 208 -14ZM414 279 487 287Q540 293 568.5 314Q597 335 597 381Q597 415 579 436.5Q561 458 530 458Q486 458 453.5 418Q421 378 414 279ZM233 43Q260 43 285 72Q310 101 327 153Q325 166 324 180Q323 194 323 208Q323 269 339 320Q355 371 382 409Q365 425 342 441Q319 457 284 457Q227 457 193 392.5Q159 328 159 220Q159 145 177.5 94Q196 43 233 43Z" glyph-name="aeacute" horiz-adv-x="681" unicode="&#509;" /><glyph d="M363 570 358 585 480 708Q492 721 497 723Q502 725 506 725Q516 725 531.5 713.5Q547 702 547 673Q547 646 530.5 632.5Q514 619 493 612ZM589 -6Q584 -6 565.5 -5Q547 -4 524 -3Q501 -2 476 -1Q451 0 432 0H200L202 27L287 37L299 169H159L78 37L149 26L147 0H-20L-17 26L-7 28Q9 31 18.5 37.5Q28 44 38 60L282 458Q284 462 285 465Q286 468 286 471Q286 479 278 483Q270 487 257 489L233 493L235 518H650Q660 518 665.5 513Q671 508 671 499Q671 497 670.5 491Q670 485 669 478L658 362H637L633 388Q625 441 599 460Q573 479 513 479H411L394 293H543L565 365H585L570 182H549L541 255H391L373 45Q390 41 412 38Q434 35 460 35Q529 35 562.5 58Q596 81 621 142L631 167L652 163L619 14Q617 3 609.5 -1.5Q602 -6 589 -6ZM182 207H303L325 442Z" glyph-name="aeacute.smcp" horiz-adv-x="678" /><glyph d="M338 550 232 610Q217 618 206.5 630.5Q196 643 196 663Q196 691 217 706Q238 721 252 721Q257 721 261.5 717Q266 713 276 695L350 564ZM203 -14Q138 -14 104 41.5Q70 97 70 189Q70 255 87.5 310.5Q105 366 136 405.5Q167 445 210.5 467.5Q254 490 305 490Q359 490 395 482Q431 474 470 456Q463 420 458 384.5Q453 349 450 312L435 137Q434 118 432.5 99Q431 80 431 73Q431 48 446.5 39.5Q462 31 507 31L505 9Q483 2 461.5 -2.5Q440 -7 424 -7Q392 -7 372.5 11Q353 29 353 66Q353 71 354 88.5Q355 106 357 127Q319 48 281 17Q243 -14 203 -14ZM236 43Q258 43 279.5 65Q301 87 319 124Q337 161 349.5 209.5Q362 258 366 310L375 416Q357 433 335 445Q313 457 286 457Q229 457 194.5 392.5Q160 328 160 220Q160 135 180.5 89Q201 43 236 43Z" glyph-name="agrave" horiz-adv-x="515" unicode="&#224;" /><glyph d="M327 562 198 604Q178 611 167.5 625.5Q157 640 157 662Q157 685 172 701Q187 717 204 717Q208 717 212 714.5Q216 712 226 700L334 578ZM-3 0 -1 25 13 28Q31 32 40 37Q49 42 57 61L265 522H304Q317 522 324 516.5Q331 511 335 498L459 61Q463 46 472 39Q481 32 499 28L514 25L512 0H287L289 27L377 37L341 169H155L98 37L176 27L174 0ZM171 207H331L270 435Z" glyph-name="agrave.smcp" horiz-adv-x="509" /><glyph d="M205 602 209 646H415L411 602ZM203 -14Q138 -14 104 41.5Q70 97 70 189Q70 255 87.5 310.5Q105 366 136 405.5Q167 445 210.5 467.5Q254 490 305 490Q359 490 395 482Q431 474 470 456Q463 420 458 384.5Q453 349 450 312L435 137Q434 118 432.5 99Q431 80 431 73Q431 48 446.5 39.5Q462 31 507 31L505 9Q483 2 461.5 -2.5Q440 -7 424 -7Q392 -7 372.5 11Q353 29 353 66Q353 71 354 88.5Q355 106 357 127Q319 48 281 17Q243 -14 203 -14ZM236 43Q258 43 279.5 65Q301 87 319 124Q337 161 349.5 209.5Q362 258 366 310L375 416Q357 433 335 445Q313 457 286 457Q229 457 194.5 392.5Q160 328 160 220Q160 135 180.5 89Q201 43 236 43Z" glyph-name="amacron" horiz-adv-x="515" unicode="&#257;" /><glyph d="M189 609 194 657H419L415 609ZM-3 0 -1 25 13 28Q31 32 40 37Q49 42 57 61L265 522H304Q317 522 324 516.5Q331 511 335 498L459 61Q463 46 472 39Q481 32 499 28L514 25L512 0H287L289 27L377 37L341 169H155L98 37L176 27L174 0ZM171 207H331L270 435Z" glyph-name="amacron.smcp" horiz-adv-x="509" /><glyph d="M702 272Q680 272 661 276.5Q642 281 625 290Q613 230 586 174.5Q559 119 517 77.5Q475 36 417.5 11Q360 -14 288 -14Q185 -14 126 44.5Q67 103 67 203Q67 266 84 319Q101 372 127.5 410Q154 448 188 469.5Q222 491 256 491Q290 491 311 473Q332 455 332 412V399Q369 438 393 475.5Q417 513 428 547L398 627Q397 631 396 634Q395 637 395 638Q395 645 407.5 652.5Q420 660 433 660Q460 660 472.5 643.5Q485 627 485 601Q485 566 468.5 525Q452 484 406 433Q377 400 344 368Q311 336 278 307.5Q245 279 212.5 254.5Q180 230 152 212Q157 177 169 143Q181 109 201 82.5Q221 56 250 39.5Q279 23 317 23Q379 23 421.5 50.5Q464 78 492.5 121Q521 164 538.5 218Q556 272 567 325Q554 334 528 347Q502 360 483 360Q468 360 459 356.5Q450 353 442 348L471 273Q472 269 473.5 266.5Q475 264 475 262Q475 257 465 252Q455 247 444 247Q422 247 408.5 259Q395 271 395 298Q395 338 428 370Q461 402 515 402Q540 402 560.5 396Q581 390 606 374L629 359Q646 348 664.5 336Q683 324 708 313L732 378Q736 388 738.5 390Q741 392 748 392Q761 392 773 380Q785 368 785 349Q785 323 773.5 307.5Q762 292 748 284Q734 276 720 274Q706 272 702 272ZM145 292Q145 287 145.5 279.5Q146 272 147 265Q158 269 169.5 275Q181 281 191 286Q231 308 249.5 334.5Q268 361 268 383Q268 407 257.5 419.5Q247 432 228 432Q197 432 171 395Q145 358 145 292Z" glyph-name="ampersand" horiz-adv-x="769" unicode="&amp;" /><glyph d="M261 -14Q168 -14 116 34Q64 82 64 167Q64 218 79 262Q94 306 118 337.5Q142 369 172 387Q202 405 231 405Q266 405 287 388Q308 371 308 337V333Q336 361 355.5 389Q375 417 385 443L358 507Q357 509 356.5 511.5Q356 514 356 515Q356 521 367 527Q378 533 389 533Q411 533 423 520.5Q435 508 435 486Q435 454 418 421Q401 388 365 351Q324 308 263.5 261.5Q203 215 141 178Q152 111 189.5 70.5Q227 30 284 30Q330 30 365.5 41Q401 52 427.5 78.5Q454 105 473.5 150.5Q493 196 507 265Q478 281 461 288Q444 295 432 295Q421 295 415 293.5Q409 292 398 286L424 227Q425 223 426.5 219Q428 215 428 214Q428 209 419.5 203.5Q411 198 400 198Q378 198 366 208.5Q354 219 354 241Q354 278 380.5 304.5Q407 331 455 331Q477 331 496.5 325.5Q516 320 535 309L558 295Q571 287 593.5 275Q616 263 632 256L652 307Q656 315 658.5 317Q661 319 668 319Q682 319 690.5 310Q699 301 699 286Q699 261 677 242.5Q655 224 625 224Q609 224 592.5 227.5Q576 231 557 241Q527 125 449.5 55.5Q372 -14 261 -14ZM137 218Q159 226 179 235Q199 244 216 257Q231 268 239 282Q247 296 247 311Q247 330 237.5 340.5Q228 351 209 351Q178 351 157 318.5Q136 286 136 239Q136 232 136 228.5Q136 225 137 218Z" glyph-name="ampersand.smcp" horiz-adv-x="692" /><glyph d="M388 -247Q351 -247 330 -224.5Q309 -202 309 -164Q309 -121 340.5 -80Q372 -39 428 -7H424Q392 -7 372.5 11Q353 29 353 66Q353 71 354 88.5Q355 106 357 127Q319 48 281 17Q243 -14 203 -14Q138 -14 104 41.5Q70 97 70 189Q70 255 87.5 310.5Q105 366 136 405.5Q167 445 210.5 467.5Q254 490 305 490Q359 490 395 482Q431 474 470 456Q463 420 458 384.5Q453 349 450 312L435 137Q434 118 432.5 99Q431 80 431 73Q431 48 446.5 39.5Q462 31 507 31L505 9Q452 -13 418.5 -59Q385 -105 385 -146Q385 -169 397.5 -184Q410 -199 429 -199Q445 -199 456 -196Q467 -193 484 -183L480 -204Q459 -227 436 -237Q413 -247 388 -247ZM236 43Q258 43 279.5 65Q301 87 319 124Q337 161 349.5 209.5Q362 258 366 310L375 416Q357 433 335 445Q313 457 286 457Q229 457 194.5 392.5Q160 328 160 220Q160 135 180.5 89Q201 43 236 43Z" glyph-name="aogonek" horiz-adv-x="515" unicode="&#261;" /><glyph d="M-3 0 -1 25 13 28Q31 32 40 37Q49 42 57 61L265 522H304Q317 522 324 516.5Q331 511 335 498L459 61Q463 46 472 39Q481 32 499 28L514 25L512 0H416Q370 -34 347.5 -70.5Q325 -107 325 -146Q325 -171 337.5 -184Q350 -197 374 -197Q385 -197 396.5 -193Q408 -189 424 -179L420 -200Q404 -222 379 -234.5Q354 -247 328 -247Q290 -247 268.5 -225Q247 -203 247 -164Q247 -119 282 -76.5Q317 -34 380 0H287L289 27L377 37L341 169H155L98 37L176 27L174 0ZM171 207H331L270 435Z" glyph-name="aogonek.smcp" horiz-adv-x="509" /><glyph d="M352 385Q320 385 297 395.5Q274 406 254.5 419Q235 432 216 442.5Q197 453 174 453Q151 453 133 439.5Q115 426 91 389L77 395Q102 458 131.5 489Q161 520 198 520Q229 520 251 509.5Q273 499 293 486Q313 473 333.5 462.5Q354 452 380 452Q416 452 434.5 469.5Q453 487 475 529L489 525Q467 452 436 418.5Q405 385 352 385ZM336 185Q304 185 281 195.5Q258 206 238.5 219Q219 232 200 242.5Q181 253 158 253Q135 253 117 239.5Q99 226 75 189L61 195Q86 258 115.5 289Q145 320 182 320Q213 320 235 309.5Q257 299 277 286Q297 273 317.5 262.5Q338 252 364 252Q400 252 418.5 269.5Q437 287 459 329L473 325Q451 252 420 218.5Q389 185 336 185Z" glyph-name="approxequal" horiz-adv-x="475" unicode="&#8776;" /><glyph d="M304 543Q264 543 242.5 565Q221 587 221 625Q221 671 247.5 702Q274 733 318 733Q358 733 379.5 711Q401 689 401 651Q401 605 374.5 574Q348 543 304 543ZM306 588Q328 588 341 603.5Q354 619 354 646Q354 665 344.5 676.5Q335 688 316 688Q294 688 281 672.5Q268 657 268 630Q268 611 277.5 599.5Q287 588 306 588ZM203 -14Q138 -14 104 41.5Q70 97 70 189Q70 255 87.5 310.5Q105 366 136 405.5Q167 445 210.5 467.5Q254 490 305 490Q359 490 395 482Q431 474 470 456Q463 420 458 384.5Q453 349 450 312L435 137Q434 118 432.5 99Q431 80 431 73Q431 48 446.5 39.5Q462 31 507 31L505 9Q483 2 461.5 -2.5Q440 -7 424 -7Q392 -7 372.5 11Q353 29 353 66Q353 71 354 88.5Q355 106 357 127Q319 48 281 17Q243 -14 203 -14ZM236 43Q258 43 279.5 65Q301 87 319 124Q337 161 349.5 209.5Q362 258 366 310L375 416Q357 433 335 445Q313 457 286 457Q229 457 194.5 392.5Q160 328 160 220Q160 135 180.5 89Q201 43 236 43Z" glyph-name="aring" horiz-adv-x="515" unicode="&#229;" /><glyph d="M298 564Q261 564 239.5 585.5Q218 607 218 643Q218 688 246 718Q274 748 315 748Q352 748 373.5 726.5Q395 705 395 669Q395 624 367 594Q339 564 298 564ZM302 606Q324 606 336.5 622Q349 638 349 665Q349 684 339 695Q329 706 311 706Q289 706 276.5 690Q264 674 264 647Q264 628 274 617Q284 606 302 606ZM-3 0 -1 25 13 28Q31 32 40 37Q49 42 57 61L265 522H304Q317 522 324 516.5Q331 511 335 498L459 61Q463 46 472 39Q481 32 499 28L514 25L512 0H287L289 27L377 37L341 169H155L98 37L176 27L174 0ZM171 207H331L270 435Z" glyph-name="aring.smcp" horiz-adv-x="509" /><glyph d="M73 199 265 643 318 650 435 199H346L264 532L124 199Z" glyph-name="asciicircum" horiz-adv-x="472" unicode="^" /><glyph d="M346 285Q314 285 291 295.5Q268 306 248.5 319Q229 332 210 342.5Q191 353 168 353Q145 353 127 339.5Q109 326 85 289L71 295Q96 358 125.5 389Q155 420 192 420Q223 420 245 409.5Q267 399 287 386Q307 373 327.5 362.5Q348 352 374 352Q410 352 428.5 369.5Q447 387 469 429L483 425Q461 352 430 318.5Q399 285 346 285Z" glyph-name="asciitilde" horiz-adv-x="475" unicode="~" /><glyph d="M295 390Q290 390 288 393.5Q286 397 283 407L243 547L203 454Q190 420 177 408.5Q164 397 153 397Q131 397 118.5 415Q106 433 106 444Q106 447 108.5 451.5Q111 456 118 462L228 559L141 564Q107 567 94 577.5Q81 588 81 612Q81 632 94 649Q107 666 115 666Q118 666 121 664Q124 662 128 659L235 580L221 676Q220 686 218.5 697.5Q217 709 217 714Q217 738 229 749.5Q241 761 265 761Q278 761 290 755Q302 749 302 744Q302 742 300.5 736Q299 730 298 724L254 581L333 635Q351 648 363 652.5Q375 657 383 657Q398 657 406.5 641.5Q415 626 415 604Q415 584 410.5 579Q406 574 393 573L259 561L322 498Q339 481 345.5 469.5Q352 458 352 441Q352 422 331 406Q310 390 295 390Z" glyph-name="asterisk" horiz-adv-x="380" unicode="*" /><glyph d="M368 -190Q299 -190 241 -164.5Q183 -139 142.5 -93Q102 -47 79.5 18Q57 83 57 162Q57 269 89.5 360.5Q122 452 179 517.5Q236 583 315.5 620.5Q395 658 488 658Q552 658 605.5 636Q659 614 697 575Q735 536 756 481Q777 426 777 360Q777 290 759 228.5Q741 167 710 122.5Q679 78 636.5 52Q594 26 545 26Q517 26 499 45Q481 64 481 96Q481 101 482 115.5Q483 130 484 149Q451 81 418 54Q385 27 351 27Q294 27 265 75Q236 123 236 203Q236 259 251 307Q266 355 292.5 389.5Q319 424 356.5 443.5Q394 463 438 463Q486 463 516.5 456Q547 449 581 433Q575 402 571 371.5Q567 341 564 309L551 158Q550 142 549 120.5Q548 99 548 92Q548 76 553.5 69.5Q559 63 577 63Q601 63 624.5 84.5Q648 106 666.5 144Q685 182 696 235Q707 288 707 351Q707 477 646.5 545.5Q586 614 479 614Q399 614 334 583Q269 552 224 495Q179 438 154.5 356.5Q130 275 130 174Q130 31 203.5 -53.5Q277 -138 399 -138Q436 -138 467 -133.5Q498 -129 535 -116L532 -145Q495 -166 454.5 -178Q414 -190 368 -190ZM379 76Q398 76 417 95Q436 114 451 146Q466 178 477 220Q488 262 491 307L499 399Q484 414 465 424Q446 434 422 434Q373 434 343.5 378.5Q314 323 314 230Q314 156 331.5 116Q349 76 379 76Z" glyph-name="at" horiz-adv-x="787" unicode="@" /><glyph d="M379 -109Q310 -109 252 -83.5Q194 -58 153.5 -12Q113 34 90.5 99Q68 164 68 243Q68 350 100.5 441.5Q133 533 190 598.5Q247 664 326.5 701.5Q406 739 499 739Q563 739 616.5 717Q670 695 708 656Q746 617 767 562Q788 507 788 441Q788 371 770 309.5Q752 248 721 203.5Q690 159 647.5 133Q605 107 556 107Q528 107 510 126Q492 145 492 177Q492 182 493 196.5Q494 211 495 230Q462 162 429 135Q396 108 362 108Q305 108 276 156Q247 204 247 284Q247 340 262 388Q277 436 303.5 470.5Q330 505 367.5 524.5Q405 544 449 544Q497 544 527.5 537Q558 530 592 514Q586 483 582 452.5Q578 422 575 390L562 239Q561 223 560 201.5Q559 180 559 173Q559 157 564.5 150.5Q570 144 588 144Q612 144 635.5 165.5Q659 187 677.5 225Q696 263 707 316Q718 369 718 432Q718 558 657.5 626.5Q597 695 490 695Q410 695 345 664Q280 633 235 576Q190 519 165.5 437.5Q141 356 141 255Q141 112 214.5 27.5Q288 -57 410 -57Q447 -57 478 -52.5Q509 -48 546 -35L543 -64Q506 -85 465.5 -97Q425 -109 379 -109ZM390 157Q409 157 428 176Q447 195 462 227Q477 259 488 301Q499 343 502 388L510 480Q495 495 476 505Q457 515 433 515Q384 515 354.5 459.5Q325 404 325 311Q325 237 342.5 197Q360 157 390 157Z" glyph-name="at.case" horiz-adv-x="791" /><glyph d="M204 565Q208 623 225.5 653Q243 683 272 683Q284 683 294 677.5Q304 672 313.5 665Q323 658 333.5 652.5Q344 647 357 647Q374 647 383.5 661.5Q393 676 399 707L417 704Q413 644 393.5 609.5Q374 575 346 575Q329 575 317.5 581Q306 587 296.5 594.5Q287 602 278 608Q269 614 259 614Q246 614 237.5 602.5Q229 591 222 565ZM203 -14Q138 -14 104 41.5Q70 97 70 189Q70 255 87.5 310.5Q105 366 136 405.5Q167 445 210.5 467.5Q254 490 305 490Q359 490 395 482Q431 474 470 456Q463 420 458 384.5Q453 349 450 312L435 137Q434 118 432.5 99Q431 80 431 73Q431 48 446.5 39.5Q462 31 507 31L505 9Q483 2 461.5 -2.5Q440 -7 424 -7Q392 -7 372.5 11Q353 29 353 66Q353 71 354 88.5Q355 106 357 127Q319 48 281 17Q243 -14 203 -14ZM236 43Q258 43 279.5 65Q301 87 319 124Q337 161 349.5 209.5Q362 258 366 310L375 416Q357 433 335 445Q313 457 286 457Q229 457 194.5 392.5Q160 328 160 220Q160 135 180.5 89Q201 43 236 43Z" glyph-name="atilde" horiz-adv-x="515" unicode="&#227;" /><glyph d="M336 590Q305 590 290 604Q275 618 251 618Q238 618 228.5 610.5Q219 603 211 581H192Q201 635 220.5 662Q240 689 271 689Q296 689 313.5 675Q331 661 357 661Q373 661 382 671.5Q391 682 398 706L417 704Q410 646 390.5 618Q371 590 336 590ZM-3 0 -1 25 13 28Q31 32 40 37Q49 42 57 61L265 522H304Q317 522 324 516.5Q331 511 335 498L459 61Q463 46 472 39Q481 32 499 28L514 25L512 0H287L289 27L377 37L341 169H155L98 37L176 27L174 0ZM171 207H331L270 435Z" glyph-name="atilde.smcp" horiz-adv-x="509" /><glyph d="M254 -12Q197 -12 152.5 0Q108 12 78 37Q81 53 84.5 76Q88 99 91 124Q94 149 97 174Q100 199 102 219L136 582Q138 606 139.5 625Q141 644 141 649Q141 666 134 675Q127 684 108 688L69 697L71 717Q84 721 103.5 725Q123 729 145 731Q167 733 188.5 734.5Q210 736 228 736H239Q232 690 226 640Q220 590 214 530L198 366Q226 423 265.5 457.5Q305 492 345 492Q419 492 456 436.5Q493 381 493 289Q493 219 475 163Q457 107 425 68Q393 29 349 8.5Q305 -12 254 -12ZM272 21Q301 21 325 38.5Q349 56 366 87.5Q383 119 392 162.5Q401 206 401 258Q401 343 377.5 386.5Q354 430 314 430Q291 430 269.5 410Q248 390 230 354Q212 318 199.5 267.5Q187 217 182 155L175 75Q192 50 216 35.5Q240 21 272 21Z" glyph-name="b" horiz-adv-x="520" unicode="b" /><glyph d="M24 0 26 25 61 31Q96 37 110.5 52Q125 67 128 104L154 394Q155 410 156 420Q157 430 157 434Q157 459 146.5 471Q136 483 105 487L65 493L67 518H275Q372 518 426.5 484.5Q481 451 481 391Q481 338 441.5 306.5Q402 275 327 270Q402 263 443.5 229.5Q485 196 485 143Q485 75 427 37.5Q369 0 265 0ZM272 288Q331 288 360 313Q389 338 389 387Q389 431 358.5 457Q328 483 277 483Q270 483 261 482.5Q252 482 247 481L229 292Q236 291 250.5 289.5Q265 288 272 288ZM265 32Q325 32 358 60.5Q391 89 391 141Q391 192 356 222.5Q321 253 262 253Q255 253 243.5 253Q232 253 226 252L208 42Q221 38 235 35Q249 32 265 32Z" glyph-name="b.smcp" horiz-adv-x="518" /><glyph d="M307 -250 74 750H116L348 -250Z" glyph-name="backslash" horiz-adv-x="378" unicode="\" /><glyph d="M59 -249 146 750H188L101 -249Z" glyph-name="bar" horiz-adv-x="202" unicode="|" /><glyph d="M277 -233Q199 -233 161 -197Q123 -161 123 -88Q123 -70 125.5 -37Q128 -4 131.5 30.5Q135 65 137.5 95Q140 125 140 137Q140 186 120.5 207.5Q101 229 53 234L55 261Q110 267 133.5 295.5Q157 324 163 392L178 555Q185 644 231 687Q277 730 362 730L359 700Q310 698 288 663Q266 628 259 541L246 387Q240 319 204.5 285Q169 251 112 247Q162 246 192 216Q222 186 222 124Q222 105 219.5 74.5Q217 44 213.5 11Q210 -22 207.5 -52.5Q205 -83 205 -101Q205 -154 222.5 -178Q240 -202 280 -203Z" glyph-name="braceleft" horiz-adv-x="300" unicode="{" /><glyph d="M281 -79Q206 -79 162.5 -45Q119 -11 119 61Q119 72 120.5 92Q122 112 124 134.5Q126 157 127.5 179Q129 201 129 214Q129 260 110.5 281.5Q92 303 49 310L51 333Q101 340 124 368Q147 396 152 456L160 551Q168 644 219.5 685Q271 726 352 726L349 693Q295 691 275.5 659Q256 627 250 549L243 461Q239 401 208 366Q177 331 114 322Q168 313 194 283Q220 253 220 204Q220 174 215 129.5Q210 85 210 56Q210 7 225.5 -19.5Q241 -46 284 -47Z" glyph-name="braceleft.case" horiz-adv-x="300" /><glyph d="M258 -63Q192 -63 151 -36Q110 -9 110 49Q110 58 111.5 74Q113 90 114.5 108Q116 126 117.5 143Q119 160 119 171Q119 208 102.5 225.5Q86 243 48 248L50 266Q94 272 113.5 294.5Q133 317 137 365L144 441Q151 516 200 548.5Q249 581 321 581L318 553Q270 551 253 526.5Q236 502 231 439L225 369Q221 320 190.5 292.5Q160 265 105 258Q154 251 179.5 227Q205 203 205 163Q205 139 200.5 103.5Q196 68 196 45Q196 6 210 -14Q224 -34 261 -35Z" glyph-name="braceleft.smcp" horiz-adv-x="300" /><glyph d="M67 730Q145 730 183 694Q221 658 221 585Q221 567 218.5 534Q216 501 212.5 466.5Q209 432 206.5 402Q204 372 204 360Q204 311 223.5 289.5Q243 268 291 263L289 236Q234 230 210.5 201.5Q187 173 181 105L166 -58Q159 -147 113 -190Q67 -233 -18 -233L-15 -203Q34 -201 56 -166Q78 -131 85 -44L98 110Q104 178 139.5 212Q175 246 232 250Q182 251 152 281Q122 311 122 373Q122 392 124.5 422.5Q127 453 130.5 486Q134 519 136.5 549.5Q139 580 139 598Q139 651 121.5 675Q104 699 64 700Z" glyph-name="braceright" horiz-adv-x="300" unicode="}" /><glyph d="M75 726Q150 726 193.5 692Q237 658 237 586Q237 575 235.5 555Q234 535 232 512.5Q230 490 228.5 468Q227 446 227 433Q227 387 245.5 365.5Q264 344 307 337L305 314Q255 307 232 279Q209 251 204 191L196 96Q188 3 136.5 -38Q85 -79 4 -79L7 -46Q61 -44 80.5 -12Q100 20 106 98L113 186Q117 246 148 281Q179 316 242 325Q188 334 162 364Q136 394 136 443Q136 473 141 517.5Q146 562 146 591Q146 640 130.5 666.5Q115 693 72 694Z" glyph-name="braceright.case" horiz-adv-x="299" /><glyph d="M87 580Q153 580 194 553Q235 526 235 468Q235 459 233.5 443Q232 427 230.5 409Q229 391 227.5 374Q226 357 226 346Q226 309 242.5 291.5Q259 274 297 269L295 251Q251 245 231.5 222.5Q212 200 208 152L201 76Q194 1 145 -31.5Q96 -64 24 -64L27 -36Q75 -34 92 -9.5Q109 15 114 78L120 148Q124 197 154.5 224.5Q185 252 240 259Q191 266 165.5 290Q140 314 140 354Q140 378 144.5 413.5Q149 449 149 472Q149 511 135 531Q121 551 84 552Z" glyph-name="braceright.smcp" horiz-adv-x="300" /><glyph d="M73 -235 158 730H342L339 699H238L158 -204H262L259 -235Z" glyph-name="bracketleft" horiz-adv-x="300" unicode="[" /><glyph d="M82 -82 153 728H347L343 690H240L176 -44H280L276 -82Z" glyph-name="bracketleft.case" horiz-adv-x="299" /><glyph d="M82 -66 141 582H321L317 549H225L173 -32H266L262 -66Z" glyph-name="bracketleft.smcp" horiz-adv-x="300" /><glyph d="M270 730 185 -235H1L4 -204H105L185 699H81L84 730Z" glyph-name="bracketright" horiz-adv-x="300" unicode="]" /><glyph d="M275 728 204 -82H10L14 -44H117L181 690H77L81 728Z" glyph-name="bracketright.case" horiz-adv-x="300" /><glyph d="M263 582 204 -66H24L28 -33H120L172 548H79L83 582Z" glyph-name="bracketright.smcp" horiz-adv-x="300" /><glyph d="M268 551Q226 551 204 584Q182 617 182 685Q182 692 182 700Q182 708 183 716L201 720Q207 674 226 650.5Q245 627 275 627Q306 627 328 650Q350 673 366 720L383 716Q373 633 343.5 592Q314 551 268 551Z" glyph-name="breve" horiz-adv-x="440" unicode="&#728;" /><glyph d="M280 696Q237 696 213 725Q189 754 189 811Q189 817 189 823Q189 829 190 836H208Q213 804 233 788Q253 772 287 772Q321 772 343.5 787.5Q366 803 378 836H396Q390 767 359 731.5Q328 696 280 696Z" glyph-name="breve.case" horiz-adv-x="440" /><glyph d="M105 281 146 750H188L147 281ZM59 -250 100 219H142L101 -250Z" glyph-name="brokenbar" horiz-adv-x="202" unicode="&#166;" /><glyph d="M195 243Q158 243 135 268.5Q112 294 112 335Q112 386 141.5 421.5Q171 457 214 457Q251 457 274 431Q297 405 297 364Q297 313 267.5 278Q238 243 195 243Z" glyph-name="bullet" horiz-adv-x="348" unicode="&#8226;" /><glyph d="M249 -14Q163 -14 116 43.5Q69 101 69 205Q69 268 86.5 321Q104 374 135 411.5Q166 449 210 470.5Q254 492 305 492Q359 492 396 459.5Q433 427 433 385Q433 360 420.5 344Q408 328 383 328Q368 328 363.5 331.5Q359 335 355 354L334 446Q324 450 310 454Q296 458 283 458Q226 458 193 395.5Q160 333 160 223Q160 137 192 91Q224 45 284 45Q314 45 343.5 57.5Q373 70 402 99L411 86Q399 66 380.5 47.5Q362 29 340 15.5Q318 2 294 -6Q270 -14 249 -14Z" glyph-name="c" horiz-adv-x="433" unicode="c" /><glyph d="M288 -14Q187 -14 128 49Q69 112 69 222Q69 290 89 347Q109 404 144.5 445Q180 486 230 509Q280 532 339 532Q372 532 402.5 526Q433 520 467 507Q481 502 487.5 493Q494 484 494 469Q494 465 492.5 452.5Q491 440 490 424L483 350H461Q456 421 422 457.5Q388 494 328 494Q255 494 210.5 422.5Q166 351 166 234Q166 133 201.5 79.5Q237 26 304 26Q352 26 390.5 64.5Q429 103 460 182L482 178L459 68Q452 36 440 23Q428 10 400 3Q366 -6 341 -10Q316 -14 288 -14Z" glyph-name="c.smcp" horiz-adv-x="519" /><glyph d="M244 549 235 562 332 694Q345 712 350 715.5Q355 719 360 719Q372 719 389.5 708Q407 697 407 666Q407 646 395 633.5Q383 621 367 613ZM249 -14Q163 -14 116 43.5Q69 101 69 205Q69 268 86.5 321Q104 374 135 411.5Q166 449 210 470.5Q254 492 305 492Q359 492 396 459.5Q433 427 433 385Q433 360 420.5 344Q408 328 383 328Q368 328 363.5 331.5Q359 335 355 354L334 446Q324 450 310 454Q296 458 283 458Q226 458 193 395.5Q160 333 160 223Q160 137 192 91Q224 45 284 45Q314 45 343.5 57.5Q373 70 402 99L411 86Q399 66 380.5 47.5Q362 29 340 15.5Q318 2 294 -6Q270 -14 249 -14Z" glyph-name="cacute" horiz-adv-x="433" unicode="&#263;" /><glyph d="M293 562 288 577 410 700Q422 713 427 715Q432 717 436 717Q446 717 461.5 705.5Q477 694 477 665Q477 638 460.5 624.5Q444 611 423 604ZM288 -14Q187 -14 128 49Q69 112 69 222Q69 290 89 347Q109 404 144.5 445Q180 486 230 509Q280 532 339 532Q372 532 402.5 526Q433 520 467 507Q481 502 487.5 493Q494 484 494 469Q494 465 492.5 452.5Q491 440 490 424L483 350H461Q456 421 422 457.5Q388 494 328 494Q255 494 210.5 422.5Q166 351 166 234Q166 133 201.5 79.5Q237 26 304 26Q352 26 390.5 64.5Q429 103 460 182L482 178L459 68Q452 36 440 23Q428 10 400 3Q366 -6 341 -10Q316 -14 288 -14Z" glyph-name="cacute.smcp" horiz-adv-x="520" /><glyph d="M257 555Q243 555 236 561.5Q229 568 223 585L175 728L194 732L275 633L373 732L391 728L320 585Q311 568 303.5 561.5Q296 555 280 555Z" glyph-name="caron" horiz-adv-x="440" unicode="&#711;" /><glyph d="M275 700Q259 700 252 706.5Q245 713 237 729L177 836L194 840L287 772L391 840L407 836L330 729Q319 713 310.5 706.5Q302 700 287 700Z" glyph-name="caron.case" horiz-adv-x="440" /><glyph d="M231 529 217 535 256 693Q263 719 267 726.5Q271 734 282 734Q302 734 318 723.5Q334 713 334 688Q334 675 328.5 663Q323 651 316 641Z" glyph-name="caronSlovak" horiz-adv-x="440" /><glyph d="M222 445 206 452 235 611Q240 637 246 645Q252 653 265 653Q291 653 305.5 640Q320 627 320 605Q320 593 314.5 580Q309 567 296 549Z" glyph-name="caronSlovak.case" horiz-adv-x="440" /><glyph d="M271 555Q257 555 250 561.5Q243 568 237 585L189 728L208 732L289 633L387 732L405 728L334 585Q325 568 317.5 561.5Q310 555 294 555ZM249 -14Q163 -14 116 43.5Q69 101 69 205Q69 268 86.5 321Q104 374 135 411.5Q166 449 210 470.5Q254 492 305 492Q359 492 396 459.5Q433 427 433 385Q433 360 420.5 344Q408 328 383 328Q368 328 363.5 331.5Q359 335 355 354L334 446Q324 450 310 454Q296 458 283 458Q226 458 193 395.5Q160 333 160 223Q160 137 192 91Q224 45 284 45Q314 45 343.5 57.5Q373 70 402 99L411 86Q399 66 380.5 47.5Q362 29 340 15.5Q318 2 294 -6Q270 -14 249 -14Z" glyph-name="ccaron" horiz-adv-x="433" unicode="&#269;" /><glyph d="M315 572Q299 572 292 578.5Q285 585 277 601L217 708L234 712L327 644L431 712L447 708L370 601Q359 585 350.5 578.5Q342 572 327 572ZM288 -14Q187 -14 128 49Q69 112 69 222Q69 290 89 347Q109 404 144.5 445Q180 486 230 509Q280 532 339 532Q372 532 402.5 526Q433 520 467 507Q481 502 487.5 493Q494 484 494 469Q494 465 492.5 452.5Q491 440 490 424L483 350H461Q456 421 422 457.5Q388 494 328 494Q255 494 210.5 422.5Q166 351 166 234Q166 133 201.5 79.5Q237 26 304 26Q352 26 390.5 64.5Q429 103 460 182L482 178L459 68Q452 36 440 23Q428 10 400 3Q366 -6 341 -10Q316 -14 288 -14Z" glyph-name="ccaron.smcp" horiz-adv-x="520" /><glyph d="M199 -247Q162 -247 138.5 -227Q115 -207 115 -179Q115 -167 124.5 -158.5Q134 -150 148 -150Q160 -150 163.5 -152Q167 -154 168 -163L176 -217Q181 -219 185.5 -220Q190 -221 195 -221Q214 -221 225.5 -207.5Q237 -194 237 -167Q237 -144 222 -125Q207 -106 182 -99L223 -13Q149 -4 109 52.5Q69 109 69 205Q69 268 86.5 321Q104 374 135 411.5Q166 449 210 470.5Q254 492 305 492Q359 492 396 459.5Q433 427 433 385Q433 360 420.5 344Q408 328 383 328Q368 328 363.5 331.5Q359 335 355 354L334 446Q324 450 310 454Q296 458 283 458Q226 458 193 395.5Q160 333 160 223Q160 137 192 91Q224 45 284 45Q314 45 343.5 57.5Q373 70 402 99L411 86Q389 49 345.5 20Q302 -9 261 -13L232 -58Q267 -68 285 -90.5Q303 -113 303 -148Q303 -197 272.5 -222Q242 -247 199 -247Z" glyph-name="ccedilla" horiz-adv-x="433" unicode="&#231;" /><glyph d="M246 -247Q209 -247 185.5 -227Q162 -207 162 -179Q162 -167 171.5 -158.5Q181 -150 195 -150Q207 -150 210.5 -152Q214 -154 215 -163L223 -217Q228 -219 232.5 -220Q237 -221 242 -221Q261 -221 272.5 -207.5Q284 -194 284 -167Q284 -144 269 -125Q254 -106 229 -99L270 -13Q177 -8 123 55Q69 118 69 222Q69 290 89 347Q109 404 144.5 445Q180 486 230 509Q280 532 339 532Q372 532 402.5 526Q433 520 467 507Q481 502 487.5 493Q494 484 494 469Q494 465 492.5 452.5Q491 440 490 424L483 350H461Q456 421 422 457.5Q388 494 328 494Q255 494 210.5 422.5Q166 351 166 234Q166 133 201.5 79.5Q237 26 304 26Q352 26 390.5 64.5Q429 103 460 182L482 178L459 68Q452 36 440 23Q428 10 400 3Q372 -4 351 -8Q330 -12 308 -13L279 -58Q314 -68 332 -90.5Q350 -113 350 -148Q350 -197 319.5 -222Q289 -247 246 -247Z" glyph-name="ccedilla.smcp" horiz-adv-x="520" /><glyph d="M192 540 174 544 245 687Q254 704 262 710.5Q270 717 285 717H307Q323 717 329.5 710.5Q336 704 342 687L390 544L371 540L290 640ZM249 -14Q163 -14 116 43.5Q69 101 69 205Q69 268 86.5 321Q104 374 135 411.5Q166 449 210 470.5Q254 492 305 492Q359 492 396 459.5Q433 427 433 385Q433 360 420.5 344Q408 328 383 328Q368 328 363.5 331.5Q359 335 355 354L334 446Q324 450 310 454Q296 458 283 458Q226 458 193 395.5Q160 333 160 223Q160 137 192 91Q224 45 284 45Q314 45 343.5 57.5Q373 70 402 99L411 86Q399 66 380.5 47.5Q362 29 340 15.5Q318 2 294 -6Q270 -14 249 -14Z" glyph-name="ccircumflex" horiz-adv-x="433" unicode="&#265;" /><glyph d="M225 568 209 572 285 677Q296 693 304 698.5Q312 704 327 704H340Q355 704 362.5 698.5Q370 693 378 677L435 572L419 568L327 636ZM288 -14Q187 -14 128 49Q69 112 69 222Q69 290 89 347Q109 404 144.5 445Q180 486 230 509Q280 532 339 532Q372 532 402.5 526Q433 520 467 507Q481 502 487.5 493Q494 484 494 469Q494 465 492.5 452.5Q491 440 490 424L483 350H461Q456 421 422 457.5Q388 494 328 494Q255 494 210.5 422.5Q166 351 166 234Q166 133 201.5 79.5Q237 26 304 26Q352 26 390.5 64.5Q429 103 460 182L482 178L459 68Q452 36 440 23Q428 10 400 3Q366 -6 341 -10Q316 -14 288 -14Z" glyph-name="ccircumflex.smcp" horiz-adv-x="520" /><glyph d="M284 579Q262 579 249 593.5Q236 608 236 630Q236 657 252 675Q268 693 296 693Q318 693 331 678.5Q344 664 344 642Q344 615 328 597Q312 579 284 579ZM249 -14Q163 -14 116 43.5Q69 101 69 205Q69 268 86.5 321Q104 374 135 411.5Q166 449 210 470.5Q254 492 305 492Q359 492 396 459.5Q433 427 433 385Q433 360 420.5 344Q408 328 383 328Q368 328 363.5 331.5Q359 335 355 354L334 446Q324 450 310 454Q296 458 283 458Q226 458 193 395.5Q160 333 160 223Q160 137 192 91Q224 45 284 45Q314 45 343.5 57.5Q373 70 402 99L411 86Q399 66 380.5 47.5Q362 29 340 15.5Q318 2 294 -6Q270 -14 249 -14Z" glyph-name="cdotaccent" horiz-adv-x="433" unicode="&#267;" /><glyph d="M322 588Q300 588 287 603.5Q274 619 274 641Q274 668 290 687Q306 706 334 706Q356 706 369 690.5Q382 675 382 653Q382 626 366 607Q350 588 322 588ZM288 -14Q187 -14 128 49Q69 112 69 222Q69 290 89 347Q109 404 144.5 445Q180 486 230 509Q280 532 339 532Q372 532 402.5 526Q433 520 467 507Q481 502 487.5 493Q494 484 494 469Q494 465 492.5 452.5Q491 440 490 424L483 350H461Q456 421 422 457.5Q388 494 328 494Q255 494 210.5 422.5Q166 351 166 234Q166 133 201.5 79.5Q237 26 304 26Q352 26 390.5 64.5Q429 103 460 182L482 178L459 68Q452 36 440 23Q428 10 400 3Q366 -6 341 -10Q316 -14 288 -14Z" glyph-name="cdotaccent.smcp" horiz-adv-x="520" /><glyph d="M176 -247Q139 -247 115.5 -227Q92 -207 92 -179Q92 -167 101.5 -158.5Q111 -150 125 -150Q137 -150 140.5 -152Q144 -154 145 -163L153 -217Q158 -219 162.5 -220Q167 -221 172 -221Q191 -221 202.5 -207.5Q214 -194 214 -167Q214 -144 199 -125Q184 -106 159 -99L213 15H257L209 -58Q244 -68 262 -90.5Q280 -113 280 -148Q280 -197 249.5 -222Q219 -247 176 -247Z" glyph-name="cedilla" horiz-adv-x="440" unicode="&#184;" /><glyph d="M174 -247Q138 -247 112.5 -227.5Q87 -208 87 -180Q87 -167 96 -157.5Q105 -148 118 -148Q130 -148 134 -150.5Q138 -153 139 -160L147 -217Q152 -221 156.5 -222.5Q161 -224 167 -224Q188 -224 200.5 -209.5Q213 -195 213 -170Q213 -146 199.5 -129.5Q186 -113 160 -105L211 15H259L214 -61Q250 -71 268 -93Q286 -115 286 -148Q286 -191 254.5 -219Q223 -247 174 -247Z" glyph-name="cedilla.case" horiz-adv-x="440" /><glyph d="M205 -116 234 70Q161 83 121.5 138.5Q82 194 82 285Q82 344 99 394Q116 444 146 481Q176 518 219 541.5Q262 565 313 570L341 750H378L350 572Q406 570 444 537.5Q482 505 482 465Q482 440 468.5 424Q455 408 427 408Q411 408 406 411.5Q401 415 397 434L373 526Q367 528 359.5 531Q352 534 344 535L281 129Q289 127 298.5 126Q308 125 318 125Q351 125 383.5 137.5Q416 150 448 179L458 166Q445 146 424.5 127.5Q404 109 380 95.5Q356 82 330 74Q304 66 280 66Q278 66 275.5 66Q273 66 271 66L242 -116ZM182 303Q182 245 198.5 204.5Q215 164 246 144L308 538Q250 533 216 471Q182 409 182 303Z" glyph-name="cent" horiz-adv-x="475" unicode="&#162;" /><glyph d="M179 -93 203 54Q138 64 103 109.5Q68 155 68 228Q68 321 124 386Q180 451 270 461L293 600H325L302 462Q352 461 386 433Q420 405 420 372Q420 353 408 339.5Q396 326 372 326Q358 326 353.5 329Q349 332 345 347L325 421Q319 423 311.5 425Q304 427 297 428L244 105Q251 104 259.5 103Q268 102 276 102Q305 102 334 112.5Q363 123 391 146L399 130Q388 114 369.5 99.5Q351 85 330 74.5Q309 64 286 57.5Q263 51 242 51Q241 51 239 51Q237 51 235 51L212 -93ZM156 242Q156 195 170.5 163.5Q185 132 213 116L265 430Q215 425 185.5 375.5Q156 326 156 242Z" glyph-name="cent.smcp" horiz-adv-x="432" /><glyph d="M178 540 160 544 231 687Q240 704 248 710.5Q256 717 271 717H293Q309 717 315.5 710.5Q322 704 328 687L376 544L357 540L276 640Z" glyph-name="circumflex" horiz-adv-x="440" unicode="&#710;" /><glyph d="M185 696 169 700 245 805Q256 821 264 826.5Q272 832 287 832H300Q315 832 322.5 826.5Q330 821 338 805L395 700L379 696L287 764Z" glyph-name="circumflex.case" horiz-adv-x="440" /><glyph d="M143 310Q121 310 107.5 325.5Q94 341 94 366Q94 396 111 416Q128 436 153 436Q175 436 188.5 420.5Q202 405 202 380Q202 350 185 330Q168 310 143 310ZM114 -10Q92 -10 78.5 5.5Q65 21 65 46Q65 76 82 96Q99 116 124 116Q146 116 159.5 100.5Q173 85 173 60Q173 30 156 10Q139 -10 114 -10Z" glyph-name="colon" horiz-adv-x="229" unicode=":" /><glyph d="M34 -150 28 -133Q53 -108 70.5 -78.5Q88 -49 97 -16L71 60Q69 66 68 69Q67 72 67 74Q67 87 82 100Q97 113 118 113Q142 113 156 97Q170 81 170 53Q170 4 138.5 -53Q107 -110 34 -150Z" glyph-name="comma" horiz-adv-x="229" unicode="," /><glyph d="M135 -238 129 -223Q159 -203 170 -190Q181 -177 188 -159L165 -109Q164 -105 163 -102.5Q162 -100 162 -98Q162 -86 177 -76.5Q192 -67 210 -67Q233 -67 247.5 -82.5Q262 -98 262 -123Q262 -163 235 -187Q208 -211 135 -238Z" glyph-name="commaaccent" horiz-adv-x="440" unicode="&#63171;" /><glyph d="M133 -244 130 -230Q159 -208 170 -192.5Q181 -177 188 -160L170 -115Q168 -108 167 -105.5Q166 -103 166 -101Q166 -90 180 -80.5Q194 -71 211 -71Q235 -71 248 -85Q261 -99 261 -124Q261 -164 230.5 -192.5Q200 -221 133 -244Z" glyph-name="commaaccent.case" horiz-adv-x="440" /><glyph d="M360 -27Q230 -27 153 54.5Q76 136 76 273Q76 358 102 431Q128 504 173.5 556.5Q219 609 282.5 639Q346 669 421 669Q551 669 628 587.5Q705 506 705 369Q705 284 679 211Q653 138 607.5 85.5Q562 33 498.5 3Q435 -27 360 -27ZM364 25Q426 25 478 49.5Q530 74 567 117.5Q604 161 624.5 222.5Q645 284 645 358Q645 483 586 550Q527 617 417 617Q355 617 303 592.5Q251 568 214 524.5Q177 481 156.5 419.5Q136 358 136 284Q136 159 195 92Q254 25 364 25ZM382 162Q323 162 289 200.5Q255 239 255 305Q255 346 267 381.5Q279 417 300.5 443Q322 469 351 484Q380 499 413 499Q435 499 453 495Q471 491 485 484Q493 480 496.5 474.5Q500 469 500 460Q500 458 500 459.5Q500 461 498 436L494 393H482Q476 435 458 454.5Q440 474 406 474Q371 474 349 430Q327 386 327 314Q327 254 345.5 220Q364 186 396 186Q423 186 442.5 208Q462 230 478 276L490 275L479 213Q476 193 470 185Q464 177 447 171Q435 167 418.5 164.5Q402 162 382 162Z" glyph-name="copyright" horiz-adv-x="724" unicode="&#169;" /><glyph d="M73 94 42 135 108 201Q95 223 87.5 249.5Q80 276 80 304Q80 342 94 381Q108 420 130 447L75 515L114 555L163 480Q182 498 209 508Q236 518 261 518Q284 518 309.5 507.5Q335 497 350 480L412 555L445 515L378 448Q391 428 398.5 401Q406 374 406 345Q406 308 392 269Q378 230 356 202L411 135L372 94L322 170Q301 152 275.5 141.5Q250 131 226 131Q201 131 176.5 141.5Q152 152 135 169ZM231 178Q281 178 316.5 227Q352 276 352 346Q352 401 326 436Q300 471 257 471Q203 471 169 424.5Q135 378 135 304Q135 248 161.5 213Q188 178 231 178Z" glyph-name="currency" horiz-adv-x="433" unicode="&#164;" /><glyph d="M216 -14Q146 -14 108 41.5Q70 97 70 189Q70 255 88 310.5Q106 366 138 405.5Q170 445 214 467.5Q258 490 309 490Q332 490 356 485.5Q380 481 396 475L406 582Q408 606 409.5 625Q411 644 411 649Q411 666 404 675Q397 684 378 688L333 697L335 716Q348 720 368.5 724Q389 728 412 730.5Q435 733 457.5 734.5Q480 736 498 736H509Q502 690 495.5 640Q489 590 484 530L450 137Q449 118 447.5 99Q446 80 446 73Q446 49 461.5 39.5Q477 30 522 30L520 8Q498 1 477 -3Q456 -7 440 -7Q405 -7 386 12.5Q367 32 367 69Q367 74 368.5 89Q370 104 373 128Q341 59 300 22.5Q259 -14 216 -14ZM246 43Q270 43 292.5 64.5Q315 86 333.5 123.5Q352 161 365 213.5Q378 266 383 326L389 403Q372 428 347 442.5Q322 457 290 457Q236 457 198.5 396.5Q161 336 161 220Q161 135 183.5 89Q206 43 246 43Z" glyph-name="d" horiz-adv-x="528" unicode="d" /><glyph d="M24 0 26 25 61 31Q96 37 110.5 52Q125 67 128 104L154 394Q155 410 156 420Q157 430 157 434Q157 459 146.5 471Q136 483 105 487L65 493L67 518H214Q370 518 461 449.5Q552 381 552 256Q552 127 469.5 63.5Q387 0 235 0ZM269 37Q363 37 408.5 94Q454 151 454 250Q454 307 438.5 349.5Q423 392 395.5 420.5Q368 449 330 463.5Q292 478 248 479L210 46Q219 43 237.5 40Q256 37 269 37Z" glyph-name="d.smcp" horiz-adv-x="573" /><glyph d="M184 -250 249 499H111L115 546H253L271 750H335L317 546H456L452 499H313L247 -250Z" glyph-name="dagger" horiz-adv-x="475" unicode="&#8224;" /><glyph d="M68 0 72 46H210L249 499H111L115 545H253L271 750H335L317 545H456L452 499H313L273 46H412L408 0H269L247 -250H184L206 0Z" glyph-name="daggerdbl" horiz-adv-x="475" unicode="&#8225;" /><glyph d="M216 -14Q146 -14 108 41.5Q70 97 70 189Q70 255 88 310.5Q106 366 138 405.5Q170 445 214 467.5Q258 490 309 490Q332 490 356 485.5Q380 481 396 475L406 582Q408 606 409.5 625Q411 644 411 649Q411 666 404 675Q397 684 378 688L333 697L335 716Q348 720 368.5 724Q389 728 412 730.5Q435 733 457.5 734.5Q480 736 498 736H509Q502 690 495.5 640Q489 590 484 530L450 137Q449 118 447.5 99Q446 80 446 73Q446 49 461.5 39.5Q477 30 522 30L520 8Q498 1 477 -3Q456 -7 440 -7Q405 -7 386 12.5Q367 32 367 69Q367 74 368.5 89Q370 104 373 128Q341 59 300 22.5Q259 -14 216 -14ZM541 530 527 536 566 694Q573 720 577 727.5Q581 735 592 735Q612 735 628 724.5Q644 714 644 689Q644 676 638.5 664Q633 652 626 642ZM246 43Q270 43 292.5 64.5Q315 86 333.5 123.5Q352 161 365 213.5Q378 266 383 326L389 403Q372 428 347 442.5Q322 457 290 457Q236 457 198.5 396.5Q161 336 161 220Q161 135 183.5 89Q206 43 246 43Z" glyph-name="dcaron" horiz-adv-x="528" unicode="&#271;" /><glyph d="M303 572Q287 572 280 578.5Q273 585 265 601L205 708L222 712L315 644L419 712L435 708L358 601Q347 585 338.5 578.5Q330 572 315 572ZM24 0 26 25 61 31Q96 37 110.5 52Q125 67 128 104L154 394Q155 410 156 420Q157 430 157 434Q157 459 146.5 471Q136 483 105 487L65 493L67 518H214Q370 518 461 449.5Q552 381 552 256Q552 127 469.5 63.5Q387 0 235 0ZM269 37Q363 37 408.5 94Q454 151 454 250Q454 307 438.5 349.5Q423 392 395.5 420.5Q368 449 330 463.5Q292 478 248 479L210 46Q219 43 237.5 40Q256 37 269 37Z" glyph-name="dcaron.smcp" horiz-adv-x="573" /><glyph d="M216 -14Q146 -14 108 41.5Q70 97 70 189Q70 255 88 310.5Q106 366 138 405.5Q170 445 214 467.5Q258 490 309 490Q332 490 356 485.5Q380 481 396 475L406 578H299L302 614H409Q410 627 410.5 636.5Q411 646 411 649Q411 666 404 675Q397 684 378 688L333 697L335 716Q348 720 368.5 724Q389 728 412 730.5Q435 733 457.5 734.5Q480 736 498 736H509Q505 707 500.5 677Q496 647 492 614H549L546 578H488L450 137Q449 118 447.5 99Q446 80 446 73Q446 49 461.5 39.5Q477 30 522 30L520 8Q498 1 477 -3Q456 -7 440 -7Q405 -7 386 12.5Q367 32 367 69Q367 74 368.5 89Q370 104 373 128Q341 59 300 22.5Q259 -14 216 -14ZM246 43Q270 43 292.5 64.5Q315 86 333.5 123.5Q352 161 365 213.5Q378 266 383 326L389 403Q372 428 347 442.5Q322 457 290 457Q236 457 198.5 396.5Q161 336 161 220Q161 135 183.5 89Q206 43 246 43Z" glyph-name="dcroat" horiz-adv-x="528" unicode="&#273;" /><glyph d="M24 0 26 25 61 31Q96 37 110.5 52Q125 67 128 104L141 250H76L79 286H144L154 394Q155 410 156 420Q157 430 157 434Q157 459 146.5 471Q136 483 105 487L65 493L67 518H214Q370 518 461 449.5Q552 381 552 256Q552 127 469.5 63.5Q387 0 235 0ZM269 37Q363 37 408.5 94Q454 151 454 250Q454 307 438.5 349.5Q423 392 395.5 420.5Q368 449 330 463.5Q292 478 248 479L231 286H348L345 250H228L210 46Q219 43 237.5 40Q256 37 269 37Z" glyph-name="dcroat.smcp" horiz-adv-x="573" /><glyph d="M192 316Q126 316 92 356.5Q58 397 58 460Q58 499 69.5 534Q81 569 102 595Q123 621 153.5 636.5Q184 652 222 652Q288 652 322 611.5Q356 571 356 508Q356 469 344.5 434Q333 399 312 373Q291 347 260.5 331.5Q230 316 192 316ZM196 368Q240 368 267 405.5Q294 443 294 503Q294 552 272.5 576Q251 600 218 600Q174 600 147 562.5Q120 525 120 465Q120 416 141.5 392Q163 368 196 368Z" glyph-name="degree" horiz-adv-x="340" unicode="&#176;" /><glyph d="M194 581Q173 581 160.5 594.5Q148 608 148 630Q148 656 163.5 673.5Q179 691 206 691Q227 691 239.5 677.5Q252 664 252 642Q252 616 236.5 598.5Q221 581 194 581ZM345 581Q324 581 311.5 594.5Q299 608 299 630Q299 656 314.5 673.5Q330 691 357 691Q378 691 390.5 677.5Q403 664 403 642Q403 616 387.5 598.5Q372 581 345 581Z" glyph-name="dieresis" horiz-adv-x="440" unicode="&#168;" /><glyph d="M205 717Q184 717 171.5 730.5Q159 744 159 766Q159 792 174.5 809.5Q190 827 217 827Q238 827 250.5 813.5Q263 800 263 778Q263 752 247.5 734.5Q232 717 205 717ZM357 717Q336 717 323.5 730.5Q311 744 311 766Q311 792 326.5 809.5Q342 827 369 827Q390 827 402.5 813.5Q415 800 415 778Q415 752 399.5 734.5Q384 717 357 717Z" glyph-name="dieresis.case" horiz-adv-x="440" /><glyph d="M278 465Q260 465 248.5 478Q237 491 237 511Q237 533 250.5 551Q264 569 287 569Q305 569 316.5 556Q328 543 328 523Q328 501 314.5 483Q301 465 278 465ZM97 313 101 365H438L433 313ZM248 109Q230 109 218.5 122Q207 135 207 155Q207 177 220.5 195Q234 213 257 213Q275 213 286.5 200Q298 187 298 167Q298 145 284.5 127Q271 109 248 109Z" glyph-name="divide" horiz-adv-x="475" unicode="&#247;" /><glyph d="M175 -116 191 -12Q170 -11 152 -7.5Q134 -4 118 2Q88 12 76.5 23Q65 34 62 54Q61 60 60.5 70Q60 80 60 89V200L85 204Q100 129 127.5 85.5Q155 42 198 30L238 287Q160 327 126 370.5Q92 414 92 479Q92 556 146.5 608Q201 660 285 660Q288 660 291 660Q294 660 297 660L311 750H348L334 658Q358 655 379.5 649.5Q401 644 422 634Q436 627 442.5 616Q449 605 449 587Q449 582 448 569Q447 556 446 546L437 466H414Q407 529 386 566Q365 603 327 615L289 377L316 364Q387 328 419 284.5Q451 241 451 181Q451 135 435 99Q419 63 391 38Q363 13 324 -0.5Q285 -14 239 -14Q236 -14 233.5 -14Q231 -14 228 -14L212 -116ZM170 511Q170 475 189.5 448Q209 421 255 395L291 622Q289 622 286 622Q283 622 281 622Q231 622 200.5 593Q170 564 170 511ZM367 144Q367 183 343.5 214.5Q320 246 273 270L234 24H239Q299 24 333 54Q367 84 367 144Z" glyph-name="dollar" horiz-adv-x="475" unicode="$" /><glyph d="M169 -93 182 -12Q165 -11 150.5 -8Q136 -5 123 -1Q97 7 86 14.5Q75 22 73 40Q72 47 71.5 54Q71 61 71 68L69 169L91 172Q104 114 129 78Q154 42 189 30L222 228Q157 257 127.5 293Q98 329 98 383Q98 446 147 489Q196 532 268 532Q269 532 270 532Q271 532 272 532L283 600H315L304 531Q329 529 351.5 524Q374 519 393 511Q406 506 411.5 497Q417 488 417 474Q417 470 416 459.5Q415 449 414 441L405 366H384Q378 420 356 451Q334 482 297 491L267 308L273 306L302 294Q363 269 390 234Q417 199 417 149Q417 77 364 31.5Q311 -14 229 -14Q225 -14 221.5 -14Q218 -14 215 -14L202 -93ZM171 410Q171 381 186 361Q201 341 237 322L266 495H263Q218 495 194.5 473.5Q171 452 171 410ZM257 213 252 215 221 23Q223 23 225 23Q227 23 229 23Q280 23 311 47.5Q342 72 342 118Q342 152 321.5 173.5Q301 195 257 213Z" glyph-name="dollar.smcp" horiz-adv-x="440" /><glyph d="M270 579Q248 579 235 593.5Q222 608 222 630Q222 657 238 675Q254 693 282 693Q304 693 317 678.5Q330 664 330 642Q330 615 314 597Q298 579 270 579Z" glyph-name="dotaccent" horiz-adv-x="440" unicode="&#729;" /><glyph d="M282 716Q260 716 247 731.5Q234 747 234 769Q234 796 250 815Q266 834 294 834Q316 834 329 818.5Q342 803 342 781Q342 754 326 735Q310 716 282 716Z" glyph-name="dotaccent.case" horiz-adv-x="440" /><glyph d="M176 -8Q133 -8 114 13Q95 34 95 72Q95 77 96.5 95.5Q98 114 100 135L118 330Q119 348 120.5 369.5Q122 391 122 397Q122 422 112 431Q102 440 76 440Q74 440 69 440Q64 440 58 439L60 461Q76 467 102.5 473Q129 479 148 479Q175 479 191.5 464Q208 449 208 418Q208 413 206.5 388.5Q205 364 203 338L184 137Q183 118 181.5 99Q180 80 180 73Q180 49 195.5 39.5Q211 30 256 30L254 8Q232 1 212 -3.5Q192 -8 176 -8Z" glyph-name="dotlessi" horiz-adv-x="262" unicode="&#305;" /><glyph d="M14 -245Q-17 -245 -35 -232.5Q-53 -220 -53 -198Q-53 -185 -46 -175Q-39 -165 -27 -165Q-26 -165 -23.5 -166Q-21 -167 -16 -168L62 -196Q71 -172 76 -153.5Q81 -135 84.5 -114.5Q88 -94 90 -68Q92 -42 95 -4L119 330Q120 350 122 370.5Q124 391 124 397Q124 422 113.5 431Q103 440 77 440Q74 440 69.5 440Q65 440 59 439L61 461Q77 467 103.5 473Q130 479 149 479Q179 479 194 464Q209 449 209 421Q209 416 207 390Q205 364 204 338L184 54Q180 -8 165 -62.5Q150 -117 128 -157.5Q106 -198 76.5 -221.5Q47 -245 14 -245Z" glyph-name="dotlessj" horiz-adv-x="258" unicode="&#567;" /><glyph d="M254 -15Q162 -15 116 45Q70 105 70 208Q70 269 86.5 321.5Q103 374 132.5 411.5Q162 449 204.5 470.5Q247 492 298 492Q352 492 386.5 467Q421 442 421 396Q421 351 389.5 321.5Q358 292 283 267L159 226Q159 130 194 87Q229 44 295 44Q325 44 352 55Q379 66 406 89L413 73Q382 33 343 9Q304 -15 254 -15ZM161 275 232 287Q291 297 315.5 322Q340 347 340 384Q340 415 324 436.5Q308 458 277 458Q233 458 200.5 416Q168 374 161 275Z" glyph-name="e" horiz-adv-x="427" unicode="e" /><glyph d="M24 0 26 25 61 31Q96 37 110.5 52Q125 67 128 104L154 394Q155 410 156 420Q157 430 157 434Q157 459 146.5 471Q136 483 105 487L65 493L67 518H487Q497 518 502.5 513Q508 508 508 499Q508 497 507.5 491Q507 485 506 478L495 362H474L470 388Q462 441 436 460Q410 479 350 479H248L231 293H380L402 365H422L407 182H386L378 255H228L210 45Q227 41 249 38Q271 35 297 35Q366 35 399.5 58Q433 81 458 142L468 167L489 163L456 14Q454 3 446.5 -1.5Q439 -6 426 -6Q421 -6 402.5 -5Q384 -4 361 -3Q338 -2 313 -1Q288 0 269 0Z" glyph-name="e.smcp" horiz-adv-x="514" /><glyph d="M254 549 245 562 342 694Q355 712 360 715.5Q365 719 370 719Q382 719 399.5 708Q417 697 417 666Q417 646 405 633.5Q393 621 377 613ZM254 -15Q162 -15 116 45Q70 105 70 208Q70 269 86.5 321.5Q103 374 132.5 411.5Q162 449 204.5 470.5Q247 492 298 492Q352 492 386.5 467Q421 442 421 396Q421 351 389.5 321.5Q358 292 283 267L159 226Q159 130 194 87Q229 44 295 44Q325 44 352 55Q379 66 406 89L413 73Q382 33 343 9Q304 -15 254 -15ZM161 275 232 287Q291 297 315.5 322Q340 347 340 384Q340 415 324 436.5Q308 458 277 458Q233 458 200.5 416Q168 374 161 275Z" glyph-name="eacute" horiz-adv-x="427" unicode="&#233;" /><glyph d="M271 562 266 577 388 700Q400 713 405 715Q410 717 414 717Q424 717 439.5 705.5Q455 694 455 665Q455 638 438.5 624.5Q422 611 401 604ZM24 0 26 25 61 31Q96 37 110.5 52Q125 67 128 104L154 394Q155 410 156 420Q157 430 157 434Q157 459 146.5 471Q136 483 105 487L65 493L67 518H487Q497 518 502.5 513Q508 508 508 499Q508 497 507.5 491Q507 485 506 478L495 362H474L470 388Q462 441 436 460Q410 479 350 479H248L231 293H380L402 365H422L407 182H386L378 255H228L210 45Q227 41 249 38Q271 35 297 35Q366 35 399.5 58Q433 81 458 142L468 167L489 163L456 14Q454 3 446.5 -1.5Q439 -6 426 -6Q421 -6 402.5 -5Q384 -4 361 -3Q338 -2 313 -1Q288 0 269 0Z" glyph-name="eacute.smcp" horiz-adv-x="515" /><glyph d="M292 551Q250 551 228 584Q206 617 206 685Q206 692 206 700Q206 708 207 716L225 720Q231 674 250 650.5Q269 627 299 627Q330 627 352 650Q374 673 390 720L407 716Q397 633 367.5 592Q338 551 292 551ZM254 -15Q162 -15 116 45Q70 105 70 208Q70 269 86.5 321.5Q103 374 132.5 411.5Q162 449 204.5 470.5Q247 492 298 492Q352 492 386.5 467Q421 442 421 396Q421 351 389.5 321.5Q358 292 283 267L159 226Q159 130 194 87Q229 44 295 44Q325 44 352 55Q379 66 406 89L413 73Q382 33 343 9Q304 -15 254 -15ZM161 275 232 287Q291 297 315.5 322Q340 347 340 384Q340 415 324 436.5Q308 458 277 458Q233 458 200.5 416Q168 374 161 275Z" glyph-name="ebreve" horiz-adv-x="427" unicode="&#277;" /><glyph d="M298 568Q255 568 231 597Q207 626 207 683Q207 689 207 695Q207 701 208 708H226Q231 676 251 660Q271 644 305 644Q339 644 361.5 659.5Q384 675 396 708H414Q408 639 377 603.5Q346 568 298 568ZM24 0 26 25 61 31Q96 37 110.5 52Q125 67 128 104L154 394Q155 410 156 420Q157 430 157 434Q157 459 146.5 471Q136 483 105 487L65 493L67 518H487Q497 518 502.5 513Q508 508 508 499Q508 497 507.5 491Q507 485 506 478L495 362H474L470 388Q462 441 436 460Q410 479 350 479H248L231 293H380L402 365H422L407 182H386L378 255H228L210 45Q227 41 249 38Q271 35 297 35Q366 35 399.5 58Q433 81 458 142L468 167L489 163L456 14Q454 3 446.5 -1.5Q439 -6 426 -6Q421 -6 402.5 -5Q384 -4 361 -3Q338 -2 313 -1Q288 0 269 0Z" glyph-name="ebreve.smcp" horiz-adv-x="515" /><glyph d="M281 555Q267 555 260 561.5Q253 568 247 585L199 728L218 732L299 633L397 732L415 728L344 585Q335 568 327.5 561.5Q320 555 304 555ZM254 -15Q162 -15 116 45Q70 105 70 208Q70 269 86.5 321.5Q103 374 132.5 411.5Q162 449 204.5 470.5Q247 492 298 492Q352 492 386.5 467Q421 442 421 396Q421 351 389.5 321.5Q358 292 283 267L159 226Q159 130 194 87Q229 44 295 44Q325 44 352 55Q379 66 406 89L413 73Q382 33 343 9Q304 -15 254 -15ZM161 275 232 287Q291 297 315.5 322Q340 347 340 384Q340 415 324 436.5Q308 458 277 458Q233 458 200.5 416Q168 374 161 275Z" glyph-name="ecaron" horiz-adv-x="427" unicode="&#283;" /><glyph d="M293 572Q277 572 270 578.5Q263 585 255 601L195 708L212 712L305 644L409 712L425 708L348 601Q337 585 328.5 578.5Q320 572 305 572ZM24 0 26 25 61 31Q96 37 110.5 52Q125 67 128 104L154 394Q155 410 156 420Q157 430 157 434Q157 459 146.5 471Q136 483 105 487L65 493L67 518H487Q497 518 502.5 513Q508 508 508 499Q508 497 507.5 491Q507 485 506 478L495 362H474L470 388Q462 441 436 460Q410 479 350 479H248L231 293H380L402 365H422L407 182H386L378 255H228L210 45Q227 41 249 38Q271 35 297 35Q366 35 399.5 58Q433 81 458 142L468 167L489 163L456 14Q454 3 446.5 -1.5Q439 -6 426 -6Q421 -6 402.5 -5Q384 -4 361 -3Q338 -2 313 -1Q288 0 269 0Z" glyph-name="ecaron.smcp" horiz-adv-x="515" /><glyph d="M202 540 184 544 255 687Q264 704 272 710.5Q280 717 295 717H317Q333 717 339.5 710.5Q346 704 352 687L400 544L381 540L300 640ZM254 -15Q162 -15 116 45Q70 105 70 208Q70 269 86.5 321.5Q103 374 132.5 411.5Q162 449 204.5 470.5Q247 492 298 492Q352 492 386.5 467Q421 442 421 396Q421 351 389.5 321.5Q358 292 283 267L159 226Q159 130 194 87Q229 44 295 44Q325 44 352 55Q379 66 406 89L413 73Q382 33 343 9Q304 -15 254 -15ZM161 275 232 287Q291 297 315.5 322Q340 347 340 384Q340 415 324 436.5Q308 458 277 458Q233 458 200.5 416Q168 374 161 275Z" glyph-name="ecircumflex" horiz-adv-x="427" unicode="&#234;" /><glyph d="M203 568 187 572 263 677Q274 693 282 698.5Q290 704 305 704H318Q333 704 340.5 698.5Q348 693 356 677L413 572L397 568L305 636ZM24 0 26 25 61 31Q96 37 110.5 52Q125 67 128 104L154 394Q155 410 156 420Q157 430 157 434Q157 459 146.5 471Q136 483 105 487L65 493L67 518H487Q497 518 502.5 513Q508 508 508 499Q508 497 507.5 491Q507 485 506 478L495 362H474L470 388Q462 441 436 460Q410 479 350 479H248L231 293H380L402 365H422L407 182H386L378 255H228L210 45Q227 41 249 38Q271 35 297 35Q366 35 399.5 58Q433 81 458 142L468 167L489 163L456 14Q454 3 446.5 -1.5Q439 -6 426 -6Q421 -6 402.5 -5Q384 -4 361 -3Q338 -2 313 -1Q288 0 269 0Z" glyph-name="ecircumflex.smcp" horiz-adv-x="515" /><glyph d="M218 581Q197 581 184.5 594.5Q172 608 172 630Q172 656 187.5 673.5Q203 691 230 691Q251 691 263.5 677.5Q276 664 276 642Q276 616 260.5 598.5Q245 581 218 581ZM369 581Q348 581 335.5 594.5Q323 608 323 630Q323 656 338.5 673.5Q354 691 381 691Q402 691 414.5 677.5Q427 664 427 642Q427 616 411.5 598.5Q396 581 369 581ZM254 -15Q162 -15 116 45Q70 105 70 208Q70 269 86.5 321.5Q103 374 132.5 411.5Q162 449 204.5 470.5Q247 492 298 492Q352 492 386.5 467Q421 442 421 396Q421 351 389.5 321.5Q358 292 283 267L159 226Q159 130 194 87Q229 44 295 44Q325 44 352 55Q379 66 406 89L413 73Q382 33 343 9Q304 -15 254 -15ZM161 275 232 287Q291 297 315.5 322Q340 347 340 384Q340 415 324 436.5Q308 458 277 458Q233 458 200.5 416Q168 374 161 275Z" glyph-name="edieresis" horiz-adv-x="427" unicode="&#235;" /><glyph d="M223 589Q202 589 189.5 602.5Q177 616 177 638Q177 664 192.5 681.5Q208 699 235 699Q256 699 268.5 685.5Q281 672 281 650Q281 624 265.5 606.5Q250 589 223 589ZM375 589Q354 589 341.5 602.5Q329 616 329 638Q329 664 344.5 681.5Q360 699 387 699Q408 699 420.5 685.5Q433 672 433 650Q433 624 417.5 606.5Q402 589 375 589ZM24 0 26 25 61 31Q96 37 110.5 52Q125 67 128 104L154 394Q155 410 156 420Q157 430 157 434Q157 459 146.5 471Q136 483 105 487L65 493L67 518H487Q497 518 502.5 513Q508 508 508 499Q508 497 507.5 491Q507 485 506 478L495 362H474L470 388Q462 441 436 460Q410 479 350 479H248L231 293H380L402 365H422L407 182H386L378 255H228L210 45Q227 41 249 38Q271 35 297 35Q366 35 399.5 58Q433 81 458 142L468 167L489 163L456 14Q454 3 446.5 -1.5Q439 -6 426 -6Q421 -6 402.5 -5Q384 -4 361 -3Q338 -2 313 -1Q288 0 269 0Z" glyph-name="edieresis.smcp" horiz-adv-x="515" /><glyph d="M294 579Q272 579 259 593.5Q246 608 246 630Q246 657 262 675Q278 693 306 693Q328 693 341 678.5Q354 664 354 642Q354 615 338 597Q322 579 294 579ZM254 -15Q162 -15 116 45Q70 105 70 208Q70 269 86.5 321.5Q103 374 132.5 411.5Q162 449 204.5 470.5Q247 492 298 492Q352 492 386.5 467Q421 442 421 396Q421 351 389.5 321.5Q358 292 283 267L159 226Q159 130 194 87Q229 44 295 44Q325 44 352 55Q379 66 406 89L413 73Q382 33 343 9Q304 -15 254 -15ZM161 275 232 287Q291 297 315.5 322Q340 347 340 384Q340 415 324 436.5Q308 458 277 458Q233 458 200.5 416Q168 374 161 275Z" glyph-name="edotaccent" horiz-adv-x="427" unicode="&#279;" /><glyph d="M300 588Q278 588 265 603.5Q252 619 252 641Q252 668 268 687Q284 706 312 706Q334 706 347 690.5Q360 675 360 653Q360 626 344 607Q328 588 300 588ZM24 0 26 25 61 31Q96 37 110.5 52Q125 67 128 104L154 394Q155 410 156 420Q157 430 157 434Q157 459 146.5 471Q136 483 105 487L65 493L67 518H487Q497 518 502.5 513Q508 508 508 499Q508 497 507.5 491Q507 485 506 478L495 362H474L470 388Q462 441 436 460Q410 479 350 479H248L231 293H380L402 365H422L407 182H386L378 255H228L210 45Q227 41 249 38Q271 35 297 35Q366 35 399.5 58Q433 81 458 142L468 167L489 163L456 14Q454 3 446.5 -1.5Q439 -6 426 -6Q421 -6 402.5 -5Q384 -4 361 -3Q338 -2 313 -1Q288 0 269 0Z" glyph-name="edotaccent.smcp" horiz-adv-x="515" /><glyph d="M307 550 201 610Q186 618 175.5 630.5Q165 643 165 663Q165 691 186 706Q207 721 221 721Q226 721 230.5 717Q235 713 245 695L319 564ZM254 -15Q162 -15 116 45Q70 105 70 208Q70 269 86.5 321.5Q103 374 132.5 411.5Q162 449 204.5 470.5Q247 492 298 492Q352 492 386.5 467Q421 442 421 396Q421 351 389.5 321.5Q358 292 283 267L159 226Q159 130 194 87Q229 44 295 44Q325 44 352 55Q379 66 406 89L413 73Q382 33 343 9Q304 -15 254 -15ZM161 275 232 287Q291 297 315.5 322Q340 347 340 384Q340 415 324 436.5Q308 458 277 458Q233 458 200.5 416Q168 374 161 275Z" glyph-name="egrave" horiz-adv-x="427" unicode="&#232;" /><glyph d="M327 562 198 604Q178 611 167.5 625.5Q157 640 157 662Q157 685 172 701Q187 717 204 717Q208 717 212 714.5Q216 712 226 700L334 578ZM24 0 26 25 61 31Q96 37 110.5 52Q125 67 128 104L154 394Q155 410 156 420Q157 430 157 434Q157 459 146.5 471Q136 483 105 487L65 493L67 518H487Q497 518 502.5 513Q508 508 508 499Q508 497 507.5 491Q507 485 506 478L495 362H474L470 388Q462 441 436 460Q410 479 350 479H248L231 293H380L402 365H422L407 182H386L378 255H228L210 45Q227 41 249 38Q271 35 297 35Q366 35 399.5 58Q433 81 458 142L468 167L489 163L456 14Q454 3 446.5 -1.5Q439 -6 426 -6Q421 -6 402.5 -5Q384 -4 361 -3Q338 -2 313 -1Q288 0 269 0Z" glyph-name="egrave.smcp" horiz-adv-x="515" /><glyph d="M249 -12Q165 -12 116 29.5Q67 71 67 145Q67 197 108.5 246.5Q150 296 214 321L211 323Q165 348 139 388.5Q113 429 113 479Q113 557 169 607.5Q225 658 311 658Q388 658 435.5 616.5Q483 575 483 502Q483 448 452 406.5Q421 365 359 340L375 331Q422 304 445.5 265.5Q469 227 469 177Q469 94 407 41Q345 -12 249 -12ZM334 355Q368 381 383.5 417Q399 453 399 502Q399 553 370 587Q341 621 299 621Q253 621 226.5 591.5Q200 562 200 513Q200 472 222.5 439Q245 406 294 378ZM257 26Q314 26 345 59.5Q376 93 376 156Q376 196 353.5 226.5Q331 257 282 284L237 309Q191 275 171 237Q151 199 151 148Q151 100 181 63Q211 26 257 26Z" glyph-name="eight" horiz-adv-x="510" unicode="8" /><glyph d="M149 -13Q103 -13 76 9.5Q49 32 49 69Q49 104 67.5 127.5Q86 151 126 167L117 172Q95 185 83 205.5Q71 226 71 252Q71 296 104.5 326.5Q138 357 187 357Q229 357 255 335.5Q281 314 281 280Q281 247 265.5 224.5Q250 202 215 185L231 176Q253 163 264 144.5Q275 126 275 101Q275 51 239.5 19Q204 -13 149 -13ZM200 193Q218 210 226 229.5Q234 249 234 277Q234 305 220 320.5Q206 336 181 336Q155 336 139 318Q123 300 123 271Q123 250 135.5 234Q148 218 176 205ZM153 9Q184 9 202.5 28.5Q221 48 221 81Q221 102 208.5 117.5Q196 133 168 147L142 159Q118 143 106 120Q94 97 94 70Q94 42 110 25.5Q126 9 153 9Z" glyph-name="eight.dnom" horiz-adv-x="309" /><glyph d="M229 -14Q152 -14 103.5 30Q55 74 55 143Q55 203 94.5 255Q134 307 198 333Q152 363 126.5 401Q101 439 101 484Q101 571 155.5 619.5Q210 668 292 668Q367 668 413 625Q459 582 459 513Q459 456 429 416Q399 376 340 349Q390 318 415 278Q440 238 440 189Q440 92 380 39Q320 -14 229 -14ZM318 362Q346 391 362 429Q378 467 378 508Q378 563 351 597.5Q324 632 280 632Q235 632 211.5 601.5Q188 571 188 519Q188 473 210.5 444.5Q233 416 279 387ZM238 21Q288 21 318.5 55Q349 89 349 154Q349 202 325.5 237Q302 272 251 302L219 321Q176 286 155.5 245.5Q135 205 135 156Q135 95 161 58Q187 21 238 21Z" glyph-name="eight.osf" horiz-adv-x="470" /><glyph d="M230 -14Q152 -14 111.5 21.5Q71 57 71 116Q71 161 102.5 199.5Q134 238 191 255Q146 278 125.5 308.5Q105 339 105 383Q105 445 157 488.5Q209 532 284 532Q355 532 394.5 498Q434 464 434 403Q434 359 406.5 327Q379 295 325 273L340 265Q382 243 402.5 212.5Q423 182 423 142Q423 76 368.5 31Q314 -14 230 -14ZM302 285Q331 306 344 335Q357 364 357 404Q357 444 333.5 470Q310 496 272 496Q232 496 209 473.5Q186 451 186 413Q186 380 206 352Q226 324 269 302ZM237 22Q287 22 314 46.5Q341 71 341 121Q341 152 321.5 176.5Q302 201 259 222L215 243Q177 217 159.5 185.5Q142 154 142 114Q142 74 168.5 48Q195 22 237 22Z" glyph-name="eight.smcp" horiz-adv-x="471" /><glyph d="M182 372Q136 372 109 394.5Q82 417 82 454Q82 489 100.5 512.5Q119 536 159 552L150 557Q128 570 116 590.5Q104 611 104 637Q104 681 137.5 711.5Q171 742 220 742Q262 742 288 720.5Q314 699 314 665Q314 632 298.5 609.5Q283 587 248 570L264 561Q286 548 297 529.5Q308 511 308 486Q308 436 272.5 404Q237 372 182 372ZM233 578Q251 595 259 614.5Q267 634 267 662Q267 690 253 705.5Q239 721 214 721Q188 721 172 703Q156 685 156 656Q156 635 168.5 619Q181 603 209 590ZM186 394Q217 394 235.5 413.5Q254 433 254 466Q254 487 241.5 502.5Q229 518 201 532L175 544Q151 528 139 505Q127 482 127 455Q127 427 143 410.5Q159 394 186 394Z" glyph-name="eight.sup" horiz-adv-x="308" /><glyph d="M235 -12Q151 -12 102 29.5Q53 71 53 145Q53 197 94.5 246.5Q136 296 200 321L197 323Q151 348 125 388.5Q99 429 99 479Q99 557 155 607.5Q211 658 297 658Q374 658 421.5 616.5Q469 575 469 502Q469 448 438 406.5Q407 365 345 340L361 331Q408 304 431.5 265.5Q455 227 455 177Q455 94 393 41Q331 -12 235 -12ZM320 355Q354 381 369.5 417Q385 453 385 502Q385 553 356 587Q327 621 285 621Q239 621 212.5 591.5Q186 562 186 513Q186 472 208.5 439Q231 406 280 378ZM243 26Q300 26 331 59.5Q362 93 362 156Q362 196 339.5 226.5Q317 257 268 284L223 309Q177 275 157 237Q137 199 137 148Q137 100 167 63Q197 26 243 26Z" glyph-name="eight.tf" horiz-adv-x="475" /><glyph d="M233 -14Q156 -14 107.5 30Q59 74 59 143Q59 203 98.5 255Q138 307 202 333Q156 363 130.5 401Q105 439 105 484Q105 571 159.5 619.5Q214 668 296 668Q371 668 417 625Q463 582 463 513Q463 456 433 416Q403 376 344 349Q394 318 419 278Q444 238 444 189Q444 92 384 39Q324 -14 233 -14ZM322 362Q350 391 366 429Q382 467 382 508Q382 563 355 597.5Q328 632 284 632Q239 632 215.5 601.5Q192 571 192 519Q192 473 214.5 444.5Q237 416 283 387ZM242 21Q292 21 322.5 55Q353 89 353 154Q353 202 329.5 237Q306 272 255 302L223 321Q180 286 159.5 245.5Q139 205 139 156Q139 95 165 58Q191 21 242 21Z" glyph-name="eight.tosf" horiz-adv-x="475" /><glyph d="M114 -10Q92 -10 78.5 5.5Q65 21 65 46Q65 76 82 96Q99 116 124 116Q146 116 159.5 100.5Q173 85 173 60Q173 30 156 10Q139 -10 114 -10ZM302 -10Q280 -10 266.5 5.5Q253 21 253 46Q253 76 270 96Q287 116 312 116Q334 116 347.5 100.5Q361 85 361 60Q361 30 344 10Q327 -10 302 -10ZM490 -10Q468 -10 454.5 5.5Q441 21 441 46Q441 76 458 96Q475 116 500 116Q522 116 535.5 100.5Q549 85 549 60Q549 30 532 10Q515 -10 490 -10Z" glyph-name="ellipsis" horiz-adv-x="605" unicode="&#8230;" /><glyph d="M194 602 198 646H404L400 602ZM254 -15Q162 -15 116 45Q70 105 70 208Q70 269 86.5 321.5Q103 374 132.5 411.5Q162 449 204.5 470.5Q247 492 298 492Q352 492 386.5 467Q421 442 421 396Q421 351 389.5 321.5Q358 292 283 267L159 226Q159 130 194 87Q229 44 295 44Q325 44 352 55Q379 66 406 89L413 73Q382 33 343 9Q304 -15 254 -15ZM161 275 232 287Q291 297 315.5 322Q340 347 340 384Q340 415 324 436.5Q308 458 277 458Q233 458 200.5 416Q168 374 161 275Z" glyph-name="emacron" horiz-adv-x="427" unicode="&#275;" /><glyph d="M189 609 194 657H419L415 609ZM24 0 26 25 61 31Q96 37 110.5 52Q125 67 128 104L154 394Q155 410 156 420Q157 430 157 434Q157 459 146.5 471Q136 483 105 487L65 493L67 518H487Q497 518 502.5 513Q508 508 508 499Q508 497 507.5 491Q507 485 506 478L495 362H474L470 388Q462 441 436 460Q410 479 350 479H248L231 293H380L402 365H422L407 182H386L378 255H228L210 45Q227 41 249 38Q271 35 297 35Q366 35 399.5 58Q433 81 458 142L468 167L489 163L456 14Q454 3 446.5 -1.5Q439 -6 426 -6Q421 -6 402.5 -5Q384 -4 361 -3Q338 -2 313 -1Q288 0 269 0Z" glyph-name="emacron.smcp" horiz-adv-x="515" /><glyph d="M69 240 73 284H856L853 240Z" glyph-name="emdash" horiz-adv-x="880" unicode="&#8212;" /><glyph d="M81 321 85 368H859L855 321Z" glyph-name="emdash.case" horiz-adv-x="880" /><glyph d="M69 240 73 284H416L413 240Z" glyph-name="endash" horiz-adv-x="440" unicode="&#8211;" /><glyph d="M81 321 85 368H419L415 321Z" glyph-name="endash.case" horiz-adv-x="440" /><glyph d="M269 -245Q236 -245 219 -233.5Q202 -222 202 -200Q202 -187 209 -176Q216 -165 228 -165Q229 -165 231 -165.5Q233 -166 238 -168L315 -201Q326 -178 333 -158.5Q340 -139 344.5 -117.5Q349 -96 352.5 -69Q356 -42 360 -4L387 276Q389 297 390.5 320.5Q392 344 392 353Q392 392 380 410.5Q368 429 340 429Q286 429 242.5 355Q199 281 186 114L179 27Q178 14 171.5 7Q165 0 153 0H82Q89 40 97 96.5Q105 153 110 210L121 330Q123 351 125 371Q127 391 127 397Q127 422 116.5 431Q106 440 80 440Q77 440 72.5 440Q68 440 62 439L64 461Q80 467 106.5 473Q133 479 152 479Q182 479 196 464Q210 449 210 421Q210 417 209 401Q208 385 207 366Q245 425 288.5 458.5Q332 492 372 492Q424 492 451 460.5Q478 429 478 362Q478 355 477 326Q476 297 473 271L449 54Q442 -7 427.5 -62Q413 -117 390.5 -157Q368 -197 337.5 -221Q307 -245 269 -245Z" glyph-name="eng" horiz-adv-x="528" unicode="&#331;" /><glyph d="M294 -231 290 -210Q324 -191 345 -174Q366 -157 379 -133.5Q392 -110 398 -75Q404 -40 408 14L410 42L203 415L170 39L268 27L266 0H24L26 25L60 32Q90 38 105 51.5Q120 65 123 90L156 384Q157 400 159 415.5Q161 431 161 436Q161 458 150.5 467Q140 476 115 483L85 492L87 518H223Q240 518 249.5 512.5Q259 507 264 497L464 130L495 479L397 491L399 518H632L630 493L592 485Q563 479 552.5 469Q542 459 539 433L495 12Q489 -46 476.5 -86Q464 -126 441 -153Q418 -180 382 -198Q346 -216 294 -231Z" glyph-name="eng.smcp" horiz-adv-x="599" /><glyph d="M256 -237Q219 -237 198 -214.5Q177 -192 177 -154Q177 -117 201 -82Q225 -47 268 -16Q179 -16 124.5 35.5Q70 87 70 208Q70 269 86.5 321.5Q103 374 132.5 411.5Q162 449 204.5 470.5Q247 492 298 492Q352 492 386.5 467Q421 442 421 396Q421 351 389.5 321.5Q358 292 283 267L159 226Q159 130 194 87Q229 44 295 44Q325 44 352 55Q379 66 406 89L413 73Q397 53 378.5 37Q360 21 342 8Q293 -30 273 -66Q253 -102 253 -136Q253 -159 265.5 -174Q278 -189 297 -189Q313 -189 324 -186Q335 -183 352 -173L348 -194Q327 -217 304 -227Q281 -237 256 -237ZM161 275 232 287Q291 297 315.5 322Q340 347 340 384Q340 415 324 436.5Q308 458 277 458Q233 458 200.5 416Q168 374 161 275Z" glyph-name="eogonek" horiz-adv-x="427" unicode="&#281;" /><glyph d="M328 -247Q290 -247 268.5 -225Q247 -203 247 -164Q247 -121 280.5 -79Q314 -37 373 -4Q348 -3 319 -1.5Q290 0 269 0H24L26 25L61 31Q96 37 110.5 52Q125 67 128 104L154 394Q155 410 156 420Q157 430 157 434Q157 459 146.5 471Q136 483 105 487L65 493L67 518H487Q497 518 502.5 513Q508 508 508 499Q508 497 507.5 491Q507 485 506 478L495 362H474L470 388Q462 441 436 460Q410 479 350 479H248L231 293H380L402 365H422L407 182H386L378 255H228L210 45Q227 41 249 38Q271 35 297 35Q366 35 399.5 58Q433 81 458 142L468 167L489 163L456 14Q454 3 446.5 -1.5Q439 -6 426 -6Q424 -6 419.5 -6Q415 -6 409 -5Q367 -39 346 -74Q325 -109 325 -146Q325 -171 337.5 -184Q350 -197 374 -197Q385 -197 396.5 -193Q408 -189 424 -179L420 -200Q404 -222 379 -234.5Q354 -247 328 -247Z" glyph-name="eogonek.smcp" horiz-adv-x="515" /><glyph d="M106 413 110 465H447L442 413ZM88 213 92 265H429L424 213Z" glyph-name="equal" horiz-adv-x="475" unicode="=" /><glyph d="M364 -12Q299 -12 241.5 9.5Q184 31 141.5 70.5Q99 110 74 167.5Q49 225 49 297Q49 374 79 441Q109 508 159 556.5Q209 605 274.5 633Q340 661 411 661Q478 661 534 637.5Q590 614 630.5 573Q671 532 693.5 475Q716 418 716 352Q716 344 716 335.5Q716 327 715 319H167Q165 319 163.5 318Q162 317 162 315Q162 311 159.5 281Q157 251 154 216.5Q151 182 148.5 153.5Q146 125 146 125Q146 121 147.5 116.5Q149 112 151 109Q186 66 246.5 42Q307 18 367 18Q442 18 510.5 49Q579 80 622 131H660Q608 66 533 27Q458 -12 364 -12ZM169 348H600Q602 348 603 350Q604 352 604 353Q604 357 606.5 386Q609 415 612 447.5Q615 480 617.5 507Q620 534 620 534Q620 538 618.5 543Q617 548 614 552Q580 596 524.5 617Q469 638 411 638Q351 638 292.5 616.5Q234 595 191 549Q186 544 183.5 538.5Q181 533 180 526Q180 520 177.5 492.5Q175 465 172.5 434.5Q170 404 168 379Q166 354 166 353Q166 351 167 349.5Q168 348 169 348Z" glyph-name="estimated" horiz-adv-x="706" unicode="&#8494;" /><glyph d="M255 -14Q174 -14 121.5 45.5Q69 105 69 209Q69 269 86.5 321.5Q104 374 135 411.5Q166 449 209.5 470.5Q253 492 303 492Q322 492 344.5 486Q367 480 381 472Q375 504 360.5 537Q346 570 327 601L233 565L224 603L306 634Q287 662 266.5 686.5Q246 711 228 731L252 733Q273 716 296 694.5Q319 673 341 647L433 682L442 644L367 616Q417 552 453 464.5Q489 377 489 269Q489 209 471.5 156.5Q454 104 423 66.5Q392 29 348.5 7.5Q305 -14 255 -14ZM277 20Q303 20 325 38Q347 56 362.5 87.5Q378 119 386.5 162Q395 205 395 255Q395 350 363 404Q331 458 281 458Q255 458 233 440Q211 422 195.5 390.5Q180 359 171.5 316Q163 273 163 223Q163 128 195 74Q227 20 277 20Z" glyph-name="eth" horiz-adv-x="516" unicode="&#240;" /><glyph d="M24 0 26 25 61 31Q96 37 110.5 52Q125 67 128 104L141 250H76L79 286H144L154 394Q155 410 156 420Q157 430 157 434Q157 459 146.5 471Q136 483 105 487L65 493L67 518H214Q370 518 461 449.5Q552 381 552 256Q552 127 469.5 63.5Q387 0 235 0ZM269 37Q363 37 408.5 94Q454 151 454 250Q454 307 438.5 349.5Q423 392 395.5 420.5Q368 449 330 463.5Q292 478 248 479L231 286H348L345 250H228L210 46Q219 43 237.5 40Q256 37 269 37Z" glyph-name="eth.smcp" horiz-adv-x="573" /><glyph d="M144 176 137 589Q136 611 136 620Q136 629 136 631Q136 643 144.5 648Q153 653 184 653Q212 653 230.5 641.5Q249 630 249 605Q249 598 246.5 581.5Q244 565 240 546L167 176ZM139 -8Q119 -8 105 6.5Q91 21 91 44Q91 72 108 91Q125 110 149 110Q169 110 183 95.5Q197 81 197 58Q197 30 180 11Q163 -8 139 -8Z" glyph-name="exclam" horiz-adv-x="282" unicode="!" /><glyph d="M128 160 115 471Q114 489 114 496Q114 503 114 505Q114 515 127 523.5Q140 532 167 532Q198 532 211 519.5Q224 507 224 484Q224 470 221.5 454.5Q219 439 215 424L154 160ZM126 -8Q107 -8 93.5 6Q80 20 80 42Q80 70 96.5 88Q113 106 136 106Q155 106 168.5 92Q182 78 182 56Q182 28 165.5 10Q149 -8 126 -8Z" glyph-name="exclam.smcp" horiz-adv-x="259" /><glyph d="M185 490Q205 490 219 475.5Q233 461 233 438Q233 410 216 391Q199 372 175 372Q155 372 141 386.5Q127 401 127 424Q127 452 144 471Q161 490 185 490ZM180 306 187 -107Q188 -129 188 -138Q188 -147 188 -149Q188 -161 179.5 -166Q171 -171 140 -171Q112 -171 93.5 -159.5Q75 -148 75 -123Q75 -116 77.5 -99.5Q80 -83 84 -64L157 306Z" glyph-name="exclamdown" horiz-adv-x="282" unicode="&#161;" /><glyph d="M200 656Q220 656 234 641.5Q248 627 248 604Q248 576 231 557Q214 538 190 538Q170 538 156 552.5Q142 567 142 590Q142 618 159 637Q176 656 200 656ZM195 472 202 59Q203 37 203 28Q203 19 203 17Q203 5 194.5 0Q186 -5 155 -5Q127 -5 108.5 6.5Q90 18 90 43Q90 50 92.5 66.5Q95 83 99 102L172 472Z" glyph-name="exclamdown.case" horiz-adv-x="282" /><glyph d="M179 525Q198 525 211.5 511Q225 497 225 475Q225 447 208.5 429Q192 411 169 411Q150 411 136.5 425Q123 439 123 461Q123 489 139.5 507Q156 525 179 525ZM177 357 190 46Q191 28 191 21Q191 14 191 12Q191 2 178 -6.5Q165 -15 138 -15Q107 -15 94 -2.5Q81 10 81 33Q81 47 83.5 62.5Q86 78 90 93L151 357Z" glyph-name="exclamdown.smcp" horiz-adv-x="259" /><glyph d="M32 -245Q3 -245 -11 -231Q-25 -217 -25 -197Q-25 -184 -18 -175.5Q-11 -167 -1 -167Q1 -167 4 -168Q7 -169 14 -172L78 -201Q96 -170 102.5 -135.5Q109 -101 112 -38L134 432H84L85 462L115 472Q127 476 132 481Q137 486 138 497L140 523Q143 567 158.5 606.5Q174 646 197.5 675.5Q221 705 252 722.5Q283 740 317 740Q345 740 364 727Q383 714 383 689Q383 671 373 661Q363 651 350 651Q348 651 344.5 652.5Q341 654 337 658L275 706Q244 679 235.5 641.5Q227 604 223 533L220 473L341 477L336 452Q334 439 329 435Q324 431 311 431H218L200 18Q197 -44 181.5 -93Q166 -142 143 -175.5Q120 -209 90.5 -227Q61 -245 32 -245Z" glyph-name="f" horiz-adv-x="304" unicode="f" /><glyph d="M24 0 26 25 61 31Q96 37 110.5 52Q125 67 128 104L154 394Q155 410 156 420Q157 430 157 434Q157 459 146.5 471Q136 483 105 487L65 493L67 518H479Q489 518 495.5 513Q502 508 502 499Q502 497 501.5 491Q501 485 500 478L489 362H468L464 388Q456 441 429.5 460Q403 479 343 479H249L231 285H373L395 357H416L398 176H377L370 247H228L210 39L329 27L327 0Z" glyph-name="f.smcp" horiz-adv-x="490" /><glyph d="M31 -245Q-2 -245 -16 -229Q-30 -213 -30 -193Q-30 -180 -22.5 -170Q-15 -160 -2 -160Q0 -160 3 -161Q6 -162 13 -166L77 -201Q95 -170 102.5 -135.5Q110 -101 113 -38L133 432H85L86 462L114 472Q126 476 131 481Q136 486 137 497L138 525Q139 569 155.5 608Q172 647 198.5 676.5Q225 706 261 723Q297 740 338 740Q351 740 372.5 736.5Q394 733 411 728Q437 732 466.5 734Q496 736 518 736H528Q521 697 515.5 643.5Q510 590 504 530L488 366Q516 423 555 457.5Q594 492 634 492Q708 492 745 436.5Q782 381 782 289Q782 219 764 163Q746 107 714.5 68Q683 29 639 8.5Q595 -12 544 -12Q487 -12 442.5 0Q398 12 368 37Q371 53 374.5 76Q378 99 381 124Q384 149 387 174Q390 199 392 219L426 582Q427 587 427 594.5Q427 602 427 606Q427 622 422.5 631Q418 640 406 646L284 706Q253 679 238 641.5Q223 604 221 533L219 473L340 477L335 452Q333 439 328 435Q323 431 310 431H217L197 18Q194 -44 178.5 -93Q163 -142 140.5 -175.5Q118 -209 89 -227Q60 -245 31 -245ZM562 21Q591 21 615 38.5Q639 56 655.5 87.5Q672 119 681 162.5Q690 206 690 258Q690 343 666.5 386.5Q643 430 603 430Q580 430 558 410Q536 390 518.5 354Q501 318 488.5 267.5Q476 217 472 155L466 73Q481 48 505.5 34.5Q530 21 562 21Z" glyph-name="f_b" horiz-adv-x="810" /><glyph d="M28 -245Q-5 -245 -19 -229Q-33 -213 -33 -193Q-33 -180 -25.5 -170Q-18 -160 -5 -160Q-3 -160 0 -161Q3 -162 10 -166L74 -201Q92 -170 99.5 -135.5Q107 -101 110 -38L135 432H87L88 462L116 472Q128 476 133 481Q138 486 139 497L140 509Q144 553 159.5 592.5Q175 632 198.5 661.5Q222 691 252.5 708.5Q283 726 317 726Q345 726 364 713Q383 700 383 675Q383 657 373 647Q363 637 350 637Q348 637 344.5 638.5Q341 640 337 644L275 692Q244 665 235 627.5Q226 590 223 519L221 473H396L400 523Q403 567 418.5 606.5Q434 646 457.5 675.5Q481 705 512 722.5Q543 740 577 740Q605 740 624 727Q643 714 643 689Q643 671 633 661Q623 651 610 651Q608 651 604.5 652.5Q601 654 597 658L535 706Q504 679 495.5 641.5Q487 604 483 533L480 473L601 477L596 452Q594 439 589 435Q584 431 571 431H478L459 108Q455 46 440 -3Q425 -52 402 -85.5Q379 -119 350.5 -137Q322 -155 293 -155Q260 -155 246 -139Q232 -123 232 -103Q232 -90 239.5 -80Q247 -70 260 -70Q262 -70 265 -71Q268 -72 275 -76L339 -111Q357 -80 364.5 -45.5Q372 -11 375 52L394 431H219L194 18Q190 -44 175 -93Q160 -142 137 -175.5Q114 -209 85.5 -227Q57 -245 28 -245Z" glyph-name="f_f" horiz-adv-x="562" unicode="&#64256;" /><glyph d="M28 -245Q-5 -245 -19 -229Q-33 -213 -33 -193Q-33 -180 -25.5 -170Q-18 -160 -5 -160Q-3 -160 0 -161Q3 -162 10 -166L74 -201Q92 -170 99.5 -135.5Q107 -101 110 -38L135 432H87L88 462L116 472Q128 476 133 481Q138 486 139 497L140 509Q144 553 159.5 592.5Q175 632 198.5 661.5Q222 691 252.5 708.5Q283 726 317 726Q345 726 364 713Q383 700 383 675Q383 657 373 647Q363 637 350 637Q348 637 344.5 638.5Q341 640 337 644L275 692Q244 665 235 627.5Q226 590 223 519L221 473L396 474L399 525Q402 569 418 608Q434 647 460.5 676.5Q487 706 522.5 723Q558 740 599 740Q612 740 628.5 736.5Q645 733 662 728Q688 732 717.5 734Q747 736 769 736H779Q772 697 766.5 643.5Q761 590 755 530L739 366Q767 423 806 457.5Q845 492 885 492Q959 492 996 436.5Q1033 381 1033 289Q1033 219 1015 163Q997 107 965.5 68Q934 29 890 8.5Q846 -12 795 -12Q738 -12 693.5 0Q649 12 619 37Q622 53 625.5 76Q629 99 632 124Q635 149 638 174Q641 199 643 219L677 582Q678 586 678 591Q678 596 678 600Q678 615 673.5 627.5Q669 640 657 646L545 706Q514 679 500 641.5Q486 604 482 533L479 473L601 477L596 452Q594 439 589 435Q584 431 571 431H478L459 108Q455 46 440 -3Q425 -52 402 -85.5Q379 -119 350.5 -137Q322 -155 293 -155Q260 -155 246 -139Q232 -123 232 -103Q232 -90 239.5 -80Q247 -70 260 -70Q262 -70 265 -71Q268 -72 275 -76L339 -111Q357 -80 364.5 -45.5Q372 -11 375 52L394 431H219L194 18Q190 -44 175 -93Q160 -142 137 -175.5Q114 -209 85.5 -227Q57 -245 28 -245ZM813 21Q842 21 866 38.5Q890 56 906.5 87.5Q923 119 932 162.5Q941 206 941 258Q941 343 917.5 386.5Q894 430 854 430Q831 430 809 410Q787 390 769.5 354Q752 318 739.5 267.5Q727 217 723 155L717 73Q732 48 756.5 34.5Q781 21 813 21Z" glyph-name="f_f_b" horiz-adv-x="1061" /><glyph d="M28 -245Q-5 -245 -19 -229Q-33 -213 -33 -193Q-33 -180 -25.5 -170Q-18 -160 -5 -160Q-3 -160 0 -161Q3 -162 10 -166L74 -201Q92 -170 99.5 -135.5Q107 -101 110 -38L135 432H87L88 462L116 472Q128 476 133 481Q138 486 139 497L140 509Q144 553 159.5 592.5Q175 632 198.5 661.5Q222 691 252.5 708.5Q283 726 317 726Q345 726 364 713Q383 700 383 675Q383 657 373 647Q363 637 350 637Q348 637 344.5 638.5Q341 640 337 644L275 692Q244 665 235 627.5Q226 590 223 519L221 473L396 474L399 525Q402 569 418 608Q434 647 460.5 676.5Q487 706 522.5 723Q558 740 599 740Q612 740 628.5 736.5Q645 733 662 728Q688 732 717.5 734Q747 736 769 736H779Q772 697 766 643.5Q760 590 755 530L740 368Q778 426 821 459Q864 492 904 492Q956 492 984 460.5Q1012 429 1012 362Q1012 355 1009.5 326Q1007 297 1004 271L987 137Q985 118 983.5 99Q982 80 982 73Q982 49 998 39.5Q1014 30 1059 30L1057 8Q1035 1 1014.5 -3Q994 -7 978 -7Q935 -7 915.5 13.5Q896 34 896 72Q896 77 897.5 95.5Q899 114 902 135L921 276Q924 297 925 320.5Q926 344 926 353Q926 392 913 410.5Q900 429 872 429Q818 429 774.5 355Q731 281 718 114L711 27Q710 14 703.5 7Q697 0 685 0H614Q621 40 629 96.5Q637 153 642 210L677 582Q678 586 678 591Q678 596 678 600Q678 615 673.5 627.5Q669 640 657 646L545 706Q514 679 500 641.5Q486 604 482 533L479 473L601 477L596 452Q594 439 589 435Q584 431 571 431H478L459 108Q455 46 440 -3Q425 -52 402 -85.5Q379 -119 350.5 -137Q322 -155 293 -155Q260 -155 246 -139Q232 -123 232 -103Q232 -90 239.5 -80Q247 -70 260 -70Q262 -70 265 -71Q268 -72 275 -76L339 -111Q357 -80 364.5 -45.5Q372 -11 375 52L394 431H219L194 18Q190 -44 175 -93Q160 -142 137 -175.5Q114 -209 85.5 -227Q57 -245 28 -245Z" glyph-name="f_f_h" horiz-adv-x="1063" /><glyph d="M28 -245Q-5 -245 -19 -229Q-33 -213 -33 -193Q-33 -180 -25.5 -170Q-18 -160 -5 -160Q-3 -160 0 -161Q3 -162 10 -166L74 -201Q92 -170 99.5 -135.5Q107 -101 110 -38L135 432H87L88 462L116 472Q128 476 133 481Q138 486 139 497L140 509Q144 553 159.5 592.5Q175 632 198.5 661.5Q222 691 252.5 708.5Q283 726 317 726Q345 726 364 713Q383 700 383 675Q383 657 373 647Q363 637 350 637Q348 637 344.5 638.5Q341 640 337 644L275 692Q244 665 235 627.5Q226 590 223 519L221 473L397 474L401 525Q404 569 424 608Q444 647 473.5 676.5Q503 706 539.5 723Q576 740 611 740Q678 740 710.5 716.5Q743 693 743 659Q743 636 729 623.5Q715 611 699 611Q693 611 689.5 612.5Q686 614 677 621L572 705Q532 688 510 646Q488 604 484 533L481 473Q506 474 537.5 475Q569 476 597.5 477Q626 478 648 478.5Q670 479 674 479Q701 479 717.5 464Q734 449 734 418Q734 413 732.5 388.5Q731 364 729 338L710 137Q709 118 707.5 99Q706 80 706 73Q706 49 721.5 39.5Q737 30 782 30L780 8Q758 1 738 -3.5Q718 -8 702 -8Q659 -8 640 13Q621 34 621 72Q621 77 622.5 95.5Q624 114 626 135L644 330Q645 348 646.5 369.5Q648 391 648 397Q648 410 645.5 418Q643 426 638 431H478L459 108Q455 46 440 -3Q425 -52 402 -85.5Q379 -119 350.5 -137Q322 -155 293 -155Q260 -155 246 -139Q232 -123 232 -103Q232 -90 239.5 -80Q247 -70 260 -70Q262 -70 265 -71Q268 -72 275 -76L339 -111Q357 -80 364.5 -45.5Q372 -11 375 52L394 431H219L194 18Q190 -44 175 -93Q160 -142 137 -175.5Q114 -209 85.5 -227Q57 -245 28 -245Z" glyph-name="f_f_i" horiz-adv-x="788" unicode="&#64259;" /><glyph d="M539 -245Q508 -245 490 -232.5Q472 -220 472 -198Q472 -185 479 -175Q486 -165 498 -165Q499 -165 501 -165.5Q503 -166 508 -168L585 -201Q594 -177 599.5 -157.5Q605 -138 608.5 -116.5Q612 -95 614.5 -68.5Q617 -42 620 -4L644 330Q645 348 646.5 369.5Q648 391 648 397Q648 410 645.5 418Q643 426 638 431H478L459 108Q455 46 440 -3Q425 -52 402 -85.5Q379 -119 350.5 -137Q322 -155 293 -155Q260 -155 246 -139Q232 -123 232 -103Q232 -90 239.5 -80Q247 -70 260 -70Q262 -70 265 -71Q268 -72 275 -76L339 -111Q357 -80 364.5 -45.5Q372 -11 375 52L394 431H219L194 18Q190 -44 175 -93Q160 -142 137 -175.5Q114 -209 85.5 -227Q57 -245 28 -245Q-5 -245 -19 -229Q-33 -213 -33 -193Q-33 -180 -25.5 -170Q-18 -160 -5 -160Q-3 -160 0 -161Q3 -162 10 -166L74 -201Q92 -170 99.5 -135.5Q107 -101 110 -38L135 432H87L88 462L116 472Q128 476 133 481Q138 486 139 497L140 509Q144 553 159.5 592.5Q175 632 198.5 661.5Q222 691 252.5 708.5Q283 726 317 726Q345 726 364 713Q383 700 383 675Q383 657 373 647Q363 637 350 637Q348 637 344.5 638.5Q341 640 337 644L275 692Q244 665 235 627.5Q226 590 223 519L221 473H396L401 525Q405 569 425 608Q445 647 474.5 676.5Q504 706 540 723Q576 740 611 740Q678 740 710.5 716.5Q743 693 743 659Q743 636 729 623.5Q715 611 699 611Q693 611 689.5 612.5Q686 614 677 621L572 705Q532 688 510 646Q488 604 484 533L481 473Q506 474 537.5 475Q569 476 597.5 477Q626 478 648 478.5Q670 479 674 479Q701 479 717.5 464Q734 449 734 418Q734 413 733 388.5Q732 364 730 338L709 54Q705 -8 690 -62.5Q675 -117 653 -157.5Q631 -198 601.5 -221.5Q572 -245 539 -245Z" glyph-name="f_f_j" horiz-adv-x="783" /><glyph d="M28 -245Q-5 -245 -19 -229Q-33 -213 -33 -193Q-33 -180 -25.5 -170Q-18 -160 -5 -160Q-3 -160 0 -161Q3 -162 10 -166L74 -201Q92 -170 99.5 -135.5Q107 -101 110 -38L135 432H87L88 462L116 472Q128 476 133 481Q138 486 139 497L140 509Q144 553 159.5 592.5Q175 632 198.5 661.5Q222 691 252.5 708.5Q283 726 317 726Q345 726 364 713Q383 700 383 675Q383 657 373 647Q363 637 350 637Q348 637 344.5 638.5Q341 640 337 644L275 692Q244 665 235 627.5Q226 590 223 519L221 473L396 474L399 525Q402 569 418 608Q434 647 460.5 676.5Q487 706 522.5 723Q558 740 599 740Q612 740 628.5 736.5Q645 733 662 728Q688 732 717.5 734Q747 736 769 736H779Q772 697 766 643.5Q760 590 755 530L732 270Q802 297 844 324.5Q886 352 926 396L910 454Q907 464 906 468Q905 472 905 473Q905 480 916.5 485Q928 490 945 490Q966 490 979.5 476Q993 462 993 440Q993 402 959 367Q925 332 849 287L944 93Q963 55 975 40Q987 25 1012 25Q1014 25 1016.5 25Q1019 25 1025 26L1023 5Q1010 -1 988.5 -6Q967 -11 953 -11Q916 -11 896 6.5Q876 24 855 71L778 247L728 218L711 27Q710 14 703.5 7Q697 0 685 0H614Q621 40 629 96.5Q637 153 642 210L677 582Q678 586 678 591Q678 596 678 600Q678 615 673.5 627.5Q669 640 657 646L545 706Q514 679 500 641.5Q486 604 482 533L479 473L601 477L596 452Q594 439 589 435Q584 431 571 431H478L459 108Q455 46 440 -3Q425 -52 402 -85.5Q379 -119 350.5 -137Q322 -155 293 -155Q260 -155 246 -139Q232 -123 232 -103Q232 -90 239.5 -80Q247 -70 260 -70Q262 -70 265 -71Q268 -72 275 -76L339 -111Q357 -80 364.5 -45.5Q372 -11 375 52L394 431H219L194 18Q190 -44 175 -93Q160 -142 137 -175.5Q114 -209 85.5 -227Q57 -245 28 -245Z" glyph-name="f_f_k" horiz-adv-x="1004" /><glyph d="M28 -245Q-5 -245 -19 -229Q-33 -213 -33 -193Q-33 -180 -25.5 -170Q-18 -160 -5 -160Q-3 -160 0 -161Q3 -162 10 -166L74 -201Q92 -170 99.5 -135.5Q107 -101 110 -38L135 432H87L88 462L116 472Q128 476 133 481Q138 486 139 497L140 509Q144 553 159.5 592.5Q175 632 198.5 661.5Q222 691 252.5 708.5Q283 726 317 726Q345 726 364 713Q383 700 383 675Q383 657 373 647Q363 637 350 637Q348 637 344.5 638.5Q341 640 337 644L275 692Q244 665 235 627.5Q226 590 223 519L221 474H396L399 525Q402 569 418 608Q434 647 460.5 676.5Q487 706 522.5 723Q558 740 599 740Q612 740 628.5 736.5Q645 733 662 728Q688 732 717.5 734Q747 736 769 736H779Q772 697 766 643.5Q760 590 755 530L719 137Q718 118 716.5 99Q715 80 715 73Q715 49 730.5 39.5Q746 30 791 30L789 8Q767 1 747 -3.5Q727 -8 711 -8Q668 -8 649.5 13Q631 34 631 72Q631 77 632.5 95.5Q634 114 636 135L677 582Q678 586 678 591Q678 596 678 600Q678 615 673.5 627.5Q669 640 657 646L545 706Q514 679 500 641.5Q486 604 482 533L479 473L601 477L596 452Q594 439 589 435Q584 431 571 431H478L459 108Q455 46 440 -3Q425 -52 402 -85.5Q379 -119 350.5 -137Q322 -155 293 -155Q260 -155 246 -139Q232 -123 232 -103Q232 -90 239.5 -80Q247 -70 260 -70Q262 -70 265 -71Q268 -72 275 -76L339 -111Q357 -80 364.5 -45.5Q372 -11 375 52L394 431H219L194 18Q190 -44 175 -93Q160 -142 137 -175.5Q114 -209 85.5 -227Q57 -245 28 -245Z" glyph-name="f_f_l" horiz-adv-x="797" unicode="&#64260;" /><glyph d="M31 -245Q-2 -245 -16 -229Q-30 -213 -30 -193Q-30 -180 -22.5 -170Q-15 -160 -2 -160Q0 -160 3 -161Q6 -162 13 -166L77 -201Q95 -170 102.5 -135.5Q110 -101 113 -38L133 432H85L86 462L114 472Q126 476 131 481Q136 486 137 497L138 525Q139 569 155.5 608Q172 647 198.5 676.5Q225 706 261 723Q297 740 338 740Q351 740 372.5 736.5Q394 733 411 728Q437 732 466.5 734Q496 736 518 736H529Q522 690 515.5 640Q509 590 504 530L489 368Q527 426 570 459Q613 492 653 492Q705 492 733 460.5Q761 429 761 362Q761 355 758.5 326Q756 297 753 271L736 137Q734 118 732.5 99Q731 80 731 73Q731 49 747 39.5Q763 30 808 30L806 8Q784 1 763.5 -3Q743 -7 727 -7Q684 -7 664.5 13.5Q645 34 645 72Q645 77 646.5 95.5Q648 114 651 135L670 276Q673 297 674 320.5Q675 344 675 353Q675 392 662 410.5Q649 429 621 429Q567 429 523.5 355Q480 281 467 114L460 27Q459 14 452.5 7Q446 0 434 0H363Q370 40 378 96.5Q386 153 391 210L426 582Q427 586 427 591Q427 596 427 600Q427 615 422.5 627.5Q418 640 406 646L284 706Q253 679 238 641.5Q223 604 221 533L219 473L340 477L335 452Q333 439 328 435Q323 431 310 431H217L197 18Q194 -44 178.5 -93Q163 -142 140.5 -175.5Q118 -209 89 -227Q60 -245 31 -245Z" glyph-name="f_h" horiz-adv-x="812" /><glyph d="M289 -245Q258 -245 240 -232.5Q222 -220 222 -198Q222 -185 229 -175Q236 -165 248 -165Q249 -165 251 -165.5Q253 -166 258 -168L335 -201Q344 -177 349.5 -157.5Q355 -138 358.5 -116.5Q362 -95 364.5 -68.5Q367 -42 370 -4L394 330Q395 348 396.5 369.5Q398 391 398 397Q398 410 395.5 418Q393 426 388 431H224L193 54Q188 -8 172.5 -62.5Q157 -117 132.5 -157.5Q108 -198 75.5 -221.5Q43 -245 5 -245Q-28 -245 -43.5 -232Q-59 -219 -59 -194Q-59 -176 -49 -165Q-39 -154 -26 -154Q-24 -154 -20.5 -156Q-17 -158 -13 -161L51 -201Q74 -170 87.5 -135.5Q101 -101 105 -38L140 432H93L94 462L122 472Q134 476 139 481Q144 486 145 497L148 525Q152 569 173 608Q194 647 224 676.5Q254 706 290.5 723Q327 740 362 740Q429 740 460.5 716.5Q492 693 492 659Q492 636 478 623.5Q464 611 448 611Q442 611 438.5 612.5Q435 614 426 621L323 705Q283 688 260.5 646Q238 604 232 533L227 473Q237 473 268.5 474Q300 475 333.5 476Q367 477 394 478Q421 479 424 479Q451 479 467.5 464Q484 449 484 418Q484 413 482 388.5Q480 364 479 338L459 54Q455 -8 440 -62.5Q425 -117 403 -157.5Q381 -198 351.5 -221.5Q322 -245 289 -245Z" glyph-name="f_j" horiz-adv-x="533" /><glyph d="M31 -245Q-2 -245 -16 -229Q-30 -213 -30 -193Q-30 -180 -22.5 -170Q-15 -160 -2 -160Q0 -160 3 -161Q6 -162 13 -166L77 -201Q95 -170 102.5 -135.5Q110 -101 113 -38L133 432H85L86 462L114 472Q126 476 131 481Q136 486 137 497L138 525Q139 569 155.5 608Q172 647 198.5 676.5Q225 706 261 723Q297 740 338 740Q351 740 372.5 736.5Q394 733 411 728Q437 732 466.5 734Q496 736 518 736H529Q522 690 515.5 640Q509 590 504 530L481 270Q551 297 593 324.5Q635 352 675 396L659 454Q656 464 655 468Q654 472 654 473Q654 480 665.5 485Q677 490 694 490Q715 490 728.5 476Q742 462 742 440Q742 402 708 367Q674 332 598 287L693 93Q712 55 724 40Q736 25 761 25Q763 25 765.5 25Q768 25 774 26L772 5Q759 -1 737.5 -6Q716 -11 702 -11Q665 -11 645 6.5Q625 24 604 71L527 247L477 218L460 27Q459 14 452.5 7Q446 0 434 0H363Q370 40 378 96.5Q386 153 391 210L426 582Q427 586 427 591Q427 596 427 600Q427 615 422.5 627.5Q418 640 406 646L284 706Q253 679 238 641.5Q223 604 221 533L219 473L340 477L335 452Q333 439 328 435Q323 431 310 431H217L197 18Q194 -44 178.5 -93Q163 -142 140.5 -175.5Q118 -209 89 -227Q60 -245 31 -245Z" glyph-name="f_k" horiz-adv-x="753" /><glyph d="M31 -245Q-2 -245 -16 -229Q-30 -213 -30 -193Q-30 -180 -22.5 -170Q-15 -160 -2 -160Q0 -160 3 -161Q6 -162 13 -166L77 -201Q95 -170 102.5 -135.5Q110 -101 113 -38L133 432H86L87 462L115 472Q127 476 132 481Q137 486 138 497L140 525Q143 569 163 608Q183 647 212.5 676.5Q242 706 278.5 723Q315 740 350 740Q417 740 449.5 716.5Q482 693 482 659Q482 636 468 623.5Q454 611 438 611Q432 611 428.5 612.5Q425 614 416 621L311 705Q271 688 249 646Q227 604 223 533L220 473Q245 474 276.5 475Q308 476 337 477Q366 478 388 478.5Q410 479 414 479Q441 479 457.5 464Q474 449 474 418Q474 413 472.5 388.5Q471 364 469 338L450 137Q449 118 447.5 99Q446 80 446 73Q446 49 461.5 39.5Q477 30 522 30L520 8Q498 1 478 -3.5Q458 -8 442 -8Q399 -8 380 13Q361 34 361 72Q361 77 362.5 95.5Q364 114 366 135L384 330Q385 348 386.5 369.5Q388 391 388 397Q388 410 385.5 418Q383 426 378 431H217L197 18Q194 -44 178.5 -93Q163 -142 140.5 -175.5Q118 -209 89 -227Q60 -245 31 -245Z" glyph-name="fi" horiz-adv-x="528" unicode="&#64257;" /><glyph d="M24 0 26 25 61 31Q96 37 110.5 52Q125 67 128 104L154 394Q155 410 156 420Q157 430 157 434Q157 459 146.5 471Q136 483 105 487L65 493L67 518H479Q489 518 495.5 513Q502 508 502 499Q502 497 501.5 491Q501 485 500 478L489 362H468L464 388Q456 441 429.5 460Q403 479 343 479H249L231 285H373L395 357H416L398 176H377L370 247H228L210 39L329 27L327 0ZM514 0 516 25 551 31Q586 37 600.5 52Q615 67 618 104L644 394Q645 410 646 420Q647 430 647 434Q647 459 636 471Q625 483 594 487L555 493L557 518H837L835 493L800 487Q764 481 750 466Q736 451 733 414L707 124Q706 108 705 98Q704 88 704 84Q704 59 715 47Q726 35 757 31L796 25L794 0Z" glyph-name="fi.smcp" horiz-adv-x="815" /><glyph d="M214 -14Q141 -14 92.5 24Q44 62 44 116Q44 141 57.5 154Q71 167 93 167Q114 167 119 162.5Q124 158 126 145L144 46Q160 35 177 29Q194 23 218 23Q264 23 294 61Q324 99 324 159Q324 234 268 279.5Q212 325 113 335L158 646H358Q386 646 397.5 651.5Q409 657 422 676L429 686L449 683L427 588Q423 570 415 563.5Q407 557 389 557H190L165 394Q219 392 266.5 377.5Q314 363 348.5 337.5Q383 312 402.5 274.5Q422 237 422 189Q422 94 365 40Q308 -14 214 -14Z" glyph-name="five" horiz-adv-x="462" unicode="5" /><glyph d="M126 -13Q87 -13 60.5 7.5Q34 28 34 58Q34 70 43.5 78.5Q53 87 66 87Q78 87 81.5 84.5Q85 82 86 73L92 19Q99 13 107.5 10.5Q116 8 127 8Q156 8 172 27Q188 46 188 80Q188 123 161 142.5Q134 162 76 162L101 350H220Q234 350 240.5 353Q247 356 254 366L258 372L270 370L256 311Q253 300 248.5 296Q244 292 235 292H117L107 211Q175 211 216 181Q257 151 257 101Q257 50 220.5 18.5Q184 -13 126 -13Z" glyph-name="five.dnom" horiz-adv-x="275" /><glyph d="M161 -190Q87 -190 46 -153Q5 -116 5 -65Q5 -42 20.5 -29Q36 -16 55 -16Q75 -16 80.5 -20.5Q86 -25 87 -38L101 -141Q112 -148 123.5 -152.5Q135 -157 156 -157Q218 -157 250.5 -117.5Q283 -78 283 -12Q283 66 233 109.5Q183 153 88 158L146 474H325Q356 474 368.5 480.5Q381 487 393 504L400 514L422 511L403 415Q399 397 391 390.5Q383 384 365 384Q356 384 341 385Q326 386 309.5 386.5Q293 387 277 388Q261 389 250 389H175L143 223Q247 216 313 164Q379 112 379 17Q379 -78 319 -134Q259 -190 161 -190Z" glyph-name="five.osf" horiz-adv-x="436" /><glyph d="M198 -14Q134 -14 93 17.5Q52 49 52 93Q52 112 64.5 127Q77 142 96 142Q114 142 121 138Q128 134 129 124L144 39Q157 32 169.5 27Q182 22 203 22Q245 22 270.5 51Q296 80 296 129Q296 189 245.5 222Q195 255 117 255L153 518H326Q350 518 360 521.5Q370 525 382 541L388 549L409 546L387 454Q383 440 376 435Q369 430 353 430H182L165 316Q214 316 255 305.5Q296 295 326 274.5Q356 254 373 224Q390 194 390 156Q390 75 340 30.5Q290 -14 198 -14Z" glyph-name="five.smcp" horiz-adv-x="444" /><glyph d="M160 372Q121 372 94.5 392.5Q68 413 68 443Q68 455 77.5 463.5Q87 472 100 472Q112 472 115.5 469.5Q119 467 120 458L126 404Q133 398 141.5 395.5Q150 393 161 393Q190 393 206 412Q222 431 222 465Q222 508 195 527.5Q168 547 110 547L135 735H254Q268 735 274.5 738Q281 741 288 751L292 757L304 755L290 696Q287 685 282.5 681Q278 677 269 677H151L141 596Q209 596 250 566Q291 536 291 486Q291 435 254.5 403.5Q218 372 160 372Z" glyph-name="five.sup" horiz-adv-x="275" /><glyph d="M208 -14Q135 -14 86.5 24Q38 62 38 116Q38 141 51.5 154Q65 167 87 167Q108 167 113 162.5Q118 158 120 145L138 46Q154 35 171 29Q188 23 212 23Q258 23 288 61Q318 99 318 159Q318 234 262 279.5Q206 325 107 335L152 646H352Q380 646 391.5 651.5Q403 657 416 676L423 686L443 683L421 588Q417 570 409 563.5Q401 557 383 557H184L159 394Q213 392 260.5 377.5Q308 363 342.5 337.5Q377 312 396.5 274.5Q416 237 416 189Q416 94 359 40Q302 -14 208 -14Z" glyph-name="five.tf" horiz-adv-x="475" /><glyph d="M176 -190Q102 -190 61 -153Q20 -116 20 -65Q20 -42 35.5 -29Q51 -16 70 -16Q90 -16 95.5 -20.5Q101 -25 102 -38L116 -141Q127 -148 138.5 -152.5Q150 -157 171 -157Q233 -157 265.5 -117.5Q298 -78 298 -12Q298 66 248 109.5Q198 153 103 158L161 474H340Q371 474 383.5 480.5Q396 487 408 504L415 514L437 511L418 415Q414 397 406 390.5Q398 384 380 384Q371 384 356 385Q341 386 324.5 386.5Q308 387 292 388Q276 389 265 389H190L158 223Q262 216 328 164Q394 112 394 17Q394 -78 334 -134Q274 -190 176 -190Z" glyph-name="five.tosf" horiz-adv-x="475" /><glyph d="M31 -245Q-2 -245 -16 -229Q-30 -213 -30 -193Q-30 -180 -22.5 -170Q-15 -160 -2 -160Q0 -160 3 -161Q6 -162 13 -166L77 -201Q95 -170 102.5 -135.5Q110 -101 113 -38L133 432H85L86 462L114 472Q126 476 131 481Q136 486 137 497L138 525Q139 569 155.5 608Q172 647 198.5 676.5Q225 706 261 723Q297 740 338 740Q351 740 372.5 736.5Q394 733 411 728Q437 732 466.5 734Q496 736 518 736H528Q521 697 515 643.5Q509 590 504 530L468 137Q467 118 465.5 99Q464 80 464 73Q464 49 479.5 39.5Q495 30 540 30L538 8Q516 1 496 -3.5Q476 -8 460 -8Q417 -8 398.5 13Q380 34 380 72Q380 77 381.5 95.5Q383 114 385 135L426 582Q427 586 427 591Q427 596 427 600Q427 615 422.5 627.5Q418 640 406 646L284 706Q253 679 238 641.5Q223 604 221 533L219 473L340 477L335 452Q333 439 328 435Q323 431 310 431H217L197 18Q194 -44 178.5 -93Q163 -142 140.5 -175.5Q118 -209 89 -227Q60 -245 31 -245Z" glyph-name="fl" horiz-adv-x="546" unicode="&#64258;" /><glyph d="M24 0 26 25 61 31Q96 37 110.5 52Q125 67 128 104L154 394Q155 410 156 420Q157 430 157 434Q157 459 146.5 471Q136 483 105 487L65 493L67 518H479Q489 518 495.5 513Q502 508 502 499Q502 497 501.5 491Q501 485 500 478L489 362H468L464 388Q456 441 429.5 460Q403 479 343 479H249L231 285H373L395 357H416L398 176H377L370 247H228L210 39L329 27L327 0ZM898 -6Q893 -6 874 -5Q855 -4 831 -3Q807 -2 781 -1Q755 0 736 0H514L516 25L551 31Q586 37 600.5 52Q615 67 618 104L644 394Q645 410 646 420Q647 430 647 434Q647 459 636.5 471Q626 483 595 487L555 493L557 518H858L856 490L739 480L701 46Q712 43 733 40Q754 37 773 37Q835 37 869 65Q903 93 929 156L944 192L965 188L928 14Q926 3 918.5 -1.5Q911 -6 898 -6Z" glyph-name="fl.smcp" horiz-adv-x="969" /><glyph d="M176 0 178 28 283 38 296 184H55L54 205L323 614Q335 633 347.5 639Q360 645 382 646L433 650Q426 615 419 565.5Q412 516 408 467L389 246H471L456 184H384L377 108Q376 92 375 82.5Q374 73 374 69Q374 53 380 46.5Q386 40 400 37L459 24L457 0ZM131 246H301L329 548Z" glyph-name="four" horiz-adv-x="514" unicode="4" /><glyph d="M107 -6 108 11 162 16 169 93H28L29 107L180 332Q187 342 193.5 345.5Q200 349 211 350L253 353Q250 334 246.5 306Q243 278 241 251L230 132H277L269 93H227L225 70Q224 55 223 45.5Q222 36 222 32Q222 25 225.5 20Q229 15 236 14L263 8L262 -6ZM77 132H172L187 298Z" glyph-name="four.dnom" horiz-adv-x="291" /><glyph d="M248 -180 265 11H23L22 40L286 437Q298 455 309 463.5Q320 472 337 473L400 478Q395 448 388.5 402Q382 356 378 316L356 69H447L437 11H351L335 -173ZM90 69H270L297 380Z" glyph-name="four.osf" horiz-adv-x="461" /><glyph d="M160 0 162 27 250 38 258 141H43V164L280 497Q290 512 301.5 517Q313 522 332 523L390 526Q384 498 378 455.5Q372 413 368 374L351 198H427L414 141H347L345 127Q343 114 342 101Q341 88 341 84Q341 59 351.5 47Q362 35 393 31L433 25L431 0ZM119 198H263L284 434Z" glyph-name="four.smcp" horiz-adv-x="472" /><glyph d="M141 379 142 396 196 401 203 478H62L63 492L214 717Q221 727 227.5 730.5Q234 734 245 735L287 738Q284 719 280.5 691Q277 663 275 636L264 517H311L303 478H261L259 455Q258 440 257 430.5Q256 421 256 417Q256 410 259.5 405Q263 400 270 399L297 393L296 379ZM111 517H206L221 683Z" glyph-name="four.sup" horiz-adv-x="292" /><glyph d="M150 0 152 28 257 38 270 184H29L28 205L297 614Q309 633 321.5 639Q334 645 356 646L407 650Q400 615 393 565.5Q386 516 382 467L363 246H445L430 184H358L351 108Q350 92 349 82.5Q348 73 348 69Q348 53 354 46.5Q360 40 374 37L433 24L431 0ZM105 246H275L303 548Z" glyph-name="four.tf" horiz-adv-x="475" /><glyph d="M257 -180 274 11H32L31 40L295 437Q307 455 318 463.5Q329 472 346 473L409 478Q404 448 397.5 402Q391 356 387 316L365 69H456L446 11H360L344 -173ZM99 69H279L306 380Z" glyph-name="four.tosf" horiz-adv-x="475" /><glyph d="M32 0H-20L350 646H402Z" glyph-name="fraction" horiz-adv-x="326" unicode="&#8260;" /><glyph d="M204 -249Q132 -249 90 -219Q48 -189 48 -140Q48 -120 62.5 -107Q77 -94 100 -94Q111 -94 114 -96.5Q117 -99 119 -110L135 -201Q153 -211 169 -213Q185 -215 207 -215Q264 -215 296.5 -170.5Q329 -126 342 -22L359 121Q331 65 292.5 25.5Q254 -14 212 -14Q145 -14 107.5 40Q70 94 70 189Q70 255 87.5 310.5Q105 366 136 405.5Q167 445 209.5 467.5Q252 490 302 490Q350 490 395.5 479.5Q441 469 472 450Q462 397 455.5 337.5Q449 278 443 210L425 6Q415 -114 356.5 -181.5Q298 -249 204 -249ZM236 43Q261 43 283.5 64Q306 85 323.5 122.5Q341 160 353 212.5Q365 265 370 327L377 416Q360 434 337.5 445.5Q315 457 283 457Q226 457 193.5 392.5Q161 328 161 220Q161 135 180 89Q199 43 236 43Z" glyph-name="g" horiz-adv-x="507" unicode="g" /><glyph d="M211 -249Q128 -249 79 -215Q30 -181 30 -126Q30 -83 63.5 -52.5Q97 -22 154 -15Q132 -8 118.5 11Q105 30 105 53Q105 83 132.5 108Q160 133 204 143Q152 151 120 197Q88 243 88 299Q88 344 103.5 380Q119 416 145 440.5Q171 465 205.5 478.5Q240 492 278 492Q297 492 313 488.5Q329 485 344 478L448 529Q453 531 458 532.5Q463 534 465 534Q470 534 473 525.5Q476 517 476 503Q476 477 461 465Q446 453 412 453Q403 453 388 455Q373 457 356 461Q395 439 415.5 397.5Q436 356 436 316Q436 235 386.5 188Q337 141 254 135Q223 133 201.5 119Q180 105 180 88Q180 70 196.5 59Q213 48 247 43L295 36Q378 24 414 -3Q450 -30 450 -80Q450 -154 383 -201.5Q316 -249 211 -249ZM256 169Q299 169 322 206.5Q345 244 345 321Q345 378 323 419.5Q301 461 268 461Q226 461 203 422Q180 383 180 306Q180 251 202 210Q224 169 256 169ZM223 -216Q284 -216 324 -187Q364 -158 364 -113Q364 -83 340 -66Q316 -49 257 -37Q230 -32 213 -30Q196 -28 187 -28Q150 -28 129.5 -51Q109 -74 109 -111Q109 -155 141.5 -185.5Q174 -216 223 -216Z" glyph-name="g.alt" horiz-adv-x="483" /><glyph d="M302 -14Q192 -14 130.5 47Q69 108 69 218Q69 287 89 345Q109 403 144.5 444Q180 485 229.5 508.5Q279 532 338 532Q384 532 419.5 522.5Q455 513 479 503Q492 498 497.5 488.5Q503 479 503 466Q503 463 502.5 454Q502 445 501 438L493 350H471Q461 422 425 458Q389 494 327 494Q255 494 210.5 425Q166 356 166 240Q166 132 203.5 78.5Q241 25 317 25Q333 25 350 28Q367 31 383 36L398 197L324 205L326 233H531L528 205L515 204Q495 203 485 193.5Q475 184 473 160L462 48Q461 32 454.5 23.5Q448 15 432 10Q401 0 371.5 -7Q342 -14 302 -14Z" glyph-name="g.smcp" horiz-adv-x="550" /><glyph d="M299 551Q257 551 235 584Q213 617 213 685Q213 692 213 700Q213 708 214 716L232 720Q238 674 257 650.5Q276 627 306 627Q337 627 359 650Q381 673 397 720L414 716Q404 633 374.5 592Q345 551 299 551ZM204 -249Q132 -249 90 -219Q48 -189 48 -140Q48 -120 62.5 -107Q77 -94 100 -94Q111 -94 114 -96.5Q117 -99 119 -110L135 -201Q153 -211 169 -213Q185 -215 207 -215Q264 -215 296.5 -170.5Q329 -126 342 -22L359 121Q331 65 292.5 25.5Q254 -14 212 -14Q145 -14 107.5 40Q70 94 70 189Q70 255 87.5 310.5Q105 366 136 405.5Q167 445 209.5 467.5Q252 490 302 490Q350 490 395.5 479.5Q441 469 472 450Q462 397 455.5 337.5Q449 278 443 210L425 6Q415 -114 356.5 -181.5Q298 -249 204 -249ZM236 43Q261 43 283.5 64Q306 85 323.5 122.5Q341 160 353 212.5Q365 265 370 327L377 416Q360 434 337.5 445.5Q315 457 283 457Q226 457 193.5 392.5Q161 328 161 220Q161 135 180 89Q199 43 236 43Z" glyph-name="gbreve" horiz-adv-x="507" unicode="&#287;" /><glyph d="M279 551Q237 551 215 584Q193 617 193 685Q193 692 193 700Q193 708 194 716L212 720Q218 674 237 650.5Q256 627 286 627Q317 627 339 650Q361 673 377 720L394 716Q384 633 354.5 592Q325 551 279 551ZM211 -249Q128 -249 79 -215Q30 -181 30 -126Q30 -83 63.5 -52.5Q97 -22 154 -15Q132 -8 118.5 11Q105 30 105 53Q105 83 132.5 108Q160 133 204 143Q152 151 120 197Q88 243 88 299Q88 344 103.5 380Q119 416 145 440.5Q171 465 205.5 478.5Q240 492 278 492Q297 492 313 488.5Q329 485 344 478L448 529Q453 531 458 532.5Q463 534 465 534Q470 534 473 525.5Q476 517 476 503Q476 477 461 465Q446 453 412 453Q403 453 388 455Q373 457 356 461Q395 439 415.5 397.5Q436 356 436 316Q436 235 386.5 188Q337 141 254 135Q223 133 201.5 119Q180 105 180 88Q180 70 196.5 59Q213 48 247 43L295 36Q378 24 414 -3Q450 -30 450 -80Q450 -154 383 -201.5Q316 -249 211 -249ZM256 169Q299 169 322 206.5Q345 244 345 321Q345 378 323 419.5Q301 461 268 461Q226 461 203 422Q180 383 180 306Q180 251 202 210Q224 169 256 169ZM223 -216Q284 -216 324 -187Q364 -158 364 -113Q364 -83 340 -66Q316 -49 257 -37Q230 -32 213 -30Q196 -28 187 -28Q150 -28 129.5 -51Q109 -74 109 -111Q109 -155 141.5 -185.5Q174 -216 223 -216Z" glyph-name="gbreve.alt" horiz-adv-x="483" /><glyph d="M320 568Q277 568 253 597Q229 626 229 683Q229 689 229 695Q229 701 230 708H248Q253 676 273 660Q293 644 327 644Q361 644 383.5 659.5Q406 675 418 708H436Q430 639 399 603.5Q368 568 320 568ZM302 -14Q192 -14 130.5 47Q69 108 69 218Q69 287 89 345Q109 403 144.5 444Q180 485 229.5 508.5Q279 532 338 532Q384 532 419.5 522.5Q455 513 479 503Q492 498 497.5 488.5Q503 479 503 466Q503 463 502.5 454Q502 445 501 438L493 350H471Q461 422 425 458Q389 494 327 494Q255 494 210.5 425Q166 356 166 240Q166 132 203.5 78.5Q241 25 317 25Q333 25 350 28Q367 31 383 36L398 197L324 205L326 233H531L528 205L515 204Q495 203 485 193.5Q475 184 473 160L462 48Q461 32 454.5 23.5Q448 15 432 10Q401 0 371.5 -7Q342 -14 302 -14Z" glyph-name="gbreve.smcp" horiz-adv-x="551" /><glyph d="M209 540 191 544 262 687Q271 704 279 710.5Q287 717 302 717H324Q340 717 346.5 710.5Q353 704 359 687L407 544L388 540L307 640ZM204 -249Q132 -249 90 -219Q48 -189 48 -140Q48 -120 62.5 -107Q77 -94 100 -94Q111 -94 114 -96.5Q117 -99 119 -110L135 -201Q153 -211 169 -213Q185 -215 207 -215Q264 -215 296.5 -170.5Q329 -126 342 -22L359 121Q331 65 292.5 25.5Q254 -14 212 -14Q145 -14 107.5 40Q70 94 70 189Q70 255 87.5 310.5Q105 366 136 405.5Q167 445 209.5 467.5Q252 490 302 490Q350 490 395.5 479.5Q441 469 472 450Q462 397 455.5 337.5Q449 278 443 210L425 6Q415 -114 356.5 -181.5Q298 -249 204 -249ZM236 43Q261 43 283.5 64Q306 85 323.5 122.5Q341 160 353 212.5Q365 265 370 327L377 416Q360 434 337.5 445.5Q315 457 283 457Q226 457 193.5 392.5Q161 328 161 220Q161 135 180 89Q199 43 236 43Z" glyph-name="gcircumflex" horiz-adv-x="507" unicode="&#285;" /><glyph d="M189 540 171 544 242 687Q251 704 259 710.5Q267 717 282 717H304Q320 717 326.5 710.5Q333 704 339 687L387 544L368 540L287 640ZM211 -249Q128 -249 79 -215Q30 -181 30 -126Q30 -83 63.5 -52.5Q97 -22 154 -15Q132 -8 118.5 11Q105 30 105 53Q105 83 132.5 108Q160 133 204 143Q152 151 120 197Q88 243 88 299Q88 344 103.5 380Q119 416 145 440.5Q171 465 205.5 478.5Q240 492 278 492Q297 492 313 488.5Q329 485 344 478L448 529Q453 531 458 532.5Q463 534 465 534Q470 534 473 525.5Q476 517 476 503Q476 477 461 465Q446 453 412 453Q403 453 388 455Q373 457 356 461Q395 439 415.5 397.5Q436 356 436 316Q436 235 386.5 188Q337 141 254 135Q223 133 201.5 119Q180 105 180 88Q180 70 196.5 59Q213 48 247 43L295 36Q378 24 414 -3Q450 -30 450 -80Q450 -154 383 -201.5Q316 -249 211 -249ZM256 169Q299 169 322 206.5Q345 244 345 321Q345 378 323 419.5Q301 461 268 461Q226 461 203 422Q180 383 180 306Q180 251 202 210Q224 169 256 169ZM223 -216Q284 -216 324 -187Q364 -158 364 -113Q364 -83 340 -66Q316 -49 257 -37Q230 -32 213 -30Q196 -28 187 -28Q150 -28 129.5 -51Q109 -74 109 -111Q109 -155 141.5 -185.5Q174 -216 223 -216Z" glyph-name="gcircumflex.alt" horiz-adv-x="483" /><glyph d="M225 568 209 572 285 677Q296 693 304 698.5Q312 704 327 704H340Q355 704 362.5 698.5Q370 693 378 677L435 572L419 568L327 636ZM302 -14Q192 -14 130.5 47Q69 108 69 218Q69 287 89 345Q109 403 144.5 444Q180 485 229.5 508.5Q279 532 338 532Q384 532 419.5 522.5Q455 513 479 503Q492 498 497.5 488.5Q503 479 503 466Q503 463 502.5 454Q502 445 501 438L493 350H471Q461 422 425 458Q389 494 327 494Q255 494 210.5 425Q166 356 166 240Q166 132 203.5 78.5Q241 25 317 25Q333 25 350 28Q367 31 383 36L398 197L324 205L326 233H531L528 205L515 204Q495 203 485 193.5Q475 184 473 160L462 48Q461 32 454.5 23.5Q448 15 432 10Q401 0 371.5 -7Q342 -14 302 -14Z" glyph-name="gcircumflex.smcp" horiz-adv-x="551" /><glyph d="M300 562Q277 562 264.5 575Q252 588 252 612Q252 655 285 685.5Q318 716 378 735L382 719Q359 701 346.5 688Q334 675 324 655L345 601Q347 596 347.5 594.5Q348 593 348 592Q348 584 334.5 573Q321 562 300 562ZM204 -249Q132 -249 90 -219Q48 -189 48 -140Q48 -120 62.5 -107Q77 -94 100 -94Q111 -94 114 -96.5Q117 -99 119 -110L135 -201Q153 -211 169 -213Q185 -215 207 -215Q264 -215 296.5 -170.5Q329 -126 342 -22L359 121Q331 65 292.5 25.5Q254 -14 212 -14Q145 -14 107.5 40Q70 94 70 189Q70 255 87.5 310.5Q105 366 136 405.5Q167 445 209.5 467.5Q252 490 302 490Q350 490 395.5 479.5Q441 469 472 450Q462 397 455.5 337.5Q449 278 443 210L425 6Q415 -114 356.5 -181.5Q298 -249 204 -249ZM236 43Q261 43 283.5 64Q306 85 323.5 122.5Q341 160 353 212.5Q365 265 370 327L377 416Q360 434 337.5 445.5Q315 457 283 457Q226 457 193.5 392.5Q161 328 161 220Q161 135 180 89Q199 43 236 43Z" glyph-name="gcommaaccent" horiz-adv-x="507" unicode="&#291;" /><glyph d="M280 562Q257 562 244.5 575Q232 588 232 612Q232 655 265 685.5Q298 716 358 735L362 719Q339 701 326.5 688Q314 675 304 655L325 601Q327 596 327.5 594.5Q328 593 328 592Q328 584 314.5 573Q301 562 280 562ZM211 -249Q128 -249 79 -215Q30 -181 30 -126Q30 -83 63.5 -52.5Q97 -22 154 -15Q132 -8 118.5 11Q105 30 105 53Q105 83 132.5 108Q160 133 204 143Q152 151 120 197Q88 243 88 299Q88 344 103.5 380Q119 416 145 440.5Q171 465 205.5 478.5Q240 492 278 492Q297 492 313 488.5Q329 485 344 478L448 529Q453 531 458 532.5Q463 534 465 534Q470 534 473 525.5Q476 517 476 503Q476 477 461 465Q446 453 412 453Q403 453 388 455Q373 457 356 461Q395 439 415.5 397.5Q436 356 436 316Q436 235 386.5 188Q337 141 254 135Q223 133 201.5 119Q180 105 180 88Q180 70 196.5 59Q213 48 247 43L295 36Q378 24 414 -3Q450 -30 450 -80Q450 -154 383 -201.5Q316 -249 211 -249ZM256 169Q299 169 322 206.5Q345 244 345 321Q345 378 323 419.5Q301 461 268 461Q226 461 203 422Q180 383 180 306Q180 251 202 210Q224 169 256 169ZM223 -216Q284 -216 324 -187Q364 -158 364 -113Q364 -83 340 -66Q316 -49 257 -37Q230 -32 213 -30Q196 -28 187 -28Q150 -28 129.5 -51Q109 -74 109 -111Q109 -155 141.5 -185.5Q174 -216 223 -216Z" glyph-name="gcommaaccent.alt" horiz-adv-x="483" /><glyph d="M302 -14Q192 -14 130.5 47Q69 108 69 218Q69 287 89 345Q109 403 144.5 444Q180 485 229.5 508.5Q279 532 338 532Q384 532 419.5 522.5Q455 513 479 503Q492 498 497.5 488.5Q503 479 503 466Q503 463 502.5 454Q502 445 501 438L493 350H471Q461 422 425 458Q389 494 327 494Q255 494 210.5 425Q166 356 166 240Q166 132 203.5 78.5Q241 25 317 25Q333 25 350 28Q367 31 383 36L398 197L324 205L326 233H531L528 205L515 204Q495 203 485 193.5Q475 184 473 160L462 48Q461 32 454.5 23.5Q448 15 432 10Q401 0 371.5 -7Q342 -14 302 -14ZM211 -244 208 -230Q237 -208 248 -192.5Q259 -177 266 -160L248 -115Q246 -108 245 -105.5Q244 -103 244 -101Q244 -90 258 -80.5Q272 -71 289 -71Q313 -71 326 -85Q339 -99 339 -124Q339 -164 308.5 -192.5Q278 -221 211 -244Z" glyph-name="gcommaaccent.smcp" horiz-adv-x="551" /><glyph d="M301 579Q279 579 266 593.5Q253 608 253 630Q253 657 269 675Q285 693 313 693Q335 693 348 678.5Q361 664 361 642Q361 615 345 597Q329 579 301 579ZM204 -249Q132 -249 90 -219Q48 -189 48 -140Q48 -120 62.5 -107Q77 -94 100 -94Q111 -94 114 -96.5Q117 -99 119 -110L135 -201Q153 -211 169 -213Q185 -215 207 -215Q264 -215 296.5 -170.5Q329 -126 342 -22L359 121Q331 65 292.5 25.5Q254 -14 212 -14Q145 -14 107.5 40Q70 94 70 189Q70 255 87.5 310.5Q105 366 136 405.5Q167 445 209.5 467.5Q252 490 302 490Q350 490 395.5 479.5Q441 469 472 450Q462 397 455.5 337.5Q449 278 443 210L425 6Q415 -114 356.5 -181.5Q298 -249 204 -249ZM236 43Q261 43 283.5 64Q306 85 323.5 122.5Q341 160 353 212.5Q365 265 370 327L377 416Q360 434 337.5 445.5Q315 457 283 457Q226 457 193.5 392.5Q161 328 161 220Q161 135 180 89Q199 43 236 43Z" glyph-name="gdotaccent" horiz-adv-x="507" unicode="&#289;" /><glyph d="M281 579Q259 579 246 593.5Q233 608 233 630Q233 657 249 675Q265 693 293 693Q315 693 328 678.5Q341 664 341 642Q341 615 325 597Q309 579 281 579ZM211 -249Q128 -249 79 -215Q30 -181 30 -126Q30 -83 63.5 -52.5Q97 -22 154 -15Q132 -8 118.5 11Q105 30 105 53Q105 83 132.5 108Q160 133 204 143Q152 151 120 197Q88 243 88 299Q88 344 103.5 380Q119 416 145 440.5Q171 465 205.5 478.5Q240 492 278 492Q297 492 313 488.5Q329 485 344 478L448 529Q453 531 458 532.5Q463 534 465 534Q470 534 473 525.5Q476 517 476 503Q476 477 461 465Q446 453 412 453Q403 453 388 455Q373 457 356 461Q395 439 415.5 397.5Q436 356 436 316Q436 235 386.5 188Q337 141 254 135Q223 133 201.5 119Q180 105 180 88Q180 70 196.5 59Q213 48 247 43L295 36Q378 24 414 -3Q450 -30 450 -80Q450 -154 383 -201.5Q316 -249 211 -249ZM256 169Q299 169 322 206.5Q345 244 345 321Q345 378 323 419.5Q301 461 268 461Q226 461 203 422Q180 383 180 306Q180 251 202 210Q224 169 256 169ZM223 -216Q284 -216 324 -187Q364 -158 364 -113Q364 -83 340 -66Q316 -49 257 -37Q230 -32 213 -30Q196 -28 187 -28Q150 -28 129.5 -51Q109 -74 109 -111Q109 -155 141.5 -185.5Q174 -216 223 -216Z" glyph-name="gdotaccent.alt" horiz-adv-x="483" /><glyph d="M322 588Q300 588 287 603.5Q274 619 274 641Q274 668 290 687Q306 706 334 706Q356 706 369 690.5Q382 675 382 653Q382 626 366 607Q350 588 322 588ZM302 -14Q192 -14 130.5 47Q69 108 69 218Q69 287 89 345Q109 403 144.5 444Q180 485 229.5 508.5Q279 532 338 532Q384 532 419.5 522.5Q455 513 479 503Q492 498 497.5 488.5Q503 479 503 466Q503 463 502.5 454Q502 445 501 438L493 350H471Q461 422 425 458Q389 494 327 494Q255 494 210.5 425Q166 356 166 240Q166 132 203.5 78.5Q241 25 317 25Q333 25 350 28Q367 31 383 36L398 197L324 205L326 233H531L528 205L515 204Q495 203 485 193.5Q475 184 473 160L462 48Q461 32 454.5 23.5Q448 15 432 10Q401 0 371.5 -7Q342 -14 302 -14Z" glyph-name="gdotaccent.smcp" horiz-adv-x="551" /><glyph d="M21 -245Q-12 -245 -26 -229Q-40 -213 -40 -193Q-40 -180 -32.5 -170Q-25 -160 -12 -160Q-10 -160 -7 -161Q-4 -162 3 -166L67 -201Q89 -170 98 -135.5Q107 -101 111 -38L139 432H92L93 462L121 472Q133 476 138 481Q143 486 144 497L147 519Q162 630 221.5 687Q281 744 356 744Q434 744 471.5 707Q509 670 509 621Q509 570 484.5 540.5Q460 511 430.5 489.5Q401 468 376.5 446.5Q352 425 352 390Q352 361 371.5 337.5Q391 314 434 292L465 276Q511 252 535.5 221Q560 190 560 138Q560 74 512 30Q464 -14 382 -14Q304 -14 275.5 11Q247 36 247 72Q247 90 258 104Q269 118 291 118Q295 118 298 116.5Q301 115 304 109L345 28Q358 24 366.5 21Q375 18 392 18Q435 18 458.5 42.5Q482 67 482 107Q482 137 469 156.5Q456 176 425 192L386 212Q337 237 310 266Q283 295 283 344Q283 384 304.5 414Q326 444 352 473.5Q378 503 399.5 536.5Q421 570 421 617Q421 654 403 683Q385 712 334 712Q293 712 265.5 676Q238 640 231 539L195 18Q191 -44 174.5 -93Q158 -142 133.5 -175.5Q109 -209 79.5 -227Q50 -245 21 -245Z" glyph-name="germandbls" horiz-adv-x="561" unicode="&#223;" /><glyph d="M368 -9Q305 -9 266 19.5Q227 48 227 94Q227 113 239 124Q251 135 270 135Q286 135 292 131.5Q298 128 299 117L315 37Q331 27 341.5 23.5Q352 20 371 20Q414 20 436 46.5Q458 73 458 125Q458 190 414.5 226.5Q371 263 290 267L293 285L449 485H322Q272 485 249 465Q226 445 222 399L186 1H14L16 21L48 26Q87 31 99 43Q111 55 114 91L142 373Q149 445 195.5 481.5Q242 518 326 518H536L539 500L373 293Q448 286 496.5 243.5Q545 201 545 139Q545 69 498.5 30Q452 -9 368 -9Z" glyph-name="germandbls.smcp" horiz-adv-x="561" /><glyph d="M303 550 197 610Q182 618 171.5 630.5Q161 643 161 663Q161 691 182 706Q203 721 217 721Q222 721 226.5 717Q231 713 241 695L315 564Z" glyph-name="grave" horiz-adv-x="440" unicode="`" /><glyph d="M309 690 180 732Q160 739 149.5 753.5Q139 768 139 790Q139 813 154 829Q169 845 186 845Q190 845 194 842.5Q198 840 208 828L316 706Z" glyph-name="grave.case" horiz-adv-x="440" /><glyph d="M66 75 70 134 380 325 104 518 109 573 431 350 426 297Z" glyph-name="greater" horiz-adv-x="475" unicode="&gt;" /><glyph d="M83 220 87 271H385L112 593L119 653L446 270L435 220ZM63 0 68 51H427L422 0Z" glyph-name="greaterequal" horiz-adv-x="475" unicode="&#8805;" /><glyph d="M189 47 56 200Q51 206 48.5 213.5Q46 221 46 229Q46 230 46 234.5Q46 239 47 246Q48 257 52 265Q56 273 63 280L223 433L240 420L130 240L208 60ZM361 47 228 200Q223 206 220.5 213.5Q218 221 218 229Q218 230 218 234.5Q218 239 219 246Q220 257 224 265Q228 273 235 280L395 433L412 420L302 240L380 60Z" glyph-name="guillemotleft" horiz-adv-x="412" unicode="&#171;" /><glyph d="M190 94 63 278Q57 287 54.5 292Q52 297 52 303Q52 307 53 315Q54 323 55 335Q56 345 59 351Q62 357 71 367L230 552L248 541L145 323L210 105ZM350 94 223 278Q217 287 214.5 292Q212 297 212 303Q212 307 213 315Q214 323 215 335Q216 345 219 351Q222 357 231 367L390 552L408 541L305 323L370 105Z" glyph-name="guillemotleft.case" horiz-adv-x="387" /><glyph d="M93 433 226 280Q231 274 233.5 266.5Q236 259 236 251Q236 250 236 245.5Q236 241 235 234Q234 223 230 215Q226 207 219 200L59 47L42 60L152 240L74 420ZM265 433 398 280Q403 274 405.5 266.5Q408 259 408 251Q408 250 408 245.5Q408 241 407 234Q406 223 402 215Q398 207 391 200L231 47L214 60L324 240L246 420Z" glyph-name="guillemotright" horiz-adv-x="411" unicode="&#187;" /><glyph d="M94 552 221 368Q227 359 229.5 354Q232 349 232 343Q232 339 231 331Q230 323 229 311Q228 301 225 295Q222 289 213 279L54 94L36 105L139 323L74 541ZM254 552 381 368Q387 359 389.5 354Q392 349 392 343Q392 339 391 331Q390 323 389 311Q388 301 385 295Q382 289 373 279L214 94L196 105L299 323L234 541Z" glyph-name="guillemotright.case" horiz-adv-x="387" /><glyph d="M189 47 56 200Q51 206 48.5 213.5Q46 221 46 229Q46 230 46 234.5Q46 239 47 246Q48 257 52 265Q56 273 63 280L223 433L240 420L130 240L208 60Z" glyph-name="guilsinglleft" horiz-adv-x="240" unicode="&#8249;" /><glyph d="M190 94 63 278Q57 287 54.5 292Q52 297 52 303Q52 307 53 315Q54 323 55 335Q56 345 59 351Q62 357 71 367L230 552L248 541L145 323L210 105Z" glyph-name="guilsinglleft.case" horiz-adv-x="228" /><glyph d="M93 433 226 280Q231 274 233.5 266.5Q236 259 236 251Q236 250 236 245.5Q236 241 235 234Q234 223 230 215Q226 207 219 200L59 47L42 60L152 240L74 420Z" glyph-name="guilsinglright" horiz-adv-x="240" unicode="&#8250;" /><glyph d="M94 552 221 368Q227 359 229.5 354Q232 349 232 343Q232 339 231 331Q230 323 229 311Q228 301 225 295Q222 289 213 279L54 94L36 105L139 323L74 541Z" glyph-name="guilsinglright.case" horiz-adv-x="227" /><glyph d="M440 -7Q397 -7 377.5 13.5Q358 34 358 72Q358 77 359.5 95.5Q361 114 364 135L383 276Q386 297 387 320.5Q388 344 388 353Q388 392 374 410.5Q360 429 332 429Q271 429 231 355Q191 281 178 114L171 27Q170 14 163.5 7Q157 0 145 0H74Q81 40 89 96.5Q97 153 102 210L137 582Q139 606 140.5 625Q142 644 142 649Q142 666 135 675Q128 684 109 688L68 697L70 717Q83 721 103 725Q123 729 145 731Q167 733 189 734.5Q211 736 229 736H240Q233 690 226.5 640Q220 590 215 530L200 368Q238 426 281 459Q324 492 364 492Q416 492 445 460.5Q474 429 474 362Q474 355 471.5 326Q469 297 466 271L449 137Q447 118 445.5 99Q444 80 444 73Q444 49 460 39.5Q476 30 521 30L519 8Q497 1 476.5 -3Q456 -7 440 -7Z" glyph-name="h" horiz-adv-x="525" unicode="h" /><glyph d="M24 0 26 25 61 31Q96 37 110.5 52Q125 67 128 104L154 394Q155 410 156 420Q157 430 157 434Q157 459 146.5 471Q136 483 105 487L65 493L67 518H338L336 491L249 480L232 296H455L471 480L386 491L388 518H657L655 493L620 487Q584 481 570 466Q556 451 553 414L527 124Q526 108 525 98Q524 88 524 84Q524 59 534.5 47Q545 35 576 31L616 25L614 0H343L345 27L432 38L452 256H229L210 38L295 27L293 0Z" glyph-name="h.smcp" horiz-adv-x="635" /><glyph d="M440 -7Q397 -7 377.5 13.5Q358 34 358 72Q358 77 359.5 95.5Q361 114 364 135L383 276Q386 297 387 320.5Q388 344 388 353Q388 392 374 410.5Q360 429 332 429Q271 429 231 355Q191 281 178 114L171 27Q170 14 163.5 7Q157 0 145 0H74Q81 40 89 96.5Q97 153 102 210L137 578H68L71 614H140Q141 627 141.5 636.5Q142 646 142 649Q142 666 135 675Q128 684 109 688L68 697L70 717Q83 721 103 725Q123 729 145 731Q167 733 189 734.5Q211 736 229 736H240Q236 707 231.5 677Q227 647 223 614H318L315 578H219L200 368Q238 426 281 459Q324 492 364 492Q416 492 445 460.5Q474 429 474 362Q474 355 471.5 326Q469 297 466 271L449 137Q447 118 445.5 99Q444 80 444 73Q444 49 460 39.5Q476 30 521 30L519 8Q497 1 476.5 -3Q456 -7 440 -7Z" glyph-name="hbar" horiz-adv-x="525" unicode="&#295;" /><glyph d="M24 0 26 25 61 31Q96 37 110.5 52Q125 67 128 104L153 378H91L94 414H156Q157 421 157 426Q157 431 157 434Q157 459 146.5 471Q136 483 105 487L65 493L67 518H338L336 491L249 480L243 414H465L471 480L386 491L388 518H657L655 493L620 487Q584 481 570 466Q556 451 553 414H616L613 378H550L527 124Q526 108 525 98Q524 88 524 84Q524 59 534.5 47Q545 35 576 31L616 25L614 0H343L345 27L432 38L452 256H229L210 38L295 27L293 0ZM232 296H455L462 378H240Z" glyph-name="hbar.smcp" horiz-adv-x="635" /><glyph d="M107 776 89 780 160 923Q169 940 177 946.5Q185 953 200 953H222Q238 953 244.5 946.5Q251 940 257 923L305 780L286 776L205 876ZM440 -7Q397 -7 377.5 13.5Q358 34 358 72Q358 77 359.5 95.5Q361 114 364 135L383 276Q386 297 387 320.5Q388 344 388 353Q388 392 374 410.5Q360 429 332 429Q271 429 231 355Q191 281 178 114L171 27Q170 14 163.5 7Q157 0 145 0H74Q81 40 89 96.5Q97 153 102 210L137 582Q139 606 140.5 625Q142 644 142 649Q142 666 135 675Q128 684 109 688L68 697L70 717Q83 721 103 725Q123 729 145 731Q167 733 189 734.5Q211 736 229 736H240Q233 690 226.5 640Q220 590 215 530L200 368Q238 426 281 459Q324 492 364 492Q416 492 445 460.5Q474 429 474 362Q474 355 471.5 326Q469 297 466 271L449 137Q447 118 445.5 99Q444 80 444 73Q444 49 460 39.5Q476 30 521 30L519 8Q497 1 476.5 -3Q456 -7 440 -7Z" glyph-name="hcircumflex" horiz-adv-x="525" unicode="&#293;" /><glyph d="M271 568 255 572 331 677Q342 693 350 698.5Q358 704 373 704H386Q401 704 408.5 698.5Q416 693 424 677L481 572L465 568L373 636ZM24 0 26 25 61 31Q96 37 110.5 52Q125 67 128 104L154 394Q155 410 156 420Q157 430 157 434Q157 459 146.5 471Q136 483 105 487L65 493L67 518H338L336 491L249 480L232 296H455L471 480L386 491L388 518H657L655 493L620 487Q584 481 570 466Q556 451 553 414L527 124Q526 108 525 98Q524 88 524 84Q524 59 534.5 47Q545 35 576 31L616 25L614 0H343L345 27L432 38L452 256H229L210 38L295 27L293 0Z" glyph-name="hcircumflex.smcp" horiz-adv-x="635" /></font>
</defs>
</svg>
