<?xml version="1.0" standalone="no"?><!DOCTYPE svg PUBLIC "-//W3C//DTD SVG 1.1//EN" "http://www.w3.org/Graphics/SVG/1.1/DTD/svg11.dtd" ><svg version="1.1" xmlns="http://www.w3.org/2000/svg"><defs><font horiz-adv-x="0" id="font"><font-face ascent="750" bbox="-65 -260 1119 962" cap-height="646" descent="-250" font-family="Folha Texto" font-stretch="normal" font-style="normal" font-weight="500" units-per-em="1000" x-height="478" /><missing-glyph d="M0 0V646H500V0ZM60 586V60H440V586Z" horiz-adv-x="500" /><glyph glyph-name=".null" horiz-adv-x="0" /><glyph d="M-7 0 -4 27 10 30Q32 34 42 43Q52 52 62 75L300 650H348Q366 650 374.5 643Q383 636 388 618L524 76Q529 54 539.5 44.5Q550 35 572 31L589 28L587 0H306L309 30L402 40L364 202H174L110 40L195 30L193 0ZM191 246H354L293 506Z" glyph-name="A" horiz-adv-x="579" unicode="A" /><glyph d="M694 -7Q688 -7 670 -6Q652 -5 629 -3.5Q606 -2 582 -1Q558 0 540 0H241L244 29L334 40L348 202H192L101 39L178 29L176 0H-9L-7 27L3 30Q24 37 35 47Q46 57 59 79L340 569Q343 574 344.5 579Q346 584 346 588Q346 598 339.5 603.5Q333 609 320 612L284 618L286 646H760Q773 646 779.5 640Q786 634 786 622Q786 618 785 610.5Q784 603 783 593L772 460H747L743 491Q734 557 705.5 579.5Q677 602 612 602H501L480 362H639L663 452H689L670 229H644L636 319H476L453 51Q472 47 498.5 44.5Q525 42 551 42Q623 42 660 70.5Q697 99 728 170L740 199L764 194L728 21Q725 5 717 -1Q709 -7 694 -7ZM216 246H351L376 531Z" glyph-name="AE" horiz-adv-x="778" unicode="&#198;" /><glyph d="M427 691 422 707 550 838Q563 851 567.5 853Q572 855 577 855Q590 855 606 840Q622 825 622 797Q622 769 606 754Q590 739 566 732ZM694 -7Q688 -7 670 -6Q652 -5 629 -3.5Q606 -2 582 -1Q558 0 540 0H241L244 29L334 40L348 202H192L101 39L178 29L176 0H-9L-7 27L3 30Q24 37 35 47Q46 57 59 79L340 569Q343 574 344.5 579Q346 584 346 588Q346 598 339.5 603.5Q333 609 320 612L284 618L286 646H760Q773 646 779.5 640Q786 634 786 622Q786 618 785 610.5Q784 603 783 593L772 460H747L743 491Q734 557 705.5 579.5Q677 602 612 602H501L480 362H639L663 452H689L670 229H644L636 319H476L453 51Q472 47 498.5 44.5Q525 42 551 42Q623 42 660 70.5Q697 99 728 170L740 199L764 194L728 21Q725 5 717 -1Q709 -7 694 -7ZM216 246H351L376 531Z" glyph-name="AEacute" horiz-adv-x="778" unicode="&#508;" /><glyph d="M301 691 296 707 424 838Q437 851 441.5 853Q446 855 451 855Q464 855 480 840Q496 825 496 797Q496 769 480 754Q464 739 440 732ZM-7 0 -4 27 10 30Q32 34 42 43Q52 52 62 75L300 650H348Q366 650 374.5 643Q383 636 388 618L524 76Q529 54 539.5 44.5Q550 35 572 31L589 28L587 0H306L309 30L402 40L364 202H174L110 40L195 30L193 0ZM191 246H354L293 506Z" glyph-name="Aacute" horiz-adv-x="579" unicode="&#193;" /><glyph d="M333 694Q289 694 264 724.5Q239 755 239 812Q239 820 239 826.5Q239 833 240 840H260Q266 807 286 791.5Q306 776 340 776Q374 776 397.5 791.5Q421 807 433 840H453Q445 766 414.5 730Q384 694 333 694ZM-7 0 -4 27 10 30Q32 34 42 43Q52 52 62 75L300 650H348Q366 650 374.5 643Q383 636 388 618L524 76Q529 54 539.5 44.5Q550 35 572 31L589 28L587 0H306L309 30L402 40L364 202H174L110 40L195 30L193 0ZM191 246H354L293 506Z" glyph-name="Abreve" horiz-adv-x="579" unicode="&#258;" /><glyph d="M233 694 216 699 288 811Q299 830 308.5 837Q318 844 335 844H359Q376 844 384.5 837Q393 830 401 811L453 699L435 694L340 767ZM-7 0 -4 27 10 30Q32 34 42 43Q52 52 62 75L300 650H348Q366 650 374.5 643Q383 636 388 618L524 76Q529 54 539.5 44.5Q550 35 572 31L589 28L587 0H306L309 30L402 40L364 202H174L110 40L195 30L193 0ZM191 246H354L293 506Z" glyph-name="Acircumflex" horiz-adv-x="579" unicode="&#194;" /><glyph d="M248 707Q221 707 206 723.5Q191 740 191 765Q191 796 209.5 817Q228 838 261 838Q288 838 302.5 821.5Q317 805 317 780Q317 749 298.5 728Q280 707 248 707ZM420 707Q393 707 378 723.5Q363 740 363 765Q363 796 382 817Q401 838 433 838Q460 838 475 821.5Q490 805 490 780Q490 749 471 728Q452 707 420 707ZM-7 0 -4 27 10 30Q32 34 42 43Q52 52 62 75L300 650H348Q366 650 374.5 643Q383 636 388 618L524 76Q529 54 539.5 44.5Q550 35 572 31L589 28L587 0H306L309 30L402 40L364 202H174L110 40L195 30L193 0ZM191 246H354L293 506Z" glyph-name="Adieresis" horiz-adv-x="579" unicode="&#196;" /><glyph d="M366 691 229 733Q208 739 197 754Q186 769 186 792Q186 817 203 836Q220 855 241 855Q245 855 249.5 852Q254 849 264 837L374 708ZM-7 0 -4 27 10 30Q32 34 42 43Q52 52 62 75L300 650H348Q366 650 374.5 643Q383 636 388 618L524 76Q529 54 539.5 44.5Q550 35 572 31L589 28L587 0H306L309 30L402 40L364 202H174L110 40L195 30L193 0ZM191 246H354L293 506Z" glyph-name="Agrave" horiz-adv-x="579" unicode="&#192;" /><glyph d="M220 737 225 788H458L454 737ZM-7 0 -4 27 10 30Q32 34 42 43Q52 52 62 75L300 650H348Q366 650 374.5 643Q383 636 388 618L524 76Q529 54 539.5 44.5Q550 35 572 31L589 28L587 0H306L309 30L402 40L364 202H174L110 40L195 30L193 0ZM191 246H354L293 506Z" glyph-name="Amacron" horiz-adv-x="579" unicode="&#256;" /><glyph d="M380 -243Q342 -243 320 -220.5Q298 -198 298 -158Q298 -112 332 -71.5Q366 -31 429 0H306L309 30L402 40L364 202H174L110 40L195 30L193 0H-7L-4 27L10 30Q32 34 42 43Q52 52 62 75L300 650H348Q366 650 374.5 643Q383 636 388 618L524 76Q529 54 539.5 44.5Q550 35 572 31L589 28L587 0H477Q432 -38 412.5 -70.5Q393 -103 393 -139Q393 -161 403.5 -175Q414 -189 433 -189Q448 -189 460 -185Q472 -181 488 -172L482 -198Q459 -221 433.5 -232Q408 -243 380 -243ZM191 246H354L293 506Z" glyph-name="Aogonek" horiz-adv-x="579" unicode="&#260;" /><glyph d="M333 688Q295 688 270.5 711Q246 734 246 775Q246 822 274.5 854Q303 886 351 886Q388 886 412.5 863Q437 840 437 799Q437 752 408.5 720Q380 688 333 688ZM337 735Q359 735 371.5 751.5Q384 768 384 796Q384 816 374 827.5Q364 839 346 839Q325 839 312.5 823Q300 807 300 779Q300 758 309.5 746.5Q319 735 337 735ZM-7 0 -4 27 10 30Q32 34 42 43Q52 52 62 75L300 650H348Q366 650 374.5 643Q383 636 388 618L524 76Q529 54 539.5 44.5Q550 35 572 31L589 28L587 0H306L309 30L402 40L364 202H174L110 40L195 30L193 0ZM191 246H354L293 506Z" glyph-name="Aring" horiz-adv-x="579" unicode="&#197;" /><glyph d="M372 711Q340 711 324 726Q308 741 282 741Q270 741 260 734Q250 727 243 705H222Q229 765 250 793Q271 821 303 821Q331 821 349 806.5Q367 792 394 792Q410 792 420 802.5Q430 813 436 837L457 836Q451 773 430 742Q409 711 372 711ZM-7 0 -4 27 10 30Q32 34 42 43Q52 52 62 75L300 650H348Q366 650 374.5 643Q383 636 388 618L524 76Q529 54 539.5 44.5Q550 35 572 31L589 28L587 0H306L309 30L402 40L364 202H174L110 40L195 30L193 0ZM191 246H354L293 506Z" glyph-name="Atilde" horiz-adv-x="579" unicode="&#195;" /><glyph d="M24 0 26 28 63 34Q100 41 112 54.5Q124 68 128 108L162 505Q164 526 165.5 541Q167 556 167 560Q167 585 155 596Q143 607 114 612L77 618L80 646H323Q429 646 490.5 606Q552 566 552 487Q552 424 506.5 385Q461 346 382 339Q463 332 510 291.5Q557 251 557 179Q557 92 490.5 46Q424 0 309 0ZM312 358Q369 358 400 389.5Q431 421 431 481Q431 535 400.5 567Q370 599 323 602Q316 603 305.5 603Q295 603 289 603L268 362Q275 361 290 359.5Q305 358 312 358ZM302 39Q362 39 396 75.5Q430 112 430 178Q430 240 396 277Q362 314 305 316H264L241 50Q252 46 268.5 42.5Q285 39 302 39Z" glyph-name="B" horiz-adv-x="578" unicode="B" /><glyph d="M325 -14Q203 -14 138 64Q73 142 73 279Q73 360 96.5 430Q120 500 161 550.5Q202 601 260 630.5Q318 660 387 660Q432 660 462 653.5Q492 647 527 632Q546 624 552.5 612.5Q559 601 559 583Q559 578 558 562.5Q557 547 555 528L548 445H523Q514 532 478 574.5Q442 617 380 617Q342 617 310.5 594Q279 571 256.5 528Q234 485 221.5 424.5Q209 364 209 289Q209 164 246.5 96.5Q284 29 354 29Q403 29 442 73Q481 117 517 216L543 213L519 87Q512 44 499 28.5Q486 13 451 3Q418 -6 389.5 -10Q361 -14 325 -14Z" glyph-name="C" horiz-adv-x="567" unicode="C" /><glyph glyph-name="CR" horiz-adv-x="225" unicode="" /><glyph d="M346 691 341 707 469 838Q482 851 486.5 853Q491 855 496 855Q509 855 525 840Q541 825 541 797Q541 769 525 754Q509 739 485 732ZM325 -14Q203 -14 138 64Q73 142 73 279Q73 360 96.5 430Q120 500 161 550.5Q202 601 260 630.5Q318 660 387 660Q432 660 462 653.5Q492 647 527 632Q546 624 552.5 612.5Q559 601 559 583Q559 578 558 562.5Q557 547 555 528L548 445H523Q514 532 478 574.5Q442 617 380 617Q342 617 310.5 594Q279 571 256.5 528Q234 485 221.5 424.5Q209 364 209 289Q209 164 246.5 96.5Q284 29 354 29Q403 29 442 73Q481 117 517 216L543 213L519 87Q512 44 499 28.5Q486 13 451 3Q418 -6 389.5 -10Q361 -14 325 -14Z" glyph-name="Cacute" horiz-adv-x="568" unicode="&#262;" /><glyph d="M366 697Q349 697 341 704Q333 711 325 730L271 844L289 848L385 775L492 849L510 844L438 730Q426 711 416 704Q406 697 390 697ZM325 -14Q203 -14 138 64Q73 142 73 279Q73 360 96.5 430Q120 500 161 550.5Q202 601 260 630.5Q318 660 387 660Q432 660 462 653.5Q492 647 527 632Q546 624 552.5 612.5Q559 601 559 583Q559 578 558 562.5Q557 547 555 528L548 445H523Q514 532 478 574.5Q442 617 380 617Q342 617 310.5 594Q279 571 256.5 528Q234 485 221.5 424.5Q209 364 209 289Q209 164 246.5 96.5Q284 29 354 29Q403 29 442 73Q481 117 517 216L543 213L519 87Q512 44 499 28.5Q486 13 451 3Q418 -6 389.5 -10Q361 -14 325 -14Z" glyph-name="Ccaron" horiz-adv-x="568" unicode="&#268;" /><glyph d="M289 -248Q249 -248 224 -228Q199 -208 199 -179Q199 -166 208.5 -156.5Q218 -147 232 -147Q245 -147 249 -149.5Q253 -152 254 -161L261 -216Q266 -219 270 -220Q274 -221 280 -221Q300 -221 313 -208Q326 -195 326 -170Q326 -146 312 -130Q298 -114 270 -105L311 -13Q196 -9 134.5 68.5Q73 146 73 279Q73 360 96.5 430Q120 500 161 550.5Q202 601 260 630.5Q318 660 387 660Q432 660 462 653.5Q492 647 527 632Q546 624 552.5 612.5Q559 601 559 583Q559 578 558 562.5Q557 547 555 528L548 445H523Q514 532 478 574.5Q442 617 380 617Q342 617 310.5 594Q279 571 256.5 528Q234 485 221.5 424.5Q209 364 209 289Q209 164 246.5 96.5Q284 29 354 29Q403 29 442 73Q481 117 517 216L543 213L519 87Q512 44 499 28.5Q486 13 451 3Q426 -4 403 -8.5Q380 -13 356 -14L328 -58Q365 -67 384.5 -90Q404 -113 404 -147Q404 -191 372 -219.5Q340 -248 289 -248Z" glyph-name="Ccedilla" horiz-adv-x="568" unicode="&#199;" /><glyph d="M278 694 261 699 333 811Q344 830 353.5 837Q363 844 380 844H404Q421 844 429.5 837Q438 830 446 811L498 699L480 694L385 767ZM325 -14Q203 -14 138 64Q73 142 73 279Q73 360 96.5 430Q120 500 161 550.5Q202 601 260 630.5Q318 660 387 660Q432 660 462 653.5Q492 647 527 632Q546 624 552.5 612.5Q559 601 559 583Q559 578 558 562.5Q557 547 555 528L548 445H523Q514 532 478 574.5Q442 617 380 617Q342 617 310.5 594Q279 571 256.5 528Q234 485 221.5 424.5Q209 364 209 289Q209 164 246.5 96.5Q284 29 354 29Q403 29 442 73Q481 117 517 216L543 213L519 87Q512 44 499 28.5Q486 13 451 3Q418 -6 389.5 -10Q361 -14 325 -14Z" glyph-name="Ccircumflex" horiz-adv-x="568" unicode="&#264;" /><glyph d="M380 708Q352 708 336 725.5Q320 743 320 769Q320 801 339.5 823.5Q359 846 393 846Q421 846 436.5 828.5Q452 811 452 784Q452 752 432.5 730Q413 708 380 708ZM325 -14Q203 -14 138 64Q73 142 73 279Q73 360 96.5 430Q120 500 161 550.5Q202 601 260 630.5Q318 660 387 660Q432 660 462 653.5Q492 647 527 632Q546 624 552.5 612.5Q559 601 559 583Q559 578 558 562.5Q557 547 555 528L548 445H523Q514 532 478 574.5Q442 617 380 617Q342 617 310.5 594Q279 571 256.5 528Q234 485 221.5 424.5Q209 364 209 289Q209 164 246.5 96.5Q284 29 354 29Q403 29 442 73Q481 117 517 216L543 213L519 87Q512 44 499 28.5Q486 13 451 3Q418 -6 389.5 -10Q361 -14 325 -14Z" glyph-name="Cdotaccent" horiz-adv-x="568" unicode="&#266;" /><glyph d="M24 0 26 28 63 34Q100 41 112 54.5Q124 68 128 108L162 508Q164 528 165.5 541.5Q167 555 167 560Q167 585 155 596Q143 607 114 612L77 618L80 646H247Q335 646 406 624.5Q477 603 526 563Q575 523 601.5 463Q628 403 628 327Q628 163 530 81.5Q432 0 262 0ZM297 42Q395 42 445.5 114.5Q496 187 496 321Q496 451 438 522.5Q380 594 291 602L242 50Q251 47 267.5 44.5Q284 42 297 42Z" glyph-name="D" horiz-adv-x="643" unicode="D" /><glyph d="M348 697Q331 697 323 704Q315 711 307 730L253 844L271 848L367 775L474 849L492 844L420 730Q408 711 398 704Q388 697 372 697ZM24 0 26 28 63 34Q100 41 112 54.5Q124 68 128 108L162 508Q164 528 165.5 541.5Q167 555 167 560Q167 585 155 596Q143 607 114 612L77 618L80 646H247Q335 646 406 624.5Q477 603 526 563Q575 523 601.5 463Q628 403 628 327Q628 163 530 81.5Q432 0 262 0ZM297 42Q395 42 445.5 114.5Q496 187 496 321Q496 451 438 522.5Q380 594 291 602L242 50Q251 47 267.5 44.5Q284 42 297 42Z" glyph-name="Dcaron" horiz-adv-x="644" unicode="&#270;" /><glyph d="M24 0 26 28 63 34Q100 41 112 54.5Q124 68 128 108L146 319H89L92 358H149L162 508Q164 528 165.5 541.5Q167 555 167 560Q167 585 155 596Q143 607 114 612L77 618L80 646H247Q335 646 406 624.5Q477 603 526 563Q575 523 601.5 463Q628 403 628 327Q628 163 530 81.5Q432 0 262 0ZM297 42Q395 42 445.5 114.5Q496 187 496 321Q496 451 438 522.5Q380 594 291 602L269 358H374L371 319H266L242 50Q251 47 267.5 44.5Q284 42 297 42Z" glyph-name="Dcroat" horiz-adv-x="643" unicode="&#272;" /><glyph d="M35 0 38 34 287 652H336L475 34L472 0ZM84 49H357L267 517Z" glyph-name="Delta" horiz-adv-x="508" unicode="&#8710;" /><glyph d="M24 0 26 28 63 34Q100 41 112 54.5Q124 68 128 108L163 513Q165 534 166 544.5Q167 555 167 560Q167 585 155 596Q143 607 114 612L77 618L80 646H549Q562 646 568 640Q574 634 574 622Q574 618 573.5 610.5Q573 603 572 593L560 460H536L532 491Q523 557 494 579.5Q465 602 401 602H290L269 362H428L452 452H478L459 229H433L425 319H265L242 51Q261 47 287.5 44.5Q314 42 340 42Q412 42 449 70.5Q486 99 517 170L529 199L552 194L517 21Q514 5 506 -1Q498 -7 483 -7Q477 -7 458.5 -6Q440 -5 417.5 -3.5Q395 -2 371 -1Q347 0 329 0Z" glyph-name="E" horiz-adv-x="568" unicode="E" /><glyph d="M326 691 321 707 449 838Q462 851 466.5 853Q471 855 476 855Q489 855 505 840Q521 825 521 797Q521 769 505 754Q489 739 465 732ZM24 0 26 28 63 34Q100 41 112 54.5Q124 68 128 108L163 513Q165 534 166 544.5Q167 555 167 560Q167 585 155 596Q143 607 114 612L77 618L80 646H549Q562 646 568 640Q574 634 574 622Q574 618 573.5 610.5Q573 603 572 593L560 460H536L532 491Q523 557 494 579.5Q465 602 401 602H290L269 362H428L452 452H478L459 229H433L425 319H265L242 51Q261 47 287.5 44.5Q314 42 340 42Q412 42 449 70.5Q486 99 517 170L529 199L552 194L517 21Q514 5 506 -1Q498 -7 483 -7Q477 -7 458.5 -6Q440 -5 417.5 -3.5Q395 -2 371 -1Q347 0 329 0Z" glyph-name="Eacute" horiz-adv-x="567" unicode="&#201;" /><glyph d="M358 694Q314 694 289 724.5Q264 755 264 812Q264 820 264 826.5Q264 833 265 840H285Q291 807 311 791.5Q331 776 365 776Q399 776 422.5 791.5Q446 807 458 840H478Q470 766 439.5 730Q409 694 358 694ZM24 0 26 28 63 34Q100 41 112 54.5Q124 68 128 108L163 513Q165 534 166 544.5Q167 555 167 560Q167 585 155 596Q143 607 114 612L77 618L80 646H549Q562 646 568 640Q574 634 574 622Q574 618 573.5 610.5Q573 603 572 593L560 460H536L532 491Q523 557 494 579.5Q465 602 401 602H290L269 362H428L452 452H478L459 229H433L425 319H265L242 51Q261 47 287.5 44.5Q314 42 340 42Q412 42 449 70.5Q486 99 517 170L529 199L552 194L517 21Q514 5 506 -1Q498 -7 483 -7Q477 -7 458.5 -6Q440 -5 417.5 -3.5Q395 -2 371 -1Q347 0 329 0Z" glyph-name="Ebreve" horiz-adv-x="567" unicode="&#276;" /><glyph d="M346 697Q329 697 321 704Q313 711 305 730L251 844L269 848L365 775L472 849L490 844L418 730Q406 711 396 704Q386 697 370 697ZM24 0 26 28 63 34Q100 41 112 54.5Q124 68 128 108L163 513Q165 534 166 544.5Q167 555 167 560Q167 585 155 596Q143 607 114 612L77 618L80 646H549Q562 646 568 640Q574 634 574 622Q574 618 573.5 610.5Q573 603 572 593L560 460H536L532 491Q523 557 494 579.5Q465 602 401 602H290L269 362H428L452 452H478L459 229H433L425 319H265L242 51Q261 47 287.5 44.5Q314 42 340 42Q412 42 449 70.5Q486 99 517 170L529 199L552 194L517 21Q514 5 506 -1Q498 -7 483 -7Q477 -7 458.5 -6Q440 -5 417.5 -3.5Q395 -2 371 -1Q347 0 329 0Z" glyph-name="Ecaron" horiz-adv-x="567" unicode="&#282;" /><glyph d="M258 694 241 699 313 811Q324 830 333.5 837Q343 844 360 844H384Q401 844 409.5 837Q418 830 426 811L478 699L460 694L365 767ZM24 0 26 28 63 34Q100 41 112 54.5Q124 68 128 108L163 513Q165 534 166 544.5Q167 555 167 560Q167 585 155 596Q143 607 114 612L77 618L80 646H549Q562 646 568 640Q574 634 574 622Q574 618 573.5 610.5Q573 603 572 593L560 460H536L532 491Q523 557 494 579.5Q465 602 401 602H290L269 362H428L452 452H478L459 229H433L425 319H265L242 51Q261 47 287.5 44.5Q314 42 340 42Q412 42 449 70.5Q486 99 517 170L529 199L552 194L517 21Q514 5 506 -1Q498 -7 483 -7Q477 -7 458.5 -6Q440 -5 417.5 -3.5Q395 -2 371 -1Q347 0 329 0Z" glyph-name="Ecircumflex" horiz-adv-x="567" unicode="&#202;" /><glyph d="M273 707Q246 707 231 723.5Q216 740 216 765Q216 796 234.5 817Q253 838 286 838Q313 838 327.5 821.5Q342 805 342 780Q342 749 323.5 728Q305 707 273 707ZM445 707Q418 707 403 723.5Q388 740 388 765Q388 796 407 817Q426 838 458 838Q485 838 500 821.5Q515 805 515 780Q515 749 496 728Q477 707 445 707ZM24 0 26 28 63 34Q100 41 112 54.5Q124 68 128 108L163 513Q165 534 166 544.5Q167 555 167 560Q167 585 155 596Q143 607 114 612L77 618L80 646H549Q562 646 568 640Q574 634 574 622Q574 618 573.5 610.5Q573 603 572 593L560 460H536L532 491Q523 557 494 579.5Q465 602 401 602H290L269 362H428L452 452H478L459 229H433L425 319H265L242 51Q261 47 287.5 44.5Q314 42 340 42Q412 42 449 70.5Q486 99 517 170L529 199L552 194L517 21Q514 5 506 -1Q498 -7 483 -7Q477 -7 458.5 -6Q440 -5 417.5 -3.5Q395 -2 371 -1Q347 0 329 0Z" glyph-name="Edieresis" horiz-adv-x="567" unicode="&#203;" /><glyph d="M360 708Q332 708 316 725.5Q300 743 300 769Q300 801 319.5 823.5Q339 846 373 846Q401 846 416.5 828.5Q432 811 432 784Q432 752 412.5 730Q393 708 360 708ZM24 0 26 28 63 34Q100 41 112 54.5Q124 68 128 108L163 513Q165 534 166 544.5Q167 555 167 560Q167 585 155 596Q143 607 114 612L77 618L80 646H549Q562 646 568 640Q574 634 574 622Q574 618 573.5 610.5Q573 603 572 593L560 460H536L532 491Q523 557 494 579.5Q465 602 401 602H290L269 362H428L452 452H478L459 229H433L425 319H265L242 51Q261 47 287.5 44.5Q314 42 340 42Q412 42 449 70.5Q486 99 517 170L529 199L552 194L517 21Q514 5 506 -1Q498 -7 483 -7Q477 -7 458.5 -6Q440 -5 417.5 -3.5Q395 -2 371 -1Q347 0 329 0Z" glyph-name="Edotaccent" horiz-adv-x="567" unicode="&#278;" /><glyph d="M391 691 254 733Q233 739 222 754Q211 769 211 792Q211 817 228 836Q245 855 266 855Q270 855 274.5 852Q279 849 289 837L399 708ZM24 0 26 28 63 34Q100 41 112 54.5Q124 68 128 108L163 513Q165 534 166 544.5Q167 555 167 560Q167 585 155 596Q143 607 114 612L77 618L80 646H549Q562 646 568 640Q574 634 574 622Q574 618 573.5 610.5Q573 603 572 593L560 460H536L532 491Q523 557 494 579.5Q465 602 401 602H290L269 362H428L452 452H478L459 229H433L425 319H265L242 51Q261 47 287.5 44.5Q314 42 340 42Q412 42 449 70.5Q486 99 517 170L529 199L552 194L517 21Q514 5 506 -1Q498 -7 483 -7Q477 -7 458.5 -6Q440 -5 417.5 -3.5Q395 -2 371 -1Q347 0 329 0Z" glyph-name="Egrave" horiz-adv-x="567" unicode="&#200;" /><glyph d="M245 737 250 788H483L479 737ZM24 0 26 28 63 34Q100 41 112 54.5Q124 68 128 108L163 513Q165 534 166 544.5Q167 555 167 560Q167 585 155 596Q143 607 114 612L77 618L80 646H549Q562 646 568 640Q574 634 574 622Q574 618 573.5 610.5Q573 603 572 593L560 460H536L532 491Q523 557 494 579.5Q465 602 401 602H290L269 362H428L452 452H478L459 229H433L425 319H265L242 51Q261 47 287.5 44.5Q314 42 340 42Q412 42 449 70.5Q486 99 517 170L529 199L552 194L517 21Q514 5 506 -1Q498 -7 483 -7Q477 -7 458.5 -6Q440 -5 417.5 -3.5Q395 -2 371 -1Q347 0 329 0Z" glyph-name="Emacron" horiz-adv-x="567" unicode="&#274;" /><glyph d="M327 -157 321 -132Q381 -92 405 -54.5Q429 -17 436 49L440 85L210 520L168 42L269 28L266 0H26L28 28L60 34Q91 40 104 53Q117 66 121 102L159 479Q161 501 163.5 523Q166 545 166 551Q166 578 155 590Q144 602 118 608L81 617L84 646H242Q266 646 277 640Q288 634 295 619L522 179L559 604L458 618L461 646H701L698 618L664 612Q633 605 621.5 592.5Q610 580 607 544L567 148Q561 88 548.5 40.5Q536 -7 509.5 -43.5Q483 -80 439 -108Q395 -136 327 -157Z" glyph-name="Eng" horiz-adv-x="657" unicode="&#330;" /><glyph d="M379 -248Q339 -248 316.5 -224.5Q294 -201 294 -161Q294 -119 327.5 -77Q361 -35 424 -4Q402 -3 375 -1.5Q348 0 329 0H24L26 28L63 34Q100 41 112 54.5Q124 68 128 108L163 513Q165 534 166 544.5Q167 555 167 560Q167 585 155 596Q143 607 114 612L77 618L80 646H549Q562 646 568 640Q574 634 574 622Q574 618 573.5 610.5Q573 603 572 593L560 460H536L532 491Q523 557 494 579.5Q465 602 401 602H290L269 362H428L452 452H478L459 229H433L425 319H265L242 51Q261 47 287.5 44.5Q314 42 340 42Q412 42 449 70.5Q486 99 517 170L529 199L552 194L517 21Q514 5 506 -1Q498 -7 483 -7H467Q424 -44 406 -76.5Q388 -109 388 -143Q388 -167 400.5 -180Q413 -193 436 -193Q446 -193 457.5 -189Q469 -185 484 -175L479 -199Q460 -222 433.5 -235Q407 -248 379 -248Z" glyph-name="Eogonek" horiz-adv-x="567" unicode="&#280;" /><glyph d="M24 0 26 28 63 34Q100 41 112 54.5Q124 68 128 108L146 319H89L92 358H149L162 508Q164 528 165.5 541.5Q167 555 167 560Q167 585 155 596Q143 607 114 612L77 618L80 646H247Q335 646 406 624.5Q477 603 526 563Q575 523 601.5 463Q628 403 628 327Q628 163 530 81.5Q432 0 262 0ZM297 42Q395 42 445.5 114.5Q496 187 496 321Q496 451 438 522.5Q380 594 291 602L269 358H374L371 319H266L242 50Q251 47 267.5 44.5Q284 42 297 42Z" glyph-name="Eth" horiz-adv-x="643" unicode="&#208;" /><glyph d="M45 259 51 302H105Q106 318 107.5 333Q109 348 111 362H64L70 406H119Q145 521 218.5 590.5Q292 660 398 660Q435 660 459.5 654Q484 648 518 632Q536 624 543.5 612.5Q551 601 551 583Q551 579 550 566Q549 553 547 528L539 445H514Q505 533 475 575Q445 617 391 617Q335 617 297.5 561Q260 505 247 406H467L460 362H243Q242 348 241 333Q240 318 240 302H447L441 259H240Q244 147 276 88Q308 29 365 29Q405 29 435.5 69Q466 109 509 216L534 213L511 87Q503 44 490 28.5Q477 13 442 3Q423 -2 410.5 -5.5Q398 -9 387 -11Q376 -13 364 -13.5Q352 -14 336 -14Q223 -14 166 56Q109 126 105 259Z" glyph-name="Euro" horiz-adv-x="567" unicode="&#8364;" /><glyph d="M53 203 58 242H99Q100 255 101.5 267Q103 279 104 290H64L69 330H113Q138 420 202.5 474.5Q267 529 359 529Q391 529 415 524Q439 519 469 507Q484 500 490.5 490.5Q497 481 497 467Q497 463 496 452.5Q495 442 494 423L487 354H465Q458 424 429.5 458Q401 492 353 492Q304 492 272 449.5Q240 407 228 330H427L420 290H223Q222 279 221.5 267Q221 255 221 242H410L403 203H222Q226 116 254 70.5Q282 25 331 25Q367 25 396.5 58Q426 91 463 176L486 173L463 69Q456 35 443 22Q430 9 399 1Q366 -8 349.5 -10Q333 -12 304 -12Q206 -12 154.5 43.5Q103 99 99 203Z" glyph-name="Euro.smcp" horiz-adv-x="530" /><glyph d="M24 0 26 28 63 34Q100 41 112 54.5Q124 68 128 108L163 513Q165 534 166 544.5Q167 555 167 560Q167 585 155 595.5Q143 606 114 612L77 618L80 646H543Q556 646 562.5 640Q569 634 569 623Q569 620 568 611.5Q567 603 566 589L555 460H531L526 491Q517 557 488.5 579.5Q460 602 396 602H291L269 354H421L446 444H472L453 221H427L418 311H265L242 42L358 30L356 0Z" glyph-name="F" horiz-adv-x="540" unicode="F" /><glyph d="M341 -14Q277 -14 226.5 7.5Q176 29 142 67.5Q108 106 90 161Q72 216 72 282Q72 366 96 435.5Q120 505 161.5 555Q203 605 260.5 632.5Q318 660 385 660Q435 660 473.5 650Q512 640 539 627Q555 619 561 608.5Q567 598 567 582Q567 578 566.5 566Q566 554 565 543L556 448H530Q516 537 477 576.5Q438 616 375 616Q305 616 255 540.5Q205 465 205 305Q205 175 248.5 102Q292 29 367 29Q380 29 391 32Q402 35 415 39L433 251L354 262L356 292H601L598 262L583 258Q563 255 554 245Q545 235 542 205L530 68Q529 45 521.5 33Q514 21 495 14Q458 1 424 -6.5Q390 -14 341 -14Z" glyph-name="G" horiz-adv-x="605" unicode="G" /><glyph d="M372 694Q328 694 303 724.5Q278 755 278 812Q278 820 278 826.5Q278 833 279 840H299Q305 807 325 791.5Q345 776 379 776Q413 776 436.5 791.5Q460 807 472 840H492Q484 766 453.5 730Q423 694 372 694ZM341 -14Q277 -14 226.5 7.5Q176 29 142 67.5Q108 106 90 161Q72 216 72 282Q72 366 96 435.5Q120 505 161.5 555Q203 605 260.5 632.5Q318 660 385 660Q435 660 473.5 650Q512 640 539 627Q555 619 561 608.5Q567 598 567 582Q567 578 566.5 566Q566 554 565 543L556 448H530Q516 537 477 576.5Q438 616 375 616Q305 616 255 540.5Q205 465 205 305Q205 175 248.5 102Q292 29 367 29Q380 29 391 32Q402 35 415 39L433 251L354 262L356 292H601L598 262L583 258Q563 255 554 245Q545 235 542 205L530 68Q529 45 521.5 33Q514 21 495 14Q458 1 424 -6.5Q390 -14 341 -14Z" glyph-name="Gbreve" horiz-adv-x="605" unicode="&#286;" /><glyph d="M272 694 255 699 327 811Q338 830 347.5 837Q357 844 374 844H398Q415 844 423.5 837Q432 830 440 811L492 699L474 694L379 767ZM341 -14Q277 -14 226.5 7.5Q176 29 142 67.5Q108 106 90 161Q72 216 72 282Q72 366 96 435.5Q120 505 161.5 555Q203 605 260.5 632.5Q318 660 385 660Q435 660 473.5 650Q512 640 539 627Q555 619 561 608.5Q567 598 567 582Q567 578 566.5 566Q566 554 565 543L556 448H530Q516 537 477 576.5Q438 616 375 616Q305 616 255 540.5Q205 465 205 305Q205 175 248.5 102Q292 29 367 29Q380 29 391 32Q402 35 415 39L433 251L354 262L356 292H601L598 262L583 258Q563 255 554 245Q545 235 542 205L530 68Q529 45 521.5 33Q514 21 495 14Q458 1 424 -6.5Q390 -14 341 -14Z" glyph-name="Gcircumflex" horiz-adv-x="605" unicode="&#284;" /><glyph d="M341 -14Q277 -14 226.5 7.5Q176 29 142 67.5Q108 106 90 161Q72 216 72 282Q72 366 96 435.5Q120 505 161.5 555Q203 605 260.5 632.5Q318 660 385 660Q435 660 473.5 650Q512 640 539 627Q555 619 561 608.5Q567 598 567 582Q567 578 566.5 566Q566 554 565 543L556 448H530Q516 537 477 576.5Q438 616 375 616Q305 616 255 540.5Q205 465 205 305Q205 175 248.5 102Q292 29 367 29Q380 29 391 32Q402 35 415 39L433 251L354 262L356 292H601L598 262L583 258Q563 255 554 245Q545 235 542 205L530 68Q529 45 521.5 33Q514 21 495 14Q458 1 424 -6.5Q390 -14 341 -14ZM242 -258 238 -242Q265 -220 278 -202.5Q291 -185 298 -163L280 -110Q278 -103 277 -100Q276 -97 276 -95Q276 -84 291.5 -74.5Q307 -65 327 -65Q355 -65 369.5 -82Q384 -99 384 -125Q384 -167 350.5 -200Q317 -233 242 -258Z" glyph-name="Gcommaaccent" horiz-adv-x="605" unicode="&#290;" /><glyph d="M374 708Q346 708 330 725.5Q314 743 314 769Q314 801 333.5 823.5Q353 846 387 846Q415 846 430.5 828.5Q446 811 446 784Q446 752 426.5 730Q407 708 374 708ZM341 -14Q277 -14 226.5 7.5Q176 29 142 67.5Q108 106 90 161Q72 216 72 282Q72 366 96 435.5Q120 505 161.5 555Q203 605 260.5 632.5Q318 660 385 660Q435 660 473.5 650Q512 640 539 627Q555 619 561 608.5Q567 598 567 582Q567 578 566.5 566Q566 554 565 543L556 448H530Q516 537 477 576.5Q438 616 375 616Q305 616 255 540.5Q205 465 205 305Q205 175 248.5 102Q292 29 367 29Q380 29 391 32Q402 35 415 39L433 251L354 262L356 292H601L598 262L583 258Q563 255 554 245Q545 235 542 205L530 68Q529 45 521.5 33Q514 21 495 14Q458 1 424 -6.5Q390 -14 341 -14Z" glyph-name="Gdotaccent" horiz-adv-x="605" unicode="&#288;" /><glyph d="M424 -13Q353 -13 310.5 21Q268 55 268 111Q268 136 281.5 150Q295 164 318 164Q335 164 340.5 160Q346 156 350 139L370 42Q384 33 394.5 30Q405 27 422 27Q466 27 488.5 59.5Q511 92 511 155Q511 227 469.5 269.5Q428 312 344 327V352L515 595H373Q319 595 294.5 570.5Q270 546 266 488L225 0H13L15 28L53 34Q90 41 102 55Q114 69 117 108L148 453Q156 545 211 595.5Q266 646 359 646H617L621 619L441 374Q529 364 583 310.5Q637 257 637 179Q637 88 581 37.5Q525 -13 424 -13Z" glyph-name="Germandbls" horiz-adv-x="654" unicode="&#7838;" /><glyph d="M24 0 26 28 63 34Q100 41 112 54.5Q124 68 128 108L163 513Q165 534 165.5 544.5Q166 555 166 560Q166 585 154.5 595.5Q143 606 114 612L77 618L80 646H381L378 617L291 606L270 367H503L524 606L438 617L440 646H742L739 618L702 612Q666 605 653.5 591.5Q641 578 638 538L603 140Q602 118 600.5 104.5Q599 91 599 86Q599 61 610.5 50Q622 39 651 34L688 28L685 0H383L385 29L474 40L499 322H265L241 40L326 29L324 0Z" glyph-name="H" horiz-adv-x="709" unicode="H" /><glyph d="M24 0 26 28 63 34Q100 41 112 54.5Q124 68 128 108L159 474H91L95 513H163Q165 535 165.5 545.5Q166 556 166 560Q166 585 154.5 595.5Q143 606 114 612L77 618L80 646H381L378 617L291 606L283 513H516L524 606L438 617L440 646H742L739 618L702 612Q666 605 653.5 591.5Q641 578 638 538L635 513H706L703 474H632L603 140Q602 118 600.5 104.5Q599 91 599 86Q599 61 610.5 50Q622 39 651 34L688 28L685 0H383L385 29L474 40L499 322H265L241 40L326 29L324 0ZM270 367H503L512 474H279Z" glyph-name="Hbar" horiz-adv-x="709" unicode="&#294;" /><glyph d="M314 694 297 699 369 811Q380 830 389.5 837Q399 844 416 844H440Q457 844 465.5 837Q474 830 482 811L534 699L516 694L421 767ZM24 0 26 28 63 34Q100 41 112 54.5Q124 68 128 108L163 513Q165 534 165.5 544.5Q166 555 166 560Q166 585 154.5 595.5Q143 606 114 612L77 618L80 646H381L378 617L291 606L270 367H503L524 606L438 617L440 646H742L739 618L702 612Q666 605 653.5 591.5Q641 578 638 538L603 140Q602 118 600.5 104.5Q599 91 599 86Q599 61 610.5 50Q622 39 651 34L688 28L685 0H383L385 29L474 40L499 322H265L241 40L326 29L324 0Z" glyph-name="Hcircumflex" horiz-adv-x="709" unicode="&#292;" /><glyph d="M24 0 26 28 63 34Q99 41 111.5 54.5Q124 68 128 108L163 517Q164 534 165 544.5Q166 555 166 560Q166 585 154 595.5Q142 606 113 612L77 618L80 646H387L385 618L349 612Q312 605 300 591.5Q288 578 285 538L249 129Q248 113 247 102Q246 91 246 86Q246 61 257.5 50Q269 39 298 34L337 28L334 0Z" glyph-name="I" horiz-adv-x="355" unicode="I" /><glyph d="M24 0 26 28 63 34Q99 41 111.5 54.5Q124 68 128 108L163 517Q164 534 165 544.5Q166 555 166 560Q166 585 154 595.5Q142 606 113 612L77 618L80 646H387L385 618L349 612Q312 605 300 591.5Q288 578 285 538L249 129Q248 113 247 102Q246 91 246 86Q246 61 257.5 50Q269 39 298 34L337 28L334 0ZM353 -157 347 -132Q381 -110 403 -90Q425 -70 438 -43.5Q451 -17 458.5 21.5Q466 60 471 118L506 517Q507 534 508 544.5Q509 555 509 560Q509 585 497.5 596Q486 607 456 612L420 618L422 646H732L729 618L692 612Q656 605 644 591.5Q632 578 628 538L594 156Q588 85 574 35Q560 -15 532.5 -50Q505 -85 461.5 -110.5Q418 -136 353 -157Z" glyph-name="IJ" horiz-adv-x="680" unicode="&#306;" /><glyph d="M205 691 200 707 328 838Q341 851 345.5 853Q350 855 355 855Q368 855 384 840Q400 825 400 797Q400 769 384 754Q368 739 344 732ZM24 0 26 28 63 34Q99 41 111.5 54.5Q124 68 128 108L163 517Q164 534 165 544.5Q166 555 166 560Q166 585 154 595.5Q142 606 113 612L77 618L80 646H387L385 618L349 612Q312 605 300 591.5Q288 578 285 538L249 129Q248 113 247 102Q246 91 246 86Q246 61 257.5 50Q269 39 298 34L337 28L334 0Z" glyph-name="Iacute" horiz-adv-x="355" unicode="&#205;" /><glyph d="M237 694Q193 694 168 724.5Q143 755 143 812Q143 820 143 826.5Q143 833 144 840H164Q170 807 190 791.5Q210 776 244 776Q278 776 301.5 791.5Q325 807 337 840H357Q349 766 318.5 730Q288 694 237 694ZM24 0 26 28 63 34Q99 41 111.5 54.5Q124 68 128 108L163 517Q164 534 165 544.5Q166 555 166 560Q166 585 154 595.5Q142 606 113 612L77 618L80 646H387L385 618L349 612Q312 605 300 591.5Q288 578 285 538L249 129Q248 113 247 102Q246 91 246 86Q246 61 257.5 50Q269 39 298 34L337 28L334 0Z" glyph-name="Ibreve" horiz-adv-x="355" unicode="&#300;" /><glyph d="M137 694 120 699 192 811Q203 830 212.5 837Q222 844 239 844H263Q280 844 288.5 837Q297 830 305 811L357 699L339 694L244 767ZM24 0 26 28 63 34Q99 41 111.5 54.5Q124 68 128 108L163 517Q164 534 165 544.5Q166 555 166 560Q166 585 154 595.5Q142 606 113 612L77 618L80 646H387L385 618L349 612Q312 605 300 591.5Q288 578 285 538L249 129Q248 113 247 102Q246 91 246 86Q246 61 257.5 50Q269 39 298 34L337 28L334 0Z" glyph-name="Icircumflex" horiz-adv-x="355" unicode="&#206;" /><glyph d="M152 707Q125 707 110 723.5Q95 740 95 765Q95 796 113.5 817Q132 838 165 838Q192 838 206.5 821.5Q221 805 221 780Q221 749 202.5 728Q184 707 152 707ZM324 707Q297 707 282 723.5Q267 740 267 765Q267 796 286 817Q305 838 337 838Q364 838 379 821.5Q394 805 394 780Q394 749 375 728Q356 707 324 707ZM24 0 26 28 63 34Q99 41 111.5 54.5Q124 68 128 108L163 517Q164 534 165 544.5Q166 555 166 560Q166 585 154 595.5Q142 606 113 612L77 618L80 646H387L385 618L349 612Q312 605 300 591.5Q288 578 285 538L249 129Q248 113 247 102Q246 91 246 86Q246 61 257.5 50Q269 39 298 34L337 28L334 0Z" glyph-name="Idieresis" horiz-adv-x="355" unicode="&#207;" /><glyph d="M239 708Q211 708 195 725.5Q179 743 179 769Q179 801 198.5 823.5Q218 846 252 846Q280 846 295.5 828.5Q311 811 311 784Q311 752 291.5 730Q272 708 239 708ZM24 0 26 28 63 34Q99 41 111.5 54.5Q124 68 128 108L163 517Q164 534 165 544.5Q166 555 166 560Q166 585 154 595.5Q142 606 113 612L77 618L80 646H387L385 618L349 612Q312 605 300 591.5Q288 578 285 538L249 129Q248 113 247 102Q246 91 246 86Q246 61 257.5 50Q269 39 298 34L337 28L334 0Z" glyph-name="Idotaccent" horiz-adv-x="355" unicode="&#304;" /><glyph d="M270 691 133 733Q112 739 101 754Q90 769 90 792Q90 817 107 836Q124 855 145 855Q149 855 153.5 852Q158 849 168 837L278 708ZM24 0 26 28 63 34Q99 41 111.5 54.5Q124 68 128 108L163 517Q164 534 165 544.5Q166 555 166 560Q166 585 154 595.5Q142 606 113 612L77 618L80 646H387L385 618L349 612Q312 605 300 591.5Q288 578 285 538L249 129Q248 113 247 102Q246 91 246 86Q246 61 257.5 50Q269 39 298 34L337 28L334 0Z" glyph-name="Igrave" horiz-adv-x="355" unicode="&#204;" /><glyph d="M124 737 129 788H362L358 737ZM24 0 26 28 63 34Q99 41 111.5 54.5Q124 68 128 108L163 517Q164 534 165 544.5Q166 555 166 560Q166 585 154 595.5Q142 606 113 612L77 618L80 646H387L385 618L349 612Q312 605 300 591.5Q288 578 285 538L249 129Q248 113 247 102Q246 91 246 86Q246 61 257.5 50Q269 39 298 34L337 28L334 0Z" glyph-name="Imacron" horiz-adv-x="355" unicode="&#298;" /><glyph d="M116 -248Q77 -248 55 -225.5Q33 -203 33 -163Q33 -115 69 -73Q105 -31 173 0H24L26 28L63 34Q99 41 111.5 54.5Q124 68 128 108L163 517Q164 534 165 544.5Q166 555 166 560Q166 585 154 595.5Q142 606 113 612L77 618L80 646H387L385 618L349 612Q312 605 300 591.5Q288 578 285 538L249 129Q248 113 247 102Q246 91 246 86Q246 61 257.5 50Q269 39 298 34L337 28L334 0H217Q170 -39 149 -73Q128 -107 128 -143Q128 -166 139 -179.5Q150 -193 168 -193Q183 -193 195 -189.5Q207 -186 223 -177L217 -202Q194 -226 168.5 -237Q143 -248 116 -248Z" glyph-name="Iogonek" horiz-adv-x="355" unicode="&#302;" /><glyph d="M276 711Q244 711 228 726Q212 741 186 741Q174 741 164 734Q154 727 147 705H126Q133 765 154 793Q175 821 207 821Q235 821 253 806.5Q271 792 298 792Q314 792 324 802.5Q334 813 340 837L361 836Q355 773 334 742Q313 711 276 711ZM24 0 26 28 63 34Q99 41 111.5 54.5Q124 68 128 108L163 517Q164 534 165 544.5Q166 555 166 560Q166 585 154 595.5Q142 606 113 612L77 618L80 646H387L385 618L349 612Q312 605 300 591.5Q288 578 285 538L249 129Q248 113 247 102Q246 91 246 86Q246 61 257.5 50Q269 39 298 34L337 28L334 0Z" glyph-name="Itilde" horiz-adv-x="355" unicode="&#296;" /><glyph d="M-3 -157 -9 -132Q25 -110 47 -90Q69 -70 82 -43.5Q95 -17 102.5 21.5Q110 60 115 118L150 517Q151 534 152 544.5Q153 555 153 560Q153 585 141.5 596Q130 607 100 612L64 618L66 646H376L373 618L336 612Q300 605 288 591.5Q276 578 272 538L238 156Q232 85 218 35Q204 -15 176.5 -50Q149 -85 105.5 -110.5Q62 -136 -3 -157Z" glyph-name="J" horiz-adv-x="324" unicode="J" /><glyph d="M124 694 107 699 179 811Q190 830 199.5 837Q209 844 226 844H250Q267 844 275.5 837Q284 830 292 811L344 699L326 694L231 767ZM-3 -157 -9 -132Q25 -110 47 -90Q69 -70 82 -43.5Q95 -17 102.5 21.5Q110 60 115 118L150 517Q151 534 152 544.5Q153 555 153 560Q153 585 141.5 596Q130 607 100 612L64 618L66 646H376L373 618L336 612Q300 605 288 591.5Q276 578 272 538L238 156Q232 85 218 35Q204 -15 176.5 -50Q149 -85 105.5 -110.5Q62 -136 -3 -157Z" glyph-name="Jcircumflex" horiz-adv-x="324" unicode="&#308;" /><glyph d="M24 0 26 28 63 34Q100 41 112 54.5Q124 68 128 108L163 513Q165 534 166 544.5Q167 555 167 560Q167 585 155 596Q143 607 114 612L77 618L80 646H375L373 617L290 606L240 40L321 29L318 0ZM531 0Q494 0 475 12Q456 24 440 51L277 324L278 337L550 606L462 618L464 646H683L681 618L662 612Q637 605 622 598.5Q607 592 591 576L385 373L574 66Q584 49 595.5 42Q607 35 632 29L629 0Z" glyph-name="K" horiz-adv-x="622" unicode="K" /><glyph d="M24 0 26 28 63 34Q100 41 112 54.5Q124 68 128 108L163 513Q165 534 166 544.5Q167 555 167 560Q167 585 155 596Q143 607 114 612L77 618L80 646H375L373 617L290 606L240 40L321 29L318 0ZM531 0Q494 0 475 12Q456 24 440 51L277 324L278 337L550 606L462 618L464 646H683L681 618L662 612Q637 605 622 598.5Q607 592 591 576L385 373L574 66Q584 49 595.5 42Q607 35 632 29L629 0ZM259 -258 255 -242Q282 -220 295 -202.5Q308 -185 315 -163L297 -110Q295 -103 294 -100Q293 -97 293 -95Q293 -84 308.5 -74.5Q324 -65 344 -65Q372 -65 386.5 -82Q401 -99 401 -125Q401 -167 367.5 -200Q334 -233 259 -258Z" glyph-name="Kcommaaccent" horiz-adv-x="622" unicode="&#310;" /><glyph d="M448 -8Q443 -8 424.5 -6.5Q406 -5 382.5 -4Q359 -3 334 -1.5Q309 0 291 0H24L26 28L63 34Q100 41 112 54.5Q124 68 128 108L164 517Q165 534 166 544.5Q167 555 167 560Q167 585 155 595.5Q143 606 114 612L77 618L80 646H409L407 616L292 604L243 49Q253 47 268.5 45.5Q284 44 297 44Q365 44 407 74Q449 104 483 182L500 220L523 215L482 20Q479 5 470.5 -1.5Q462 -8 448 -8Z" glyph-name="L" horiz-adv-x="530" unicode="L" /><glyph d="M202 691 197 707 325 838Q338 851 342.5 853Q347 855 352 855Q365 855 381 840Q397 825 397 797Q397 769 381 754Q365 739 341 732ZM448 -8Q443 -8 424.5 -6.5Q406 -5 382.5 -4Q359 -3 334 -1.5Q309 0 291 0H24L26 28L63 34Q100 41 112 54.5Q124 68 128 108L164 517Q165 534 166 544.5Q167 555 167 560Q167 585 155 595.5Q143 606 114 612L77 618L80 646H409L407 616L292 604L243 49Q253 47 268.5 45.5Q284 44 297 44Q365 44 407 74Q449 104 483 182L500 220L523 215L482 20Q479 5 470.5 -1.5Q462 -8 448 -8Z" glyph-name="Lacute" horiz-adv-x="529" unicode="&#313;" /><glyph d="M439 437 421 445 456 615Q461 640 466.5 647Q472 654 487 654Q515 654 533 640Q551 626 551 601Q551 587 544.5 573.5Q538 560 525 544ZM448 -8Q443 -8 424.5 -6.5Q406 -5 382.5 -4Q359 -3 334 -1.5Q309 0 291 0H24L26 28L63 34Q100 41 112 54.5Q124 68 128 108L164 517Q165 534 166 544.5Q167 555 167 560Q167 585 155 595.5Q143 606 114 612L77 618L80 646H409L407 616L292 604L243 49Q253 47 268.5 45.5Q284 44 297 44Q365 44 407 74Q449 104 483 182L500 220L523 215L482 20Q479 5 470.5 -1.5Q462 -8 448 -8Z" glyph-name="Lcaron" horiz-adv-x="529" unicode="&#317;" /><glyph d="M448 -8Q443 -8 424.5 -6.5Q406 -5 382.5 -4Q359 -3 334 -1.5Q309 0 291 0H24L26 28L63 34Q100 41 112 54.5Q124 68 128 108L164 517Q165 534 166 544.5Q167 555 167 560Q167 585 155 595.5Q143 606 114 612L77 618L80 646H409L407 616L292 604L243 49Q253 47 268.5 45.5Q284 44 297 44Q365 44 407 74Q449 104 483 182L500 220L523 215L482 20Q479 5 470.5 -1.5Q462 -8 448 -8ZM195 -258 191 -242Q218 -220 231 -202.5Q244 -185 251 -163L233 -110Q231 -103 230 -100Q229 -97 229 -95Q229 -84 244.5 -74.5Q260 -65 280 -65Q308 -65 322.5 -82Q337 -99 337 -125Q337 -167 303.5 -200Q270 -233 195 -258Z" glyph-name="Lcommaaccent" horiz-adv-x="529" unicode="&#315;" /><glyph d="M959 -8Q954 -8 935.5 -6.5Q917 -5 893.5 -4Q870 -3 845 -1.5Q820 0 802 0H535L537 28L574 34Q611 41 623 54.5Q635 68 639 108L675 517Q676 534 677 544.5Q678 555 678 560Q678 585 666 595.5Q654 606 625 612L588 618L591 646H920L918 616L803 604L754 49Q764 47 779.5 45.5Q795 44 808 44Q876 44 918 74Q960 104 994 182L1011 220L1034 215L993 20Q990 5 981.5 -1.5Q973 -8 959 -8ZM448 -8Q443 -8 424.5 -6.5Q406 -5 382.5 -4Q359 -3 334 -1.5Q309 0 291 0H24L26 28L63 34Q100 41 112 54.5Q124 68 128 108L164 517Q165 534 166 544.5Q167 555 167 560Q167 585 155 595.5Q143 606 114 612L77 618L80 646H409L407 616L292 604L243 49Q253 47 268.5 45.5Q284 44 297 44Q365 44 407 74Q449 104 483 182L500 220L523 215L482 20Q479 5 470.5 -1.5Q462 -8 448 -8ZM456 308Q430 308 413.5 325Q397 342 397 369Q397 402 416.5 424.5Q436 447 467 447Q494 447 510.5 430Q527 413 527 386Q527 353 507.5 330.5Q488 308 456 308Z" glyph-name="Ldot" horiz-adv-x="1040" unicode="&#319;" /><glyph d="M448 -8Q443 -8 424.5 -6.5Q406 -5 382.5 -4Q359 -3 334 -1.5Q309 0 291 0H24L26 28L63 34Q100 41 112 54.5Q124 68 128 108L141 263L71 221L73 269L146 312L164 517Q165 534 166 544.5Q167 555 167 560Q167 585 155 595.5Q143 606 114 612L77 618L80 646H409L407 616L292 604L273 385L385 451L383 403L268 336L243 49Q253 47 268.5 45.5Q284 44 297 44Q365 44 407 74Q449 104 483 182L500 220L523 215L482 20Q479 5 470.5 -1.5Q462 -8 448 -8Z" glyph-name="Lslash" horiz-adv-x="529" unicode="&#321;" /><glyph d="M22 0 24 27 62 35Q89 41 100 51.5Q111 62 115 90L173 498Q177 528 179 545Q181 562 181 567Q181 586 171.5 595.5Q162 605 138 609L93 618L95 646H286Q308 646 319 638.5Q330 631 334 612L425 252L596 646H828L826 618L784 610Q750 603 738.5 589Q727 575 725 537L706 123Q705 103 704.5 95Q704 87 704 83Q704 61 714 50.5Q724 40 746 36L784 29L782 0H483L485 29L583 42L606 544L406 83H376Q361 83 354 87.5Q347 92 343 111L228 540L162 41L256 28L253 0Z" glyph-name="M" horiz-adv-x="809" unicode="M" /><glyph d="M26 0 28 28 60 34Q91 40 104 53Q117 66 121 102L159 479Q162 501 164 523Q166 545 166 551Q166 578 155 590Q144 602 118 608L81 617L84 646H242Q266 646 277 640Q288 634 295 619L522 179L559 604L458 618L461 646H701L698 618L664 612Q633 605 622 592.5Q611 580 607 544L551 -2H520Q502 -2 491 3.5Q480 9 472 25L210 520L168 42L269 28L266 0Z" glyph-name="N" horiz-adv-x="657" unicode="N" /><glyph d="M370 691 365 707 493 838Q506 851 510.5 853Q515 855 520 855Q533 855 549 840Q565 825 565 797Q565 769 549 754Q533 739 509 732ZM26 0 28 28 60 34Q91 40 104 53Q117 66 121 102L159 479Q162 501 164 523Q166 545 166 551Q166 578 155 590Q144 602 118 608L81 617L84 646H242Q266 646 277 640Q288 634 295 619L522 179L559 604L458 618L461 646H701L698 618L664 612Q633 605 622 592.5Q611 580 607 544L551 -2H520Q502 -2 491 3.5Q480 9 472 25L210 520L168 42L269 28L266 0Z" glyph-name="Nacute" horiz-adv-x="657" unicode="&#323;" /><glyph d="M390 697Q373 697 365 704Q357 711 349 730L295 844L313 848L409 775L516 849L534 844L462 730Q450 711 440 704Q430 697 414 697ZM26 0 28 28 60 34Q91 40 104 53Q117 66 121 102L159 479Q162 501 164 523Q166 545 166 551Q166 578 155 590Q144 602 118 608L81 617L84 646H242Q266 646 277 640Q288 634 295 619L522 179L559 604L458 618L461 646H701L698 618L664 612Q633 605 622 592.5Q611 580 607 544L551 -2H520Q502 -2 491 3.5Q480 9 472 25L210 520L168 42L269 28L266 0Z" glyph-name="Ncaron" horiz-adv-x="657" unicode="&#327;" /><glyph d="M26 0 28 28 60 34Q91 40 104 53Q117 66 121 102L159 479Q162 501 164 523Q166 545 166 551Q166 578 155 590Q144 602 118 608L81 617L84 646H242Q266 646 277 640Q288 634 295 619L522 179L559 604L458 618L461 646H701L698 618L664 612Q633 605 622 592.5Q611 580 607 544L551 -2H520Q502 -2 491 3.5Q480 9 472 25L210 520L168 42L269 28L266 0ZM236 -258 232 -242Q259 -220 272 -202.5Q285 -185 292 -163L274 -110Q272 -103 271 -100Q270 -97 270 -95Q270 -84 285.5 -74.5Q301 -65 321 -65Q349 -65 363.5 -82Q378 -99 378 -125Q378 -167 344.5 -200Q311 -233 236 -258Z" glyph-name="Ncommaaccent" horiz-adv-x="657" unicode="&#325;" /><glyph d="M441 711Q409 711 393 726Q377 741 351 741Q339 741 329 734Q319 727 312 705H291Q298 765 319 793Q340 821 372 821Q400 821 418 806.5Q436 792 463 792Q479 792 489 802.5Q499 813 505 837L526 836Q520 773 499 742Q478 711 441 711ZM26 0 28 28 60 34Q91 40 104 53Q117 66 121 102L159 479Q162 501 164 523Q166 545 166 551Q166 578 155 590Q144 602 118 608L81 617L84 646H242Q266 646 277 640Q288 634 295 619L522 179L559 604L458 618L461 646H701L698 618L664 612Q633 605 622 592.5Q611 580 607 544L551 -2H520Q502 -2 491 3.5Q480 9 472 25L210 520L168 42L269 28L266 0Z" glyph-name="Ntilde" horiz-adv-x="657" unicode="&#209;" /><glyph d="M322 -14Q211 -14 141.5 63.5Q72 141 72 278Q72 359 95 429Q118 499 158.5 550Q199 601 255.5 630.5Q312 660 378 660Q489 660 558.5 582.5Q628 505 628 368Q628 287 605 217Q582 147 541.5 96Q501 45 444.5 15.5Q388 -14 322 -14ZM338 30Q403 30 447.5 121.5Q492 213 492 373Q492 486 457 551Q422 616 362 616Q297 616 252.5 524.5Q208 433 208 273Q208 161 243 95.5Q278 30 338 30Z" glyph-name="O" horiz-adv-x="643" unicode="O" /><glyph d="M777 -7Q771 -7 753 -6Q735 -5 712 -3.5Q689 -2 665 -1Q641 0 623 0H326Q212 0 142 72Q72 144 72 278Q72 359 96.5 426.5Q121 494 163 543Q205 592 263.5 619Q322 646 389 646H843Q856 646 862.5 640Q869 634 869 622Q869 618 868 610.5Q867 603 866 593L855 460H830L826 491Q817 557 788.5 579.5Q760 602 695 602H584L563 362H722L746 452H772L753 229H727L719 319H559L536 51Q555 47 581.5 44.5Q608 42 634 42Q706 42 743 70.5Q780 99 811 170L823 199L847 194L811 21Q808 5 800 -1Q792 -7 777 -7ZM343 44Q365 44 384 49Q403 54 418 69L461 558Q449 581 430 591.5Q411 602 383 602Q348 602 316 580.5Q284 559 260 517Q236 475 222 413.5Q208 352 208 273Q208 157 245.5 100.5Q283 44 343 44Z" glyph-name="OE" horiz-adv-x="862" unicode="&#338;" /><glyph d="M350 691 345 707 473 838Q486 851 490.5 853Q495 855 500 855Q513 855 529 840Q545 825 545 797Q545 769 529 754Q513 739 489 732ZM322 -14Q211 -14 141.5 63.5Q72 141 72 278Q72 359 95 429Q118 499 158.5 550Q199 601 255.5 630.5Q312 660 378 660Q489 660 558.5 582.5Q628 505 628 368Q628 287 605 217Q582 147 541.5 96Q501 45 444.5 15.5Q388 -14 322 -14ZM338 30Q403 30 447.5 121.5Q492 213 492 373Q492 486 457 551Q422 616 362 616Q297 616 252.5 524.5Q208 433 208 273Q208 161 243 95.5Q278 30 338 30Z" glyph-name="Oacute" horiz-adv-x="643" unicode="&#211;" /><glyph d="M382 694Q338 694 313 724.5Q288 755 288 812Q288 820 288 826.5Q288 833 289 840H309Q315 807 335 791.5Q355 776 389 776Q423 776 446.5 791.5Q470 807 482 840H502Q494 766 463.5 730Q433 694 382 694ZM322 -14Q211 -14 141.5 63.5Q72 141 72 278Q72 359 95 429Q118 499 158.5 550Q199 601 255.5 630.5Q312 660 378 660Q489 660 558.5 582.5Q628 505 628 368Q628 287 605 217Q582 147 541.5 96Q501 45 444.5 15.5Q388 -14 322 -14ZM338 30Q403 30 447.5 121.5Q492 213 492 373Q492 486 457 551Q422 616 362 616Q297 616 252.5 524.5Q208 433 208 273Q208 161 243 95.5Q278 30 338 30Z" glyph-name="Obreve" horiz-adv-x="643" unicode="&#334;" /><glyph d="M282 694 265 699 337 811Q348 830 357.5 837Q367 844 384 844H408Q425 844 433.5 837Q442 830 450 811L502 699L484 694L389 767ZM322 -14Q211 -14 141.5 63.5Q72 141 72 278Q72 359 95 429Q118 499 158.5 550Q199 601 255.5 630.5Q312 660 378 660Q489 660 558.5 582.5Q628 505 628 368Q628 287 605 217Q582 147 541.5 96Q501 45 444.5 15.5Q388 -14 322 -14ZM338 30Q403 30 447.5 121.5Q492 213 492 373Q492 486 457 551Q422 616 362 616Q297 616 252.5 524.5Q208 433 208 273Q208 161 243 95.5Q278 30 338 30Z" glyph-name="Ocircumflex" horiz-adv-x="643" unicode="&#212;" /><glyph d="M297 707Q270 707 255 723.5Q240 740 240 765Q240 796 258.5 817Q277 838 310 838Q337 838 351.5 821.5Q366 805 366 780Q366 749 347.5 728Q329 707 297 707ZM469 707Q442 707 427 723.5Q412 740 412 765Q412 796 431 817Q450 838 482 838Q509 838 524 821.5Q539 805 539 780Q539 749 520 728Q501 707 469 707ZM322 -14Q211 -14 141.5 63.5Q72 141 72 278Q72 359 95 429Q118 499 158.5 550Q199 601 255.5 630.5Q312 660 378 660Q489 660 558.5 582.5Q628 505 628 368Q628 287 605 217Q582 147 541.5 96Q501 45 444.5 15.5Q388 -14 322 -14ZM338 30Q403 30 447.5 121.5Q492 213 492 373Q492 486 457 551Q422 616 362 616Q297 616 252.5 524.5Q208 433 208 273Q208 161 243 95.5Q278 30 338 30Z" glyph-name="Odieresis" horiz-adv-x="643" unicode="&#214;" /><glyph d="M415 691 278 733Q257 739 246 754Q235 769 235 792Q235 817 252 836Q269 855 290 855Q294 855 298.5 852Q303 849 313 837L423 708ZM322 -14Q211 -14 141.5 63.5Q72 141 72 278Q72 359 95 429Q118 499 158.5 550Q199 601 255.5 630.5Q312 660 378 660Q489 660 558.5 582.5Q628 505 628 368Q628 287 605 217Q582 147 541.5 96Q501 45 444.5 15.5Q388 -14 322 -14ZM338 30Q403 30 447.5 121.5Q492 213 492 373Q492 486 457 551Q422 616 362 616Q297 616 252.5 524.5Q208 433 208 273Q208 161 243 95.5Q278 30 338 30Z" glyph-name="Ograve" horiz-adv-x="643" unicode="&#210;" /><glyph d="M304 687 290 699 363 851Q373 873 379 879Q385 885 393 885Q415 885 434 870.5Q453 856 453 831Q453 817 444.5 803.5Q436 790 421 778ZM415 691 409 707 526 827Q537 840 541.5 842.5Q546 845 552 845Q569 845 584.5 830Q600 815 600 791Q600 771 587 755Q574 739 549 732ZM322 -14Q211 -14 141.5 63.5Q72 141 72 278Q72 359 95 429Q118 499 158.5 550Q199 601 255.5 630.5Q312 660 378 660Q489 660 558.5 582.5Q628 505 628 368Q628 287 605 217Q582 147 541.5 96Q501 45 444.5 15.5Q388 -14 322 -14ZM338 30Q403 30 447.5 121.5Q492 213 492 373Q492 486 457 551Q422 616 362 616Q297 616 252.5 524.5Q208 433 208 273Q208 161 243 95.5Q278 30 338 30Z" glyph-name="Ohungarumlaut" horiz-adv-x="643" unicode="&#336;" /><glyph d="M269 737 274 788H507L503 737ZM322 -14Q211 -14 141.5 63.5Q72 141 72 278Q72 359 95 429Q118 499 158.5 550Q199 601 255.5 630.5Q312 660 378 660Q489 660 558.5 582.5Q628 505 628 368Q628 287 605 217Q582 147 541.5 96Q501 45 444.5 15.5Q388 -14 322 -14ZM338 30Q403 30 447.5 121.5Q492 213 492 373Q492 486 457 551Q422 616 362 616Q297 616 252.5 524.5Q208 433 208 273Q208 161 243 95.5Q278 30 338 30Z" glyph-name="Omacron" horiz-adv-x="643" unicode="&#332;" /><glyph d="M73 -8Q60 -8 54 -1.5Q48 5 48 21L43 199L64 204L73 169Q89 96 119 66.5Q149 37 209 37L317 36Q274 49 239 77Q204 105 180 143.5Q156 182 143.5 229.5Q131 277 133 330Q135 400 159.5 460.5Q184 521 225 565Q266 609 321 634Q376 659 439 659Q498 659 546 638.5Q594 618 627 580.5Q660 543 677 490.5Q694 438 692 374Q690 317 671 262.5Q652 208 620 163Q588 118 544.5 84.5Q501 51 450 36L556 37Q616 37 651 66.5Q686 96 716 169L730 204L751 199L715 21Q711 5 704.5 -1.5Q698 -8 685 -8Q682 -8 666.5 -7Q651 -6 631 -4.5Q611 -3 589 -1.5Q567 0 551 0H407L408 32Q439 44 467.5 76Q496 108 518 154.5Q540 201 553.5 259Q567 317 569 380Q573 490 537 552Q501 614 433 614Q355 614 307.5 536.5Q260 459 256 322Q252 215 281.5 137Q311 59 360 34L355 0H208Q192 0 170 -1.5Q148 -3 127.5 -4.5Q107 -6 91.5 -7Q76 -8 73 -8Z" glyph-name="Omega" horiz-adv-x="759" unicode="&#8486;" /><glyph d="M32 -21 122 88Q98 124 85 172.5Q72 221 72 278Q72 359 95 429Q118 499 158.5 550Q199 601 255.5 630.5Q312 660 378 660Q428 660 470.5 644Q513 628 545 598L602 667H660L574 563Q600 527 614 477.5Q628 428 628 368Q628 287 605 217Q582 147 541.5 96Q501 45 444.5 15.5Q388 -14 322 -14Q271 -14 227 3Q183 20 151 53L90 -21ZM208 273Q208 253 209.5 233.5Q211 214 213 197L473 512Q457 561 428.5 588.5Q400 616 362 616Q297 616 252.5 524.5Q208 433 208 273ZM338 30Q403 30 447.5 121.5Q492 213 492 373Q492 396 490.5 417Q489 438 486 457L224 141Q240 88 269 59Q298 30 338 30Z" glyph-name="Oslash" horiz-adv-x="643" unicode="&#216;" /><glyph d="M350 691 345 707 473 838Q486 851 490.5 853Q495 855 500 855Q513 855 529 840Q545 825 545 797Q545 769 529 754Q513 739 489 732ZM32 -21 122 88Q98 124 85 172.5Q72 221 72 278Q72 359 95 429Q118 499 158.5 550Q199 601 255.5 630.5Q312 660 378 660Q428 660 470.5 644Q513 628 545 598L602 667H660L574 563Q600 527 614 477.5Q628 428 628 368Q628 287 605 217Q582 147 541.5 96Q501 45 444.5 15.5Q388 -14 322 -14Q271 -14 227 3Q183 20 151 53L90 -21ZM208 273Q208 253 209.5 233.5Q211 214 213 197L473 512Q457 561 428.5 588.5Q400 616 362 616Q297 616 252.5 524.5Q208 433 208 273ZM338 30Q403 30 447.5 121.5Q492 213 492 373Q492 396 490.5 417Q489 438 486 457L224 141Q240 88 269 59Q298 30 338 30Z" glyph-name="Oslashacute" horiz-adv-x="643" unicode="&#510;" /><glyph d="M421 711Q389 711 373 726Q357 741 331 741Q319 741 309 734Q299 727 292 705H271Q278 765 299 793Q320 821 352 821Q380 821 398 806.5Q416 792 443 792Q459 792 469 802.5Q479 813 485 837L506 836Q500 773 479 742Q458 711 421 711ZM322 -14Q211 -14 141.5 63.5Q72 141 72 278Q72 359 95 429Q118 499 158.5 550Q199 601 255.5 630.5Q312 660 378 660Q489 660 558.5 582.5Q628 505 628 368Q628 287 605 217Q582 147 541.5 96Q501 45 444.5 15.5Q388 -14 322 -14ZM338 30Q403 30 447.5 121.5Q492 213 492 373Q492 486 457 551Q422 616 362 616Q297 616 252.5 524.5Q208 433 208 273Q208 161 243 95.5Q278 30 338 30Z" glyph-name="Otilde" horiz-adv-x="643" unicode="&#213;" /><glyph d="M24 0 26 28 63 34Q100 41 112 54.5Q124 68 128 108L163 513Q165 534 166 544.5Q167 555 167 560Q167 585 155 595.5Q143 606 114 612L77 618L80 646H312Q433 646 502 594Q571 542 571 449Q571 354 508.5 305Q446 256 330 256Q312 256 293.5 259Q275 262 262 266L242 42L358 30L356 0ZM312 296Q375 296 408.5 335Q442 374 442 449Q442 524 407 562.5Q372 601 319 604Q312 604 304.5 604Q297 604 291 603L265 306Q274 302 285.5 299Q297 296 312 296Z" glyph-name="P" horiz-adv-x="557" unicode="P" /><glyph d="M527 -155Q473 -155 439.5 -142.5Q406 -130 375 -96L336 -54Q314 -30 290.5 -10.5Q267 9 241 9Q212 9 188 -8Q164 -25 135 -57L116 -36Q138 -10 157.5 8.5Q177 27 196 38Q139 70 107 132Q75 194 75 278Q75 360 98 430Q121 500 161.5 551Q202 602 257.5 631Q313 660 378 660Q436 660 482.5 639Q529 618 561.5 580Q594 542 611 488Q628 434 628 368Q628 301 611 241.5Q594 182 563.5 136Q533 90 490 57.5Q447 25 397 12Q404 6 411 -1Q418 -8 425 -15L477 -67Q510 -100 530.5 -110.5Q551 -121 585 -122L583 -147Q574 -150 556.5 -152.5Q539 -155 527 -155ZM289 64Q314 64 334 56Q354 48 371 35Q421 60 456.5 148.5Q492 237 492 373Q492 487 460 551.5Q428 616 369 616Q333 616 303.5 591Q274 566 253.5 521.5Q233 477 222 413Q211 349 211 273Q211 196 222 143Q233 90 255 61Q264 62 272.5 63Q281 64 289 64Z" glyph-name="Q" horiz-adv-x="645" unicode="Q" /><glyph d="M24 0 26 28 63 34Q100 41 112 54.5Q124 68 128 108L163 513Q165 534 166 544.5Q167 555 167 560Q167 585 155 596Q143 607 114 612L77 618L80 646H318Q430 646 496 600.5Q562 555 562 472Q562 398 508 356.5Q454 315 361 312Q396 305 423.5 287.5Q451 270 472 236Q497 194 508.5 154.5Q520 115 537 78Q545 59 557 46Q569 33 598 28L595 0H537Q490 0 462 12.5Q434 25 415 62Q407 78 400 98Q393 118 387 138Q381 158 375.5 177Q370 196 365 209Q349 255 330 275.5Q311 296 278 296H262L239 41L324 29L322 0ZM306 334Q363 334 398.5 367Q434 400 434 469Q434 529 401 565.5Q368 602 319 605Q309 605 301 604.5Q293 604 289 604L266 339Q273 338 284 336Q295 334 306 334Z" glyph-name="R" horiz-adv-x="582" unicode="R" /><glyph d="M311 691 306 707 434 838Q447 851 451.5 853Q456 855 461 855Q474 855 490 840Q506 825 506 797Q506 769 490 754Q474 739 450 732ZM24 0 26 28 63 34Q100 41 112 54.5Q124 68 128 108L163 513Q165 534 166 544.5Q167 555 167 560Q167 585 155 596Q143 607 114 612L77 618L80 646H318Q430 646 496 600.5Q562 555 562 472Q562 398 508 356.5Q454 315 361 312Q396 305 423.5 287.5Q451 270 472 236Q497 194 508.5 154.5Q520 115 537 78Q545 59 557 46Q569 33 598 28L595 0H537Q490 0 462 12.5Q434 25 415 62Q407 78 400 98Q393 118 387 138Q381 158 375.5 177Q370 196 365 209Q349 255 330 275.5Q311 296 278 296H262L239 41L324 29L322 0ZM306 334Q363 334 398.5 367Q434 400 434 469Q434 529 401 565.5Q368 602 319 605Q309 605 301 604.5Q293 604 289 604L266 339Q273 338 284 336Q295 334 306 334Z" glyph-name="Racute" horiz-adv-x="582" unicode="&#340;" /><glyph d="M331 697Q314 697 306 704Q298 711 290 730L236 844L254 848L350 775L457 849L475 844L403 730Q391 711 381 704Q371 697 355 697ZM24 0 26 28 63 34Q100 41 112 54.5Q124 68 128 108L163 513Q165 534 166 544.5Q167 555 167 560Q167 585 155 596Q143 607 114 612L77 618L80 646H318Q430 646 496 600.5Q562 555 562 472Q562 398 508 356.5Q454 315 361 312Q396 305 423.5 287.5Q451 270 472 236Q497 194 508.5 154.5Q520 115 537 78Q545 59 557 46Q569 33 598 28L595 0H537Q490 0 462 12.5Q434 25 415 62Q407 78 400 98Q393 118 387 138Q381 158 375.5 177Q370 196 365 209Q349 255 330 275.5Q311 296 278 296H262L239 41L324 29L322 0ZM306 334Q363 334 398.5 367Q434 400 434 469Q434 529 401 565.5Q368 602 319 605Q309 605 301 604.5Q293 604 289 604L266 339Q273 338 284 336Q295 334 306 334Z" glyph-name="Rcaron" horiz-adv-x="582" unicode="&#344;" /><glyph d="M24 0 26 28 63 34Q100 41 112 54.5Q124 68 128 108L163 513Q165 534 166 544.5Q167 555 167 560Q167 585 155 596Q143 607 114 612L77 618L80 646H318Q430 646 496 600.5Q562 555 562 472Q562 398 508 356.5Q454 315 361 312Q396 305 423.5 287.5Q451 270 472 236Q497 194 508.5 154.5Q520 115 537 78Q545 59 557 46Q569 33 598 28L595 0H537Q490 0 462 12.5Q434 25 415 62Q407 78 400 98Q393 118 387 138Q381 158 375.5 177Q370 196 365 209Q349 255 330 275.5Q311 296 278 296H262L239 41L324 29L322 0ZM306 334Q363 334 398.5 367Q434 400 434 469Q434 529 401 565.5Q368 602 319 605Q309 605 301 604.5Q293 604 289 604L266 339Q273 338 284 336Q295 334 306 334ZM241 -258 237 -242Q264 -220 277 -202.5Q290 -185 297 -163L279 -110Q277 -103 276 -100Q275 -97 275 -95Q275 -84 290.5 -74.5Q306 -65 326 -65Q354 -65 368.5 -82Q383 -99 383 -125Q383 -167 349.5 -200Q316 -233 241 -258Z" glyph-name="Rcommaaccent" horiz-adv-x="582" unicode="&#342;" /><glyph d="M230 -14Q188 -14 156.5 -9.5Q125 -5 100 5Q75 15 64 26.5Q53 38 52 58Q51 67 50.5 78Q50 89 51 97L52 204L78 208Q98 115 136.5 71.5Q175 28 239 28Q294 28 326.5 56.5Q359 85 359 138Q359 176 336 205Q313 234 262 259L232 273Q155 310 119 355.5Q83 401 83 466Q83 550 142 605Q201 660 292 660Q333 660 366 654Q399 648 430 635Q445 628 452 617.5Q459 607 459 589Q459 585 458 572.5Q457 560 456 550L446 461H421Q411 539 377 578.5Q343 618 283 618Q236 618 208 592Q180 566 180 517Q180 476 206 446Q232 416 290 388L324 372Q395 337 427.5 293Q460 249 460 189Q460 143 443 105Q426 67 395.5 41Q365 15 322.5 0.5Q280 -14 230 -14Z" glyph-name="S" horiz-adv-x="480" unicode="S" /><glyph d="M251 691 246 707 374 838Q387 851 391.5 853Q396 855 401 855Q414 855 430 840Q446 825 446 797Q446 769 430 754Q414 739 390 732ZM230 -14Q188 -14 156.5 -9.5Q125 -5 100 5Q75 15 64 26.5Q53 38 52 58Q51 67 50.5 78Q50 89 51 97L52 204L78 208Q98 115 136.5 71.5Q175 28 239 28Q294 28 326.5 56.5Q359 85 359 138Q359 176 336 205Q313 234 262 259L232 273Q155 310 119 355.5Q83 401 83 466Q83 550 142 605Q201 660 292 660Q333 660 366 654Q399 648 430 635Q445 628 452 617.5Q459 607 459 589Q459 585 458 572.5Q457 560 456 550L446 461H421Q411 539 377 578.5Q343 618 283 618Q236 618 208 592Q180 566 180 517Q180 476 206 446Q232 416 290 388L324 372Q395 337 427.5 293Q460 249 460 189Q460 143 443 105Q426 67 395.5 41Q365 15 322.5 0.5Q280 -14 230 -14Z" glyph-name="Sacute" horiz-adv-x="480" unicode="&#346;" /><glyph d="M271 697Q254 697 246 704Q238 711 230 730L176 844L194 848L290 775L397 849L415 844L343 730Q331 711 321 704Q311 697 295 697ZM230 -14Q188 -14 156.5 -9.5Q125 -5 100 5Q75 15 64 26.5Q53 38 52 58Q51 67 50.5 78Q50 89 51 97L52 204L78 208Q98 115 136.5 71.5Q175 28 239 28Q294 28 326.5 56.5Q359 85 359 138Q359 176 336 205Q313 234 262 259L232 273Q155 310 119 355.5Q83 401 83 466Q83 550 142 605Q201 660 292 660Q333 660 366 654Q399 648 430 635Q445 628 452 617.5Q459 607 459 589Q459 585 458 572.5Q457 560 456 550L446 461H421Q411 539 377 578.5Q343 618 283 618Q236 618 208 592Q180 566 180 517Q180 476 206 446Q232 416 290 388L324 372Q395 337 427.5 293Q460 249 460 189Q460 143 443 105Q426 67 395.5 41Q365 15 322.5 0.5Q280 -14 230 -14Z" glyph-name="Scaron" horiz-adv-x="480" unicode="&#352;" /><glyph d="M189 -248Q149 -248 124 -228Q99 -208 99 -179Q99 -166 108.5 -156.5Q118 -147 132 -147Q145 -147 149 -149.5Q153 -152 154 -161L161 -216Q166 -219 170 -220Q174 -221 179 -221Q200 -221 212.5 -208Q225 -195 225 -170Q225 -146 211.5 -130Q198 -114 170 -105L210 -14Q176 -13 149 -8.5Q122 -4 100 5Q75 15 64 26.5Q53 38 52 58Q51 67 50.5 78Q50 89 51 97L52 204L78 208Q98 115 136.5 71.5Q175 28 239 28Q294 28 326.5 56.5Q359 85 359 138Q359 176 336 205Q313 234 262 259L232 273Q155 310 119 355.5Q83 401 83 466Q83 550 142 605Q201 660 292 660Q333 660 366 654Q399 648 430 635Q445 628 452 617.5Q459 607 459 589Q459 585 458 572.5Q457 560 456 550L446 461H421Q411 539 377 578.5Q343 618 283 618Q236 618 208 592Q180 566 180 517Q180 476 206 446Q232 416 290 388L324 372Q395 337 427.5 293Q460 249 460 189Q460 102 403 48Q346 -6 256 -13L228 -58Q265 -67 284 -90Q303 -113 303 -147Q303 -191 271.5 -219.5Q240 -248 189 -248Z" glyph-name="Scedilla" horiz-adv-x="480" unicode="&#350;" /><glyph d="M183 694 166 699 238 811Q249 830 258.5 837Q268 844 285 844H309Q326 844 334.5 837Q343 830 351 811L403 699L385 694L290 767ZM230 -14Q188 -14 156.5 -9.5Q125 -5 100 5Q75 15 64 26.5Q53 38 52 58Q51 67 50.5 78Q50 89 51 97L52 204L78 208Q98 115 136.5 71.5Q175 28 239 28Q294 28 326.5 56.5Q359 85 359 138Q359 176 336 205Q313 234 262 259L232 273Q155 310 119 355.5Q83 401 83 466Q83 550 142 605Q201 660 292 660Q333 660 366 654Q399 648 430 635Q445 628 452 617.5Q459 607 459 589Q459 585 458 572.5Q457 560 456 550L446 461H421Q411 539 377 578.5Q343 618 283 618Q236 618 208 592Q180 566 180 517Q180 476 206 446Q232 416 290 388L324 372Q395 337 427.5 293Q460 249 460 189Q460 143 443 105Q426 67 395.5 41Q365 15 322.5 0.5Q280 -14 230 -14Z" glyph-name="Scircumflex" horiz-adv-x="480" unicode="&#348;" /><glyph d="M230 -14Q188 -14 156.5 -9.5Q125 -5 100 5Q75 15 64 26.5Q53 38 52 58Q51 67 50.5 78Q50 89 51 97L52 204L78 208Q98 115 136.5 71.5Q175 28 239 28Q294 28 326.5 56.5Q359 85 359 138Q359 176 336 205Q313 234 262 259L232 273Q155 310 119 355.5Q83 401 83 466Q83 550 142 605Q201 660 292 660Q333 660 366 654Q399 648 430 635Q445 628 452 617.5Q459 607 459 589Q459 585 458 572.5Q457 560 456 550L446 461H421Q411 539 377 578.5Q343 618 283 618Q236 618 208 592Q180 566 180 517Q180 476 206 446Q232 416 290 388L324 372Q395 337 427.5 293Q460 249 460 189Q460 143 443 105Q426 67 395.5 41Q365 15 322.5 0.5Q280 -14 230 -14ZM147 -258 143 -242Q170 -220 183 -202.5Q196 -185 203 -163L185 -110Q183 -103 182 -100Q181 -97 181 -95Q181 -84 196.5 -74.5Q212 -65 232 -65Q260 -65 274.5 -82Q289 -99 289 -125Q289 -167 255.5 -200Q222 -233 147 -258Z" glyph-name="Scommaaccent" horiz-adv-x="480" unicode="&#536;" /><glyph d="M121 0 123 28 167 36Q206 44 219 57Q232 70 235 112L278 602H257Q197 602 163 576.5Q129 551 110 486L99 450H74L89 618Q90 632 97.5 639Q105 646 119 646H571Q583 646 589.5 640.5Q596 635 596 623Q596 619 595 610Q594 601 593 588L581 450H555L551 486Q544 551 513 576.5Q482 602 422 602H398L358 140Q357 120 355.5 106.5Q354 93 354 88Q354 63 365.5 52.5Q377 42 411 37L465 28L462 0Z" glyph-name="T" horiz-adv-x="576" unicode="T" /><glyph d="M121 0 123 28 167 36Q206 44 219 57Q232 70 235 112L252 300H140L144 339H255L278 602H257Q197 602 163 576.5Q129 551 110 486L99 450H74L89 618Q90 632 97.5 639Q105 646 119 646H571Q583 646 589.5 640.5Q596 635 596 623Q596 619 595 610Q594 601 593 588L581 450H555L551 486Q544 551 513 576.5Q482 602 422 602H398L375 339H492L488 300H372L358 140Q357 120 355.5 106.5Q354 93 354 88Q354 63 365.5 52.5Q377 42 411 37L465 28L462 0Z" glyph-name="Tbar" horiz-adv-x="577" unicode="&#358;" /><glyph d="M332 697Q315 697 307 704Q299 711 291 730L237 844L255 848L351 775L458 849L476 844L404 730Q392 711 382 704Q372 697 356 697ZM121 0 123 28 167 36Q206 44 219 57Q232 70 235 112L278 602H257Q197 602 163 576.5Q129 551 110 486L99 450H74L89 618Q90 632 97.5 639Q105 646 119 646H571Q583 646 589.5 640.5Q596 635 596 623Q596 619 595 610Q594 601 593 588L581 450H555L551 486Q544 551 513 576.5Q482 602 422 602H398L358 140Q357 120 355.5 106.5Q354 93 354 88Q354 63 365.5 52.5Q377 42 411 37L465 28L462 0Z" glyph-name="Tcaron" horiz-adv-x="577" unicode="&#356;" /><glyph d="M228 -248Q188 -248 163 -228Q138 -208 138 -179Q138 -166 147.5 -156.5Q157 -147 171 -147Q184 -147 188 -149.5Q192 -152 193 -161L200 -216Q205 -219 209 -220Q213 -221 219 -221Q239 -221 252 -208Q265 -195 265 -170Q265 -146 251.5 -130Q238 -114 210 -105L256 0H121L123 28L167 36Q206 44 219 57Q232 70 235 112L278 602H257Q197 602 163 576.5Q129 551 110 486L99 450H74L89 618Q90 632 97.5 639Q105 646 119 646H571Q583 646 589.5 640.5Q596 635 596 623Q596 619 595 610Q594 601 593 588L581 450H555L551 486Q544 551 513 576.5Q482 602 422 602H398L358 140Q357 120 355.5 106.5Q354 93 354 88Q354 63 365.5 52.5Q377 42 411 37L465 28L462 0H303L267 -58Q304 -67 323.5 -90Q343 -113 343 -147Q343 -191 311 -219.5Q279 -248 228 -248Z" glyph-name="Tcedilla" horiz-adv-x="577" unicode="&#354;" /><glyph d="M121 0 123 28 167 36Q206 44 219 57Q232 70 235 112L278 602H257Q197 602 163 576.5Q129 551 110 486L99 450H74L89 618Q90 632 97.5 639Q105 646 119 646H571Q583 646 589.5 640.5Q596 635 596 623Q596 619 595 610Q594 601 593 588L581 450H555L551 486Q544 551 513 576.5Q482 602 422 602H398L358 140Q357 120 355.5 106.5Q354 93 354 88Q354 63 365.5 52.5Q377 42 411 37L465 28L462 0ZM181 -258 177 -242Q204 -220 217 -202.5Q230 -185 237 -163L219 -110Q217 -103 216 -100Q215 -97 215 -95Q215 -84 230.5 -74.5Q246 -65 266 -65Q294 -65 308.5 -82Q323 -99 323 -125Q323 -167 289.5 -200Q256 -233 181 -258Z" glyph-name="Tcommaaccent" horiz-adv-x="577" unicode="&#538;" /><glyph d="M24 0 26 28 63 34Q99 41 111.5 54.5Q124 68 128 108L163 517Q164 534 165 544.5Q166 555 166 560Q166 585 154 595.5Q142 606 113 612L77 618L80 646H388L386 618L349 612Q312 605 300 591.5Q288 578 285 538L283 516Q411 516 486 471Q561 426 561 330Q561 236 498 189Q435 142 310 142Q297 142 282 143.5Q267 145 251 148L249 129Q248 113 247 102Q246 91 246 86Q246 61 257.5 50Q269 39 298 34L335 28L332 0ZM287 182Q348 182 389 214.5Q430 247 430 329Q430 400 393 436Q356 472 302 475H279L254 187Q261 186 270.5 184Q280 182 287 182Z" glyph-name="Thorn" horiz-adv-x="556" unicode="&#222;" /><glyph d="M327 -13Q225 -13 169.5 46.5Q114 106 114 219Q114 235 115.5 258.5Q117 282 118 295L137 514Q138 529 139.5 542Q141 555 141 560Q141 585 129.5 595.5Q118 606 88 612L59 618L61 646H364L362 616L267 605L237 264Q236 248 234 221.5Q232 195 232 182Q232 108 263 70Q294 32 351 32Q418 32 454.5 81.5Q491 131 501 248L533 606L453 617L455 646H686L683 618L651 612Q614 605 602 591.5Q590 578 587 538L561 249Q550 112 492 49.5Q434 -13 327 -13Z" glyph-name="U" horiz-adv-x="634" unicode="U" /><glyph d="M379 691 374 707 502 838Q515 851 519.5 853Q524 855 529 855Q542 855 558 840Q574 825 574 797Q574 769 558 754Q542 739 518 732ZM327 -13Q225 -13 169.5 46.5Q114 106 114 219Q114 235 115.5 258.5Q117 282 118 295L137 514Q138 529 139.5 542Q141 555 141 560Q141 585 129.5 595.5Q118 606 88 612L59 618L61 646H364L362 616L267 605L237 264Q236 248 234 221.5Q232 195 232 182Q232 108 263 70Q294 32 351 32Q418 32 454.5 81.5Q491 131 501 248L533 606L453 617L455 646H686L683 618L651 612Q614 605 602 591.5Q590 578 587 538L561 249Q550 112 492 49.5Q434 -13 327 -13Z" glyph-name="Uacute" horiz-adv-x="634" unicode="&#218;" /><glyph d="M411 694Q367 694 342 724.5Q317 755 317 812Q317 820 317 826.5Q317 833 318 840H338Q344 807 364 791.5Q384 776 418 776Q452 776 475.5 791.5Q499 807 511 840H531Q523 766 492.5 730Q462 694 411 694ZM327 -13Q225 -13 169.5 46.5Q114 106 114 219Q114 235 115.5 258.5Q117 282 118 295L137 514Q138 529 139.5 542Q141 555 141 560Q141 585 129.5 595.5Q118 606 88 612L59 618L61 646H364L362 616L267 605L237 264Q236 248 234 221.5Q232 195 232 182Q232 108 263 70Q294 32 351 32Q418 32 454.5 81.5Q491 131 501 248L533 606L453 617L455 646H686L683 618L651 612Q614 605 602 591.5Q590 578 587 538L561 249Q550 112 492 49.5Q434 -13 327 -13Z" glyph-name="Ubreve" horiz-adv-x="634" unicode="&#364;" /><glyph d="M311 694 294 699 366 811Q377 830 386.5 837Q396 844 413 844H437Q454 844 462.5 837Q471 830 479 811L531 699L513 694L418 767ZM327 -13Q225 -13 169.5 46.5Q114 106 114 219Q114 235 115.5 258.5Q117 282 118 295L137 514Q138 529 139.5 542Q141 555 141 560Q141 585 129.5 595.5Q118 606 88 612L59 618L61 646H364L362 616L267 605L237 264Q236 248 234 221.5Q232 195 232 182Q232 108 263 70Q294 32 351 32Q418 32 454.5 81.5Q491 131 501 248L533 606L453 617L455 646H686L683 618L651 612Q614 605 602 591.5Q590 578 587 538L561 249Q550 112 492 49.5Q434 -13 327 -13Z" glyph-name="Ucircumflex" horiz-adv-x="634" unicode="&#219;" /><glyph d="M326 707Q299 707 284 723.5Q269 740 269 765Q269 796 287.5 817Q306 838 339 838Q366 838 380.5 821.5Q395 805 395 780Q395 749 376.5 728Q358 707 326 707ZM498 707Q471 707 456 723.5Q441 740 441 765Q441 796 460 817Q479 838 511 838Q538 838 553 821.5Q568 805 568 780Q568 749 549 728Q530 707 498 707ZM327 -13Q225 -13 169.5 46.5Q114 106 114 219Q114 235 115.5 258.5Q117 282 118 295L137 514Q138 529 139.5 542Q141 555 141 560Q141 585 129.5 595.5Q118 606 88 612L59 618L61 646H364L362 616L267 605L237 264Q236 248 234 221.5Q232 195 232 182Q232 108 263 70Q294 32 351 32Q418 32 454.5 81.5Q491 131 501 248L533 606L453 617L455 646H686L683 618L651 612Q614 605 602 591.5Q590 578 587 538L561 249Q550 112 492 49.5Q434 -13 327 -13Z" glyph-name="Udieresis" horiz-adv-x="634" unicode="&#220;" /><glyph d="M444 691 307 733Q286 739 275 754Q264 769 264 792Q264 817 281 836Q298 855 319 855Q323 855 327.5 852Q332 849 342 837L452 708ZM327 -13Q225 -13 169.5 46.5Q114 106 114 219Q114 235 115.5 258.5Q117 282 118 295L137 514Q138 529 139.5 542Q141 555 141 560Q141 585 129.5 595.5Q118 606 88 612L59 618L61 646H364L362 616L267 605L237 264Q236 248 234 221.5Q232 195 232 182Q232 108 263 70Q294 32 351 32Q418 32 454.5 81.5Q491 131 501 248L533 606L453 617L455 646H686L683 618L651 612Q614 605 602 591.5Q590 578 587 538L561 249Q550 112 492 49.5Q434 -13 327 -13Z" glyph-name="Ugrave" horiz-adv-x="634" unicode="&#217;" /><glyph d="M333 687 319 699 392 851Q402 873 408 879Q414 885 422 885Q444 885 463 870.5Q482 856 482 831Q482 817 473.5 803.5Q465 790 450 778ZM444 691 438 707 555 827Q566 840 570.5 842.5Q575 845 581 845Q598 845 613.5 830Q629 815 629 791Q629 771 616 755Q603 739 578 732ZM327 -13Q225 -13 169.5 46.5Q114 106 114 219Q114 235 115.5 258.5Q117 282 118 295L137 514Q138 529 139.5 542Q141 555 141 560Q141 585 129.5 595.5Q118 606 88 612L59 618L61 646H364L362 616L267 605L237 264Q236 248 234 221.5Q232 195 232 182Q232 108 263 70Q294 32 351 32Q418 32 454.5 81.5Q491 131 501 248L533 606L453 617L455 646H686L683 618L651 612Q614 605 602 591.5Q590 578 587 538L561 249Q550 112 492 49.5Q434 -13 327 -13Z" glyph-name="Uhungarumlaut" horiz-adv-x="634" unicode="&#368;" /><glyph d="M298 737 303 788H536L532 737ZM327 -13Q225 -13 169.5 46.5Q114 106 114 219Q114 235 115.5 258.5Q117 282 118 295L137 514Q138 529 139.5 542Q141 555 141 560Q141 585 129.5 595.5Q118 606 88 612L59 618L61 646H364L362 616L267 605L237 264Q236 248 234 221.5Q232 195 232 182Q232 108 263 70Q294 32 351 32Q418 32 454.5 81.5Q491 131 501 248L533 606L453 617L455 646H686L683 618L651 612Q614 605 602 591.5Q590 578 587 538L561 249Q550 112 492 49.5Q434 -13 327 -13Z" glyph-name="Umacron" horiz-adv-x="634" unicode="&#362;" /><glyph d="M331 -243Q291 -243 269 -219.5Q247 -196 247 -156Q247 -119 274 -81Q301 -43 352 -12Q346 -13 340 -13Q334 -13 327 -13Q225 -13 169.5 46.5Q114 106 114 219Q114 235 115.5 258.5Q117 282 118 295L137 514Q138 529 139.5 542Q141 555 141 560Q141 585 129.5 595.5Q118 606 88 612L59 618L61 646H364L362 616L267 605L237 264Q236 248 234 221.5Q232 195 232 182Q232 108 263 70Q294 32 351 32Q418 32 454.5 81.5Q491 131 501 248L533 606L453 617L455 646H686L683 618L651 612Q614 605 602 591.5Q590 578 587 538L561 249Q553 152 522.5 94Q492 36 440 5Q387 -27 364 -64Q341 -101 341 -138Q341 -162 353.5 -175Q366 -188 388 -188Q398 -188 409.5 -184Q421 -180 436 -171L431 -195Q412 -218 386 -230.5Q360 -243 331 -243Z" glyph-name="Uogonek" horiz-adv-x="634" unicode="&#370;" /><glyph d="M411 688Q373 688 348.5 711Q324 734 324 775Q324 822 352.5 854Q381 886 429 886Q466 886 490.5 863Q515 840 515 799Q515 752 486.5 720Q458 688 411 688ZM415 735Q437 735 449.5 751.5Q462 768 462 796Q462 816 452 827.5Q442 839 424 839Q403 839 390.5 823Q378 807 378 779Q378 758 387.5 746.5Q397 735 415 735ZM327 -13Q225 -13 169.5 46.5Q114 106 114 219Q114 235 115.5 258.5Q117 282 118 295L137 514Q138 529 139.5 542Q141 555 141 560Q141 585 129.5 595.5Q118 606 88 612L59 618L61 646H364L362 616L267 605L237 264Q236 248 234 221.5Q232 195 232 182Q232 108 263 70Q294 32 351 32Q418 32 454.5 81.5Q491 131 501 248L533 606L453 617L455 646H686L683 618L651 612Q614 605 602 591.5Q590 578 587 538L561 249Q550 112 492 49.5Q434 -13 327 -13Z" glyph-name="Uring" horiz-adv-x="634" unicode="&#366;" /><glyph d="M450 711Q418 711 402 726Q386 741 360 741Q348 741 338 734Q328 727 321 705H300Q307 765 328 793Q349 821 381 821Q409 821 427 806.5Q445 792 472 792Q488 792 498 802.5Q508 813 514 837L535 836Q529 773 508 742Q487 711 450 711ZM327 -13Q225 -13 169.5 46.5Q114 106 114 219Q114 235 115.5 258.5Q117 282 118 295L137 514Q138 529 139.5 542Q141 555 141 560Q141 585 129.5 595.5Q118 606 88 612L59 618L61 646H364L362 616L267 605L237 264Q236 248 234 221.5Q232 195 232 182Q232 108 263 70Q294 32 351 32Q418 32 454.5 81.5Q491 131 501 248L533 606L453 617L455 646H686L683 618L651 612Q614 605 602 591.5Q590 578 587 538L561 249Q550 112 492 49.5Q434 -13 327 -13Z" glyph-name="Utilde" horiz-adv-x="634" unicode="&#360;" /><glyph d="M278 -4Q256 -4 246.5 4.5Q237 13 232 31L99 571Q94 591 87 599.5Q80 608 63 612L47 617L50 646H317L315 615L219 604L327 151L511 605L427 617L430 646H626L623 617L597 611Q583 607 573 598Q563 589 555 568L319 -4Z" glyph-name="V" horiz-adv-x="565" unicode="V" /><glyph d="M254 -5Q235 -5 225 3Q215 11 211 30L113 572Q109 591 101 599.5Q93 608 76 612L59 616L62 646H319L316 615L234 606L312 144L449 545L436 606L386 615L388 646H648L645 615L564 606L639 154L802 606L727 617L729 646H911L908 618L891 613Q872 607 862.5 597Q853 587 846 566L635 -5H582Q563 -5 553.5 3Q544 11 540 30L469 448L317 -5Z" glyph-name="W" horiz-adv-x="865" unicode="W" /><glyph d="M482 691 477 707 605 838Q618 851 622.5 853Q627 855 632 855Q645 855 661 840Q677 825 677 797Q677 769 661 754Q645 739 621 732ZM254 -5Q235 -5 225 3Q215 11 211 30L113 572Q109 591 101 599.5Q93 608 76 612L59 616L62 646H319L316 615L234 606L312 144L449 545L436 606L386 615L388 646H648L645 615L564 606L639 154L802 606L727 617L729 646H911L908 618L891 613Q872 607 862.5 597Q853 587 846 566L635 -5H582Q563 -5 553.5 3Q544 11 540 30L469 448L317 -5Z" glyph-name="Wacute" horiz-adv-x="865" unicode="&#7810;" /><glyph d="M414 694 397 699 469 811Q480 830 489.5 837Q499 844 516 844H540Q557 844 565.5 837Q574 830 582 811L634 699L616 694L521 767ZM254 -5Q235 -5 225 3Q215 11 211 30L113 572Q109 591 101 599.5Q93 608 76 612L59 616L62 646H319L316 615L234 606L312 144L449 545L436 606L386 615L388 646H648L645 615L564 606L639 154L802 606L727 617L729 646H911L908 618L891 613Q872 607 862.5 597Q853 587 846 566L635 -5H582Q563 -5 553.5 3Q544 11 540 30L469 448L317 -5Z" glyph-name="Wcircumflex" horiz-adv-x="865" unicode="&#372;" /><glyph d="M429 707Q402 707 387 723.5Q372 740 372 765Q372 796 390.5 817Q409 838 442 838Q469 838 483.5 821.5Q498 805 498 780Q498 749 479.5 728Q461 707 429 707ZM601 707Q574 707 559 723.5Q544 740 544 765Q544 796 563 817Q582 838 614 838Q641 838 656 821.5Q671 805 671 780Q671 749 652 728Q633 707 601 707ZM254 -5Q235 -5 225 3Q215 11 211 30L113 572Q109 591 101 599.5Q93 608 76 612L59 616L62 646H319L316 615L234 606L312 144L449 545L436 606L386 615L388 646H648L645 615L564 606L639 154L802 606L727 617L729 646H911L908 618L891 613Q872 607 862.5 597Q853 587 846 566L635 -5H582Q563 -5 553.5 3Q544 11 540 30L469 448L317 -5Z" glyph-name="Wdieresis" horiz-adv-x="865" unicode="&#7812;" /><glyph d="M547 691 410 733Q389 739 378 754Q367 769 367 792Q367 817 384 836Q401 855 422 855Q426 855 430.5 852Q435 849 445 837L555 708ZM254 -5Q235 -5 225 3Q215 11 211 30L113 572Q109 591 101 599.5Q93 608 76 612L59 616L62 646H319L316 615L234 606L312 144L449 545L436 606L386 615L388 646H648L645 615L564 606L639 154L802 606L727 617L729 646H911L908 618L891 613Q872 607 862.5 597Q853 587 846 566L635 -5H582Q563 -5 553.5 3Q544 11 540 30L469 448L317 -5Z" glyph-name="Wgrave" horiz-adv-x="865" unicode="&#7808;" /><glyph d="M-7 0 -5 27 11 30Q38 36 52 46.5Q66 57 79 76L250 313L124 575Q117 591 105 599Q93 607 76 612L58 616L61 646H328L325 615L243 604L336 406L481 606L408 617L411 646H612L610 619L586 614Q564 608 548 595Q532 582 515 559L361 358L498 82Q508 62 521.5 49Q535 36 557 32L578 27L576 0H299L302 29L382 41L275 263L123 40L198 29L196 0Z" glyph-name="X" horiz-adv-x="571" unicode="X" /><glyph d="M371 708Q343 708 327 725.5Q311 743 311 769Q311 801 330.5 823.5Q350 846 384 846Q412 846 427.5 828.5Q443 811 443 784Q443 752 423.5 730Q404 708 371 708ZM-7 0 -5 27 11 30Q38 36 52 46.5Q66 57 79 76L250 313L124 575Q117 591 105 599Q93 607 76 612L58 616L61 646H328L325 615L243 604L336 406L481 606L408 617L411 646H612L610 619L586 614Q564 608 548 595Q532 582 515 559L361 358L498 82Q508 62 521.5 49Q535 36 557 32L578 27L576 0H299L302 29L382 41L275 263L123 40L198 29L196 0Z" glyph-name="Xdot" horiz-adv-x="571" unicode="&#7818;" /><glyph d="M105 0 107 28 158 37Q195 44 207 57Q219 70 223 109L236 264L92 579Q88 589 79 599Q70 609 57 613L43 617L46 646H305L302 615L216 606L334 338L495 606L418 617L420 646H611L609 618L584 611Q567 606 556.5 598Q546 590 535 571L358 282L346 136Q345 120 343.5 106.5Q342 93 342 89Q342 63 353 52.5Q364 42 395 37L446 28L444 0Z" glyph-name="Y" horiz-adv-x="543" unicode="Y" /><glyph d="M330 691 325 707 453 838Q466 851 470.5 853Q475 855 480 855Q493 855 509 840Q525 825 525 797Q525 769 509 754Q493 739 469 732ZM105 0 107 28 158 37Q195 44 207 57Q219 70 223 109L236 264L92 579Q88 589 79 599Q70 609 57 613L43 617L46 646H305L302 615L216 606L334 338L495 606L418 617L420 646H611L609 618L584 611Q567 606 556.5 598Q546 590 535 571L358 282L346 136Q345 120 343.5 106.5Q342 93 342 89Q342 63 353 52.5Q364 42 395 37L446 28L444 0Z" glyph-name="Yacute" horiz-adv-x="543" unicode="&#221;" /><glyph d="M262 694 245 699 317 811Q328 830 337.5 837Q347 844 364 844H388Q405 844 413.5 837Q422 830 430 811L482 699L464 694L369 767ZM105 0 107 28 158 37Q195 44 207 57Q219 70 223 109L236 264L92 579Q88 589 79 599Q70 609 57 613L43 617L46 646H305L302 615L216 606L334 338L495 606L418 617L420 646H611L609 618L584 611Q567 606 556.5 598Q546 590 535 571L358 282L346 136Q345 120 343.5 106.5Q342 93 342 89Q342 63 353 52.5Q364 42 395 37L446 28L444 0Z" glyph-name="Ycircumflex" horiz-adv-x="543" unicode="&#374;" /><glyph d="M277 707Q250 707 235 723.5Q220 740 220 765Q220 796 238.5 817Q257 838 290 838Q317 838 331.5 821.5Q346 805 346 780Q346 749 327.5 728Q309 707 277 707ZM449 707Q422 707 407 723.5Q392 740 392 765Q392 796 411 817Q430 838 462 838Q489 838 504 821.5Q519 805 519 780Q519 749 500 728Q481 707 449 707ZM105 0 107 28 158 37Q195 44 207 57Q219 70 223 109L236 264L92 579Q88 589 79 599Q70 609 57 613L43 617L46 646H305L302 615L216 606L334 338L495 606L418 617L420 646H611L609 618L584 611Q567 606 556.5 598Q546 590 535 571L358 282L346 136Q345 120 343.5 106.5Q342 93 342 89Q342 63 353 52.5Q364 42 395 37L446 28L444 0Z" glyph-name="Ydieresis" horiz-adv-x="543" unicode="&#376;" /><glyph d="M395 691 258 733Q237 739 226 754Q215 769 215 792Q215 817 232 836Q249 855 270 855Q274 855 278.5 852Q283 849 293 837L403 708ZM105 0 107 28 158 37Q195 44 207 57Q219 70 223 109L236 264L92 579Q88 589 79 599Q70 609 57 613L43 617L46 646H305L302 615L216 606L334 338L495 606L418 617L420 646H611L609 618L584 611Q567 606 556.5 598Q546 590 535 571L358 282L346 136Q345 120 343.5 106.5Q342 93 342 89Q342 63 353 52.5Q364 42 395 37L446 28L444 0Z" glyph-name="Ygrave" horiz-adv-x="543" unicode="&#7922;" /><glyph d="M454 -8Q449 -8 432.5 -6.5Q416 -5 394 -4Q372 -3 346.5 -1.5Q321 0 298 0H36L35 28L392 602H259Q200 602 169.5 577Q139 552 120 488L109 450H85L99 617Q100 631 108 638.5Q116 646 129 646H540L541 615L185 47Q207 46 244 45Q281 44 303 44Q372 45 413.5 74.5Q455 104 489 182L506 220L530 215L488 20Q485 5 477 -1.5Q469 -8 454 -8Z" glyph-name="Z" horiz-adv-x="536" unicode="Z" /><glyph d="M288 691 283 707 411 838Q424 851 428.5 853Q433 855 438 855Q451 855 467 840Q483 825 483 797Q483 769 467 754Q451 739 427 732ZM454 -8Q449 -8 432.5 -6.5Q416 -5 394 -4Q372 -3 346.5 -1.5Q321 0 298 0H36L35 28L392 602H259Q200 602 169.5 577Q139 552 120 488L109 450H85L99 617Q100 631 108 638.5Q116 646 129 646H540L541 615L185 47Q207 46 244 45Q281 44 303 44Q372 45 413.5 74.5Q455 104 489 182L506 220L530 215L488 20Q485 5 477 -1.5Q469 -8 454 -8Z" glyph-name="Zacute" horiz-adv-x="536" unicode="&#377;" /><glyph d="M308 697Q291 697 283 704Q275 711 267 730L213 844L231 848L327 775L434 849L452 844L380 730Q368 711 358 704Q348 697 332 697ZM454 -8Q449 -8 432.5 -6.5Q416 -5 394 -4Q372 -3 346.5 -1.5Q321 0 298 0H36L35 28L392 602H259Q200 602 169.5 577Q139 552 120 488L109 450H85L99 617Q100 631 108 638.5Q116 646 129 646H540L541 615L185 47Q207 46 244 45Q281 44 303 44Q372 45 413.5 74.5Q455 104 489 182L506 220L530 215L488 20Q485 5 477 -1.5Q469 -8 454 -8Z" glyph-name="Zcaron" horiz-adv-x="536" unicode="&#381;" /><glyph d="M322 708Q294 708 278 725.5Q262 743 262 769Q262 801 281.5 823.5Q301 846 335 846Q363 846 378.5 828.5Q394 811 394 784Q394 752 374.5 730Q355 708 322 708ZM454 -8Q449 -8 432.5 -6.5Q416 -5 394 -4Q372 -3 346.5 -1.5Q321 0 298 0H36L35 28L392 602H259Q200 602 169.5 577Q139 552 120 488L109 450H85L99 617Q100 631 108 638.5Q116 646 129 646H540L541 615L185 47Q207 46 244 45Q281 44 303 44Q372 45 413.5 74.5Q455 104 489 182L506 220L530 215L488 20Q485 5 477 -1.5Q469 -8 454 -8Z" glyph-name="Zdotaccent" horiz-adv-x="536" unicode="&#379;" /><glyph d="M454 -8Q449 -8 432.5 -6.5Q416 -5 394 -4Q372 -3 346.5 -1.5Q321 0 298 0H36L35 28L212 312H119L123 351H236L392 602H259Q200 602 169.5 577Q139 552 120 488L109 450H85L99 617Q100 631 108 638.5Q116 646 129 646H540L541 615L375 351H467L463 312H351L185 47Q207 46 244 45Q281 44 303 44Q372 45 413.5 74.5Q455 104 489 182L506 220L530 215L488 20Q485 5 477 -1.5Q469 -8 454 -8Z" glyph-name="Zstroke" horiz-adv-x="536" unicode="&#437;" /><glyph d="M203 -14Q138 -14 102 43.5Q66 101 66 197Q66 260 83.5 315Q101 370 132.5 409.5Q164 449 208.5 472Q253 495 307 495Q363 495 407.5 485.5Q452 476 495 457Q487 423 481 387.5Q475 352 472 312L457 142Q455 115 453.5 96.5Q452 78 452 71Q452 50 465.5 41.5Q479 33 520 32L518 7Q496 0 472.5 -4Q449 -8 428 -8Q389 -8 369.5 12Q350 32 350 71Q350 75 351 90Q352 105 354 122Q320 53 283 19.5Q246 -14 203 -14ZM248 59Q267 59 285.5 80Q304 101 319.5 135.5Q335 170 346 215.5Q357 261 361 311L370 418Q355 434 337.5 445.5Q320 457 297 457Q248 457 216.5 391Q185 325 185 216Q185 140 202 99.5Q219 59 248 59Z" glyph-name="a" horiz-adv-x="532" unicode="a" /><glyph d="M-2 0 1 27 13 29Q32 33 42 39Q52 45 60 64L266 522H314Q329 522 336.5 516.5Q344 511 348 497L468 65Q473 47 482 40Q491 33 510 29L525 26L523 0H277L279 28L358 38L326 159H159L107 39L179 29L177 0ZM176 201H316L263 402Z" glyph-name="a.smcp" horiz-adv-x="521" /><glyph d="M271 547 260 562 367 705Q380 723 385 726.5Q390 730 396 730Q412 730 431.5 715.5Q451 701 451 669Q451 646 438.5 631.5Q426 617 404 607ZM203 -14Q138 -14 102 43.5Q66 101 66 197Q66 260 83.5 315Q101 370 132.5 409.5Q164 449 208.5 472Q253 495 307 495Q363 495 407.5 485.5Q452 476 495 457Q487 423 481 387.5Q475 352 472 312L457 142Q455 115 453.5 96.5Q452 78 452 71Q452 50 465.5 41.5Q479 33 520 32L518 7Q496 0 472.5 -4Q449 -8 428 -8Q389 -8 369.5 12Q350 32 350 71Q350 75 351 90Q352 105 354 122Q320 53 283 19.5Q246 -14 203 -14ZM248 59Q267 59 285.5 80Q304 101 319.5 135.5Q335 170 346 215.5Q357 261 361 311L370 418Q355 434 337.5 445.5Q320 457 297 457Q248 457 216.5 391Q185 325 185 216Q185 140 202 99.5Q219 59 248 59Z" glyph-name="aacute" horiz-adv-x="532" unicode="&#225;" /><glyph d="M271 563 266 579 394 710Q407 723 411.5 725Q416 727 421 727Q434 727 450 712Q466 697 466 669Q466 641 450 626Q434 611 410 604ZM-2 0 1 27 13 29Q32 33 42 39Q52 45 60 64L266 522H314Q329 522 336.5 516.5Q344 511 348 497L468 65Q473 47 482 40Q491 33 510 29L525 26L523 0H277L279 28L358 38L326 159H159L107 39L179 29L177 0ZM176 201H316L263 402Z" glyph-name="aacute.smcp" horiz-adv-x="521" /><glyph d="M309 551Q264 551 241.5 584Q219 617 219 686Q219 695 219 704.5Q219 714 220 724L241 728Q248 682 266.5 660Q285 638 317 638Q350 638 372.5 659.5Q395 681 411 728L430 724Q420 636 389.5 593.5Q359 551 309 551ZM203 -14Q138 -14 102 43.5Q66 101 66 197Q66 260 83.5 315Q101 370 132.5 409.5Q164 449 208.5 472Q253 495 307 495Q363 495 407.5 485.5Q452 476 495 457Q487 423 481 387.5Q475 352 472 312L457 142Q455 115 453.5 96.5Q452 78 452 71Q452 50 465.5 41.5Q479 33 520 32L518 7Q496 0 472.5 -4Q449 -8 428 -8Q389 -8 369.5 12Q350 32 350 71Q350 75 351 90Q352 105 354 122Q320 53 283 19.5Q246 -14 203 -14ZM248 59Q267 59 285.5 80Q304 101 319.5 135.5Q335 170 346 215.5Q357 261 361 311L370 418Q355 434 337.5 445.5Q320 457 297 457Q248 457 216.5 391Q185 325 185 216Q185 140 202 99.5Q219 59 248 59Z" glyph-name="abreve" horiz-adv-x="532" unicode="&#259;" /><glyph d="M303 566Q259 566 234 596.5Q209 627 209 684Q209 692 209 698.5Q209 705 210 712H230Q236 679 256 663.5Q276 648 310 648Q344 648 367.5 663.5Q391 679 403 712H423Q415 638 384.5 602Q354 566 303 566ZM-2 0 1 27 13 29Q32 33 42 39Q52 45 60 64L266 522H314Q329 522 336.5 516.5Q344 511 348 497L468 65Q473 47 482 40Q491 33 510 29L525 26L523 0H277L279 28L358 38L326 159H159L107 39L179 29L177 0ZM176 201H316L263 402Z" glyph-name="abreve.smcp" horiz-adv-x="521" /><glyph d="M216 538 196 543 263 692Q272 712 281.5 719Q291 726 308 726H340Q358 726 366 719Q374 712 379 692L421 543L401 538L317 640ZM203 -14Q138 -14 102 43.5Q66 101 66 197Q66 260 83.5 315Q101 370 132.5 409.5Q164 449 208.5 472Q253 495 307 495Q363 495 407.5 485.5Q452 476 495 457Q487 423 481 387.5Q475 352 472 312L457 142Q455 115 453.5 96.5Q452 78 452 71Q452 50 465.5 41.5Q479 33 520 32L518 7Q496 0 472.5 -4Q449 -8 428 -8Q389 -8 369.5 12Q350 32 350 71Q350 75 351 90Q352 105 354 122Q320 53 283 19.5Q246 -14 203 -14ZM248 59Q267 59 285.5 80Q304 101 319.5 135.5Q335 170 346 215.5Q357 261 361 311L370 418Q355 434 337.5 445.5Q320 457 297 457Q248 457 216.5 391Q185 325 185 216Q185 140 202 99.5Q219 59 248 59Z" glyph-name="acircumflex" horiz-adv-x="532" unicode="&#226;" /><glyph d="M203 566 186 571 258 683Q269 702 278.5 709Q288 716 305 716H329Q346 716 354.5 709Q363 702 371 683L423 571L405 566L310 639ZM-2 0 1 27 13 29Q32 33 42 39Q52 45 60 64L266 522H314Q329 522 336.5 516.5Q344 511 348 497L468 65Q473 47 482 40Q491 33 510 29L525 26L523 0H277L279 28L358 38L326 159H159L107 39L179 29L177 0ZM176 201H316L263 402Z" glyph-name="acircumflex.smcp" horiz-adv-x="521" /><glyph d="M230 547 219 562 326 705Q339 723 344 726.5Q349 730 355 730Q371 730 390.5 715.5Q410 701 410 669Q410 646 397.5 631.5Q385 617 363 607Z" glyph-name="acute" horiz-adv-x="440" unicode="&#180;" /><glyph d="M248 691 243 707 371 838Q384 851 388.5 853Q393 855 398 855Q411 855 427 840Q443 825 443 797Q443 769 427 754Q411 739 387 732Z" glyph-name="acute.case" horiz-adv-x="440" /><glyph d="M227 573Q202 573 186.5 589.5Q171 606 171 631Q171 662 190 683Q209 704 240 704Q265 704 280.5 688Q296 672 296 646Q296 615 277 594Q258 573 227 573ZM394 573Q369 573 353.5 589.5Q338 606 338 631Q338 662 357 683Q376 704 407 704Q432 704 447.5 688Q463 672 463 646Q463 615 444 594Q425 573 394 573ZM203 -14Q138 -14 102 43.5Q66 101 66 197Q66 260 83.5 315Q101 370 132.5 409.5Q164 449 208.5 472Q253 495 307 495Q363 495 407.5 485.5Q452 476 495 457Q487 423 481 387.5Q475 352 472 312L457 142Q455 115 453.5 96.5Q452 78 452 71Q452 50 465.5 41.5Q479 33 520 32L518 7Q496 0 472.5 -4Q449 -8 428 -8Q389 -8 369.5 12Q350 32 350 71Q350 75 351 90Q352 105 354 122Q320 53 283 19.5Q246 -14 203 -14ZM248 59Q267 59 285.5 80Q304 101 319.5 135.5Q335 170 346 215.5Q357 261 361 311L370 418Q355 434 337.5 445.5Q320 457 297 457Q248 457 216.5 391Q185 325 185 216Q185 140 202 99.5Q219 59 248 59Z" glyph-name="adieresis" horiz-adv-x="532" unicode="&#228;" /><glyph d="M218 579Q191 579 176 595.5Q161 612 161 637Q161 668 179.5 689Q198 710 231 710Q258 710 272.5 693.5Q287 677 287 652Q287 621 268.5 600Q250 579 218 579ZM390 579Q363 579 348 595.5Q333 612 333 637Q333 668 352 689Q371 710 403 710Q430 710 445 693.5Q460 677 460 652Q460 621 441 600Q422 579 390 579ZM-2 0 1 27 13 29Q32 33 42 39Q52 45 60 64L266 522H314Q329 522 336.5 516.5Q344 511 348 497L468 65Q473 47 482 40Q491 33 510 29L525 26L523 0H277L279 28L358 38L326 159H159L107 39L179 29L177 0ZM176 201H316L263 402Z" glyph-name="adieresis.smcp" horiz-adv-x="521" /><glyph d="M205 -14Q136 -14 100.5 43.5Q65 101 65 197Q65 262 83.5 317Q102 372 135 411.5Q168 451 214 473Q260 495 314 495Q360 495 392.5 488.5Q425 482 457 467Q481 481 508.5 489Q536 497 566 497Q624 497 662 469Q700 441 700 390Q700 342 665.5 312.5Q631 283 553 262L440 233Q440 143 474 100Q508 57 572 57Q603 57 628.5 67.5Q654 78 682 101L690 83Q654 36 613.5 10.5Q573 -15 522 -15Q456 -15 411.5 16Q367 47 346 102Q313 44 277.5 15Q242 -14 205 -14ZM443 285 508 292Q558 298 583 319Q608 340 608 386Q608 420 592.5 439.5Q577 459 551 459Q511 459 480.5 416Q450 373 443 285ZM246 59Q268 59 291 85Q314 111 331 157Q330 170 329 183.5Q328 197 328 210Q328 268 344 319Q360 370 388 408Q372 428 351.5 442.5Q331 457 302 457Q249 457 217 390Q185 323 185 216Q185 147 200 103Q215 59 246 59Z" glyph-name="ae" horiz-adv-x="701" unicode="&#230;" /><glyph d="M610 -6Q605 -6 588.5 -5Q572 -4 551.5 -3Q531 -2 509.5 -1Q488 0 472 0H205L207 28L286 38L297 159H161L88 39L153 28L151 0H-18L-15 27L-5 29Q14 33 24.5 40.5Q35 48 46 65L284 453Q287 457 288 460.5Q289 464 289 468Q289 475 282.5 479.5Q276 484 264 486L236 491L238 518H666Q677 518 683 512.5Q689 507 689 498Q689 495 688.5 488.5Q688 482 687 474L676 358H654L649 387Q641 440 616.5 459Q592 478 535 478H438L421 294H560L580 368H603L587 178H564L557 253H418L400 48Q416 44 438.5 41Q461 38 485 38Q548 38 582.5 63.5Q617 89 640 148L649 172L672 168L640 16Q637 4 630 -1Q623 -6 610 -6ZM186 201H302L322 425Z" glyph-name="ae.smcp" horiz-adv-x="695" /><glyph d="M418 547 407 562 514 705Q527 723 532 726.5Q537 730 543 730Q559 730 578.5 715.5Q598 701 598 669Q598 646 585.5 631.5Q573 617 551 607ZM205 -14Q136 -14 100.5 43.5Q65 101 65 197Q65 262 83.5 317Q102 372 135 411.5Q168 451 214 473Q260 495 314 495Q360 495 392.5 488.5Q425 482 457 467Q481 481 508.5 489Q536 497 566 497Q624 497 662 469Q700 441 700 390Q700 342 665.5 312.5Q631 283 553 262L440 233Q440 143 474 100Q508 57 572 57Q603 57 628.5 67.5Q654 78 682 101L690 83Q654 36 613.5 10.5Q573 -15 522 -15Q456 -15 411.5 16Q367 47 346 102Q313 44 277.5 15Q242 -14 205 -14ZM443 285 508 292Q558 298 583 319Q608 340 608 386Q608 420 592.5 439.5Q577 459 551 459Q511 459 480.5 416Q450 373 443 285ZM246 59Q268 59 291 85Q314 111 331 157Q330 170 329 183.5Q328 197 328 210Q328 268 344 319Q360 370 388 408Q372 428 351.5 442.5Q331 457 302 457Q249 457 217 390Q185 323 185 216Q185 147 200 103Q215 59 246 59Z" glyph-name="aeacute" horiz-adv-x="701" unicode="&#509;" /><glyph d="M378 568 373 584 501 715Q514 728 518.5 730Q523 732 528 732Q541 732 557 717Q573 702 573 674Q573 646 557 631Q541 616 517 609ZM610 -6Q605 -6 588.5 -5Q572 -4 551.5 -3Q531 -2 509.5 -1Q488 0 472 0H205L207 28L286 38L297 159H161L88 39L153 28L151 0H-18L-15 27L-5 29Q14 33 24.5 40.5Q35 48 46 65L284 453Q287 457 288 460.5Q289 464 289 468Q289 475 282.5 479.5Q276 484 264 486L236 491L238 518H666Q677 518 683 512.5Q689 507 689 498Q689 495 688.5 488.5Q688 482 687 474L676 358H654L649 387Q641 440 616.5 459Q592 478 535 478H438L421 294H560L580 368H603L587 178H564L557 253H418L400 48Q416 44 438.5 41Q461 38 485 38Q548 38 582.5 63.5Q617 89 640 148L649 172L672 168L640 16Q637 4 630 -1Q623 -6 610 -6ZM186 201H302L322 425Z" glyph-name="aeacute.smcp" horiz-adv-x="695" /><glyph d="M345 546 225 604Q207 613 195.5 627Q184 641 184 663Q184 694 205.5 712Q227 730 248 730Q254 730 258 726Q262 722 273 704L358 563ZM203 -14Q138 -14 102 43.5Q66 101 66 197Q66 260 83.5 315Q101 370 132.5 409.5Q164 449 208.5 472Q253 495 307 495Q363 495 407.5 485.5Q452 476 495 457Q487 423 481 387.5Q475 352 472 312L457 142Q455 115 453.5 96.5Q452 78 452 71Q452 50 465.5 41.5Q479 33 520 32L518 7Q496 0 472.5 -4Q449 -8 428 -8Q389 -8 369.5 12Q350 32 350 71Q350 75 351 90Q352 105 354 122Q320 53 283 19.5Q246 -14 203 -14ZM248 59Q267 59 285.5 80Q304 101 319.5 135.5Q335 170 346 215.5Q357 261 361 311L370 418Q355 434 337.5 445.5Q320 457 297 457Q248 457 216.5 391Q185 325 185 216Q185 140 202 99.5Q219 59 248 59Z" glyph-name="agrave" horiz-adv-x="532" unicode="&#224;" /><glyph d="M336 563 199 605Q178 611 167 626Q156 641 156 664Q156 689 173 708Q190 727 211 727Q215 727 219.5 724Q224 721 234 709L344 580ZM-2 0 1 27 13 29Q32 33 42 39Q52 45 60 64L266 522H314Q329 522 336.5 516.5Q344 511 348 497L468 65Q473 47 482 40Q491 33 510 29L525 26L523 0H277L279 28L358 38L326 159H159L107 39L179 29L177 0ZM176 201H316L263 402Z" glyph-name="agrave.smcp" horiz-adv-x="521" /><glyph d="M210 601 214 648H422L417 601ZM203 -14Q138 -14 102 43.5Q66 101 66 197Q66 260 83.5 315Q101 370 132.5 409.5Q164 449 208.5 472Q253 495 307 495Q363 495 407.5 485.5Q452 476 495 457Q487 423 481 387.5Q475 352 472 312L457 142Q455 115 453.5 96.5Q452 78 452 71Q452 50 465.5 41.5Q479 33 520 32L518 7Q496 0 472.5 -4Q449 -8 428 -8Q389 -8 369.5 12Q350 32 350 71Q350 75 351 90Q352 105 354 122Q320 53 283 19.5Q246 -14 203 -14ZM248 59Q267 59 285.5 80Q304 101 319.5 135.5Q335 170 346 215.5Q357 261 361 311L370 418Q355 434 337.5 445.5Q320 457 297 457Q248 457 216.5 391Q185 325 185 216Q185 140 202 99.5Q219 59 248 59Z" glyph-name="amacron" horiz-adv-x="532" unicode="&#257;" /><glyph d="M190 609 195 660H428L424 609ZM-2 0 1 27 13 29Q32 33 42 39Q52 45 60 64L266 522H314Q329 522 336.5 516.5Q344 511 348 497L468 65Q473 47 482 40Q491 33 510 29L525 26L523 0H277L279 28L358 38L326 159H159L107 39L179 29L177 0ZM176 201H316L263 402Z" glyph-name="amacron.smcp" horiz-adv-x="521" /><glyph d="M725 258Q700 258 678.5 263.5Q657 269 636 280Q621 217 592.5 162.5Q564 108 523 69Q482 30 427 8Q372 -14 305 -14Q185 -14 123 45.5Q61 105 61 205Q61 270 79 324Q97 378 125.5 416Q154 454 191 475Q228 496 265 496Q301 496 323 477.5Q345 459 345 419Q345 415 345 410.5Q345 406 344 403Q379 440 402 476Q425 512 436 544L402 624Q401 628 400 631Q399 634 399 635Q399 642 412.5 650.5Q426 659 443 659Q470 659 482.5 642.5Q495 626 495 600Q495 565 478.5 523.5Q462 482 416 431Q361 368 294.5 312Q228 256 172 219Q178 181 191 147Q204 113 224 87Q244 61 272.5 46Q301 31 336 31Q392 31 432 53.5Q472 76 499.5 115Q527 154 545 206Q563 258 575 317Q560 328 535 341.5Q510 355 491 355Q480 355 473 352.5Q466 350 459 347L487 267Q488 263 489.5 260.5Q491 258 491 256Q491 251 480 245Q469 239 456 239Q432 239 419.5 252.5Q407 266 407 294Q407 340 441 373.5Q475 407 529 407Q554 407 576 400Q598 393 620 378L647 359Q664 348 688.5 330Q713 312 735 301Q735 304 737 315Q739 326 742 338.5Q745 351 747 361Q749 371 749 372Q751 382 754.5 385Q758 388 767 388Q783 388 797 375Q811 362 811 340Q811 315 801 299Q791 283 777 274Q763 265 748.5 261.5Q734 258 725 258ZM165 299Q165 292 165.5 285.5Q166 279 167 272Q179 277 190.5 282.5Q202 288 212 294Q247 314 262 339Q277 364 277 385Q277 407 266.5 420Q256 433 238 433Q210 433 187.5 399Q165 365 165 299Z" glyph-name="ampersand" horiz-adv-x="798" unicode="&amp;" /><glyph d="M270 -14Q171 -14 116 34Q61 82 61 169Q61 222 77.5 266.5Q94 311 119.5 343Q145 375 178 393Q211 411 243 411Q278 411 298 393.5Q318 376 318 344V334Q345 361 364 388.5Q383 416 393 441L363 504Q362 506 361 508.5Q360 511 360 512Q360 519 372 526Q384 533 398 533Q423 533 434.5 519Q446 505 446 483Q446 452 429 420.5Q412 389 375 350Q334 307 276.5 263Q219 219 159 182Q171 116 208 75Q245 34 301 34Q390 34 439 83.5Q488 133 514 259Q488 275 470 283Q452 291 438 291Q430 291 424.5 290Q419 289 410 285L436 223Q437 219 438.5 215.5Q440 212 440 211Q440 205 431 198.5Q422 192 408 192Q385 192 372.5 203.5Q360 215 360 237Q360 277 389.5 306Q419 335 467 335Q489 335 510 328.5Q531 322 550 311L576 294Q590 286 612.5 270.5Q635 255 651 248L673 305Q676 312 679 314Q682 316 689 316Q705 316 715 305Q725 294 725 278Q725 249 701.5 229Q678 209 644 209Q626 209 605.5 215.5Q585 222 566 232Q535 119 457 52.5Q379 -14 270 -14ZM154 224Q173 231 189.5 238.5Q206 246 220 256Q239 268 246.5 283Q254 298 254 312Q254 330 245 340.5Q236 351 218 351Q190 351 171.5 323Q153 295 153 247Q153 240 153 236Q153 232 154 224Z" glyph-name="ampersand.smcp" horiz-adv-x="718" /><glyph d="M394 -248Q355 -248 333 -225.5Q311 -203 311 -163Q311 -118 342.5 -78.5Q374 -39 433 -8H428Q389 -8 369.5 12Q350 32 350 71Q350 75 351 90Q352 105 354 122Q320 53 283 19.5Q246 -14 203 -14Q138 -14 102 43.5Q66 101 66 197Q66 260 83.5 315Q101 370 132.5 409.5Q164 449 208.5 472Q253 495 307 495Q363 495 407.5 485.5Q452 476 495 457Q487 423 481 387.5Q475 352 472 312L457 142Q455 115 453.5 96.5Q452 78 452 71Q452 50 465.5 41.5Q479 33 520 32L518 7Q469 -15 437.5 -57.5Q406 -100 406 -143Q406 -165 417 -179Q428 -193 447 -193Q461 -193 473 -189.5Q485 -186 501 -177L495 -202Q473 -226 447 -237Q421 -248 394 -248ZM248 59Q267 59 285.5 80Q304 101 319.5 135.5Q335 170 346 215.5Q357 261 361 311L370 418Q355 434 337.5 445.5Q320 457 297 457Q248 457 216.5 391Q185 325 185 216Q185 140 202 99.5Q219 59 248 59Z" glyph-name="aogonek" horiz-adv-x="532" unicode="&#261;" /><glyph d="M-2 0 1 27 13 29Q32 33 42 39Q52 45 60 64L266 522H314Q329 522 336.5 516.5Q344 511 348 497L468 65Q473 47 482 40Q491 33 510 29L525 26L523 0H425Q379 -39 359 -73.5Q339 -108 339 -143Q339 -167 351.5 -180Q364 -193 386 -193Q396 -193 407.5 -189Q419 -185 434 -175L429 -199Q410 -222 384 -235Q358 -248 329 -248Q289 -248 267 -224.5Q245 -201 245 -161Q245 -118 280.5 -75Q316 -32 383 0H277L279 28L358 38L326 159H159L107 39L179 29L177 0ZM176 201H316L263 402Z" glyph-name="aogonek.smcp" horiz-adv-x="521" /><glyph d="M349 380Q317 380 294 390.5Q271 401 251.5 414Q232 427 213 437.5Q194 448 171 448Q146 448 128 434.5Q110 421 88 386L73 392Q98 461 129.5 493Q161 525 198 525Q229 525 251.5 514.5Q274 504 293.5 491Q313 478 333 467.5Q353 457 379 457Q416 457 434.5 473.5Q453 490 474 532L489 529Q467 447 432 413.5Q397 380 349 380ZM332 180Q300 180 277 190.5Q254 201 234.5 214Q215 227 196 237.5Q177 248 154 248Q129 248 111 234.5Q93 221 71 186L56 192Q81 261 112.5 293Q144 325 181 325Q212 325 234.5 314.5Q257 304 276.5 291Q296 278 316 267.5Q336 257 362 257Q399 257 417.5 273.5Q436 290 457 332L472 329Q450 247 415 213.5Q380 180 332 180Z" glyph-name="approxequal" horiz-adv-x="475" unicode="&#8776;" /><glyph d="M309 542Q268 542 244.5 566Q221 590 221 630Q221 679 249.5 711Q278 743 325 743Q367 743 390.5 719Q414 695 414 655Q414 606 385.5 574Q357 542 309 542ZM312 591Q334 591 346.5 607Q359 623 359 651Q359 670 349.5 682.5Q340 695 322 695Q301 695 288.5 678.5Q276 662 276 634Q276 615 285.5 603Q295 591 312 591ZM203 -14Q138 -14 102 43.5Q66 101 66 197Q66 260 83.5 315Q101 370 132.5 409.5Q164 449 208.5 472Q253 495 307 495Q363 495 407.5 485.5Q452 476 495 457Q487 423 481 387.5Q475 352 472 312L457 142Q455 115 453.5 96.5Q452 78 452 71Q452 50 465.5 41.5Q479 33 520 32L518 7Q496 0 472.5 -4Q449 -8 428 -8Q389 -8 369.5 12Q350 32 350 71Q350 75 351 90Q352 105 354 122Q320 53 283 19.5Q246 -14 203 -14ZM248 59Q267 59 285.5 80Q304 101 319.5 135.5Q335 170 346 215.5Q357 261 361 311L370 418Q355 434 337.5 445.5Q320 457 297 457Q248 457 216.5 391Q185 325 185 216Q185 140 202 99.5Q219 59 248 59Z" glyph-name="aring" horiz-adv-x="532" unicode="&#229;" /><glyph d="M303 560Q265 560 240.5 583Q216 606 216 647Q216 694 244.5 726Q273 758 321 758Q358 758 382.5 735Q407 712 407 671Q407 624 378.5 592Q350 560 303 560ZM307 607Q329 607 341.5 623.5Q354 640 354 668Q354 688 344 699.5Q334 711 316 711Q295 711 282.5 695Q270 679 270 651Q270 630 279.5 618.5Q289 607 307 607ZM-2 0 1 27 13 29Q32 33 42 39Q52 45 60 64L266 522H314Q329 522 336.5 516.5Q344 511 348 497L468 65Q473 47 482 40Q491 33 510 29L525 26L523 0H277L279 28L358 38L326 159H159L107 39L179 29L177 0ZM176 201H316L263 402Z" glyph-name="aring.smcp" horiz-adv-x="521" /><glyph d="M65 199 259 643 327 650 444 199H327L252 512L121 199Z" glyph-name="asciicircum" horiz-adv-x="473" unicode="^" /><glyph d="M342 280Q310 280 287 290.5Q264 301 244.5 314Q225 327 206 337.5Q187 348 164 348Q139 348 121 334.5Q103 321 81 286L66 292Q91 361 122.5 393Q154 425 191 425Q222 425 244.5 414.5Q267 404 286.5 391Q306 378 326 367.5Q346 357 372 357Q409 357 427.5 373.5Q446 390 467 432L482 429Q460 347 425 313.5Q390 280 342 280Z" glyph-name="asciitilde" horiz-adv-x="475" unicode="~" /><glyph d="M290 386Q286 386 283.5 390Q281 394 279 404L245 547L210 455Q197 421 184 407.5Q171 394 158 394Q136 394 119 414Q102 434 103 449Q103 452 105.5 456Q108 460 115 466L229 559Q219 558 204 558Q189 558 175 558Q161 558 150.5 558.5Q140 559 139 559Q106 560 93 571.5Q80 583 81 607Q82 629 96 651Q110 673 119 673Q122 673 125 671Q128 669 132 665L236 580L219 671Q217 683 215 695Q213 707 214 714Q215 738 228 750Q241 762 266 762Q282 762 296 756Q310 750 309 744Q309 742 308 736.5Q307 731 305 725L255 581L330 636Q347 650 360 656Q373 662 382 662Q399 662 408.5 643.5Q418 625 417 595Q417 576 412.5 571.5Q408 567 395 566L261 561L324 503Q343 487 351 474Q359 461 358 445Q357 421 334.5 403.5Q312 386 290 386Z" glyph-name="asterisk" horiz-adv-x="385" unicode="*" /><glyph d="M365 -191Q294 -191 236.5 -166Q179 -141 138.5 -95Q98 -49 76 16.5Q54 82 54 161Q54 270 87 361.5Q120 453 177.5 519Q235 585 315.5 622Q396 659 490 659Q557 659 612.5 638Q668 617 708 578.5Q748 540 770 484.5Q792 429 792 361Q792 293 772.5 232.5Q753 172 719.5 127.5Q686 83 640.5 57Q595 31 544 31Q513 31 494 49.5Q475 68 475 102Q475 106 475.5 118Q476 130 477 146Q447 85 415 58Q383 31 350 31Q295 31 265 79.5Q235 128 235 208Q235 262 250 308.5Q265 355 291.5 388Q318 421 355.5 440Q393 459 437 459Q485 459 521.5 451Q558 443 594 427Q587 395 582 365.5Q577 336 575 305L563 162Q562 143 560.5 125Q559 107 559 100Q559 86 564 80Q569 74 584 74Q608 74 631.5 95Q655 116 673 153Q691 190 702 241.5Q713 293 713 355Q713 477 650.5 545Q588 613 481 613Q402 613 337.5 581.5Q273 550 228 493Q183 436 158.5 354.5Q134 273 134 174Q134 104 153 46.5Q172 -11 206 -51Q240 -91 289 -113Q338 -135 398 -135Q441 -135 472.5 -130Q504 -125 541 -112L538 -140Q501 -162 456.5 -176.5Q412 -191 365 -191ZM387 91Q403 91 419 109Q435 127 448 156.5Q461 186 470.5 224.5Q480 263 483 304L490 394Q477 410 462 418.5Q447 427 428 427Q386 427 360 370.5Q334 314 334 225Q334 161 348 126Q362 91 387 91Z" glyph-name="at" horiz-adv-x="793" unicode="@" /><glyph d="M372 -108Q301 -108 243.5 -83Q186 -58 145.5 -12Q105 34 83 99.5Q61 165 61 244Q61 353 94 444.5Q127 536 184.5 602Q242 668 322.5 705Q403 742 497 742Q564 742 619.5 721Q675 700 715 661.5Q755 623 777 567.5Q799 512 799 444Q799 376 779.5 315.5Q760 255 726.5 210.5Q693 166 647.5 140Q602 114 551 114Q520 114 501 132.5Q482 151 482 185Q482 189 482.5 201Q483 213 484 229Q454 168 422 141Q390 114 357 114Q302 114 272 162.5Q242 211 242 291Q242 345 257 391.5Q272 438 298.5 471Q325 504 362.5 523Q400 542 444 542Q492 542 528.5 534Q565 526 601 510Q594 478 589 448.5Q584 419 582 388L570 245Q569 226 567.5 208Q566 190 566 183Q566 169 571 163Q576 157 591 157Q615 157 638.5 178Q662 199 680 236Q698 273 709 324.5Q720 376 720 438Q720 560 657.5 628Q595 696 488 696Q409 696 344.5 664.5Q280 633 235 576Q190 519 165.5 437.5Q141 356 141 257Q141 187 160 129.5Q179 72 213 32Q247 -8 296 -30Q345 -52 405 -52Q448 -52 479.5 -47Q511 -42 548 -29L545 -57Q508 -79 463.5 -93.5Q419 -108 372 -108ZM394 174Q410 174 426 192Q442 210 455 239.5Q468 269 477.5 307.5Q487 346 490 387L497 477Q484 493 469 501.5Q454 510 435 510Q393 510 367 453.5Q341 397 341 308Q341 244 355 209Q369 174 394 174Z" glyph-name="at.case" horiz-adv-x="795" /><glyph d="M201 561Q206 627 226 660Q246 693 278 693Q291 693 302.5 687.5Q314 682 324.5 675Q335 668 345.5 662.5Q356 657 369 657Q386 657 395.5 670.5Q405 684 411 717L432 714Q428 644 406 607Q384 570 352 570Q335 570 322 576.5Q309 583 298.5 590.5Q288 598 278.5 604.5Q269 611 259 611Q246 611 238 600Q230 589 223 561ZM203 -14Q138 -14 102 43.5Q66 101 66 197Q66 260 83.5 315Q101 370 132.5 409.5Q164 449 208.5 472Q253 495 307 495Q363 495 407.5 485.5Q452 476 495 457Q487 423 481 387.5Q475 352 472 312L457 142Q455 115 453.5 96.5Q452 78 452 71Q452 50 465.5 41.5Q479 33 520 32L518 7Q496 0 472.5 -4Q449 -8 428 -8Q389 -8 369.5 12Q350 32 350 71Q350 75 351 90Q352 105 354 122Q320 53 283 19.5Q246 -14 203 -14ZM248 59Q267 59 285.5 80Q304 101 319.5 135.5Q335 170 346 215.5Q357 261 361 311L370 418Q355 434 337.5 445.5Q320 457 297 457Q248 457 216.5 391Q185 325 185 216Q185 140 202 99.5Q219 59 248 59Z" glyph-name="atilde" horiz-adv-x="532" unicode="&#227;" /><glyph d="M342 583Q310 583 294 598Q278 613 252 613Q240 613 230 606Q220 599 213 577H192Q199 637 220 665Q241 693 273 693Q301 693 319 678.5Q337 664 364 664Q380 664 390 674.5Q400 685 406 709L427 708Q421 645 400 614Q379 583 342 583ZM-2 0 1 27 13 29Q32 33 42 39Q52 45 60 64L266 522H314Q329 522 336.5 516.5Q344 511 348 497L468 65Q473 47 482 40Q491 33 510 29L525 26L523 0H277L279 28L358 38L326 159H159L107 39L179 29L177 0ZM176 201H316L263 402Z" glyph-name="atilde.smcp" horiz-adv-x="521" /><glyph d="M266 -12Q206 -12 155.5 1.5Q105 15 73 42Q76 60 79.5 83Q83 106 86.5 131Q90 156 92.5 180.5Q95 205 97 225L131 586Q132 606 133.5 622.5Q135 639 135 645Q135 661 128.5 670Q122 679 103 684L66 694L68 717Q83 721 104.5 725Q126 729 150 731.5Q174 734 198.5 735.5Q223 737 245 737H262Q254 689 247.5 638Q241 587 236 530L221 376Q249 430 287.5 463.5Q326 497 366 497Q438 497 475.5 440Q513 383 513 291Q513 223 495.5 167Q478 111 446 71.5Q414 32 368 10Q322 -12 266 -12ZM275 26Q327 26 360 93Q393 160 393 267Q393 342 373.5 381.5Q354 421 320 421Q281 421 247.5 350.5Q214 280 204 156L197 75Q210 53 228.5 39.5Q247 26 275 26Z" glyph-name="b" horiz-adv-x="536" unicode="b" /><glyph d="M24 0 26 27 62 34Q93 39 105.5 53Q118 67 121 100L147 393Q148 408 149 419.5Q150 431 150 435Q150 459 141 469.5Q132 480 104 484L65 491L68 518H294Q393 518 447 484Q501 450 501 389Q501 337 461 306Q421 275 347 271Q423 265 464.5 231Q506 197 506 143Q506 75 447 37.5Q388 0 282 0ZM283 290Q332 290 357.5 314.5Q383 339 383 384Q383 425 359.5 450Q336 475 293 478H267L250 293Q255 292 266.5 291Q278 290 283 290ZM275 37Q327 37 355 64Q383 91 383 142Q383 191 354 219.5Q325 248 276 250Q269 250 259.5 250.5Q250 251 246 250L228 46Q238 42 250 39.5Q262 37 275 37Z" glyph-name="b.smcp" horiz-adv-x="534" /><glyph d="M305 -250 72 750H126L358 -250Z" glyph-name="backslash" horiz-adv-x="386" unicode="\" /><glyph d="M49 -249 136 750H188L100 -249Z" glyph-name="bar" horiz-adv-x="192" unicode="|" /><glyph d="M294 -233Q206 -232 164.5 -194Q123 -156 123 -84Q123 -66 125.5 -35Q128 -4 131 28.5Q134 61 136.5 90Q139 119 139 132Q139 180 121 202Q103 224 56 229L59 265Q113 271 135 299.5Q157 328 163 393L177 552Q184 637 233.5 682Q283 727 379 728L376 696Q330 692 311 659.5Q292 627 285 541L273 397Q267 324 229 288Q191 252 124 247Q181 243 214.5 212Q248 181 248 116Q248 98 245.5 68Q243 38 239.5 5.5Q236 -27 233.5 -57.5Q231 -88 231 -106Q231 -155 246 -176.5Q261 -198 297 -201Z" glyph-name="braceleft" horiz-adv-x="331" unicode="{" /><glyph d="M302 -88Q215 -87 171.5 -51Q128 -15 128 57Q128 70 129.5 90.5Q131 111 133 133Q135 155 136.5 176Q138 197 138 210Q138 256 120 277Q102 298 59 305L62 338Q113 345 135 373Q157 401 162 461L170 559Q177 647 229 690.5Q281 734 375 735L371 696Q322 692 306.5 663.5Q291 635 284 553L277 468Q272 404 240 368Q208 332 145 322Q200 312 226 281.5Q252 251 252 199Q252 184 250.5 162.5Q249 141 246.5 119Q244 97 242.5 75.5Q241 54 241 38Q241 -5 255 -26Q269 -47 306 -50Z" glyph-name="braceleft.case" horiz-adv-x="331" /><glyph d="M275 -71Q200 -70 155.5 -40.5Q111 -11 111 46Q111 57 112.5 73.5Q114 90 115.5 108Q117 126 118.5 142Q120 158 120 168Q120 205 104.5 222Q89 239 51 244L53 270Q98 276 117 298.5Q136 321 140 369L147 447Q153 518 205 552.5Q257 587 339 588L336 557Q292 553 278.5 530Q265 507 259 443L253 374Q249 323 215.5 294Q182 265 126 258Q175 250 203.5 225.5Q232 201 232 159Q232 148 230.5 131Q229 114 227 96Q225 78 223.5 60.5Q222 43 222 30Q222 -4 234 -20.5Q246 -37 279 -39Z" glyph-name="braceleft.smcp" horiz-adv-x="321" /><glyph d="M81 728Q169 727 210.5 689Q252 651 252 579Q252 561 249.5 530Q247 499 244 466.5Q241 434 238.5 405Q236 376 236 363Q236 315 254 293Q272 271 319 266L316 230Q262 224 240 195.5Q218 167 212 102L198 -57Q191 -142 141.5 -187Q92 -232 -4 -233L-1 -201Q45 -197 64 -164.5Q83 -132 90 -46L102 98Q108 171 146 207Q184 243 251 248Q194 252 160.5 283Q127 314 127 379Q127 397 129.5 427Q132 457 135.5 489.5Q139 522 141.5 552.5Q144 583 144 601Q144 650 129 671.5Q114 693 78 696Z" glyph-name="braceright" horiz-adv-x="331" unicode="}" /><glyph d="M85 735Q172 734 215.5 698Q259 662 259 590Q259 577 257.5 556.5Q256 536 254 514Q252 492 250.5 471Q249 450 249 437Q249 391 267 370Q285 349 328 342L325 309Q274 302 252 274Q230 246 225 186L217 88Q210 0 158 -43.5Q106 -87 12 -88L16 -49Q65 -45 80.5 -16.5Q96 12 103 94L110 179Q115 243 147 279Q179 315 242 325Q187 335 161 365.5Q135 396 135 448Q135 463 136.5 484.5Q138 506 140.5 528Q143 550 144.5 571.5Q146 593 146 609Q146 652 132 673Q118 694 81 697Z" glyph-name="braceright.case" horiz-adv-x="331" /><glyph d="M91 588Q166 587 210.5 557.5Q255 528 255 471Q255 460 253.5 443.5Q252 427 250.5 409Q249 391 247.5 375Q246 359 246 349Q246 312 261.5 295Q277 278 315 273L313 247Q268 241 249 218.5Q230 196 226 148L219 70Q213 -1 161 -35.5Q109 -70 27 -71L30 -40Q74 -36 87.5 -13Q101 10 107 74L113 143Q117 194 150.5 223Q184 252 240 259Q191 267 162.5 291.5Q134 316 134 358Q134 369 135.5 386Q137 403 139 421Q141 439 142.5 456.5Q144 474 144 487Q144 521 132 537.5Q120 554 87 556Z" glyph-name="braceright.smcp" horiz-adv-x="321" /><glyph d="M76 -235 161 727H373L370 689H268L190 -197H294L290 -235Z" glyph-name="bracketleft" horiz-adv-x="331" unicode="[" /><glyph d="M86 -89 158 735H377L373 692H273L209 -46H310L305 -89Z" glyph-name="bracketleft.case" horiz-adv-x="331" /><glyph d="M79 -72 140 588H344L340 552H252L198 -35H287L283 -72Z" glyph-name="bracketleft.smcp" horiz-adv-x="321" /><glyph d="M298 727 213 -235H1L4 -197H106L184 689H80L84 727Z" glyph-name="bracketright" horiz-adv-x="331" unicode="]" /><glyph d="M302 735 230 -89H11L15 -46H115L179 692H78L83 735Z" glyph-name="bracketright.case" horiz-adv-x="331" /><glyph d="M287 588 226 -72H22L26 -36H114L168 551H79L83 588Z" glyph-name="bracketright.smcp" horiz-adv-x="321" /><glyph d="M268 551Q223 551 200.5 584Q178 617 178 686Q178 695 178 704.5Q178 714 179 724L200 728Q207 682 225.5 660Q244 638 276 638Q309 638 331.5 659.5Q354 681 370 728L389 724Q379 636 348.5 593.5Q318 551 268 551Z" glyph-name="breve" horiz-adv-x="440" unicode="&#728;" /><glyph d="M280 694Q236 694 211 724.5Q186 755 186 812Q186 820 186 826.5Q186 833 187 840H207Q213 807 233 791.5Q253 776 287 776Q321 776 344.5 791.5Q368 807 380 840H400Q392 766 361.5 730Q331 694 280 694Z" glyph-name="breve.case" horiz-adv-x="440" /><glyph d="M95 281 136 750H188L147 281ZM49 -250 90 219H141L100 -250Z" glyph-name="brokenbar" horiz-adv-x="192" unicode="&#166;" /><glyph d="M203 230Q160 230 133 258.5Q106 287 106 333Q106 390 140 428Q174 466 224 466Q267 466 294 437.5Q321 409 321 363Q321 306 287 268Q253 230 203 230Z" glyph-name="bullet" horiz-adv-x="367" unicode="&#8226;" /><glyph d="M254 -14Q167 -14 115.5 44.5Q64 103 64 205Q64 268 82 321.5Q100 375 132 414Q164 453 208 475Q252 497 304 497Q363 497 404 463Q445 429 445 383Q445 358 430 341Q415 324 387 324Q372 324 368 328Q364 332 360 351L338 449Q330 453 318 455.5Q306 458 296 458Q246 458 214.5 398.5Q183 339 183 231Q183 148 215 102Q247 56 304 56Q334 56 361 67.5Q388 79 413 104L423 88Q395 44 349 15Q303 -14 254 -14Z" glyph-name="c" horiz-adv-x="440" unicode="c" /><glyph d="M292 -14Q187 -14 126.5 49.5Q66 113 66 223Q66 290 87 347Q108 404 145 445Q182 486 233.5 509Q285 532 346 532Q380 532 409.5 526Q439 520 473 507Q488 502 495 492.5Q502 483 502 468Q502 464 500.5 451.5Q499 439 498 423L491 349H468Q460 418 427.5 454Q395 490 341 490Q273 490 232.5 419Q192 348 192 232Q192 131 223 80.5Q254 30 316 30Q362 30 398.5 67.5Q435 105 466 185L489 181L467 69Q460 35 448 22.5Q436 10 405 2Q374 -6 349 -10Q324 -14 292 -14Z" glyph-name="c.smcp" horiz-adv-x="523" /><glyph d="M250 547 239 562 346 705Q359 723 364 726.5Q369 730 375 730Q391 730 410.5 715.5Q430 701 430 669Q430 646 417.5 631.5Q405 617 383 607ZM254 -14Q167 -14 115.5 44.5Q64 103 64 205Q64 268 82 321.5Q100 375 132 414Q164 453 208 475Q252 497 304 497Q363 497 404 463Q445 429 445 383Q445 358 430 341Q415 324 387 324Q372 324 368 328Q364 332 360 351L338 449Q330 453 318 455.5Q306 458 296 458Q246 458 214.5 398.5Q183 339 183 231Q183 148 215 102Q247 56 304 56Q334 56 361 67.5Q388 79 413 104L423 88Q395 44 349 15Q303 -14 254 -14Z" glyph-name="cacute" horiz-adv-x="440" unicode="&#263;" /><glyph d="M296 563 291 579 419 710Q432 723 436.5 725Q441 727 446 727Q459 727 475 712Q491 697 491 669Q491 641 475 626Q459 611 435 604ZM292 -14Q187 -14 126.5 49.5Q66 113 66 223Q66 290 87 347Q108 404 145 445Q182 486 233.5 509Q285 532 346 532Q380 532 409.5 526Q439 520 473 507Q488 502 495 492.5Q502 483 502 468Q502 464 500.5 451.5Q499 439 498 423L491 349H468Q460 418 427.5 454Q395 490 341 490Q273 490 232.5 419Q192 348 192 232Q192 131 223 80.5Q254 30 316 30Q362 30 398.5 67.5Q435 105 466 185L489 181L467 69Q460 35 448 22.5Q436 10 405 2Q374 -6 349 -10Q324 -14 292 -14Z" glyph-name="cacute.smcp" horiz-adv-x="523" /><glyph d="M252 553Q236 553 227.5 560.5Q219 568 214 587L172 737L191 741L276 641L377 741L396 737L330 587Q321 568 312 560.5Q303 553 285 553Z" glyph-name="caron" horiz-adv-x="440" unicode="&#711;" /><glyph d="M268 697Q251 697 243 704Q235 711 227 730L173 844L191 848L287 775L394 849L412 844L340 730Q328 711 318 704Q308 697 292 697Z" glyph-name="caron.case" horiz-adv-x="440" /><glyph d="M238 519 222 525 260 692Q267 720 271.5 726.5Q276 733 290 733Q312 733 331 721Q350 709 350 683Q350 670 345.5 658Q341 646 332 635Z" glyph-name="caronSlovak" horiz-adv-x="440" /><glyph d="M220 437 202 445 237 615Q242 640 247.5 647Q253 654 268 654Q296 654 314 640Q332 626 332 601Q332 587 325.5 573.5Q319 560 306 544Z" glyph-name="caronSlovak.case" horiz-adv-x="440" /><glyph d="M272 553Q256 553 247.5 560.5Q239 568 234 587L192 737L211 741L296 641L397 741L416 737L350 587Q341 568 332 560.5Q323 553 305 553ZM254 -14Q167 -14 115.5 44.5Q64 103 64 205Q64 268 82 321.5Q100 375 132 414Q164 453 208 475Q252 497 304 497Q363 497 404 463Q445 429 445 383Q445 358 430 341Q415 324 387 324Q372 324 368 328Q364 332 360 351L338 449Q330 453 318 455.5Q306 458 296 458Q246 458 214.5 398.5Q183 339 183 231Q183 148 215 102Q247 56 304 56Q334 56 361 67.5Q388 79 413 104L423 88Q395 44 349 15Q303 -14 254 -14Z" glyph-name="ccaron" horiz-adv-x="440" unicode="&#269;" /><glyph d="M316 569Q299 569 291 576Q283 583 275 602L221 716L239 720L335 647L442 721L460 716L388 602Q376 583 366 576Q356 569 340 569ZM292 -14Q187 -14 126.5 49.5Q66 113 66 223Q66 290 87 347Q108 404 145 445Q182 486 233.5 509Q285 532 346 532Q380 532 409.5 526Q439 520 473 507Q488 502 495 492.5Q502 483 502 468Q502 464 500.5 451.5Q499 439 498 423L491 349H468Q460 418 427.5 454Q395 490 341 490Q273 490 232.5 419Q192 348 192 232Q192 131 223 80.5Q254 30 316 30Q362 30 398.5 67.5Q435 105 466 185L489 181L467 69Q460 35 448 22.5Q436 10 405 2Q374 -6 349 -10Q324 -14 292 -14Z" glyph-name="ccaron.smcp" horiz-adv-x="523" /><glyph d="M200 -248Q159 -248 136 -227.5Q113 -207 113 -178Q113 -165 123 -157Q133 -149 148 -149Q161 -149 164 -151Q167 -153 168 -163L176 -216Q180 -218 184.5 -219Q189 -220 193 -220Q212 -220 224.5 -207Q237 -194 237 -169Q237 -146 222 -127.5Q207 -109 179 -100L221 -12Q148 -1 106 55.5Q64 112 64 205Q64 268 82 321.5Q100 375 132 414Q164 453 208 475Q252 497 304 497Q363 497 404 463Q445 429 445 383Q445 358 430 341Q415 324 387 324Q372 324 368 328Q364 332 360 351L338 449Q330 453 318 455.5Q306 458 296 458Q246 458 214.5 398.5Q183 339 183 231Q183 148 215 102Q247 56 304 56Q334 56 361 67.5Q388 79 413 104L423 88Q396 46 353 17.5Q310 -11 263 -13L237 -53Q269 -63 291 -86Q313 -109 313 -147Q313 -194 281.5 -221Q250 -248 200 -248Z" glyph-name="ccedilla" horiz-adv-x="440" unicode="&#231;" /><glyph d="M258 -248Q217 -248 193.5 -227.5Q170 -207 170 -178Q170 -165 180 -157Q190 -149 205 -149Q218 -149 221.5 -151Q225 -153 226 -163L234 -216Q238 -218 242 -219Q246 -220 250 -220Q270 -220 282 -207Q294 -194 294 -169Q294 -146 279.5 -127.5Q265 -109 237 -100L278 -14Q179 -10 122.5 53.5Q66 117 66 223Q66 290 87 347Q108 404 145 445Q182 486 233.5 509Q285 532 346 532Q380 532 409.5 526Q439 520 473 507Q488 502 495 492.5Q502 483 502 468Q502 464 500.5 451.5Q499 439 498 423L491 349H468Q460 418 427.5 454Q395 490 341 490Q273 490 232.5 419Q192 348 192 232Q192 131 223 80.5Q254 30 316 30Q362 30 398.5 67.5Q435 105 466 185L489 181L467 69Q460 35 448 22.5Q436 10 405 2Q381 -4 362 -8Q343 -12 322 -13L294 -53Q327 -63 349 -86Q371 -109 371 -147Q371 -194 339.5 -221Q308 -248 258 -248Z" glyph-name="ccedilla.smcp" horiz-adv-x="523" /><glyph d="M195 538 175 543 242 692Q251 712 260.5 719Q270 726 287 726H319Q337 726 345 719Q353 712 358 692L400 543L380 538L296 640ZM254 -14Q167 -14 115.5 44.5Q64 103 64 205Q64 268 82 321.5Q100 375 132 414Q164 453 208 475Q252 497 304 497Q363 497 404 463Q445 429 445 383Q445 358 430 341Q415 324 387 324Q372 324 368 328Q364 332 360 351L338 449Q330 453 318 455.5Q306 458 296 458Q246 458 214.5 398.5Q183 339 183 231Q183 148 215 102Q247 56 304 56Q334 56 361 67.5Q388 79 413 104L423 88Q395 44 349 15Q303 -14 254 -14Z" glyph-name="ccircumflex" horiz-adv-x="440" unicode="&#265;" /><glyph d="M228 566 211 571 283 683Q294 702 303.5 709Q313 716 330 716H354Q371 716 379.5 709Q388 702 396 683L448 571L430 566L335 639ZM292 -14Q187 -14 126.5 49.5Q66 113 66 223Q66 290 87 347Q108 404 145 445Q182 486 233.5 509Q285 532 346 532Q380 532 409.5 526Q439 520 473 507Q488 502 495 492.5Q502 483 502 468Q502 464 500.5 451.5Q499 439 498 423L491 349H468Q460 418 427.5 454Q395 490 341 490Q273 490 232.5 419Q192 348 192 232Q192 131 223 80.5Q254 30 316 30Q362 30 398.5 67.5Q435 105 466 185L489 181L467 69Q460 35 448 22.5Q436 10 405 2Q374 -6 349 -10Q324 -14 292 -14Z" glyph-name="ccircumflex.smcp" horiz-adv-x="523" /><glyph d="M290 571Q262 571 246 587.5Q230 604 230 631Q230 664 250 685.5Q270 707 303 707Q330 707 346 690.5Q362 674 362 646Q362 613 342.5 592Q323 571 290 571ZM254 -14Q167 -14 115.5 44.5Q64 103 64 205Q64 268 82 321.5Q100 375 132 414Q164 453 208 475Q252 497 304 497Q363 497 404 463Q445 429 445 383Q445 358 430 341Q415 324 387 324Q372 324 368 328Q364 332 360 351L338 449Q330 453 318 455.5Q306 458 296 458Q246 458 214.5 398.5Q183 339 183 231Q183 148 215 102Q247 56 304 56Q334 56 361 67.5Q388 79 413 104L423 88Q395 44 349 15Q303 -14 254 -14Z" glyph-name="cdotaccent" horiz-adv-x="440" unicode="&#267;" /><glyph d="M330 580Q302 580 286 597.5Q270 615 270 641Q270 673 289.5 695.5Q309 718 343 718Q371 718 386.5 700.5Q402 683 402 656Q402 624 382.5 602Q363 580 330 580ZM292 -14Q187 -14 126.5 49.5Q66 113 66 223Q66 290 87 347Q108 404 145 445Q182 486 233.5 509Q285 532 346 532Q380 532 409.5 526Q439 520 473 507Q488 502 495 492.5Q502 483 502 468Q502 464 500.5 451.5Q499 439 498 423L491 349H468Q460 418 427.5 454Q395 490 341 490Q273 490 232.5 419Q192 348 192 232Q192 131 223 80.5Q254 30 316 30Q362 30 398.5 67.5Q435 105 466 185L489 181L467 69Q460 35 448 22.5Q436 10 405 2Q374 -6 349 -10Q324 -14 292 -14Z" glyph-name="cdotaccent.smcp" horiz-adv-x="523" /><glyph d="M177 -248Q136 -248 112.5 -227.5Q89 -207 89 -178Q89 -165 99 -157Q109 -149 124 -149Q137 -149 140.5 -151Q144 -153 145 -163L153 -216Q157 -218 161 -219Q165 -220 169 -220Q189 -220 201 -207Q213 -194 213 -169Q213 -146 198.5 -127.5Q184 -109 156 -100L210 15H260L213 -53Q246 -63 268 -86Q290 -109 290 -147Q290 -194 258.5 -221Q227 -248 177 -248Z" glyph-name="cedilla" horiz-adv-x="440" unicode="&#184;" /><glyph d="M178 -248Q138 -248 113 -228Q88 -208 88 -179Q88 -166 97.5 -156.5Q107 -147 121 -147Q134 -147 138 -149.5Q142 -152 143 -161L150 -216Q155 -219 159 -220Q163 -221 168 -221Q189 -221 201.5 -208Q214 -195 214 -170Q214 -146 200.5 -130Q187 -114 159 -105L212 15H263L217 -58Q254 -67 273 -90Q292 -113 292 -147Q292 -191 260.5 -219.5Q229 -248 178 -248Z" glyph-name="cedilla.case" horiz-adv-x="440" /><glyph d="M191 -116 229 71Q155 87 114 144Q73 201 73 289Q73 351 92.5 403.5Q112 456 146.5 494Q181 532 228.5 554Q276 576 331 577L366 750H405L369 574Q421 566 455.5 535Q490 504 490 464Q490 438 474.5 421.5Q459 405 428 405Q412 405 407 408.5Q402 412 398 431L374 530Q371 531 368 532Q365 533 361 534L283 148Q295 143 308.5 140Q322 137 337 137Q369 137 398.5 148.5Q428 160 456 185L467 169Q436 125 386.5 95.5Q337 66 283 66Q279 66 274.5 66Q270 66 266 66L229 -116ZM202 311Q202 263 214.5 227.5Q227 192 249 170L323 538Q269 536 235.5 476.5Q202 417 202 311Z" glyph-name="cent" horiz-adv-x="483" unicode="&#162;" /><glyph d="M175 -93 207 55Q141 66 103 111.5Q65 157 65 229Q65 279 82.5 322.5Q100 366 130.5 397.5Q161 429 203.5 447Q246 465 296 465L325 600H359L329 462Q373 455 402.5 428.5Q432 402 432 371Q432 351 418 337Q404 323 376 323Q363 323 358.5 326.5Q354 330 350 345L330 424Q328 425 325.5 425Q323 425 321 426L255 117Q264 114 274.5 112.5Q285 111 297 111Q325 111 351.5 120.5Q378 130 402 150L411 133Q384 98 339.5 75Q295 52 249 52Q247 52 244.5 52Q242 52 240 52L209 -93ZM179 249Q179 209 190.5 179.5Q202 150 224 134L288 430Q239 430 209 383Q179 336 179 249Z" glyph-name="cent.smcp" horiz-adv-x="442" /><glyph d="M175 538 155 543 222 692Q231 712 240.5 719Q250 726 267 726H299Q317 726 325 719Q333 712 338 692L380 543L360 538L276 640Z" glyph-name="circumflex" horiz-adv-x="440" unicode="&#710;" /><glyph d="M180 694 163 699 235 811Q246 830 255.5 837Q265 844 282 844H306Q323 844 331.5 837Q340 830 348 811L400 699L382 694L287 767Z" glyph-name="circumflex.case" horiz-adv-x="440" /><glyph d="M149 300Q121 300 105.5 318.5Q90 337 90 365Q90 401 110 425Q130 449 161 449Q189 449 205 430.5Q221 412 221 384Q221 348 200.5 324Q180 300 149 300ZM121 -10Q93 -10 77.5 8.5Q62 27 62 55Q62 91 82 115Q102 139 133 139Q161 139 177 120.5Q193 102 193 74Q193 38 172.5 14Q152 -10 121 -10Z" glyph-name="colon" horiz-adv-x="243" unicode=":" /><glyph d="M32 -159 24 -141Q52 -110 71 -75.5Q90 -41 97 -8L68 78Q66 85 65 88Q64 91 64 94Q64 107 82 121.5Q100 136 125 136Q156 136 173.5 115.5Q191 95 191 58Q191 4 153.5 -56Q116 -116 32 -159Z" glyph-name="comma" horiz-adv-x="243" unicode="," /><glyph d="M130 -260 124 -243Q153 -221 165.5 -204.5Q178 -188 185 -165L160 -108Q159 -104 158 -101Q157 -98 157 -96Q157 -84 175 -73Q193 -62 213 -62Q241 -62 257 -80Q273 -98 273 -126Q273 -172 239 -203.5Q205 -235 130 -260Z" glyph-name="commaaccent" horiz-adv-x="440" unicode="&#63171;" /><glyph d="M127 -258 123 -242Q150 -220 163 -202.5Q176 -185 183 -163L165 -110Q163 -103 162 -100Q161 -97 161 -95Q161 -84 176.5 -74.5Q192 -65 212 -65Q240 -65 254.5 -82Q269 -99 269 -125Q269 -167 235.5 -200Q202 -233 127 -258Z" glyph-name="commaaccent.case" horiz-adv-x="440" /><glyph d="M359 -24Q229 -24 151 58.5Q73 141 73 279Q73 364 99 437Q125 510 171.5 562.5Q218 615 282 645Q346 675 421 675Q550 675 628 592.5Q706 510 706 372Q706 287 680 214Q654 141 608 88.5Q562 36 498 6Q434 -24 359 -24ZM364 35Q425 35 475.5 59Q526 83 561.5 126Q597 169 617 229.5Q637 290 637 363Q637 483 579 549.5Q521 616 416 616Q355 616 304.5 592Q254 568 218 525Q182 482 162 421.5Q142 361 142 288Q142 168 200 101.5Q258 35 364 35ZM383 166Q322 166 287.5 204.5Q253 243 253 309Q253 349 265 384.5Q277 420 298.5 446.5Q320 473 350 488Q380 503 415 503Q439 503 456 499Q473 495 488 488Q497 484 500.5 478.5Q504 473 504 463Q504 462 504 462Q504 462 503 446L498 395H485Q479 438 460.5 457.5Q442 477 409 477Q373 477 352.5 431.5Q332 386 332 317Q332 258 350 224Q368 190 399 190Q426 190 446 213Q466 236 482 281L494 280L483 217Q480 196 474 188.5Q468 181 450 174Q437 170 421 168Q405 166 383 166Z" glyph-name="copyright" horiz-adv-x="722" unicode="&#169;" /><glyph d="M74 93 41 135 108 202Q94 225 86.5 253Q79 281 80 312Q81 348 94.5 384Q108 420 130 446L74 515L115 556L164 480Q185 498 211.5 508Q238 518 264 518Q289 518 314 507.5Q339 497 355 481L417 556L451 515L384 447Q398 425 405 397Q412 369 411 338Q410 302 397 265.5Q384 229 362 202L417 135L377 93L327 169Q306 151 280 141Q254 131 229 131Q203 131 178.5 141.5Q154 152 136 169ZM235 196Q278 196 310 237Q342 278 343 338Q344 389 320 421Q296 453 258 453Q212 453 181 413.5Q150 374 149 312Q148 261 172 228.5Q196 196 235 196Z" glyph-name="currency" horiz-adv-x="439" unicode="&#164;" /><glyph d="M215 -14Q145 -14 105.5 43Q66 100 66 197Q66 262 84.5 317Q103 372 134.5 411.5Q166 451 210 473Q254 495 304 495Q327 495 350.5 490.5Q374 486 390 481L399 586Q401 606 402 622.5Q403 639 403 645Q403 661 397 670.5Q391 680 372 684L329 694L331 716Q346 721 368 725Q390 729 415 731.5Q440 734 466 735.5Q492 737 514 737H531Q523 689 516 638Q509 587 505 530L471 142Q469 118 467.5 98Q466 78 466 71Q466 50 480 41Q494 32 534 31L532 6Q505 -1 482.5 -4.5Q460 -8 442 -8Q403 -8 383 12Q363 32 363 73Q363 78 364.5 91.5Q366 105 368 124Q337 58 297.5 22Q258 -14 215 -14ZM257 59Q277 59 296 79Q315 99 331.5 134Q348 169 359.5 219Q371 269 376 328L382 407Q369 430 348 443.5Q327 457 301 457Q254 457 219.5 394Q185 331 185 216Q185 140 204 99.5Q223 59 257 59Z" glyph-name="d" horiz-adv-x="544" unicode="d" /><glyph d="M24 0 26 27 62 34Q93 39 105.5 53Q118 67 121 100L147 393Q148 409 149 420Q150 431 150 435Q150 459 141 469.5Q132 480 104 484L65 491L68 518H228Q384 518 475.5 451Q567 384 567 261Q567 130 480 65Q393 0 242 0ZM279 40Q363 40 402 96Q441 152 441 256Q441 361 391.5 415.5Q342 470 269 476L231 48Q239 45 253.5 42.5Q268 40 279 40Z" glyph-name="d.smcp" horiz-adv-x="586" /><glyph d="M171 -250 236 495H106L111 551H241L259 750H347L329 551H461L457 495H325L259 -250Z" glyph-name="dagger" horiz-adv-x="475" unicode="&#8224;" /><glyph d="M63 3 68 58H198L236 495H106L111 550H241L259 750H347L329 550H461L457 495H325L286 58H418L413 3H281L259 -250H171L194 3Z" glyph-name="daggerdbl" horiz-adv-x="475" unicode="&#8225;" /><glyph d="M215 -14Q145 -14 105.5 43Q66 100 66 197Q66 262 84.5 317Q103 372 134.5 411.5Q166 451 210 473Q254 495 304 495Q327 495 350.5 490.5Q374 486 390 481L399 586Q401 606 402 622.5Q403 639 403 645Q403 661 397 670.5Q391 680 372 684L329 694L331 716Q346 721 368 725Q390 729 415 731.5Q440 734 466 735.5Q492 737 514 737H531Q523 689 516 638Q509 587 505 530L471 142Q469 118 467.5 98Q466 78 466 71Q466 50 480 41Q494 32 534 31L532 6Q505 -1 482.5 -4.5Q460 -8 442 -8Q403 -8 383 12Q363 32 363 73Q363 78 364.5 91.5Q366 105 368 124Q337 58 297.5 22Q258 -14 215 -14ZM563 522 547 528 585 695Q592 723 596.5 729.5Q601 736 615 736Q637 736 656 724Q675 712 675 686Q675 673 670.5 661Q666 649 657 638ZM257 59Q277 59 296 79Q315 99 331.5 134Q348 169 359.5 219Q371 269 376 328L382 407Q369 430 348 443.5Q327 457 301 457Q254 457 219.5 394Q185 331 185 216Q185 140 204 99.5Q223 59 257 59Z" glyph-name="dcaron" horiz-adv-x="544" unicode="&#271;" /><glyph d="M310 569Q293 569 285 576Q277 583 269 602L215 716L233 720L329 647L436 721L454 716L382 602Q370 583 360 576Q350 569 334 569ZM24 0 26 27 62 34Q93 39 105.5 53Q118 67 121 100L147 393Q148 409 149 420Q150 431 150 435Q150 459 141 469.5Q132 480 104 484L65 491L68 518H228Q384 518 475.5 451Q567 384 567 261Q567 130 480 65Q393 0 242 0ZM279 40Q363 40 402 96Q441 152 441 256Q441 361 391.5 415.5Q342 470 269 476L231 48Q239 45 253.5 42.5Q268 40 279 40Z" glyph-name="dcaron.smcp" horiz-adv-x="586" /><glyph d="M215 -14Q145 -14 105.5 43Q66 100 66 197Q66 262 84.5 317Q103 372 134.5 411.5Q166 451 210 473Q254 495 304 495Q327 495 350.5 490.5Q374 486 390 481L398 575H304L307 614H402Q403 624 403 632.5Q403 641 403 645Q403 661 397 670.5Q391 680 372 684L329 694L331 716Q346 721 368 725Q390 729 415 731.5Q440 734 466 735.5Q492 737 514 737H531Q526 707 521.5 676.5Q517 646 513 614H562L559 575H509L471 142Q469 118 467.5 98Q466 78 466 71Q466 50 480 41Q494 32 534 31L532 6Q505 -1 482.5 -4.5Q460 -8 442 -8Q403 -8 383 12Q363 32 363 73Q363 78 364.5 91.5Q366 105 368 124Q337 58 297.5 22Q258 -14 215 -14ZM257 59Q277 59 296 79Q315 99 331.5 134Q348 169 359.5 219Q371 269 376 328L382 407Q369 430 348 443.5Q327 457 301 457Q254 457 219.5 394Q185 331 185 216Q185 140 204 99.5Q223 59 257 59Z" glyph-name="dcroat" horiz-adv-x="544" unicode="&#273;" /><glyph d="M24 0 26 27 62 34Q93 39 105.5 53Q118 67 121 100L134 249H76L79 287H138L147 393Q148 409 149 420Q150 431 150 435Q150 459 141 469.5Q132 480 104 484L65 491L68 518H228Q384 518 475.5 451Q567 384 567 261Q567 130 480 65Q393 0 242 0ZM279 40Q363 40 402 96Q441 152 441 256Q441 361 391.5 415.5Q342 470 269 476L252 287H350L346 249H249L231 48Q239 45 253.5 42.5Q268 40 279 40Z" glyph-name="dcroat.smcp" horiz-adv-x="586" /><glyph d="M195 324Q131 324 96 363.5Q61 403 61 466Q61 505 72.5 539.5Q84 574 105 599.5Q126 625 156 640Q186 655 224 655Q287 655 322 615.5Q357 576 357 512Q357 474 346 439.5Q335 405 314 379.5Q293 354 263 339Q233 324 195 324ZM199 380Q239 380 264 415.5Q289 451 289 508Q289 553 269.5 576Q250 599 219 599Q179 599 154 563Q129 527 129 470Q129 426 148.5 403Q168 380 199 380Z" glyph-name="degree" horiz-adv-x="339" unicode="&#176;" /><glyph d="M186 573Q161 573 145.5 589.5Q130 606 130 631Q130 662 149 683Q168 704 199 704Q224 704 239.5 688Q255 672 255 646Q255 615 236 594Q217 573 186 573ZM353 573Q328 573 312.5 589.5Q297 606 297 631Q297 662 316 683Q335 704 366 704Q391 704 406.5 688Q422 672 422 646Q422 615 403 594Q384 573 353 573Z" glyph-name="dieresis" horiz-adv-x="440" unicode="&#168;" /><glyph d="M195 707Q168 707 153 723.5Q138 740 138 765Q138 796 156.5 817Q175 838 208 838Q235 838 249.5 821.5Q264 805 264 780Q264 749 245.5 728Q227 707 195 707ZM367 707Q340 707 325 723.5Q310 740 310 765Q310 796 329 817Q348 838 380 838Q407 838 422 821.5Q437 805 437 780Q437 749 418 728Q399 707 367 707Z" glyph-name="dieresis.case" horiz-adv-x="440" /><glyph d="M279 464Q257 464 244.5 478.5Q232 493 232 515Q232 540 247.5 559Q263 578 288 578Q309 578 321.5 563.5Q334 549 334 527Q334 502 319 483Q304 464 279 464ZM94 310 98 368H441L436 310ZM248 100Q227 100 214 114Q201 128 201 150Q201 175 216.5 194Q232 213 257 213Q278 213 291 199Q304 185 304 163Q304 138 288.5 119Q273 100 248 100Z" glyph-name="divide" horiz-adv-x="475" unicode="&#247;" /><glyph d="M165 -116 186 -12Q164 -10 144.5 -6Q125 -2 109 5Q84 15 73 26.5Q62 38 61 58Q60 67 59.5 78Q59 89 60 97L61 204L87 208Q103 136 129.5 93.5Q156 51 196 37L243 272L241 273Q164 310 128 355.5Q92 401 92 466Q92 550 151 605Q210 660 301 660Q306 660 311.5 660Q317 660 322 660L340 750H379L360 657Q382 654 401 648.5Q420 643 439 635Q454 628 461 617.5Q468 607 468 589Q468 585 467 572.5Q466 560 465 550L455 461H430Q423 518 403 554.5Q383 591 350 606L305 385L333 372Q404 337 436.5 293Q469 249 469 189Q469 143 452 105Q435 67 404.5 41Q374 15 331.5 0.5Q289 -14 239 -14Q235 -14 231.5 -14Q228 -14 225 -14L204 -116ZM189 517Q189 481 208 454.5Q227 428 270 403L313 617Q308 618 302.5 618Q297 618 292 618Q245 618 217 592Q189 566 189 517ZM368 138Q368 175 346.5 203Q325 231 279 255L233 29Q237 28 240.5 28Q244 28 248 28Q303 28 335.5 56.5Q368 85 368 138Z" glyph-name="dollar" horiz-adv-x="478" unicode="$" /><glyph d="M159 -93 177 -12Q158 -10 142.5 -6.5Q127 -3 114 2Q92 9 81.5 18Q71 27 70 45Q70 52 69.5 60.5Q69 69 70 76V174L93 178Q105 120 129 84.5Q153 49 187 36L226 215Q159 244 128 281.5Q97 319 97 373Q97 440 148 486Q199 532 282 532Q285 532 288 532Q291 532 294 532L309 600H343L328 530Q350 528 369.5 523Q389 518 406 511Q420 506 426 497Q432 488 432 474Q432 470 431 460Q430 450 429 440L420 360H397Q391 409 371 440.5Q351 472 318 484L281 315L283 314L317 300Q380 274 407 239.5Q434 205 434 154Q434 83 379 34.5Q324 -14 229 -14Q224 -14 219 -14Q214 -14 210 -14L193 -93ZM189 415Q189 386 203.5 366Q218 346 250 329L285 491Q282 491 279 491Q276 491 273 491Q234 491 211.5 471Q189 451 189 415ZM339 112Q339 143 319.5 164Q300 185 257 203L219 28Q223 27 228 27Q233 27 237 27Q283 27 311 48.5Q339 70 339 112Z" glyph-name="dollar.smcp" horiz-adv-x="463" /><glyph d="M270 571Q242 571 226 587.5Q210 604 210 631Q210 664 230 685.5Q250 707 283 707Q310 707 326 690.5Q342 674 342 646Q342 613 322.5 592Q303 571 270 571Z" glyph-name="dotaccent" horiz-adv-x="440" unicode="&#729;" /><glyph d="M282 708Q254 708 238 725.5Q222 743 222 769Q222 801 241.5 823.5Q261 846 295 846Q323 846 338.5 828.5Q354 811 354 784Q354 752 334.5 730Q315 708 282 708Z" glyph-name="dotaccent.case" horiz-adv-x="440" /><glyph d="M179 -8Q132 -8 112 14Q92 36 92 79Q92 85 93.5 103.5Q95 122 98 152L115 332Q116 348 117.5 369Q119 390 119 396Q119 418 109.5 427Q100 436 78 436Q75 436 70.5 436Q66 436 61 435L63 461Q83 470 113.5 476.5Q144 483 163 483Q196 483 214 467.5Q232 452 232 415Q232 410 231 387.5Q230 365 228 340L208 142Q206 116 205 98.5Q204 81 204 74Q204 53 218 44Q232 35 274 35L272 10Q249 2 223.5 -3Q198 -8 179 -8Z" glyph-name="dotlessi" horiz-adv-x="282" unicode="&#305;" /><glyph d="M17 -246Q-20 -246 -40 -229.5Q-60 -213 -60 -189Q-60 -173 -52 -162.5Q-44 -152 -31 -152Q-30 -152 -27 -153Q-24 -154 -19 -156L62 -192Q76 -155 81.5 -122Q87 -89 91 -27L116 332Q117 350 119 369Q121 388 121 394Q121 416 111 425Q101 434 79 434Q76 434 71.5 434Q67 434 62 433L64 459Q84 468 114.5 475.5Q145 483 165 483Q199 483 216.5 467Q234 451 234 417Q234 412 232.5 388.5Q231 365 229 340L210 80Q204 9 186.5 -51Q169 -111 143 -154Q117 -197 84.5 -221.5Q52 -246 17 -246Z" glyph-name="dotlessj" horiz-adv-x="276" unicode="&#567;" /><glyph d="M257 -15Q164 -15 114.5 45.5Q65 106 65 210Q65 271 82.5 323.5Q100 376 131.5 414.5Q163 453 207 475Q251 497 303 497Q362 497 398.5 471Q435 445 435 396Q435 350 402 320Q369 290 292 266L177 229Q177 140 209.5 98.5Q242 57 307 57Q337 57 364 67.5Q391 78 419 101L427 83Q394 40 353 12.5Q312 -15 257 -15ZM180 282 241 292Q294 299 318 323Q342 347 342 388Q342 419 328.5 439Q315 459 288 459Q250 459 218.5 416Q187 373 180 282Z" glyph-name="e" horiz-adv-x="437" unicode="e" /><glyph d="M24 0 26 27 62 34Q93 39 105.5 53Q118 67 121 100L147 393Q148 409 149 420Q150 431 150 435Q150 459 141 469.5Q132 480 104 484L65 491L68 518H496Q507 518 512.5 512.5Q518 507 518 498Q518 495 518 488.5Q518 482 517 474L506 358H483L479 387Q471 441 446.5 459.5Q422 478 365 478H268L251 294H390L410 368H433L417 178H394L387 253H247L229 48Q245 44 268 41Q291 38 315 38Q378 38 412.5 63.5Q447 89 470 148L479 172L502 168L469 16Q467 4 460 -1Q453 -6 440 -6Q435 -6 418.5 -5Q402 -4 381.5 -3Q361 -2 339.5 -1Q318 0 302 0Z" glyph-name="e.smcp" horiz-adv-x="524" /><glyph d="M254 547 243 562 350 705Q363 723 368 726.5Q373 730 379 730Q395 730 414.5 715.5Q434 701 434 669Q434 646 421.5 631.5Q409 617 387 607ZM257 -15Q164 -15 114.5 45.5Q65 106 65 210Q65 271 82.5 323.5Q100 376 131.5 414.5Q163 453 207 475Q251 497 303 497Q362 497 398.5 471Q435 445 435 396Q435 350 402 320Q369 290 292 266L177 229Q177 140 209.5 98.5Q242 57 307 57Q337 57 364 67.5Q391 78 419 101L427 83Q394 40 353 12.5Q312 -15 257 -15ZM180 282 241 292Q294 299 318 323Q342 347 342 388Q342 419 328.5 439Q315 459 288 459Q250 459 218.5 416Q187 373 180 282Z" glyph-name="eacute" horiz-adv-x="437" unicode="&#233;" /><glyph d="M272 563 267 579 395 710Q408 723 412.5 725Q417 727 422 727Q435 727 451 712Q467 697 467 669Q467 641 451 626Q435 611 411 604ZM24 0 26 27 62 34Q93 39 105.5 53Q118 67 121 100L147 393Q148 409 149 420Q150 431 150 435Q150 459 141 469.5Q132 480 104 484L65 491L68 518H496Q507 518 512.5 512.5Q518 507 518 498Q518 495 518 488.5Q518 482 517 474L506 358H483L479 387Q471 441 446.5 459.5Q422 478 365 478H268L251 294H390L410 368H433L417 178H394L387 253H247L229 48Q245 44 268 41Q291 38 315 38Q378 38 412.5 63.5Q447 89 470 148L479 172L502 168L469 16Q467 4 460 -1Q453 -6 440 -6Q435 -6 418.5 -5Q402 -4 381.5 -3Q361 -2 339.5 -1Q318 0 302 0Z" glyph-name="eacute.smcp" horiz-adv-x="524" /><glyph d="M292 551Q247 551 224.5 584Q202 617 202 686Q202 695 202 704.5Q202 714 203 724L224 728Q231 682 249.5 660Q268 638 300 638Q333 638 355.5 659.5Q378 681 394 728L413 724Q403 636 372.5 593.5Q342 551 292 551ZM257 -15Q164 -15 114.5 45.5Q65 106 65 210Q65 271 82.5 323.5Q100 376 131.5 414.5Q163 453 207 475Q251 497 303 497Q362 497 398.5 471Q435 445 435 396Q435 350 402 320Q369 290 292 266L177 229Q177 140 209.5 98.5Q242 57 307 57Q337 57 364 67.5Q391 78 419 101L427 83Q394 40 353 12.5Q312 -15 257 -15ZM180 282 241 292Q294 299 318 323Q342 347 342 388Q342 419 328.5 439Q315 459 288 459Q250 459 218.5 416Q187 373 180 282Z" glyph-name="ebreve" horiz-adv-x="437" unicode="&#277;" /><glyph d="M304 566Q260 566 235 596.5Q210 627 210 684Q210 692 210 698.5Q210 705 211 712H231Q237 679 257 663.5Q277 648 311 648Q345 648 368.5 663.5Q392 679 404 712H424Q416 638 385.5 602Q355 566 304 566ZM24 0 26 27 62 34Q93 39 105.5 53Q118 67 121 100L147 393Q148 409 149 420Q150 431 150 435Q150 459 141 469.5Q132 480 104 484L65 491L68 518H496Q507 518 512.5 512.5Q518 507 518 498Q518 495 518 488.5Q518 482 517 474L506 358H483L479 387Q471 441 446.5 459.5Q422 478 365 478H268L251 294H390L410 368H433L417 178H394L387 253H247L229 48Q245 44 268 41Q291 38 315 38Q378 38 412.5 63.5Q447 89 470 148L479 172L502 168L469 16Q467 4 460 -1Q453 -6 440 -6Q435 -6 418.5 -5Q402 -4 381.5 -3Q361 -2 339.5 -1Q318 0 302 0Z" glyph-name="ebreve.smcp" horiz-adv-x="524" /><glyph d="M276 553Q260 553 251.5 560.5Q243 568 238 587L196 737L215 741L300 641L401 741L420 737L354 587Q345 568 336 560.5Q327 553 309 553ZM257 -15Q164 -15 114.5 45.5Q65 106 65 210Q65 271 82.5 323.5Q100 376 131.5 414.5Q163 453 207 475Q251 497 303 497Q362 497 398.5 471Q435 445 435 396Q435 350 402 320Q369 290 292 266L177 229Q177 140 209.5 98.5Q242 57 307 57Q337 57 364 67.5Q391 78 419 101L427 83Q394 40 353 12.5Q312 -15 257 -15ZM180 282 241 292Q294 299 318 323Q342 347 342 388Q342 419 328.5 439Q315 459 288 459Q250 459 218.5 416Q187 373 180 282Z" glyph-name="ecaron" horiz-adv-x="437" unicode="&#283;" /><glyph d="M292 569Q275 569 267 576Q259 583 251 602L197 716L215 720L311 647L418 721L436 716L364 602Q352 583 342 576Q332 569 316 569ZM24 0 26 27 62 34Q93 39 105.5 53Q118 67 121 100L147 393Q148 409 149 420Q150 431 150 435Q150 459 141 469.5Q132 480 104 484L65 491L68 518H496Q507 518 512.5 512.5Q518 507 518 498Q518 495 518 488.5Q518 482 517 474L506 358H483L479 387Q471 441 446.5 459.5Q422 478 365 478H268L251 294H390L410 368H433L417 178H394L387 253H247L229 48Q245 44 268 41Q291 38 315 38Q378 38 412.5 63.5Q447 89 470 148L479 172L502 168L469 16Q467 4 460 -1Q453 -6 440 -6Q435 -6 418.5 -5Q402 -4 381.5 -3Q361 -2 339.5 -1Q318 0 302 0Z" glyph-name="ecaron.smcp" horiz-adv-x="524" /><glyph d="M199 538 179 543 246 692Q255 712 264.5 719Q274 726 291 726H323Q341 726 349 719Q357 712 362 692L404 543L384 538L300 640ZM257 -15Q164 -15 114.5 45.5Q65 106 65 210Q65 271 82.5 323.5Q100 376 131.5 414.5Q163 453 207 475Q251 497 303 497Q362 497 398.5 471Q435 445 435 396Q435 350 402 320Q369 290 292 266L177 229Q177 140 209.5 98.5Q242 57 307 57Q337 57 364 67.5Q391 78 419 101L427 83Q394 40 353 12.5Q312 -15 257 -15ZM180 282 241 292Q294 299 318 323Q342 347 342 388Q342 419 328.5 439Q315 459 288 459Q250 459 218.5 416Q187 373 180 282Z" glyph-name="ecircumflex" horiz-adv-x="437" unicode="&#234;" /><glyph d="M204 566 187 571 259 683Q270 702 279.5 709Q289 716 306 716H330Q347 716 355.5 709Q364 702 372 683L424 571L406 566L311 639ZM24 0 26 27 62 34Q93 39 105.5 53Q118 67 121 100L147 393Q148 409 149 420Q150 431 150 435Q150 459 141 469.5Q132 480 104 484L65 491L68 518H496Q507 518 512.5 512.5Q518 507 518 498Q518 495 518 488.5Q518 482 517 474L506 358H483L479 387Q471 441 446.5 459.5Q422 478 365 478H268L251 294H390L410 368H433L417 178H394L387 253H247L229 48Q245 44 268 41Q291 38 315 38Q378 38 412.5 63.5Q447 89 470 148L479 172L502 168L469 16Q467 4 460 -1Q453 -6 440 -6Q435 -6 418.5 -5Q402 -4 381.5 -3Q361 -2 339.5 -1Q318 0 302 0Z" glyph-name="ecircumflex.smcp" horiz-adv-x="524" /><glyph d="M210 573Q185 573 169.5 589.5Q154 606 154 631Q154 662 173 683Q192 704 223 704Q248 704 263.5 688Q279 672 279 646Q279 615 260 594Q241 573 210 573ZM377 573Q352 573 336.5 589.5Q321 606 321 631Q321 662 340 683Q359 704 390 704Q415 704 430.5 688Q446 672 446 646Q446 615 427 594Q408 573 377 573ZM257 -15Q164 -15 114.5 45.5Q65 106 65 210Q65 271 82.5 323.5Q100 376 131.5 414.5Q163 453 207 475Q251 497 303 497Q362 497 398.5 471Q435 445 435 396Q435 350 402 320Q369 290 292 266L177 229Q177 140 209.5 98.5Q242 57 307 57Q337 57 364 67.5Q391 78 419 101L427 83Q394 40 353 12.5Q312 -15 257 -15ZM180 282 241 292Q294 299 318 323Q342 347 342 388Q342 419 328.5 439Q315 459 288 459Q250 459 218.5 416Q187 373 180 282Z" glyph-name="edieresis" horiz-adv-x="437" unicode="&#235;" /><glyph d="M219 579Q192 579 177 595.5Q162 612 162 637Q162 668 180.5 689Q199 710 232 710Q259 710 273.5 693.5Q288 677 288 652Q288 621 269.5 600Q251 579 219 579ZM391 579Q364 579 349 595.5Q334 612 334 637Q334 668 353 689Q372 710 404 710Q431 710 446 693.5Q461 677 461 652Q461 621 442 600Q423 579 391 579ZM24 0 26 27 62 34Q93 39 105.5 53Q118 67 121 100L147 393Q148 409 149 420Q150 431 150 435Q150 459 141 469.5Q132 480 104 484L65 491L68 518H496Q507 518 512.5 512.5Q518 507 518 498Q518 495 518 488.5Q518 482 517 474L506 358H483L479 387Q471 441 446.5 459.5Q422 478 365 478H268L251 294H390L410 368H433L417 178H394L387 253H247L229 48Q245 44 268 41Q291 38 315 38Q378 38 412.5 63.5Q447 89 470 148L479 172L502 168L469 16Q467 4 460 -1Q453 -6 440 -6Q435 -6 418.5 -5Q402 -4 381.5 -3Q361 -2 339.5 -1Q318 0 302 0Z" glyph-name="edieresis.smcp" horiz-adv-x="524" /><glyph d="M294 571Q266 571 250 587.5Q234 604 234 631Q234 664 254 685.5Q274 707 307 707Q334 707 350 690.5Q366 674 366 646Q366 613 346.5 592Q327 571 294 571ZM257 -15Q164 -15 114.5 45.5Q65 106 65 210Q65 271 82.5 323.5Q100 376 131.5 414.5Q163 453 207 475Q251 497 303 497Q362 497 398.5 471Q435 445 435 396Q435 350 402 320Q369 290 292 266L177 229Q177 140 209.5 98.5Q242 57 307 57Q337 57 364 67.5Q391 78 419 101L427 83Q394 40 353 12.5Q312 -15 257 -15ZM180 282 241 292Q294 299 318 323Q342 347 342 388Q342 419 328.5 439Q315 459 288 459Q250 459 218.5 416Q187 373 180 282Z" glyph-name="edotaccent" horiz-adv-x="437" unicode="&#279;" /><glyph d="M306 580Q278 580 262 597.5Q246 615 246 641Q246 673 265.5 695.5Q285 718 319 718Q347 718 362.5 700.5Q378 683 378 656Q378 624 358.5 602Q339 580 306 580ZM24 0 26 27 62 34Q93 39 105.5 53Q118 67 121 100L147 393Q148 409 149 420Q150 431 150 435Q150 459 141 469.5Q132 480 104 484L65 491L68 518H496Q507 518 512.5 512.5Q518 507 518 498Q518 495 518 488.5Q518 482 517 474L506 358H483L479 387Q471 441 446.5 459.5Q422 478 365 478H268L251 294H390L410 368H433L417 178H394L387 253H247L229 48Q245 44 268 41Q291 38 315 38Q378 38 412.5 63.5Q447 89 470 148L479 172L502 168L469 16Q467 4 460 -1Q453 -6 440 -6Q435 -6 418.5 -5Q402 -4 381.5 -3Q361 -2 339.5 -1Q318 0 302 0Z" glyph-name="edotaccent.smcp" horiz-adv-x="524" /><glyph d="M315 546 195 604Q177 613 165.5 627Q154 641 154 663Q154 694 175.5 712Q197 730 218 730Q224 730 228 726Q232 722 243 704L328 563ZM257 -15Q164 -15 114.5 45.5Q65 106 65 210Q65 271 82.5 323.5Q100 376 131.5 414.5Q163 453 207 475Q251 497 303 497Q362 497 398.5 471Q435 445 435 396Q435 350 402 320Q369 290 292 266L177 229Q177 140 209.5 98.5Q242 57 307 57Q337 57 364 67.5Q391 78 419 101L427 83Q394 40 353 12.5Q312 -15 257 -15ZM180 282 241 292Q294 299 318 323Q342 347 342 388Q342 419 328.5 439Q315 459 288 459Q250 459 218.5 416Q187 373 180 282Z" glyph-name="egrave" horiz-adv-x="437" unicode="&#232;" /><glyph d="M337 563 200 605Q179 611 168 626Q157 641 157 664Q157 689 174 708Q191 727 212 727Q216 727 220.5 724Q225 721 235 709L345 580ZM24 0 26 27 62 34Q93 39 105.5 53Q118 67 121 100L147 393Q148 409 149 420Q150 431 150 435Q150 459 141 469.5Q132 480 104 484L65 491L68 518H496Q507 518 512.5 512.5Q518 507 518 498Q518 495 518 488.5Q518 482 517 474L506 358H483L479 387Q471 441 446.5 459.5Q422 478 365 478H268L251 294H390L410 368H433L417 178H394L387 253H247L229 48Q245 44 268 41Q291 38 315 38Q378 38 412.5 63.5Q447 89 470 148L479 172L502 168L469 16Q467 4 460 -1Q453 -6 440 -6Q435 -6 418.5 -5Q402 -4 381.5 -3Q361 -2 339.5 -1Q318 0 302 0Z" glyph-name="egrave.smcp" horiz-adv-x="524" /><glyph d="M243 -13Q157 -13 108.5 27.5Q60 68 60 140Q60 194 100 240Q140 286 204 310L199 313Q154 338 127.5 377.5Q101 417 101 471Q101 552 158.5 605.5Q216 659 312 659Q390 659 437.5 617.5Q485 576 485 505Q485 452 453 411.5Q421 371 362 350L384 337Q430 311 452 273Q474 235 474 185Q474 142 457 105.5Q440 69 409.5 43Q379 17 336 2Q293 -13 243 -13ZM331 368Q360 394 375 428Q390 462 390 508Q390 557 363.5 588Q337 619 297 619Q254 619 230.5 591.5Q207 564 207 519Q207 479 228.5 447Q250 415 295 389ZM254 28Q305 28 334 59.5Q363 91 363 148Q363 187 341 216.5Q319 246 273 271L231 295Q193 265 174 229Q155 193 155 146Q155 97 182.5 62.5Q210 28 254 28Z" glyph-name="eight" horiz-adv-x="506" unicode="8" /><glyph d="M141 -13Q95 -13 68 9Q41 31 41 68Q41 102 59.5 125.5Q78 149 117 163L107 169Q86 182 74 202Q62 222 62 249Q62 295 96 326Q130 357 182 357Q223 357 250 336.5Q277 316 277 279Q277 248 260.5 225.5Q244 203 210 189L225 181Q248 168 260.5 148.5Q273 129 273 101Q273 53 237 20Q201 -13 141 -13ZM194 198Q211 215 218 235Q225 255 225 278Q225 305 212 320Q199 335 175 335Q150 335 136 318.5Q122 302 122 276Q122 254 134 238.5Q146 223 173 209ZM147 10Q176 10 193 28Q210 46 210 76Q210 97 198 112.5Q186 128 158 143L136 154Q114 139 102.5 117Q91 95 91 69Q91 42 106 26Q121 10 147 10Z" glyph-name="eight.dnom" horiz-adv-x="298" /><glyph d="M232 -14Q148 -14 99.5 30.5Q51 75 51 144Q51 200 88 251.5Q125 303 190 330Q144 360 119.5 398.5Q95 437 95 483Q95 568 151.5 621Q208 674 298 674Q373 674 421 632Q469 590 469 521Q469 464 437 424Q405 384 351 359Q402 325 428 282Q454 239 454 190Q454 96 392.5 41Q331 -14 232 -14ZM326 376Q349 404 362 438.5Q375 473 375 516Q375 567 350.5 599.5Q326 632 287 632Q247 632 225.5 605.5Q204 579 204 531Q204 488 225.5 457.5Q247 427 290 399ZM241 27Q284 27 311.5 58Q339 89 339 148Q339 194 315.5 229Q292 264 247 292L213 315Q178 281 160.5 241Q143 201 143 155Q143 98 168.5 62.5Q194 27 241 27Z" glyph-name="eight.osf" horiz-adv-x="478" /><glyph d="M225 -14Q147 -14 106 20.5Q65 55 65 112Q65 157 96 193.5Q127 230 182 246Q137 269 116 300Q95 331 95 377Q95 441 147 486.5Q199 532 286 532Q357 532 397 497.5Q437 463 437 405Q437 363 410.5 331Q384 299 333 281L346 274Q387 252 408.5 221Q430 190 430 149Q430 80 374 33Q318 -14 225 -14ZM302 297Q326 319 337 345.5Q348 372 348 408Q348 445 326.5 468.5Q305 492 271 492Q236 492 216 471.5Q196 451 196 417Q196 385 214.5 359.5Q233 334 272 313ZM235 26Q278 26 302.5 48Q327 70 327 116Q327 147 307 170.5Q287 194 250 212L210 231Q179 209 163.5 180Q148 151 148 114Q148 75 171.5 50.5Q195 26 235 26Z" glyph-name="eight.smcp" horiz-adv-x="471" /><glyph d="M174 370Q128 370 101 392Q74 414 74 451Q74 485 92.5 508.5Q111 532 150 546L140 552Q119 565 107 585Q95 605 95 632Q95 678 129 709Q163 740 215 740Q256 740 283 719.5Q310 699 310 662Q310 631 293.5 608.5Q277 586 243 572L258 564Q281 551 293.5 531.5Q306 512 306 484Q306 436 270 403Q234 370 174 370ZM227 581Q244 598 251 618Q258 638 258 661Q258 688 245 703Q232 718 208 718Q183 718 169 701.5Q155 685 155 659Q155 637 167 621.5Q179 606 206 592ZM180 393Q209 393 226 411Q243 429 243 459Q243 480 231 495.5Q219 511 191 526L169 537Q147 522 135.5 500Q124 478 124 452Q124 425 139 409Q154 393 180 393Z" glyph-name="eight.sup" horiz-adv-x="297" /><glyph d="M231 -13Q145 -13 96.5 27.5Q48 68 48 140Q48 194 88 240Q128 286 192 310L187 313Q142 338 115.5 377.5Q89 417 89 471Q89 552 146.5 605.5Q204 659 300 659Q378 659 425.5 617.5Q473 576 473 505Q473 452 441 411.5Q409 371 350 350L372 337Q418 311 440 273Q462 235 462 185Q462 142 445 105.5Q428 69 397.5 43Q367 17 324 2Q281 -13 231 -13ZM319 368Q348 394 363 428Q378 462 378 508Q378 557 351.5 588Q325 619 285 619Q242 619 218.5 591.5Q195 564 195 519Q195 479 216.5 447Q238 415 283 389ZM242 28Q293 28 322 59.5Q351 91 351 148Q351 187 329 216.5Q307 246 261 271L219 295Q181 265 162 229Q143 193 143 146Q143 97 170.5 62.5Q198 28 242 28Z" glyph-name="eight.tf" horiz-adv-x="475" /><glyph d="M231 -14Q147 -14 98.5 30.5Q50 75 50 144Q50 200 87 251.5Q124 303 189 330Q143 360 118.5 398.5Q94 437 94 483Q94 568 150.5 621Q207 674 297 674Q372 674 420 632Q468 590 468 521Q468 464 436 424Q404 384 350 359Q401 325 427 282Q453 239 453 190Q453 96 391.5 41Q330 -14 231 -14ZM325 376Q348 404 361 438.5Q374 473 374 516Q374 567 349.5 599.5Q325 632 286 632Q246 632 224.5 605.5Q203 579 203 531Q203 488 224.5 457.5Q246 427 289 399ZM240 27Q283 27 310.5 58Q338 89 338 148Q338 194 314.5 229Q291 264 246 292L212 315Q177 281 159.5 241Q142 201 142 155Q142 98 167.5 62.5Q193 27 240 27Z" glyph-name="eight.tosf" horiz-adv-x="475" /><glyph d="M121 -10Q93 -10 77.5 8.5Q62 27 62 55Q62 91 82 115Q102 139 133 139Q161 139 177 120.5Q193 102 193 74Q193 38 172.5 14Q152 -10 121 -10ZM321 -10Q293 -10 277.5 8.5Q262 27 262 55Q262 91 282 115Q302 139 333 139Q361 139 377 120.5Q393 102 393 74Q393 38 372.5 14Q352 -10 321 -10ZM521 -10Q493 -10 477.5 8.5Q462 27 462 55Q462 91 482 115Q502 139 533 139Q561 139 577 120.5Q593 102 593 74Q593 38 572.5 14Q552 -10 521 -10Z" glyph-name="ellipsis" horiz-adv-x="644" unicode="&#8230;" /><glyph d="M193 601 197 648H405L400 601ZM257 -15Q164 -15 114.5 45.5Q65 106 65 210Q65 271 82.5 323.5Q100 376 131.5 414.5Q163 453 207 475Q251 497 303 497Q362 497 398.5 471Q435 445 435 396Q435 350 402 320Q369 290 292 266L177 229Q177 140 209.5 98.5Q242 57 307 57Q337 57 364 67.5Q391 78 419 101L427 83Q394 40 353 12.5Q312 -15 257 -15ZM180 282 241 292Q294 299 318 323Q342 347 342 388Q342 419 328.5 439Q315 459 288 459Q250 459 218.5 416Q187 373 180 282Z" glyph-name="emacron" horiz-adv-x="437" unicode="&#275;" /><glyph d="M191 609 196 660H429L425 609ZM24 0 26 27 62 34Q93 39 105.5 53Q118 67 121 100L147 393Q148 409 149 420Q150 431 150 435Q150 459 141 469.5Q132 480 104 484L65 491L68 518H496Q507 518 512.5 512.5Q518 507 518 498Q518 495 518 488.5Q518 482 517 474L506 358H483L479 387Q471 441 446.5 459.5Q422 478 365 478H268L251 294H390L410 368H433L417 178H394L387 253H247L229 48Q245 44 268 41Q291 38 315 38Q378 38 412.5 63.5Q447 89 470 148L479 172L502 168L469 16Q467 4 460 -1Q453 -6 440 -6Q435 -6 418.5 -5Q402 -4 381.5 -3Q361 -2 339.5 -1Q318 0 302 0Z" glyph-name="emacron.smcp" horiz-adv-x="524" /><glyph d="M64 237 69 284H862L858 237Z" glyph-name="emdash" horiz-adv-x="881" unicode="&#8212;" /><glyph d="M78 320 82 369H863L859 320Z" glyph-name="emdash.case" horiz-adv-x="882" /><glyph d="M64 237 69 284H422L418 237Z" glyph-name="endash" horiz-adv-x="441" unicode="&#8211;" /><glyph d="M78 320 82 369H425L420 320Z" glyph-name="endash.case" horiz-adv-x="443" /><glyph d="M281 -246Q240 -246 220.5 -231.5Q201 -217 201 -192Q201 -177 209 -166Q217 -155 230 -155Q233 -155 235 -155.5Q237 -156 242 -159L315 -201Q325 -183 332 -167Q339 -151 344 -131.5Q349 -112 352.5 -87Q356 -62 359 -27L386 280Q388 305 389.5 328.5Q391 352 391 363Q391 395 381 410.5Q371 426 348 426Q300 426 260.5 351Q221 276 208 109L202 31Q201 15 193 7.5Q185 0 172 0H78Q85 40 93 93.5Q101 147 105 198L118 332Q119 351 121 369.5Q123 388 123 394Q123 416 113.5 425Q104 434 81 434Q78 434 73.5 434Q69 434 64 433L67 459Q86 468 116.5 475.5Q147 483 166 483Q199 483 215 468Q231 453 231 421Q231 417 230 404Q229 391 228 376Q265 431 308 464Q351 497 393 497Q445 497 474 466.5Q503 436 503 370Q503 362 501.5 329.5Q500 297 497 268L477 70Q470 -1 453.5 -59.5Q437 -118 412 -159Q387 -200 353.5 -223Q320 -246 281 -246Z" glyph-name="eng" horiz-adv-x="547" unicode="&#331;" /><glyph d="M276 -232 270 -208Q300 -190 319.5 -174Q339 -158 350.5 -136.5Q362 -115 368 -84Q374 -53 378 -6L385 68L194 398L162 42L257 29L254 0H24L26 27L56 33Q84 38 97 50Q110 62 114 90L146 379Q148 396 150 413Q152 430 152 435Q152 456 141.5 465.5Q131 475 107 482L77 491L79 518H227Q248 518 257 512.5Q266 507 273 496L465 159L494 476L399 489L402 518H627L624 491L592 484Q565 479 554.5 469Q544 459 540 431L496 17Q490 -39 477 -79Q464 -119 439 -147Q414 -175 374.5 -195Q335 -215 276 -232Z" glyph-name="eng.smcp" horiz-adv-x="596" /><glyph d="M240 -241Q201 -241 179 -218.5Q157 -196 157 -157Q157 -116 183 -80Q209 -44 259 -15Q171 -13 118 41.5Q65 96 65 210Q65 271 82.5 323.5Q100 376 131.5 414.5Q163 453 207 475Q251 497 303 497Q364 497 399.5 470.5Q435 444 435 395Q435 349 402 319.5Q369 290 292 266L177 229Q177 140 209.5 98.5Q242 57 307 57Q337 57 364 67.5Q391 78 419 101L427 83Q408 58 386 38.5Q364 19 341 3Q292 -32 272 -66.5Q252 -101 252 -137Q252 -159 263 -173Q274 -187 293 -187Q307 -187 319 -183Q331 -179 347 -170L341 -196Q319 -220 293 -230.5Q267 -241 240 -241ZM180 282 241 292Q294 299 318 323Q342 347 342 388Q342 419 328.5 439Q315 459 288 459Q250 459 218.5 416Q187 373 180 282Z" glyph-name="eogonek" horiz-adv-x="437" unicode="&#281;" /><glyph d="M333 -248Q293 -248 270.5 -224.5Q248 -201 248 -161Q248 -119 282 -77Q316 -35 380 -3Q361 -2 339.5 -1Q318 0 302 0H24L26 27L62 34Q93 39 105.5 53Q118 67 121 100L147 393Q148 409 149 420Q150 431 150 435Q150 459 141 469.5Q132 480 104 484L65 491L68 518H496Q507 518 512.5 512.5Q518 507 518 498Q518 495 518 488.5Q518 482 517 474L506 358H483L479 387Q471 441 446.5 459.5Q422 478 365 478H268L251 294H390L410 368H433L417 178H394L387 253H247L229 48Q245 44 268 41Q291 38 315 38Q378 38 412.5 63.5Q447 89 470 148L479 172L502 168L469 16Q467 4 460 -1Q453 -6 440 -6Q437 -6 432.5 -6Q428 -6 422 -5Q379 -42 360.5 -75.5Q342 -109 342 -143Q342 -167 354.5 -180Q367 -193 389 -193Q399 -193 410.5 -189Q422 -185 438 -175L433 -199Q414 -222 387.5 -235Q361 -248 333 -248Z" glyph-name="eogonek.smcp" horiz-adv-x="524" /><glyph d="M102 410 106 468H449L444 410ZM85 210 89 268H432L427 210Z" glyph-name="equal" horiz-adv-x="475" unicode="=" /><glyph d="M364 -12Q299 -12 241.5 9.5Q184 31 141.5 70.5Q99 110 74 167.5Q49 225 49 297Q49 374 79 441Q109 508 159 556.5Q209 605 274.5 633Q340 661 411 661Q478 661 534 637.5Q590 614 630.5 573Q671 532 693.5 475Q716 418 716 352Q716 344 716 335.5Q716 327 715 319H167Q165 319 163.5 318Q162 317 162 315Q162 311 159.5 281Q157 251 154 216.5Q151 182 148.5 153.5Q146 125 146 125Q146 121 147.5 116.5Q149 112 151 109Q186 66 246.5 42Q307 18 367 18Q442 18 510.5 49Q579 80 622 131H660Q608 66 533 27Q458 -12 364 -12ZM169 348H600Q602 348 603 350Q604 352 604 353Q604 357 606.5 386Q609 415 612 447.5Q615 480 617.5 507Q620 534 620 534Q620 538 618.5 543Q617 548 614 552Q580 596 524.5 617Q469 638 411 638Q351 638 292.5 616.5Q234 595 191 549Q186 544 183.5 538.5Q181 533 180 526Q180 520 177.5 492.5Q175 465 172.5 434.5Q170 404 168 379Q166 354 166 353Q166 351 167 349.5Q168 348 169 348Z" glyph-name="estimated" horiz-adv-x="706" unicode="&#8494;" /><glyph d="M263 -14Q174 -14 119 47.5Q64 109 64 213Q64 275 83 327.5Q102 380 134.5 417Q167 454 211.5 474.5Q256 495 306 495Q324 495 344.5 490Q365 485 378 478Q373 509 359.5 541Q346 573 328 604L232 566L225 604L308 636Q289 663 268.5 687.5Q248 712 227 732L259 735Q282 719 306.5 699Q331 679 353 654L451 693L459 654L381 624Q437 557 473 467Q509 377 509 270Q509 208 490 155.5Q471 103 438 65.5Q405 28 360 7Q315 -14 263 -14ZM281 25Q328 25 357.5 93Q387 161 387 268Q387 356 360.5 406Q334 456 292 456Q245 456 215.5 389Q186 322 186 215Q186 127 212.5 76Q239 25 281 25Z" glyph-name="eth" horiz-adv-x="531" unicode="&#240;" /><glyph d="M24 0 26 27 62 34Q93 39 105.5 53Q118 67 121 100L134 249H76L79 287H138L147 393Q148 409 149 420Q150 431 150 435Q150 459 141 469.5Q132 480 104 484L65 491L68 518H228Q384 518 475.5 451Q567 384 567 261Q567 130 480 65Q393 0 242 0ZM279 40Q363 40 402 96Q441 152 441 256Q441 361 391.5 415.5Q342 470 269 476L252 287H350L346 249H249L231 48Q239 45 253.5 42.5Q268 40 279 40Z" glyph-name="eth.smcp" horiz-adv-x="586" /><glyph d="M149 190 132 571Q131 593 130 607.5Q129 622 129 627Q129 641 145.5 647.5Q162 654 197 654Q230 654 249.5 640.5Q269 627 269 597Q269 589 266.5 573.5Q264 558 261 542L181 190ZM147 -8Q122 -8 106.5 7.5Q91 23 91 51Q91 85 111 106.5Q131 128 159 128Q184 128 200 112Q216 96 216 68Q216 35 196 13.5Q176 -8 147 -8Z" glyph-name="exclam" horiz-adv-x="299" unicode="!" /><glyph d="M135 170 112 457Q111 474 110.5 485.5Q110 497 110 501Q110 513 129 522Q148 531 179 531Q212 531 227.5 516.5Q243 502 243 477Q243 465 241 451Q239 437 236 425L166 170ZM135 -8Q111 -8 96 7.5Q81 23 81 48Q81 80 100 100.5Q119 121 147 121Q171 121 185.5 105.5Q200 90 200 65Q200 34 181.5 13Q163 -8 135 -8Z" glyph-name="exclam.smcp" horiz-adv-x="270" /><glyph d="M194 493Q219 493 234.5 477.5Q250 462 250 434Q250 400 230 378.5Q210 357 182 357Q157 357 141 373Q125 389 125 417Q125 450 145 471.5Q165 493 194 493ZM192 295 209 -86Q210 -108 211 -122.5Q212 -137 212 -142Q212 -156 195.5 -162.5Q179 -169 144 -169Q111 -169 91.5 -155.5Q72 -142 72 -112Q72 -104 74.5 -88.5Q77 -73 80 -57L160 295Z" glyph-name="exclamdown" horiz-adv-x="299" unicode="&#161;" /><glyph d="M209 655Q234 655 249.5 639.5Q265 624 265 596Q265 562 245 540.5Q225 519 197 519Q172 519 156 535Q140 551 140 579Q140 612 160 633.5Q180 655 209 655ZM207 457 224 76Q225 54 226 39.5Q227 25 227 20Q227 6 210.5 -0.5Q194 -7 159 -7Q126 -7 106.5 6.5Q87 20 87 50Q87 58 89.5 73.5Q92 89 95 105L175 457Z" glyph-name="exclamdown.case" horiz-adv-x="299" /><glyph d="M181 525Q205 525 220 509.5Q235 494 235 469Q235 437 216 416.5Q197 396 169 396Q145 396 130.5 411.5Q116 427 116 452Q116 483 134.5 504Q153 525 181 525ZM181 347 204 60Q205 43 205.5 31.5Q206 20 206 16Q206 4 187 -5Q168 -14 137 -14Q104 -14 88.5 0.5Q73 15 73 40Q73 52 75 66Q77 80 80 92L150 347Z" glyph-name="exclamdown.smcp" horiz-adv-x="270" /><glyph d="M35 -246Q0 -246 -17 -230.5Q-34 -215 -34 -191Q-34 -177 -25.5 -167.5Q-17 -158 -6 -158Q-4 -158 -1 -159Q2 -160 9 -164L77 -197Q93 -166 99 -129.5Q105 -93 108 -30L128 430H78L79 466L107 475Q120 479 125.5 484.5Q131 490 132 502L135 527Q139 571 156 610.5Q173 650 198.5 679Q224 708 257 725Q290 742 326 742Q363 742 387 726Q411 710 411 682Q411 663 399.5 651.5Q388 640 372 640Q367 640 363.5 642Q360 644 356 648L290 706Q265 681 256.5 646Q248 611 244 546L241 477L359 482L353 453Q350 439 344 434Q338 429 323 429H240L224 59Q221 -12 204 -68.5Q187 -125 160.5 -164.5Q134 -204 101 -225Q68 -246 35 -246Z" glyph-name="f" horiz-adv-x="322" unicode="f" /><glyph d="M24 0 26 27 62 34Q93 39 105.5 53Q118 67 121 100L147 393Q148 409 149 420Q150 431 150 435Q150 459 141 469.5Q132 480 104 484L65 491L68 518H488Q500 518 506.5 513Q513 508 513 498Q513 496 512 489Q511 482 510 471L500 358H477L473 383Q466 436 440.5 456Q415 476 358 476H269L252 286H382L402 360H426L408 172H385L378 246H248L231 41L344 29L342 0Z" glyph-name="f.smcp" horiz-adv-x="500" /><glyph d="M36 -246Q-4 -246 -21.5 -229Q-39 -212 -39 -188Q-39 -173 -30 -162.5Q-21 -152 -7 -152Q-3 -152 0 -153Q3 -154 9 -158L74 -197Q90 -167 98 -131.5Q106 -96 109 -30L127 430H81V466L108 475Q121 479 126 484.5Q131 490 132 502L133 524Q135 567 152 606Q169 645 196 674.5Q223 704 259.5 721.5Q296 739 338 739Q357 739 379 734.5Q401 730 417 723Q447 729 482 733Q517 737 548 737H565Q558 697 551.5 641.5Q545 586 539 530L524 379Q552 433 589 465Q626 497 666 497Q739 497 777 440.5Q815 384 815 291Q815 224 797.5 168Q780 112 747.5 72Q715 32 668.5 10Q622 -12 565 -12Q505 -12 456 1.5Q407 15 376 42Q379 60 382.5 83Q386 106 389 131Q392 156 395 180.5Q398 205 400 225L432 567Q433 576 433 585Q433 594 433 599Q433 615 428.5 622.5Q424 630 412 637L296 702Q271 678 258 643.5Q245 609 243 543L240 477L358 482L352 453Q350 438 343.5 433.5Q337 429 323 429H239L219 50Q216 -15 199 -70Q182 -125 157 -164Q132 -203 100.5 -224.5Q69 -246 36 -246ZM577 26Q629 26 661.5 93Q694 160 694 267Q694 341 675 381Q656 421 622 421Q584 421 550.5 350.5Q517 280 507 156L500 72Q512 51 531 38.5Q550 26 577 26Z" glyph-name="f_b" horiz-adv-x="838" /><glyph d="M34 -246Q-4 -246 -22 -229Q-40 -212 -40 -188Q-40 -173 -31 -162Q-22 -151 -8 -151Q-6 -151 -3 -152.5Q0 -154 7 -158L74 -197Q90 -166 97 -130Q104 -94 107 -30L128 430H82L83 466L109 475Q122 479 127 484.5Q132 490 133 502L135 518Q139 561 155.5 600Q172 639 197 668.5Q222 698 255 715.5Q288 733 326 733Q363 733 387 717.5Q411 702 411 673Q411 654 399.5 642.5Q388 631 372 631Q367 631 363.5 633Q360 635 356 639L290 697Q265 673 256.5 638.5Q248 604 245 537L242 477H415L420 527Q424 570 440.5 609Q457 648 482 677.5Q507 707 540 724.5Q573 742 611 742Q648 742 672 726Q696 710 696 682Q696 663 684.5 651.5Q673 640 657 640Q652 640 648.5 642Q645 644 641 648L576 706Q551 682 542.5 647.5Q534 613 530 546L526 477L644 482L638 453Q635 438 629 433.5Q623 429 608 429H525L506 108Q502 42 485 -12.5Q468 -67 443 -106Q418 -145 386.5 -166.5Q355 -188 322 -188Q284 -188 266 -171Q248 -154 248 -130Q248 -116 257 -104.5Q266 -93 280 -93Q282 -93 285 -94.5Q288 -96 295 -100L363 -139Q379 -109 386 -73Q393 -37 396 27L413 429H240L217 50Q213 -15 196.5 -70Q180 -125 155 -164Q130 -203 98.5 -224.5Q67 -246 34 -246Z" glyph-name="f_f" horiz-adv-x="604" unicode="&#64256;" /><glyph d="M34 -246Q-4 -246 -22 -229Q-40 -212 -40 -188Q-40 -173 -31 -162Q-22 -151 -8 -151Q-6 -151 -3 -152.5Q0 -154 7 -158L74 -197Q90 -166 97 -130Q104 -94 107 -30L128 430H82L83 466L109 475Q122 479 127 484.5Q132 490 133 502L135 518Q139 561 155.5 600Q172 639 197 668.5Q222 698 255 715.5Q288 733 326 733Q363 733 387 717.5Q411 702 411 673Q411 654 399.5 642.5Q388 631 372 631Q367 631 363.5 633Q360 635 356 639L290 697Q265 673 256.5 638.5Q248 604 245 537L242 477L415 478L419 528Q423 571 440.5 609.5Q458 648 485.5 677.5Q513 707 550 724.5Q587 742 629 742Q647 742 665.5 738Q684 734 701 727Q730 731 765 734Q800 737 831 737H849Q842 697 835 641.5Q828 586 822 530L807 379Q835 433 872 465Q909 497 949 497Q1022 497 1060 440.5Q1098 384 1098 291Q1098 224 1080.5 168Q1063 112 1031 72Q999 32 952.5 10Q906 -12 849 -12Q789 -12 740 1.5Q691 15 659 42Q662 60 665.5 83Q669 106 672 131Q675 156 678 180.5Q681 205 683 225L715 567Q716 575 716.5 583Q717 591 717 595Q717 610 712 620.5Q707 631 696 637L585 702Q560 678 546 643.5Q532 609 529 543L525 477L644 482L638 453Q635 438 629 433.5Q623 429 608 429H525L508 157Q504 92 487 37Q470 -18 445 -57Q420 -96 388.5 -117.5Q357 -139 324 -139Q286 -139 268 -122Q250 -105 250 -81Q250 -67 259 -55.5Q268 -44 282 -44Q284 -44 287 -45.5Q290 -47 297 -51L365 -90Q381 -60 388 -24Q395 12 397 76L413 429H240L217 50Q213 -15 196.5 -70Q180 -125 155 -164Q130 -203 98.5 -224.5Q67 -246 34 -246ZM861 26Q913 26 945.5 93Q978 160 978 267Q978 341 958.5 381Q939 421 905 421Q867 421 833.5 350.5Q800 280 790 156L783 72Q795 51 814 38.5Q833 26 861 26Z" glyph-name="f_f_b" horiz-adv-x="1121" /><glyph d="M34 -246Q-4 -246 -22 -229Q-40 -212 -40 -188Q-40 -173 -31 -162Q-22 -151 -8 -151Q-6 -151 -3 -152.5Q0 -154 7 -158L74 -197Q90 -166 97 -130Q104 -94 107 -30L128 430H82L83 466L109 475Q122 479 127 484.5Q132 490 133 502L135 518Q139 561 155.5 600Q172 639 197 668.5Q222 698 255 715.5Q288 733 326 733Q363 733 387 717.5Q411 702 411 673Q411 654 399.5 642.5Q388 631 372 631Q367 631 363.5 633Q360 635 356 639L290 697Q265 673 256.5 638.5Q248 604 245 537L242 477L415 478L419 528Q423 571 440.5 609.5Q458 648 485.5 677.5Q513 707 550 724.5Q587 742 629 742Q647 742 665.5 738Q684 734 701 727Q730 731 765 734Q800 737 831 737H849Q842 700 835 645.5Q828 591 822 530L807 380Q844 434 886.5 465.5Q929 497 971 497Q1023 497 1052 465.5Q1081 434 1081 370Q1081 362 1078.5 329.5Q1076 297 1072 268L1056 142Q1053 117 1051.5 98.5Q1050 80 1050 73Q1050 51 1065 42.5Q1080 34 1119 33L1117 8Q1092 1 1070.5 -3.5Q1049 -8 1032 -8Q984 -8 961 13.5Q938 35 938 76Q938 84 940 106Q942 128 944 147L963 280Q966 305 967.5 328.5Q969 352 969 363Q969 395 958 410.5Q947 426 924 426Q875 426 836.5 351Q798 276 785 110L779 31Q778 15 770 7.5Q762 0 748 0H654Q661 40 669 93.5Q677 147 681 198L715 567Q716 575 716.5 583Q717 591 717 595Q717 610 712 620.5Q707 631 696 637L585 702Q560 678 546 643.5Q532 609 529 543L525 477L644 482L638 453Q635 438 629 433.5Q623 429 608 429H525L508 157Q504 92 487 37Q470 -18 445 -57Q420 -96 388.5 -117.5Q357 -139 324 -139Q286 -139 268 -122Q250 -105 250 -81Q250 -67 259 -55.5Q268 -44 282 -44Q284 -44 287 -45.5Q290 -47 297 -51L365 -90Q381 -60 388 -24Q395 12 397 76L413 429H240L217 50Q213 -15 196.5 -70Q180 -125 155 -164Q130 -203 98.5 -224.5Q67 -246 34 -246Z" glyph-name="f_f_h" horiz-adv-x="1126" /><glyph d="M34 -246Q-4 -246 -22 -229Q-40 -212 -40 -188Q-40 -173 -31 -162Q-22 -151 -8 -151Q-6 -151 -3 -152.5Q0 -154 7 -158L74 -197Q90 -166 97 -130Q104 -94 107 -30L128 430H82L83 466L109 475Q122 479 127 484.5Q132 490 133 502L135 518Q139 561 155.5 600Q172 639 197 668.5Q222 698 255 715.5Q288 733 326 733Q363 733 387 717.5Q411 702 411 673Q411 654 399.5 642.5Q388 631 372 631Q367 631 363.5 633Q360 635 356 639L290 697Q265 673 256.5 638.5Q248 604 245 537L242 477L416 478L420 528Q424 571 443.5 609.5Q463 648 492 677.5Q521 707 557.5 724.5Q594 742 633 742Q668 742 699 735.5Q730 729 752.5 716.5Q775 704 788.5 686.5Q802 669 802 647Q802 619 786.5 605.5Q771 592 750 592Q740 592 735 594Q730 596 718 605L602 701Q569 684 551.5 646.5Q534 609 530 543L527 477Q550 478 582.5 479Q615 480 645.5 481Q676 482 699.5 482.5Q723 483 728 483Q761 484 779 468Q797 452 797 415Q797 410 796 387.5Q795 365 793 340L773 142Q771 116 770 98.5Q769 81 769 74Q769 53 783 44Q797 35 839 35L837 10Q814 2 790 -3Q766 -8 747 -8Q701 -8 679 14Q657 36 657 79Q657 85 658.5 103.5Q660 122 663 152L680 332Q681 348 682.5 368Q684 388 684 394Q684 408 679.5 417Q675 426 665 429H525L508 157Q504 92 487 37Q470 -18 445 -57Q420 -96 388.5 -117.5Q357 -139 324 -139Q286 -139 268 -122Q250 -105 250 -81Q250 -67 259 -55.5Q268 -44 282 -44Q284 -44 287 -45.5Q290 -47 297 -51L365 -90Q381 -60 388 -24Q395 12 397 76L413 429H240L217 50Q213 -15 196.5 -70Q180 -125 155 -164Q130 -203 98.5 -224.5Q67 -246 34 -246Z" glyph-name="f_f_i" horiz-adv-x="847" unicode="&#64259;" /><glyph d="M579 -246Q542 -246 522 -229.5Q502 -213 502 -189Q502 -173 510 -162.5Q518 -152 531 -152Q532 -152 534.5 -153Q537 -154 542 -156L621 -196Q636 -159 642.5 -124Q649 -89 653 -27L680 332Q681 348 682.5 368Q684 388 684 394Q684 408 679.5 417Q675 426 665 429H525L508 157Q504 92 487 37Q470 -18 445 -57Q420 -96 388.5 -117.5Q357 -139 324 -139Q286 -139 268 -122Q250 -105 250 -81Q250 -67 259 -55.5Q268 -44 282 -44Q284 -44 287 -45.5Q290 -47 297 -51L365 -90Q381 -60 388 -24Q395 12 397 76L413 429H240L217 50Q213 -15 196.5 -70Q180 -125 155 -164Q130 -203 98.5 -224.5Q67 -246 34 -246Q-4 -246 -22 -229Q-40 -212 -40 -188Q-40 -173 -31 -162Q-22 -151 -8 -151Q-6 -151 -3 -152.5Q0 -154 7 -158L74 -197Q90 -166 97 -130Q104 -94 107 -30L128 430H82L83 466L109 475Q122 479 127 484.5Q132 490 133 502L135 518Q139 561 155.5 600Q172 639 197 668.5Q222 698 255 715.5Q288 733 326 733Q363 733 387 717.5Q411 702 411 673Q411 654 399.5 642.5Q388 631 372 631Q367 631 363.5 633Q360 635 356 639L290 697Q265 673 256.5 638.5Q248 604 245 537L242 477H415L420 528Q425 571 444.5 609.5Q464 648 492.5 677.5Q521 707 557.5 724.5Q594 742 633 742Q668 742 699 735.5Q730 729 752.5 716.5Q775 704 788.5 686.5Q802 669 802 647Q802 619 786.5 605.5Q771 592 750 592Q740 592 735 594Q730 596 718 605L602 701Q569 684 551.5 646.5Q534 609 530 543L527 477Q550 478 582.5 479Q615 480 645.5 481Q676 482 699.5 482.5Q723 483 728 483Q761 484 779 468Q797 452 797 415Q797 410 796 387.5Q795 365 793 340L771 70Q765 -1 747 -59.5Q729 -118 703.5 -159Q678 -200 646 -223Q614 -246 579 -246Z" glyph-name="f_f_j" horiz-adv-x="839" /><glyph d="M34 -246Q-4 -246 -22 -229Q-40 -212 -40 -188Q-40 -173 -31 -162Q-22 -151 -8 -151Q-6 -151 -3 -152.5Q0 -154 7 -158L74 -197Q90 -166 97 -130Q104 -94 107 -30L128 430H82L83 466L109 475Q122 479 127 484.5Q132 490 133 502L135 518Q139 561 155.5 600Q172 639 197 668.5Q222 698 255 715.5Q288 733 326 733Q363 733 387 717.5Q411 702 411 673Q411 654 399.5 642.5Q388 631 372 631Q367 631 363.5 633Q360 635 356 639L290 697Q265 673 256.5 638.5Q248 604 245 537L242 477L415 478L419 528Q423 571 440.5 609.5Q458 648 485.5 677.5Q513 707 550 724.5Q587 742 629 742Q647 742 665.5 738Q684 734 701 727Q730 731 765 734Q800 737 831 737H849Q842 698 835 643.5Q828 589 823 530L801 277Q864 301 906.5 327.5Q949 354 983 394L966 459Q964 468 963 472Q962 476 962 477Q962 484 973.5 489Q985 494 1002 494Q1027 494 1042 478.5Q1057 463 1057 437Q1057 401 1026.5 368Q996 335 927 295Q931 286 946 254.5Q961 223 978 188Q995 153 1010 122.5Q1025 92 1029 85Q1044 56 1054.5 44Q1065 32 1084 31H1097L1095 7Q1082 0 1057 -5.5Q1032 -11 1012 -11Q971 -11 950 6Q929 23 909 69Q907 75 896 100.5Q885 126 872 156Q859 186 848 212.5Q837 239 835 246L797 223L780 34Q779 18 770.5 9Q762 0 747 0H655Q662 37 669 90Q676 143 681 197L715 567Q716 575 716.5 583Q717 591 717 595Q717 610 712 620.5Q707 631 696 637L585 702Q560 678 546 643.5Q532 609 529 543L525 477L644 482L638 453Q635 438 629 433.5Q623 429 608 429H525L508 157Q504 92 487 37Q470 -18 445 -57Q420 -96 388.5 -117.5Q357 -139 324 -139Q286 -139 268 -122Q250 -105 250 -81Q250 -67 259 -55.5Q268 -44 282 -44Q284 -44 287 -45.5Q290 -47 297 -51L365 -90Q381 -60 388 -24Q395 12 397 76L413 429H240L217 50Q213 -15 196.5 -70Q180 -125 155 -164Q130 -203 98.5 -224.5Q67 -246 34 -246Z" glyph-name="f_f_k" horiz-adv-x="1076" /><glyph d="M34 -246Q-4 -246 -22 -229Q-40 -212 -40 -188Q-40 -173 -31 -162Q-22 -151 -8 -151Q-6 -151 -3 -152.5Q0 -154 7 -158L74 -197Q90 -166 97 -130Q104 -94 107 -30L128 430H82L83 466L109 475Q122 479 127 484.5Q132 490 133 502L135 518Q139 561 155.5 600Q172 639 197 668.5Q222 698 255 715.5Q288 733 326 733Q363 733 387 717.5Q411 702 411 673Q411 654 399.5 642.5Q388 631 372 631Q367 631 363.5 633Q360 635 356 639L290 697Q265 673 256.5 638.5Q248 604 245 537L242 478H415L419 528Q423 571 440.5 609.5Q458 648 485.5 677.5Q513 707 550 724.5Q587 742 629 742Q647 742 665.5 738Q684 734 701 727Q730 731 765 734Q800 737 831 737H849Q841 697 834 641Q827 585 822 530L787 142Q785 116 784 98.5Q783 81 783 74Q783 53 797 44Q811 35 853 35L851 10Q827 3 803 -2.5Q779 -8 761 -8Q715 -8 693.5 13Q672 34 672 77Q672 83 673.5 102.5Q675 122 677 152L715 567Q716 575 716.5 583Q717 591 717 595Q717 610 712 620.5Q707 631 696 637L585 702Q560 678 546 643.5Q532 609 529 543L525 477L644 482L638 453Q635 438 629 433.5Q623 429 608 429H525L508 157Q504 92 487 37Q470 -18 445 -57Q420 -96 388.5 -117.5Q357 -139 324 -139Q286 -139 268 -122Q250 -105 250 -81Q250 -67 259 -55.5Q268 -44 282 -44Q284 -44 287 -45.5Q290 -47 297 -51L365 -90Q381 -60 388 -24Q395 12 397 76L413 429H240L217 50Q213 -15 196.5 -70Q180 -125 155 -164Q130 -203 98.5 -224.5Q67 -246 34 -246Z" glyph-name="f_f_l" horiz-adv-x="861" unicode="&#64260;" /><glyph d="M36 -246Q-4 -246 -21.5 -229Q-39 -212 -39 -188Q-39 -173 -30 -162.5Q-21 -152 -7 -152Q-3 -152 0 -153Q3 -154 9 -158L74 -197Q90 -167 98 -131.5Q106 -96 109 -30L127 430H81V466L108 475Q121 479 126 484.5Q131 490 132 502L133 524Q135 567 152 606Q169 645 196 674.5Q223 704 259.5 721.5Q296 739 338 739Q357 739 379 734.5Q401 730 417 723Q447 729 482 733Q517 737 548 737H566Q559 696 552 643.5Q545 591 539 530L524 380Q561 434 603.5 465.5Q646 497 688 497Q740 497 769 465.5Q798 434 798 370Q798 362 795.5 329.5Q793 297 789 268L773 142Q770 117 768.5 98.5Q767 80 767 73Q767 51 782 42.5Q797 34 836 33L834 8Q809 1 787.5 -3.5Q766 -8 749 -8Q701 -8 678 13.5Q655 35 655 76Q655 84 657 106Q659 128 661 147L680 280Q683 305 684.5 328.5Q686 352 686 363Q686 395 675 410.5Q664 426 641 426Q592 426 553 351Q514 276 502 110L496 31Q495 15 486.5 7.5Q478 0 465 0H371Q378 40 386 93.5Q394 147 398 198L432 567Q433 575 433 583Q433 591 433 595Q433 610 428.5 620Q424 630 412 637L296 702Q271 678 258 643.5Q245 609 243 543L240 477L358 482L352 453Q350 438 343.5 433.5Q337 429 323 429H239L219 50Q216 -15 199 -70Q182 -125 157 -164Q132 -203 100.5 -224.5Q69 -246 36 -246Z" glyph-name="f_h" horiz-adv-x="843" /><glyph d="M305 -246Q268 -246 248 -229.5Q228 -213 228 -189Q228 -173 236 -162.5Q244 -152 257 -152Q258 -152 260.5 -153Q263 -154 268 -156L347 -196Q362 -159 368.5 -124Q375 -89 379 -27L405 332Q406 348 407.5 368Q409 388 409 394Q409 408 404.5 417Q400 426 391 429H244L219 108Q214 42 197.5 -16Q181 -74 155 -117.5Q129 -161 94 -186Q59 -211 18 -211Q-22 -211 -41 -195Q-60 -179 -60 -152Q-60 -133 -49.5 -122Q-39 -111 -24 -111Q-20 -111 -16.5 -112.5Q-13 -114 -9 -117L56 -167Q77 -137 88.5 -99.5Q100 -62 104 4L132 430H84V466L113 475Q126 479 131 484.5Q136 490 137 502L140 524Q144 567 163 606Q182 645 211 674.5Q240 704 277 721.5Q314 739 354 739Q385 739 415 734Q445 729 468.5 718.5Q492 708 507 692Q522 676 523 654Q524 626 509.5 609Q495 592 471 592Q461 592 456 594Q451 596 439 605L324 701Q291 684 273 646.5Q255 609 250 543L246 477Q260 477 293 478Q326 479 360 480Q394 481 421.5 482Q449 483 453 483Q486 484 504.5 468Q523 452 523 415Q523 410 521 387.5Q519 365 518 340L496 70Q490 -1 472.5 -59.5Q455 -118 429.5 -159Q404 -200 372 -223Q340 -246 305 -246Z" glyph-name="f_j" horiz-adv-x="564" /><glyph d="M36 -246Q-4 -246 -21.5 -229Q-39 -212 -39 -188Q-39 -173 -30 -162.5Q-21 -152 -7 -152Q-3 -152 0 -153Q3 -154 9 -158L74 -197Q90 -167 98 -131.5Q106 -96 109 -30L127 430H81V466L108 475Q121 479 126 484.5Q131 490 132 502L133 524Q135 567 152 606Q169 645 196 674.5Q223 704 259.5 721.5Q296 739 338 739Q357 739 379 734.5Q401 730 417 723Q447 729 482 733Q517 737 548 737H566Q559 694 551.5 641.5Q544 589 539 530L517 277Q581 301 623 327.5Q665 354 699 394L682 459Q680 468 679 472Q678 476 678 477Q678 484 689.5 489Q701 494 718 494Q743 494 758 478.5Q773 463 773 437Q773 401 743 368Q713 335 644 295Q648 286 663 254.5Q678 223 695 188Q712 153 727 122.5Q742 92 746 85Q760 56 770.5 44Q781 32 800 31H814L812 7Q798 0 773 -5.5Q748 -11 729 -11Q687 -11 666 6Q645 23 625 69Q623 75 612 100.5Q601 126 588.5 156Q576 186 565 212.5Q554 239 551 246L513 223L496 31Q495 15 487 7.5Q479 0 466 0H370Q377 37 384.5 90Q392 143 397 197L432 567Q433 575 433 583Q433 591 433 595Q433 610 428.5 620Q424 630 412 637L296 702Q271 678 258 643.5Q245 609 243 543L240 477L358 482L352 453Q350 438 343.5 433.5Q337 429 323 429H239L219 50Q216 -15 199 -70Q182 -125 157 -164Q132 -203 100.5 -224.5Q69 -246 36 -246Z" glyph-name="f_k" horiz-adv-x="792" /><glyph d="M33 -246Q-8 -246 -25.5 -227.5Q-43 -209 -43 -186Q-43 -171 -34 -160Q-25 -149 -10 -149Q-6 -149 -3 -150Q0 -151 5 -155L71 -201Q89 -172 97 -134Q105 -96 108 -30L128 430H80V466L109 475Q122 479 127 484.5Q132 490 133 502L135 524Q138 567 157 606Q176 645 204.5 674.5Q233 704 270 721.5Q307 739 347 739Q378 739 408 734Q438 729 461.5 718.5Q485 708 500.5 692Q516 676 517 654Q518 626 503.5 609Q489 592 465 592Q455 592 450 594Q445 596 433 605L316 701Q284 684 266.5 646.5Q249 609 245 543L242 477Q265 478 298.5 479Q332 480 363 481Q394 482 418 482.5Q442 483 447 483Q480 484 498 468Q516 452 516 415Q516 410 515 387.5Q514 365 512 340L492 142Q490 116 489 98.5Q488 81 488 74Q488 53 502 44Q516 35 558 35L556 10Q533 2 509 -3Q485 -8 466 -8Q420 -8 398 14Q376 36 376 79Q376 85 377.5 103.5Q379 122 382 152L399 332Q400 348 401.5 368Q403 388 403 394Q403 408 398.5 417Q394 426 384 429H240L220 50Q217 -15 200.5 -70Q184 -125 159 -164Q134 -203 101 -224.5Q68 -246 33 -246Z" glyph-name="fi" horiz-adv-x="566" unicode="&#64257;" /><glyph d="M24 0 26 27 62 34Q93 39 105.5 53Q118 67 121 100L147 393Q148 409 149 420Q150 431 150 435Q150 459 141 469.5Q132 480 104 484L65 491L68 518H488Q500 518 506.5 513Q513 508 513 498Q513 496 512 489Q511 482 510 471L500 358H477L473 383Q466 436 440.5 456Q415 476 358 476H269L252 286H382L402 360H426L408 172H385L378 246H248L231 41L344 29L342 0ZM523 0 525 27 561 34Q592 39 604.5 53Q617 67 620 100L646 393Q647 409 648 420Q649 431 649 435Q649 459 639.5 469.5Q630 480 603 484L564 491L567 518H860L858 491L822 484Q791 479 778.5 465Q766 451 763 418L737 125Q736 109 735 98Q734 87 734 83Q734 59 743.5 48.5Q753 38 780 34L819 27L816 0Z" glyph-name="fi.smcp" horiz-adv-x="839" /><glyph d="M206 -14Q132 -14 85.5 21.5Q39 57 39 112Q39 137 53 151.5Q67 166 90 166Q112 166 117.5 161Q123 156 127 137L146 43Q158 35 171 30.5Q184 26 202 26Q249 26 278 59.5Q307 93 307 150Q307 221 253.5 263.5Q200 306 107 313L159 646H362Q388 646 400.5 651Q413 656 425 675L432 684L455 681L433 574Q429 554 418 546Q407 538 388 538H189L166 397Q223 394 271 379.5Q319 365 353.5 339Q388 313 407.5 275.5Q427 238 427 190Q427 94 365 40Q303 -14 206 -14Z" glyph-name="five" horiz-adv-x="463" unicode="5" /><glyph d="M120 -13Q82 -13 55.5 7Q29 27 29 57Q29 71 38 80.5Q47 90 61 90Q74 90 77.5 87Q81 84 82 73L88 19Q95 14 103 11.5Q111 9 121 9Q148 9 163.5 27Q179 45 179 76Q179 116 151.5 135.5Q124 155 70 156L97 350H218Q231 350 238 353Q245 356 251 365L255 371L268 369L255 306Q252 294 246.5 289.5Q241 285 231 285H114L104 212Q175 212 214.5 182.5Q254 153 254 101Q254 51 216.5 19Q179 -13 120 -13Z" glyph-name="five.dnom" horiz-adv-x="271" /><glyph d="M166 -193Q91 -193 50 -156.5Q9 -120 9 -69Q9 -44 25.5 -30Q42 -16 64 -16Q84 -16 89 -20.5Q94 -25 97 -44L113 -143Q123 -148 133 -152Q143 -156 160 -156Q214 -156 245 -121Q276 -86 276 -23Q276 50 230.5 93.5Q185 137 89 147L147 478H333Q361 478 374.5 484Q388 490 398 507L404 517L429 514L407 402Q403 381 393 373Q383 365 364 365Q356 365 342.5 366Q329 367 313.5 368Q298 369 282.5 370Q267 371 255 371H176L150 227Q265 220 331 164Q397 108 397 15Q397 -33 380 -71.5Q363 -110 332.5 -137Q302 -164 259 -178.5Q216 -193 166 -193Z" glyph-name="five.osf" horiz-adv-x="447" /><glyph d="M192 -14Q122 -14 84 17.5Q46 49 46 90Q46 110 58.5 126Q71 142 93 142Q112 142 118.5 138Q125 134 128 119L144 39Q154 34 165.5 30.5Q177 27 193 27Q230 27 254.5 51.5Q279 76 279 121Q279 176 232.5 206.5Q186 237 110 238L150 518H329Q351 518 362 521.5Q373 525 383 540L389 549L414 546L393 443Q389 427 380 421Q371 415 354 415H181L166 318Q268 318 332 274.5Q396 231 396 153Q396 73 342 29.5Q288 -14 192 -14Z" glyph-name="five.smcp" horiz-adv-x="442" /><glyph d="M154 370Q116 370 89.5 390Q63 410 63 440Q63 454 72 463.5Q81 473 95 473Q108 473 111.5 470Q115 467 116 456L122 402Q129 397 137 394.5Q145 392 155 392Q182 392 197.5 410Q213 428 213 459Q213 499 185.5 518.5Q158 538 104 539L131 733H252Q265 733 272 736Q279 739 285 748L289 754L302 752L289 689Q286 677 280.5 672.5Q275 668 265 668H148L138 595Q209 595 248.5 565.5Q288 536 288 484Q288 434 250.5 402Q213 370 154 370Z" glyph-name="five.sup" horiz-adv-x="271" /><glyph d="M207 -14Q133 -14 86.5 21.5Q40 57 40 112Q40 137 54 151.5Q68 166 91 166Q113 166 118.5 161Q124 156 128 137L147 43Q159 35 172 30.5Q185 26 203 26Q250 26 279 59.5Q308 93 308 150Q308 221 254.5 263.5Q201 306 108 313L160 646H363Q389 646 401.5 651Q414 656 426 675L433 684L456 681L434 574Q430 554 419 546Q408 538 389 538H190L167 397Q224 394 272 379.5Q320 365 354.5 339Q389 313 408.5 275.5Q428 238 428 190Q428 94 366 40Q304 -14 207 -14Z" glyph-name="five.tf" horiz-adv-x="475" /><glyph d="M180 -193Q105 -193 64 -156.5Q23 -120 23 -69Q23 -44 39.5 -30Q56 -16 78 -16Q98 -16 103 -20.5Q108 -25 111 -44L127 -143Q137 -148 147 -152Q157 -156 174 -156Q228 -156 259 -121Q290 -86 290 -23Q290 50 244.5 93.5Q199 137 103 147L161 478H347Q375 478 388.5 484Q402 490 412 507L418 517L443 514L421 402Q417 381 407 373Q397 365 378 365Q370 365 356.5 366Q343 367 327.5 368Q312 369 296.5 370Q281 371 269 371H190L164 227Q279 220 345 164Q411 108 411 15Q411 -33 394 -71.5Q377 -110 346.5 -137Q316 -164 273 -178.5Q230 -193 180 -193Z" glyph-name="five.tosf" horiz-adv-x="475" /><glyph d="M36 -246Q-4 -246 -21.5 -229Q-39 -212 -39 -188Q-39 -173 -30 -162.5Q-21 -152 -7 -152Q-3 -152 0 -153Q3 -154 9 -158L74 -197Q90 -167 98 -131.5Q106 -96 109 -30L127 430H81V466L108 475Q121 479 126 484.5Q131 490 132 502L133 524Q135 567 152 606Q169 645 196 674.5Q223 704 259.5 721.5Q296 739 338 739Q357 739 379 734.5Q401 730 417 723Q447 728 482 731Q517 734 548 734H565Q558 693 550.5 637Q543 581 539 527L504 142Q502 116 501 98.5Q500 81 500 74Q500 53 514 44Q528 35 570 35L568 10Q544 3 520 -2.5Q496 -8 478 -8Q432 -8 410.5 13Q389 34 389 77Q389 83 390.5 102.5Q392 122 394 152L432 567Q433 575 433 583Q433 591 433 595Q433 610 428.5 620Q424 630 412 637L296 702Q271 678 258 643.5Q245 609 243 543L240 477L358 482L352 453Q350 438 343.5 433.5Q337 429 323 429H239L219 50Q216 -15 199 -70Q182 -125 157 -164Q132 -203 100.5 -224.5Q69 -246 36 -246Z" glyph-name="fl" horiz-adv-x="578" unicode="&#64258;" /><glyph d="M24 0 26 27 62 34Q93 39 105.5 53Q118 67 121 100L147 393Q148 409 149 420Q150 431 150 435Q150 459 141 469.5Q132 480 104 484L65 491L68 518H488Q500 518 506.5 513Q513 508 513 498Q513 496 512 489Q511 482 510 471L500 358H477L473 383Q466 436 440.5 456Q415 476 358 476H269L252 286H382L402 360H426L408 172H385L378 246H248L231 41L344 29L342 0ZM918 -6Q914 -6 897 -5Q880 -4 858.5 -3Q837 -2 814 -1Q791 0 775 0H523L525 27L561 34Q592 39 604.5 53Q617 67 620 100L646 393Q647 409 648 420Q649 431 649 435Q649 459 640 469.5Q631 480 603 484L564 491L567 518H879L877 488L768 478L731 48Q741 46 759 43Q777 40 794 40Q854 40 888 69.5Q922 99 948 162L962 197L985 193L949 15Q947 4 939 -1Q931 -6 918 -6Z" glyph-name="fl.smcp" horiz-adv-x="991" /><glyph d="M165 0 168 31 271 42 283 176H50L49 205L309 615Q321 633 334 639Q347 645 368 646L441 651Q435 618 428.5 570Q422 522 418 475L399 252H481L465 176H392L386 111Q385 95 384.5 87Q384 79 384 75Q384 57 390.5 49Q397 41 413 38L468 27L466 0ZM132 252H289L315 541Z" glyph-name="four" horiz-adv-x="515" unicode="4" /><glyph d="M97 -6 98 12 152 17 159 89H25L26 107L171 333Q178 343 184.5 346Q191 349 202 350L251 353Q248 335 245 308.5Q242 282 240 255L229 134H276L268 89H225L223 68Q222 55 221 46.5Q220 38 220 35Q220 26 224 21Q228 16 236 15L260 9L259 -6ZM75 134H163L177 294Z" glyph-name="four.dnom" horiz-adv-x="288" /><glyph d="M243 -183 260 11H24L23 46L286 443Q298 461 309.5 469Q321 477 340 478L421 483Q415 453 408.5 407.5Q402 362 398 320L377 84H462L449 11H371L355 -174ZM102 84H266L291 370Z" glyph-name="four.osf" horiz-adv-x="477" /><glyph d="M156 0 158 28 244 39 252 135H44L43 161L272 494Q283 510 295.5 515.5Q308 521 326 522L407 526Q402 499 395.5 458.5Q389 418 385 380L369 203H444L428 135H363L361 118Q360 105 359 95Q358 85 358 81Q358 59 367.5 48.5Q377 38 403 34L443 27L441 0ZM128 203H258L277 422Z" glyph-name="four.smcp" horiz-adv-x="480" /><glyph d="M131 377 132 395 186 400 193 472H59L60 490L205 716Q212 726 218.5 729Q225 732 236 733L285 736Q282 718 279 691.5Q276 665 274 638L263 517H310L302 472H259L257 451Q256 438 255 429.5Q254 421 254 418Q254 409 258 404Q262 399 270 398L294 392L293 377ZM109 517H197L211 677Z" glyph-name="four.sup" horiz-adv-x="289" /><glyph d="M142 0 145 31 248 42 260 176H27L26 205L286 615Q298 633 311 639Q324 645 345 646L418 651Q412 618 405.5 570Q399 522 395 475L376 252H458L442 176H369L363 111Q362 95 361.5 87Q361 79 361 75Q361 57 367.5 49Q374 41 390 38L445 27L443 0ZM109 252H266L292 541Z" glyph-name="four.tf" horiz-adv-x="475" /><glyph d="M248 -183 265 11H29L28 46L291 443Q303 461 314.5 469Q326 477 345 478L426 483Q420 453 413.5 407.5Q407 362 403 320L382 84H467L454 11H376L360 -174ZM107 84H271L296 370Z" glyph-name="four.tosf" horiz-adv-x="475" /><glyph d="M34 0H-24L347 646H405Z" glyph-name="fraction" horiz-adv-x="325" unicode="&#8260;" /><glyph d="M205 -249Q130 -249 85 -218Q40 -187 40 -138Q40 -115 55 -101Q70 -87 95 -87Q108 -87 111.5 -90.5Q115 -94 119 -107L140 -198Q155 -205 169.5 -207.5Q184 -210 203 -210Q263 -210 294.5 -166Q326 -122 338 -20L352 107Q324 54 287.5 20Q251 -14 211 -14Q142 -14 104 42Q66 98 66 197Q66 262 83.5 316.5Q101 371 132.5 410.5Q164 450 208 472.5Q252 495 305 495Q358 495 410.5 482Q463 469 496 450Q486 397 479.5 340.5Q473 284 468 224L449 6Q439 -115 372.5 -182Q306 -249 205 -249ZM250 59Q291 59 324 133.5Q357 208 367 329L374 416Q360 434 341 445.5Q322 457 296 457Q247 457 216 391.5Q185 326 185 216Q185 140 201.5 99.5Q218 59 250 59Z" glyph-name="g" horiz-adv-x="525" unicode="g" /><glyph d="M210 -249Q122 -249 73.5 -215Q25 -181 25 -127Q25 -87 57.5 -59Q90 -31 144 -24Q120 -16 105.5 3Q91 22 91 47Q91 78 121.5 106Q152 134 199 147Q142 155 109.5 200Q77 245 77 302Q77 389 134 443Q191 497 278 497Q302 497 320 493Q338 489 356 481L457 537Q464 540 468 541.5Q472 543 475 543Q480 543 484.5 533Q489 523 489 507Q489 479 473.5 466Q458 453 424 453Q414 453 400.5 455Q387 457 371 461Q408 440 428.5 399.5Q449 359 449 320Q449 240 397 191Q345 142 252 136Q226 135 206 121.5Q186 108 186 92Q186 76 199.5 66.5Q213 57 242 53L308 44Q386 33 421 4.5Q456 -24 456 -75Q456 -113 437.5 -145Q419 -177 386.5 -200Q354 -223 308.5 -236Q263 -249 210 -249ZM257 175Q294 175 315 215.5Q336 256 336 331Q336 385 317 422.5Q298 460 270 460Q233 460 212.5 418.5Q192 377 192 302Q192 250 210.5 212.5Q229 175 257 175ZM230 -212Q283 -212 318.5 -186Q354 -160 354 -120Q354 -92 330.5 -74.5Q307 -57 253 -47Q228 -43 210 -40.5Q192 -38 184 -38Q153 -38 135.5 -57.5Q118 -77 118 -109Q118 -152 148.5 -182Q179 -212 230 -212Z" glyph-name="g.alt" horiz-adv-x="488" /><glyph d="M304 -14Q191 -14 128 46.5Q65 107 65 225Q65 290 85.5 346.5Q106 403 143 444Q180 485 232 508.5Q284 532 346 532Q389 532 425 523.5Q461 515 485 505Q500 499 506 489Q512 479 512 466Q512 462 511 453Q510 444 509 435L501 347H477Q464 419 430 454.5Q396 490 340 490Q272 490 231 425Q190 360 190 244Q190 133 225 81Q260 29 326 29Q337 29 350 31Q363 33 374 37L389 198L318 206L320 236H540L537 206L522 204Q505 203 496.5 194Q488 185 486 161L475 54Q474 35 467 26Q460 17 444 11Q412 1 379 -6.5Q346 -14 304 -14Z" glyph-name="g.smcp" horiz-adv-x="555" /><glyph d="M309 551Q264 551 241.5 584Q219 617 219 686Q219 695 219 704.5Q219 714 220 724L241 728Q248 682 266.5 660Q285 638 317 638Q350 638 372.5 659.5Q395 681 411 728L430 724Q420 636 389.5 593.5Q359 551 309 551ZM205 -249Q130 -249 85 -218Q40 -187 40 -138Q40 -115 55 -101Q70 -87 95 -87Q108 -87 111.5 -90.5Q115 -94 119 -107L140 -198Q155 -205 169.5 -207.5Q184 -210 203 -210Q263 -210 294.5 -166Q326 -122 338 -20L352 107Q324 54 287.5 20Q251 -14 211 -14Q142 -14 104 42Q66 98 66 197Q66 262 83.5 316.5Q101 371 132.5 410.5Q164 450 208 472.5Q252 495 305 495Q358 495 410.5 482Q463 469 496 450Q486 397 479.5 340.5Q473 284 468 224L449 6Q439 -115 372.5 -182Q306 -249 205 -249ZM250 59Q291 59 324 133.5Q357 208 367 329L374 416Q360 434 341 445.5Q322 457 296 457Q247 457 216 391.5Q185 326 185 216Q185 140 201.5 99.5Q218 59 250 59Z" glyph-name="gbreve" horiz-adv-x="525" unicode="&#287;" /><glyph d="M279 551Q234 551 211.5 584Q189 617 189 686Q189 695 189 704.5Q189 714 190 724L211 728Q218 682 236.5 660Q255 638 287 638Q320 638 342.5 659.5Q365 681 381 728L400 724Q390 636 359.5 593.5Q329 551 279 551ZM210 -249Q122 -249 73.5 -215Q25 -181 25 -127Q25 -87 57.5 -59Q90 -31 144 -24Q120 -16 105.5 3Q91 22 91 47Q91 78 121.5 106Q152 134 199 147Q142 155 109.5 200Q77 245 77 302Q77 389 134 443Q191 497 278 497Q302 497 320 493Q338 489 356 481L457 537Q464 540 468 541.5Q472 543 475 543Q480 543 484.5 533Q489 523 489 507Q489 479 473.5 466Q458 453 424 453Q414 453 400.5 455Q387 457 371 461Q408 440 428.5 399.5Q449 359 449 320Q449 240 397 191Q345 142 252 136Q226 135 206 121.5Q186 108 186 92Q186 76 199.5 66.5Q213 57 242 53L308 44Q386 33 421 4.5Q456 -24 456 -75Q456 -113 437.5 -145Q419 -177 386.5 -200Q354 -223 308.5 -236Q263 -249 210 -249ZM257 175Q294 175 315 215.5Q336 256 336 331Q336 385 317 422.5Q298 460 270 460Q233 460 212.5 418.5Q192 377 192 302Q192 250 210.5 212.5Q229 175 257 175ZM230 -212Q283 -212 318.5 -186Q354 -160 354 -120Q354 -92 330.5 -74.5Q307 -57 253 -47Q228 -43 210 -40.5Q192 -38 184 -38Q153 -38 135.5 -57.5Q118 -77 118 -109Q118 -152 148.5 -182Q179 -212 230 -212Z" glyph-name="gbreve.alt" horiz-adv-x="488" /><glyph d="M324 566Q280 566 255 596.5Q230 627 230 684Q230 692 230 698.5Q230 705 231 712H251Q257 679 277 663.5Q297 648 331 648Q365 648 388.5 663.5Q412 679 424 712H444Q436 638 405.5 602Q375 566 324 566ZM304 -14Q191 -14 128 46.5Q65 107 65 225Q65 290 85.5 346.5Q106 403 143 444Q180 485 232 508.5Q284 532 346 532Q389 532 425 523.5Q461 515 485 505Q500 499 506 489Q512 479 512 466Q512 462 511 453Q510 444 509 435L501 347H477Q464 419 430 454.5Q396 490 340 490Q272 490 231 425Q190 360 190 244Q190 133 225 81Q260 29 326 29Q337 29 350 31Q363 33 374 37L389 198L318 206L320 236H540L537 206L522 204Q505 203 496.5 194Q488 185 486 161L475 54Q474 35 467 26Q460 17 444 11Q412 1 379 -6.5Q346 -14 304 -14Z" glyph-name="gbreve.smcp" horiz-adv-x="556" /><glyph d="M216 538 196 543 263 692Q272 712 281.5 719Q291 726 308 726H340Q358 726 366 719Q374 712 379 692L421 543L401 538L317 640ZM205 -249Q130 -249 85 -218Q40 -187 40 -138Q40 -115 55 -101Q70 -87 95 -87Q108 -87 111.5 -90.5Q115 -94 119 -107L140 -198Q155 -205 169.5 -207.5Q184 -210 203 -210Q263 -210 294.5 -166Q326 -122 338 -20L352 107Q324 54 287.5 20Q251 -14 211 -14Q142 -14 104 42Q66 98 66 197Q66 262 83.5 316.5Q101 371 132.5 410.5Q164 450 208 472.5Q252 495 305 495Q358 495 410.5 482Q463 469 496 450Q486 397 479.5 340.5Q473 284 468 224L449 6Q439 -115 372.5 -182Q306 -249 205 -249ZM250 59Q291 59 324 133.5Q357 208 367 329L374 416Q360 434 341 445.5Q322 457 296 457Q247 457 216 391.5Q185 326 185 216Q185 140 201.5 99.5Q218 59 250 59Z" glyph-name="gcircumflex" horiz-adv-x="525" unicode="&#285;" /><glyph d="M182 538 162 543 229 692Q238 712 247.5 719Q257 726 274 726H306Q324 726 332 719Q340 712 345 692L387 543L367 538L283 640ZM210 -249Q122 -249 73.5 -215Q25 -181 25 -127Q25 -87 57.5 -59Q90 -31 144 -24Q120 -16 105.5 3Q91 22 91 47Q91 78 121.5 106Q152 134 199 147Q142 155 109.5 200Q77 245 77 302Q77 389 134 443Q191 497 278 497Q302 497 320 493Q338 489 356 481L457 537Q464 540 468 541.5Q472 543 475 543Q480 543 484.5 533Q489 523 489 507Q489 479 473.5 466Q458 453 424 453Q414 453 400.5 455Q387 457 371 461Q408 440 428.5 399.5Q449 359 449 320Q449 240 397 191Q345 142 252 136Q226 135 206 121.5Q186 108 186 92Q186 76 199.5 66.5Q213 57 242 53L308 44Q386 33 421 4.5Q456 -24 456 -75Q456 -113 437.5 -145Q419 -177 386.5 -200Q354 -223 308.5 -236Q263 -249 210 -249ZM257 175Q294 175 315 215.5Q336 256 336 331Q336 385 317 422.5Q298 460 270 460Q233 460 212.5 418.5Q192 377 192 302Q192 250 210.5 212.5Q229 175 257 175ZM230 -212Q283 -212 318.5 -186Q354 -160 354 -120Q354 -92 330.5 -74.5Q307 -57 253 -47Q228 -43 210 -40.5Q192 -38 184 -38Q153 -38 135.5 -57.5Q118 -77 118 -109Q118 -152 148.5 -182Q179 -212 230 -212Z" glyph-name="gcircumflex.alt" horiz-adv-x="488" /><glyph d="M224 566 207 571 279 683Q290 702 299.5 709Q309 716 326 716H350Q367 716 375.5 709Q384 702 392 683L444 571L426 566L331 639ZM304 -14Q191 -14 128 46.5Q65 107 65 225Q65 290 85.5 346.5Q106 403 143 444Q180 485 232 508.5Q284 532 346 532Q389 532 425 523.5Q461 515 485 505Q500 499 506 489Q512 479 512 466Q512 462 511 453Q510 444 509 435L501 347H477Q464 419 430 454.5Q396 490 340 490Q272 490 231 425Q190 360 190 244Q190 133 225 81Q260 29 326 29Q337 29 350 31Q363 33 374 37L389 198L318 206L320 236H540L537 206L522 204Q505 203 496.5 194Q488 185 486 161L475 54Q474 35 467 26Q460 17 444 11Q412 1 379 -6.5Q346 -14 304 -14Z" glyph-name="gcircumflex.smcp" horiz-adv-x="556" /><glyph d="M310 559Q283 559 268.5 574.5Q254 590 254 618Q254 663 291 697Q328 731 398 753L402 737Q377 716 363 698.5Q349 681 341 660L361 599Q363 594 363.5 592Q364 590 364 589Q364 581 348 570Q332 559 310 559ZM205 -249Q130 -249 85 -218Q40 -187 40 -138Q40 -115 55 -101Q70 -87 95 -87Q108 -87 111.5 -90.5Q115 -94 119 -107L140 -198Q155 -205 169.5 -207.5Q184 -210 203 -210Q263 -210 294.5 -166Q326 -122 338 -20L352 107Q324 54 287.5 20Q251 -14 211 -14Q142 -14 104 42Q66 98 66 197Q66 262 83.5 316.5Q101 371 132.5 410.5Q164 450 208 472.5Q252 495 305 495Q358 495 410.5 482Q463 469 496 450Q486 397 479.5 340.5Q473 284 468 224L449 6Q439 -115 372.5 -182Q306 -249 205 -249ZM250 59Q291 59 324 133.5Q357 208 367 329L374 416Q360 434 341 445.5Q322 457 296 457Q247 457 216 391.5Q185 326 185 216Q185 140 201.5 99.5Q218 59 250 59Z" glyph-name="gcommaaccent" horiz-adv-x="525" unicode="&#291;" /><glyph d="M283 559Q256 559 241.5 574.5Q227 590 227 618Q227 663 264 697Q301 731 371 753L375 737Q350 716 336 698.5Q322 681 314 660L334 599Q336 594 336.5 592Q337 590 337 589Q337 581 321 570Q305 559 283 559ZM210 -249Q122 -249 73.5 -215Q25 -181 25 -127Q25 -87 57.5 -59Q90 -31 144 -24Q120 -16 105.5 3Q91 22 91 47Q91 78 121.5 106Q152 134 199 147Q142 155 109.5 200Q77 245 77 302Q77 389 134 443Q191 497 278 497Q302 497 320 493Q338 489 356 481L457 537Q464 540 468 541.5Q472 543 475 543Q480 543 484.5 533Q489 523 489 507Q489 479 473.5 466Q458 453 424 453Q414 453 400.5 455Q387 457 371 461Q408 440 428.5 399.5Q449 359 449 320Q449 240 397 191Q345 142 252 136Q226 135 206 121.5Q186 108 186 92Q186 76 199.5 66.5Q213 57 242 53L308 44Q386 33 421 4.5Q456 -24 456 -75Q456 -113 437.5 -145Q419 -177 386.5 -200Q354 -223 308.5 -236Q263 -249 210 -249ZM257 175Q294 175 315 215.5Q336 256 336 331Q336 385 317 422.5Q298 460 270 460Q233 460 212.5 418.5Q192 377 192 302Q192 250 210.5 212.5Q229 175 257 175ZM230 -212Q283 -212 318.5 -186Q354 -160 354 -120Q354 -92 330.5 -74.5Q307 -57 253 -47Q228 -43 210 -40.5Q192 -38 184 -38Q153 -38 135.5 -57.5Q118 -77 118 -109Q118 -152 148.5 -182Q179 -212 230 -212Z" glyph-name="gcommaaccent.alt" horiz-adv-x="488" /><glyph d="M304 -14Q191 -14 128 46.5Q65 107 65 225Q65 290 85.5 346.5Q106 403 143 444Q180 485 232 508.5Q284 532 346 532Q389 532 425 523.5Q461 515 485 505Q500 499 506 489Q512 479 512 466Q512 462 511 453Q510 444 509 435L501 347H477Q464 419 430 454.5Q396 490 340 490Q272 490 231 425Q190 360 190 244Q190 133 225 81Q260 29 326 29Q337 29 350 31Q363 33 374 37L389 198L318 206L320 236H540L537 206L522 204Q505 203 496.5 194Q488 185 486 161L475 54Q474 35 467 26Q460 17 444 11Q412 1 379 -6.5Q346 -14 304 -14ZM211 -258 207 -242Q234 -220 247 -202.5Q260 -185 267 -163L249 -110Q247 -103 246 -100Q245 -97 245 -95Q245 -84 260.5 -74.5Q276 -65 296 -65Q324 -65 338.5 -82Q353 -99 353 -125Q353 -167 319.5 -200Q286 -233 211 -258Z" glyph-name="gcommaaccent.smcp" horiz-adv-x="556" /><glyph d="M311 571Q283 571 267 587.5Q251 604 251 631Q251 664 271 685.5Q291 707 324 707Q351 707 367 690.5Q383 674 383 646Q383 613 363.5 592Q344 571 311 571ZM205 -249Q130 -249 85 -218Q40 -187 40 -138Q40 -115 55 -101Q70 -87 95 -87Q108 -87 111.5 -90.5Q115 -94 119 -107L140 -198Q155 -205 169.5 -207.5Q184 -210 203 -210Q263 -210 294.5 -166Q326 -122 338 -20L352 107Q324 54 287.5 20Q251 -14 211 -14Q142 -14 104 42Q66 98 66 197Q66 262 83.5 316.5Q101 371 132.5 410.5Q164 450 208 472.5Q252 495 305 495Q358 495 410.5 482Q463 469 496 450Q486 397 479.5 340.5Q473 284 468 224L449 6Q439 -115 372.5 -182Q306 -249 205 -249ZM250 59Q291 59 324 133.5Q357 208 367 329L374 416Q360 434 341 445.5Q322 457 296 457Q247 457 216 391.5Q185 326 185 216Q185 140 201.5 99.5Q218 59 250 59Z" glyph-name="gdotaccent" horiz-adv-x="525" unicode="&#289;" /><glyph d="M278 571Q250 571 234 587.5Q218 604 218 631Q218 664 238 685.5Q258 707 291 707Q318 707 334 690.5Q350 674 350 646Q350 613 330.5 592Q311 571 278 571ZM210 -249Q122 -249 73.5 -215Q25 -181 25 -127Q25 -87 57.5 -59Q90 -31 144 -24Q120 -16 105.5 3Q91 22 91 47Q91 78 121.5 106Q152 134 199 147Q142 155 109.5 200Q77 245 77 302Q77 389 134 443Q191 497 278 497Q302 497 320 493Q338 489 356 481L457 537Q464 540 468 541.5Q472 543 475 543Q480 543 484.5 533Q489 523 489 507Q489 479 473.5 466Q458 453 424 453Q414 453 400.5 455Q387 457 371 461Q408 440 428.5 399.5Q449 359 449 320Q449 240 397 191Q345 142 252 136Q226 135 206 121.5Q186 108 186 92Q186 76 199.5 66.5Q213 57 242 53L308 44Q386 33 421 4.5Q456 -24 456 -75Q456 -113 437.5 -145Q419 -177 386.5 -200Q354 -223 308.5 -236Q263 -249 210 -249ZM257 175Q294 175 315 215.5Q336 256 336 331Q336 385 317 422.5Q298 460 270 460Q233 460 212.5 418.5Q192 377 192 302Q192 250 210.5 212.5Q229 175 257 175ZM230 -212Q283 -212 318.5 -186Q354 -160 354 -120Q354 -92 330.5 -74.5Q307 -57 253 -47Q228 -43 210 -40.5Q192 -38 184 -38Q153 -38 135.5 -57.5Q118 -77 118 -109Q118 -152 148.5 -182Q179 -212 230 -212Z" glyph-name="gdotaccent.alt" horiz-adv-x="488" /><glyph d="M326 580Q298 580 282 597.5Q266 615 266 641Q266 673 285.5 695.5Q305 718 339 718Q367 718 382.5 700.5Q398 683 398 656Q398 624 378.5 602Q359 580 326 580ZM304 -14Q191 -14 128 46.5Q65 107 65 225Q65 290 85.5 346.5Q106 403 143 444Q180 485 232 508.5Q284 532 346 532Q389 532 425 523.5Q461 515 485 505Q500 499 506 489Q512 479 512 466Q512 462 511 453Q510 444 509 435L501 347H477Q464 419 430 454.5Q396 490 340 490Q272 490 231 425Q190 360 190 244Q190 133 225 81Q260 29 326 29Q337 29 350 31Q363 33 374 37L389 198L318 206L320 236H540L537 206L522 204Q505 203 496.5 194Q488 185 486 161L475 54Q474 35 467 26Q460 17 444 11Q412 1 379 -6.5Q346 -14 304 -14Z" glyph-name="gdotaccent.smcp" horiz-adv-x="556" /><glyph d="M27 -246Q-12 -246 -28.5 -228Q-45 -210 -45 -188Q-45 -175 -37 -164Q-29 -153 -16 -153Q-12 -153 -9.5 -154Q-7 -155 -1 -158L70 -194Q89 -163 96.5 -129.5Q104 -96 107 -30L131 430H83L84 466L110 475Q123 479 129 484.5Q135 490 136 502L138 520Q150 621 212 682.5Q274 744 359 744Q435 744 483 708.5Q531 673 527 610Q526 563 503 535.5Q480 508 453 487.5Q426 467 404 446.5Q382 426 382 394Q382 366 404.5 343Q427 320 469 298L491 286Q539 261 564.5 228Q590 195 590 145Q590 75 542 30.5Q494 -14 410 -14Q336 -14 302.5 12.5Q269 39 269 78Q269 99 282 113Q295 127 318 127Q323 127 326 125Q329 123 332 115L370 32Q382 28 392 25Q402 22 418 22Q458 22 479 45Q500 68 500 104Q500 132 486 150Q472 168 442 184L414 199Q362 227 334.5 259Q307 291 307 340Q307 380 325 409Q343 438 364 466.5Q385 495 403 529Q421 563 421 612Q421 650 401.5 677Q382 704 339 704Q299 704 276.5 668Q254 632 249 547L218 50Q214 -15 197 -70Q180 -125 154.5 -164Q129 -203 96 -224.5Q63 -246 27 -246Z" glyph-name="germandbls" horiz-adv-x="589" unicode="&#223;" /><glyph d="M383 -9Q320 -9 282.5 18Q245 45 245 90Q245 109 257.5 121Q270 133 290 133Q305 133 310 129Q315 125 318 112L336 35Q349 28 358 25.5Q367 23 381 23Q421 23 440.5 48.5Q460 74 460 125Q460 183 421.5 218Q383 253 312 263L313 283L464 477H339Q291 477 269.5 457.5Q248 438 244 391L209 1H14L16 24L51 30Q83 35 94.5 47Q106 59 108 92L135 364Q142 436 193 477Q244 518 326 518H553L556 496L398 300Q476 292 523.5 249.5Q571 207 571 144Q571 71 522 31Q473 -9 383 -9Z" glyph-name="germandbls.smcp" horiz-adv-x="583" /><glyph d="M304 546 184 604Q166 613 154.5 627Q143 641 143 663Q143 694 164.5 712Q186 730 207 730Q213 730 217 726Q221 722 232 704L317 563Z" glyph-name="grave" horiz-adv-x="440" unicode="`" /><glyph d="M313 691 176 733Q155 739 144 754Q133 769 133 792Q133 817 150 836Q167 855 188 855Q192 855 196.5 852Q201 849 211 837L321 708Z" glyph-name="grave.case" horiz-adv-x="440" /><glyph d="M65 70 64 145 365 332 97 521 109 587 438 362 433 302Z" glyph-name="greater" horiz-adv-x="475" unicode="&gt;" /><glyph d="M76 215 81 277H367L106 578L114 654L447 275L437 215ZM57 0 62 62H428L423 0Z" glyph-name="greaterequal" horiz-adv-x="475" unicode="&#8805;" /><glyph d="M195 42 62 191Q55 199 51 208.5Q47 218 47 229Q47 230 47 235Q47 240 48 247Q50 262 55.5 271.5Q61 281 71 291L229 440L253 430L147 241L219 51ZM369 42 236 191Q229 199 225 208.5Q221 218 221 229Q221 230 221 235Q221 240 222 247Q224 262 229.5 271.5Q235 281 245 291L403 440L427 430L321 241L393 51Z" glyph-name="guillemotleft" horiz-adv-x="422" unicode="&#171;" /><glyph d="M202 86 71 269Q64 279 60 287Q56 295 56 305Q56 308 57 317.5Q58 327 59 340Q60 353 64.5 361Q69 369 81 382L244 566L268 558L163 326L228 94ZM379 86 248 269Q241 279 237 287Q233 295 233 305Q233 308 234 317.5Q235 327 236 340Q237 353 241.5 361Q246 369 258 382L421 566L445 558L340 326L405 94Z" glyph-name="guillemotleft.case" horiz-adv-x="421" /><glyph d="M95 440 228 291Q235 283 239 273.5Q243 264 243 253Q243 252 243 247Q243 242 242 235Q240 220 234.5 210.5Q229 201 219 191L61 42L37 52L143 241L71 431ZM269 440 402 291Q409 283 413 273.5Q417 264 417 253Q417 252 417 247Q417 242 416 235Q414 220 408.5 210.5Q403 201 393 191L235 42L211 52L317 241L245 431Z" glyph-name="guillemotright" horiz-adv-x="422" unicode="&#187;" /><glyph d="M99 566 230 383Q237 373 241 365Q245 357 245 347Q245 344 244 334.5Q243 325 242 312Q241 299 236.5 291Q232 283 220 270L57 86L33 94L138 326L73 558ZM276 566 407 383Q414 373 418 365Q422 357 422 347Q422 344 421 334.5Q420 325 419 312Q418 299 413.5 291Q409 283 397 270L234 86L210 94L315 326L250 558Z" glyph-name="guillemotright.case" horiz-adv-x="421" /><glyph d="M195 42 62 191Q55 199 51 208.5Q47 218 47 229Q47 230 47 235Q47 240 48 247Q50 262 55.5 271.5Q61 281 71 291L229 440L253 430L147 241L219 51Z" glyph-name="guilsinglleft" horiz-adv-x="248" unicode="&#8249;" /><glyph d="M202 86 71 269Q64 279 60 287Q56 295 56 305Q56 308 57 317.5Q58 327 59 340Q60 353 64.5 361Q69 369 81 382L244 566L268 558L163 326L228 94Z" glyph-name="guilsinglleft.case" horiz-adv-x="245" /><glyph d="M95 440 228 291Q235 283 239 273.5Q243 264 243 253Q243 252 243 247Q243 242 242 235Q240 220 234.5 210.5Q229 201 219 191L61 42L37 52L143 241L71 431Z" glyph-name="guilsinglright" horiz-adv-x="248" unicode="&#8250;" /><glyph d="M99 566 230 383Q237 373 241 365Q245 357 245 347Q245 344 244 334.5Q243 325 242 312Q241 299 236.5 291Q232 283 220 270L57 86L33 94L138 326L73 558Z" glyph-name="guilsinglright.case" horiz-adv-x="244" /><glyph d="M447 -8Q399 -8 377.5 13.5Q356 35 356 76Q356 84 358 106Q360 128 363 147L381 280Q385 305 386 328.5Q387 352 387 363Q387 395 375.5 410.5Q364 426 341 426Q288 426 251 351Q214 276 201 110L195 31Q194 15 186 7.5Q178 0 164 0H70Q77 40 84.5 93.5Q92 147 96 198L133 586Q134 606 135.5 622.5Q137 639 137 645Q137 661 130.5 670Q124 679 105 684L67 694L69 717Q84 721 105.5 725Q127 729 151 731.5Q175 734 200 735.5Q225 737 247 737H264Q256 689 249.5 638Q243 587 238 530L224 380Q261 435 303.5 466Q346 497 388 497Q440 497 469.5 465.5Q499 434 499 370Q499 362 497 329.5Q495 297 491 268L475 142Q471 117 469.5 98.5Q468 80 468 73Q468 51 483 42.5Q498 34 538 33L536 8Q514 1 490.5 -3.5Q467 -8 447 -8Z" glyph-name="h" horiz-adv-x="544" unicode="h" /><glyph d="M24 0 26 27 62 34Q93 39 105.5 53Q118 67 121 100L147 393Q148 409 149 420Q150 431 150 435Q150 459 141 469.5Q132 480 104 484L65 491L68 518H348L346 490L270 479L253 297H449L465 479L391 489L393 518H672L669 491L633 484Q602 479 589.5 465Q577 451 575 418L548 125Q547 109 546 98Q545 87 545 83Q545 59 554.5 48.5Q564 38 591 34L630 27L628 0H347L350 28L426 39L446 254H249L231 39L305 29L302 0Z" glyph-name="h.smcp" horiz-adv-x="649" /><glyph d="M447 -8Q399 -8 377.5 13.5Q356 35 356 76Q356 84 358 106Q360 128 363 147L381 280Q385 305 386 328.5Q387 352 387 363Q387 395 375.5 410.5Q364 426 341 426Q288 426 251 351Q214 276 201 110L195 31Q194 15 186 7.5Q178 0 164 0H70Q77 40 84.5 93.5Q92 147 96 198L132 575H72L76 614H135Q136 624 136.5 632.5Q137 641 137 645Q137 661 130.5 670Q124 679 105 684L67 694L69 717Q84 721 105.5 725Q127 729 151 731.5Q175 734 200 735.5Q225 737 247 737H264Q259 707 254.5 676.5Q250 646 246 614H332L328 575H242L224 380Q261 435 303.5 466Q346 497 388 497Q440 497 469.5 465.5Q499 434 499 370Q499 362 497 329.5Q495 297 491 268L475 142Q471 117 469.5 98.5Q468 80 468 73Q468 51 483 42.5Q498 34 538 33L536 8Q514 1 490.5 -3.5Q467 -8 447 -8Z" glyph-name="hbar" horiz-adv-x="544" unicode="&#295;" /><glyph d="M24 0 26 27 62 34Q93 39 105.5 53Q118 67 121 100L146 377H83L87 415H149Q150 422 150 427.5Q150 433 150 435Q150 459 141 469.5Q132 480 104 484L65 491L68 518H348L346 490L270 479L264 415H459L465 479L391 489L393 518H672L669 491L633 484Q602 479 589.5 465Q577 451 574 415H638L635 377H571L548 125Q547 109 546 98Q545 87 545 83Q545 59 554.5 48.5Q564 38 591 34L630 27L628 0H347L350 28L426 39L446 254H249L231 39L305 29L302 0ZM253 297H449L456 377H261Z" glyph-name="hbar.smcp" horiz-adv-x="649" /><glyph d="M113 770 93 775 160 924Q169 944 178.5 951Q188 958 205 958H237Q255 958 263 951Q271 944 276 924L318 775L298 770L214 872ZM447 -8Q399 -8 377.5 13.5Q356 35 356 76Q356 84 358 106Q360 128 363 147L381 280Q385 305 386 328.5Q387 352 387 363Q387 395 375.5 410.5Q364 426 341 426Q288 426 251 351Q214 276 201 110L195 31Q194 15 186 7.5Q178 0 164 0H70Q77 40 84.5 93.5Q92 147 96 198L133 586Q134 606 135.5 622.5Q137 639 137 645Q137 661 130.5 670Q124 679 105 684L67 694L69 717Q84 721 105.5 725Q127 729 151 731.5Q175 734 200 735.5Q225 737 247 737H264Q256 689 249.5 638Q243 587 238 530L224 380Q261 435 303.5 466Q346 497 388 497Q440 497 469.5 465.5Q499 434 499 370Q499 362 497 329.5Q495 297 491 268L475 142Q471 117 469.5 98.5Q468 80 468 73Q468 51 483 42.5Q498 34 538 33L536 8Q514 1 490.5 -3.5Q467 -8 447 -8Z" glyph-name="hcircumflex" horiz-adv-x="544" unicode="&#293;" /><glyph d="M274 566 257 571 329 683Q340 702 349.5 709Q359 716 376 716H400Q417 716 425.5 709Q434 702 442 683L494 571L476 566L381 639ZM24 0 26 27 62 34Q93 39 105.5 53Q118 67 121 100L147 393Q148 409 149 420Q150 431 150 435Q150 459 141 469.5Q132 480 104 484L65 491L68 518H348L346 490L270 479L253 297H449L465 479L391 489L393 518H672L669 491L633 484Q602 479 589.5 465Q577 451 575 418L548 125Q547 109 546 98Q545 87 545 83Q545 59 554.5 48.5Q564 38 591 34L630 27L628 0H347L350 28L426 39L446 254H249L231 39L305 29L302 0Z" glyph-name="hcircumflex.smcp" horiz-adv-x="649" /><glyph d="M208 550 192 557 240 724Q247 746 251 752Q255 758 267 758Q286 758 304 746Q322 734 322 707Q322 692 315.5 679.5Q309 667 298 654ZM298 550 287 564 389 699Q404 719 409.5 723Q415 727 422 727Q438 727 451 712Q464 697 464 673Q464 648 451 634.5Q438 621 422 613Z" glyph-name="hungarumlaut" horiz-adv-x="440" unicode="&#733;" /><glyph d="M202 687 188 699 261 851Q271 873 277 879Q283 885 291 885Q313 885 332 870.5Q351 856 351 831Q351 817 342.5 803.5Q334 790 319 778ZM313 691 307 707 424 827Q435 840 439.5 842.5Q444 845 450 845Q467 845 482.5 830Q498 815 498 791Q498 771 485 755Q472 739 447 732Z" glyph-name="hungarumlaut.case" horiz-adv-x="440" /><glyph d="M65 232 70 283 251 293 247 243Z" glyph-name="hyphen" horiz-adv-x="270" unicode="-" /><glyph d="M77 320 82 369H269L264 320Z" glyph-name="hyphen.case" horiz-adv-x="287" /></font>
</defs>
</svg>
