<?xml version="1.0" standalone="no"?><!DOCTYPE svg PUBLIC "-//W3C//DTD SVG 1.1//EN" "http://www.w3.org/Graphics/SVG/1.1/DTD/svg11.dtd" ><svg version="1.1" xmlns="http://www.w3.org/2000/svg"><defs><font horiz-adv-x="0" id="font"><font-face ascent="750" bbox="-63 -252 1089 958" cap-height="646" descent="-250" font-family="Folha Texto" font-stretch="normal" font-style="normal" font-weight="400" units-per-em="1000" x-height="476" /><missing-glyph d="M0 0V646H500V0ZM60 586V60H440V586Z" horiz-adv-x="500" /><glyph glyph-name=".null" horiz-adv-x="0" /><glyph d="M-7 0 -5 26 10 29Q31 33 40.5 41.5Q50 50 60 73L300 650H345Q361 650 369.5 643Q378 636 382 619L520 73Q525 53 535.5 44Q546 35 568 31L585 28L583 0H314L317 28L414 40L373 208H173L107 39L195 28L193 0ZM189 250H363L298 524Z" glyph-name="A" horiz-adv-x="577" unicode="A" /><glyph d="M689 -7Q683 -7 663.5 -6Q644 -5 619.5 -3.5Q595 -2 568.5 -1Q542 0 523 0H240L242 27L338 38L353 208H194L100 38L180 27L178 0H-7L-5 26L4 29Q24 36 35 45.5Q46 55 59 77L342 571Q344 576 345.5 580.5Q347 585 347 589Q347 598 339.5 604.5Q332 611 318 613L282 620L284 646H757Q769 646 775 640Q781 634 781 623Q781 620 780.5 612.5Q780 605 779 596L767 461H743L739 493Q731 559 701.5 581Q672 603 605 603H491L470 362H636L660 450H685L666 231H641L632 320H466L443 49Q462 45 489 42Q516 39 544 39Q619 39 656 67.5Q693 96 724 168L737 197L759 192L723 19Q720 5 712 -1Q704 -7 689 -7ZM218 250H356L380 542Z" glyph-name="AE" horiz-adv-x="775" unicode="&#198;" /><glyph d="M434 691 428 706 554 833Q566 846 571 848Q576 850 580 850Q591 850 607 836.5Q623 823 623 795Q623 767 606.5 753Q590 739 568 732ZM689 -7Q683 -7 663.5 -6Q644 -5 619.5 -3.5Q595 -2 568.5 -1Q542 0 523 0H240L242 27L338 38L353 208H194L100 38L180 27L178 0H-7L-5 26L4 29Q24 36 35 45.5Q46 55 59 77L342 571Q344 576 345.5 580.5Q347 585 347 589Q347 598 339.5 604.5Q332 611 318 613L282 620L284 646H757Q769 646 775 640Q781 634 781 623Q781 620 780.5 612.5Q780 605 779 596L767 461H743L739 493Q731 559 701.5 581Q672 603 605 603H491L470 362H636L660 450H685L666 231H641L632 320H466L443 49Q462 45 489 42Q516 39 544 39Q619 39 656 67.5Q693 96 724 168L737 197L759 192L723 19Q720 5 712 -1Q704 -7 689 -7ZM218 250H356L380 542Z" glyph-name="AEacute" horiz-adv-x="775" unicode="&#508;" /><glyph d="M301 691 295 706 421 833Q433 846 438 848Q443 850 447 850Q458 850 474 836.5Q490 823 490 795Q490 767 473.5 753Q457 739 435 732ZM-7 0 -5 26 10 29Q31 33 40.5 41.5Q50 50 60 73L300 650H345Q361 650 369.5 643Q378 636 382 619L520 73Q525 53 535.5 44Q546 35 568 31L585 28L583 0H314L317 28L414 40L373 208H173L107 39L195 28L193 0ZM189 250H363L298 524Z" glyph-name="Aacute" horiz-adv-x="577" unicode="&#193;" /><glyph d="M330 695Q287 695 262 725Q237 755 237 812Q237 819 237 825Q237 831 238 838H257Q263 806 283 790Q303 774 337 774Q371 774 394 789.5Q417 805 429 838H448Q441 766 410 730.5Q379 695 330 695ZM-7 0 -5 26 10 29Q31 33 40.5 41.5Q50 50 60 73L300 650H345Q361 650 369.5 643Q378 636 382 619L520 73Q525 53 535.5 44Q546 35 568 31L585 28L583 0H314L317 28L414 40L373 208H173L107 39L195 28L193 0ZM189 250H363L298 524Z" glyph-name="Abreve" horiz-adv-x="577" unicode="&#258;" /><glyph d="M233 695 216 699 290 808Q301 825 309.5 831.5Q318 838 334 838H353Q369 838 377 831.5Q385 825 393 808L448 699L431 695L337 766ZM-7 0 -5 26 10 29Q31 33 40.5 41.5Q50 50 60 73L300 650H345Q361 650 369.5 643Q378 636 382 619L520 73Q525 53 535.5 44Q546 35 568 31L585 28L583 0H314L317 28L414 40L373 208H173L107 39L195 28L193 0ZM189 250H363L298 524Z" glyph-name="Acircumflex" horiz-adv-x="577" unicode="&#194;" /><glyph d="M250 712Q226 712 212 727Q198 742 198 766Q198 794 215.5 813.5Q233 833 262 833Q286 833 300 818Q314 803 314 779Q314 751 296.5 731.5Q279 712 250 712ZM412 712Q388 712 374 727Q360 742 360 766Q360 794 377.5 813.5Q395 833 424 833Q448 833 462 818Q476 803 476 779Q476 751 458.5 731.5Q441 712 412 712ZM-7 0 -5 26 10 29Q31 33 40.5 41.5Q50 50 60 73L300 650H345Q361 650 369.5 643Q378 636 382 619L520 73Q525 53 535.5 44Q546 35 568 31L585 28L583 0H314L317 28L414 40L373 208H173L107 39L195 28L193 0ZM189 250H363L298 524Z" glyph-name="Adieresis" horiz-adv-x="577" unicode="&#196;" /><glyph d="M361 691 228 732Q207 739 196.5 754Q186 769 186 791Q186 816 202 833Q218 850 237 850Q241 850 245 847.5Q249 845 259 833L369 707ZM-7 0 -5 26 10 29Q31 33 40.5 41.5Q50 50 60 73L300 650H345Q361 650 369.5 643Q378 636 382 619L520 73Q525 53 535.5 44Q546 35 568 31L585 28L583 0H314L317 28L414 40L373 208H173L107 39L195 28L193 0ZM189 250H363L298 524Z" glyph-name="Agrave" horiz-adv-x="577" unicode="&#192;" /><glyph d="M219 737 224 786H453L449 737ZM-7 0 -5 26 10 29Q31 33 40.5 41.5Q50 50 60 73L300 650H345Q361 650 369.5 643Q378 636 382 619L520 73Q525 53 535.5 44Q546 35 568 31L585 28L583 0H314L317 28L414 40L373 208H173L107 39L195 28L193 0ZM189 250H363L298 524Z" glyph-name="Amacron" horiz-adv-x="577" unicode="&#256;" /><glyph d="M386 -242Q349 -242 327 -219.5Q305 -197 305 -158Q305 -113 337.5 -72Q370 -31 430 0H314L317 28L414 40L373 208H173L107 39L195 28L193 0H-7L-5 26L10 29Q31 33 40.5 41.5Q50 50 60 73L300 650H345Q361 650 369.5 643Q378 636 382 619L520 73Q525 53 535.5 44Q546 35 568 31L585 28L583 0H474Q431 -38 411 -71.5Q391 -105 391 -139Q391 -162 402.5 -176Q414 -190 433 -190Q448 -190 460 -187Q472 -184 488 -174L483 -197Q461 -221 436.5 -231.5Q412 -242 386 -242ZM189 250H363L298 524Z" glyph-name="Aogonek" horiz-adv-x="577" unicode="&#260;" /><glyph d="M330 690Q293 690 270 712.5Q247 735 247 773Q247 819 275 850Q303 881 347 881Q384 881 407.5 859Q431 837 431 798Q431 752 402.5 721Q374 690 330 690ZM334 735Q356 735 368.5 751Q381 767 381 794Q381 814 371 825.5Q361 837 343 837Q321 837 308.5 821Q296 805 296 777Q296 757 306 746Q316 735 334 735ZM-7 0 -5 26 10 29Q31 33 40.5 41.5Q50 50 60 73L300 650H345Q361 650 369.5 643Q378 636 382 619L520 73Q525 53 535.5 44Q546 35 568 31L585 28L583 0H314L317 28L414 40L373 208H173L107 39L195 28L193 0ZM189 250H363L298 524Z" glyph-name="Aring" horiz-adv-x="577" unicode="&#197;" /><glyph d="M368 714Q337 714 321.5 728.5Q306 743 281 743Q268 743 258.5 736Q249 729 242 707H221Q229 764 249.5 791.5Q270 819 302 819Q328 819 346 804.5Q364 790 390 790Q406 790 415.5 800.5Q425 811 431 836L452 834Q445 774 425 744Q405 714 368 714ZM-7 0 -5 26 10 29Q31 33 40.5 41.5Q50 50 60 73L300 650H345Q361 650 369.5 643Q378 636 382 619L520 73Q525 53 535.5 44Q546 35 568 31L585 28L583 0H314L317 28L414 40L373 208H173L107 39L195 28L193 0ZM189 250H363L298 524Z" glyph-name="Atilde" horiz-adv-x="577" unicode="&#195;" /><glyph d="M24 0 26 26 63 33Q103 39 116 53Q129 67 133 110L167 500Q169 522 170 539Q171 556 171 560Q171 587 158.5 598Q146 609 114 613L78 620L80 646H317Q422 646 483.5 606.5Q545 567 545 488Q545 425 501 385.5Q457 346 376 338Q457 331 503.5 291Q550 251 550 179Q550 92 483.5 46Q417 0 304 0ZM310 358Q373 358 404.5 389.5Q436 421 436 482Q436 539 402 571.5Q368 604 316 605Q309 606 297.5 605.5Q286 605 280 605L260 361Q266 360 284 359Q302 358 310 358ZM301 37Q365 37 400.5 74Q436 111 436 177Q436 241 399.5 278.5Q363 316 300 317Q291 318 276.5 318Q262 318 255 317L232 48Q245 44 263.5 40.5Q282 37 301 37Z" glyph-name="B" horiz-adv-x="573" unicode="B" /><glyph d="M323 -14Q204 -14 139.5 63.5Q75 141 75 278Q75 358 98 428Q121 498 161.5 549.5Q202 601 259 630.5Q316 660 383 660Q428 660 459 653.5Q490 647 524 631Q542 623 548.5 611.5Q555 600 555 584Q555 578 553.5 562.5Q552 547 551 529L544 447H519Q512 535 475.5 577Q439 619 373 619Q334 619 301.5 596Q269 573 245 530Q221 487 208 426.5Q195 366 195 291Q195 164 235 95.5Q275 27 348 27Q398 27 438 71.5Q478 116 513 214L539 211L515 86Q508 46 494.5 29.5Q481 13 448 3Q414 -6 385.5 -10Q357 -14 323 -14Z" glyph-name="C" horiz-adv-x="564" unicode="C" /><glyph glyph-name="CR" horiz-adv-x="227" unicode="" /><glyph d="M347 691 341 706 467 833Q479 846 484 848Q489 850 493 850Q504 850 520 836.5Q536 823 536 795Q536 767 519.5 753Q503 739 481 732ZM323 -14Q204 -14 139.5 63.5Q75 141 75 278Q75 358 98 428Q121 498 161.5 549.5Q202 601 259 630.5Q316 660 383 660Q428 660 459 653.5Q490 647 524 631Q542 623 548.5 611.5Q555 600 555 584Q555 578 553.5 562.5Q552 547 551 529L544 447H519Q512 535 475.5 577Q439 619 373 619Q334 619 301.5 596Q269 573 245 530Q221 487 208 426.5Q195 366 195 291Q195 164 235 95.5Q275 27 348 27Q398 27 438 71.5Q478 116 513 214L539 211L515 86Q508 46 494.5 29.5Q481 13 448 3Q414 -6 385.5 -10Q357 -14 323 -14Z" glyph-name="Cacute" horiz-adv-x="564" unicode="&#262;" /><glyph d="M368 698Q352 698 344 705.5Q336 713 328 730L271 840L289 844L383 773L488 844L506 840L431 730Q420 712 411 705Q402 698 386 698ZM323 -14Q204 -14 139.5 63.5Q75 141 75 278Q75 358 98 428Q121 498 161.5 549.5Q202 601 259 630.5Q316 660 383 660Q428 660 459 653.5Q490 647 524 631Q542 623 548.5 611.5Q555 600 555 584Q555 578 553.5 562.5Q552 547 551 529L544 447H519Q512 535 475.5 577Q439 619 373 619Q334 619 301.5 596Q269 573 245 530Q221 487 208 426.5Q195 366 195 291Q195 164 235 95.5Q275 27 348 27Q398 27 438 71.5Q478 116 513 214L539 211L515 86Q508 46 494.5 29.5Q481 13 448 3Q414 -6 385.5 -10Q357 -14 323 -14Z" glyph-name="Ccaron" horiz-adv-x="564" unicode="&#268;" /><glyph d="M282 -247Q244 -247 218.5 -227.5Q193 -208 193 -180Q193 -166 202 -157Q211 -148 225 -148Q238 -148 241.5 -150Q245 -152 246 -161L254 -216Q259 -220 263.5 -221.5Q268 -223 273 -223Q294 -223 306.5 -209Q319 -195 319 -170Q319 -146 305.5 -130Q292 -114 265 -105L305 -13Q195 -7 135 70Q75 147 75 278Q75 358 98 428Q121 498 161.5 549.5Q202 601 259 630.5Q316 660 383 660Q428 660 459 653.5Q490 647 524 631Q542 623 548.5 611.5Q555 600 555 584Q555 578 553.5 562.5Q552 547 551 529L544 447H519Q512 535 475.5 577Q439 619 373 619Q334 619 301.5 596Q269 573 245 530Q221 487 208 426.5Q195 366 195 291Q195 164 235 95.5Q275 27 348 27Q398 27 438 71.5Q478 116 513 214L539 211L515 86Q508 46 494.5 29.5Q481 13 448 3Q421 -4 397 -8.5Q373 -13 349 -14L321 -59Q358 -69 376.5 -91.5Q395 -114 395 -148Q395 -191 363.5 -219Q332 -247 282 -247Z" glyph-name="Ccedilla" horiz-adv-x="564" unicode="&#199;" /><glyph d="M279 695 262 699 336 808Q347 825 355.5 831.5Q364 838 380 838H399Q415 838 423 831.5Q431 825 439 808L494 699L477 695L383 766ZM323 -14Q204 -14 139.5 63.5Q75 141 75 278Q75 358 98 428Q121 498 161.5 549.5Q202 601 259 630.5Q316 660 383 660Q428 660 459 653.5Q490 647 524 631Q542 623 548.5 611.5Q555 600 555 584Q555 578 553.5 562.5Q552 547 551 529L544 447H519Q512 535 475.5 577Q439 619 373 619Q334 619 301.5 596Q269 573 245 530Q221 487 208 426.5Q195 366 195 291Q195 164 235 95.5Q275 27 348 27Q398 27 438 71.5Q478 116 513 214L539 211L515 86Q508 46 494.5 29.5Q481 13 448 3Q414 -6 385.5 -10Q357 -14 323 -14Z" glyph-name="Ccircumflex" horiz-adv-x="564" unicode="&#264;" /><glyph d="M378 712Q353 712 338.5 728Q324 744 324 769Q324 799 342 819.5Q360 840 390 840Q415 840 429.5 823.5Q444 807 444 783Q444 753 426.5 732.5Q409 712 378 712ZM323 -14Q204 -14 139.5 63.5Q75 141 75 278Q75 358 98 428Q121 498 161.5 549.5Q202 601 259 630.5Q316 660 383 660Q428 660 459 653.5Q490 647 524 631Q542 623 548.5 611.5Q555 600 555 584Q555 578 553.5 562.5Q552 547 551 529L544 447H519Q512 535 475.5 577Q439 619 373 619Q334 619 301.5 596Q269 573 245 530Q221 487 208 426.5Q195 366 195 291Q195 164 235 95.5Q275 27 348 27Q398 27 438 71.5Q478 116 513 214L539 211L515 86Q508 46 494.5 29.5Q481 13 448 3Q414 -6 385.5 -10Q357 -14 323 -14Z" glyph-name="Cdotaccent" horiz-adv-x="564" unicode="&#266;" /><glyph d="M24 0 26 26 63 33Q103 39 116 53Q129 67 133 110L167 503Q169 525 170 540Q171 555 171 560Q171 587 158.5 598Q146 609 114 613L78 620L80 646H238Q326 646 397.5 624.5Q469 603 518 562Q567 521 593.5 460.5Q620 400 620 323Q620 161 524 80.5Q428 0 258 0ZM293 40Q397 40 450.5 113Q504 186 504 317Q504 386 487 439Q470 492 440.5 528Q411 564 370 583Q329 602 282 604L233 49Q242 46 260.5 43Q279 40 293 40Z" glyph-name="D" horiz-adv-x="638" unicode="D" /><glyph d="M351 698Q335 698 327 705.5Q319 713 311 730L254 840L272 844L366 773L471 844L489 840L414 730Q403 712 394 705Q385 698 369 698ZM24 0 26 26 63 33Q103 39 116 53Q129 67 133 110L167 503Q169 525 170 540Q171 555 171 560Q171 587 158.5 598Q146 609 114 613L78 620L80 646H238Q326 646 397.5 624.5Q469 603 518 562Q567 521 593.5 460.5Q620 400 620 323Q620 161 524 80.5Q428 0 258 0ZM293 40Q397 40 450.5 113Q504 186 504 317Q504 386 487 439Q470 492 440.5 528Q411 564 370 583Q329 602 282 604L233 49Q242 46 260.5 43Q279 40 293 40Z" glyph-name="Dcaron" horiz-adv-x="638" unicode="&#270;" /><glyph d="M24 0 26 26 63 33Q103 39 116 53Q129 67 133 110L151 319H91L94 357H154L167 503Q169 525 170 540Q171 555 171 560Q171 587 158.5 598Q146 609 114 613L78 620L80 646H238Q326 646 397.5 624.5Q469 603 518 562Q567 521 593.5 460.5Q620 400 620 323Q620 161 524 80.5Q428 0 258 0ZM293 40Q397 40 450.5 113Q504 186 504 317Q504 386 487 439Q470 492 440.5 528Q411 564 370 583Q329 602 282 604L260 357H371L367 319H257L233 49Q242 46 260.5 43Q279 40 293 40Z" glyph-name="Dcroat" horiz-adv-x="638" unicode="&#272;" /><glyph d="M35 0 38 33 288 652H328L468 33L465 0ZM80 46H365L271 531Z" glyph-name="Delta" horiz-adv-x="501" unicode="&#8710;" /><glyph d="M24 0 26 26 63 33Q103 39 116 53Q129 67 133 110L168 511Q169 533 170 544Q171 555 171 560Q171 587 158.5 598Q146 609 114 613L78 620L80 646H547Q559 646 565 640Q571 634 571 623Q571 620 570.5 612.5Q570 605 569 596L557 461H533L529 493Q521 559 491.5 581Q462 603 395 603H281L260 362H426L450 450H474L456 231H431L422 320H256L233 49Q252 45 279 42Q306 39 334 39Q409 39 446 67.5Q483 96 514 168L527 197L549 192L513 19Q510 5 502 -1Q494 -7 479 -7Q473 -7 453.5 -6Q434 -5 409.5 -3.5Q385 -2 358.5 -1Q332 0 313 0Z" glyph-name="E" horiz-adv-x="565" unicode="E" /><glyph d="M330 691 324 706 450 833Q462 846 467 848Q472 850 476 850Q487 850 503 836.5Q519 823 519 795Q519 767 502.5 753Q486 739 464 732ZM24 0 26 26 63 33Q103 39 116 53Q129 67 133 110L168 511Q169 533 170 544Q171 555 171 560Q171 587 158.5 598Q146 609 114 613L78 620L80 646H547Q559 646 565 640Q571 634 571 623Q571 620 570.5 612.5Q570 605 569 596L557 461H533L529 493Q521 559 491.5 581Q462 603 395 603H281L260 362H426L450 450H474L456 231H431L422 320H256L233 49Q252 45 279 42Q306 39 334 39Q409 39 446 67.5Q483 96 514 168L527 197L549 192L513 19Q510 5 502 -1Q494 -7 479 -7Q473 -7 453.5 -6Q434 -5 409.5 -3.5Q385 -2 358.5 -1Q332 0 313 0Z" glyph-name="Eacute" horiz-adv-x="565" unicode="&#201;" /><glyph d="M359 695Q316 695 291 725Q266 755 266 812Q266 819 266 825Q266 831 267 838H286Q292 806 312 790Q332 774 366 774Q400 774 423 789.5Q446 805 458 838H477Q470 766 439 730.5Q408 695 359 695ZM24 0 26 26 63 33Q103 39 116 53Q129 67 133 110L168 511Q169 533 170 544Q171 555 171 560Q171 587 158.5 598Q146 609 114 613L78 620L80 646H547Q559 646 565 640Q571 634 571 623Q571 620 570.5 612.5Q570 605 569 596L557 461H533L529 493Q521 559 491.5 581Q462 603 395 603H281L260 362H426L450 450H474L456 231H431L422 320H256L233 49Q252 45 279 42Q306 39 334 39Q409 39 446 67.5Q483 96 514 168L527 197L549 192L513 19Q510 5 502 -1Q494 -7 479 -7Q473 -7 453.5 -6Q434 -5 409.5 -3.5Q385 -2 358.5 -1Q332 0 313 0Z" glyph-name="Ebreve" horiz-adv-x="565" unicode="&#276;" /><glyph d="M351 698Q335 698 327 705.5Q319 713 311 730L254 840L272 844L366 773L471 844L489 840L414 730Q403 712 394 705Q385 698 369 698ZM24 0 26 26 63 33Q103 39 116 53Q129 67 133 110L168 511Q169 533 170 544Q171 555 171 560Q171 587 158.5 598Q146 609 114 613L78 620L80 646H547Q559 646 565 640Q571 634 571 623Q571 620 570.5 612.5Q570 605 569 596L557 461H533L529 493Q521 559 491.5 581Q462 603 395 603H281L260 362H426L450 450H474L456 231H431L422 320H256L233 49Q252 45 279 42Q306 39 334 39Q409 39 446 67.5Q483 96 514 168L527 197L549 192L513 19Q510 5 502 -1Q494 -7 479 -7Q473 -7 453.5 -6Q434 -5 409.5 -3.5Q385 -2 358.5 -1Q332 0 313 0Z" glyph-name="Ecaron" horiz-adv-x="565" unicode="&#282;" /><glyph d="M262 695 245 699 319 808Q330 825 338.5 831.5Q347 838 363 838H382Q398 838 406 831.5Q414 825 422 808L477 699L460 695L366 766ZM24 0 26 26 63 33Q103 39 116 53Q129 67 133 110L168 511Q169 533 170 544Q171 555 171 560Q171 587 158.5 598Q146 609 114 613L78 620L80 646H547Q559 646 565 640Q571 634 571 623Q571 620 570.5 612.5Q570 605 569 596L557 461H533L529 493Q521 559 491.5 581Q462 603 395 603H281L260 362H426L450 450H474L456 231H431L422 320H256L233 49Q252 45 279 42Q306 39 334 39Q409 39 446 67.5Q483 96 514 168L527 197L549 192L513 19Q510 5 502 -1Q494 -7 479 -7Q473 -7 453.5 -6Q434 -5 409.5 -3.5Q385 -2 358.5 -1Q332 0 313 0Z" glyph-name="Ecircumflex" horiz-adv-x="565" unicode="&#202;" /><glyph d="M279 712Q255 712 241 727Q227 742 227 766Q227 794 244.5 813.5Q262 833 291 833Q315 833 329 818Q343 803 343 779Q343 751 325.5 731.5Q308 712 279 712ZM441 712Q417 712 403 727Q389 742 389 766Q389 794 406.5 813.5Q424 833 453 833Q477 833 491 818Q505 803 505 779Q505 751 487.5 731.5Q470 712 441 712ZM24 0 26 26 63 33Q103 39 116 53Q129 67 133 110L168 511Q169 533 170 544Q171 555 171 560Q171 587 158.5 598Q146 609 114 613L78 620L80 646H547Q559 646 565 640Q571 634 571 623Q571 620 570.5 612.5Q570 605 569 596L557 461H533L529 493Q521 559 491.5 581Q462 603 395 603H281L260 362H426L450 450H474L456 231H431L422 320H256L233 49Q252 45 279 42Q306 39 334 39Q409 39 446 67.5Q483 96 514 168L527 197L549 192L513 19Q510 5 502 -1Q494 -7 479 -7Q473 -7 453.5 -6Q434 -5 409.5 -3.5Q385 -2 358.5 -1Q332 0 313 0Z" glyph-name="Edieresis" horiz-adv-x="565" unicode="&#203;" /><glyph d="M361 712Q336 712 321.5 728Q307 744 307 769Q307 799 325 819.5Q343 840 373 840Q398 840 412.5 823.5Q427 807 427 783Q427 753 409.5 732.5Q392 712 361 712ZM24 0 26 26 63 33Q103 39 116 53Q129 67 133 110L168 511Q169 533 170 544Q171 555 171 560Q171 587 158.5 598Q146 609 114 613L78 620L80 646H547Q559 646 565 640Q571 634 571 623Q571 620 570.5 612.5Q570 605 569 596L557 461H533L529 493Q521 559 491.5 581Q462 603 395 603H281L260 362H426L450 450H474L456 231H431L422 320H256L233 49Q252 45 279 42Q306 39 334 39Q409 39 446 67.5Q483 96 514 168L527 197L549 192L513 19Q510 5 502 -1Q494 -7 479 -7Q473 -7 453.5 -6Q434 -5 409.5 -3.5Q385 -2 358.5 -1Q332 0 313 0Z" glyph-name="Edotaccent" horiz-adv-x="565" unicode="&#278;" /><glyph d="M390 691 257 732Q236 739 225.5 754Q215 769 215 791Q215 816 231 833Q247 850 266 850Q270 850 274 847.5Q278 845 288 833L398 707ZM24 0 26 26 63 33Q103 39 116 53Q129 67 133 110L168 511Q169 533 170 544Q171 555 171 560Q171 587 158.5 598Q146 609 114 613L78 620L80 646H547Q559 646 565 640Q571 634 571 623Q571 620 570.5 612.5Q570 605 569 596L557 461H533L529 493Q521 559 491.5 581Q462 603 395 603H281L260 362H426L450 450H474L456 231H431L422 320H256L233 49Q252 45 279 42Q306 39 334 39Q409 39 446 67.5Q483 96 514 168L527 197L549 192L513 19Q510 5 502 -1Q494 -7 479 -7Q473 -7 453.5 -6Q434 -5 409.5 -3.5Q385 -2 358.5 -1Q332 0 313 0Z" glyph-name="Egrave" horiz-adv-x="565" unicode="&#200;" /><glyph d="M248 737 253 786H482L478 737ZM24 0 26 26 63 33Q103 39 116 53Q129 67 133 110L168 511Q169 533 170 544Q171 555 171 560Q171 587 158.5 598Q146 609 114 613L78 620L80 646H547Q559 646 565 640Q571 634 571 623Q571 620 570.5 612.5Q570 605 569 596L557 461H533L529 493Q521 559 491.5 581Q462 603 395 603H281L260 362H426L450 450H474L456 231H431L422 320H256L233 49Q252 45 279 42Q306 39 334 39Q409 39 446 67.5Q483 96 514 168L527 197L549 192L513 19Q510 5 502 -1Q494 -7 479 -7Q473 -7 453.5 -6Q434 -5 409.5 -3.5Q385 -2 358.5 -1Q332 0 313 0Z" glyph-name="Emacron" horiz-adv-x="565" unicode="&#274;" /><glyph d="M336 -157 330 -133Q390 -94 415.5 -58Q441 -22 450 42L453 70L214 532L171 41L275 27L273 0H26L28 26L62 33Q95 40 108.5 53Q122 66 125 100L164 483Q166 504 168.5 525Q171 546 171 552Q171 579 159 591.5Q147 604 121 610L84 618L86 646H240Q262 646 272.5 640Q283 634 290 620L522 160L560 605L456 619L458 646H705L702 620L666 612Q634 606 622 593Q610 580 607 546L567 146Q561 88 549.5 41Q538 -6 513 -43Q488 -80 445.5 -108.5Q403 -137 336 -157Z" glyph-name="Eng" horiz-adv-x="661" unicode="&#330;" /><glyph d="M380 -247Q341 -247 319 -224.5Q297 -202 297 -163Q297 -120 330.5 -78.5Q364 -37 424 -4Q399 -3 367 -1.5Q335 0 313 0H24L26 26L63 33Q103 39 116 53Q129 67 133 110L168 511Q169 533 170 544Q171 555 171 560Q171 587 158.5 598Q146 609 114 613L78 620L80 646H547Q559 646 565 640Q571 634 571 623Q571 620 570.5 612.5Q570 605 569 596L557 461H533L529 493Q521 559 491.5 581Q462 603 395 603H281L260 362H426L450 450H474L456 231H431L422 320H256L233 49Q252 45 279 42Q306 39 334 39Q409 39 446 67.5Q483 96 514 168L527 197L549 192L513 19Q510 5 502 -1Q494 -7 479 -7H464Q422 -42 402.5 -75.5Q383 -109 383 -145Q383 -169 395.5 -182Q408 -195 431 -195Q442 -195 453 -191Q464 -187 480 -177L476 -200Q458 -222 433 -234.5Q408 -247 380 -247Z" glyph-name="Eogonek" horiz-adv-x="565" unicode="&#280;" /><glyph d="M24 0 26 26 63 33Q103 39 116 53Q129 67 133 110L151 319H91L94 357H154L167 503Q169 525 170 540Q171 555 171 560Q171 587 158.5 598Q146 609 114 613L78 620L80 646H238Q326 646 397.5 624.5Q469 603 518 562Q567 521 593.5 460.5Q620 400 620 323Q620 161 524 80.5Q428 0 258 0ZM293 40Q397 40 450.5 113Q504 186 504 317Q504 386 487 439Q470 492 440.5 528Q411 564 370 583Q329 602 282 604L260 357H371L367 319H257L233 49Q242 46 260.5 43Q279 40 293 40Z" glyph-name="Eth" horiz-adv-x="638" unicode="&#208;" /><glyph d="M42 262 49 304H102Q102 320 103.5 335Q105 350 107 364H62L68 406H115Q141 522 213.5 591Q286 660 389 660Q425 660 450.5 653.5Q476 647 510 631Q526 623 533 612Q540 601 540 584Q540 580 539 567Q538 554 536 529L529 447H504Q497 536 466.5 577.5Q436 619 379 619Q319 619 280 563Q241 507 227 406H457L451 364H223Q222 350 221 335Q220 320 220 304H438L431 262H220Q224 148 258.5 87.5Q293 27 353 27Q394 27 424.5 66.5Q455 106 499 214L524 211L500 86Q493 45 480 29Q467 13 433 3Q413 -3 400 -6Q387 -9 376 -11Q365 -13 354.5 -13.5Q344 -14 329 -14Q218 -14 161 56Q104 126 101 262Z" glyph-name="Euro" horiz-adv-x="559" unicode="&#8364;" /><glyph d="M50 205 54 244H98Q99 257 100.5 269Q102 281 103 292H60L65 330H111Q136 420 199.5 474.5Q263 529 352 529Q384 529 407.5 523.5Q431 518 460 505Q475 498 481 489.5Q487 481 487 467Q487 463 486.5 453Q486 443 484 423L478 357H456Q449 428 421.5 461.5Q394 495 344 495Q293 495 259 451.5Q225 408 212 330H418L412 292H207Q206 281 205.5 269Q205 257 205 244H400L394 205H206Q210 116 239.5 69Q269 22 322 22Q357 22 385 54Q413 86 453 173L474 170L453 69Q446 36 433.5 22.5Q421 9 392 2Q357 -7 341 -9.5Q325 -12 299 -12Q203 -12 152.5 43.5Q102 99 98 205Z" glyph-name="Euro.smcp" horiz-adv-x="519" /><glyph d="M24 0 26 26 63 33Q103 39 116 53Q129 67 133 110L168 511Q169 533 170 544Q171 555 171 560Q171 587 158.5 597.5Q146 608 114 613L78 620L80 646H541Q553 646 559.5 640.5Q566 635 566 623Q566 621 565 612.5Q564 604 563 594L552 461H528L524 493Q515 559 485.5 581Q456 603 390 603H282L260 354H419L444 443H469L450 223H425L416 312H256L232 41L351 29L349 0Z" glyph-name="F" horiz-adv-x="537" unicode="F" /><glyph d="M340 -14Q277 -14 227 7.5Q177 29 143.5 67.5Q110 106 92 160Q74 214 74 277Q74 364 98 435Q122 506 163 555.5Q204 605 260 632.5Q316 660 380 660Q433 660 471.5 649.5Q510 639 537 626Q553 619 559 608.5Q565 598 565 582Q565 578 564 566.5Q563 555 562 545L554 450H529Q516 540 476 579.5Q436 619 370 619Q333 619 300.5 599.5Q268 580 244 541Q220 502 206 442.5Q192 383 192 303Q192 172 238 99.5Q284 27 365 27Q381 27 394 30.5Q407 34 422 39L440 250L359 260L361 290H599L596 260L581 258Q560 255 550 244.5Q540 234 537 204L525 64Q523 42 516 31Q509 20 490 13Q453 0 421 -7Q389 -14 340 -14Z" glyph-name="G" horiz-adv-x="603" unicode="G" /><glyph d="M368 695Q325 695 300 725Q275 755 275 812Q275 819 275 825Q275 831 276 838H295Q301 806 321 790Q341 774 375 774Q409 774 432 789.5Q455 805 467 838H486Q479 766 448 730.5Q417 695 368 695ZM340 -14Q277 -14 227 7.5Q177 29 143.5 67.5Q110 106 92 160Q74 214 74 277Q74 364 98 435Q122 506 163 555.5Q204 605 260 632.5Q316 660 380 660Q433 660 471.5 649.5Q510 639 537 626Q553 619 559 608.5Q565 598 565 582Q565 578 564 566.5Q563 555 562 545L554 450H529Q516 540 476 579.5Q436 619 370 619Q333 619 300.5 599.5Q268 580 244 541Q220 502 206 442.5Q192 383 192 303Q192 172 238 99.5Q284 27 365 27Q381 27 394 30.5Q407 34 422 39L440 250L359 260L361 290H599L596 260L581 258Q560 255 550 244.5Q540 234 537 204L525 64Q523 42 516 31Q509 20 490 13Q453 0 421 -7Q389 -14 340 -14Z" glyph-name="Gbreve" horiz-adv-x="603" unicode="&#286;" /><glyph d="M271 695 254 699 328 808Q339 825 347.5 831.5Q356 838 372 838H391Q407 838 415 831.5Q423 825 431 808L486 699L469 695L375 766ZM340 -14Q277 -14 227 7.5Q177 29 143.5 67.5Q110 106 92 160Q74 214 74 277Q74 364 98 435Q122 506 163 555.5Q204 605 260 632.5Q316 660 380 660Q433 660 471.5 649.5Q510 639 537 626Q553 619 559 608.5Q565 598 565 582Q565 578 564 566.5Q563 555 562 545L554 450H529Q516 540 476 579.5Q436 619 370 619Q333 619 300.5 599.5Q268 580 244 541Q220 502 206 442.5Q192 383 192 303Q192 172 238 99.5Q284 27 365 27Q381 27 394 30.5Q407 34 422 39L440 250L359 260L361 290H599L596 260L581 258Q560 255 550 244.5Q540 234 537 204L525 64Q523 42 516 31Q509 20 490 13Q453 0 421 -7Q389 -14 340 -14Z" glyph-name="Gcircumflex" horiz-adv-x="603" unicode="&#284;" /><glyph d="M340 -14Q277 -14 227 7.5Q177 29 143.5 67.5Q110 106 92 160Q74 214 74 277Q74 364 98 435Q122 506 163 555.5Q204 605 260 632.5Q316 660 380 660Q433 660 471.5 649.5Q510 639 537 626Q553 619 559 608.5Q565 598 565 582Q565 578 564 566.5Q563 555 562 545L554 450H529Q516 540 476 579.5Q436 619 370 619Q333 619 300.5 599.5Q268 580 244 541Q220 502 206 442.5Q192 383 192 303Q192 172 238 99.5Q284 27 365 27Q381 27 394 30.5Q407 34 422 39L440 250L359 260L361 290H599L596 260L581 258Q560 255 550 244.5Q540 234 537 204L525 64Q523 42 516 31Q509 20 490 13Q453 0 421 -7Q389 -14 340 -14ZM241 -251 238 -236Q266 -214 278 -197.5Q290 -181 297 -161L278 -112Q276 -106 275 -103Q274 -100 274 -98Q274 -87 289 -77.5Q304 -68 323 -68Q348 -68 362 -83.5Q376 -99 376 -124Q376 -165 344 -195.5Q312 -226 241 -251Z" glyph-name="Gcommaaccent" horiz-adv-x="603" unicode="&#290;" /><glyph d="M370 712Q345 712 330.5 728Q316 744 316 769Q316 799 334 819.5Q352 840 382 840Q407 840 421.5 823.5Q436 807 436 783Q436 753 418.5 732.5Q401 712 370 712ZM340 -14Q277 -14 227 7.5Q177 29 143.5 67.5Q110 106 92 160Q74 214 74 277Q74 364 98 435Q122 506 163 555.5Q204 605 260 632.5Q316 660 380 660Q433 660 471.5 649.5Q510 639 537 626Q553 619 559 608.5Q565 598 565 582Q565 578 564 566.5Q563 555 562 545L554 450H529Q516 540 476 579.5Q436 619 370 619Q333 619 300.5 599.5Q268 580 244 541Q220 502 206 442.5Q192 383 192 303Q192 172 238 99.5Q284 27 365 27Q381 27 394 30.5Q407 34 422 39L440 250L359 260L361 290H599L596 260L581 258Q560 255 550 244.5Q540 234 537 204L525 64Q523 42 516 31Q509 20 490 13Q453 0 421 -7Q389 -14 340 -14Z" glyph-name="Gdotaccent" horiz-adv-x="603" unicode="&#288;" /><glyph d="M419 -12Q349 -12 305 22.5Q261 57 261 114Q261 138 275 152Q289 166 311 166Q329 166 334.5 162Q340 158 343 142L363 44Q379 32 390 28.5Q401 25 420 25Q466 25 490 58Q514 91 514 155Q514 232 468.5 276Q423 320 335 329L337 354L511 600H368Q313 600 287.5 575.5Q262 551 257 493L216 0H13L15 26L52 33Q93 39 105.5 53.5Q118 68 122 110L153 459Q161 550 215 598Q269 646 363 646H611L615 622L431 369Q518 360 572.5 307Q627 254 627 176Q627 86 572.5 37Q518 -12 419 -12Z" glyph-name="Germandbls" horiz-adv-x="647" unicode="&#7838;" /><glyph d="M24 0 26 26 63 33Q103 39 116 53Q129 67 133 110L168 511Q169 533 170 544Q171 555 171 560Q171 587 158.5 597.5Q146 608 114 613L78 620L80 646H377L375 619L281 607L260 366H506L527 607L435 619L437 646H735L733 620L696 613Q656 607 643 593Q630 579 626 536L593 141Q591 119 590 105Q589 91 589 86Q589 59 601 48Q613 37 645 33L681 26L679 0H381L383 27L478 39L503 323H256L232 39L323 27L321 0Z" glyph-name="H" horiz-adv-x="703" unicode="H" /><glyph d="M24 0 26 26 63 33Q103 39 116 53Q129 67 133 110L164 476H95L98 513H168Q169 535 170 545.5Q171 556 171 560Q171 587 158.5 597.5Q146 608 114 613L78 620L80 646H377L375 619L281 607L273 513H519L527 607L435 619L437 646H735L733 620L696 613Q656 607 643 593Q630 579 626 536L624 513H697L693 476H621L593 141Q591 119 590 105Q589 91 589 86Q589 59 601 48Q613 37 645 33L681 26L679 0H381L383 27L478 39L503 323H256L232 39L323 27L321 0ZM260 366H506L516 476H270Z" glyph-name="Hbar" horiz-adv-x="703" unicode="&#294;" /><glyph d="M314 695 297 699 371 808Q382 825 390.5 831.5Q399 838 415 838H434Q450 838 458 831.5Q466 825 474 808L529 699L512 695L418 766ZM24 0 26 26 63 33Q103 39 116 53Q129 67 133 110L168 511Q169 533 170 544Q171 555 171 560Q171 587 158.5 597.5Q146 608 114 613L78 620L80 646H377L375 619L281 607L260 366H506L527 607L435 619L437 646H735L733 620L696 613Q656 607 643 593Q630 579 626 536L593 141Q591 119 590 105Q589 91 589 86Q589 59 601 48Q613 37 645 33L681 26L679 0H381L383 27L478 39L503 323H256L232 39L323 27L321 0Z" glyph-name="Hcircumflex" horiz-adv-x="703" unicode="&#292;" /><glyph d="M24 0 26 26 62 33Q102 40 115.5 53.5Q129 67 133 110L168 515Q169 532 170 543.5Q171 555 171 560Q171 587 158 597.5Q145 608 113 613L78 620L80 646H382L379 620L344 613Q304 606 291 592.5Q278 579 274 536L240 131Q239 115 238 103Q237 91 237 86Q237 59 249 48Q261 37 293 33L332 26L330 0Z" glyph-name="I" horiz-adv-x="351" unicode="I" /><glyph d="M24 0 26 26 62 33Q102 40 115.5 53.5Q129 67 133 110L168 515Q169 532 170 543.5Q171 555 171 560Q171 587 158 597.5Q145 608 113 613L78 620L80 646H382L379 620L344 613Q304 606 291 592.5Q278 579 274 536L240 131Q239 115 238 103Q237 91 237 86Q237 59 249 48Q261 37 293 33L332 26L330 0ZM349 -157 343 -133Q379 -110 402 -89.5Q425 -69 438.5 -41Q452 -13 459 27.5Q466 68 472 130L507 515Q508 532 509 543.5Q510 555 510 560Q510 587 497 598Q484 609 452 613L416 620L418 646H722L720 620L683 613Q643 607 630 593Q617 579 613 536L580 156Q574 84 560.5 33.5Q547 -17 520.5 -52.5Q494 -88 452.5 -112.5Q411 -137 349 -157Z" glyph-name="IJ" horiz-adv-x="671" unicode="&#306;" /><glyph d="M206 691 200 706 326 833Q338 846 343 848Q348 850 352 850Q363 850 379 836.5Q395 823 395 795Q395 767 378.5 753Q362 739 340 732ZM24 0 26 26 62 33Q102 40 115.5 53.5Q129 67 133 110L168 515Q169 532 170 543.5Q171 555 171 560Q171 587 158 597.5Q145 608 113 613L78 620L80 646H382L379 620L344 613Q304 606 291 592.5Q278 579 274 536L240 131Q239 115 238 103Q237 91 237 86Q237 59 249 48Q261 37 293 33L332 26L330 0Z" glyph-name="Iacute" horiz-adv-x="351" unicode="&#205;" /><glyph d="M235 695Q192 695 167 725Q142 755 142 812Q142 819 142 825Q142 831 143 838H162Q168 806 188 790Q208 774 242 774Q276 774 299 789.5Q322 805 334 838H353Q346 766 315 730.5Q284 695 235 695ZM24 0 26 26 62 33Q102 40 115.5 53.5Q129 67 133 110L168 515Q169 532 170 543.5Q171 555 171 560Q171 587 158 597.5Q145 608 113 613L78 620L80 646H382L379 620L344 613Q304 606 291 592.5Q278 579 274 536L240 131Q239 115 238 103Q237 91 237 86Q237 59 249 48Q261 37 293 33L332 26L330 0Z" glyph-name="Ibreve" horiz-adv-x="351" unicode="&#300;" /><glyph d="M138 695 121 699 195 808Q206 825 214.5 831.5Q223 838 239 838H258Q274 838 282 831.5Q290 825 298 808L353 699L336 695L242 766ZM24 0 26 26 62 33Q102 40 115.5 53.5Q129 67 133 110L168 515Q169 532 170 543.5Q171 555 171 560Q171 587 158 597.5Q145 608 113 613L78 620L80 646H382L379 620L344 613Q304 606 291 592.5Q278 579 274 536L240 131Q239 115 238 103Q237 91 237 86Q237 59 249 48Q261 37 293 33L332 26L330 0Z" glyph-name="Icircumflex" horiz-adv-x="351" unicode="&#206;" /><glyph d="M155 712Q131 712 117 727Q103 742 103 766Q103 794 120.5 813.5Q138 833 167 833Q191 833 205 818Q219 803 219 779Q219 751 201.5 731.5Q184 712 155 712ZM317 712Q293 712 279 727Q265 742 265 766Q265 794 282.5 813.5Q300 833 329 833Q353 833 367 818Q381 803 381 779Q381 751 363.5 731.5Q346 712 317 712ZM24 0 26 26 62 33Q102 40 115.5 53.5Q129 67 133 110L168 515Q169 532 170 543.5Q171 555 171 560Q171 587 158 597.5Q145 608 113 613L78 620L80 646H382L379 620L344 613Q304 606 291 592.5Q278 579 274 536L240 131Q239 115 238 103Q237 91 237 86Q237 59 249 48Q261 37 293 33L332 26L330 0Z" glyph-name="Idieresis" horiz-adv-x="351" unicode="&#207;" /><glyph d="M237 712Q212 712 197.5 728Q183 744 183 769Q183 799 201 819.5Q219 840 249 840Q274 840 288.5 823.5Q303 807 303 783Q303 753 285.5 732.5Q268 712 237 712ZM24 0 26 26 62 33Q102 40 115.5 53.5Q129 67 133 110L168 515Q169 532 170 543.5Q171 555 171 560Q171 587 158 597.5Q145 608 113 613L78 620L80 646H382L379 620L344 613Q304 606 291 592.5Q278 579 274 536L240 131Q239 115 238 103Q237 91 237 86Q237 59 249 48Q261 37 293 33L332 26L330 0Z" glyph-name="Idotaccent" horiz-adv-x="351" unicode="&#304;" /><glyph d="M266 691 133 732Q112 739 101.5 754Q91 769 91 791Q91 816 107 833Q123 850 142 850Q146 850 150 847.5Q154 845 164 833L274 707ZM24 0 26 26 62 33Q102 40 115.5 53.5Q129 67 133 110L168 515Q169 532 170 543.5Q171 555 171 560Q171 587 158 597.5Q145 608 113 613L78 620L80 646H382L379 620L344 613Q304 606 291 592.5Q278 579 274 536L240 131Q239 115 238 103Q237 91 237 86Q237 59 249 48Q261 37 293 33L332 26L330 0Z" glyph-name="Igrave" horiz-adv-x="351" unicode="&#204;" /><glyph d="M124 737 129 786H358L354 737ZM24 0 26 26 62 33Q102 40 115.5 53.5Q129 67 133 110L168 515Q169 532 170 543.5Q171 555 171 560Q171 587 158 597.5Q145 608 113 613L78 620L80 646H382L379 620L344 613Q304 606 291 592.5Q278 579 274 536L240 131Q239 115 238 103Q237 91 237 86Q237 59 249 48Q261 37 293 33L332 26L330 0Z" glyph-name="Imacron" horiz-adv-x="351" unicode="&#298;" /><glyph d="M116 -247Q79 -247 57 -224.5Q35 -202 35 -163Q35 -117 70.5 -74.5Q106 -32 171 0H24L26 26L62 33Q102 40 115.5 53.5Q129 67 133 110L168 515Q169 532 170 543.5Q171 555 171 560Q171 587 158 597.5Q145 608 113 613L78 620L80 646H382L379 620L344 613Q304 606 291 592.5Q278 579 274 536L240 131Q239 115 238 103Q237 91 237 86Q237 59 249 48Q261 37 293 33L332 26L330 0H211Q163 -40 142 -74.5Q121 -109 121 -145Q121 -167 132.5 -181.5Q144 -196 163 -196Q178 -196 190 -192.5Q202 -189 218 -180L213 -203Q191 -226 166.5 -236.5Q142 -247 116 -247Z" glyph-name="Iogonek" horiz-adv-x="351" unicode="&#302;" /><glyph d="M273 714Q242 714 226.5 728.5Q211 743 186 743Q173 743 163.5 736Q154 729 147 707H126Q134 764 154.5 791.5Q175 819 207 819Q233 819 251 804.5Q269 790 295 790Q311 790 320.5 800.5Q330 811 336 836L357 834Q350 774 330 744Q310 714 273 714ZM24 0 26 26 62 33Q102 40 115.5 53.5Q129 67 133 110L168 515Q169 532 170 543.5Q171 555 171 560Q171 587 158 597.5Q145 608 113 613L78 620L80 646H382L379 620L344 613Q304 606 291 592.5Q278 579 274 536L240 131Q239 115 238 103Q237 91 237 86Q237 59 249 48Q261 37 293 33L332 26L330 0Z" glyph-name="Itilde" horiz-adv-x="351" unicode="&#296;" /><glyph d="M-2 -157 -8 -133Q28 -110 51 -89.5Q74 -69 87.5 -41Q101 -13 108 27.5Q115 68 121 130L156 515Q157 532 158 543.5Q159 555 159 560Q159 587 146 598Q133 609 101 613L65 620L67 646H371L369 620L332 613Q292 607 279 593Q266 579 262 536L229 156Q223 84 209.5 33.5Q196 -17 169.5 -52.5Q143 -88 101.5 -112.5Q60 -137 -2 -157Z" glyph-name="J" horiz-adv-x="320" unicode="J" /><glyph d="M126 695 109 699 183 808Q194 825 202.5 831.5Q211 838 227 838H246Q262 838 270 831.5Q278 825 286 808L341 699L324 695L230 766ZM-2 -157 -8 -133Q28 -110 51 -89.5Q74 -69 87.5 -41Q101 -13 108 27.5Q115 68 121 130L156 515Q157 532 158 543.5Q159 555 159 560Q159 587 146 598Q133 609 101 613L65 620L67 646H371L369 620L332 613Q292 607 279 593Q266 579 262 536L229 156Q223 84 209.5 33.5Q196 -17 169.5 -52.5Q143 -88 101.5 -112.5Q60 -137 -2 -157Z" glyph-name="Jcircumflex" horiz-adv-x="320" unicode="&#308;" /><glyph d="M24 0 26 26 63 33Q103 39 116 53Q129 67 133 110L168 511Q169 533 170 544Q171 555 171 560Q171 587 158.5 598Q146 609 114 613L78 620L80 646H371L369 619L281 607L231 39L317 27L315 0ZM532 0Q497 0 478 10.5Q459 21 443 47L272 324L273 335L544 607L452 620L454 646H674L672 619L654 614Q632 608 617 602Q602 596 587 581L369 365L559 66Q569 49 582 41.5Q595 34 621 27L618 0Z" glyph-name="K" horiz-adv-x="612" unicode="K" /><glyph d="M24 0 26 26 63 33Q103 39 116 53Q129 67 133 110L168 511Q169 533 170 544Q171 555 171 560Q171 587 158.5 598Q146 609 114 613L78 620L80 646H371L369 619L281 607L231 39L317 27L315 0ZM532 0Q497 0 478 10.5Q459 21 443 47L272 324L273 335L544 607L452 620L454 646H674L672 619L654 614Q632 608 617 602Q602 596 587 581L369 365L559 66Q569 49 582 41.5Q595 34 621 27L618 0ZM260 -251 257 -236Q285 -214 297 -197.5Q309 -181 316 -161L297 -112Q295 -106 294 -103Q293 -100 293 -98Q293 -87 308 -77.5Q323 -68 342 -68Q367 -68 381 -83.5Q395 -99 395 -124Q395 -165 363 -195.5Q331 -226 260 -251Z" glyph-name="Kcommaaccent" horiz-adv-x="613" unicode="&#310;" /><glyph d="M441 -8Q435 -8 416 -6.5Q397 -5 372.5 -4Q348 -3 321.5 -1.5Q295 0 275 0H24L26 26L63 33Q103 39 116 53Q129 67 133 110L168 515Q169 532 170 543.5Q171 555 171 560Q171 587 158.5 597.5Q146 608 114 613L78 620L80 646H404L401 618L282 605L233 47Q243 45 259.5 43.5Q276 42 290 42Q359 42 401 72Q443 102 477 179L494 218L516 213L475 19Q472 5 463.5 -1.5Q455 -8 441 -8Z" glyph-name="L" horiz-adv-x="524" unicode="L" /><glyph d="M202 691 196 706 322 833Q334 846 339 848Q344 850 348 850Q359 850 375 836.5Q391 823 391 795Q391 767 374.5 753Q358 739 336 732ZM441 -8Q435 -8 416 -6.5Q397 -5 372.5 -4Q348 -3 321.5 -1.5Q295 0 275 0H24L26 26L63 33Q103 39 116 53Q129 67 133 110L168 515Q169 532 170 543.5Q171 555 171 560Q171 587 158.5 597.5Q146 608 114 613L78 620L80 646H404L401 618L282 605L233 47Q243 45 259.5 43.5Q276 42 290 42Q359 42 401 72Q443 102 477 179L494 218L516 213L475 19Q472 5 463.5 -1.5Q455 -8 441 -8Z" glyph-name="Lacute" horiz-adv-x="524" unicode="&#313;" /><glyph d="M435 441 418 448 450 613Q455 638 460.5 645.5Q466 653 481 653Q508 653 524 639.5Q540 626 540 603Q540 590 534 576.5Q528 563 515 546ZM441 -8Q435 -8 416 -6.5Q397 -5 372.5 -4Q348 -3 321.5 -1.5Q295 0 275 0H24L26 26L63 33Q103 39 116 53Q129 67 133 110L168 515Q169 532 170 543.5Q171 555 171 560Q171 587 158.5 597.5Q146 608 114 613L78 620L80 646H404L401 618L282 605L233 47Q243 45 259.5 43.5Q276 42 290 42Q359 42 401 72Q443 102 477 179L494 218L516 213L475 19Q472 5 463.5 -1.5Q455 -8 441 -8Z" glyph-name="Lcaron" horiz-adv-x="524" unicode="&#317;" /><glyph d="M441 -8Q435 -8 416 -6.5Q397 -5 372.5 -4Q348 -3 321.5 -1.5Q295 0 275 0H24L26 26L63 33Q103 39 116 53Q129 67 133 110L168 515Q169 532 170 543.5Q171 555 171 560Q171 587 158.5 597.5Q146 608 114 613L78 620L80 646H404L401 618L282 605L233 47Q243 45 259.5 43.5Q276 42 290 42Q359 42 401 72Q443 102 477 179L494 218L516 213L475 19Q472 5 463.5 -1.5Q455 -8 441 -8ZM193 -251 190 -236Q218 -214 230 -197.5Q242 -181 249 -161L230 -112Q228 -106 227 -103Q226 -100 226 -98Q226 -87 241 -77.5Q256 -68 275 -68Q300 -68 314 -83.5Q328 -99 328 -124Q328 -165 296 -195.5Q264 -226 193 -251Z" glyph-name="Lcommaaccent" horiz-adv-x="524" unicode="&#315;" /><glyph d="M943 -8Q937 -8 918 -6.5Q899 -5 874.5 -4Q850 -3 823.5 -1.5Q797 0 777 0H526L528 26L565 33Q605 39 618 53Q631 67 635 110L670 515Q671 532 672 543.5Q673 555 673 560Q673 587 660.5 597.5Q648 608 616 613L580 620L582 646H906L903 618L784 605L735 47Q745 45 761.5 43.5Q778 42 792 42Q861 42 903 72Q945 102 979 179L996 218L1018 213L977 19Q974 5 965.5 -1.5Q957 -8 943 -8ZM441 -8Q435 -8 416 -6.5Q397 -5 372.5 -4Q348 -3 321.5 -1.5Q295 0 275 0H24L26 26L63 33Q103 39 116 53Q129 67 133 110L168 515Q169 532 170 543.5Q171 555 171 560Q171 587 158.5 597.5Q146 608 114 613L78 620L80 646H404L401 618L282 605L233 47Q243 45 259.5 43.5Q276 42 290 42Q359 42 401 72Q443 102 477 179L494 218L516 213L475 19Q472 5 463.5 -1.5Q455 -8 441 -8ZM445 312Q421 312 406 328Q391 344 391 369Q391 398 409 419.5Q427 441 456 441Q480 441 494.5 425Q509 409 509 384Q509 354 491.5 333Q474 312 445 312Z" glyph-name="Ldot" horiz-adv-x="1025" unicode="&#319;" /><glyph d="M441 -8Q435 -8 416 -6.5Q397 -5 372.5 -4Q348 -3 321.5 -1.5Q295 0 275 0H24L26 26L63 33Q103 39 116 53Q129 67 133 110L146 271L72 227L73 273L151 319L168 515Q169 532 170 543.5Q171 555 171 560Q171 587 158.5 597.5Q146 608 114 613L78 620L80 646H404L401 618L282 605L262 384L379 453V407L258 335L233 47Q243 45 259.5 43.5Q276 42 290 42Q359 42 401 72Q443 102 477 179L494 218L516 213L475 19Q472 5 463.5 -1.5Q455 -8 441 -8Z" glyph-name="Lslash" horiz-adv-x="524" unicode="&#321;" /><glyph d="M24 0 26 25 64 34Q93 40 105 51Q117 62 121 90L179 498Q183 528 185 545.5Q187 563 187 568Q187 587 176.5 597Q166 607 140 611L94 620L97 646H276Q298 646 309.5 638.5Q321 631 325 612L425 230L607 646H828L826 620L784 612Q747 605 735 590Q723 575 721 535L702 127Q701 105 700.5 96.5Q700 88 700 83Q700 61 710 50.5Q720 40 745 35L784 28L781 0H490L492 27L593 40L616 551L410 83H385Q369 83 362.5 88Q356 93 351 109L231 547L165 39L261 27L258 0Z" glyph-name="M" horiz-adv-x="809" unicode="M" /><glyph d="M26 0 28 26 62 33Q95 40 108.5 53Q122 66 125 100L164 483Q166 504 168.5 524.5Q171 545 171 552Q171 579 159 591.5Q147 604 121 610L84 618L86 646H240Q262 646 272.5 640Q283 634 290 620L522 160L560 605L456 619L458 646H705L702 620L666 612Q634 606 622 593Q610 580 607 546L551 -2H522Q506 -2 495.5 3.5Q485 9 478 22L214 532L171 41L275 27L273 0Z" glyph-name="N" horiz-adv-x="661" unicode="N" /><glyph d="M377 691 371 706 497 833Q509 846 514 848Q519 850 523 850Q534 850 550 836.5Q566 823 566 795Q566 767 549.5 753Q533 739 511 732ZM26 0 28 26 62 33Q95 40 108.5 53Q122 66 125 100L164 483Q166 504 168.5 524.5Q171 545 171 552Q171 579 159 591.5Q147 604 121 610L84 618L86 646H240Q262 646 272.5 640Q283 634 290 620L522 160L560 605L456 619L458 646H705L702 620L666 612Q634 606 622 593Q610 580 607 546L551 -2H522Q506 -2 495.5 3.5Q485 9 478 22L214 532L171 41L275 27L273 0Z" glyph-name="Nacute" horiz-adv-x="660" unicode="&#323;" /><glyph d="M398 698Q382 698 374 705.5Q366 713 358 730L301 840L319 844L413 773L518 844L536 840L461 730Q450 712 441 705Q432 698 416 698ZM26 0 28 26 62 33Q95 40 108.5 53Q122 66 125 100L164 483Q166 504 168.5 524.5Q171 545 171 552Q171 579 159 591.5Q147 604 121 610L84 618L86 646H240Q262 646 272.5 640Q283 634 290 620L522 160L560 605L456 619L458 646H705L702 620L666 612Q634 606 622 593Q610 580 607 546L551 -2H522Q506 -2 495.5 3.5Q485 9 478 22L214 532L171 41L275 27L273 0Z" glyph-name="Ncaron" horiz-adv-x="660" unicode="&#327;" /><glyph d="M26 0 28 26 62 33Q95 40 108.5 53Q122 66 125 100L164 483Q166 504 168.5 524.5Q171 545 171 552Q171 579 159 591.5Q147 604 121 610L84 618L86 646H240Q262 646 272.5 640Q283 634 290 620L522 160L560 605L456 619L458 646H705L702 620L666 612Q634 606 622 593Q610 580 607 546L551 -2H522Q506 -2 495.5 3.5Q485 9 478 22L214 532L171 41L275 27L273 0ZM241 -251 238 -236Q266 -214 278 -197.5Q290 -181 297 -161L278 -112Q276 -106 275 -103Q274 -100 274 -98Q274 -87 289 -77.5Q304 -68 323 -68Q348 -68 362 -83.5Q376 -99 376 -124Q376 -165 344 -195.5Q312 -226 241 -251Z" glyph-name="Ncommaaccent" horiz-adv-x="660" unicode="&#325;" /><glyph d="M444 714Q413 714 397.5 728.5Q382 743 357 743Q344 743 334.5 736Q325 729 318 707H297Q305 764 325.5 791.5Q346 819 378 819Q404 819 422 804.5Q440 790 466 790Q482 790 491.5 800.5Q501 811 507 836L528 834Q521 774 501 744Q481 714 444 714ZM26 0 28 26 62 33Q95 40 108.5 53Q122 66 125 100L164 483Q166 504 168.5 524.5Q171 545 171 552Q171 579 159 591.5Q147 604 121 610L84 618L86 646H240Q262 646 272.5 640Q283 634 290 620L522 160L560 605L456 619L458 646H705L702 620L666 612Q634 606 622 593Q610 580 607 546L551 -2H522Q506 -2 495.5 3.5Q485 9 478 22L214 532L171 41L275 27L273 0Z" glyph-name="Ntilde" horiz-adv-x="660" unicode="&#209;" /><glyph d="M320 -14Q210 -14 142.5 63.5Q75 141 75 280Q75 361 97 431Q119 501 158.5 551.5Q198 602 252.5 631Q307 660 372 660Q481 660 549 582.5Q617 505 617 366Q617 285 595 215Q573 145 533.5 94.5Q494 44 439.5 15Q385 -14 320 -14ZM334 27Q404 27 450.5 119Q497 211 497 370Q497 485 459.5 552Q422 619 357 619Q288 619 241 526.5Q194 434 194 276Q194 161 232 94Q270 27 334 27Z" glyph-name="O" horiz-adv-x="635" unicode="O" /><glyph d="M774 -7Q768 -7 748.5 -6Q729 -5 704.5 -3.5Q680 -2 653.5 -1Q627 0 608 0H323Q210 0 142.5 72.5Q75 145 75 280Q75 361 99 428.5Q123 496 164.5 544Q206 592 262 619Q318 646 382 646H842Q854 646 860 640Q866 634 866 623Q866 620 865.5 612.5Q865 605 864 596L852 461H828L824 493Q816 559 786.5 581Q757 603 691 603H576L555 362H721L745 450H770L751 231H726L717 320H551L528 49Q547 45 574 42Q601 39 629 39Q704 39 741 67.5Q778 96 809 168L822 197L844 192L808 19Q805 5 797 -1Q789 -7 774 -7ZM341 41Q366 41 387 47Q408 53 424 69L466 558Q452 583 431 594Q410 605 379 605Q341 605 307 583Q273 561 248 519.5Q223 478 208.5 416.5Q194 355 194 276Q194 157 234.5 99Q275 41 341 41Z" glyph-name="OE" horiz-adv-x="860" unicode="&#338;" /><glyph d="M348 691 342 706 468 833Q480 846 485 848Q490 850 494 850Q505 850 521 836.5Q537 823 537 795Q537 767 520.5 753Q504 739 482 732ZM320 -14Q210 -14 142.5 63.5Q75 141 75 280Q75 361 97 431Q119 501 158.5 551.5Q198 602 252.5 631Q307 660 372 660Q481 660 549 582.5Q617 505 617 366Q617 285 595 215Q573 145 533.5 94.5Q494 44 439.5 15Q385 -14 320 -14ZM334 27Q404 27 450.5 119Q497 211 497 370Q497 485 459.5 552Q422 619 357 619Q288 619 241 526.5Q194 434 194 276Q194 161 232 94Q270 27 334 27Z" glyph-name="Oacute" horiz-adv-x="635" unicode="&#211;" /><glyph d="M377 695Q334 695 309 725Q284 755 284 812Q284 819 284 825Q284 831 285 838H304Q310 806 330 790Q350 774 384 774Q418 774 441 789.5Q464 805 476 838H495Q488 766 457 730.5Q426 695 377 695ZM320 -14Q210 -14 142.5 63.5Q75 141 75 280Q75 361 97 431Q119 501 158.5 551.5Q198 602 252.5 631Q307 660 372 660Q481 660 549 582.5Q617 505 617 366Q617 285 595 215Q573 145 533.5 94.5Q494 44 439.5 15Q385 -14 320 -14ZM334 27Q404 27 450.5 119Q497 211 497 370Q497 485 459.5 552Q422 619 357 619Q288 619 241 526.5Q194 434 194 276Q194 161 232 94Q270 27 334 27Z" glyph-name="Obreve" horiz-adv-x="635" unicode="&#334;" /><glyph d="M280 695 263 699 337 808Q348 825 356.5 831.5Q365 838 381 838H400Q416 838 424 831.5Q432 825 440 808L495 699L478 695L384 766ZM320 -14Q210 -14 142.5 63.5Q75 141 75 280Q75 361 97 431Q119 501 158.5 551.5Q198 602 252.5 631Q307 660 372 660Q481 660 549 582.5Q617 505 617 366Q617 285 595 215Q573 145 533.5 94.5Q494 44 439.5 15Q385 -14 320 -14ZM334 27Q404 27 450.5 119Q497 211 497 370Q497 485 459.5 552Q422 619 357 619Q288 619 241 526.5Q194 434 194 276Q194 161 232 94Q270 27 334 27Z" glyph-name="Ocircumflex" horiz-adv-x="635" unicode="&#212;" /><glyph d="M297 712Q273 712 259 727Q245 742 245 766Q245 794 262.5 813.5Q280 833 309 833Q333 833 347 818Q361 803 361 779Q361 751 343.5 731.5Q326 712 297 712ZM459 712Q435 712 421 727Q407 742 407 766Q407 794 424.5 813.5Q442 833 471 833Q495 833 509 818Q523 803 523 779Q523 751 505.5 731.5Q488 712 459 712ZM320 -14Q210 -14 142.5 63.5Q75 141 75 280Q75 361 97 431Q119 501 158.5 551.5Q198 602 252.5 631Q307 660 372 660Q481 660 549 582.5Q617 505 617 366Q617 285 595 215Q573 145 533.5 94.5Q494 44 439.5 15Q385 -14 320 -14ZM334 27Q404 27 450.5 119Q497 211 497 370Q497 485 459.5 552Q422 619 357 619Q288 619 241 526.5Q194 434 194 276Q194 161 232 94Q270 27 334 27Z" glyph-name="Odieresis" horiz-adv-x="635" unicode="&#214;" /><glyph d="M408 691 275 732Q254 739 243.5 754Q233 769 233 791Q233 816 249 833Q265 850 284 850Q288 850 292 847.5Q296 845 306 833L416 707ZM320 -14Q210 -14 142.5 63.5Q75 141 75 280Q75 361 97 431Q119 501 158.5 551.5Q198 602 252.5 631Q307 660 372 660Q481 660 549 582.5Q617 505 617 366Q617 285 595 215Q573 145 533.5 94.5Q494 44 439.5 15Q385 -14 320 -14ZM334 27Q404 27 450.5 119Q497 211 497 370Q497 485 459.5 552Q422 619 357 619Q288 619 241 526.5Q194 434 194 276Q194 161 232 94Q270 27 334 27Z" glyph-name="Ograve" horiz-adv-x="635" unicode="&#210;" /><glyph d="M298 688 285 699 358 849Q368 871 374 877Q380 883 388 883Q410 883 427.5 868.5Q445 854 445 832Q445 818 436.5 804Q428 790 413 779ZM410 693 405 709 520 827Q532 839 536.5 842Q541 845 547 845Q564 845 578.5 830Q593 815 593 793Q593 773 579.5 758Q566 743 539 734ZM320 -14Q210 -14 142.5 63.5Q75 141 75 280Q75 361 97 431Q119 501 158.5 551.5Q198 602 252.5 631Q307 660 372 660Q481 660 549 582.5Q617 505 617 366Q617 285 595 215Q573 145 533.5 94.5Q494 44 439.5 15Q385 -14 320 -14ZM334 27Q404 27 450.5 119Q497 211 497 370Q497 485 459.5 552Q422 619 357 619Q288 619 241 526.5Q194 434 194 276Q194 161 232 94Q270 27 334 27Z" glyph-name="Ohungarumlaut" horiz-adv-x="635" unicode="&#336;" /><glyph d="M266 737 271 786H500L496 737ZM320 -14Q210 -14 142.5 63.5Q75 141 75 280Q75 361 97 431Q119 501 158.5 551.5Q198 602 252.5 631Q307 660 372 660Q481 660 549 582.5Q617 505 617 366Q617 285 595 215Q573 145 533.5 94.5Q494 44 439.5 15Q385 -14 320 -14ZM334 27Q404 27 450.5 119Q497 211 497 370Q497 485 459.5 552Q422 619 357 619Q288 619 241 526.5Q194 434 194 276Q194 161 232 94Q270 27 334 27Z" glyph-name="Omacron" horiz-adv-x="635" unicode="&#332;" /><glyph d="M79 -8Q66 -8 60 -1.5Q54 5 53 19L48 199L69 204L78 167Q96 92 126.5 63Q157 34 218 33L316 32Q275 46 241 74.5Q207 103 183.5 141.5Q160 180 147 227.5Q134 275 135 327Q136 396 160 457Q184 518 224.5 562.5Q265 607 320.5 632.5Q376 658 439 658Q555 658 624 582.5Q693 507 691 383Q690 325 671 268.5Q652 212 620 165Q588 118 544 83Q500 48 450 32L546 33Q607 34 642.5 63Q678 92 709 167L724 204L745 199L708 19Q705 5 698 -1.5Q691 -8 678 -8Q675 -8 659 -6.5Q643 -5 621.5 -4Q600 -3 576 -1.5Q552 0 533 0H407L408 32Q442 42 473.5 75Q505 108 528.5 156.5Q552 205 566 265.5Q580 326 581 390Q583 496 544 556Q505 616 433 616Q347 616 296.5 536.5Q246 457 245 317Q244 265 252 218Q260 171 275.5 133.5Q291 96 312.5 70Q334 44 359 34L355 0H225Q206 0 182 -1.5Q158 -3 136.5 -4Q115 -5 98.5 -6.5Q82 -8 79 -8Z" glyph-name="Omega" horiz-adv-x="758" unicode="&#8486;" /><glyph d="M29 -21 122 91Q100 127 87.5 175Q75 223 75 280Q75 361 97 431Q119 501 158.5 551.5Q198 602 252.5 631Q307 660 372 660Q423 660 465.5 643Q508 626 540 593L600 666H655L567 560Q591 523 604 474.5Q617 426 617 366Q617 285 595 215Q573 145 533.5 94.5Q494 44 439.5 15Q385 -14 320 -14Q268 -14 224 4Q180 22 149 56L85 -21ZM194 276Q194 251 195.5 228.5Q197 206 201 186L476 516Q458 565 427.5 592Q397 619 357 619Q288 619 241 526.5Q194 434 194 276ZM334 27Q404 27 450.5 119Q497 211 497 370Q497 396 495 420Q493 444 489 466L214 134Q231 83 262 55Q293 27 334 27Z" glyph-name="Oslash" horiz-adv-x="635" unicode="&#216;" /><glyph d="M348 691 342 706 468 833Q480 846 485 848Q490 850 494 850Q505 850 521 836.5Q537 823 537 795Q537 767 520.5 753Q504 739 482 732ZM29 -21 122 91Q100 127 87.5 175Q75 223 75 280Q75 361 97 431Q119 501 158.5 551.5Q198 602 252.5 631Q307 660 372 660Q423 660 465.5 643Q508 626 540 593L600 666H655L567 560Q591 523 604 474.5Q617 426 617 366Q617 285 595 215Q573 145 533.5 94.5Q494 44 439.5 15Q385 -14 320 -14Q268 -14 224 4Q180 22 149 56L85 -21ZM194 276Q194 251 195.5 228.5Q197 206 201 186L476 516Q458 565 427.5 592Q397 619 357 619Q288 619 241 526.5Q194 434 194 276ZM334 27Q404 27 450.5 119Q497 211 497 370Q497 396 495 420Q493 444 489 466L214 134Q231 83 262 55Q293 27 334 27Z" glyph-name="Oslashacute" horiz-adv-x="634" unicode="&#510;" /><glyph d="M415 714Q384 714 368.5 728.5Q353 743 328 743Q315 743 305.5 736Q296 729 289 707H268Q276 764 296.5 791.5Q317 819 349 819Q375 819 393 804.5Q411 790 437 790Q453 790 462.5 800.5Q472 811 478 836L499 834Q492 774 472 744Q452 714 415 714ZM320 -14Q210 -14 142.5 63.5Q75 141 75 280Q75 361 97 431Q119 501 158.5 551.5Q198 602 252.5 631Q307 660 372 660Q481 660 549 582.5Q617 505 617 366Q617 285 595 215Q573 145 533.5 94.5Q494 44 439.5 15Q385 -14 320 -14ZM334 27Q404 27 450.5 119Q497 211 497 370Q497 485 459.5 552Q422 619 357 619Q288 619 241 526.5Q194 434 194 276Q194 161 232 94Q270 27 334 27Z" glyph-name="Otilde" horiz-adv-x="635" unicode="&#213;" /><glyph d="M24 0 26 26 63 33Q103 39 116 53Q129 67 133 110L168 511Q169 533 170 544Q171 555 171 560Q171 587 158.5 597.5Q146 608 114 613L78 620L80 646H312Q428 646 495.5 594Q563 542 563 452Q563 357 501 308Q439 259 323 259Q304 259 284 263Q264 267 252 271L232 41L351 29L349 0ZM309 298Q378 298 412.5 337Q447 376 447 452Q447 528 408.5 566.5Q370 605 313 606Q304 607 296 606Q288 605 281 604L255 308Q265 304 278.5 301Q292 298 309 298Z" glyph-name="P" horiz-adv-x="549" unicode="P" /><glyph d="M520 -152Q472 -152 439.5 -141Q407 -130 376 -97L336 -55Q316 -33 291.5 -12Q267 9 240 9Q210 9 187 -7Q164 -23 135 -54L118 -35Q140 -9 159.5 9Q179 27 196 38Q140 70 108.5 132.5Q77 195 77 280Q77 361 99.5 431Q122 501 161 551.5Q200 602 254 631Q308 660 371 660Q429 660 475 639Q521 618 552.5 579.5Q584 541 600.5 486.5Q617 432 617 366Q617 300 600 241Q583 182 552.5 135Q522 88 480 55.5Q438 23 388 11Q394 5 400.5 -1.5Q407 -8 414 -15L470 -69Q501 -100 521.5 -110Q542 -120 576 -121L574 -145Q567 -148 549.5 -150Q532 -152 520 -152ZM285 63Q310 63 329 54Q348 45 364 32Q418 54 457.5 142.5Q497 231 497 370Q497 486 462 552.5Q427 619 362 619Q324 619 293 594.5Q262 570 241 525.5Q220 481 209 417.5Q198 354 198 276Q198 195 210 141Q222 87 247 59Q257 61 266.5 62Q276 63 285 63Z" glyph-name="Q" horiz-adv-x="636" unicode="Q" /><glyph d="M24 0 26 26 63 33Q103 39 116 53Q129 67 133 110L168 511Q169 533 170 544Q171 555 171 560Q171 587 158.5 598Q146 609 114 613L78 620L80 646H312Q423 646 488.5 600.5Q554 555 554 472Q554 396 498.5 354Q443 312 350 310Q384 303 411.5 285.5Q439 268 459 234Q485 191 497 151.5Q509 112 527 73Q534 56 547 43.5Q560 31 589 26L587 0H531Q489 0 462.5 11.5Q436 23 417 60Q401 91 388.5 134Q376 177 366 204Q347 252 327 274Q307 296 270 296H253L230 39L320 27L318 0ZM302 334Q364 334 401.5 367Q439 400 439 472Q439 534 403.5 570Q368 606 316 607Q305 607 295.5 606.5Q286 606 280 605L257 339Q266 337 277.5 335.5Q289 334 302 334Z" glyph-name="R" horiz-adv-x="575" unicode="R" /><glyph d="M308 691 302 706 428 833Q440 846 445 848Q450 850 454 850Q465 850 481 836.5Q497 823 497 795Q497 767 480.5 753Q464 739 442 732ZM24 0 26 26 63 33Q103 39 116 53Q129 67 133 110L168 511Q169 533 170 544Q171 555 171 560Q171 587 158.5 598Q146 609 114 613L78 620L80 646H312Q423 646 488.5 600.5Q554 555 554 472Q554 396 498.5 354Q443 312 350 310Q384 303 411.5 285.5Q439 268 459 234Q485 191 497 151.5Q509 112 527 73Q534 56 547 43.5Q560 31 589 26L587 0H531Q489 0 462.5 11.5Q436 23 417 60Q401 91 388.5 134Q376 177 366 204Q347 252 327 274Q307 296 270 296H253L230 39L320 27L318 0ZM302 334Q364 334 401.5 367Q439 400 439 472Q439 534 403.5 570Q368 606 316 607Q305 607 295.5 606.5Q286 606 280 605L257 339Q266 337 277.5 335.5Q289 334 302 334Z" glyph-name="Racute" horiz-adv-x="575" unicode="&#340;" /><glyph d="M329 698Q313 698 305 705.5Q297 713 289 730L232 840L250 844L344 773L449 844L467 840L392 730Q381 712 372 705Q363 698 347 698ZM24 0 26 26 63 33Q103 39 116 53Q129 67 133 110L168 511Q169 533 170 544Q171 555 171 560Q171 587 158.5 598Q146 609 114 613L78 620L80 646H312Q423 646 488.5 600.5Q554 555 554 472Q554 396 498.5 354Q443 312 350 310Q384 303 411.5 285.5Q439 268 459 234Q485 191 497 151.5Q509 112 527 73Q534 56 547 43.5Q560 31 589 26L587 0H531Q489 0 462.5 11.5Q436 23 417 60Q401 91 388.5 134Q376 177 366 204Q347 252 327 274Q307 296 270 296H253L230 39L320 27L318 0ZM302 334Q364 334 401.5 367Q439 400 439 472Q439 534 403.5 570Q368 606 316 607Q305 607 295.5 606.5Q286 606 280 605L257 339Q266 337 277.5 335.5Q289 334 302 334Z" glyph-name="Rcaron" horiz-adv-x="575" unicode="&#344;" /><glyph d="M24 0 26 26 63 33Q103 39 116 53Q129 67 133 110L168 511Q169 533 170 544Q171 555 171 560Q171 587 158.5 598Q146 609 114 613L78 620L80 646H312Q423 646 488.5 600.5Q554 555 554 472Q554 396 498.5 354Q443 312 350 310Q384 303 411.5 285.5Q439 268 459 234Q485 191 497 151.5Q509 112 527 73Q534 56 547 43.5Q560 31 589 26L587 0H531Q489 0 462.5 11.5Q436 23 417 60Q401 91 388.5 134Q376 177 366 204Q347 252 327 274Q307 296 270 296H253L230 39L320 27L318 0ZM302 334Q364 334 401.5 367Q439 400 439 472Q439 534 403.5 570Q368 606 316 607Q305 607 295.5 606.5Q286 606 280 605L257 339Q266 337 277.5 335.5Q289 334 302 334ZM239 -251 236 -236Q264 -214 276 -197.5Q288 -181 295 -161L276 -112Q274 -106 273 -103Q272 -100 272 -98Q272 -87 287 -77.5Q302 -68 321 -68Q346 -68 360 -83.5Q374 -99 374 -124Q374 -165 342 -195.5Q310 -226 239 -251Z" glyph-name="Rcommaaccent" horiz-adv-x="575" unicode="&#342;" /><glyph d="M230 -14Q190 -14 160 -10Q130 -6 105 3Q77 13 66 24.5Q55 36 52 56Q52 63 51.5 73.5Q51 84 51 93L52 202L77 206Q96 113 133.5 69.5Q171 26 234 26Q292 26 325 55Q358 84 358 141Q358 179 335 209.5Q312 240 261 265L234 279Q155 317 119 362Q83 407 83 473Q83 553 140 606.5Q197 660 284 660Q325 660 358 654Q391 648 422 635Q436 628 442.5 617Q449 606 449 588Q449 583 448 570.5Q447 558 446 548L437 463H413Q404 543 371 581.5Q338 620 278 620Q229 620 200 592.5Q171 565 171 514Q171 473 197.5 443Q224 413 285 383L316 368Q387 333 419 289Q451 245 451 185Q451 139 434.5 102Q418 65 388.5 39.5Q359 14 318.5 0Q278 -14 230 -14Z" glyph-name="S" horiz-adv-x="474" unicode="S" /><glyph d="M248 691 242 706 368 833Q380 846 385 848Q390 850 394 850Q405 850 421 836.5Q437 823 437 795Q437 767 420.5 753Q404 739 382 732ZM230 -14Q190 -14 160 -10Q130 -6 105 3Q77 13 66 24.5Q55 36 52 56Q52 63 51.5 73.5Q51 84 51 93L52 202L77 206Q96 113 133.5 69.5Q171 26 234 26Q292 26 325 55Q358 84 358 141Q358 179 335 209.5Q312 240 261 265L234 279Q155 317 119 362Q83 407 83 473Q83 553 140 606.5Q197 660 284 660Q325 660 358 654Q391 648 422 635Q436 628 442.5 617Q449 606 449 588Q449 583 448 570.5Q447 558 446 548L437 463H413Q404 543 371 581.5Q338 620 278 620Q229 620 200 592.5Q171 565 171 514Q171 473 197.5 443Q224 413 285 383L316 368Q387 333 419 289Q451 245 451 185Q451 139 434.5 102Q418 65 388.5 39.5Q359 14 318.5 0Q278 -14 230 -14Z" glyph-name="Sacute" horiz-adv-x="474" unicode="&#346;" /><glyph d="M269 698Q253 698 245 705.5Q237 713 229 730L172 840L190 844L284 773L389 844L407 840L332 730Q321 712 312 705Q303 698 287 698ZM230 -14Q190 -14 160 -10Q130 -6 105 3Q77 13 66 24.5Q55 36 52 56Q52 63 51.5 73.5Q51 84 51 93L52 202L77 206Q96 113 133.5 69.5Q171 26 234 26Q292 26 325 55Q358 84 358 141Q358 179 335 209.5Q312 240 261 265L234 279Q155 317 119 362Q83 407 83 473Q83 553 140 606.5Q197 660 284 660Q325 660 358 654Q391 648 422 635Q436 628 442.5 617Q449 606 449 588Q449 583 448 570.5Q447 558 446 548L437 463H413Q404 543 371 581.5Q338 620 278 620Q229 620 200 592.5Q171 565 171 514Q171 473 197.5 443Q224 413 285 383L316 368Q387 333 419 289Q451 245 451 185Q451 139 434.5 102Q418 65 388.5 39.5Q359 14 318.5 0Q278 -14 230 -14Z" glyph-name="Scaron" horiz-adv-x="474" unicode="&#352;" /><glyph d="M185 -247Q147 -247 122 -227.5Q97 -208 97 -180Q97 -166 106 -157Q115 -148 129 -148Q141 -148 145 -150Q149 -152 150 -161L158 -216Q162 -220 166.5 -221.5Q171 -223 177 -223Q198 -223 210.5 -209Q223 -195 223 -170Q223 -146 209.5 -130Q196 -114 169 -105L208 -14Q176 -13 151 -8.5Q126 -4 105 3Q77 13 66 24.5Q55 36 52 56Q52 63 51.5 73.5Q51 84 51 93L52 202L77 206Q96 113 133.5 69.5Q171 26 234 26Q292 26 325 55Q358 84 358 141Q358 179 335 209.5Q312 240 261 265L234 279Q155 317 119 362Q83 407 83 473Q83 553 140 606.5Q197 660 284 660Q325 660 358 654Q391 648 422 635Q436 628 442.5 617Q449 606 449 588Q449 583 448 570.5Q447 558 446 548L437 463H413Q404 543 371 581.5Q338 620 278 620Q229 620 200 592.5Q171 565 171 514Q171 473 197.5 443Q224 413 285 383L316 368Q387 333 419 289Q451 245 451 185Q451 98 395 45.5Q339 -7 252 -13L224 -59Q261 -69 279.5 -91.5Q298 -114 298 -148Q298 -191 266.5 -219Q235 -247 185 -247Z" glyph-name="Scedilla" horiz-adv-x="474" unicode="&#350;" /><glyph d="M180 695 163 699 237 808Q248 825 256.5 831.5Q265 838 281 838H300Q316 838 324 831.5Q332 825 340 808L395 699L378 695L284 766ZM230 -14Q190 -14 160 -10Q130 -6 105 3Q77 13 66 24.5Q55 36 52 56Q52 63 51.5 73.5Q51 84 51 93L52 202L77 206Q96 113 133.5 69.5Q171 26 234 26Q292 26 325 55Q358 84 358 141Q358 179 335 209.5Q312 240 261 265L234 279Q155 317 119 362Q83 407 83 473Q83 553 140 606.5Q197 660 284 660Q325 660 358 654Q391 648 422 635Q436 628 442.5 617Q449 606 449 588Q449 583 448 570.5Q447 558 446 548L437 463H413Q404 543 371 581.5Q338 620 278 620Q229 620 200 592.5Q171 565 171 514Q171 473 197.5 443Q224 413 285 383L316 368Q387 333 419 289Q451 245 451 185Q451 139 434.5 102Q418 65 388.5 39.5Q359 14 318.5 0Q278 -14 230 -14Z" glyph-name="Scircumflex" horiz-adv-x="474" unicode="&#348;" /><glyph d="M230 -14Q190 -14 160 -10Q130 -6 105 3Q77 13 66 24.5Q55 36 52 56Q52 63 51.5 73.5Q51 84 51 93L52 202L77 206Q96 113 133.5 69.5Q171 26 234 26Q292 26 325 55Q358 84 358 141Q358 179 335 209.5Q312 240 261 265L234 279Q155 317 119 362Q83 407 83 473Q83 553 140 606.5Q197 660 284 660Q325 660 358 654Q391 648 422 635Q436 628 442.5 617Q449 606 449 588Q449 583 448 570.5Q447 558 446 548L437 463H413Q404 543 371 581.5Q338 620 278 620Q229 620 200 592.5Q171 565 171 514Q171 473 197.5 443Q224 413 285 383L316 368Q387 333 419 289Q451 245 451 185Q451 139 434.5 102Q418 65 388.5 39.5Q359 14 318.5 0Q278 -14 230 -14ZM143 -251 140 -236Q168 -214 180 -197.5Q192 -181 199 -161L180 -112Q178 -106 177 -103Q176 -100 176 -98Q176 -87 191 -77.5Q206 -68 225 -68Q250 -68 264 -83.5Q278 -99 278 -124Q278 -165 246 -195.5Q214 -226 143 -251Z" glyph-name="Scommaaccent" horiz-adv-x="474" unicode="&#536;" /><glyph d="M121 0 123 26 165 35Q207 43 220 56.5Q233 70 237 113L279 603H257Q197 603 162.5 578Q128 553 109 489L99 453H75L89 619Q90 632 97.5 639Q105 646 118 646H560Q572 646 578.5 640.5Q585 635 585 623Q585 619 584 610.5Q583 602 582 588L570 453H545L542 489Q535 553 504 578Q473 603 413 603H385L346 143Q344 122 342.5 108Q341 94 341 88Q341 61 354 51Q367 41 401 35L455 26L452 0Z" glyph-name="T" horiz-adv-x="566" unicode="T" /><glyph d="M121 0 123 26 165 35Q207 43 220 56.5Q233 70 237 113L253 300H136L139 337H257L279 603H257Q197 603 162.5 578Q128 553 109 489L99 453H75L89 619Q90 632 97.5 639Q105 646 118 646H560Q572 646 578.5 640.5Q585 635 585 623Q585 619 584 610.5Q583 602 582 588L570 453H545L542 489Q535 553 504 578Q473 603 413 603H385L362 337H484L481 300H359L346 143Q344 122 342.5 108Q341 94 341 88Q341 61 354 51Q367 41 401 35L455 26L452 0Z" glyph-name="Tbar" horiz-adv-x="566" unicode="&#358;" /><glyph d="M330 698Q314 698 306 705.5Q298 713 290 730L233 840L251 844L345 773L450 844L468 840L393 730Q382 712 373 705Q364 698 348 698ZM121 0 123 26 165 35Q207 43 220 56.5Q233 70 237 113L279 603H257Q197 603 162.5 578Q128 553 109 489L99 453H75L89 619Q90 632 97.5 639Q105 646 118 646H560Q572 646 578.5 640.5Q585 635 585 623Q585 619 584 610.5Q583 602 582 588L570 453H545L542 489Q535 553 504 578Q473 603 413 603H385L346 143Q344 122 342.5 108Q341 94 341 88Q341 61 354 51Q367 41 401 35L455 26L452 0Z" glyph-name="Tcaron" horiz-adv-x="566" unicode="&#356;" /><glyph d="M220 -247Q182 -247 157 -227.5Q132 -208 132 -180Q132 -166 141 -157Q150 -148 164 -148Q176 -148 180 -150Q184 -152 185 -161L193 -216Q197 -220 201.5 -221.5Q206 -223 212 -223Q233 -223 245.5 -209Q258 -195 258 -170Q258 -146 244.5 -130Q231 -114 204 -105L249 0H121L123 26L165 35Q207 43 220 56.5Q233 70 237 113L279 603H257Q197 603 162.5 578Q128 553 109 489L99 453H75L89 619Q90 632 97.5 639Q105 646 118 646H560Q572 646 578.5 640.5Q585 635 585 623Q585 619 584 610.5Q583 602 582 588L570 453H545L542 489Q535 553 504 578Q473 603 413 603H385L346 143Q344 122 342.5 108Q341 94 341 88Q341 61 354 51Q367 41 401 35L455 26L452 0H296L260 -59Q296 -69 314.5 -91.5Q333 -114 333 -148Q333 -191 301.5 -219Q270 -247 220 -247Z" glyph-name="Tcedilla" horiz-adv-x="566" unicode="&#354;" /><glyph d="M121 0 123 26 165 35Q207 43 220 56.5Q233 70 237 113L279 603H257Q197 603 162.5 578Q128 553 109 489L99 453H75L89 619Q90 632 97.5 639Q105 646 118 646H560Q572 646 578.5 640.5Q585 635 585 623Q585 619 584 610.5Q583 602 582 588L570 453H545L542 489Q535 553 504 578Q473 603 413 603H385L346 143Q344 122 342.5 108Q341 94 341 88Q341 61 354 51Q367 41 401 35L455 26L452 0ZM176 -251 173 -236Q201 -214 213 -197.5Q225 -181 232 -161L213 -112Q211 -106 210 -103Q209 -100 209 -98Q209 -87 224 -77.5Q239 -68 258 -68Q283 -68 297 -83.5Q311 -99 311 -124Q311 -165 279 -195.5Q247 -226 176 -251Z" glyph-name="Tcommaaccent" horiz-adv-x="566" unicode="&#538;" /><glyph d="M24 0 26 26 62 33Q102 40 115.5 53.5Q129 67 133 110L168 515Q169 532 170 543.5Q171 555 171 560Q171 587 158 597.5Q145 608 113 613L78 620L80 646H383L381 620L344 613Q304 607 291 593Q278 579 274 536L273 516Q401 516 476.5 472.5Q552 429 552 333Q552 239 489.5 192Q427 145 299 145Q286 145 272 146.5Q258 148 242 150L240 131Q239 115 238 103Q237 91 237 86Q237 59 249 48Q261 37 293 33L329 26L327 0ZM280 182Q346 182 390 214.5Q434 247 434 332Q434 403 394 439.5Q354 476 294 477Q287 477 281 477.5Q275 478 269 477L245 187Q252 186 262.5 184Q273 182 280 182Z" glyph-name="Thorn" horiz-adv-x="550" unicode="&#222;" /><glyph d="M324 -12Q225 -12 171.5 46.5Q118 105 118 215Q118 229 119.5 253.5Q121 278 122 291L142 514Q143 529 144 541.5Q145 554 145 559Q145 587 133 597Q121 607 87 613L60 619L62 646H360L357 618L257 607L228 269Q227 253 225 227.5Q223 202 223 189Q223 111 255 70.5Q287 30 347 30Q416 30 453.5 81.5Q491 133 501 253L532 607L447 618L450 646H685L683 619L651 613Q611 606 598.5 592Q586 578 583 535L558 252Q546 114 488.5 51Q431 -12 324 -12Z" glyph-name="U" horiz-adv-x="635" unicode="U" /><glyph d="M376 691 370 706 496 833Q508 846 513 848Q518 850 522 850Q533 850 549 836.5Q565 823 565 795Q565 767 548.5 753Q532 739 510 732ZM324 -12Q225 -12 171.5 46.5Q118 105 118 215Q118 229 119.5 253.5Q121 278 122 291L142 514Q143 529 144 541.5Q145 554 145 559Q145 587 133 597Q121 607 87 613L60 619L62 646H360L357 618L257 607L228 269Q227 253 225 227.5Q223 202 223 189Q223 111 255 70.5Q287 30 347 30Q416 30 453.5 81.5Q491 133 501 253L532 607L447 618L450 646H685L683 619L651 613Q611 606 598.5 592Q586 578 583 535L558 252Q546 114 488.5 51Q431 -12 324 -12Z" glyph-name="Uacute" horiz-adv-x="635" unicode="&#218;" /><glyph d="M405 695Q362 695 337 725Q312 755 312 812Q312 819 312 825Q312 831 313 838H332Q338 806 358 790Q378 774 412 774Q446 774 469 789.5Q492 805 504 838H523Q516 766 485 730.5Q454 695 405 695ZM324 -12Q225 -12 171.5 46.5Q118 105 118 215Q118 229 119.5 253.5Q121 278 122 291L142 514Q143 529 144 541.5Q145 554 145 559Q145 587 133 597Q121 607 87 613L60 619L62 646H360L357 618L257 607L228 269Q227 253 225 227.5Q223 202 223 189Q223 111 255 70.5Q287 30 347 30Q416 30 453.5 81.5Q491 133 501 253L532 607L447 618L450 646H685L683 619L651 613Q611 606 598.5 592Q586 578 583 535L558 252Q546 114 488.5 51Q431 -12 324 -12Z" glyph-name="Ubreve" horiz-adv-x="635" unicode="&#364;" /><glyph d="M308 695 291 699 365 808Q376 825 384.5 831.5Q393 838 409 838H428Q444 838 452 831.5Q460 825 468 808L523 699L506 695L412 766ZM324 -12Q225 -12 171.5 46.5Q118 105 118 215Q118 229 119.5 253.5Q121 278 122 291L142 514Q143 529 144 541.5Q145 554 145 559Q145 587 133 597Q121 607 87 613L60 619L62 646H360L357 618L257 607L228 269Q227 253 225 227.5Q223 202 223 189Q223 111 255 70.5Q287 30 347 30Q416 30 453.5 81.5Q491 133 501 253L532 607L447 618L450 646H685L683 619L651 613Q611 606 598.5 592Q586 578 583 535L558 252Q546 114 488.5 51Q431 -12 324 -12Z" glyph-name="Ucircumflex" horiz-adv-x="635" unicode="&#219;" /><glyph d="M325 712Q301 712 287 727Q273 742 273 766Q273 794 290.5 813.5Q308 833 337 833Q361 833 375 818Q389 803 389 779Q389 751 371.5 731.5Q354 712 325 712ZM487 712Q463 712 449 727Q435 742 435 766Q435 794 452.5 813.5Q470 833 499 833Q523 833 537 818Q551 803 551 779Q551 751 533.5 731.5Q516 712 487 712ZM324 -12Q225 -12 171.5 46.5Q118 105 118 215Q118 229 119.5 253.5Q121 278 122 291L142 514Q143 529 144 541.5Q145 554 145 559Q145 587 133 597Q121 607 87 613L60 619L62 646H360L357 618L257 607L228 269Q227 253 225 227.5Q223 202 223 189Q223 111 255 70.5Q287 30 347 30Q416 30 453.5 81.5Q491 133 501 253L532 607L447 618L450 646H685L683 619L651 613Q611 606 598.5 592Q586 578 583 535L558 252Q546 114 488.5 51Q431 -12 324 -12Z" glyph-name="Udieresis" horiz-adv-x="635" unicode="&#220;" /><glyph d="M436 691 303 732Q282 739 271.5 754Q261 769 261 791Q261 816 277 833Q293 850 312 850Q316 850 320 847.5Q324 845 334 833L444 707ZM324 -12Q225 -12 171.5 46.5Q118 105 118 215Q118 229 119.5 253.5Q121 278 122 291L142 514Q143 529 144 541.5Q145 554 145 559Q145 587 133 597Q121 607 87 613L60 619L62 646H360L357 618L257 607L228 269Q227 253 225 227.5Q223 202 223 189Q223 111 255 70.5Q287 30 347 30Q416 30 453.5 81.5Q491 133 501 253L532 607L447 618L450 646H685L683 619L651 613Q611 606 598.5 592Q586 578 583 535L558 252Q546 114 488.5 51Q431 -12 324 -12Z" glyph-name="Ugrave" horiz-adv-x="635" unicode="&#217;" /><glyph d="M326 688 313 699 386 849Q396 871 402 877Q408 883 416 883Q438 883 455.5 868.5Q473 854 473 832Q473 818 464.5 804Q456 790 441 779ZM438 693 433 709 548 827Q560 839 564.5 842Q569 845 575 845Q592 845 606.5 830Q621 815 621 793Q621 773 607.5 758Q594 743 567 734ZM324 -12Q225 -12 171.5 46.5Q118 105 118 215Q118 229 119.5 253.5Q121 278 122 291L142 514Q143 529 144 541.5Q145 554 145 559Q145 587 133 597Q121 607 87 613L60 619L62 646H360L357 618L257 607L228 269Q227 253 225 227.5Q223 202 223 189Q223 111 255 70.5Q287 30 347 30Q416 30 453.5 81.5Q491 133 501 253L532 607L447 618L450 646H685L683 619L651 613Q611 606 598.5 592Q586 578 583 535L558 252Q546 114 488.5 51Q431 -12 324 -12Z" glyph-name="Uhungarumlaut" horiz-adv-x="635" unicode="&#368;" /><glyph d="M294 737 299 786H528L524 737ZM324 -12Q225 -12 171.5 46.5Q118 105 118 215Q118 229 119.5 253.5Q121 278 122 291L142 514Q143 529 144 541.5Q145 554 145 559Q145 587 133 597Q121 607 87 613L60 619L62 646H360L357 618L257 607L228 269Q227 253 225 227.5Q223 202 223 189Q223 111 255 70.5Q287 30 347 30Q416 30 453.5 81.5Q491 133 501 253L532 607L447 618L450 646H685L683 619L651 613Q611 606 598.5 592Q586 578 583 535L558 252Q546 114 488.5 51Q431 -12 324 -12Z" glyph-name="Umacron" horiz-adv-x="635" unicode="&#362;" /><glyph d="M326 -245Q286 -245 264.5 -222.5Q243 -200 243 -160Q243 -120 271.5 -81.5Q300 -43 353 -12H324Q225 -12 171.5 46.5Q118 105 118 215Q118 229 119.5 253.5Q121 278 122 291L142 514Q143 529 144 541.5Q145 554 145 559Q145 587 133 597Q121 607 87 613L60 619L62 646H360L357 618L257 607L228 269Q227 253 225 227.5Q223 202 223 189Q223 111 255 70.5Q287 30 347 30Q416 30 453.5 81.5Q491 133 501 253L532 607L447 618L450 646H685L683 619L651 613Q611 606 598.5 592Q586 578 583 535L558 252Q550 153 518.5 94Q487 35 432 4Q379 -26 354 -64Q329 -102 329 -142Q329 -167 341.5 -180Q354 -193 377 -193Q387 -193 398.5 -189Q410 -185 426 -175L422 -197Q404 -219 378.5 -232Q353 -245 326 -245Z" glyph-name="Uogonek" horiz-adv-x="635" unicode="&#370;" /><glyph d="M405 690Q368 690 345 712.5Q322 735 322 773Q322 819 350 850Q378 881 422 881Q459 881 482.5 859Q506 837 506 798Q506 752 477.5 721Q449 690 405 690ZM409 735Q431 735 443.5 751Q456 767 456 794Q456 814 446 825.5Q436 837 418 837Q396 837 383.5 821Q371 805 371 777Q371 757 381 746Q391 735 409 735ZM324 -12Q225 -12 171.5 46.5Q118 105 118 215Q118 229 119.5 253.5Q121 278 122 291L142 514Q143 529 144 541.5Q145 554 145 559Q145 587 133 597Q121 607 87 613L60 619L62 646H360L357 618L257 607L228 269Q227 253 225 227.5Q223 202 223 189Q223 111 255 70.5Q287 30 347 30Q416 30 453.5 81.5Q491 133 501 253L532 607L447 618L450 646H685L683 619L651 613Q611 606 598.5 592Q586 578 583 535L558 252Q546 114 488.5 51Q431 -12 324 -12Z" glyph-name="Uring" horiz-adv-x="635" unicode="&#366;" /><glyph d="M443 714Q412 714 396.5 728.5Q381 743 356 743Q343 743 333.5 736Q324 729 317 707H296Q304 764 324.5 791.5Q345 819 377 819Q403 819 421 804.5Q439 790 465 790Q481 790 490.5 800.5Q500 811 506 836L527 834Q520 774 500 744Q480 714 443 714ZM324 -12Q225 -12 171.5 46.5Q118 105 118 215Q118 229 119.5 253.5Q121 278 122 291L142 514Q143 529 144 541.5Q145 554 145 559Q145 587 133 597Q121 607 87 613L60 619L62 646H360L357 618L257 607L228 269Q227 253 225 227.5Q223 202 223 189Q223 111 255 70.5Q287 30 347 30Q416 30 453.5 81.5Q491 133 501 253L532 607L447 618L450 646H685L683 619L651 613Q611 606 598.5 592Q586 578 583 535L558 252Q546 114 488.5 51Q431 -12 324 -12Z" glyph-name="Utilde" horiz-adv-x="635" unicode="&#360;" /><glyph d="M279 -5Q258 -5 249 3.5Q240 12 236 29L104 570Q98 591 91 599.5Q84 608 67 612L51 617L54 646H310L308 616L208 605L320 132L513 607L424 618L427 646H626L623 617L597 611Q582 607 572.5 598.5Q563 590 554 568L318 -5Z" glyph-name="V" horiz-adv-x="566" unicode="V" /><glyph d="M257 -5Q238 -5 228.5 3Q219 11 215 31L116 570Q112 592 104 600.5Q96 609 78 613L62 617L64 646H311L309 616L223 607L306 118L450 545L437 607L384 617L386 646H639L636 616L550 607L631 130L800 607L722 618L724 646H906L903 619L886 613Q866 607 857 596.5Q848 586 840 563L635 -5H584Q565 -5 555.5 3Q546 11 543 31L469 452L319 -5Z" glyph-name="W" horiz-adv-x="865" unicode="W" /><glyph d="M478 691 472 706 598 833Q610 846 615 848Q620 850 624 850Q635 850 651 836.5Q667 823 667 795Q667 767 650.5 753Q634 739 612 732ZM257 -5Q238 -5 228.5 3Q219 11 215 31L116 570Q112 592 104 600.5Q96 609 78 613L62 617L64 646H311L309 616L223 607L306 118L450 545L437 607L384 617L386 646H639L636 616L550 607L631 130L800 607L722 618L724 646H906L903 619L886 613Q866 607 857 596.5Q848 586 840 563L635 -5H584Q565 -5 555.5 3Q546 11 543 31L469 452L319 -5Z" glyph-name="Wacute" horiz-adv-x="865" unicode="&#7810;" /><glyph d="M410 695 393 699 467 808Q478 825 486.5 831.5Q495 838 511 838H530Q546 838 554 831.5Q562 825 570 808L625 699L608 695L514 766ZM257 -5Q238 -5 228.5 3Q219 11 215 31L116 570Q112 592 104 600.5Q96 609 78 613L62 617L64 646H311L309 616L223 607L306 118L450 545L437 607L384 617L386 646H639L636 616L550 607L631 130L800 607L722 618L724 646H906L903 619L886 613Q866 607 857 596.5Q848 586 840 563L635 -5H584Q565 -5 555.5 3Q546 11 543 31L469 452L319 -5Z" glyph-name="Wcircumflex" horiz-adv-x="865" unicode="&#372;" /><glyph d="M427 712Q403 712 389 727Q375 742 375 766Q375 794 392.5 813.5Q410 833 439 833Q463 833 477 818Q491 803 491 779Q491 751 473.5 731.5Q456 712 427 712ZM589 712Q565 712 551 727Q537 742 537 766Q537 794 554.5 813.5Q572 833 601 833Q625 833 639 818Q653 803 653 779Q653 751 635.5 731.5Q618 712 589 712ZM257 -5Q238 -5 228.5 3Q219 11 215 31L116 570Q112 592 104 600.5Q96 609 78 613L62 617L64 646H311L309 616L223 607L306 118L450 545L437 607L384 617L386 646H639L636 616L550 607L631 130L800 607L722 618L724 646H906L903 619L886 613Q866 607 857 596.5Q848 586 840 563L635 -5H584Q565 -5 555.5 3Q546 11 543 31L469 452L319 -5Z" glyph-name="Wdieresis" horiz-adv-x="865" unicode="&#7812;" /><glyph d="M538 691 405 732Q384 739 373.5 754Q363 769 363 791Q363 816 379 833Q395 850 414 850Q418 850 422 847.5Q426 845 436 833L546 707ZM257 -5Q238 -5 228.5 3Q219 11 215 31L116 570Q112 592 104 600.5Q96 609 78 613L62 617L64 646H311L309 616L223 607L306 118L450 545L437 607L384 617L386 646H639L636 616L550 607L631 130L800 607L722 618L724 646H906L903 619L886 613Q866 607 857 596.5Q848 586 840 563L635 -5H584Q565 -5 555.5 3Q546 11 543 31L469 452L319 -5Z" glyph-name="Wgrave" horiz-adv-x="865" unicode="&#7808;" /><glyph d="M-9 0 -7 25 9 29Q37 36 52 46.5Q67 57 81 76L252 316L129 577Q122 593 109.5 600.5Q97 608 80 612L59 617L62 646H318L315 616L234 605L328 399L478 608L403 618L406 646H607L605 621L580 614Q557 609 540.5 595.5Q524 582 508 560L352 354L485 82Q494 63 509.5 49.5Q525 36 547 31L569 25L567 0H302L304 28L385 39L276 269L120 38L198 28L195 0Z" glyph-name="X" horiz-adv-x="564" unicode="X" /><glyph d="M362 712Q337 712 322.5 728Q308 744 308 769Q308 799 326 819.5Q344 840 374 840Q399 840 413.5 823.5Q428 807 428 783Q428 753 410.5 732.5Q393 712 362 712ZM-9 0 -7 25 9 29Q37 36 52 46.5Q67 57 81 76L252 316L129 577Q122 593 109.5 600.5Q97 608 80 612L59 617L62 646H318L315 616L234 605L328 399L478 608L403 618L406 646H607L605 621L580 614Q557 609 540.5 595.5Q524 582 508 560L352 354L485 82Q494 63 509.5 49.5Q525 36 547 31L569 25L567 0H302L304 28L385 39L276 269L120 38L198 28L195 0Z" glyph-name="Xdot" horiz-adv-x="564" unicode="&#7818;" /><glyph d="M101 0 103 26 151 35Q192 42 205 55.5Q218 69 222 112L235 266L92 581Q88 590 79.5 599.5Q71 609 58 613L42 618L45 646H293L291 617L201 607L321 335L484 608L405 618L407 646H598L596 619L570 611Q553 605 542.5 597.5Q532 590 522 573L342 278L330 141Q329 124 327.5 109Q326 94 326 89Q326 62 338 51.5Q350 41 384 35L432 27L430 0Z" glyph-name="Y" horiz-adv-x="530" unicode="Y" /><glyph d="M320 691 314 706 440 833Q452 846 457 848Q462 850 466 850Q477 850 493 836.5Q509 823 509 795Q509 767 492.5 753Q476 739 454 732ZM101 0 103 26 151 35Q192 42 205 55.5Q218 69 222 112L235 266L92 581Q88 590 79.5 599.5Q71 609 58 613L42 618L45 646H293L291 617L201 607L321 335L484 608L405 618L407 646H598L596 619L570 611Q553 605 542.5 597.5Q532 590 522 573L342 278L330 141Q329 124 327.5 109Q326 94 326 89Q326 62 338 51.5Q350 41 384 35L432 27L430 0Z" glyph-name="Yacute" horiz-adv-x="530" unicode="&#221;" /><glyph d="M252 695 235 699 309 808Q320 825 328.5 831.5Q337 838 353 838H372Q388 838 396 831.5Q404 825 412 808L467 699L450 695L356 766ZM101 0 103 26 151 35Q192 42 205 55.5Q218 69 222 112L235 266L92 581Q88 590 79.5 599.5Q71 609 58 613L42 618L45 646H293L291 617L201 607L321 335L484 608L405 618L407 646H598L596 619L570 611Q553 605 542.5 597.5Q532 590 522 573L342 278L330 141Q329 124 327.5 109Q326 94 326 89Q326 62 338 51.5Q350 41 384 35L432 27L430 0Z" glyph-name="Ycircumflex" horiz-adv-x="530" unicode="&#374;" /><glyph d="M269 712Q245 712 231 727Q217 742 217 766Q217 794 234.5 813.5Q252 833 281 833Q305 833 319 818Q333 803 333 779Q333 751 315.5 731.5Q298 712 269 712ZM431 712Q407 712 393 727Q379 742 379 766Q379 794 396.5 813.5Q414 833 443 833Q467 833 481 818Q495 803 495 779Q495 751 477.5 731.5Q460 712 431 712ZM101 0 103 26 151 35Q192 42 205 55.5Q218 69 222 112L235 266L92 581Q88 590 79.5 599.5Q71 609 58 613L42 618L45 646H293L291 617L201 607L321 335L484 608L405 618L407 646H598L596 619L570 611Q553 605 542.5 597.5Q532 590 522 573L342 278L330 141Q329 124 327.5 109Q326 94 326 89Q326 62 338 51.5Q350 41 384 35L432 27L430 0Z" glyph-name="Ydieresis" horiz-adv-x="530" unicode="&#376;" /><glyph d="M380 691 247 732Q226 739 215.5 754Q205 769 205 791Q205 816 221 833Q237 850 256 850Q260 850 264 847.5Q268 845 278 833L388 707ZM101 0 103 26 151 35Q192 42 205 55.5Q218 69 222 112L235 266L92 581Q88 590 79.5 599.5Q71 609 58 613L42 618L45 646H293L291 617L201 607L321 335L484 608L405 618L407 646H598L596 619L570 611Q553 605 542.5 597.5Q532 590 522 573L342 278L330 141Q329 124 327.5 109Q326 94 326 89Q326 62 338 51.5Q350 41 384 35L432 27L430 0Z" glyph-name="Ygrave" horiz-adv-x="530" unicode="&#7922;" /><glyph d="M444 -8Q438 -8 420.5 -6.5Q403 -5 380 -4Q357 -3 330 -1.5Q303 0 278 0H33V24L398 603H256Q196 603 166.5 578.5Q137 554 118 490L107 453H84L98 619Q99 632 106.5 639Q114 646 127 646H533L534 620L169 46Q181 46 197.5 45.5Q214 45 231 44.5Q248 44 264.5 43.5Q281 43 292 43Q361 43 402.5 72Q444 101 478 179L496 218L519 213L478 19Q475 5 466.5 -1.5Q458 -8 444 -8Z" glyph-name="Z" horiz-adv-x="528" unicode="Z" /><glyph d="M285 691 279 706 405 833Q417 846 422 848Q427 850 431 850Q442 850 458 836.5Q474 823 474 795Q474 767 457.5 753Q441 739 419 732ZM444 -8Q438 -8 420.5 -6.5Q403 -5 380 -4Q357 -3 330 -1.5Q303 0 278 0H33V24L398 603H256Q196 603 166.5 578.5Q137 554 118 490L107 453H84L98 619Q99 632 106.5 639Q114 646 127 646H533L534 620L169 46Q181 46 197.5 45.5Q214 45 231 44.5Q248 44 264.5 43.5Q281 43 292 43Q361 43 402.5 72Q444 101 478 179L496 218L519 213L478 19Q475 5 466.5 -1.5Q458 -8 444 -8Z" glyph-name="Zacute" horiz-adv-x="528" unicode="&#377;" /><glyph d="M306 698Q290 698 282 705.5Q274 713 266 730L209 840L227 844L321 773L426 844L444 840L369 730Q358 712 349 705Q340 698 324 698ZM444 -8Q438 -8 420.5 -6.5Q403 -5 380 -4Q357 -3 330 -1.5Q303 0 278 0H33V24L398 603H256Q196 603 166.5 578.5Q137 554 118 490L107 453H84L98 619Q99 632 106.5 639Q114 646 127 646H533L534 620L169 46Q181 46 197.5 45.5Q214 45 231 44.5Q248 44 264.5 43.5Q281 43 292 43Q361 43 402.5 72Q444 101 478 179L496 218L519 213L478 19Q475 5 466.5 -1.5Q458 -8 444 -8Z" glyph-name="Zcaron" horiz-adv-x="528" unicode="&#381;" /><glyph d="M316 712Q291 712 276.5 728Q262 744 262 769Q262 799 280 819.5Q298 840 328 840Q353 840 367.5 823.5Q382 807 382 783Q382 753 364.5 732.5Q347 712 316 712ZM444 -8Q438 -8 420.5 -6.5Q403 -5 380 -4Q357 -3 330 -1.5Q303 0 278 0H33V24L398 603H256Q196 603 166.5 578.5Q137 554 118 490L107 453H84L98 619Q99 632 106.5 639Q114 646 127 646H533L534 620L169 46Q181 46 197.5 45.5Q214 45 231 44.5Q248 44 264.5 43.5Q281 43 292 43Q361 43 402.5 72Q444 101 478 179L496 218L519 213L478 19Q475 5 466.5 -1.5Q458 -8 444 -8Z" glyph-name="Zdotaccent" horiz-adv-x="528" unicode="&#379;" /><glyph d="M444 -8Q438 -8 420.5 -6.5Q403 -5 380 -4Q357 -3 330 -1.5Q303 0 278 0H33V24L216 314H119L123 351H239L398 603H256Q196 603 166.5 578.5Q137 554 118 490L107 453H84L98 619Q99 632 106.5 639Q114 646 127 646H533L534 620L362 351H462L458 314H339L169 46Q181 46 197.5 45.5Q214 45 231 44.5Q248 44 264.5 43.5Q281 43 292 43Q361 43 402.5 72Q444 101 478 179L496 218L519 213L478 19Q475 5 466.5 -1.5Q458 -8 444 -8Z" glyph-name="Zstroke" horiz-adv-x="528" unicode="&#437;" /><glyph d="M203 -14Q138 -14 103 42.5Q68 99 68 193Q68 258 85.5 313Q103 368 134 407.5Q165 447 209 469.5Q253 492 306 492Q361 492 401.5 483.5Q442 475 482 457Q475 422 469.5 386Q464 350 461 312L446 139Q444 117 443 98Q442 79 442 72Q442 49 456 40.5Q470 32 513 31L511 8Q489 1 467 -3.5Q445 -8 426 -8Q390 -8 371 11Q352 30 352 69Q352 73 353 89Q354 105 355 124Q319 51 281.5 18.5Q244 -14 203 -14ZM242 51Q263 51 283 72.5Q303 94 319 129.5Q335 165 347 212.5Q359 260 363 311L372 417Q356 434 336 445.5Q316 457 291 457Q238 457 205.5 392Q173 327 173 218Q173 137 191.5 94Q210 51 242 51Z" glyph-name="a" horiz-adv-x="524" unicode="a" /><glyph d="M-2 0 0 26 13 29Q32 33 41 38Q50 43 59 62L265 522H309Q323 522 330.5 516.5Q338 511 342 497L464 63Q468 47 477 40Q486 33 505 29L519 26L517 0H282L284 28L367 38L334 164H157L103 38L177 28L175 0ZM174 204H323L266 419Z" glyph-name="a.smcp" horiz-adv-x="515" /><glyph d="M268 548 258 562 360 700Q373 717 378 720.5Q383 724 389 724Q403 724 421.5 711.5Q440 699 440 668Q440 646 427.5 632.5Q415 619 396 610ZM203 -14Q138 -14 103 42.5Q68 99 68 193Q68 258 85.5 313Q103 368 134 407.5Q165 447 209 469.5Q253 492 306 492Q361 492 401.5 483.5Q442 475 482 457Q475 422 469.5 386Q464 350 461 312L446 139Q444 117 443 98Q442 79 442 72Q442 49 456 40.5Q470 32 513 31L511 8Q489 1 467 -3.5Q445 -8 426 -8Q390 -8 371 11Q352 30 352 69Q352 73 353 89Q354 105 355 124Q319 51 281.5 18.5Q244 -14 203 -14ZM242 51Q263 51 283 72.5Q303 94 319 129.5Q335 165 347 212.5Q359 260 363 311L372 417Q356 434 336 445.5Q316 457 291 457Q238 457 205.5 392Q173 327 173 218Q173 137 191.5 94Q210 51 242 51Z" glyph-name="aacute" horiz-adv-x="524" unicode="&#225;" /><glyph d="M272 563 266 578 392 705Q404 718 409 720Q414 722 418 722Q429 722 445 708.5Q461 695 461 667Q461 639 444.5 625Q428 611 406 604ZM-2 0 0 26 13 29Q32 33 41 38Q50 43 59 62L265 522H309Q323 522 330.5 516.5Q338 511 342 497L464 63Q468 47 477 40Q486 33 505 29L519 26L517 0H282L284 28L367 38L334 164H157L103 38L177 28L175 0ZM174 204H323L266 419Z" glyph-name="aacute.smcp" horiz-adv-x="515" /><glyph d="M306 551Q263 551 240.5 584Q218 617 218 686Q218 693 218 702Q218 711 219 720L238 724Q245 678 264 655.5Q283 633 314 633Q345 633 367.5 655Q390 677 406 724L424 720Q414 635 384 593Q354 551 306 551ZM203 -14Q138 -14 103 42.5Q68 99 68 193Q68 258 85.5 313Q103 368 134 407.5Q165 447 209 469.5Q253 492 306 492Q361 492 401.5 483.5Q442 475 482 457Q475 422 469.5 386Q464 350 461 312L446 139Q444 117 443 98Q442 79 442 72Q442 49 456 40.5Q470 32 513 31L511 8Q489 1 467 -3.5Q445 -8 426 -8Q390 -8 371 11Q352 30 352 69Q352 73 353 89Q354 105 355 124Q319 51 281.5 18.5Q244 -14 203 -14ZM242 51Q263 51 283 72.5Q303 94 319 129.5Q335 165 347 212.5Q359 260 363 311L372 417Q356 434 336 445.5Q316 457 291 457Q238 457 205.5 392Q173 327 173 218Q173 137 191.5 94Q210 51 242 51Z" glyph-name="abreve" horiz-adv-x="524" unicode="&#259;" /><glyph d="M301 567Q258 567 233 597Q208 627 208 684Q208 691 208 697Q208 703 209 710H228Q234 678 254 662Q274 646 308 646Q342 646 365 661.5Q388 677 400 710H419Q412 638 381 602.5Q350 567 301 567ZM-2 0 0 26 13 29Q32 33 41 38Q50 43 59 62L265 522H309Q323 522 330.5 516.5Q338 511 342 497L464 63Q468 47 477 40Q486 33 505 29L519 26L517 0H282L284 28L367 38L334 164H157L103 38L177 28L175 0ZM174 204H323L266 419Z" glyph-name="abreve.smcp" horiz-adv-x="515" /><glyph d="M214 539 196 543 265 690Q274 708 282.5 715Q291 722 307 722H334Q351 722 358 715Q365 708 371 690L416 543L397 539L314 640ZM203 -14Q138 -14 103 42.5Q68 99 68 193Q68 258 85.5 313Q103 368 134 407.5Q165 447 209 469.5Q253 492 306 492Q361 492 401.5 483.5Q442 475 482 457Q475 422 469.5 386Q464 350 461 312L446 139Q444 117 443 98Q442 79 442 72Q442 49 456 40.5Q470 32 513 31L511 8Q489 1 467 -3.5Q445 -8 426 -8Q390 -8 371 11Q352 30 352 69Q352 73 353 89Q354 105 355 124Q319 51 281.5 18.5Q244 -14 203 -14ZM242 51Q263 51 283 72.5Q303 94 319 129.5Q335 165 347 212.5Q359 260 363 311L372 417Q356 434 336 445.5Q316 457 291 457Q238 457 205.5 392Q173 327 173 218Q173 137 191.5 94Q210 51 242 51Z" glyph-name="acircumflex" horiz-adv-x="524" unicode="&#226;" /><glyph d="M204 567 187 571 261 680Q272 697 280.5 703.5Q289 710 305 710H324Q340 710 348 703.5Q356 697 364 680L419 571L402 567L308 638ZM-2 0 0 26 13 29Q32 33 41 38Q50 43 59 62L265 522H309Q323 522 330.5 516.5Q338 511 342 497L464 63Q468 47 477 40Q486 33 505 29L519 26L517 0H282L284 28L367 38L334 164H157L103 38L177 28L175 0ZM174 204H323L266 419Z" glyph-name="acircumflex.smcp" horiz-adv-x="515" /><glyph d="M230 548 220 562 322 700Q335 717 340 720.5Q345 724 351 724Q365 724 383.5 711.5Q402 699 402 668Q402 646 389.5 632.5Q377 619 358 610Z" glyph-name="acute" horiz-adv-x="440" unicode="&#180;" /><glyph d="M251 691 245 706 371 833Q383 846 388 848Q393 850 397 850Q408 850 424 836.5Q440 823 440 795Q440 767 423.5 753Q407 739 385 732Z" glyph-name="acute.case" horiz-adv-x="440" /><glyph d="M228 577Q205 577 191 592Q177 607 177 631Q177 659 194.5 678.5Q212 698 240 698Q263 698 277 683Q291 668 291 644Q291 616 273.5 596.5Q256 577 228 577ZM387 577Q364 577 350 592Q336 607 336 631Q336 659 353.5 678.5Q371 698 400 698Q422 698 436.5 683Q451 668 451 644Q451 616 433 596.5Q415 577 387 577ZM203 -14Q138 -14 103 42.5Q68 99 68 193Q68 258 85.5 313Q103 368 134 407.5Q165 447 209 469.5Q253 492 306 492Q361 492 401.5 483.5Q442 475 482 457Q475 422 469.5 386Q464 350 461 312L446 139Q444 117 443 98Q442 79 442 72Q442 49 456 40.5Q470 32 513 31L511 8Q489 1 467 -3.5Q445 -8 426 -8Q390 -8 371 11Q352 30 352 69Q352 73 353 89Q354 105 355 124Q319 51 281.5 18.5Q244 -14 203 -14ZM242 51Q263 51 283 72.5Q303 94 319 129.5Q335 165 347 212.5Q359 260 363 311L372 417Q356 434 336 445.5Q316 457 291 457Q238 457 205.5 392Q173 327 173 218Q173 137 191.5 94Q210 51 242 51Z" glyph-name="adieresis" horiz-adv-x="524" unicode="&#228;" /><glyph d="M221 584Q197 584 183 599Q169 614 169 638Q169 666 186.5 685.5Q204 705 233 705Q257 705 271 690Q285 675 285 651Q285 623 267.5 603.5Q250 584 221 584ZM383 584Q359 584 345 599Q331 614 331 638Q331 666 348.5 685.5Q366 705 395 705Q419 705 433 690Q447 675 447 651Q447 623 429.5 603.5Q412 584 383 584ZM-2 0 0 26 13 29Q32 33 41 38Q50 43 59 62L265 522H309Q323 522 330.5 516.5Q338 511 342 497L464 63Q468 47 477 40Q486 33 505 29L519 26L517 0H282L284 28L367 38L334 164H157L103 38L177 28L175 0ZM174 204H323L266 419Z" glyph-name="adieresis.smcp" horiz-adv-x="515" /><glyph d="M207 -14Q137 -14 102 42.5Q67 99 67 193Q67 259 85 314Q103 369 135 408.5Q167 448 211.5 470Q256 492 309 492Q355 492 386.5 486Q418 480 448 464Q472 479 500 486.5Q528 494 559 494Q614 494 651 466.5Q688 439 688 388Q688 341 653.5 311.5Q619 282 543 262L426 232Q426 139 461.5 94.5Q497 50 561 50Q592 50 617.5 61Q643 72 670 95L678 78Q644 34 605.5 9.5Q567 -15 516 -15Q453 -15 409 14.5Q365 44 344 97Q311 40 276.5 13Q242 -14 207 -14ZM428 282 497 290Q548 296 575 317Q602 338 602 383Q602 417 585.5 438Q569 459 541 459Q499 459 467 417Q435 375 428 282ZM239 51Q264 51 288 78.5Q312 106 329 155Q327 168 326 181.5Q325 195 325 209Q325 269 341 319.5Q357 370 385 409Q369 427 347 442Q325 457 293 457Q238 457 205 391.5Q172 326 172 218Q172 146 189 98.5Q206 51 239 51Z" glyph-name="ae" horiz-adv-x="691" unicode="&#230;" /><glyph d="M599 -6Q594 -6 576.5 -5Q559 -4 537.5 -3Q516 -2 492.5 -1Q469 0 452 0H202L205 27L287 38L298 164H160L83 38L151 27L149 0H-19L-16 27L-6 29Q11 32 21 39Q31 46 42 63L283 455Q285 459 286.5 462.5Q288 466 288 470Q288 477 280.5 481Q273 485 260 487L234 492L237 518H658Q668 518 674 513Q680 508 680 498Q680 496 679.5 489.5Q679 483 678 476L667 360H645L641 387Q633 441 608 460Q583 479 524 479H425L408 294H551L573 366H594L578 180H556L549 254H404L386 46Q403 43 425 40Q447 37 472 37Q538 37 572 61Q606 85 630 145L640 169L662 165L629 15Q627 4 620 -1Q613 -6 599 -6ZM184 204H302L324 434Z" glyph-name="ae.smcp" horiz-adv-x="686" /><glyph d="M415 548 405 562 507 700Q520 717 525 720.5Q530 724 536 724Q550 724 568.5 711.5Q587 699 587 668Q587 646 574.5 632.5Q562 619 543 610ZM207 -14Q137 -14 102 42.5Q67 99 67 193Q67 259 85 314Q103 369 135 408.5Q167 448 211.5 470Q256 492 309 492Q355 492 386.5 486Q418 480 448 464Q472 479 500 486.5Q528 494 559 494Q614 494 651 466.5Q688 439 688 388Q688 341 653.5 311.5Q619 282 543 262L426 232Q426 139 461.5 94.5Q497 50 561 50Q592 50 617.5 61Q643 72 670 95L678 78Q644 34 605.5 9.5Q567 -15 516 -15Q453 -15 409 14.5Q365 44 344 97Q311 40 276.5 13Q242 -14 207 -14ZM428 282 497 290Q548 296 575 317Q602 338 602 383Q602 417 585.5 438Q569 459 541 459Q499 459 467 417Q435 375 428 282ZM239 51Q264 51 288 78.5Q312 106 329 155Q327 168 326 181.5Q325 195 325 209Q325 269 341 319.5Q357 370 385 409Q369 427 347 442Q325 457 293 457Q238 457 205 391.5Q172 326 172 218Q172 146 189 98.5Q206 51 239 51Z" glyph-name="aeacute" horiz-adv-x="691" unicode="&#509;" /><glyph d="M371 570 365 585 491 712Q503 725 508 727Q513 729 517 729Q528 729 544 715.5Q560 702 560 674Q560 646 543.5 632Q527 618 505 611ZM599 -6Q594 -6 576.5 -5Q559 -4 537.5 -3Q516 -2 492.5 -1Q469 0 452 0H202L205 27L287 38L298 164H160L83 38L151 27L149 0H-19L-16 27L-6 29Q11 32 21 39Q31 46 42 63L283 455Q285 459 286.5 462.5Q288 466 288 470Q288 477 280.5 481Q273 485 260 487L234 492L237 518H658Q668 518 674 513Q680 508 680 498Q680 496 679.5 489.5Q679 483 678 476L667 360H645L641 387Q633 441 608 460Q583 479 524 479H425L408 294H551L573 366H594L578 180H556L549 254H404L386 46Q403 43 425 40Q447 37 472 37Q538 37 572 61Q606 85 630 145L640 169L662 165L629 15Q627 4 620 -1Q613 -6 599 -6ZM184 204H302L324 434Z" glyph-name="aeacute.smcp" horiz-adv-x="686" /><glyph d="M342 548 229 607Q212 615 201 628.5Q190 642 190 663Q190 692 211 708.5Q232 725 250 725Q256 725 260 721.5Q264 718 274 700L354 564ZM203 -14Q138 -14 103 42.5Q68 99 68 193Q68 258 85.5 313Q103 368 134 407.5Q165 447 209 469.5Q253 492 306 492Q361 492 401.5 483.5Q442 475 482 457Q475 422 469.5 386Q464 350 461 312L446 139Q444 117 443 98Q442 79 442 72Q442 49 456 40.5Q470 32 513 31L511 8Q489 1 467 -3.5Q445 -8 426 -8Q390 -8 371 11Q352 30 352 69Q352 73 353 89Q354 105 355 124Q319 51 281.5 18.5Q244 -14 203 -14ZM242 51Q263 51 283 72.5Q303 94 319 129.5Q335 165 347 212.5Q359 260 363 311L372 417Q356 434 336 445.5Q316 457 291 457Q238 457 205.5 392Q173 327 173 218Q173 137 191.5 94Q210 51 242 51Z" glyph-name="agrave" horiz-adv-x="524" unicode="&#224;" /><glyph d="M332 563 199 604Q178 611 167.5 626Q157 641 157 663Q157 688 173 705Q189 722 208 722Q212 722 216 719.5Q220 717 230 705L340 579ZM-2 0 0 26 13 29Q32 33 41 38Q50 43 59 62L265 522H309Q323 522 330.5 516.5Q338 511 342 497L464 63Q468 47 477 40Q486 33 505 29L519 26L517 0H282L284 28L367 38L334 164H157L103 38L177 28L175 0ZM174 204H323L266 419Z" glyph-name="agrave.smcp" horiz-adv-x="515" /><glyph d="M207 601 212 647H418L414 601ZM203 -14Q138 -14 103 42.5Q68 99 68 193Q68 258 85.5 313Q103 368 134 407.5Q165 447 209 469.5Q253 492 306 492Q361 492 401.5 483.5Q442 475 482 457Q475 422 469.5 386Q464 350 461 312L446 139Q444 117 443 98Q442 79 442 72Q442 49 456 40.5Q470 32 513 31L511 8Q489 1 467 -3.5Q445 -8 426 -8Q390 -8 371 11Q352 30 352 69Q352 73 353 89Q354 105 355 124Q319 51 281.5 18.5Q244 -14 203 -14ZM242 51Q263 51 283 72.5Q303 94 319 129.5Q335 165 347 212.5Q359 260 363 311L372 417Q356 434 336 445.5Q316 457 291 457Q238 457 205.5 392Q173 327 173 218Q173 137 191.5 94Q210 51 242 51Z" glyph-name="amacron" horiz-adv-x="524" unicode="&#257;" /><glyph d="M190 609 195 658H424L420 609ZM-2 0 0 26 13 29Q32 33 41 38Q50 43 59 62L265 522H309Q323 522 330.5 516.5Q338 511 342 497L464 63Q468 47 477 40Q486 33 505 29L519 26L517 0H282L284 28L367 38L334 164H157L103 38L177 28L175 0ZM174 204H323L266 419Z" glyph-name="amacron.smcp" horiz-adv-x="515" /><glyph d="M713 265Q691 265 670 270Q649 275 630 285Q617 223 589 168.5Q561 114 519.5 73.5Q478 33 422 9.5Q366 -14 296 -14Q185 -14 124.5 45Q64 104 64 204Q64 268 81.5 321.5Q99 375 126.5 413Q154 451 189.5 472.5Q225 494 261 494Q296 494 317 475.5Q338 457 338 415V401Q374 439 397.5 475.5Q421 512 432 546L400 625Q399 629 398 632Q397 635 397 636Q397 643 410 651Q423 659 438 659Q465 659 477.5 642.5Q490 626 490 600Q490 565 473.5 524Q457 483 411 432Q355 368 286 310Q217 252 162 216Q168 179 180.5 145Q193 111 213 85Q233 59 261.5 43Q290 27 327 27Q386 27 427 52Q468 77 496 118Q524 159 541.5 212Q559 265 571 321Q557 331 531.5 344Q506 357 487 357Q474 357 465.5 354Q457 351 450 347L479 270Q480 266 481.5 263.5Q483 261 483 259Q483 254 472.5 248.5Q462 243 450 243Q427 243 414 255.5Q401 268 401 296Q401 339 434.5 372Q468 405 522 405Q547 405 568.5 398.5Q590 392 613 376L638 359Q655 348 676.5 333Q698 318 722 307Q722 308 724.5 319Q727 330 730.5 342Q734 354 737 364.5Q740 375 740 375Q744 385 747 387.5Q750 390 758 390Q772 390 785 377.5Q798 365 798 344Q798 318 787 302.5Q776 287 762 278.5Q748 270 734 267.5Q720 265 713 265ZM155 295Q155 290 155.5 283Q156 276 157 269Q168 273 179.5 279Q191 285 201 290Q239 311 255.5 336.5Q272 362 272 384Q272 407 262 420Q252 433 233 433Q203 433 179 397Q155 361 155 295Z" glyph-name="ampersand" horiz-adv-x="784" unicode="&amp;" /><glyph d="M266 -14Q170 -14 116 34Q62 82 62 168Q62 220 77.5 264.5Q93 309 118 340.5Q143 372 174.5 390Q206 408 237 408Q272 408 292.5 390.5Q313 373 313 340V333Q341 361 360 388.5Q379 416 389 442L360 506Q359 508 358.5 510.5Q358 513 358 514Q358 520 369.5 526.5Q381 533 394 533Q417 533 428.5 520Q440 507 440 485Q440 454 423.5 421Q407 388 370 350Q329 307 270 262Q211 217 150 180Q161 114 198.5 73Q236 32 293 32Q383 32 433.5 81Q484 130 511 262Q483 278 465.5 285.5Q448 293 435 293Q425 293 419.5 291.5Q414 290 404 285L430 225Q431 221 432.5 217.5Q434 214 434 213Q434 207 425.5 201Q417 195 404 195Q382 195 369.5 206Q357 217 357 239Q357 277 385 305Q413 333 461 333Q483 333 503.5 327Q524 321 543 310L567 295Q580 286 603 272.5Q626 259 642 252L662 306Q666 314 668.5 316Q671 318 678 318Q694 318 703 308Q712 298 712 282Q712 255 689.5 235.5Q667 216 634 216Q617 216 598.5 221.5Q580 227 561 237Q531 122 453.5 54Q376 -14 266 -14ZM145 221Q166 228 184 236.5Q202 245 218 256Q235 268 243 282.5Q251 297 251 311Q251 330 241.5 340.5Q232 351 214 351Q184 351 164 320.5Q144 290 144 243Q144 236 144 232.5Q144 229 145 221Z" glyph-name="ampersand.smcp" horiz-adv-x="705" /><glyph d="M391 -247Q353 -247 331.5 -224.5Q310 -202 310 -163Q310 -120 342 -79.5Q374 -39 431 -8H426Q390 -8 371 11Q352 30 352 69Q352 73 353 89Q354 105 355 124Q319 51 281.5 18.5Q244 -14 203 -14Q138 -14 103 42.5Q68 99 68 193Q68 258 85.5 313Q103 368 134 407.5Q165 447 209 469.5Q253 492 306 492Q361 492 401.5 483.5Q442 475 482 457Q475 422 469.5 386Q464 350 461 312L446 139Q444 117 443 98Q442 79 442 72Q442 49 456 40.5Q470 32 513 31L511 8Q461 -14 428 -58Q395 -102 395 -144Q395 -167 407 -181.5Q419 -196 438 -196Q453 -196 464.5 -192.5Q476 -189 492 -180L488 -203Q466 -226 441.5 -236.5Q417 -247 391 -247ZM242 51Q263 51 283 72.5Q303 94 319 129.5Q335 165 347 212.5Q359 260 363 311L372 417Q356 434 336 445.5Q316 457 291 457Q238 457 205.5 392Q173 327 173 218Q173 137 191.5 94Q210 51 242 51Z" glyph-name="aogonek" horiz-adv-x="524" unicode="&#261;" /><glyph d="M-2 0 0 26 13 29Q32 33 41 38Q50 43 59 62L265 522H309Q323 522 330.5 516.5Q338 511 342 497L464 63Q468 47 477 40Q486 33 505 29L519 26L517 0H420Q374 -37 352.5 -72.5Q331 -108 331 -145Q331 -169 343.5 -182Q356 -195 380 -195Q390 -195 401.5 -191Q413 -187 429 -177L424 -200Q406 -222 381 -234.5Q356 -247 328 -247Q289 -247 267 -224.5Q245 -202 245 -163Q245 -118 280.5 -75Q316 -32 381 0H282L284 28L367 38L334 164H157L103 38L177 28L175 0ZM174 204H323L266 419Z" glyph-name="aogonek.smcp" horiz-adv-x="515" /><glyph d="M351 383Q319 383 296 393.5Q273 404 253.5 417Q234 430 215 440.5Q196 451 173 451Q149 451 131 437Q113 423 90 387L76 394Q100 460 130.5 491Q161 522 198 522Q229 522 251.5 511.5Q274 501 294 488.5Q314 476 334 465.5Q354 455 380 455Q416 455 434.5 471.5Q453 488 475 531L490 527Q468 449 435 416Q402 383 351 383ZM334 183Q302 183 279 193.5Q256 204 236.5 217Q217 230 198 240.5Q179 251 156 251Q132 251 114 237Q96 223 73 187L59 194Q83 260 113.5 291Q144 322 181 322Q212 322 234.5 311.5Q257 301 277 288.5Q297 276 317 265.5Q337 255 363 255Q399 255 417.5 271.5Q436 288 458 331L473 327Q451 249 418 216Q385 183 334 183Z" glyph-name="approxequal" horiz-adv-x="475" unicode="&#8776;" /><glyph d="M307 542Q267 542 244 565Q221 588 221 628Q221 675 248.5 706.5Q276 738 322 738Q362 738 384.5 715.5Q407 693 407 653Q407 605 380 573.5Q353 542 307 542ZM309 589Q331 589 343.5 605Q356 621 356 649Q356 668 346.5 679.5Q337 691 319 691Q298 691 285 675.5Q272 660 272 632Q272 613 281.5 601Q291 589 309 589ZM203 -14Q138 -14 103 42.5Q68 99 68 193Q68 258 85.5 313Q103 368 134 407.5Q165 447 209 469.5Q253 492 306 492Q361 492 401.5 483.5Q442 475 482 457Q475 422 469.5 386Q464 350 461 312L446 139Q444 117 443 98Q442 79 442 72Q442 49 456 40.5Q470 32 513 31L511 8Q489 1 467 -3.5Q445 -8 426 -8Q390 -8 371 11Q352 30 352 69Q352 73 353 89Q354 105 355 124Q319 51 281.5 18.5Q244 -14 203 -14ZM242 51Q263 51 283 72.5Q303 94 319 129.5Q335 165 347 212.5Q359 260 363 311L372 417Q356 434 336 445.5Q316 457 291 457Q238 457 205.5 392Q173 327 173 218Q173 137 191.5 94Q210 51 242 51Z" glyph-name="aring" horiz-adv-x="524" unicode="&#229;" /><glyph d="M301 562Q264 562 241 584.5Q218 607 218 645Q218 691 246 722Q274 753 318 753Q355 753 378.5 731Q402 709 402 670Q402 624 373.5 593Q345 562 301 562ZM305 607Q327 607 339.5 623Q352 639 352 666Q352 686 342 697.5Q332 709 314 709Q292 709 279.5 693Q267 677 267 649Q267 629 277 618Q287 607 305 607ZM-2 0 0 26 13 29Q32 33 41 38Q50 43 59 62L265 522H309Q323 522 330.5 516.5Q338 511 342 497L464 63Q468 47 477 40Q486 33 505 29L519 26L517 0H282L284 28L367 38L334 164H157L103 38L177 28L175 0ZM174 204H323L266 419Z" glyph-name="aring.smcp" horiz-adv-x="515" /><glyph d="M69 199 262 643 323 650 440 199H336L258 522L123 199Z" glyph-name="asciicircum" horiz-adv-x="473" unicode="^" /><glyph d="M344 283Q312 283 289 293.5Q266 304 246.5 317Q227 330 208 340.5Q189 351 166 351Q142 351 124 337Q106 323 83 287L69 294Q93 360 123.5 391Q154 422 191 422Q222 422 244.5 411.5Q267 401 287 388.5Q307 376 327 365.5Q347 355 373 355Q409 355 427.5 371.5Q446 388 468 431L483 427Q461 349 428 316Q395 283 344 283Z" glyph-name="asciitilde" horiz-adv-x="475" unicode="~" /><glyph d="M292 388Q288 388 285.5 391.5Q283 395 281 405L244 547L206 455Q193 421 180.5 408Q168 395 155 395Q133 395 118 414.5Q103 434 104 447Q104 449 106.5 453.5Q109 458 116 464L228 559Q223 559 209 559Q195 559 179.5 559.5Q164 560 152 560.5Q140 561 139 561Q106 564 93 575Q80 586 80 609Q81 631 94.5 650Q108 669 116 669Q119 669 122 667.5Q125 666 130 662L235 580L219 674Q218 685 216.5 696.5Q215 708 215 714Q215 738 227.5 749.5Q240 761 265 761Q279 761 292 755Q305 749 305 744Q305 742 303.5 736.5Q302 731 301 724L254 581L331 636Q349 649 361.5 654.5Q374 660 382 660Q398 660 407.5 643Q417 626 416 599Q415 580 411 575.5Q407 571 394 570L260 561L323 501Q341 484 348 471.5Q355 459 355 443Q354 422 332.5 405Q311 388 292 388Z" glyph-name="asterisk" horiz-adv-x="383" unicode="*" /><glyph d="M367 -191Q297 -191 239 -165.5Q181 -140 141 -94.5Q101 -49 78.5 16.5Q56 82 56 161Q56 269 88.5 360.5Q121 452 178.5 518Q236 584 315.5 621Q395 658 489 658Q554 658 609 636.5Q664 615 703 576.5Q742 538 763.5 482.5Q785 427 785 360Q785 291 766.5 230.5Q748 170 715.5 125.5Q683 81 639 55Q595 29 545 29Q515 29 496.5 47.5Q478 66 478 99Q478 103 479 116.5Q480 130 481 147Q450 83 417 56Q384 29 351 29Q295 29 265 77Q235 125 235 206Q235 261 250 308Q265 355 291.5 389Q318 423 355.5 442Q393 461 437 461Q486 461 519.5 453.5Q553 446 587 430Q581 399 576.5 368.5Q572 338 569 307L557 160Q556 142 555 122.5Q554 103 554 96Q554 81 559 75Q564 69 580 69Q605 69 628.5 90Q652 111 670 148.5Q688 186 699 238.5Q710 291 710 353Q710 478 648.5 545.5Q587 613 480 613Q401 613 336 582Q271 551 226 494Q181 437 156.5 355.5Q132 274 132 174Q132 32 204.5 -52.5Q277 -137 399 -137Q439 -137 470 -132Q501 -127 538 -114L535 -143Q498 -165 455.5 -178Q413 -191 367 -191ZM383 84Q401 84 418 102.5Q435 121 449 151.5Q463 182 473.5 222.5Q484 263 487 306L495 397Q481 412 464 421.5Q447 431 425 431Q379 431 351.5 374.5Q324 318 324 227Q324 158 340 121Q356 84 383 84Z" glyph-name="at" horiz-adv-x="790" unicode="@" /><glyph d="M376 -109Q306 -109 248 -83.5Q190 -58 150 -12.5Q110 33 87.5 98.5Q65 164 65 243Q65 351 97.5 442.5Q130 534 187.5 600Q245 666 324.5 703Q404 740 498 740Q563 740 618 718.5Q673 697 712 658.5Q751 620 772.5 564.5Q794 509 794 442Q794 373 775.5 312.5Q757 252 724.5 207.5Q692 163 648 137Q604 111 554 111Q524 111 505.5 129.5Q487 148 487 181Q487 185 488 198.5Q489 212 490 229Q459 165 426 138Q393 111 360 111Q304 111 274 159Q244 207 244 288Q244 343 259 390Q274 437 300.5 471Q327 505 364.5 524Q402 543 446 543Q495 543 528.5 535.5Q562 528 596 512Q590 481 585.5 450.5Q581 420 578 389L566 242Q565 224 564 204.5Q563 185 563 178Q563 163 568 157Q573 151 589 151Q614 151 637.5 172Q661 193 679 230.5Q697 268 708 320.5Q719 373 719 435Q719 560 657.5 627.5Q596 695 489 695Q410 695 345 664Q280 633 235 576Q190 519 165.5 437.5Q141 356 141 256Q141 114 213.5 29.5Q286 -55 408 -55Q448 -55 479 -50Q510 -45 547 -32L544 -61Q507 -83 464.5 -96Q422 -109 376 -109ZM392 166Q410 166 427 184.5Q444 203 458 233.5Q472 264 482.5 304.5Q493 345 496 388L504 479Q490 494 473 503.5Q456 513 434 513Q388 513 360.5 456.5Q333 400 333 309Q333 240 349 203Q365 166 392 166Z" glyph-name="at.case" horiz-adv-x="793" /><glyph d="M203 563Q207 626 225.5 657Q244 688 275 688Q287 688 297.5 682.5Q308 677 318.5 670Q329 663 339.5 657.5Q350 652 363 652Q380 652 389.5 666Q399 680 405 712L425 709Q421 644 400 608Q379 572 349 572Q332 572 320 578.5Q308 585 298 592Q288 599 278.5 605.5Q269 612 259 612Q246 612 237.5 601Q229 590 222 563ZM203 -14Q138 -14 103 42.5Q68 99 68 193Q68 258 85.5 313Q103 368 134 407.5Q165 447 209 469.5Q253 492 306 492Q361 492 401.5 483.5Q442 475 482 457Q475 422 469.5 386Q464 350 461 312L446 139Q444 117 443 98Q442 79 442 72Q442 49 456 40.5Q470 32 513 31L511 8Q489 1 467 -3.5Q445 -8 426 -8Q390 -8 371 11Q352 30 352 69Q352 73 353 89Q354 105 355 124Q319 51 281.5 18.5Q244 -14 203 -14ZM242 51Q263 51 283 72.5Q303 94 319 129.5Q335 165 347 212.5Q359 260 363 311L372 417Q356 434 336 445.5Q316 457 291 457Q238 457 205.5 392Q173 327 173 218Q173 137 191.5 94Q210 51 242 51Z" glyph-name="atilde" horiz-adv-x="524" unicode="&#227;" /><glyph d="M339 586Q308 586 292.5 600.5Q277 615 252 615Q239 615 229.5 608Q220 601 213 579H192Q200 636 220.5 663.5Q241 691 273 691Q299 691 317 676.5Q335 662 361 662Q377 662 386.5 672.5Q396 683 402 708L423 706Q416 646 396 616Q376 586 339 586ZM-2 0 0 26 13 29Q32 33 41 38Q50 43 59 62L265 522H309Q323 522 330.5 516.5Q338 511 342 497L464 63Q468 47 477 40Q486 33 505 29L519 26L517 0H282L284 28L367 38L334 164H157L103 38L177 28L175 0ZM174 204H323L266 419Z" glyph-name="atilde.smcp" horiz-adv-x="515" /><glyph d="M260 -12Q201 -12 154 1Q107 14 76 40Q79 56 82.5 79.5Q86 103 89 128Q92 153 94.5 177.5Q97 202 99 222L133 584Q135 606 136.5 624Q138 642 138 647Q138 663 131.5 672Q125 681 106 686L68 696L70 717Q84 721 104.5 725Q125 729 147.5 731.5Q170 734 193.5 735.5Q217 737 237 737H251Q243 689 237 638.5Q231 588 225 530L210 371Q238 426 276.5 460.5Q315 495 355 495Q428 495 465.5 438.5Q503 382 503 290Q503 152 435 70Q367 -12 260 -12ZM273 24Q329 24 363 91Q397 158 397 263Q397 343 375.5 384Q354 425 317 425Q274 425 238.5 352Q203 279 193 156L186 75Q201 52 222.5 38Q244 24 273 24Z" glyph-name="b" horiz-adv-x="528" unicode="b" /><glyph d="M24 0 26 26 62 32Q94 38 108 53Q122 68 124 102L151 394Q152 410 153 420.5Q154 431 154 435Q154 459 144 470.5Q134 482 105 486L65 492L67 518H284Q382 518 436.5 484Q491 450 491 390Q491 338 451.5 306.5Q412 275 337 271Q412 264 454 230.5Q496 197 496 143Q496 75 437.5 37.5Q379 0 273 0ZM278 289Q332 289 359 313.5Q386 338 386 386Q386 429 359 454Q332 479 285 480Q278 481 270 480.5Q262 480 257 479L239 293Q245 292 258 290.5Q271 289 278 289ZM270 35Q327 35 357 62.5Q387 90 387 142Q387 191 355 220.5Q323 250 269 251Q262 252 251.5 252Q241 252 236 251L218 44Q230 40 242.5 37.5Q255 35 270 35Z" glyph-name="b.smcp" horiz-adv-x="526" /><glyph d="M306 -250 73 750H121L353 -250Z" glyph-name="backslash" horiz-adv-x="382" unicode="\" /><glyph d="M54 -249 141 750H188L101 -249Z" glyph-name="bar" horiz-adv-x="198" unicode="|" /><glyph d="M286 -233Q203 -232 163 -195Q123 -158 123 -86Q123 -68 125.5 -36Q128 -4 131 29.5Q134 63 136.5 92Q139 121 139 134Q139 183 120.5 204.5Q102 226 55 232L57 263Q111 269 134 298Q157 327 163 393L178 554Q185 641 232.5 684.5Q280 728 370 729L367 698Q320 695 299.5 661.5Q279 628 272 541L260 392Q253 321 217 286Q181 251 118 247Q172 244 203.5 213.5Q235 183 235 120Q235 102 232.5 71.5Q230 41 226.5 8Q223 -25 220.5 -55.5Q218 -86 218 -104Q218 -154 234 -177Q250 -200 289 -202Z" glyph-name="braceleft" horiz-adv-x="316" unicode="{" /><glyph d="M292 -84Q211 -83 167 -48Q123 -13 123 59Q123 71 124.5 91.5Q126 112 128.5 134Q131 156 132.5 177.5Q134 199 134 212Q134 258 115.5 279.5Q97 301 54 307L57 335Q107 342 129.5 370.5Q152 399 157 459L165 555Q173 646 224.5 688Q276 730 363 731L360 694Q309 691 291 661.5Q273 632 267 551L260 464Q256 402 224 367Q192 332 129 322Q184 312 210 282Q236 252 236 201Q236 186 234.5 166Q233 146 231 124.5Q229 103 227.5 82.5Q226 62 226 47Q226 1 240.5 -22.5Q255 -46 295 -48Z" glyph-name="braceleft.case" horiz-adv-x="315" /><glyph d="M267 -67Q195 -66 153 -38Q111 -10 111 47Q111 57 112.5 73.5Q114 90 115.5 108Q117 126 118.5 143Q120 160 120 170Q120 207 103.5 224Q87 241 49 246L52 268Q96 274 115 296.5Q134 319 138 367L145 444Q152 517 202.5 550.5Q253 584 330 585L327 555Q281 551 265.5 527.5Q250 504 245 441L239 372Q235 322 203 293.5Q171 265 116 258Q165 250 192 225.5Q219 201 219 161Q219 138 214 100Q209 62 209 37Q209 1 222 -17.5Q235 -36 270 -37Z" glyph-name="braceleft.smcp" horiz-adv-x="310" /><glyph d="M73 729Q156 728 196 691Q236 654 236 582Q236 564 233.5 532Q231 500 228 466.5Q225 433 222.5 404Q220 375 220 362Q220 313 238.5 291.5Q257 270 304 264L302 233Q248 227 225 198Q202 169 196 103L181 -58Q174 -145 126.5 -188.5Q79 -232 -11 -233L-8 -202Q39 -199 59.5 -165.5Q80 -132 87 -45L99 104Q106 175 142 210Q178 245 241 249Q187 252 155.5 282.5Q124 313 124 376Q124 394 126.5 424.5Q129 455 132.5 488Q136 521 138.5 551.5Q141 582 141 600Q141 650 125 673Q109 696 70 698Z" glyph-name="braceright" horiz-adv-x="315" unicode="}" /><glyph d="M79 731Q160 730 204 695Q248 660 248 588Q248 576 246.5 555.5Q245 535 242.5 513Q240 491 238.5 469.5Q237 448 237 435Q237 389 255.5 367.5Q274 346 317 340L314 312Q264 305 241.5 276.5Q219 248 214 188L206 92Q198 1 146.5 -41Q95 -83 8 -84L11 -47Q62 -44 80 -14.5Q98 15 104 96L111 183Q115 245 147 280Q179 315 242 325Q187 335 161 365Q135 395 135 446Q135 461 136.5 481Q138 501 140 522.5Q142 544 143.5 564.5Q145 585 145 600Q145 646 130.5 669.5Q116 693 76 695Z" glyph-name="braceright.case" horiz-adv-x="315" /><glyph d="M89 584Q161 583 203 555Q245 527 245 470Q245 460 243.5 443.5Q242 427 240.5 409Q239 391 237.5 374Q236 357 236 347Q236 310 252.5 293Q269 276 307 271L304 249Q260 243 241 220.5Q222 198 218 150L211 73Q204 0 153.5 -33.5Q103 -67 26 -68L29 -38Q75 -34 90.5 -10.5Q106 13 111 76L117 145Q121 195 153 223.5Q185 252 240 259Q191 267 164 291.5Q137 316 137 356Q137 379 142 417Q147 455 147 480Q147 516 134 534.5Q121 553 86 554Z" glyph-name="braceright.smcp" horiz-adv-x="311" /><glyph d="M74 -235 159 729H358L354 694H253L174 -201H278L274 -235Z" glyph-name="bracketleft" horiz-adv-x="316" unicode="[" /><glyph d="M84 -86 156 732H362L358 691H257L193 -45H295L291 -86Z" glyph-name="bracketleft.case" horiz-adv-x="315" /><glyph d="M80 -69 140 585H333L329 550H238L185 -33H277L272 -69Z" glyph-name="bracketleft.smcp" horiz-adv-x="310" /><glyph d="M284 729 199 -235H0L4 -200H105L184 695H80L84 729Z" glyph-name="bracketright" horiz-adv-x="315" unicode="]" /><glyph d="M288 732 216 -86H10L14 -45H115L179 691H77L81 732Z" glyph-name="bracketright.case" horiz-adv-x="316" /><glyph d="M275 585 215 -69H22L26 -34H117L170 549H78L83 585Z" glyph-name="bracketright.smcp" horiz-adv-x="311" /><glyph d="M268 551Q225 551 202.5 584Q180 617 180 686Q180 693 180 702Q180 711 181 720L200 724Q207 678 226 655.5Q245 633 276 633Q307 633 329.5 655Q352 677 368 724L386 720Q376 635 346 593Q316 551 268 551Z" glyph-name="breve" horiz-adv-x="440" unicode="&#728;" /><glyph d="M280 695Q237 695 212 725Q187 755 187 812Q187 819 187 825Q187 831 188 838H207Q213 806 233 790Q253 774 287 774Q321 774 344 789.5Q367 805 379 838H398Q391 766 360 730.5Q329 695 280 695Z" glyph-name="breve.case" horiz-adv-x="440" /><glyph d="M100 281 141 750H188L147 281ZM54 -250 95 219H142L101 -250Z" glyph-name="brokenbar" horiz-adv-x="198" unicode="&#166;" /><glyph d="M199 236Q159 236 134 263.5Q109 291 109 334Q109 388 141 425Q173 462 219 462Q259 462 284 434.5Q309 407 309 363Q309 309 277.5 272.5Q246 236 199 236Z" glyph-name="bullet" horiz-adv-x="357" unicode="&#8226;" /><glyph d="M252 -14Q165 -14 115.5 43.5Q66 101 66 205Q66 268 84 321Q102 374 133.5 412.5Q165 451 209 472.5Q253 494 304 494Q361 494 400 461Q439 428 439 384Q439 359 425.5 342.5Q412 326 385 326Q370 326 365.5 330Q361 334 357 353L336 448Q327 452 314 455Q301 458 289 458Q236 458 204 397Q172 336 172 227Q172 143 204 97Q236 51 294 51Q324 51 352 63Q380 75 408 102L417 87Q392 45 345 15.5Q298 -14 252 -14Z" glyph-name="c" horiz-adv-x="436" unicode="c" /><glyph d="M290 -14Q186 -14 127 49.5Q68 113 68 223Q68 290 88.5 347Q109 404 145 445Q181 486 232 509Q283 532 343 532Q377 532 406.5 526Q436 520 470 507Q485 502 491.5 492.5Q498 483 498 468Q498 464 496.5 451.5Q495 439 494 423L487 349H464Q458 419 424.5 455.5Q391 492 334 492Q264 492 221.5 421Q179 350 179 233Q179 132 212.5 80Q246 28 310 28Q357 28 394.5 66Q432 104 463 183L485 179L463 69Q456 35 444.5 22.5Q433 10 403 2Q369 -6 344.5 -10Q320 -14 290 -14Z" glyph-name="c.smcp" horiz-adv-x="521" /><glyph d="M247 548 237 562 339 700Q352 717 357 720.5Q362 724 368 724Q382 724 400.5 711.5Q419 699 419 668Q419 646 406.5 632.5Q394 619 375 610ZM252 -14Q165 -14 115.5 43.5Q66 101 66 205Q66 268 84 321Q102 374 133.5 412.5Q165 451 209 472.5Q253 494 304 494Q361 494 400 461Q439 428 439 384Q439 359 425.5 342.5Q412 326 385 326Q370 326 365.5 330Q361 334 357 353L336 448Q327 452 314 455Q301 458 289 458Q236 458 204 397Q172 336 172 227Q172 143 204 97Q236 51 294 51Q324 51 352 63Q380 75 408 102L417 87Q392 45 345 15.5Q298 -14 252 -14Z" glyph-name="cacute" horiz-adv-x="436" unicode="&#263;" /><glyph d="M295 563 289 578 415 705Q427 718 432 720Q437 722 441 722Q452 722 468 708.5Q484 695 484 667Q484 639 467.5 625Q451 611 429 604ZM290 -14Q186 -14 127 49.5Q68 113 68 223Q68 290 88.5 347Q109 404 145 445Q181 486 232 509Q283 532 343 532Q377 532 406.5 526Q436 520 470 507Q485 502 491.5 492.5Q498 483 498 468Q498 464 496.5 451.5Q495 439 494 423L487 349H464Q458 419 424.5 455.5Q391 492 334 492Q264 492 221.5 421Q179 350 179 233Q179 132 212.5 80Q246 28 310 28Q357 28 394.5 66Q432 104 463 183L485 179L463 69Q456 35 444.5 22.5Q433 10 403 2Q369 -6 344.5 -10Q320 -14 290 -14Z" glyph-name="cacute.smcp" horiz-adv-x="522" /><glyph d="M254 554Q239 554 231.5 560.5Q224 567 219 586L174 733L193 737L275 637L375 737L394 733L325 586Q316 567 307.5 560.5Q299 554 283 554Z" glyph-name="caron" horiz-adv-x="440" unicode="&#711;" /><glyph d="M272 698Q256 698 248 705.5Q240 713 232 730L175 840L193 844L287 773L392 844L410 840L335 730Q324 712 315 705Q306 698 290 698Z" glyph-name="caron.case" horiz-adv-x="440" /><glyph d="M234 524 219 530 258 692Q265 719 269 726Q273 733 286 733Q307 733 324.5 722Q342 711 342 685Q342 672 337 660Q332 648 324 638Z" glyph-name="caronSlovak" horiz-adv-x="440" /><glyph d="M221 441 204 448 236 613Q241 638 246.5 645.5Q252 653 267 653Q294 653 310 639.5Q326 626 326 603Q326 590 320 576.5Q314 563 301 546Z" glyph-name="caronSlovak.case" horiz-adv-x="440" /><glyph d="M271 554Q256 554 248.5 560.5Q241 567 236 586L191 733L210 737L292 637L392 737L411 733L342 586Q333 567 324.5 560.5Q316 554 300 554ZM252 -14Q165 -14 115.5 43.5Q66 101 66 205Q66 268 84 321Q102 374 133.5 412.5Q165 451 209 472.5Q253 494 304 494Q361 494 400 461Q439 428 439 384Q439 359 425.5 342.5Q412 326 385 326Q370 326 365.5 330Q361 334 357 353L336 448Q327 452 314 455Q301 458 289 458Q236 458 204 397Q172 336 172 227Q172 143 204 97Q236 51 294 51Q324 51 352 63Q380 75 408 102L417 87Q392 45 345 15.5Q298 -14 252 -14Z" glyph-name="ccaron" horiz-adv-x="436" unicode="&#269;" /><glyph d="M316 570Q300 570 292 577.5Q284 585 276 602L219 712L237 716L331 645L436 716L454 712L379 602Q368 584 359 577Q350 570 334 570ZM290 -14Q186 -14 127 49.5Q68 113 68 223Q68 290 88.5 347Q109 404 145 445Q181 486 232 509Q283 532 343 532Q377 532 406.5 526Q436 520 470 507Q485 502 491.5 492.5Q498 483 498 468Q498 464 496.5 451.5Q495 439 494 423L487 349H464Q458 419 424.5 455.5Q391 492 334 492Q264 492 221.5 421Q179 350 179 233Q179 132 212.5 80Q246 28 310 28Q357 28 394.5 66Q432 104 463 183L485 179L463 69Q456 35 444.5 22.5Q433 10 403 2Q369 -6 344.5 -10Q320 -14 290 -14Z" glyph-name="ccaron.smcp" horiz-adv-x="522" /><glyph d="M200 -247Q160 -247 137 -227Q114 -207 114 -179Q114 -166 123.5 -157.5Q133 -149 148 -149Q160 -149 163.5 -151Q167 -153 168 -163L176 -217Q180 -218 184.5 -219Q189 -220 194 -220Q213 -220 225 -207Q237 -194 237 -168Q237 -145 222 -126Q207 -107 181 -100L222 -12Q148 -2 107 54Q66 110 66 205Q66 268 84 321Q102 374 133.5 412.5Q165 451 209 472.5Q253 494 304 494Q361 494 400 461Q439 428 439 384Q439 359 425.5 342.5Q412 326 385 326Q370 326 365.5 330Q361 334 357 353L336 448Q327 452 314 455Q301 458 289 458Q236 458 204 397Q172 336 172 227Q172 143 204 97Q236 51 294 51Q324 51 352 63Q380 75 408 102L417 87Q392 47 349 19Q306 -9 262 -13L234 -55Q268 -65 288 -88Q308 -111 308 -148Q308 -196 277 -221.5Q246 -247 200 -247Z" glyph-name="ccedilla" horiz-adv-x="436" unicode="&#231;" /><glyph d="M251 -247Q212 -247 189 -227Q166 -207 166 -179Q166 -166 175.5 -157.5Q185 -149 200 -149Q212 -149 215.5 -151Q219 -153 220 -163L228 -217Q232 -218 236.5 -219Q241 -220 246 -220Q265 -220 277 -207Q289 -194 289 -168Q289 -145 274 -126Q259 -107 233 -100L274 -14Q177 -9 122.5 54Q68 117 68 223Q68 290 88.5 347Q109 404 145 445Q181 486 232 509Q283 532 343 532Q377 532 406.5 526Q436 520 470 507Q485 502 491.5 492.5Q498 483 498 468Q498 464 496.5 451.5Q495 439 494 423L487 349H464Q458 419 424.5 455.5Q391 492 334 492Q264 492 221.5 421Q179 350 179 233Q179 132 212.5 80Q246 28 310 28Q357 28 394.5 66Q432 104 463 183L485 179L463 69Q456 35 444.5 22.5Q433 10 403 2Q376 -5 356 -8.5Q336 -12 314 -13L286 -55Q320 -65 340 -88Q360 -111 360 -148Q360 -196 328.5 -221.5Q297 -247 251 -247Z" glyph-name="ccedilla.smcp" horiz-adv-x="522" /><glyph d="M193 539 175 543 244 690Q253 708 261.5 715Q270 722 286 722H313Q330 722 337 715Q344 708 350 690L395 543L376 539L293 640ZM252 -14Q165 -14 115.5 43.5Q66 101 66 205Q66 268 84 321Q102 374 133.5 412.5Q165 451 209 472.5Q253 494 304 494Q361 494 400 461Q439 428 439 384Q439 359 425.5 342.5Q412 326 385 326Q370 326 365.5 330Q361 334 357 353L336 448Q327 452 314 455Q301 458 289 458Q236 458 204 397Q172 336 172 227Q172 143 204 97Q236 51 294 51Q324 51 352 63Q380 75 408 102L417 87Q392 45 345 15.5Q298 -14 252 -14Z" glyph-name="ccircumflex" horiz-adv-x="436" unicode="&#265;" /><glyph d="M227 567 210 571 284 680Q295 697 303.5 703.5Q312 710 328 710H347Q363 710 371 703.5Q379 697 387 680L442 571L425 567L331 638ZM290 -14Q186 -14 127 49.5Q68 113 68 223Q68 290 88.5 347Q109 404 145 445Q181 486 232 509Q283 532 343 532Q377 532 406.5 526Q436 520 470 507Q485 502 491.5 492.5Q498 483 498 468Q498 464 496.5 451.5Q495 439 494 423L487 349H464Q458 419 424.5 455.5Q391 492 334 492Q264 492 221.5 421Q179 350 179 233Q179 132 212.5 80Q246 28 310 28Q357 28 394.5 66Q432 104 463 183L485 179L463 69Q456 35 444.5 22.5Q433 10 403 2Q369 -6 344.5 -10Q320 -14 290 -14Z" glyph-name="ccircumflex.smcp" horiz-adv-x="522" /><glyph d="M287 575Q262 575 247.5 590.5Q233 606 233 631Q233 661 251 680.5Q269 700 299 700Q324 700 338.5 684.5Q353 669 353 644Q353 614 335 594.5Q317 575 287 575ZM252 -14Q165 -14 115.5 43.5Q66 101 66 205Q66 268 84 321Q102 374 133.5 412.5Q165 451 209 472.5Q253 494 304 494Q361 494 400 461Q439 428 439 384Q439 359 425.5 342.5Q412 326 385 326Q370 326 365.5 330Q361 334 357 353L336 448Q327 452 314 455Q301 458 289 458Q236 458 204 397Q172 336 172 227Q172 143 204 97Q236 51 294 51Q324 51 352 63Q380 75 408 102L417 87Q392 45 345 15.5Q298 -14 252 -14Z" glyph-name="cdotaccent" horiz-adv-x="436" unicode="&#267;" /><glyph d="M326 584Q301 584 286.5 600Q272 616 272 641Q272 671 290 691.5Q308 712 338 712Q363 712 377.5 695.5Q392 679 392 655Q392 625 374.5 604.5Q357 584 326 584ZM290 -14Q186 -14 127 49.5Q68 113 68 223Q68 290 88.5 347Q109 404 145 445Q181 486 232 509Q283 532 343 532Q377 532 406.5 526Q436 520 470 507Q485 502 491.5 492.5Q498 483 498 468Q498 464 496.5 451.5Q495 439 494 423L487 349H464Q458 419 424.5 455.5Q391 492 334 492Q264 492 221.5 421Q179 350 179 233Q179 132 212.5 80Q246 28 310 28Q357 28 394.5 66Q432 104 463 183L485 179L463 69Q456 35 444.5 22.5Q433 10 403 2Q369 -6 344.5 -10Q320 -14 290 -14Z" glyph-name="cdotaccent.smcp" horiz-adv-x="522" /><glyph d="M176 -247Q137 -247 114 -227Q91 -207 91 -179Q91 -166 100.5 -157.5Q110 -149 125 -149Q137 -149 140.5 -151Q144 -153 145 -163L153 -217Q157 -218 161.5 -219Q166 -220 171 -220Q190 -220 202 -207Q214 -194 214 -168Q214 -145 199 -126Q184 -107 158 -100L212 15H258L211 -55Q245 -65 265 -88Q285 -111 285 -148Q285 -196 253.5 -221.5Q222 -247 176 -247Z" glyph-name="cedilla" horiz-adv-x="440" unicode="&#184;" /><glyph d="M176 -247Q138 -247 113 -227.5Q88 -208 88 -180Q88 -166 97 -157Q106 -148 120 -148Q132 -148 136 -150Q140 -152 141 -161L149 -216Q153 -220 157.5 -221.5Q162 -223 168 -223Q189 -223 201.5 -209Q214 -195 214 -170Q214 -146 200.5 -130Q187 -114 160 -105L211 15H261L215 -59Q252 -69 270.5 -91.5Q289 -114 289 -148Q289 -191 257.5 -219Q226 -247 176 -247Z" glyph-name="cedilla.case" horiz-adv-x="440" /><glyph d="M198 -116 231 71Q158 84 118 140.5Q78 197 78 287Q78 347 96 398.5Q114 450 146.5 488Q179 526 224 548.5Q269 571 322 574L353 750H391L359 574Q413 568 449.5 536Q486 504 486 464Q486 439 471.5 422.5Q457 406 427 406Q411 406 406.5 410Q402 414 398 433L374 528Q370 529 364 531Q358 533 352 534L281 138Q291 134 302.5 132.5Q314 131 327 131Q360 131 391 143Q422 155 452 182L463 167Q435 125 383.5 95.5Q332 66 281 66Q278 66 275 66Q272 66 269 66L236 -116ZM192 307Q192 254 206.5 216Q221 178 247 157L315 538Q260 534 226 474Q192 414 192 307Z" glyph-name="cent" horiz-adv-x="479" unicode="&#162;" /><glyph d="M177 -93 205 55Q140 65 103.5 110.5Q67 156 67 228Q67 276 83 318Q99 360 127.5 391Q156 422 196 441Q236 460 283 463L309 600H342L316 462Q363 457 394.5 430Q426 403 426 371Q426 352 413 338.5Q400 325 374 325Q360 325 356 328Q352 331 348 346L327 422Q323 423 318.5 424.5Q314 426 309 427L249 111Q258 109 267 107.5Q276 106 286 106Q315 106 343 116Q371 126 396 148L405 131Q380 98 334.5 75Q289 52 245 52Q244 52 242 52Q240 52 238 52L211 -93ZM168 245Q168 202 181 171Q194 140 218 124L277 430Q227 428 197.5 379.5Q168 331 168 245Z" glyph-name="cent.smcp" horiz-adv-x="437" /><glyph d="M176 539 158 543 227 690Q236 708 244.5 715Q253 722 269 722H296Q313 722 320 715Q327 708 333 690L378 543L359 539L276 640Z" glyph-name="circumflex" horiz-adv-x="440" unicode="&#710;" /><glyph d="M183 695 166 699 240 808Q251 825 259.5 831.5Q268 838 284 838H303Q319 838 327 831.5Q335 825 343 808L398 699L381 695L287 766Z" glyph-name="circumflex.case" horiz-adv-x="440" /><glyph d="M146 305Q121 305 106 322Q91 339 91 366Q91 399 110 420.5Q129 442 157 442Q182 442 196.5 425Q211 408 211 382Q211 349 192.5 327Q174 305 146 305ZM118 -10Q93 -10 78 7Q63 24 63 51Q63 84 82 105.5Q101 127 129 127Q154 127 168.5 110Q183 93 183 67Q183 34 164.5 12Q146 -10 118 -10Z" glyph-name="colon" horiz-adv-x="236" unicode=":" /><glyph d="M33 -155 26 -137Q53 -109 71.5 -77Q90 -45 97 -12L70 69Q68 76 67 79Q66 82 66 84Q66 97 82.5 111Q99 125 121 125Q149 125 164.5 106.5Q180 88 180 56Q180 5 145.5 -54Q111 -113 33 -155Z" glyph-name="comma" horiz-adv-x="236" unicode="," /><glyph d="M132 -249 126 -233Q156 -212 167.5 -197Q179 -182 186 -162L163 -108Q161 -104 160 -101.5Q159 -99 159 -97Q159 -85 176 -75Q193 -65 212 -65Q237 -65 252 -81.5Q267 -98 267 -124Q267 -167 237 -195Q207 -223 132 -249Z" glyph-name="commaaccent" horiz-adv-x="440" unicode="&#63171;" /><glyph d="M130 -251 127 -236Q155 -214 167 -197.5Q179 -181 186 -161L167 -112Q165 -106 164 -103Q163 -100 163 -98Q163 -87 178 -77.5Q193 -68 212 -68Q237 -68 251 -83.5Q265 -99 265 -124Q265 -165 233 -195.5Q201 -226 130 -251Z" glyph-name="commaaccent.case" horiz-adv-x="440" /><glyph d="M359 -26Q230 -26 152.5 56.5Q75 139 75 276Q75 361 101 434Q127 507 172.5 559.5Q218 612 282 642Q346 672 421 672Q551 672 628.5 590Q706 508 706 371Q706 285 680 212Q654 139 608 86.5Q562 34 498 4Q434 -26 359 -26ZM364 30Q426 30 477 54Q528 78 564.5 121.5Q601 165 621 226Q641 287 641 361Q641 483 582.5 549.5Q524 616 416 616Q354 616 303 592Q252 568 215.5 524.5Q179 481 159 420Q139 359 139 286Q139 163 197.5 96.5Q256 30 364 30ZM383 164Q323 164 288.5 202.5Q254 241 254 307Q254 347 266 382.5Q278 418 299.5 444.5Q321 471 350.5 486Q380 501 414 501Q437 501 454.5 497Q472 493 486 486Q495 482 498.5 476.5Q502 471 502 462Q502 460 502 460.5Q502 461 500 441L496 394H484Q477 437 459 456.5Q441 476 407 476Q372 476 351 431Q330 386 330 315Q330 256 348 222Q366 188 398 188Q424 188 444 210.5Q464 233 480 279L492 278L481 215Q478 194 472 186.5Q466 179 448 173Q436 169 419.5 166.5Q403 164 383 164Z" glyph-name="copyright" horiz-adv-x="724" unicode="&#169;" /><glyph d="M73 94 42 135 108 201Q95 223 87 250.5Q79 278 80 308Q81 345 94.5 382.5Q108 420 130 447L75 515L114 555L164 480Q183 498 210 508Q237 518 262 518Q286 518 311.5 507.5Q337 497 353 480L415 555L448 515L381 448Q394 427 401.5 399.5Q409 372 409 341Q408 305 394.5 267Q381 229 359 202L414 135L375 94L325 169Q303 152 277.5 141.5Q252 131 228 131Q202 131 177.5 141.5Q153 152 136 169ZM233 187Q280 187 313 232Q346 277 347 342Q348 395 323 428.5Q298 462 257 462Q207 462 175 419Q143 376 142 308Q141 254 167 220.5Q193 187 233 187Z" glyph-name="currency" horiz-adv-x="436" unicode="&#164;" /><glyph d="M215 -14Q145 -14 106.5 42.5Q68 99 68 193Q68 259 86.5 314Q105 369 136.5 408.5Q168 448 212 470Q256 492 307 492Q329 492 353 488Q377 484 393 478L403 584Q404 606 405.5 624Q407 642 407 647Q407 663 400.5 672.5Q394 682 375 686L331 696L333 716Q347 720 368.5 724Q390 728 414 731Q438 734 462 735.5Q486 737 506 737H520Q512 689 505.5 638.5Q499 588 494 530L460 139Q459 118 457.5 98.5Q456 79 456 72Q456 50 471 40.5Q486 31 528 31L526 7Q501 0 479.5 -4Q458 -8 441 -8Q404 -8 384.5 12Q365 32 365 71Q365 76 366.5 90Q368 104 371 126Q340 59 299 22.5Q258 -14 215 -14ZM251 51Q273 51 294 71.5Q315 92 332 129Q349 166 361.5 216.5Q374 267 379 327L386 405Q370 430 347.5 443.5Q325 457 296 457Q245 457 209 395.5Q173 334 173 218Q173 137 194 94Q215 51 251 51Z" glyph-name="d" horiz-adv-x="536" unicode="d" /><glyph d="M24 0 26 26 62 32Q94 38 108 52.5Q122 67 124 102L151 394Q152 410 153 420.5Q154 431 154 435Q154 459 144 470.5Q134 482 105 486L65 492L67 518H221Q377 518 468.5 450.5Q560 383 560 259Q560 128 475 64Q390 0 239 0ZM274 38Q363 38 405.5 95Q448 152 448 253Q448 362 393.5 418Q339 474 258 477L220 47Q229 44 245.5 41Q262 38 274 38Z" glyph-name="d.smcp" horiz-adv-x="579" /><glyph d="M178 -250 243 497H108L113 548H247L265 750H341L323 548H459L454 497H319L253 -250Z" glyph-name="dagger" horiz-adv-x="475" unicode="&#8224;" /><glyph d="M66 1 70 52H204L243 497H108L113 548H247L265 750H341L323 548H459L454 497H319L279 52H415L411 1H275L253 -250H178L200 1Z" glyph-name="daggerdbl" horiz-adv-x="475" unicode="&#8225;" /><glyph d="M215 -14Q145 -14 106.5 42.5Q68 99 68 193Q68 259 86.5 314Q105 369 136.5 408.5Q168 448 212 470Q256 492 307 492Q329 492 353 488Q377 484 393 478L403 584Q404 606 405.5 624Q407 642 407 647Q407 663 400.5 672.5Q394 682 375 686L331 696L333 716Q347 720 368.5 724Q390 728 414 731Q438 734 462 735.5Q486 737 506 737H520Q512 689 505.5 638.5Q499 588 494 530L460 139Q459 118 457.5 98.5Q456 79 456 72Q456 50 471 40.5Q486 31 528 31L526 7Q501 0 479.5 -4Q458 -8 441 -8Q404 -8 384.5 12Q365 32 365 71Q365 76 366.5 90Q368 104 371 126Q340 59 299 22.5Q258 -14 215 -14ZM552 526 537 532 576 694Q583 721 587 728Q591 735 604 735Q625 735 642.5 724Q660 713 660 687Q660 674 655 662Q650 650 642 640ZM251 51Q273 51 294 71.5Q315 92 332 129Q349 166 361.5 216.5Q374 267 379 327L386 405Q370 430 347.5 443.5Q325 457 296 457Q245 457 209 395.5Q173 334 173 218Q173 137 194 94Q215 51 251 51Z" glyph-name="dcaron" horiz-adv-x="536" unicode="&#271;" /><glyph d="M307 570Q291 570 283 577.5Q275 585 267 602L210 712L228 716L322 645L427 716L445 712L370 602Q359 584 350 577Q341 570 325 570ZM24 0 26 26 62 32Q94 38 108 52.5Q122 67 124 102L151 394Q152 410 153 420.5Q154 431 154 435Q154 459 144 470.5Q134 482 105 486L65 492L67 518H221Q377 518 468.5 450.5Q560 383 560 259Q560 128 475 64Q390 0 239 0ZM274 38Q363 38 405.5 95Q448 152 448 253Q448 362 393.5 418Q339 474 258 477L220 47Q229 44 245.5 41Q262 38 274 38Z" glyph-name="dcaron.smcp" horiz-adv-x="579" /><glyph d="M215 -14Q145 -14 106.5 42.5Q68 99 68 193Q68 259 86.5 314Q105 369 136.5 408.5Q168 448 212 470Q256 492 307 492Q329 492 353 488Q377 484 393 478L402 577H302L305 614H405Q406 626 406.5 635Q407 644 407 647Q407 663 400.5 672.5Q394 682 375 686L331 696L333 716Q347 720 368.5 724Q390 728 414 731Q438 734 462 735.5Q486 737 506 737H520Q515 707 510.5 676.5Q506 646 502 614H555L552 577H498L460 139Q459 118 457.5 98.5Q456 79 456 72Q456 50 471 40.5Q486 31 528 31L526 7Q501 0 479.5 -4Q458 -8 441 -8Q404 -8 384.5 12Q365 32 365 71Q365 76 366.5 90Q368 104 371 126Q340 59 299 22.5Q258 -14 215 -14ZM251 51Q273 51 294 71.5Q315 92 332 129Q349 166 361.5 216.5Q374 267 379 327L386 405Q370 430 347.5 443.5Q325 457 296 457Q245 457 209 395.5Q173 334 173 218Q173 137 194 94Q215 51 251 51Z" glyph-name="dcroat" horiz-adv-x="536" unicode="&#273;" /><glyph d="M24 0 26 26 62 32Q94 38 108 52.5Q122 67 124 102L138 249H76L79 286H141L151 394Q152 410 153 420.5Q154 431 154 435Q154 459 144 470.5Q134 482 105 486L65 492L67 518H221Q377 518 468.5 450.5Q560 383 560 259Q560 128 475 64Q390 0 239 0ZM274 38Q363 38 405.5 95Q448 152 448 253Q448 362 393.5 418Q339 474 258 477L241 286H349L346 249H238L220 47Q229 44 245.5 41Q262 38 274 38Z" glyph-name="dcroat.smcp" horiz-adv-x="579" /><glyph d="M193 320Q129 320 94.5 360Q60 400 60 463Q60 502 71 536.5Q82 571 103 597Q124 623 154.5 638Q185 653 223 653Q288 653 322.5 613Q357 573 357 510Q357 472 345.5 437Q334 402 313 376.5Q292 351 261.5 335.5Q231 320 193 320ZM197 374Q240 374 265.5 410.5Q291 447 291 506Q291 552 270.5 575.5Q250 599 219 599Q176 599 150.5 562.5Q125 526 125 468Q125 421 145.5 397.5Q166 374 197 374Z" glyph-name="degree" horiz-adv-x="340" unicode="&#176;" /><glyph d="M190 577Q167 577 153 592Q139 607 139 631Q139 659 156.5 678.5Q174 698 202 698Q225 698 239 683Q253 668 253 644Q253 616 235.5 596.5Q218 577 190 577ZM349 577Q326 577 312 592Q298 607 298 631Q298 659 315.5 678.5Q333 698 362 698Q384 698 398.5 683Q413 668 413 644Q413 616 395 596.5Q377 577 349 577Z" glyph-name="dieresis" horiz-adv-x="440" unicode="&#168;" /><glyph d="M200 712Q176 712 162 727Q148 742 148 766Q148 794 165.5 813.5Q183 833 212 833Q236 833 250 818Q264 803 264 779Q264 751 246.5 731.5Q229 712 200 712ZM362 712Q338 712 324 727Q310 742 310 766Q310 794 327.5 813.5Q345 833 374 833Q398 833 412 818Q426 803 426 779Q426 751 408.5 731.5Q391 712 362 712Z" glyph-name="dieresis.case" horiz-adv-x="440" /><glyph d="M278 465Q259 465 246.5 478.5Q234 492 234 513Q234 537 248.5 555Q263 573 287 573Q306 573 318.5 559.5Q331 546 331 525Q331 501 317 483Q303 465 278 465ZM95 312 100 366H440L435 312ZM248 104Q229 104 216.5 117.5Q204 131 204 152Q204 176 218.5 194.5Q233 213 257 213Q276 213 288.5 199.5Q301 186 301 165Q301 141 286.5 122.5Q272 104 248 104Z" glyph-name="divide" horiz-adv-x="475" unicode="&#247;" /><glyph d="M170 -116 189 -12Q167 -11 148 -7Q129 -3 113 3Q85 13 74 24.5Q63 36 60 56Q60 63 59.5 73.5Q59 84 59 93L60 202L85 206Q100 131 127 88.5Q154 46 197 33L241 280Q163 317 127 362Q91 407 91 473Q91 553 148 606.5Q205 660 292 660Q296 660 300.5 660Q305 660 309 660L325 750H363L346 657Q369 655 390 649.5Q411 644 430 635Q444 628 450.5 617Q457 606 457 588Q457 583 456 570.5Q455 558 454 548L445 463H421Q414 523 393.5 560Q373 597 338 611L297 381L324 368Q395 333 427 289Q459 245 459 185Q459 139 442.5 102Q426 65 396.5 39.5Q367 14 326.5 0Q286 -14 238 -14Q235 -14 232 -14Q229 -14 226 -14L208 -116ZM179 514Q179 478 198.5 451Q218 424 262 399L302 619Q298 620 294 620Q290 620 286 620Q237 620 208 592.5Q179 565 179 514ZM366 141Q366 178 344.5 207.5Q323 237 276 262L233 26Q235 26 237.5 26Q240 26 242 26Q300 26 333 55Q366 84 366 141Z" glyph-name="dollar" horiz-adv-x="477" unicode="$" /><glyph d="M163 -93 178 -12Q161 -10 146 -6.5Q131 -3 118 1Q94 8 83.5 16.5Q73 25 71 43Q70 50 70 57.5Q70 65 70 72L69 172L91 175Q104 117 128.5 81.5Q153 46 187 33L223 222Q157 250 127 287Q97 324 97 378Q97 443 147 487.5Q197 532 275 532Q276 532 278.5 532Q281 532 282 532L295 600H328L315 530Q338 529 359 524Q380 519 399 511Q412 506 418 497Q424 488 424 474Q424 470 423 460Q422 450 421 441L412 363H390Q383 414 362 446Q341 478 307 488L274 312L278 310L309 297Q371 272 398 237Q425 202 425 152Q425 80 371 33Q317 -14 228 -14Q224 -14 220 -14Q216 -14 212 -14L197 -93ZM180 412Q180 384 194.5 364Q209 344 243 326L275 493Q273 493 271 493Q269 493 268 493Q225 493 202.5 472.5Q180 452 180 412ZM256 208 254 209 219 26Q223 25 226 25Q229 25 232 25Q281 25 310.5 48Q340 71 340 115Q340 148 320 169Q300 190 256 208Z" glyph-name="dollar.smcp" horiz-adv-x="451" /><glyph d="M270 575Q245 575 230.5 590.5Q216 606 216 631Q216 661 234 680.5Q252 700 282 700Q307 700 321.5 684.5Q336 669 336 644Q336 614 318 594.5Q300 575 270 575Z" glyph-name="dotaccent" horiz-adv-x="440" unicode="&#729;" /><glyph d="M282 712Q257 712 242.5 728Q228 744 228 769Q228 799 246 819.5Q264 840 294 840Q319 840 333.5 823.5Q348 807 348 783Q348 753 330.5 732.5Q313 712 282 712Z" glyph-name="dotaccent.case" horiz-adv-x="440" /><glyph d="M177 -8Q132 -8 113 13.5Q94 35 94 75Q94 81 95 99.5Q96 118 99 143L116 331Q117 348 119 369.5Q121 391 121 397Q121 420 111.5 429Q102 438 77 438Q75 438 70 438Q65 438 59 437L62 461Q80 468 108.5 474.5Q137 481 156 481Q185 481 202.5 466Q220 451 220 417Q220 412 218.5 388Q217 364 215 339L196 139Q195 117 193.5 99Q192 81 192 74Q192 51 207 42Q222 33 265 32L263 9Q241 2 218 -3Q195 -8 177 -8Z" glyph-name="dotlessi" horiz-adv-x="272" unicode="&#305;" /><glyph d="M15 -245Q-19 -245 -38 -231Q-57 -217 -57 -194Q-57 -179 -49.5 -169Q-42 -159 -29 -159Q-28 -159 -25.5 -160Q-23 -161 -18 -162L62 -194Q70 -173 75 -155Q80 -137 83 -118Q86 -99 88.5 -74.5Q91 -50 93 -16L118 331Q119 350 120.5 370Q122 390 122 396Q122 419 112.5 428Q103 437 78 437Q75 437 70.5 437Q66 437 60 436L63 460Q81 467 109.5 474Q138 481 157 481Q189 481 205 465.5Q221 450 221 419Q221 414 219.5 389Q218 364 217 339L197 67Q192 1 175.5 -56.5Q159 -114 135 -155.5Q111 -197 80 -221Q49 -245 15 -245Z" glyph-name="dotlessj" horiz-adv-x="267" unicode="&#567;" /><glyph d="M255 -15Q163 -15 115 45Q67 105 67 209Q67 270 84 322.5Q101 375 131.5 413Q162 451 205.5 472.5Q249 494 301 494Q357 494 392.5 469Q428 444 428 396Q428 350 395.5 320.5Q363 291 287 266L168 227Q168 135 201.5 92.5Q235 50 301 50Q331 50 358 61Q385 72 412 95L420 78Q388 36 348 10.5Q308 -15 255 -15ZM170 279 237 289Q292 298 316.5 322.5Q341 347 341 386Q341 417 326 438Q311 459 283 459Q241 459 209 416Q177 373 170 279Z" glyph-name="e" horiz-adv-x="433" unicode="e" /><glyph d="M24 0 26 26 62 32Q94 38 108 52.5Q122 67 124 102L151 394Q152 410 153 420.5Q154 431 154 435Q154 459 144 470.5Q134 482 105 486L65 492L67 518H492Q502 518 507.5 513Q513 508 513 498Q513 496 512.5 489.5Q512 483 511 476L501 360H479L475 388Q467 441 441.5 460Q416 479 357 479H258L241 294H385L406 366H427L412 180H390L383 254H238L220 46Q236 43 258.5 40Q281 37 306 37Q372 37 406 61Q440 85 464 145L473 169L495 165L463 15Q460 4 453 -1Q446 -6 433 -6Q428 -6 410.5 -5Q393 -4 371 -3Q349 -2 326 -1Q303 0 285 0Z" glyph-name="e.smcp" horiz-adv-x="519" /><glyph d="M254 548 244 562 346 700Q359 717 364 720.5Q369 724 375 724Q389 724 407.5 711.5Q426 699 426 668Q426 646 413.5 632.5Q401 619 382 610ZM255 -15Q163 -15 115 45Q67 105 67 209Q67 270 84 322.5Q101 375 131.5 413Q162 451 205.5 472.5Q249 494 301 494Q357 494 392.5 469Q428 444 428 396Q428 350 395.5 320.5Q363 291 287 266L168 227Q168 135 201.5 92.5Q235 50 301 50Q331 50 358 61Q385 72 412 95L420 78Q388 36 348 10.5Q308 -15 255 -15ZM170 279 237 289Q292 298 316.5 322.5Q341 347 341 386Q341 417 326 438Q311 459 283 459Q241 459 209 416Q177 373 170 279Z" glyph-name="eacute" horiz-adv-x="432" unicode="&#233;" /><glyph d="M272 563 266 578 392 705Q404 718 409 720Q414 722 418 722Q429 722 445 708.5Q461 695 461 667Q461 639 444.5 625Q428 611 406 604ZM24 0 26 26 62 32Q94 38 108 52.5Q122 67 124 102L151 394Q152 410 153 420.5Q154 431 154 435Q154 459 144 470.5Q134 482 105 486L65 492L67 518H492Q502 518 507.5 513Q513 508 513 498Q513 496 512.5 489.5Q512 483 511 476L501 360H479L475 388Q467 441 441.5 460Q416 479 357 479H258L241 294H385L406 366H427L412 180H390L383 254H238L220 46Q236 43 258.5 40Q281 37 306 37Q372 37 406 61Q440 85 464 145L473 169L495 165L463 15Q460 4 453 -1Q446 -6 433 -6Q428 -6 410.5 -5Q393 -4 371 -3Q349 -2 326 -1Q303 0 285 0Z" glyph-name="eacute.smcp" horiz-adv-x="520" /><glyph d="M292 551Q249 551 226.5 584Q204 617 204 686Q204 693 204 702Q204 711 205 720L224 724Q231 678 250 655.5Q269 633 300 633Q331 633 353.5 655Q376 677 392 724L410 720Q400 635 370 593Q340 551 292 551ZM255 -15Q163 -15 115 45Q67 105 67 209Q67 270 84 322.5Q101 375 131.5 413Q162 451 205.5 472.5Q249 494 301 494Q357 494 392.5 469Q428 444 428 396Q428 350 395.5 320.5Q363 291 287 266L168 227Q168 135 201.5 92.5Q235 50 301 50Q331 50 358 61Q385 72 412 95L420 78Q388 36 348 10.5Q308 -15 255 -15ZM170 279 237 289Q292 298 316.5 322.5Q341 347 341 386Q341 417 326 438Q311 459 283 459Q241 459 209 416Q177 373 170 279Z" glyph-name="ebreve" horiz-adv-x="432" unicode="&#277;" /><glyph d="M301 567Q258 567 233 597Q208 627 208 684Q208 691 208 697Q208 703 209 710H228Q234 678 254 662Q274 646 308 646Q342 646 365 661.5Q388 677 400 710H419Q412 638 381 602.5Q350 567 301 567ZM24 0 26 26 62 32Q94 38 108 52.5Q122 67 124 102L151 394Q152 410 153 420.5Q154 431 154 435Q154 459 144 470.5Q134 482 105 486L65 492L67 518H492Q502 518 507.5 513Q513 508 513 498Q513 496 512.5 489.5Q512 483 511 476L501 360H479L475 388Q467 441 441.5 460Q416 479 357 479H258L241 294H385L406 366H427L412 180H390L383 254H238L220 46Q236 43 258.5 40Q281 37 306 37Q372 37 406 61Q440 85 464 145L473 169L495 165L463 15Q460 4 453 -1Q446 -6 433 -6Q428 -6 410.5 -5Q393 -4 371 -3Q349 -2 326 -1Q303 0 285 0Z" glyph-name="ebreve.smcp" horiz-adv-x="520" /><glyph d="M278 554Q263 554 255.5 560.5Q248 567 243 586L198 733L217 737L299 637L399 737L418 733L349 586Q340 567 331.5 560.5Q323 554 307 554ZM255 -15Q163 -15 115 45Q67 105 67 209Q67 270 84 322.5Q101 375 131.5 413Q162 451 205.5 472.5Q249 494 301 494Q357 494 392.5 469Q428 444 428 396Q428 350 395.5 320.5Q363 291 287 266L168 227Q168 135 201.5 92.5Q235 50 301 50Q331 50 358 61Q385 72 412 95L420 78Q388 36 348 10.5Q308 -15 255 -15ZM170 279 237 289Q292 298 316.5 322.5Q341 347 341 386Q341 417 326 438Q311 459 283 459Q241 459 209 416Q177 373 170 279Z" glyph-name="ecaron" horiz-adv-x="432" unicode="&#283;" /><glyph d="M293 570Q277 570 269 577.5Q261 585 253 602L196 712L214 716L308 645L413 716L431 712L356 602Q345 584 336 577Q327 570 311 570ZM24 0 26 26 62 32Q94 38 108 52.5Q122 67 124 102L151 394Q152 410 153 420.5Q154 431 154 435Q154 459 144 470.5Q134 482 105 486L65 492L67 518H492Q502 518 507.5 513Q513 508 513 498Q513 496 512.5 489.5Q512 483 511 476L501 360H479L475 388Q467 441 441.5 460Q416 479 357 479H258L241 294H385L406 366H427L412 180H390L383 254H238L220 46Q236 43 258.5 40Q281 37 306 37Q372 37 406 61Q440 85 464 145L473 169L495 165L463 15Q460 4 453 -1Q446 -6 433 -6Q428 -6 410.5 -5Q393 -4 371 -3Q349 -2 326 -1Q303 0 285 0Z" glyph-name="ecaron.smcp" horiz-adv-x="520" /><glyph d="M200 539 182 543 251 690Q260 708 268.5 715Q277 722 293 722H320Q337 722 344 715Q351 708 357 690L402 543L383 539L300 640ZM255 -15Q163 -15 115 45Q67 105 67 209Q67 270 84 322.5Q101 375 131.5 413Q162 451 205.5 472.5Q249 494 301 494Q357 494 392.5 469Q428 444 428 396Q428 350 395.5 320.5Q363 291 287 266L168 227Q168 135 201.5 92.5Q235 50 301 50Q331 50 358 61Q385 72 412 95L420 78Q388 36 348 10.5Q308 -15 255 -15ZM170 279 237 289Q292 298 316.5 322.5Q341 347 341 386Q341 417 326 438Q311 459 283 459Q241 459 209 416Q177 373 170 279Z" glyph-name="ecircumflex" horiz-adv-x="432" unicode="&#234;" /><glyph d="M204 567 187 571 261 680Q272 697 280.5 703.5Q289 710 305 710H324Q340 710 348 703.5Q356 697 364 680L419 571L402 567L308 638ZM24 0 26 26 62 32Q94 38 108 52.5Q122 67 124 102L151 394Q152 410 153 420.5Q154 431 154 435Q154 459 144 470.5Q134 482 105 486L65 492L67 518H492Q502 518 507.5 513Q513 508 513 498Q513 496 512.5 489.5Q512 483 511 476L501 360H479L475 388Q467 441 441.5 460Q416 479 357 479H258L241 294H385L406 366H427L412 180H390L383 254H238L220 46Q236 43 258.5 40Q281 37 306 37Q372 37 406 61Q440 85 464 145L473 169L495 165L463 15Q460 4 453 -1Q446 -6 433 -6Q428 -6 410.5 -5Q393 -4 371 -3Q349 -2 326 -1Q303 0 285 0Z" glyph-name="ecircumflex.smcp" horiz-adv-x="520" /><glyph d="M214 577Q191 577 177 592Q163 607 163 631Q163 659 180.5 678.5Q198 698 226 698Q249 698 263 683Q277 668 277 644Q277 616 259.5 596.5Q242 577 214 577ZM373 577Q350 577 336 592Q322 607 322 631Q322 659 339.5 678.5Q357 698 386 698Q408 698 422.5 683Q437 668 437 644Q437 616 419 596.5Q401 577 373 577ZM255 -15Q163 -15 115 45Q67 105 67 209Q67 270 84 322.5Q101 375 131.5 413Q162 451 205.5 472.5Q249 494 301 494Q357 494 392.5 469Q428 444 428 396Q428 350 395.5 320.5Q363 291 287 266L168 227Q168 135 201.5 92.5Q235 50 301 50Q331 50 358 61Q385 72 412 95L420 78Q388 36 348 10.5Q308 -15 255 -15ZM170 279 237 289Q292 298 316.5 322.5Q341 347 341 386Q341 417 326 438Q311 459 283 459Q241 459 209 416Q177 373 170 279Z" glyph-name="edieresis" horiz-adv-x="432" unicode="&#235;" /><glyph d="M221 584Q197 584 183 599Q169 614 169 638Q169 666 186.5 685.5Q204 705 233 705Q257 705 271 690Q285 675 285 651Q285 623 267.5 603.5Q250 584 221 584ZM383 584Q359 584 345 599Q331 614 331 638Q331 666 348.5 685.5Q366 705 395 705Q419 705 433 690Q447 675 447 651Q447 623 429.5 603.5Q412 584 383 584ZM24 0 26 26 62 32Q94 38 108 52.5Q122 67 124 102L151 394Q152 410 153 420.5Q154 431 154 435Q154 459 144 470.5Q134 482 105 486L65 492L67 518H492Q502 518 507.5 513Q513 508 513 498Q513 496 512.5 489.5Q512 483 511 476L501 360H479L475 388Q467 441 441.5 460Q416 479 357 479H258L241 294H385L406 366H427L412 180H390L383 254H238L220 46Q236 43 258.5 40Q281 37 306 37Q372 37 406 61Q440 85 464 145L473 169L495 165L463 15Q460 4 453 -1Q446 -6 433 -6Q428 -6 410.5 -5Q393 -4 371 -3Q349 -2 326 -1Q303 0 285 0Z" glyph-name="edieresis.smcp" horiz-adv-x="520" /><glyph d="M294 575Q269 575 254.5 590.5Q240 606 240 631Q240 661 258 680.5Q276 700 306 700Q331 700 345.5 684.5Q360 669 360 644Q360 614 342 594.5Q324 575 294 575ZM255 -15Q163 -15 115 45Q67 105 67 209Q67 270 84 322.5Q101 375 131.5 413Q162 451 205.5 472.5Q249 494 301 494Q357 494 392.5 469Q428 444 428 396Q428 350 395.5 320.5Q363 291 287 266L168 227Q168 135 201.5 92.5Q235 50 301 50Q331 50 358 61Q385 72 412 95L420 78Q388 36 348 10.5Q308 -15 255 -15ZM170 279 237 289Q292 298 316.5 322.5Q341 347 341 386Q341 417 326 438Q311 459 283 459Q241 459 209 416Q177 373 170 279Z" glyph-name="edotaccent" horiz-adv-x="432" unicode="&#279;" /><glyph d="M303 584Q278 584 263.5 600Q249 616 249 641Q249 671 267 691.5Q285 712 315 712Q340 712 354.5 695.5Q369 679 369 655Q369 625 351.5 604.5Q334 584 303 584ZM24 0 26 26 62 32Q94 38 108 52.5Q122 67 124 102L151 394Q152 410 153 420.5Q154 431 154 435Q154 459 144 470.5Q134 482 105 486L65 492L67 518H492Q502 518 507.5 513Q513 508 513 498Q513 496 512.5 489.5Q512 483 511 476L501 360H479L475 388Q467 441 441.5 460Q416 479 357 479H258L241 294H385L406 366H427L412 180H390L383 254H238L220 46Q236 43 258.5 40Q281 37 306 37Q372 37 406 61Q440 85 464 145L473 169L495 165L463 15Q460 4 453 -1Q446 -6 433 -6Q428 -6 410.5 -5Q393 -4 371 -3Q349 -2 326 -1Q303 0 285 0Z" glyph-name="edotaccent.smcp" horiz-adv-x="520" /><glyph d="M312 548 199 607Q182 615 171 628.5Q160 642 160 663Q160 692 181 708.5Q202 725 220 725Q226 725 230 721.5Q234 718 244 700L324 564ZM255 -15Q163 -15 115 45Q67 105 67 209Q67 270 84 322.5Q101 375 131.5 413Q162 451 205.5 472.5Q249 494 301 494Q357 494 392.5 469Q428 444 428 396Q428 350 395.5 320.5Q363 291 287 266L168 227Q168 135 201.5 92.5Q235 50 301 50Q331 50 358 61Q385 72 412 95L420 78Q388 36 348 10.5Q308 -15 255 -15ZM170 279 237 289Q292 298 316.5 322.5Q341 347 341 386Q341 417 326 438Q311 459 283 459Q241 459 209 416Q177 373 170 279Z" glyph-name="egrave" horiz-adv-x="433" unicode="&#232;" /><glyph d="M332 563 199 604Q178 611 167.5 626Q157 641 157 663Q157 688 173 705Q189 722 208 722Q212 722 216 719.5Q220 717 230 705L340 579ZM24 0 26 26 62 32Q94 38 108 52.5Q122 67 124 102L151 394Q152 410 153 420.5Q154 431 154 435Q154 459 144 470.5Q134 482 105 486L65 492L67 518H492Q502 518 507.5 513Q513 508 513 498Q513 496 512.5 489.5Q512 483 511 476L501 360H479L475 388Q467 441 441.5 460Q416 479 357 479H258L241 294H385L406 366H427L412 180H390L383 254H238L220 46Q236 43 258.5 40Q281 37 306 37Q372 37 406 61Q440 85 464 145L473 169L495 165L463 15Q460 4 453 -1Q446 -6 433 -6Q428 -6 410.5 -5Q393 -4 371 -3Q349 -2 326 -1Q303 0 285 0Z" glyph-name="egrave.smcp" horiz-adv-x="520" /><glyph d="M246 -12Q161 -12 112 29Q63 70 63 142Q63 196 104 243.5Q145 291 209 315L205 318Q159 343 133 383.5Q107 424 107 475Q107 554 164 606Q221 658 312 658Q389 658 436.5 616.5Q484 575 484 503Q484 450 452 409Q420 368 360 345L380 334Q426 307 449 269Q472 231 472 181Q472 97 408.5 42.5Q345 -12 246 -12ZM333 361Q364 387 379 422Q394 457 394 505Q394 555 366.5 587.5Q339 620 298 620Q253 620 228 591.5Q203 563 203 516Q203 476 225.5 443Q248 410 295 384ZM255 27Q309 27 339.5 59.5Q370 92 370 152Q370 192 347.5 221.5Q325 251 277 278L234 302Q192 270 172.5 233Q153 196 153 147Q153 98 182 62.5Q211 27 255 27Z" glyph-name="eight" horiz-adv-x="508" unicode="8" /><glyph d="M145 -13Q99 -13 72 9Q45 31 45 69Q45 103 63.5 126.5Q82 150 122 165L112 171Q90 184 78 204Q66 224 66 251Q66 296 100 326.5Q134 357 184 357Q226 357 252.5 336.5Q279 316 279 280Q279 248 263 225.5Q247 203 212 187L228 178Q250 165 262 146Q274 127 274 101Q274 52 238 19.5Q202 -13 145 -13ZM197 195Q215 213 222.5 233Q230 253 230 278Q230 306 216.5 320.5Q203 335 178 335Q153 335 138 318Q123 301 123 274Q123 252 135 236Q147 220 175 207ZM150 9Q180 9 198 28Q216 47 216 78Q216 100 203.5 115.5Q191 131 163 145L139 157Q116 141 104.5 118.5Q93 96 93 70Q93 42 108 25.5Q123 9 150 9Z" glyph-name="eight.dnom" horiz-adv-x="303" /><glyph d="M230 -14Q150 -14 101.5 30.5Q53 75 53 144Q53 201 91.5 253Q130 305 194 331Q148 362 123 400Q98 438 98 484Q98 570 153.5 620.5Q209 671 295 671Q370 671 417 628.5Q464 586 464 517Q464 460 433 419.5Q402 379 346 354Q397 321 422 280Q447 239 447 190Q447 94 386 40Q325 -14 230 -14ZM322 369Q348 397 362.5 433.5Q377 470 377 512Q377 566 351 599Q325 632 283 632Q241 632 218.5 603.5Q196 575 196 525Q196 480 218 450.5Q240 421 285 393ZM239 24Q286 24 315 56.5Q344 89 344 151Q344 198 321 233Q298 268 249 297L216 318Q177 283 158 243Q139 203 139 155Q139 96 164.5 60Q190 24 239 24Z" glyph-name="eight.osf" horiz-adv-x="474" /><glyph d="M227 -14Q149 -14 108.5 21Q68 56 68 114Q68 159 99.5 196.5Q131 234 186 251Q142 273 121 304Q100 335 100 380Q100 443 152 487.5Q204 532 285 532Q356 532 396 498Q436 464 436 404Q436 361 408.5 328.5Q381 296 329 277L343 269Q384 247 405.5 216.5Q427 186 427 145Q427 78 371.5 32Q316 -14 227 -14ZM302 291Q329 312 340.5 340Q352 368 352 406Q352 445 330 469.5Q308 494 271 494Q234 494 212.5 472.5Q191 451 191 415Q191 383 210.5 356.5Q230 330 271 308ZM236 24Q282 24 308 47.5Q334 71 334 118Q334 149 314 173.5Q294 198 255 217L212 237Q178 212 161.5 182Q145 152 145 114Q145 74 170 49Q195 24 236 24Z" glyph-name="eight.smcp" horiz-adv-x="471" /><glyph d="M178 371Q132 371 105 393Q78 415 78 453Q78 487 96.5 510.5Q115 534 155 549L145 555Q123 568 111 588Q99 608 99 635Q99 680 133 710.5Q167 741 217 741Q259 741 285.5 720.5Q312 700 312 664Q312 632 296 609.5Q280 587 245 571L261 562Q283 549 295 530Q307 511 307 485Q307 436 271 403.5Q235 371 178 371ZM230 579Q248 597 255.5 617Q263 637 263 662Q263 690 249.5 704.5Q236 719 211 719Q186 719 171 702Q156 685 156 658Q156 636 168 620Q180 604 208 591ZM183 393Q213 393 231 412Q249 431 249 462Q249 484 236.5 499.5Q224 515 196 529L172 541Q149 525 137.5 502.5Q126 480 126 454Q126 426 141 409.5Q156 393 183 393Z" glyph-name="eight.sup" horiz-adv-x="303" /><glyph d="M233 -12Q148 -12 99 29Q50 70 50 142Q50 196 91 243.5Q132 291 196 315L192 318Q146 343 120 383.5Q94 424 94 475Q94 554 151 606Q208 658 299 658Q376 658 423.5 616.5Q471 575 471 503Q471 450 439 409Q407 368 347 345L367 334Q413 307 436 269Q459 231 459 181Q459 97 395.5 42.5Q332 -12 233 -12ZM320 361Q351 387 366 422Q381 457 381 505Q381 555 353.5 587.5Q326 620 285 620Q240 620 215 591.5Q190 563 190 516Q190 476 212.5 443Q235 410 282 384ZM242 27Q296 27 326.5 59.5Q357 92 357 152Q357 192 334.5 221.5Q312 251 264 278L221 302Q179 270 159.5 233Q140 196 140 147Q140 98 169 62.5Q198 27 242 27Z" glyph-name="eight.tf" horiz-adv-x="475" /><glyph d="M231 -14Q151 -14 102.5 30.5Q54 75 54 144Q54 201 92.5 253Q131 305 195 331Q149 362 124 400Q99 438 99 484Q99 570 154.5 620.5Q210 671 296 671Q371 671 418 628.5Q465 586 465 517Q465 460 434 419.5Q403 379 347 354Q398 321 423 280Q448 239 448 190Q448 94 387 40Q326 -14 231 -14ZM323 369Q349 397 363.5 433.5Q378 470 378 512Q378 566 352 599Q326 632 284 632Q242 632 219.5 603.5Q197 575 197 525Q197 480 219 450.5Q241 421 286 393ZM240 24Q287 24 316 56.5Q345 89 345 151Q345 198 322 233Q299 268 250 297L217 318Q178 283 159 243Q140 203 140 155Q140 96 165.5 60Q191 24 240 24Z" glyph-name="eight.tosf" horiz-adv-x="475" /><glyph d="M118 -10Q93 -10 78 7Q63 24 63 51Q63 84 82 105.5Q101 127 129 127Q154 127 168.5 110Q183 93 183 67Q183 34 164.5 12Q146 -10 118 -10ZM312 -10Q287 -10 272 7Q257 24 257 51Q257 84 276 105.5Q295 127 323 127Q348 127 362.5 110Q377 93 377 67Q377 34 358.5 12Q340 -10 312 -10ZM506 -10Q481 -10 466 7Q451 24 451 51Q451 84 470 105.5Q489 127 517 127Q542 127 556.5 110Q571 93 571 67Q571 34 552.5 12Q534 -10 506 -10Z" glyph-name="ellipsis" horiz-adv-x="624" unicode="&#8230;" /><glyph d="M193 601 198 647H404L400 601ZM255 -15Q163 -15 115 45Q67 105 67 209Q67 270 84 322.5Q101 375 131.5 413Q162 451 205.5 472.5Q249 494 301 494Q357 494 392.5 469Q428 444 428 396Q428 350 395.5 320.5Q363 291 287 266L168 227Q168 135 201.5 92.5Q235 50 301 50Q331 50 358 61Q385 72 412 95L420 78Q388 36 348 10.5Q308 -15 255 -15ZM170 279 237 289Q292 298 316.5 322.5Q341 347 341 386Q341 417 326 438Q311 459 283 459Q241 459 209 416Q177 373 170 279Z" glyph-name="emacron" horiz-adv-x="432" unicode="&#275;" /><glyph d="M190 609 195 658H424L420 609ZM24 0 26 26 62 32Q94 38 108 52.5Q122 67 124 102L151 394Q152 410 153 420.5Q154 431 154 435Q154 459 144 470.5Q134 482 105 486L65 492L67 518H492Q502 518 507.5 513Q513 508 513 498Q513 496 512.5 489.5Q512 483 511 476L501 360H479L475 388Q467 441 441.5 460Q416 479 357 479H258L241 294H385L406 366H427L412 180H390L383 254H238L220 46Q236 43 258.5 40Q281 37 306 37Q372 37 406 61Q440 85 464 145L473 169L495 165L463 15Q460 4 453 -1Q446 -6 433 -6Q428 -6 410.5 -5Q393 -4 371 -3Q349 -2 326 -1Q303 0 285 0Z" glyph-name="emacron.smcp" horiz-adv-x="520" /><glyph d="M67 238 71 284H859L856 238Z" glyph-name="emdash" horiz-adv-x="881" unicode="&#8212;" /><glyph d="M80 320 84 369H861L857 320Z" glyph-name="emdash.case" horiz-adv-x="881" /><glyph d="M67 238 71 284H419L416 238Z" glyph-name="endash" horiz-adv-x="441" unicode="&#8211;" /><glyph d="M80 320 84 369H422L418 320Z" glyph-name="endash.case" horiz-adv-x="442" /><glyph d="M275 -245Q238 -245 219.5 -232.5Q201 -220 201 -196Q201 -182 208.5 -171Q216 -160 229 -160Q231 -160 233 -160.5Q235 -161 240 -164L315 -201Q326 -181 333 -163Q340 -145 344.5 -124.5Q349 -104 352.5 -78Q356 -52 360 -16L386 278Q388 300 390 324Q392 348 392 358Q392 393 380.5 410.5Q369 428 344 428Q293 428 251.5 353.5Q210 279 197 112L191 29Q190 14 182.5 7Q175 0 162 0H80Q87 40 95 95Q103 150 107 204L119 331Q121 350 123 370Q125 390 125 396Q125 419 115 428Q105 437 81 437Q78 437 73.5 437Q69 437 63 436L65 460Q83 467 111.5 474Q140 481 159 481Q190 481 205 466.5Q220 452 220 421Q220 417 219 402.5Q218 388 217 371Q255 428 298 461.5Q341 495 382 495Q435 495 463 463.5Q491 432 491 366Q491 359 489.5 328.5Q488 298 485 270L463 62Q456 -4 440.5 -60.5Q425 -117 401.5 -158Q378 -199 346 -222Q314 -245 275 -245Z" glyph-name="eng" horiz-adv-x="538" unicode="&#331;" /><glyph d="M285 -231 280 -209Q312 -191 332 -174.5Q352 -158 364.5 -135Q377 -112 383 -79Q389 -46 393 4L397 55L199 407L166 40L262 28L260 0H24L26 26L58 33Q86 38 100.5 50.5Q115 63 118 90L151 382Q152 398 154 414.5Q156 431 156 435Q156 457 145.5 466Q135 475 111 482L81 491L83 518H225Q244 518 253.5 512.5Q263 507 269 496L464 144L494 478L398 490L400 518H629L627 492L592 485Q564 479 553.5 469.5Q543 460 540 432L496 15Q490 -42 477 -82Q464 -122 440 -149.5Q416 -177 378 -196Q340 -215 285 -231Z" glyph-name="eng.smcp" horiz-adv-x="598" /><glyph d="M248 -239Q210 -239 188.5 -216.5Q167 -194 167 -155Q167 -117 192 -81.5Q217 -46 264 -15Q175 -14 121 38.5Q67 91 67 209Q67 270 84 322.5Q101 375 131.5 413Q162 451 205.5 472.5Q249 494 301 494Q358 494 393 469Q428 444 428 396Q428 350 395.5 320.5Q363 291 287 266L168 227Q168 135 201.5 92.5Q235 50 301 50Q331 50 358 61Q385 72 412 95L420 78Q403 56 382.5 38Q362 20 341 5Q292 -32 272 -66.5Q252 -101 252 -136Q252 -159 264 -173.5Q276 -188 295 -188Q310 -188 321.5 -184.5Q333 -181 349 -172L345 -195Q323 -218 298.5 -228.5Q274 -239 248 -239ZM170 279 237 289Q292 298 316.5 322.5Q341 347 341 386Q341 417 326 438Q311 459 283 459Q241 459 209 416Q177 373 170 279Z" glyph-name="eogonek" horiz-adv-x="432" unicode="&#281;" /><glyph d="M330 -247Q291 -247 269.5 -224.5Q248 -202 248 -163Q248 -120 281.5 -78Q315 -36 376 -3Q354 -2 329 -1Q304 0 285 0H24L26 26L62 32Q94 38 108 52.5Q122 67 124 102L151 394Q152 410 153 420.5Q154 431 154 435Q154 459 144 470.5Q134 482 105 486L65 492L67 518H492Q502 518 507.5 513Q513 508 513 498Q513 496 512.5 489.5Q512 483 511 476L501 360H479L475 388Q467 441 441.5 460Q416 479 357 479H258L241 294H385L406 366H427L412 180H390L383 254H238L220 46Q236 43 258.5 40Q281 37 306 37Q372 37 406 61Q440 85 464 145L473 169L495 165L463 15Q460 4 453 -1Q446 -6 433 -6Q431 -6 426.5 -6Q422 -6 416 -5Q373 -41 353.5 -75Q334 -109 334 -145Q334 -169 346.5 -182Q359 -195 382 -195Q392 -195 403.5 -191Q415 -187 431 -177L426 -200Q408 -222 383 -234.5Q358 -247 330 -247Z" glyph-name="eogonek.smcp" horiz-adv-x="520" /><glyph d="M104 412 109 466H449L444 412ZM86 212 91 266H431L426 212Z" glyph-name="equal" horiz-adv-x="475" unicode="=" /><glyph d="M364 -12Q299 -12 241.5 9.5Q184 31 141.5 70.5Q99 110 74 167.5Q49 225 49 297Q49 374 79 441Q109 508 159 556.5Q209 605 274.5 633Q340 661 411 661Q478 661 534 637.5Q590 614 630.5 573Q671 532 693.5 475Q716 418 716 352Q716 344 716 335.5Q716 327 715 319H167Q165 319 163.5 318Q162 317 162 315Q162 311 159.5 281Q157 251 154 216.5Q151 182 148.5 153.5Q146 125 146 125Q146 121 147.5 116.5Q149 112 151 109Q186 66 246.5 42Q307 18 367 18Q442 18 510.5 49Q579 80 622 131H660Q608 66 533 27Q458 -12 364 -12ZM169 348H600Q602 348 603 350Q604 352 604 353Q604 357 606.5 386Q609 415 612 447.5Q615 480 617.5 507Q620 534 620 534Q620 538 618.5 543Q617 548 614 552Q580 596 524.5 617Q469 638 411 638Q351 638 292.5 616.5Q234 595 191 549Q186 544 183.5 538.5Q181 533 180 526Q180 520 177.5 492.5Q175 465 172.5 434.5Q170 404 168 379Q166 354 166 353Q166 351 167 349.5Q168 348 169 348Z" glyph-name="estimated" horiz-adv-x="706" unicode="&#8494;" /><glyph d="M259 -14Q174 -14 120.5 46.5Q67 107 67 211Q67 273 85.5 325Q104 377 135.5 414Q167 451 210.5 472Q254 493 304 493Q323 493 344.5 487.5Q366 482 380 475Q374 506 360 538.5Q346 571 328 602L233 566L224 603L307 635Q288 663 267 687.5Q246 712 227 731L255 734Q277 717 301 696.5Q325 676 347 651L442 687L451 649L374 620Q427 554 463 465.5Q499 377 499 269Q499 208 480.5 156Q462 104 430 66.5Q398 29 354 7.5Q310 -14 259 -14ZM279 23Q304 23 324.5 40.5Q345 58 360 90Q375 122 383 166Q391 210 391 262Q391 353 361.5 405Q332 457 286 457Q261 457 240.5 439.5Q220 422 205.5 390.5Q191 359 183 315Q175 271 175 219Q175 128 204 75.5Q233 23 279 23Z" glyph-name="eth" horiz-adv-x="523" unicode="&#240;" /><glyph d="M24 0 26 26 62 32Q94 38 108 52.5Q122 67 124 102L138 249H76L79 286H141L151 394Q152 410 153 420.5Q154 431 154 435Q154 459 144 470.5Q134 482 105 486L65 492L67 518H221Q377 518 468.5 450.5Q560 383 560 259Q560 128 475 64Q390 0 239 0ZM274 38Q363 38 405.5 95Q448 152 448 253Q448 362 393.5 418Q339 474 258 477L241 286H349L346 249H238L220 47Q229 44 245.5 41Q262 38 274 38Z" glyph-name="eth.smcp" horiz-adv-x="579" /><glyph d="M147 183 134 580Q133 602 133 613.5Q133 625 133 629Q133 642 145.5 647.5Q158 653 190 653Q221 653 240 641Q259 629 259 601Q259 594 256.5 577.5Q254 561 250 544L174 183ZM143 -8Q121 -8 106 7Q91 22 91 47Q91 78 109.5 98.5Q128 119 154 119Q177 119 192 103.5Q207 88 207 63Q207 32 188.5 12Q170 -8 143 -8Z" glyph-name="exclam" horiz-adv-x="290" unicode="!" /><glyph d="M132 165 114 464Q113 482 112.5 491Q112 500 112 503Q112 513 128 522Q144 531 173 531Q205 531 219.5 518Q234 505 234 481Q234 468 231.5 453Q229 438 225 425L160 165ZM130 -8Q108 -8 94.5 6.5Q81 21 81 45Q81 75 98.5 94.5Q116 114 141 114Q163 114 177 99Q191 84 191 61Q191 31 173.5 11.5Q156 -8 130 -8Z" glyph-name="exclam.smcp" horiz-adv-x="265" /><glyph d="M189 491Q211 491 226 476Q241 461 241 436Q241 405 222.5 384.5Q204 364 178 364Q155 364 140 379.5Q125 395 125 420Q125 451 143.5 471Q162 491 189 491ZM185 300 198 -97Q199 -119 199 -130.5Q199 -142 199 -146Q199 -159 186.5 -164.5Q174 -170 142 -170Q111 -170 92 -158Q73 -146 73 -118Q73 -111 75.5 -94.5Q78 -78 82 -61L158 300Z" glyph-name="exclamdown" horiz-adv-x="291" unicode="&#161;" /><glyph d="M204 656Q226 656 241 641Q256 626 256 601Q256 570 237.5 549.5Q219 529 193 529Q170 529 155 544.5Q140 560 140 585Q140 616 158.5 636Q177 656 204 656ZM200 465 213 68Q214 46 214 34.5Q214 23 214 19Q214 6 201.5 0.5Q189 -5 157 -5Q126 -5 107 7Q88 19 88 47Q88 54 90.5 70.5Q93 87 97 104L173 465Z" glyph-name="exclamdown.case" horiz-adv-x="291" /><glyph d="M180 525Q202 525 215.5 510.5Q229 496 229 472Q229 442 211.5 422.5Q194 403 169 403Q147 403 133 418Q119 433 119 456Q119 486 136.5 505.5Q154 525 180 525ZM178 352 196 53Q197 35 197.5 26Q198 17 198 14Q198 4 182 -5Q166 -14 137 -14Q105 -14 90.5 -1Q76 12 76 36Q76 49 78.5 64Q81 79 85 92L150 352Z" glyph-name="exclamdown.smcp" horiz-adv-x="264" /><glyph d="M34 -245Q2 -245 -13.5 -230.5Q-29 -216 -29 -194Q-29 -181 -21.5 -171.5Q-14 -162 -3 -162Q-1 -162 2 -163Q5 -164 12 -168L77 -199Q94 -168 100.5 -132.5Q107 -97 110 -34L131 431H81L82 464L111 473Q124 477 129 482.5Q134 488 135 500L137 525Q141 569 157 608.5Q173 648 197.5 677.5Q222 707 254 724Q286 741 321 741Q355 741 376 727Q397 713 397 686Q397 667 386 656.5Q375 646 361 646Q357 646 354 647.5Q351 649 347 653L283 706Q255 680 246 644Q237 608 234 540L230 475L350 479L344 452Q342 439 336.5 434.5Q331 430 317 430H229L212 39Q209 -27 192.5 -80Q176 -133 151.5 -169.5Q127 -206 96 -225.5Q65 -245 34 -245Z" glyph-name="f" horiz-adv-x="314" unicode="f" /><glyph d="M24 0 26 26 62 32Q94 38 108 52.5Q122 67 124 102L151 394Q152 410 153 420.5Q154 431 154 435Q154 459 144 470.5Q134 482 105 486L65 492L67 518H484Q494 518 500.5 513Q507 508 507 498Q507 497 506.5 490Q506 483 505 475L494 360H473L469 385Q461 438 435 457.5Q409 477 350 477H259L242 286H377L399 359H421L403 174H381L374 246H238L220 40L337 28L335 0Z" glyph-name="f.smcp" horiz-adv-x="495" /><glyph d="M33 -245Q-3 -245 -19 -229Q-35 -213 -35 -191Q-35 -177 -26.5 -166.5Q-18 -156 -5 -156Q-1 -156 1.5 -157Q4 -158 11 -162L76 -199Q93 -168 100.5 -133.5Q108 -99 111 -34L130 431H83L84 464L111 473Q124 478 128.5 483Q133 488 134 500L135 525Q137 568 153.5 607Q170 646 197.5 675.5Q225 705 261 722Q297 739 338 739Q354 739 375.5 735.5Q397 732 414 725Q442 730 474 733.5Q506 737 533 737H547Q540 697 533.5 642.5Q527 588 521 530L506 373Q534 428 572 461.5Q610 495 650 495Q723 495 760.5 438.5Q798 382 798 290Q798 153 730.5 70.5Q663 -12 555 -12Q496 -12 449.5 1Q403 14 372 40Q375 56 378.5 79.5Q382 103 385 128Q388 153 391 177.5Q394 202 396 222L429 575Q430 582 430 590Q430 598 430 603Q430 619 425.5 627Q421 635 409 642L290 704Q262 679 248 643Q234 607 232 538L230 475L349 479L344 452Q341 439 335.5 434.5Q330 430 316 430H228L208 34Q205 -29 189 -81Q173 -133 149 -169Q125 -205 94.5 -225Q64 -245 33 -245ZM570 24Q625 24 658.5 91Q692 158 692 263Q692 342 670.5 383.5Q649 425 612 425Q570 425 534.5 352Q499 279 489 156L483 73Q496 50 518 37Q540 24 570 24Z" glyph-name="f_b" horiz-adv-x="824" /><glyph d="M31 -245Q-5 -245 -21 -228.5Q-37 -212 -37 -190Q-37 -177 -28.5 -166.5Q-20 -156 -7 -156Q-5 -156 -2 -157Q1 -158 8 -162L74 -199Q91 -168 98.5 -132.5Q106 -97 109 -34L132 431H84L85 464L112 473Q125 478 130 483Q135 488 136 500L137 513Q141 556 157 595.5Q173 635 197 665Q221 695 253 712.5Q285 730 321 730Q355 730 376 715.5Q397 701 397 674Q397 655 386 644.5Q375 634 361 634Q357 634 354 635.5Q351 637 347 641L283 694Q255 669 246 633Q237 597 234 528L231 475H406L410 525Q414 568 429.5 607.5Q445 647 469.5 676.5Q494 706 526 723.5Q558 741 594 741Q627 741 648.5 727Q670 713 670 686Q670 667 659 656.5Q648 646 633 646Q630 646 626.5 647.5Q623 649 619 653L555 706Q527 681 518.5 645Q510 609 506 540L503 475L623 479L617 452Q615 439 609 434.5Q603 430 590 430H501L482 108Q478 45 462 -7Q446 -59 422.5 -95.5Q399 -132 369 -152Q339 -172 308 -172Q272 -172 256 -155.5Q240 -139 240 -117Q240 -103 248.5 -92.5Q257 -82 270 -82Q272 -82 275 -83Q278 -84 285 -88L351 -125Q367 -94 374.5 -58.5Q382 -23 385 40L403 430H230L206 34Q202 -29 185.5 -81Q169 -133 145.5 -169Q122 -205 92 -225Q62 -245 31 -245Z" glyph-name="f_f" horiz-adv-x="583" unicode="&#64256;" /><glyph d="M31 -245Q-5 -245 -21 -228.5Q-37 -212 -37 -190Q-37 -177 -28.5 -166.5Q-20 -156 -7 -156Q-5 -156 -2 -157Q1 -158 8 -162L74 -199Q91 -168 98.5 -132.5Q106 -97 109 -34L132 431H84L85 464L112 473Q125 478 130 483Q135 488 136 500L137 513Q141 556 157 595.5Q173 635 197 665Q221 695 253 712.5Q285 730 321 730Q355 730 376 715.5Q397 701 397 674Q397 655 386 644.5Q375 634 361 634Q357 634 354 635.5Q351 637 347 641L283 694Q255 669 246 633Q237 597 234 528L231 475L406 476L409 526Q412 569 429 608.5Q446 648 473 677Q500 706 536.5 723.5Q573 741 614 741Q630 741 647 737.5Q664 734 681 727Q709 731 741 734Q773 737 800 737H814Q807 697 800.5 642.5Q794 588 789 530L773 373Q801 428 839 461.5Q877 495 917 495Q991 495 1028.5 438.5Q1066 382 1066 290Q1066 153 998 70.5Q930 -12 822 -12Q763 -12 716.5 1Q670 14 639 40Q642 56 645.5 79.5Q649 103 652 128Q655 153 658 177.5Q661 202 663 222L696 575Q697 581 697 587.5Q697 594 697 598Q697 612 692.5 623.5Q688 635 676 642L565 704Q537 679 523 643Q509 607 505 538L502 475L623 479L617 452Q615 439 609 434.5Q603 430 590 430H501L483 132Q479 69 463 17Q447 -35 423 -71Q399 -107 369 -127Q339 -147 308 -147Q273 -147 257 -130.5Q241 -114 241 -92Q241 -79 249.5 -68Q258 -57 271 -57Q273 -57 276 -58.5Q279 -60 286 -64L352 -101Q368 -70 375.5 -34.5Q383 1 386 64L403 430H230L206 34Q202 -29 185.5 -81Q169 -133 145.5 -169Q122 -205 92 -225Q62 -245 31 -245ZM837 24Q892 24 925.5 91Q959 158 959 263Q959 342 938 383.5Q917 425 880 425Q837 425 801.5 352Q766 279 756 156L750 73Q763 50 785 37Q807 24 837 24Z" glyph-name="f_f_b" horiz-adv-x="1091" /><glyph d="M31 -245Q-5 -245 -21 -228.5Q-37 -212 -37 -190Q-37 -177 -28.5 -166.5Q-20 -156 -7 -156Q-5 -156 -2 -157Q1 -158 8 -162L74 -199Q91 -168 98.5 -132.5Q106 -97 109 -34L132 431H84L85 464L112 473Q125 478 130 483Q135 488 136 500L137 513Q141 556 157 595.5Q173 635 197 665Q221 695 253 712.5Q285 730 321 730Q355 730 376 715.5Q397 701 397 674Q397 655 386 644.5Q375 634 361 634Q357 634 354 635.5Q351 637 347 641L283 694Q255 669 246 633Q237 597 234 528L231 475L406 476L409 526Q412 569 429 608.5Q446 648 473 677Q500 706 536.5 723.5Q573 741 614 741Q630 741 647 737.5Q664 734 681 727Q709 731 741 734Q773 737 800 737H814Q807 699 800.5 644.5Q794 590 789 530L774 374Q811 431 854 463Q897 495 937 495Q990 495 1018 463.5Q1046 432 1046 366Q1046 359 1044 328.5Q1042 298 1038 270L1022 139Q1019 117 1017.5 98.5Q1016 80 1016 73Q1016 51 1031.5 41.5Q1047 32 1089 31L1087 8Q1064 1 1043 -3Q1022 -7 1005 -7Q959 -7 938 13.5Q917 34 917 74Q917 81 918.5 101Q920 121 923 141L942 278Q945 300 946 324Q947 348 947 358Q947 393 935 410.5Q923 428 898 428Q847 428 805.5 353Q764 278 751 112L745 29Q744 14 737 7Q730 0 717 0H634Q641 40 649 95Q657 150 662 204L696 575Q697 581 697 587.5Q697 594 697 598Q697 612 692.5 623.5Q688 635 676 642L565 704Q537 679 523 643Q509 607 505 538L502 475L623 479L617 452Q615 439 609 434.5Q603 430 590 430H501L483 132Q479 69 463 17Q447 -35 423 -71Q399 -107 369 -127Q339 -147 308 -147Q273 -147 257 -130.5Q241 -114 241 -92Q241 -79 249.5 -68Q258 -57 271 -57Q273 -57 276 -58.5Q279 -60 286 -64L352 -101Q368 -70 375.5 -34.5Q383 1 386 64L403 430H230L206 34Q202 -29 185.5 -81Q169 -133 145.5 -169Q122 -205 92 -225Q62 -245 31 -245Z" glyph-name="f_f_h" horiz-adv-x="1095" /><glyph d="M31 -245Q-5 -245 -21 -228.5Q-37 -212 -37 -190Q-37 -177 -28.5 -166.5Q-20 -156 -7 -156Q-5 -156 -2 -157Q1 -158 8 -162L74 -199Q91 -168 98.5 -132.5Q106 -97 109 -34L132 431H84L85 464L112 473Q125 478 130 483Q135 488 136 500L137 513Q141 556 157 595.5Q173 635 197 665Q221 695 253 712.5Q285 730 321 730Q355 730 376 715.5Q397 701 397 674Q397 655 386 644.5Q375 634 361 634Q357 634 354 635.5Q351 637 347 641L283 694Q255 669 246 633Q237 597 234 528L231 475L406 476L411 526Q415 569 434.5 608.5Q454 648 483 677Q512 706 548.5 723.5Q585 741 622 741Q691 741 731.5 716.5Q772 692 772 653Q772 628 757.5 614.5Q743 601 724 601Q716 601 712 603Q708 605 698 613L587 703Q551 686 531 646.5Q511 607 507 538L504 475Q528 476 560 477Q592 478 621.5 479Q651 480 673.5 480.5Q696 481 701 481Q731 482 748.5 466.5Q766 451 766 417Q766 412 764.5 388Q763 364 761 339L742 139Q740 117 738.5 99Q737 81 737 74Q737 51 752 42Q767 33 810 32L808 9Q786 2 764 -3Q742 -8 725 -8Q679 -8 659 13.5Q639 35 639 75Q639 81 640.5 99.5Q642 118 644 143L662 331Q663 348 664.5 369Q666 390 666 396Q666 409 662.5 417.5Q659 426 652 430H501L483 132Q479 69 463 17Q447 -35 423 -71Q399 -107 369 -127Q339 -147 308 -147Q273 -147 257 -130.5Q241 -114 241 -92Q241 -79 249.5 -68Q258 -57 271 -57Q273 -57 276 -58.5Q279 -60 286 -64L352 -101Q368 -70 375.5 -34.5Q383 1 386 64L403 430H230L206 34Q202 -29 185.5 -81Q169 -133 145.5 -169Q122 -205 92 -225Q62 -245 31 -245Z" glyph-name="f_f_i" horiz-adv-x="818" unicode="&#64259;" /><glyph d="M559 -245Q525 -245 506 -231Q487 -217 487 -194Q487 -179 494.5 -169Q502 -159 514 -159Q516 -159 518 -159.5Q520 -160 525 -162L603 -198Q611 -177 616 -158.5Q621 -140 625 -120Q629 -100 631.5 -75Q634 -50 636 -16L662 331Q663 348 664.5 369Q666 390 666 396Q666 409 662.5 417.5Q659 426 652 430H501L483 132Q479 69 463 17Q447 -35 423 -71Q399 -107 369 -127Q339 -147 308 -147Q273 -147 257 -130.5Q241 -114 241 -92Q241 -79 249.5 -68Q258 -57 271 -57Q273 -57 276 -58.5Q279 -60 286 -64L352 -101Q368 -70 375.5 -34.5Q383 1 386 64L403 430H230L206 34Q202 -29 185.5 -81Q169 -133 145.5 -169Q122 -205 92 -225Q62 -245 31 -245Q-5 -245 -21 -228.5Q-37 -212 -37 -190Q-37 -177 -28.5 -166.5Q-20 -156 -7 -156Q-5 -156 -2 -157Q1 -158 8 -162L74 -199Q91 -168 98.5 -132.5Q106 -97 109 -34L132 431H84L85 464L112 473Q125 478 130 483Q135 488 136 500L137 513Q141 556 157 595.5Q173 635 197 665Q221 695 253 712.5Q285 730 321 730Q355 730 376 715.5Q397 701 397 674Q397 655 386 644.5Q375 634 361 634Q357 634 354 635.5Q351 637 347 641L283 694Q255 669 246 633Q237 597 234 528L231 475H406L411 526Q415 569 434.5 608.5Q454 648 483.5 677Q513 706 549 723.5Q585 741 622 741Q691 741 731.5 716.5Q772 692 772 653Q772 628 757.5 614.5Q743 601 724 601Q716 601 712 603Q708 605 698 613L587 703Q551 686 531 646.5Q511 607 507 538L504 475Q528 476 560 477Q592 478 621.5 479Q651 480 673.5 480.5Q696 481 701 481Q731 482 748.5 466.5Q766 451 766 417Q766 412 765 388Q764 364 762 339L740 62Q734 -4 718 -60.5Q702 -117 678 -158Q654 -199 623.5 -222Q593 -245 559 -245Z" glyph-name="f_f_j" horiz-adv-x="811" /><glyph d="M31 -245Q-5 -245 -21 -228.5Q-37 -212 -37 -190Q-37 -177 -28.5 -166.5Q-20 -156 -7 -156Q-5 -156 -2 -157Q1 -158 8 -162L74 -199Q91 -168 98.5 -132.5Q106 -97 109 -34L132 431H84L85 464L112 473Q125 478 130 483Q135 488 136 500L137 513Q141 556 157 595.5Q173 635 197 665Q221 695 253 712.5Q285 730 321 730Q355 730 376 715.5Q397 701 397 674Q397 655 386 644.5Q375 634 361 634Q357 634 354 635.5Q351 637 347 641L283 694Q255 669 246 633Q237 597 234 528L231 475L406 476L409 526Q412 569 429 608.5Q446 648 473 677Q500 706 536.5 723.5Q573 741 614 741Q630 741 647 737.5Q664 734 681 727Q709 731 741 734Q773 737 800 737H814Q807 698 800.5 644Q794 590 789 530L767 274Q833 299 875 325.5Q917 352 954 395L938 457Q935 466 934 470Q933 474 933 475Q933 482 945 487Q957 492 973 492Q996 492 1010.5 477.5Q1025 463 1025 439Q1025 402 993 368Q961 334 888 291Q890 286 905 255Q920 224 937.5 188.5Q955 153 970 123Q985 93 987 89Q1003 55 1014.5 42Q1026 29 1048 28Q1050 28 1052.5 28Q1055 28 1061 29L1059 6Q1046 0 1022.5 -5.5Q999 -11 983 -11Q943 -11 922.5 6.5Q902 24 882 70Q881 73 869.5 99.5Q858 126 844.5 157.5Q831 189 819.5 216Q808 243 807 246L762 221L746 31Q745 15 737 7.5Q729 0 716 0H634Q641 38 649 93Q657 148 661 203L696 575Q697 581 697 587.5Q697 594 697 598Q697 612 692.5 623.5Q688 635 676 642L565 704Q537 679 523 643Q509 607 505 538L502 475L623 479L617 452Q615 439 609 434.5Q603 430 590 430H501L483 132Q479 69 463 17Q447 -35 423 -71Q399 -107 369 -127Q339 -147 308 -147Q273 -147 257 -130.5Q241 -114 241 -92Q241 -79 249.5 -68Q258 -57 271 -57Q273 -57 276 -58.5Q279 -60 286 -64L352 -101Q368 -70 375.5 -34.5Q383 1 386 64L403 430H230L206 34Q202 -29 185.5 -81Q169 -133 145.5 -169Q122 -205 92 -225Q62 -245 31 -245Z" glyph-name="f_f_k" horiz-adv-x="1040" /><glyph d="M31 -245Q-5 -245 -21 -228.5Q-37 -212 -37 -190Q-37 -177 -28.5 -166.5Q-20 -156 -7 -156Q-5 -156 -2 -157Q1 -158 8 -162L74 -199Q91 -168 98.5 -132.5Q106 -97 109 -34L132 431H84L85 464L112 473Q125 478 130 483Q135 488 136 500L137 513Q141 556 157 595.5Q173 635 197 665Q221 695 253 712.5Q285 730 321 730Q355 730 376 715.5Q397 701 397 674Q397 655 386 644.5Q375 634 361 634Q357 634 354 635.5Q351 637 347 641L283 694Q255 669 246 633Q237 597 234 528L231 476H406L409 526Q412 569 429 608.5Q446 648 473 677Q500 706 536.5 723.5Q573 741 614 741Q630 741 647 737.5Q664 734 681 727Q709 731 741 734Q773 737 800 737H814Q807 697 800 642Q793 587 789 530L753 139Q752 117 750.5 99Q749 81 749 74Q749 51 764 42Q779 33 822 32L820 9Q797 2 775 -3Q753 -8 736 -8Q691 -8 671.5 13Q652 34 652 75Q652 80 653 99Q654 118 657 143L696 575Q697 581 697 587.5Q697 594 697 598Q697 612 692.5 623.5Q688 635 676 642L565 704Q537 679 523 643Q509 607 505 538L502 475L623 479L617 452Q615 439 609 434.5Q603 430 590 430H501L483 132Q479 69 463 17Q447 -35 423 -71Q399 -107 369 -127Q339 -147 308 -147Q273 -147 257 -130.5Q241 -114 241 -92Q241 -79 249.5 -68Q258 -57 271 -57Q273 -57 276 -58.5Q279 -60 286 -64L352 -101Q368 -70 375.5 -34.5Q383 1 386 64L403 430H230L206 34Q202 -29 185.5 -81Q169 -133 145.5 -169Q122 -205 92 -225Q62 -245 31 -245Z" glyph-name="f_f_l" horiz-adv-x="829" unicode="&#64260;" /><glyph d="M33 -245Q-3 -245 -19 -229Q-35 -213 -35 -191Q-35 -177 -26.5 -166.5Q-18 -156 -5 -156Q-1 -156 1.5 -157Q4 -158 11 -162L76 -199Q93 -168 100.5 -133.5Q108 -99 111 -34L130 431H83L84 464L111 473Q124 478 128.5 483Q133 488 134 500L135 525Q137 568 153.5 607Q170 646 197.5 675.5Q225 705 261 722Q297 739 338 739Q354 739 375.5 735.5Q397 732 414 725Q442 730 474.5 733.5Q507 737 533 737H548Q541 693 534 641.5Q527 590 522 530L507 374Q544 431 587 463Q630 495 670 495Q723 495 751 463.5Q779 432 779 366Q779 359 777 328.5Q775 298 771 270L755 139Q752 117 750.5 98.5Q749 80 749 73Q749 51 764.5 41.5Q780 32 822 31L820 8Q797 1 776 -3Q755 -7 738 -7Q692 -7 671 13.5Q650 34 650 74Q650 81 651.5 101Q653 121 656 141L675 278Q678 300 679 324Q680 348 680 358Q680 393 668 410.5Q656 428 631 428Q580 428 538.5 353Q497 278 484 112L478 29Q477 14 470 7Q463 0 450 0H367Q374 40 382 95Q390 150 395 204L429 575Q430 581 430 587.5Q430 594 430 598Q430 612 425.5 623.5Q421 635 409 642L290 704Q262 679 248 643Q234 607 232 538L230 475L349 479L344 452Q341 439 335.5 434.5Q330 430 316 430H228L208 34Q205 -29 189 -81Q173 -133 149 -169Q125 -205 94.5 -225Q64 -245 33 -245Z" glyph-name="f_h" horiz-adv-x="827" /><glyph d="M297 -245Q263 -245 244 -231Q225 -217 225 -194Q225 -179 232.5 -169Q240 -159 252 -159Q254 -159 256 -159.5Q258 -160 263 -162L341 -198Q349 -177 354 -158.5Q359 -140 363 -120Q367 -100 369.5 -75Q372 -50 374 -16L399 331Q400 348 401.5 369Q403 390 403 396Q403 409 399.5 417.5Q396 426 389 430H234L206 81Q201 18 185 -38.5Q169 -95 144 -137Q119 -179 85 -203.5Q51 -228 11 -228Q-26 -228 -43 -213.5Q-60 -199 -60 -173Q-60 -155 -49 -143.5Q-38 -132 -25 -132Q-22 -132 -18.5 -134Q-15 -136 -11 -139L54 -184Q76 -153 88.5 -117Q101 -81 105 -17L136 431H88L89 464L118 473Q130 477 135 482.5Q140 488 141 500L144 525Q148 568 168.5 607Q189 646 218 675.5Q247 705 284 722Q321 739 358 739Q422 739 464 717.5Q506 696 507 656Q508 631 493.5 616Q479 601 459 601Q451 601 447 603Q443 605 433 613L323 703Q287 686 266.5 646.5Q246 607 241 538L236 475Q249 475 281 476Q313 477 347 478Q381 479 408.5 480Q436 481 439 481Q468 482 485.5 466.5Q503 451 503 417Q503 412 501.5 388Q500 364 498 339L478 62Q473 -4 456.5 -60.5Q440 -117 416 -158Q392 -199 361.5 -222Q331 -245 297 -245Z" glyph-name="f_j" horiz-adv-x="549" /><glyph d="M33 -245Q-3 -245 -19 -229Q-35 -213 -35 -191Q-35 -177 -26.5 -166.5Q-18 -156 -5 -156Q-1 -156 1.5 -157Q4 -158 11 -162L76 -199Q93 -168 100.5 -133.5Q108 -99 111 -34L130 431H83L84 464L111 473Q124 478 128.5 483Q133 488 134 500L135 525Q137 568 153.5 607Q170 646 197.5 675.5Q225 705 261 722Q297 739 338 739Q354 739 375.5 735.5Q397 732 414 725Q442 730 474 733.5Q506 737 533 737H547Q540 692 533 641Q526 590 522 530L499 274Q566 299 608 325.5Q650 352 687 395L671 457Q668 466 667 470Q666 474 666 475Q666 482 677.5 487Q689 492 706 492Q729 492 743.5 477.5Q758 463 758 439Q758 402 725.5 368Q693 334 621 291Q623 286 638 255Q653 224 670 188.5Q687 153 702 123Q717 93 719 89Q736 55 747.5 42Q759 29 781 28Q783 28 785.5 28Q788 28 794 29L792 6Q779 0 755.5 -5.5Q732 -11 715 -11Q676 -11 655.5 6.5Q635 24 615 70Q614 73 602 99.5Q590 126 576.5 157.5Q563 189 551.5 216Q540 243 539 246L495 221L478 29Q477 14 470 7Q463 0 450 0H366Q373 38 381 93Q389 148 394 203L429 575Q430 581 430 587.5Q430 594 430 598Q430 612 425.5 623.5Q421 635 409 642L290 704Q262 679 248 643Q234 607 232 538L230 475L349 479L344 452Q341 439 335.5 434.5Q330 430 316 430H228L208 34Q205 -29 189 -81Q173 -133 149 -169Q125 -205 94.5 -225Q64 -245 33 -245Z" glyph-name="f_k" horiz-adv-x="772" /><glyph d="M32 -245Q-5 -245 -21 -228Q-37 -211 -37 -189Q-37 -176 -28.5 -165.5Q-20 -155 -6 -155Q-3 -155 0 -156Q3 -157 9 -161L74 -201Q92 -170 99.5 -134.5Q107 -99 110 -34L130 431H83L84 464L112 473Q125 477 130 482.5Q135 488 136 500L137 525Q140 568 159.5 607Q179 646 208.5 675.5Q238 705 274.5 722Q311 739 348 739Q413 739 455.5 717.5Q498 696 499 656Q500 631 485.5 616Q471 601 451 601Q443 601 439 603Q435 605 425 613L314 703Q278 686 258 646.5Q238 607 234 538L231 475Q255 476 287.5 477Q320 478 350 479Q380 480 403 480.5Q426 481 431 481Q460 482 477.5 466.5Q495 451 495 417Q495 412 493.5 388Q492 364 490 339L471 139Q470 117 468.5 99Q467 81 467 74Q467 51 482 42Q497 33 540 32L538 9Q516 2 494 -3Q472 -8 454 -8Q409 -8 388.5 13.5Q368 35 368 75Q368 81 369.5 99.5Q371 118 374 143L391 331Q392 348 393.5 369Q395 390 395 396Q395 409 391.5 417.5Q388 426 381 430H228L209 34Q206 -29 190 -81Q174 -133 150 -169Q126 -205 95 -225Q64 -245 32 -245Z" glyph-name="fi" horiz-adv-x="547" unicode="&#64257;" /><glyph d="M24 0 26 26 62 32Q94 38 108 52.5Q122 67 124 102L151 394Q152 410 153 420.5Q154 431 154 435Q154 459 144 470.5Q134 482 105 486L65 492L67 518H484Q494 518 500.5 513Q507 508 507 498Q507 497 506.5 490Q506 483 505 475L494 360H473L469 385Q461 438 435 457.5Q409 477 350 477H259L242 286H377L399 359H421L403 174H381L374 246H238L220 40L337 28L335 0ZM519 0 521 26 557 32Q589 38 603 52.5Q617 67 619 102L646 394Q647 410 648 420.5Q649 431 649 435Q649 459 638.5 470.5Q628 482 599 486L560 492L562 518H849L847 492L811 486Q778 480 764.5 465.5Q751 451 749 416L722 124Q721 108 720 97.5Q719 87 719 83Q719 59 729.5 47.5Q740 36 769 32L808 26L806 0Z" glyph-name="fi.smcp" horiz-adv-x="827" /><glyph d="M210 -14Q136 -14 89 23Q42 60 42 114Q42 139 55.5 152.5Q69 166 91 166Q113 166 118 161.5Q123 157 126 141L145 44Q159 35 174 30Q189 25 210 25Q256 25 285.5 60.5Q315 96 315 155Q315 227 260.5 271Q206 315 110 324L158 646H360Q387 646 399 651Q411 656 424 675L430 685L452 682L430 581Q426 562 417 555Q408 548 389 548H190L166 395Q222 393 269.5 378.5Q317 364 351.5 338Q386 312 405.5 274.5Q425 237 425 190Q425 94 365.5 40Q306 -14 210 -14Z" glyph-name="five" horiz-adv-x="463" unicode="5" /><glyph d="M123 -13Q84 -13 57.5 7.5Q31 28 31 57Q31 70 40.5 79Q50 88 64 88Q76 88 79.5 85.5Q83 83 84 73L90 19Q97 14 105 11.5Q113 9 124 9Q152 9 167.5 27Q183 45 183 78Q183 119 156.5 138.5Q130 158 73 159L99 350H219Q233 350 239.5 353Q246 356 253 366L256 371L269 370L255 308Q252 297 247.5 292.5Q243 288 233 288H116L106 212Q175 212 215 182Q255 152 255 101Q255 50 218 18.5Q181 -13 123 -13Z" glyph-name="five.dnom" horiz-adv-x="273" /><glyph d="M163 -191Q89 -191 48 -154.5Q7 -118 7 -67Q7 -43 23 -29.5Q39 -16 60 -16Q79 -16 84.5 -20.5Q90 -25 92 -41L107 -142Q117 -148 128 -152Q139 -156 158 -156Q216 -156 247.5 -119Q279 -82 279 -17Q279 58 231.5 101.5Q184 145 89 152L146 476H329Q358 476 371 482Q384 488 396 506L402 515L425 512L405 409Q401 390 392 382.5Q383 375 364 375Q356 375 342 376Q328 377 311.5 377.5Q295 378 279 379Q263 380 252 380H176L146 225Q256 218 322 164Q388 110 388 16Q388 -79 325.5 -135Q263 -191 163 -191Z" glyph-name="five.osf" horiz-adv-x="442" /><glyph d="M195 -14Q128 -14 88.5 17.5Q49 49 49 91Q49 111 61.5 126.5Q74 142 94 142Q113 142 119.5 138Q126 134 128 121L144 39Q155 32 167 28.5Q179 25 198 25Q238 25 263 52Q288 79 288 125Q288 182 239.5 214Q191 246 114 247L151 518H327Q350 518 360.5 521.5Q371 525 383 541L389 549L412 546L390 449Q386 434 378 428Q370 422 353 422H182L166 317Q265 317 329 274.5Q393 232 393 155Q393 74 341 30Q289 -14 195 -14Z" glyph-name="five.smcp" horiz-adv-x="443" /><glyph d="M157 371Q118 371 91.5 391.5Q65 412 65 441Q65 454 74.5 463Q84 472 98 472Q110 472 113.5 469.5Q117 467 118 457L124 403Q131 398 139 395.5Q147 393 158 393Q186 393 201.5 411Q217 429 217 462Q217 503 190.5 522.5Q164 542 107 543L133 734H253Q267 734 273.5 737Q280 740 287 750L290 755L303 754L289 692Q286 681 281.5 676.5Q277 672 267 672H150L140 596Q209 596 249 566Q289 536 289 485Q289 434 252 402.5Q215 371 157 371Z" glyph-name="five.sup" horiz-adv-x="273" /><glyph d="M208 -14Q134 -14 87 23Q40 60 40 114Q40 139 53.5 152.5Q67 166 89 166Q111 166 116 161.5Q121 157 124 141L143 44Q157 35 172 30Q187 25 208 25Q254 25 283.5 60.5Q313 96 313 155Q313 227 258.5 271Q204 315 108 324L156 646H358Q385 646 397 651Q409 656 422 675L428 685L450 682L428 581Q424 562 415 555Q406 548 387 548H188L164 395Q220 393 267.5 378.5Q315 364 349.5 338Q384 312 403.5 274.5Q423 237 423 190Q423 94 363.5 40Q304 -14 208 -14Z" glyph-name="five.tf" horiz-adv-x="475" /><glyph d="M178 -191Q104 -191 63 -154.5Q22 -118 22 -67Q22 -43 38 -29.5Q54 -16 75 -16Q94 -16 99.5 -20.5Q105 -25 107 -41L122 -142Q132 -148 143 -152Q154 -156 173 -156Q231 -156 262.5 -119Q294 -82 294 -17Q294 58 246.5 101.5Q199 145 104 152L161 476H344Q373 476 386 482Q399 488 411 506L417 515L440 512L420 409Q416 390 407 382.5Q398 375 379 375Q371 375 357 376Q343 377 326.5 377.5Q310 378 294 379Q278 380 267 380H191L161 225Q271 218 337 164Q403 110 403 16Q403 -79 340.5 -135Q278 -191 178 -191Z" glyph-name="five.tosf" horiz-adv-x="475" /><glyph d="M33 -245Q-3 -245 -19 -229Q-35 -213 -35 -191Q-35 -177 -26.5 -166.5Q-18 -156 -5 -156Q-1 -156 1.5 -157Q4 -158 11 -162L76 -199Q93 -168 100.5 -133.5Q108 -99 111 -34L130 431H83L84 464L111 473Q124 478 128.5 483Q133 488 134 500L135 525Q137 568 153.5 607Q170 646 197.5 675.5Q225 705 261 722Q297 739 338 739Q354 739 375.5 735.5Q397 732 414 725Q442 729 474 732Q506 735 533 735H547Q540 695 533 640Q526 585 521 528L486 139Q485 117 483.5 99Q482 81 482 74Q482 51 497 42Q512 33 555 32L553 9Q530 2 508 -3Q486 -8 469 -8Q424 -8 404.5 13Q385 34 385 75Q385 80 386 99Q387 118 390 143L429 575Q430 581 430 587.5Q430 594 430 598Q430 612 425.5 623.5Q421 635 409 642L290 704Q262 679 248 643Q234 607 232 538L230 475L349 479L344 452Q341 439 335.5 434.5Q330 430 316 430H228L208 34Q205 -29 189 -81Q173 -133 149 -169Q125 -205 94.5 -225Q64 -245 33 -245Z" glyph-name="fl" horiz-adv-x="562" unicode="&#64258;" /><glyph d="M24 0 26 26 62 32Q94 38 108 52.5Q122 67 124 102L151 394Q152 410 153 420.5Q154 431 154 435Q154 459 144 470.5Q134 482 105 486L65 492L67 518H484Q494 518 500.5 513Q507 508 507 498Q507 497 506.5 490Q506 483 505 475L494 360H473L469 385Q461 438 435 457.5Q409 477 350 477H259L242 286H377L399 359H421L403 174H381L374 246H238L220 40L337 28L335 0ZM908 -6Q903 -6 885.5 -5Q868 -4 845 -3Q822 -2 798 -1Q774 0 756 0H519L521 26L557 32Q589 38 603 52.5Q617 67 619 102L646 394Q647 410 648 420.5Q649 431 649 435Q649 459 639 470.5Q629 482 600 486L560 492L562 518H869L867 489L754 479L716 47Q727 44 746.5 41Q766 38 784 38Q845 38 879 67Q913 96 939 159L954 195L976 190L939 15Q937 4 929 -1Q921 -6 908 -6Z" glyph-name="fl.smcp" horiz-adv-x="980" /><glyph d="M171 0 173 29 277 40 289 180H52L51 205L316 614Q328 633 341 639Q354 645 375 646L437 651Q430 617 423.5 568Q417 519 413 471L394 249H476L460 180H388L382 109Q381 93 380 84.5Q379 76 379 72Q379 56 385 48.5Q391 41 407 38L464 25L462 0ZM131 249H295L322 545Z" glyph-name="four" horiz-adv-x="515" unicode="4" /><glyph d="M102 -6 103 12 157 17 164 91H27V107L176 332Q182 342 189 345.5Q196 349 207 350L252 353Q249 335 245.5 307.5Q242 280 240 253L229 133H276L268 91H226L224 69Q223 56 222 46.5Q221 37 221 34Q221 26 224.5 21Q228 16 236 14L262 9L261 -6ZM76 133H167L182 296Z" glyph-name="four.dnom" horiz-adv-x="289" /><glyph d="M245 -181 262 11H24L23 43L286 440Q298 458 309.5 466Q321 474 338 475L410 481Q405 451 398.5 404.5Q392 358 388 318L367 77H455L443 11H361L345 -174ZM96 77H268L294 375Z" glyph-name="four.osf" horiz-adv-x="469" /><glyph d="M158 0 160 28 247 38 255 138H44L43 163L276 496Q286 511 298 516.5Q310 522 329 523L398 526Q393 498 386.5 456.5Q380 415 377 377L360 201H435L421 138H355L353 122Q351 109 350.5 98Q350 87 350 83Q350 59 359.5 47.5Q369 36 398 32L438 26L436 0ZM124 201H260L281 428Z" glyph-name="four.smcp" horiz-adv-x="476" /><glyph d="M136 378 137 396 191 401 198 475H61V491L210 716Q216 726 223 729.5Q230 733 241 734L286 737Q283 719 279.5 691.5Q276 664 274 637L263 517H310L302 475H260L258 453Q257 440 256 430.5Q255 421 255 418Q255 410 258.5 405Q262 400 270 398L296 393L295 378ZM110 517H201L216 680Z" glyph-name="four.sup" horiz-adv-x="290" /><glyph d="M146 0 148 29 252 40 264 180H27L26 205L291 614Q303 633 316 639Q329 645 350 646L412 651Q405 617 398.5 568Q392 519 388 471L369 249H451L435 180H363L357 109Q356 93 355 84.5Q354 76 354 72Q354 56 360 48.5Q366 41 382 38L439 25L437 0ZM106 249H270L297 545Z" glyph-name="four.tf" horiz-adv-x="475" /><glyph d="M252 -181 269 11H31L30 43L293 440Q305 458 316.5 466Q328 474 345 475L417 481Q412 451 405.5 404.5Q399 358 395 318L374 77H462L450 11H368L352 -174ZM103 77H275L301 375Z" glyph-name="four.tosf" horiz-adv-x="475" /><glyph d="M33 0H-22L348 646H403Z" glyph-name="fraction" horiz-adv-x="325" unicode="&#8260;" /><glyph d="M204 -249Q132 -249 88 -218.5Q44 -188 44 -139Q44 -117 59 -103.5Q74 -90 98 -90Q110 -90 113 -93Q116 -96 119 -109L138 -200Q154 -208 169 -210.5Q184 -213 205 -213Q263 -213 295.5 -168.5Q328 -124 340 -21L355 114Q328 60 290.5 23Q253 -14 211 -14Q144 -14 106 41Q68 96 68 193Q68 258 85.5 313.5Q103 369 134 408.5Q165 448 208.5 470.5Q252 493 303 493Q354 493 403 481Q452 469 484 450Q474 397 467.5 339Q461 281 456 217L437 6Q427 -115 364.5 -182Q302 -249 204 -249ZM243 51Q266 51 286.5 71.5Q307 92 323.5 128Q340 164 351.5 215.5Q363 267 368 328L375 416Q360 434 339.5 445.5Q319 457 290 457Q236 457 204.5 392Q173 327 173 218Q173 137 190.5 94Q208 51 243 51Z" glyph-name="g" horiz-adv-x="516" unicode="g" /><glyph d="M211 -249Q125 -249 76 -215Q27 -181 27 -127Q27 -86 60 -56.5Q93 -27 149 -20Q126 -12 112 7Q98 26 98 50Q98 81 127 107.5Q156 134 202 145Q147 153 115 198.5Q83 244 83 301Q83 345 98 381Q113 417 139.5 442Q166 467 201.5 481Q237 495 278 495Q300 495 317 490.5Q334 486 350 479L453 533Q459 536 463.5 537.5Q468 539 470 539Q475 539 478.5 530Q482 521 482 505Q482 478 467 465.5Q452 453 418 453Q409 453 394.5 455Q380 457 364 461Q401 440 421.5 399Q442 358 442 318Q442 237 391.5 189.5Q341 142 253 136Q225 134 204 120Q183 106 183 90Q183 73 198 63Q213 53 244 48L301 40Q382 28 417.5 0.5Q453 -27 453 -78Q453 -115 435 -146.5Q417 -178 385 -201Q353 -224 308.5 -236.5Q264 -249 211 -249ZM256 172Q296 172 318 211.5Q340 251 340 326Q340 381 320 421Q300 461 269 461Q230 461 208 420.5Q186 380 186 304Q186 250 206 211Q226 172 256 172ZM227 -214Q284 -214 321.5 -187Q359 -160 359 -117Q359 -87 335.5 -70Q312 -53 255 -42Q229 -37 211.5 -35Q194 -33 186 -33Q152 -33 133 -54.5Q114 -76 114 -110Q114 -153 145.5 -183.5Q177 -214 227 -214Z" glyph-name="g.alt" horiz-adv-x="486" /><glyph d="M303 -14Q192 -14 129.5 47Q67 108 67 222Q67 289 87.5 346Q108 403 144 444Q180 485 231 508.5Q282 532 342 532Q387 532 422.5 523Q458 514 482 504Q495 499 501 489Q507 479 507 466Q507 462 506.5 453Q506 444 505 437L497 349H474Q462 420 427 456Q392 492 333 492Q263 492 220.5 425Q178 358 178 242Q178 132 214 79.5Q250 27 322 27Q335 27 350 29.5Q365 32 378 36L393 197L321 206L323 234H535L532 206L519 204Q500 203 490.5 194Q481 185 479 161L469 51Q467 33 460.5 24.5Q454 16 438 11Q407 1 375.5 -6.5Q344 -14 303 -14Z" glyph-name="g.smcp" horiz-adv-x="553" /><glyph d="M304 551Q261 551 238.5 584Q216 617 216 686Q216 693 216 702Q216 711 217 720L236 724Q243 678 262 655.5Q281 633 312 633Q343 633 365.5 655Q388 677 404 724L422 720Q412 635 382 593Q352 551 304 551ZM204 -249Q132 -249 88 -218.5Q44 -188 44 -139Q44 -117 59 -103.5Q74 -90 98 -90Q110 -90 113 -93Q116 -96 119 -109L138 -200Q154 -208 169 -210.5Q184 -213 205 -213Q263 -213 295.5 -168.5Q328 -124 340 -21L355 114Q328 60 290.5 23Q253 -14 211 -14Q144 -14 106 41Q68 96 68 193Q68 258 85.5 313.5Q103 369 134 408.5Q165 448 208.5 470.5Q252 493 303 493Q354 493 403 481Q452 469 484 450Q474 397 467.5 339Q461 281 456 217L437 6Q427 -115 364.5 -182Q302 -249 204 -249ZM243 51Q266 51 286.5 71.5Q307 92 323.5 128Q340 164 351.5 215.5Q363 267 368 328L375 416Q360 434 339.5 445.5Q319 457 290 457Q236 457 204.5 392Q173 327 173 218Q173 137 190.5 94Q208 51 243 51Z" glyph-name="gbreve" horiz-adv-x="516" unicode="&#287;" /><glyph d="M279 551Q236 551 213.5 584Q191 617 191 686Q191 693 191 702Q191 711 192 720L211 724Q218 678 237 655.5Q256 633 287 633Q318 633 340.5 655Q363 677 379 724L397 720Q387 635 357 593Q327 551 279 551ZM211 -249Q125 -249 76 -215Q27 -181 27 -127Q27 -86 60 -56.5Q93 -27 149 -20Q126 -12 112 7Q98 26 98 50Q98 81 127 107.5Q156 134 202 145Q147 153 115 198.5Q83 244 83 301Q83 345 98 381Q113 417 139.5 442Q166 467 201.5 481Q237 495 278 495Q300 495 317 490.5Q334 486 350 479L453 533Q459 536 463.5 537.5Q468 539 470 539Q475 539 478.5 530Q482 521 482 505Q482 478 467 465.5Q452 453 418 453Q409 453 394.5 455Q380 457 364 461Q401 440 421.5 399Q442 358 442 318Q442 237 391.5 189.5Q341 142 253 136Q225 134 204 120Q183 106 183 90Q183 73 198 63Q213 53 244 48L301 40Q382 28 417.5 0.5Q453 -27 453 -78Q453 -115 435 -146.5Q417 -178 385 -201Q353 -224 308.5 -236.5Q264 -249 211 -249ZM256 172Q296 172 318 211.5Q340 251 340 326Q340 381 320 421Q300 461 269 461Q230 461 208 420.5Q186 380 186 304Q186 250 206 211Q226 172 256 172ZM227 -214Q284 -214 321.5 -187Q359 -160 359 -117Q359 -87 335.5 -70Q312 -53 255 -42Q229 -37 211.5 -35Q194 -33 186 -33Q152 -33 133 -54.5Q114 -76 114 -110Q114 -153 145.5 -183.5Q177 -214 227 -214Z" glyph-name="gbreve.alt" horiz-adv-x="486" /><glyph d="M322 567Q279 567 254 597Q229 627 229 684Q229 691 229 697Q229 703 230 710H249Q255 678 275 662Q295 646 329 646Q363 646 386 661.5Q409 677 421 710H440Q433 638 402 602.5Q371 567 322 567ZM303 -14Q192 -14 129.5 47Q67 108 67 222Q67 289 87.5 346Q108 403 144 444Q180 485 231 508.5Q282 532 342 532Q387 532 422.5 523Q458 514 482 504Q495 499 501 489Q507 479 507 466Q507 462 506.5 453Q506 444 505 437L497 349H474Q462 420 427 456Q392 492 333 492Q263 492 220.5 425Q178 358 178 242Q178 132 214 79.5Q250 27 322 27Q335 27 350 29.5Q365 32 378 36L393 197L321 206L323 234H535L532 206L519 204Q500 203 490.5 194Q481 185 479 161L469 51Q467 33 460.5 24.5Q454 16 438 11Q407 1 375.5 -6.5Q344 -14 303 -14Z" glyph-name="gbreve.smcp" horiz-adv-x="553" /><glyph d="M212 539 194 543 263 690Q272 708 280.5 715Q289 722 305 722H332Q349 722 356 715Q363 708 369 690L414 543L395 539L312 640ZM204 -249Q132 -249 88 -218.5Q44 -188 44 -139Q44 -117 59 -103.5Q74 -90 98 -90Q110 -90 113 -93Q116 -96 119 -109L138 -200Q154 -208 169 -210.5Q184 -213 205 -213Q263 -213 295.5 -168.5Q328 -124 340 -21L355 114Q328 60 290.5 23Q253 -14 211 -14Q144 -14 106 41Q68 96 68 193Q68 258 85.5 313.5Q103 369 134 408.5Q165 448 208.5 470.5Q252 493 303 493Q354 493 403 481Q452 469 484 450Q474 397 467.5 339Q461 281 456 217L437 6Q427 -115 364.5 -182Q302 -249 204 -249ZM243 51Q266 51 286.5 71.5Q307 92 323.5 128Q340 164 351.5 215.5Q363 267 368 328L375 416Q360 434 339.5 445.5Q319 457 290 457Q236 457 204.5 392Q173 327 173 218Q173 137 190.5 94Q208 51 243 51Z" glyph-name="gcircumflex" horiz-adv-x="516" unicode="&#285;" /><glyph d="M185 539 167 543 236 690Q245 708 253.5 715Q262 722 278 722H305Q322 722 329 715Q336 708 342 690L387 543L368 539L285 640ZM211 -249Q125 -249 76 -215Q27 -181 27 -127Q27 -86 60 -56.5Q93 -27 149 -20Q126 -12 112 7Q98 26 98 50Q98 81 127 107.5Q156 134 202 145Q147 153 115 198.5Q83 244 83 301Q83 345 98 381Q113 417 139.5 442Q166 467 201.5 481Q237 495 278 495Q300 495 317 490.5Q334 486 350 479L453 533Q459 536 463.5 537.5Q468 539 470 539Q475 539 478.5 530Q482 521 482 505Q482 478 467 465.5Q452 453 418 453Q409 453 394.5 455Q380 457 364 461Q401 440 421.5 399Q442 358 442 318Q442 237 391.5 189.5Q341 142 253 136Q225 134 204 120Q183 106 183 90Q183 73 198 63Q213 53 244 48L301 40Q382 28 417.5 0.5Q453 -27 453 -78Q453 -115 435 -146.5Q417 -178 385 -201Q353 -224 308.5 -236.5Q264 -249 211 -249ZM256 172Q296 172 318 211.5Q340 251 340 326Q340 381 320 421Q300 461 269 461Q230 461 208 420.5Q186 380 186 304Q186 250 206 211Q226 172 256 172ZM227 -214Q284 -214 321.5 -187Q359 -160 359 -117Q359 -87 335.5 -70Q312 -53 255 -42Q229 -37 211.5 -35Q194 -33 186 -33Q152 -33 133 -54.5Q114 -76 114 -110Q114 -153 145.5 -183.5Q177 -214 227 -214Z" glyph-name="gcircumflex.alt" horiz-adv-x="486" /><glyph d="M225 567 208 571 282 680Q293 697 301.5 703.5Q310 710 326 710H345Q361 710 369 703.5Q377 697 385 680L440 571L423 567L329 638ZM303 -14Q192 -14 129.5 47Q67 108 67 222Q67 289 87.5 346Q108 403 144 444Q180 485 231 508.5Q282 532 342 532Q387 532 422.5 523Q458 514 482 504Q495 499 501 489Q507 479 507 466Q507 462 506.5 453Q506 444 505 437L497 349H474Q462 420 427 456Q392 492 333 492Q263 492 220.5 425Q178 358 178 242Q178 132 214 79.5Q250 27 322 27Q335 27 350 29.5Q365 32 378 36L393 197L321 206L323 234H535L532 206L519 204Q500 203 490.5 194Q481 185 479 161L469 51Q467 33 460.5 24.5Q454 16 438 11Q407 1 375.5 -6.5Q344 -14 303 -14Z" glyph-name="gcircumflex.smcp" horiz-adv-x="553" /><glyph d="M305 561Q280 561 266.5 575Q253 589 253 615Q253 659 287.5 691.5Q322 724 388 744L392 728Q368 709 355 693.5Q342 678 332 658L353 600Q355 595 355.5 593.5Q356 592 356 591Q356 582 341.5 571.5Q327 561 305 561ZM204 -249Q132 -249 88 -218.5Q44 -188 44 -139Q44 -117 59 -103.5Q74 -90 98 -90Q110 -90 113 -93Q116 -96 119 -109L138 -200Q154 -208 169 -210.5Q184 -213 205 -213Q263 -213 295.5 -168.5Q328 -124 340 -21L355 114Q328 60 290.5 23Q253 -14 211 -14Q144 -14 106 41Q68 96 68 193Q68 258 85.5 313.5Q103 369 134 408.5Q165 448 208.5 470.5Q252 493 303 493Q354 493 403 481Q452 469 484 450Q474 397 467.5 339Q461 281 456 217L437 6Q427 -115 364.5 -182Q302 -249 204 -249ZM243 51Q266 51 286.5 71.5Q307 92 323.5 128Q340 164 351.5 215.5Q363 267 368 328L375 416Q360 434 339.5 445.5Q319 457 290 457Q236 457 204.5 392Q173 327 173 218Q173 137 190.5 94Q208 51 243 51Z" glyph-name="gcommaaccent" horiz-adv-x="516" unicode="&#291;" /><glyph d="M281 561Q256 561 242.5 575Q229 589 229 615Q229 659 263.5 691.5Q298 724 364 744L368 728Q344 709 331 693.5Q318 678 308 658L329 600Q331 595 331.5 593.5Q332 592 332 591Q332 582 317.5 571.5Q303 561 281 561ZM211 -249Q125 -249 76 -215Q27 -181 27 -127Q27 -86 60 -56.5Q93 -27 149 -20Q126 -12 112 7Q98 26 98 50Q98 81 127 107.5Q156 134 202 145Q147 153 115 198.5Q83 244 83 301Q83 345 98 381Q113 417 139.5 442Q166 467 201.5 481Q237 495 278 495Q300 495 317 490.5Q334 486 350 479L453 533Q459 536 463.5 537.5Q468 539 470 539Q475 539 478.5 530Q482 521 482 505Q482 478 467 465.5Q452 453 418 453Q409 453 394.5 455Q380 457 364 461Q401 440 421.5 399Q442 358 442 318Q442 237 391.5 189.5Q341 142 253 136Q225 134 204 120Q183 106 183 90Q183 73 198 63Q213 53 244 48L301 40Q382 28 417.5 0.5Q453 -27 453 -78Q453 -115 435 -146.5Q417 -178 385 -201Q353 -224 308.5 -236.5Q264 -249 211 -249ZM256 172Q296 172 318 211.5Q340 251 340 326Q340 381 320 421Q300 461 269 461Q230 461 208 420.5Q186 380 186 304Q186 250 206 211Q226 172 256 172ZM227 -214Q284 -214 321.5 -187Q359 -160 359 -117Q359 -87 335.5 -70Q312 -53 255 -42Q229 -37 211.5 -35Q194 -33 186 -33Q152 -33 133 -54.5Q114 -76 114 -110Q114 -153 145.5 -183.5Q177 -214 227 -214Z" glyph-name="gcommaaccent.alt" horiz-adv-x="486" /><glyph d="M303 -14Q192 -14 129.5 47Q67 108 67 222Q67 289 87.5 346Q108 403 144 444Q180 485 231 508.5Q282 532 342 532Q387 532 422.5 523Q458 514 482 504Q495 499 501 489Q507 479 507 466Q507 462 506.5 453Q506 444 505 437L497 349H474Q462 420 427 456Q392 492 333 492Q263 492 220.5 425Q178 358 178 242Q178 132 214 79.5Q250 27 322 27Q335 27 350 29.5Q365 32 378 36L393 197L321 206L323 234H535L532 206L519 204Q500 203 490.5 194Q481 185 479 161L469 51Q467 33 460.5 24.5Q454 16 438 11Q407 1 375.5 -6.5Q344 -14 303 -14ZM211 -251 208 -236Q236 -214 248 -197.5Q260 -181 267 -161L248 -112Q246 -106 245 -103Q244 -100 244 -98Q244 -87 259 -77.5Q274 -68 293 -68Q318 -68 332 -83.5Q346 -99 346 -124Q346 -165 314 -195.5Q282 -226 211 -251Z" glyph-name="gcommaaccent.smcp" horiz-adv-x="553" /><glyph d="M306 575Q281 575 266.5 590.5Q252 606 252 631Q252 661 270 680.5Q288 700 318 700Q343 700 357.5 684.5Q372 669 372 644Q372 614 354 594.5Q336 575 306 575ZM204 -249Q132 -249 88 -218.5Q44 -188 44 -139Q44 -117 59 -103.5Q74 -90 98 -90Q110 -90 113 -93Q116 -96 119 -109L138 -200Q154 -208 169 -210.5Q184 -213 205 -213Q263 -213 295.5 -168.5Q328 -124 340 -21L355 114Q328 60 290.5 23Q253 -14 211 -14Q144 -14 106 41Q68 96 68 193Q68 258 85.5 313.5Q103 369 134 408.5Q165 448 208.5 470.5Q252 493 303 493Q354 493 403 481Q452 469 484 450Q474 397 467.5 339Q461 281 456 217L437 6Q427 -115 364.5 -182Q302 -249 204 -249ZM243 51Q266 51 286.5 71.5Q307 92 323.5 128Q340 164 351.5 215.5Q363 267 368 328L375 416Q360 434 339.5 445.5Q319 457 290 457Q236 457 204.5 392Q173 327 173 218Q173 137 190.5 94Q208 51 243 51Z" glyph-name="gdotaccent" horiz-adv-x="516" unicode="&#289;" /><glyph d="M280 575Q255 575 240.5 590.5Q226 606 226 631Q226 661 244 680.5Q262 700 292 700Q317 700 331.5 684.5Q346 669 346 644Q346 614 328 594.5Q310 575 280 575ZM211 -249Q125 -249 76 -215Q27 -181 27 -127Q27 -86 60 -56.5Q93 -27 149 -20Q126 -12 112 7Q98 26 98 50Q98 81 127 107.5Q156 134 202 145Q147 153 115 198.5Q83 244 83 301Q83 345 98 381Q113 417 139.5 442Q166 467 201.5 481Q237 495 278 495Q300 495 317 490.5Q334 486 350 479L453 533Q459 536 463.5 537.5Q468 539 470 539Q475 539 478.5 530Q482 521 482 505Q482 478 467 465.5Q452 453 418 453Q409 453 394.5 455Q380 457 364 461Q401 440 421.5 399Q442 358 442 318Q442 237 391.5 189.5Q341 142 253 136Q225 134 204 120Q183 106 183 90Q183 73 198 63Q213 53 244 48L301 40Q382 28 417.5 0.5Q453 -27 453 -78Q453 -115 435 -146.5Q417 -178 385 -201Q353 -224 308.5 -236.5Q264 -249 211 -249ZM256 172Q296 172 318 211.5Q340 251 340 326Q340 381 320 421Q300 461 269 461Q230 461 208 420.5Q186 380 186 304Q186 250 206 211Q226 172 256 172ZM227 -214Q284 -214 321.5 -187Q359 -160 359 -117Q359 -87 335.5 -70Q312 -53 255 -42Q229 -37 211.5 -35Q194 -33 186 -33Q152 -33 133 -54.5Q114 -76 114 -110Q114 -153 145.5 -183.5Q177 -214 227 -214Z" glyph-name="gdotaccent.alt" horiz-adv-x="486" /><glyph d="M324 584Q299 584 284.5 600Q270 616 270 641Q270 671 288 691.5Q306 712 336 712Q361 712 375.5 695.5Q390 679 390 655Q390 625 372.5 604.5Q355 584 324 584ZM303 -14Q192 -14 129.5 47Q67 108 67 222Q67 289 87.5 346Q108 403 144 444Q180 485 231 508.5Q282 532 342 532Q387 532 422.5 523Q458 514 482 504Q495 499 501 489Q507 479 507 466Q507 462 506.5 453Q506 444 505 437L497 349H474Q462 420 427 456Q392 492 333 492Q263 492 220.5 425Q178 358 178 242Q178 132 214 79.5Q250 27 322 27Q335 27 350 29.5Q365 32 378 36L393 197L321 206L323 234H535L532 206L519 204Q500 203 490.5 194Q481 185 479 161L469 51Q467 33 460.5 24.5Q454 16 438 11Q407 1 375.5 -6.5Q344 -14 303 -14Z" glyph-name="gdotaccent.smcp" horiz-adv-x="553" /><glyph d="M24 -245Q-12 -245 -27.5 -228.5Q-43 -212 -43 -191Q-43 -178 -35 -167Q-27 -156 -14 -156Q-11 -156 -8 -157Q-5 -158 1 -162L69 -198Q88 -167 97 -133Q106 -99 109 -34L135 431H88L89 464L116 473Q129 478 134 483Q139 488 140 500L143 520Q156 626 216.5 685Q277 744 358 744Q435 744 477.5 707.5Q520 671 518 616Q517 567 493.5 538Q470 509 442 488Q414 467 390.5 446.5Q367 426 367 392Q367 364 387.5 340.5Q408 317 451 295L478 281Q525 256 550 224.5Q575 193 575 142Q575 75 527 30.5Q479 -14 396 -14Q321 -14 289.5 12Q258 38 258 75Q258 94 270 108.5Q282 123 305 123Q309 123 312 121Q315 119 318 112L358 30Q371 26 380 23Q389 20 405 20Q446 20 468.5 43.5Q491 67 491 105Q491 134 477.5 153Q464 172 433 188L400 206Q349 232 322 262.5Q295 293 295 342Q295 382 314.5 411.5Q334 441 358 470Q382 499 401.5 532.5Q421 566 421 614Q421 651 402 679.5Q383 708 336 708Q296 708 271 672Q246 636 240 543L206 34Q202 -29 185.5 -81Q169 -133 144 -169Q119 -205 88 -225Q57 -245 24 -245Z" glyph-name="germandbls" horiz-adv-x="575" unicode="&#223;" /><glyph d="M376 -9Q313 -9 274.5 18.5Q236 46 236 92Q236 111 248.5 122.5Q261 134 280 134Q296 134 301 130.5Q306 127 308 115L326 36Q339 27 349.5 24Q360 21 376 21Q417 21 438 47.5Q459 74 459 125Q459 187 418 222.5Q377 258 301 265L303 284L456 481H330Q281 481 259 461Q237 441 233 395L198 1H14L16 23L49 28Q85 33 96.5 45Q108 57 111 91L138 368Q145 440 194 479Q243 518 326 518H544L548 498L386 296Q462 289 510 246.5Q558 204 558 142Q558 70 510.5 30.5Q463 -9 376 -9Z" glyph-name="germandbls.smcp" horiz-adv-x="572" /><glyph d="M304 548 191 607Q174 615 163 628.5Q152 642 152 663Q152 692 173 708.5Q194 725 212 725Q218 725 222 721.5Q226 718 236 700L316 564Z" glyph-name="grave" horiz-adv-x="440" unicode="`" /><glyph d="M311 691 178 732Q157 739 146.5 754Q136 769 136 791Q136 816 152 833Q168 850 187 850Q191 850 195 847.5Q199 845 209 833L319 707Z" glyph-name="grave.case" horiz-adv-x="440" /><glyph d="M65 73 67 139 373 328 101 519 109 580 435 356 429 300Z" glyph-name="greater" horiz-adv-x="475" unicode="&gt;" /><glyph d="M79 217 84 274H376L109 586L116 653L447 272L436 217ZM60 0 65 57H428L422 0Z" glyph-name="greaterequal" horiz-adv-x="475" unicode="&#8805;" /><glyph d="M192 44 59 196Q52 203 49.5 211Q47 219 47 229Q47 230 47 235Q47 240 48 247Q49 260 54 269Q59 278 67 285L226 437L246 425L138 240L214 56ZM365 44 232 196Q225 203 222.5 211Q220 219 220 229Q220 230 220 235Q220 240 221 247Q222 260 227 269Q232 278 240 285L399 437L419 425L311 240L387 56Z" glyph-name="guillemotleft" horiz-adv-x="417" unicode="&#171;" /><glyph d="M196 90 67 274Q60 284 57 290Q54 296 54 304Q54 307 55 316Q56 325 57 338Q58 349 62 356Q66 363 76 375L237 559L258 549L154 324L219 100ZM364 90 235 274Q228 284 225 290Q222 296 222 304Q222 307 223 316Q224 325 225 338Q226 349 230 356Q234 363 244 375L405 559L426 549L322 324L387 100Z" glyph-name="guillemotleft.case" horiz-adv-x="404" /><glyph d="M94 437 227 285Q234 278 236.5 270Q239 262 239 252Q239 251 239 246Q239 241 238 234Q237 221 232 212Q227 203 219 196L60 44L40 56L148 241L72 425ZM267 437 400 285Q407 278 409.5 270Q412 262 412 252Q412 251 412 246Q412 241 411 234Q410 221 405 212Q400 203 392 196L233 44L213 56L321 241L245 425Z" glyph-name="guillemotright" horiz-adv-x="417" unicode="&#187;" /><glyph d="M97 559 226 375Q233 365 236 359Q239 353 239 345Q239 342 238 333Q237 324 236 311Q235 300 231 293Q227 286 217 274L56 90L35 100L139 325L74 549ZM265 559 394 375Q401 365 404 359Q407 353 407 345Q407 342 406 333Q405 324 404 311Q403 300 399 293Q395 286 385 274L224 90L203 100L307 325L242 549Z" glyph-name="guillemotright.case" horiz-adv-x="404" /><glyph d="M192 44 59 196Q52 203 49.5 211Q47 219 47 229Q47 230 47 235Q47 240 48 247Q49 260 54 269Q59 278 67 285L226 437L246 425L138 240L214 56Z" glyph-name="guilsinglleft" horiz-adv-x="244" unicode="&#8249;" /><glyph d="M196 90 67 274Q60 284 57 290Q54 296 54 304Q54 307 55 316Q56 325 57 338Q58 349 62 356Q66 363 76 375L237 559L258 549L154 324L219 100Z" glyph-name="guilsinglleft.case" horiz-adv-x="236" /><glyph d="M94 437 227 285Q234 278 236.5 270Q239 262 239 252Q239 251 239 246Q239 241 238 234Q237 221 232 212Q227 203 219 196L60 44L40 56L148 241L72 425Z" glyph-name="guilsinglright" horiz-adv-x="244" unicode="&#8250;" /><glyph d="M97 559 226 375Q233 365 236 359Q239 353 239 345Q239 342 238 333Q237 324 236 311Q235 300 231 293Q227 286 217 274L56 90L35 100L139 325L74 549Z" glyph-name="guilsinglright.case" horiz-adv-x="236" /><glyph d="M444 -7Q398 -7 377.5 13.5Q357 34 357 74Q357 81 359 101Q361 121 363 141L382 278Q385 300 386.5 324Q388 348 388 358Q388 393 375 410.5Q362 428 337 428Q280 428 241.5 353Q203 278 190 112L183 29Q182 14 175 7Q168 0 155 0H72Q79 40 86.5 95Q94 150 99 204L135 584Q137 606 138 624Q139 642 139 647Q139 663 132.5 672Q126 681 107 686L67 696L69 717Q83 721 104 725Q125 729 148 731.5Q171 734 194.5 735.5Q218 737 238 737H252Q245 689 238.5 638.5Q232 588 227 530L212 374Q249 431 292.5 463Q336 495 376 495Q428 495 457.5 463.5Q487 432 487 366Q487 359 484.5 328.5Q482 298 478 270L462 139Q459 117 457.5 98.5Q456 80 456 73Q456 51 471.5 41.5Q487 32 529 31L527 8Q505 1 483.5 -3Q462 -7 444 -7Z" glyph-name="h" horiz-adv-x="535" unicode="h" /><glyph d="M24 0 26 26 62 32Q94 38 108 52.5Q122 67 124 102L151 394Q152 410 153 420.5Q154 431 154 435Q154 459 144 470.5Q134 482 105 486L65 492L67 518H343L341 490L259 480L243 297H452L468 479L388 490L391 518H664L662 492L626 486Q593 480 580 465.5Q567 451 564 416L538 124Q537 108 536 97.5Q535 87 535 83Q535 59 544.5 47.5Q554 36 584 32L623 26L621 0H345L347 28L429 38L449 255H239L220 39L300 28L298 0Z" glyph-name="h.smcp" horiz-adv-x="642" /><glyph d="M444 -7Q398 -7 377.5 13.5Q357 34 357 74Q357 81 359 101Q361 121 363 141L382 278Q385 300 386.5 324Q388 348 388 358Q388 393 375 410.5Q362 428 337 428Q280 428 241.5 353Q203 278 190 112L183 29Q182 14 175 7Q168 0 155 0H72Q79 40 86.5 95Q94 150 99 204L134 577H70L73 614H138Q139 626 139 635Q139 644 139 647Q139 663 132.5 672Q126 681 107 686L67 696L69 717Q83 721 104 725Q125 729 148 731.5Q171 734 194.5 735.5Q218 737 238 737H252Q248 707 243.5 676.5Q239 646 235 614H325L321 577H231L212 374Q249 431 292.5 463Q336 495 376 495Q428 495 457.5 463.5Q487 432 487 366Q487 359 484.5 328.5Q482 298 478 270L462 139Q459 117 457.5 98.5Q456 80 456 73Q456 51 471.5 41.5Q487 32 529 31L527 8Q505 1 483.5 -3Q462 -7 444 -7Z" glyph-name="hbar" horiz-adv-x="535" unicode="&#295;" /><glyph d="M24 0 26 26 62 32Q94 38 108 52.5Q122 67 124 102L149 377H87L90 415H153Q154 422 154 427Q154 432 154 435Q154 459 144 470.5Q134 482 105 486L65 492L67 518H343L341 490L259 480L253 415H462L468 479L388 490L391 518H664L662 492L626 486Q593 480 580 465.5Q567 451 564 415H627L624 377H560L538 124Q537 108 536 97.5Q535 87 535 83Q535 59 544.5 47.5Q554 36 584 32L623 26L621 0H345L347 28L429 38L449 255H239L220 39L300 28L298 0ZM243 297H452L459 377H250Z" glyph-name="hbar.smcp" horiz-adv-x="642" /><glyph d="M109 773 91 777 160 924Q169 942 177.5 949Q186 956 202 956H229Q246 956 253 949Q260 942 266 924L311 777L292 773L209 874ZM444 -7Q398 -7 377.5 13.5Q357 34 357 74Q357 81 359 101Q361 121 363 141L382 278Q385 300 386.5 324Q388 348 388 358Q388 393 375 410.5Q362 428 337 428Q280 428 241.5 353Q203 278 190 112L183 29Q182 14 175 7Q168 0 155 0H72Q79 40 86.5 95Q94 150 99 204L135 584Q137 606 138 624Q139 642 139 647Q139 663 132.5 672Q126 681 107 686L67 696L69 717Q83 721 104 725Q125 729 148 731.5Q171 734 194.5 735.5Q218 737 238 737H252Q245 689 238.5 638.5Q232 588 227 530L212 374Q249 431 292.5 463Q336 495 376 495Q428 495 457.5 463.5Q487 432 487 366Q487 359 484.5 328.5Q482 298 478 270L462 139Q459 117 457.5 98.5Q456 80 456 73Q456 51 471.5 41.5Q487 32 529 31L527 8Q505 1 483.5 -3Q462 -7 444 -7Z" glyph-name="hcircumflex" horiz-adv-x="535" unicode="&#293;" /><glyph d="M273 567 256 571 330 680Q341 697 349.5 703.5Q358 710 374 710H393Q409 710 417 703.5Q425 697 433 680L488 571L471 567L377 638ZM24 0 26 26 62 32Q94 38 108 52.5Q122 67 124 102L151 394Q152 410 153 420.5Q154 431 154 435Q154 459 144 470.5Q134 482 105 486L65 492L67 518H343L341 490L259 480L243 297H452L468 479L388 490L391 518H664L662 492L626 486Q593 480 580 465.5Q567 451 564 416L538 124Q537 108 536 97.5Q535 87 535 83Q535 59 544.5 47.5Q554 36 584 32L623 26L621 0H345L347 28L429 38L449 255H239L220 39L300 28L298 0Z" glyph-name="hcircumflex.smcp" horiz-adv-x="642" /><glyph d="M214 550 199 556 242 722Q248 744 252.5 750.5Q257 757 268 757Q288 757 305 746Q322 735 322 710Q322 694 316 682Q310 670 300 658ZM298 551 287 564 386 701Q401 722 406.5 726Q412 730 419 730Q435 730 447.5 716Q460 702 460 680Q460 655 447.5 641.5Q435 628 420 620Z" glyph-name="hungarumlaut" horiz-adv-x="440" unicode="&#733;" /><glyph d="M201 688 188 699 261 849Q271 871 277 877Q283 883 291 883Q313 883 330.5 868.5Q348 854 348 832Q348 818 339.5 804Q331 790 316 779ZM313 693 308 709 423 827Q435 839 439.5 842Q444 845 450 845Q467 845 481.5 830Q496 815 496 793Q496 773 482.5 758Q469 743 442 734Z" glyph-name="hungarumlaut.case" horiz-adv-x="440" /><glyph d="M67 234 71 281 251 291 246 244Z" glyph-name="hyphen" horiz-adv-x="271" unicode="-" /><glyph d="M79 320 83 369H273L268 320Z" glyph-name="hyphen.case" horiz-adv-x="293" /></font>
</defs>
</svg>
