<?xml version="1.0" standalone="no"?><!DOCTYPE svg PUBLIC "-//W3C//DTD SVG 1.1//EN" "http://www.w3.org/Graphics/SVG/1.1/DTD/svg11.dtd" ><svg version="1.1" xmlns="http://www.w3.org/2000/svg"><defs><font horiz-adv-x="0" id="font"><font-face ascent="750" bbox="-70 -283 1144 914" cap-height="646" descent="-250" font-family="Folha Grafico" font-stretch="normal" font-style="normal" font-weight="700" units-per-em="1000" x-height="495" /><missing-glyph d="M0 0V646H500V0ZM60 586V60H440V586Z" horiz-adv-x="500" /><glyph glyph-name=".null" horiz-adv-x="0" /><glyph d="M10 0 230 644 374 651 598 0H454L414 125H187L147 0ZM224 245H376L300 482Z" glyph-name="A" horiz-adv-x="609" unicode="A" /><glyph d="M-21 0 269 646H773V514H489V396H747V272H489V132H781L769 0H348V128H180L123 0ZM229 247H348V516Z" glyph-name="AE" horiz-adv-x="824" unicode="&#198;" /><glyph d="M357 691 484 815H633L484 691ZM-21 0 269 646H773V514H489V396H747V272H489V132H781L769 0H348V128H180L123 0ZM229 247H348V516Z" glyph-name="AEacute" horiz-adv-x="824" unicode="&#508;" /><glyph d="M234 691 361 815H510L361 691ZM10 0 230 644 374 651 598 0H454L414 125H187L147 0ZM224 245H376L300 482Z" glyph-name="Aacute" horiz-adv-x="609" unicode="&#193;" /><glyph d="M297 681Q224 681 186 721Q148 761 142 827H243Q246 799 259.5 784Q273 769 297 769Q320 769 334 784Q348 799 352 827H450Q444 761 407 721Q370 681 297 681ZM10 0 230 644 374 651 598 0H454L414 125H187L147 0ZM224 245H376L300 482Z" glyph-name="Abreve" horiz-adv-x="609" unicode="&#258;" /><glyph d="M143 691 234 820 359 821 451 691H341L295 749L249 691ZM10 0 230 644 374 651 598 0H454L414 125H187L147 0ZM224 245H376L300 482Z" glyph-name="Acircumflex" horiz-adv-x="609" unicode="&#194;" /><glyph d="M135 697V810H269V697ZM325 697V810H459V697ZM10 0 230 644 374 651 598 0H454L414 125H187L147 0ZM224 245H376L300 482Z" glyph-name="Adieresis" horiz-adv-x="609" unicode="&#196;" /><glyph d="M237 691 87 815H236L363 691ZM10 0 230 644 374 651 598 0H454L414 125H187L147 0ZM224 245H376L300 482Z" glyph-name="Agrave" horiz-adv-x="609" unicode="&#192;" /><glyph d="M162 708V798H432V708ZM10 0 230 644 374 651 598 0H454L414 125H187L147 0ZM224 245H376L300 482Z" glyph-name="Amacron" horiz-adv-x="609" unicode="&#256;" /><glyph d="M498 -230Q453 -230 426 -204Q399 -178 399 -132Q399 -95 419 -63Q439 -31 478 0H454L414 125H187L147 0H10L230 644L374 651L598 0H577Q546 -23 522.5 -51Q499 -79 499 -105Q499 -124 509.5 -132.5Q520 -141 537 -141Q551 -141 562.5 -137.5Q574 -134 586 -128L579 -215Q561 -223 540.5 -226.5Q520 -230 498 -230ZM224 245H376L300 482Z" glyph-name="Aogonek" horiz-adv-x="609" unicode="&#260;" /><glyph d="M297 678Q244 678 211 706.5Q178 735 178 783Q178 829 213 859Q248 889 297 889Q351 889 382.5 860.5Q414 832 414 783Q414 738 380 708Q346 678 297 678ZM297 742Q315 742 326.5 753Q338 764 338 783Q338 802 326.5 813Q315 824 297 824Q280 824 268 813Q256 802 256 783Q256 765 268 753.5Q280 742 297 742ZM10 0 230 644 374 651 598 0H454L414 125H187L147 0ZM224 245H376L300 482Z" glyph-name="Aring" horiz-adv-x="609" unicode="&#197;" /><glyph d="M132 692Q133 761 157.5 791.5Q182 822 223 822Q242 822 257.5 817Q273 812 285.5 806Q298 800 309.5 795Q321 790 333 790Q346 790 352 803Q358 816 359 832L440 826Q439 765 418 730.5Q397 696 343 696Q326 696 311.5 701.5Q297 707 284.5 713Q272 719 261 724.5Q250 730 240 730Q229 730 222.5 720.5Q216 711 215 692ZM10 0 230 644 374 651 598 0H454L414 125H187L147 0ZM224 245H376L300 482Z" glyph-name="Atilde" horiz-adv-x="609" unicode="&#195;" /><glyph d="M75 0V646H285Q403 646 461 601Q519 556 519 472Q519 423 495.5 390Q472 357 423 342Q480 330 514 289.5Q548 249 548 186Q548 99 488 49.5Q428 0 298 0ZM215 387H290Q330 387 352 403.5Q374 420 374 454Q374 488 352 504.5Q330 521 288 521H215ZM215 125H310Q356 125 379.5 144.5Q403 164 403 201Q403 237 377.5 256Q352 275 305 275H215Z" glyph-name="B" horiz-adv-x="587" unicode="B" /><glyph d="M323 -13Q186 -13 113.5 73.5Q41 160 41 323Q41 479 118 569Q195 659 330 659Q367 659 402.5 652.5Q438 646 469 631L451 495Q425 508 397.5 515Q370 522 337 522Q264 522 226 473Q188 424 188 323Q188 225 228 174.5Q268 124 341 124Q375 124 406.5 134Q438 144 466 162L454 16Q426 2 392.5 -5.5Q359 -13 323 -13Z" glyph-name="C" horiz-adv-x="506" unicode="C" /><glyph glyph-name="CR" horiz-adv-x="201" unicode="" /><glyph d="M235 691 362 815H511L362 691ZM323 -13Q186 -13 113.5 73.5Q41 160 41 323Q41 479 118 569Q195 659 330 659Q367 659 402.5 652.5Q438 646 469 631L451 495Q425 508 397.5 515Q370 522 337 522Q264 522 226 473Q188 424 188 323Q188 225 228 174.5Q268 124 341 124Q375 124 406.5 134Q438 144 466 162L454 16Q426 2 392.5 -5.5Q359 -13 323 -13Z" glyph-name="Cacute" horiz-adv-x="506" unicode="&#262;" /><glyph d="M247 687 148 817H258L304 759L350 817H456L357 687ZM323 -13Q186 -13 113.5 73.5Q41 160 41 323Q41 479 118 569Q195 659 330 659Q367 659 402.5 652.5Q438 646 469 631L451 495Q425 508 397.5 515Q370 522 337 522Q264 522 226 473Q188 424 188 323Q188 225 228 174.5Q268 124 341 124Q375 124 406.5 134Q438 144 466 162L454 16Q426 2 392.5 -5.5Q359 -13 323 -13Z" glyph-name="Ccaron" horiz-adv-x="506" unicode="&#268;" /><glyph d="M292 -230Q267 -230 247 -225.5Q227 -221 209 -214L204 -140Q222 -148 240 -153Q258 -158 277 -158Q296 -158 305 -151Q314 -144 314 -130Q314 -111 294.5 -99Q275 -87 241 -86L263 -8Q156 9 98.5 93.5Q41 178 41 323Q41 479 118 569Q195 659 330 659Q367 659 402.5 652.5Q438 646 469 631L451 495Q425 508 397.5 515Q370 522 337 522Q264 522 226 473Q188 424 188 323Q188 225 228 174.5Q268 124 341 124Q375 124 406.5 134Q438 144 466 162L454 16Q429 3 400 -4Q371 -11 340 -13L329 -45Q367 -54 385 -76.5Q403 -99 403 -133Q403 -178 372 -204Q341 -230 292 -230Z" glyph-name="Ccedilla" horiz-adv-x="506" unicode="&#199;" /><glyph d="M149 691 240 820 365 821 457 691H347L301 749L255 691ZM323 -13Q186 -13 113.5 73.5Q41 160 41 323Q41 479 118 569Q195 659 330 659Q367 659 402.5 652.5Q438 646 469 631L451 495Q425 508 397.5 515Q370 522 337 522Q264 522 226 473Q188 424 188 323Q188 225 228 174.5Q268 124 341 124Q375 124 406.5 134Q438 144 466 162L454 16Q426 2 392.5 -5.5Q359 -13 323 -13Z" glyph-name="Ccircumflex" horiz-adv-x="506" unicode="&#264;" /><glyph d="M233 694V813H373V694ZM323 -13Q186 -13 113.5 73.5Q41 160 41 323Q41 479 118 569Q195 659 330 659Q367 659 402.5 652.5Q438 646 469 631L451 495Q425 508 397.5 515Q370 522 337 522Q264 522 226 473Q188 424 188 323Q188 225 228 174.5Q268 124 341 124Q375 124 406.5 134Q438 144 466 162L454 16Q426 2 392.5 -5.5Q359 -13 323 -13Z" glyph-name="Cdotaccent" horiz-adv-x="506" unicode="&#266;" /><glyph d="M75 0V646H231Q309 646 373 624Q437 602 482 560.5Q527 519 551.5 458.5Q576 398 576 323Q576 168 483.5 84Q391 0 233 0ZM218 134H251Q337 134 382.5 181.5Q428 229 428 323Q428 411 380 461.5Q332 512 251 512H218Z" glyph-name="D" horiz-adv-x="615" unicode="D" /><glyph d="M252 687 153 817H263L309 759L355 817H461L362 687ZM75 0V646H231Q309 646 373 624Q437 602 482 560.5Q527 519 551.5 458.5Q576 398 576 323Q576 168 483.5 84Q391 0 233 0ZM218 134H251Q337 134 382.5 181.5Q428 229 428 323Q428 411 380 461.5Q332 512 251 512H218Z" glyph-name="Dcaron" horiz-adv-x="615" unicode="&#270;" /><glyph d="M75 0V273H26V378H75V646H231Q309 646 373 624Q437 602 482 560.5Q527 519 551.5 458.5Q576 398 576 323Q576 168 483.5 84Q391 0 233 0ZM218 134H251Q337 134 382.5 181.5Q428 229 428 323Q428 411 380 461.5Q332 512 251 512H218V378H317V273H218Z" glyph-name="Dcroat" horiz-adv-x="615" unicode="&#272;" /><glyph d="M47 0 276 651H371L591 0ZM219 131H418L316 427Z" glyph-name="Delta" horiz-adv-x="638" unicode="&#8710;" /><glyph d="M75 0V646H500V514H216V396H474V272H216V132H508L496 0Z" glyph-name="E" horiz-adv-x="551" unicode="E" /><glyph d="M231 691 358 815H507L358 691ZM75 0V646H500V514H216V396H474V272H216V132H508L496 0Z" glyph-name="Eacute" horiz-adv-x="551" unicode="&#201;" /><glyph d="M299 681Q226 681 188 721Q150 761 144 827H245Q248 799 261.5 784Q275 769 299 769Q322 769 336 784Q350 799 354 827H452Q446 761 409 721Q372 681 299 681ZM75 0V646H500V514H216V396H474V272H216V132H508L496 0Z" glyph-name="Ebreve" horiz-adv-x="551" unicode="&#276;" /><glyph d="M243 687 144 817H254L300 759L346 817H452L353 687ZM75 0V646H500V514H216V396H474V272H216V132H508L496 0Z" glyph-name="Ecaron" horiz-adv-x="551" unicode="&#282;" /><glyph d="M145 691 236 820 361 821 453 691H343L297 749L251 691ZM75 0V646H500V514H216V396H474V272H216V132H508L496 0Z" glyph-name="Ecircumflex" horiz-adv-x="551" unicode="&#202;" /><glyph d="M137 697V810H271V697ZM327 697V810H461V697ZM75 0V646H500V514H216V396H474V272H216V132H508L496 0Z" glyph-name="Edieresis" horiz-adv-x="551" unicode="&#203;" /><glyph d="M229 694V813H369V694ZM75 0V646H500V514H216V396H474V272H216V132H508L496 0Z" glyph-name="Edotaccent" horiz-adv-x="551" unicode="&#278;" /><glyph d="M241 691 91 815H240L367 691ZM75 0V646H500V514H216V396H474V272H216V132H508L496 0Z" glyph-name="Egrave" horiz-adv-x="551" unicode="&#200;" /><glyph d="M164 708V798H434V708ZM75 0V646H500V514H216V396H474V272H216V132H508L496 0Z" glyph-name="Emacron" horiz-adv-x="551" unicode="&#274;" /><glyph d="M309 -215 300 -87Q368 -82 397 -52Q426 -22 430 44L201 400V0H75V646H199L447 249V646H573V50Q573 -88 506.5 -149Q440 -210 309 -215Z" glyph-name="Eng" horiz-adv-x="648" unicode="&#330;" /><glyph d="M398 -230Q354 -230 326.5 -204Q299 -178 299 -132Q299 -95 318.5 -63Q338 -31 378 0H75V646H500V514H216V396H474V272H216V132H508L496 0H471Q443 -25 421.5 -52Q400 -79 400 -105Q400 -124 410 -132.5Q420 -141 438 -141Q451 -141 462.5 -137.5Q474 -134 487 -128L479 -215Q460 -223 440 -226.5Q420 -230 398 -230Z" glyph-name="Eogonek" horiz-adv-x="551" unicode="&#280;" /><glyph d="M75 0V273H26V378H75V646H231Q309 646 373 624Q437 602 482 560.5Q527 519 551.5 458.5Q576 398 576 323Q576 168 483.5 84Q391 0 233 0ZM218 134H251Q337 134 382.5 181.5Q428 229 428 323Q428 411 380 461.5Q332 512 251 512H218V378H317V273H218Z" glyph-name="Eth" horiz-adv-x="615" unicode="&#208;" /><glyph d="M24 211 30 297H71Q71 303 71 309.5Q71 316 71 323Q71 330 71 337Q71 344 72 351H34L41 437H83Q108 541 180 600Q252 659 360 659Q397 659 432.5 652.5Q468 646 499 631L481 495Q455 508 427.5 515Q400 522 367 522Q319 522 285.5 501Q252 480 236 437H472L459 351H219Q218 344 218 337Q218 330 218 323Q218 316 218 309.5Q218 303 219 297H451L438 211H237Q255 168 288.5 146Q322 124 371 124Q405 124 436.5 134Q468 144 496 162L484 16Q456 2 422.5 -5.5Q389 -13 353 -13Q242 -13 172.5 44Q103 101 81 211Z" glyph-name="Euro" horiz-adv-x="541" unicode="&#8364;" /><glyph d="M24 159 29 238H68Q68 243 68 248Q68 253 68 258Q68 263 68 269Q68 275 69 280H32L39 360H81Q104 440 166 485Q228 530 321 530Q353 530 383.5 524.5Q414 519 442 508L425 398Q403 408 379 413.5Q355 419 327 419Q287 419 259 404.5Q231 390 215 360H419L407 280H195Q194 275 194 269.5Q194 264 194 258Q194 253 194 247.5Q194 242 195 238H400L388 159H216Q233 129 262 113.5Q291 98 330 98Q360 98 387.5 105.5Q415 113 440 127L430 10Q405 -1 375.5 -7Q346 -13 315 -13Q219 -13 159.5 31Q100 75 79 159Z" glyph-name="Euro.smcp" horiz-adv-x="479" /><glyph d="M75 0V646H495L483 514H218V385H465V260H218V0Z" glyph-name="F" horiz-adv-x="526" unicode="F" /><glyph d="M331 -13Q191 -13 116 76.5Q41 166 41 323Q41 400 61.5 462.5Q82 525 120.5 568.5Q159 612 215 635.5Q271 659 342 659Q388 659 429.5 650.5Q471 642 506 626L490 488Q459 504 425 513Q391 522 354 522Q273 522 231 473Q189 424 189 323Q189 230 227.5 177Q266 124 335 124Q357 124 371 126.5Q385 129 404 134V238H335V352H531V39Q492 14 438.5 0.5Q385 -13 331 -13Z" glyph-name="G" horiz-adv-x="590" unicode="G" /><glyph d="M327 681Q254 681 216 721Q178 761 172 827H273Q276 799 289.5 784Q303 769 327 769Q350 769 364 784Q378 799 382 827H480Q474 761 437 721Q400 681 327 681ZM331 -13Q191 -13 116 76.5Q41 166 41 323Q41 400 61.5 462.5Q82 525 120.5 568.5Q159 612 215 635.5Q271 659 342 659Q388 659 429.5 650.5Q471 642 506 626L490 488Q459 504 425 513Q391 522 354 522Q273 522 231 473Q189 424 189 323Q189 230 227.5 177Q266 124 335 124Q357 124 371 126.5Q385 129 404 134V238H335V352H531V39Q492 14 438.5 0.5Q385 -13 331 -13Z" glyph-name="Gbreve" horiz-adv-x="590" unicode="&#286;" /><glyph d="M173 691 264 820 389 821 481 691H371L325 749L279 691ZM331 -13Q191 -13 116 76.5Q41 166 41 323Q41 400 61.5 462.5Q82 525 120.5 568.5Q159 612 215 635.5Q271 659 342 659Q388 659 429.5 650.5Q471 642 506 626L490 488Q459 504 425 513Q391 522 354 522Q273 522 231 473Q189 424 189 323Q189 230 227.5 177Q266 124 335 124Q357 124 371 126.5Q385 129 404 134V238H335V352H531V39Q492 14 438.5 0.5Q385 -13 331 -13Z" glyph-name="Gcircumflex" horiz-adv-x="590" unicode="&#284;" /><glyph d="M331 -13Q191 -13 116 76.5Q41 166 41 323Q41 400 61.5 462.5Q82 525 120.5 568.5Q159 612 215 635.5Q271 659 342 659Q388 659 429.5 650.5Q471 642 506 626L490 488Q459 504 425 513Q391 522 354 522Q273 522 231 473Q189 424 189 323Q189 230 227.5 177Q266 124 335 124Q357 124 371 126.5Q385 129 404 134V238H335V352H531V39Q492 14 438.5 0.5Q385 -13 331 -13ZM338 -258 236 -248Q255 -203 262 -166.5Q269 -130 269 -71V-56H380V-90Q380 -141 371.5 -179.5Q363 -218 338 -258Z" glyph-name="Gcommaaccent" horiz-adv-x="590" unicode="&#290;" /><glyph d="M254 694V813H394V694ZM331 -13Q191 -13 116 76.5Q41 166 41 323Q41 400 61.5 462.5Q82 525 120.5 568.5Q159 612 215 635.5Q271 659 342 659Q388 659 429.5 650.5Q471 642 506 626L490 488Q459 504 425 513Q391 522 354 522Q273 522 231 473Q189 424 189 323Q189 230 227.5 177Q266 124 335 124Q357 124 371 126.5Q385 129 404 134V238H335V352H531V39Q492 14 438.5 0.5Q385 -13 331 -13Z" glyph-name="Gdotaccent" horiz-adv-x="590" unicode="&#288;" /><glyph d="M375 -13Q351 -13 323 -9.5Q295 -6 273 1L261 129Q284 120 307.5 116Q331 112 355 112Q404 112 430 131.5Q456 151 456 193Q456 238 413 262Q370 286 298 287L290 349L401 515H318Q266 515 241 493Q216 471 216 424V0H73V434Q73 532 136 589Q199 646 304 646H576L582 572L452 376Q517 364 560 316.5Q603 269 603 192Q603 96 544 41.5Q485 -13 375 -13Z" glyph-name="Germandbls" horiz-adv-x="636" unicode="&#7838;" /><glyph d="M75 0V646H218V408H440V646H583V0H440V276H218V0Z" glyph-name="H" horiz-adv-x="658" unicode="H" /><glyph d="M75 0V482H20V583H75V646H218V583H440V646H583V583H638V482H583V0H440V276H218V0ZM218 408H440V482H218Z" glyph-name="Hbar" horiz-adv-x="658" unicode="&#294;" /><glyph d="M177 691 268 820 393 821 485 691H375L329 749L283 691ZM75 0V646H218V408H440V646H583V0H440V276H218V0Z" glyph-name="Hcircumflex" horiz-adv-x="658" unicode="&#292;" /><glyph d="M75 0V646H218V0Z" glyph-name="I" horiz-adv-x="293" unicode="I" /><glyph d="M75 0V646H218V0ZM315 -10 306 120Q380 124 408.5 158.5Q437 193 437 272V646H579V256Q579 118 513 57Q447 -4 315 -10Z" glyph-name="IJ" horiz-adv-x="641" unicode="&#306;" /><glyph d="M82 691 209 815H358L209 691ZM75 0V646H218V0Z" glyph-name="Iacute" horiz-adv-x="293" unicode="&#205;" /><glyph d="M147 681Q74 681 36 721Q-2 761 -8 827H93Q96 799 109.5 784Q123 769 147 769Q170 769 184 784Q198 799 202 827H300Q294 761 257 721Q220 681 147 681ZM75 0V646H218V0Z" glyph-name="Ibreve" horiz-adv-x="293" unicode="&#300;" /><glyph d="M-7 691 84 820 209 821 301 691H191L145 749L99 691ZM75 0V646H218V0Z" glyph-name="Icircumflex" horiz-adv-x="293" unicode="&#206;" /><glyph d="M-15 697V810H119V697ZM175 697V810H309V697ZM75 0V646H218V0Z" glyph-name="Idieresis" horiz-adv-x="293" unicode="&#207;" /><glyph d="M77 694V813H217V694ZM75 0V646H218V0Z" glyph-name="Idotaccent" horiz-adv-x="293" unicode="&#304;" /><glyph d="M85 691 -65 815H84L211 691ZM75 0V646H218V0Z" glyph-name="Igrave" horiz-adv-x="293" unicode="&#204;" /><glyph d="M12 708V798H282V708ZM75 0V646H218V0Z" glyph-name="Imacron" horiz-adv-x="293" unicode="&#298;" /><glyph d="M126 -230Q82 -230 54.5 -204Q27 -178 27 -132Q27 -95 46.5 -63Q66 -31 105 0H75V646H218V0H199Q171 -25 149.5 -52Q128 -79 128 -105Q128 -124 138 -132.5Q148 -141 165 -141Q179 -141 190.5 -137.5Q202 -134 214 -128L207 -215Q188 -223 168 -226.5Q148 -230 126 -230Z" glyph-name="Iogonek" horiz-adv-x="293" unicode="&#302;" /><glyph d="M-18 692Q-17 761 7.5 791.5Q32 822 73 822Q92 822 107.5 817Q123 812 135.5 806Q148 800 159.5 795Q171 790 183 790Q196 790 202 803Q208 816 209 832L290 826Q289 765 268 730.5Q247 696 193 696Q176 696 161.5 701.5Q147 707 134.5 713Q122 719 111 724.5Q100 730 90 730Q79 730 72.5 720.5Q66 711 65 692ZM75 0V646H218V0Z" glyph-name="Itilde" horiz-adv-x="293" unicode="&#296;" /><glyph d="M28 -10 19 120Q93 124 121.5 158.5Q150 193 150 272V646H292V256Q292 118 226 57Q160 -4 28 -10Z" glyph-name="J" horiz-adv-x="354" unicode="J" /><glyph d="M69 691 160 820 285 821 377 691H267L221 749L175 691ZM28 -10 19 120Q93 124 121.5 158.5Q150 193 150 272V646H292V256Q292 118 226 57Q160 -4 28 -10Z" glyph-name="Jcircumflex" horiz-adv-x="354" unicode="&#308;" /><glyph d="M75 0V646H218V354L442 646H598L362 341L596 0H436L218 318V0Z" glyph-name="K" horiz-adv-x="596" unicode="K" /><glyph d="M75 0V646H218V354L442 646H598L362 341L596 0H436L218 318V0ZM329 -258 227 -248Q246 -203 253 -166.5Q260 -130 260 -71V-56H371V-90Q371 -141 362.5 -179.5Q354 -218 329 -258Z" glyph-name="Kcommaaccent" horiz-adv-x="596" unicode="&#310;" /><glyph d="M75 0V646H218V132H472L460 0Z" glyph-name="L" horiz-adv-x="493" unicode="L" /><glyph d="M83 691 210 815H359L210 691ZM75 0V646H218V132H472L460 0Z" glyph-name="Lacute" horiz-adv-x="493" unicode="&#313;" /><glyph d="M279 448Q284 466 290 493Q296 520 301 548.5Q306 577 310.5 603Q315 629 317 646H437Q431 625 423 598.5Q415 572 406 545.5Q397 519 387.5 493.5Q378 468 369 448ZM75 0V646H218V132H472L460 0Z" glyph-name="Lcaron" horiz-adv-x="493" unicode="&#317;" /><glyph d="M75 0V646H218V132H472L460 0ZM297 -258 195 -248Q214 -203 221 -166.5Q228 -130 228 -71V-56H339V-90Q339 -141 330.5 -179.5Q322 -218 297 -258Z" glyph-name="Lcommaaccent" horiz-adv-x="493" unicode="&#315;" /><glyph d="M554 0V646H697V132H951L939 0ZM75 0V646H218V132H472L460 0ZM320 320V452H453V320Z" glyph-name="Ldot" horiz-adv-x="972" unicode="&#319;" /><glyph d="M75 0V233L20 201V330L75 362V646H218V444L317 502V372L218 315V132H472L460 0Z" glyph-name="Lslash" horiz-adv-x="493" unicode="&#321;" /><glyph d="M53 0 96 646H269L402 292L538 646H705L748 0H605L583 435L452 92L341 97L213 436L190 0Z" glyph-name="M" horiz-adv-x="804" unicode="M" /><glyph d="M75 0V646H204L446 260V646H574V3L456 -4L203 398V0Z" glyph-name="N" horiz-adv-x="649" unicode="N" /><glyph d="M258 691 385 815H534L385 691ZM75 0V646H204L446 260V646H574V3L456 -4L203 398V0Z" glyph-name="Nacute" horiz-adv-x="649" unicode="&#323;" /><glyph d="M270 687 171 817H281L327 759L373 817H479L380 687ZM75 0V646H204L446 260V646H574V3L456 -4L203 398V0Z" glyph-name="Ncaron" horiz-adv-x="649" unicode="&#327;" /><glyph d="M75 0V646H204L446 260V646H574V3L456 -4L203 398V0ZM344 -258 242 -248Q261 -203 268 -166.5Q275 -130 275 -71V-56H386V-90Q386 -141 377.5 -179.5Q369 -218 344 -258Z" glyph-name="Ncommaaccent" horiz-adv-x="649" unicode="&#325;" /><glyph d="M188 692Q189 761 213.5 791.5Q238 822 279 822Q298 822 313.5 817Q329 812 341.5 806Q354 800 365.5 795Q377 790 389 790Q402 790 408 803Q414 816 415 832L496 826Q495 765 474 730.5Q453 696 399 696Q382 696 367.5 701.5Q353 707 340.5 713Q328 719 317 724.5Q306 730 296 730Q285 730 278.5 720.5Q272 711 271 692ZM75 0V646H204L446 260V646H574V3L456 -4L203 398V0Z" glyph-name="Ntilde" horiz-adv-x="649" unicode="&#209;" /><glyph d="M317 -13Q192 -13 116.5 74.5Q41 162 41 323Q41 478 117 568.5Q193 659 317 659Q442 659 517 571.5Q592 484 592 323Q592 245 572 182.5Q552 120 516 77Q480 34 429.5 10.5Q379 -13 317 -13ZM317 124Q377 124 411 173Q445 222 445 323Q445 424 411 473Q377 522 317 522Q256 522 222.5 473Q189 424 189 323Q189 222 223 173Q257 124 317 124Z" glyph-name="O" horiz-adv-x="633" unicode="O" /><glyph d="M341 0Q201 0 121 78.5Q41 157 41 323Q41 483 122.5 564.5Q204 646 341 646H830V514H546V396H804V272H546V132H838L826 0ZM341 133H405V513H341Q271 513 230 468.5Q189 424 189 323Q189 223 230 178Q271 133 341 133Z" glyph-name="OE" horiz-adv-x="881" unicode="&#338;" /><glyph d="M247 691 374 815H523L374 691ZM317 -13Q192 -13 116.5 74.5Q41 162 41 323Q41 478 117 568.5Q193 659 317 659Q442 659 517 571.5Q592 484 592 323Q592 245 572 182.5Q552 120 516 77Q480 34 429.5 10.5Q379 -13 317 -13ZM317 124Q377 124 411 173Q445 222 445 323Q445 424 411 473Q377 522 317 522Q256 522 222.5 473Q189 424 189 323Q189 222 223 173Q257 124 317 124Z" glyph-name="Oacute" horiz-adv-x="633" unicode="&#211;" /><glyph d="M315 681Q242 681 204 721Q166 761 160 827H261Q264 799 277.5 784Q291 769 315 769Q338 769 352 784Q366 799 370 827H468Q462 761 425 721Q388 681 315 681ZM317 -13Q192 -13 116.5 74.5Q41 162 41 323Q41 478 117 568.5Q193 659 317 659Q442 659 517 571.5Q592 484 592 323Q592 245 572 182.5Q552 120 516 77Q480 34 429.5 10.5Q379 -13 317 -13ZM317 124Q377 124 411 173Q445 222 445 323Q445 424 411 473Q377 522 317 522Q256 522 222.5 473Q189 424 189 323Q189 222 223 173Q257 124 317 124Z" glyph-name="Obreve" horiz-adv-x="633" unicode="&#334;" /><glyph d="M161 691 252 820 377 821 469 691H359L313 749L267 691ZM317 -13Q192 -13 116.5 74.5Q41 162 41 323Q41 478 117 568.5Q193 659 317 659Q442 659 517 571.5Q592 484 592 323Q592 245 572 182.5Q552 120 516 77Q480 34 429.5 10.5Q379 -13 317 -13ZM317 124Q377 124 411 173Q445 222 445 323Q445 424 411 473Q377 522 317 522Q256 522 222.5 473Q189 424 189 323Q189 222 223 173Q257 124 317 124Z" glyph-name="Ocircumflex" horiz-adv-x="633" unicode="&#212;" /><glyph d="M153 697V810H287V697ZM343 697V810H477V697ZM317 -13Q192 -13 116.5 74.5Q41 162 41 323Q41 478 117 568.5Q193 659 317 659Q442 659 517 571.5Q592 484 592 323Q592 245 572 182.5Q552 120 516 77Q480 34 429.5 10.5Q379 -13 317 -13ZM317 124Q377 124 411 173Q445 222 445 323Q445 424 411 473Q377 522 317 522Q256 522 222.5 473Q189 424 189 323Q189 222 223 173Q257 124 317 124Z" glyph-name="Odieresis" horiz-adv-x="633" unicode="&#214;" /><glyph d="M257 691 107 815H256L383 691ZM317 -13Q192 -13 116.5 74.5Q41 162 41 323Q41 478 117 568.5Q193 659 317 659Q442 659 517 571.5Q592 484 592 323Q592 245 572 182.5Q552 120 516 77Q480 34 429.5 10.5Q379 -13 317 -13ZM317 124Q377 124 411 173Q445 222 445 323Q445 424 411 473Q377 522 317 522Q256 522 222.5 473Q189 424 189 323Q189 222 223 173Q257 124 317 124Z" glyph-name="Ograve" horiz-adv-x="633" unicode="&#210;" /><glyph d="M328 691 443 808H555L424 691ZM188 691 270 808H388L277 691ZM317 -13Q192 -13 116.5 74.5Q41 162 41 323Q41 478 117 568.5Q193 659 317 659Q442 659 517 571.5Q592 484 592 323Q592 245 572 182.5Q552 120 516 77Q480 34 429.5 10.5Q379 -13 317 -13ZM317 124Q377 124 411 173Q445 222 445 323Q445 424 411 473Q377 522 317 522Q256 522 222.5 473Q189 424 189 323Q189 222 223 173Q257 124 317 124Z" glyph-name="Ohungarumlaut" horiz-adv-x="633" unicode="&#336;" /><glyph d="M180 708V798H450V708ZM317 -13Q192 -13 116.5 74.5Q41 162 41 323Q41 478 117 568.5Q193 659 317 659Q442 659 517 571.5Q592 484 592 323Q592 245 572 182.5Q552 120 516 77Q480 34 429.5 10.5Q379 -13 317 -13ZM317 124Q377 124 411 173Q445 222 445 323Q445 424 411 473Q377 522 317 522Q256 522 222.5 473Q189 424 189 323Q189 222 223 173Q257 124 317 124Z" glyph-name="Omacron" horiz-adv-x="633" unicode="&#332;" /><glyph d="M49 0 40 113H203Q146 153 117.5 212.5Q89 272 89 361Q89 427 109 482.5Q129 538 165.5 577Q202 616 253.5 637.5Q305 659 367 659Q429 659 480.5 637.5Q532 616 568 577Q604 538 624 483Q644 428 644 361Q644 272 615.5 212.5Q587 153 530 113H694L684 0H401L393 99Q448 138 473 195.5Q498 253 498 339Q498 429 464.5 477.5Q431 526 367 526Q303 526 269.5 479Q236 432 236 339Q236 253 261 195.5Q286 138 340 99L333 0Z" glyph-name="Omega" horiz-adv-x="734" unicode="&#8486;" /><glyph d="M13 -50 102 92Q73 134 57 192.5Q41 251 41 323Q41 478 117 568.5Q193 659 317 659Q351 659 382.5 652Q414 645 441 632L481 697H609L525 562Q557 520 574.5 459.5Q592 399 592 323Q592 245 572 182.5Q552 120 516 77Q480 34 429.5 10.5Q379 -13 317 -13Q280 -13 246 -5Q212 3 183 19L140 -50ZM197 243 365 511Q355 516 342.5 519Q330 522 317 522Q256 522 222.5 473Q189 424 189 323Q189 301 191 280.5Q193 260 197 243ZM317 124Q377 124 411 173Q445 222 445 323Q445 351 442 374Q439 397 433 416L259 140Q271 132 286 128Q301 124 317 124Z" glyph-name="Oslash" horiz-adv-x="633" unicode="&#216;" /><glyph d="M247 691 374 815H523L374 691ZM13 -50 102 92Q73 134 57 192.5Q41 251 41 323Q41 478 117 568.5Q193 659 317 659Q351 659 382.5 652Q414 645 441 632L481 697H609L525 562Q557 520 574.5 459.5Q592 399 592 323Q592 245 572 182.5Q552 120 516 77Q480 34 429.5 10.5Q379 -13 317 -13Q280 -13 246 -5Q212 3 183 19L140 -50ZM197 243 365 511Q355 516 342.5 519Q330 522 317 522Q256 522 222.5 473Q189 424 189 323Q189 301 191 280.5Q193 260 197 243ZM317 124Q377 124 411 173Q445 222 445 323Q445 351 442 374Q439 397 433 416L259 140Q271 132 286 128Q301 124 317 124Z" glyph-name="Oslashacute" horiz-adv-x="633" unicode="&#510;" /><glyph d="M154 692Q155 761 179.5 791.5Q204 822 245 822Q264 822 279.5 817Q295 812 307.5 806Q320 800 331.5 795Q343 790 355 790Q368 790 374 803Q380 816 381 832L462 826Q461 765 440 730.5Q419 696 365 696Q348 696 333.5 701.5Q319 707 306.5 713Q294 719 283 724.5Q272 730 262 730Q251 730 244.5 720.5Q238 711 237 692ZM317 -13Q192 -13 116.5 74.5Q41 162 41 323Q41 478 117 568.5Q193 659 317 659Q442 659 517 571.5Q592 484 592 323Q592 245 572 182.5Q552 120 516 77Q480 34 429.5 10.5Q379 -13 317 -13ZM317 124Q377 124 411 173Q445 222 445 323Q445 424 411 473Q377 522 317 522Q256 522 222.5 473Q189 424 189 323Q189 222 223 173Q257 124 317 124Z" glyph-name="Otilde" horiz-adv-x="633" unicode="&#213;" /><glyph d="M75 0V646H279Q402 646 470 589Q538 532 538 429Q538 327 470 269.5Q402 212 286 212H217V0ZM217 343H278Q329 343 359.5 361.5Q390 380 390 429Q390 475 359.5 495Q329 515 278 515H217Z" glyph-name="P" horiz-adv-x="568" unicode="P" /><glyph d="M418 -141 353 -62Q331 -34 315 -23.5Q299 -13 263 -7Q159 10 100 95.5Q41 181 41 323Q41 401 61 463.5Q81 526 117 569Q153 612 203.5 635.5Q254 659 316 659Q441 659 516.5 571.5Q592 484 592 323Q592 207 548.5 126.5Q505 46 430 12Q445 5 460.5 -11.5Q476 -28 486 -41L555 -131ZM316 124Q376 124 410 173Q444 222 444 323Q444 424 410 473Q376 522 316 522Q256 522 222 473Q188 424 188 323Q188 222 222 173Q256 124 316 124Z" glyph-name="Q" horiz-adv-x="633" unicode="Q" /><glyph d="M75 0V646H292Q408 646 471 590.5Q534 535 534 438Q534 376 504 332.5Q474 289 425 273Q444 257 455.5 235Q467 213 480 182L552 0H404L343 158Q328 195 311.5 213.5Q295 232 266 232H215V0ZM215 355H280Q334 355 361 374Q388 393 388 436Q388 479 359.5 499Q331 519 278 519H215Z" glyph-name="R" horiz-adv-x="586" unicode="R" /><glyph d="M220 691 347 815H496L347 691ZM75 0V646H292Q408 646 471 590.5Q534 535 534 438Q534 376 504 332.5Q474 289 425 273Q444 257 455.5 235Q467 213 480 182L552 0H404L343 158Q328 195 311.5 213.5Q295 232 266 232H215V0ZM215 355H280Q334 355 361 374Q388 393 388 436Q388 479 359.5 499Q331 519 278 519H215Z" glyph-name="Racute" horiz-adv-x="586" unicode="&#340;" /><glyph d="M232 687 133 817H243L289 759L335 817H441L342 687ZM75 0V646H292Q408 646 471 590.5Q534 535 534 438Q534 376 504 332.5Q474 289 425 273Q444 257 455.5 235Q467 213 480 182L552 0H404L343 158Q328 195 311.5 213.5Q295 232 266 232H215V0ZM215 355H280Q334 355 361 374Q388 393 388 436Q388 479 359.5 499Q331 519 278 519H215Z" glyph-name="Rcaron" horiz-adv-x="586" unicode="&#344;" /><glyph d="M75 0V646H292Q408 646 471 590.5Q534 535 534 438Q534 376 504 332.5Q474 289 425 273Q444 257 455.5 235Q467 213 480 182L552 0H404L343 158Q328 195 311.5 213.5Q295 232 266 232H215V0ZM215 355H280Q334 355 361 374Q388 393 388 436Q388 479 359.5 499Q331 519 278 519H215ZM321 -258 219 -248Q238 -203 245 -166.5Q252 -130 252 -71V-56H363V-90Q363 -141 354.5 -179.5Q346 -218 321 -258Z" glyph-name="Rcommaaccent" horiz-adv-x="586" unicode="&#342;" /><glyph d="M239 -13Q184 -13 137.5 -3Q91 7 50 28L39 171Q96 142 143 129.5Q190 117 239 117Q284 117 308 132Q332 147 332 179Q332 204 316 219.5Q300 235 262 248L191 273Q116 298 77.5 345Q39 392 39 464Q39 554 101.5 606.5Q164 659 271 659Q322 659 372.5 648Q423 637 461 618L448 485Q408 506 360.5 517.5Q313 529 270 529Q230 529 208.5 515.5Q187 502 187 474Q187 449 204 433Q221 417 262 402L329 377Q402 350 441 307Q480 264 480 193Q480 97 416 42Q352 -13 239 -13Z" glyph-name="S" horiz-adv-x="520" unicode="S" /><glyph d="M183 691 310 815H459L310 691ZM239 -13Q184 -13 137.5 -3Q91 7 50 28L39 171Q96 142 143 129.5Q190 117 239 117Q284 117 308 132Q332 147 332 179Q332 204 316 219.5Q300 235 262 248L191 273Q116 298 77.5 345Q39 392 39 464Q39 554 101.5 606.5Q164 659 271 659Q322 659 372.5 648Q423 637 461 618L448 485Q408 506 360.5 517.5Q313 529 270 529Q230 529 208.5 515.5Q187 502 187 474Q187 449 204 433Q221 417 262 402L329 377Q402 350 441 307Q480 264 480 193Q480 97 416 42Q352 -13 239 -13Z" glyph-name="Sacute" horiz-adv-x="520" unicode="&#346;" /><glyph d="M195 687 96 817H206L252 759L298 817H404L305 687ZM239 -13Q184 -13 137.5 -3Q91 7 50 28L39 171Q96 142 143 129.5Q190 117 239 117Q284 117 308 132Q332 147 332 179Q332 204 316 219.5Q300 235 262 248L191 273Q116 298 77.5 345Q39 392 39 464Q39 554 101.5 606.5Q164 659 271 659Q322 659 372.5 648Q423 637 461 618L448 485Q408 506 360.5 517.5Q313 529 270 529Q230 529 208.5 515.5Q187 502 187 474Q187 449 204 433Q221 417 262 402L329 377Q402 350 441 307Q480 264 480 193Q480 97 416 42Q352 -13 239 -13Z" glyph-name="Scaron" horiz-adv-x="520" unicode="&#352;" /><glyph d="M243 -230Q218 -230 198 -225.5Q178 -221 160 -214L154 -140Q172 -148 190 -153Q208 -158 228 -158Q246 -158 255.5 -151Q265 -144 265 -130Q265 -111 245 -99Q225 -87 191 -86L212 -12Q166 -11 126 -0.5Q86 10 50 28L39 171Q96 142 143 129.5Q190 117 239 117Q284 117 308 132Q332 147 332 179Q332 204 316 219.5Q300 235 262 248L191 273Q116 298 77.5 345Q39 392 39 464Q39 554 101.5 606.5Q164 659 271 659Q322 659 372.5 648Q423 637 461 618L448 485Q408 506 360.5 517.5Q313 529 270 529Q230 529 208.5 515.5Q187 502 187 474Q187 449 204 433Q221 417 262 402L329 377Q402 350 441 307Q480 264 480 193Q480 109 431 56Q382 3 292 -9L279 -45Q317 -54 335 -76.5Q353 -99 353 -133Q353 -178 322.5 -204Q292 -230 243 -230Z" glyph-name="Scedilla" horiz-adv-x="520" unicode="&#350;" /><glyph d="M97 691 188 820 313 821 405 691H295L249 749L203 691ZM239 -13Q184 -13 137.5 -3Q91 7 50 28L39 171Q96 142 143 129.5Q190 117 239 117Q284 117 308 132Q332 147 332 179Q332 204 316 219.5Q300 235 262 248L191 273Q116 298 77.5 345Q39 392 39 464Q39 554 101.5 606.5Q164 659 271 659Q322 659 372.5 648Q423 637 461 618L448 485Q408 506 360.5 517.5Q313 529 270 529Q230 529 208.5 515.5Q187 502 187 474Q187 449 204 433Q221 417 262 402L329 377Q402 350 441 307Q480 264 480 193Q480 97 416 42Q352 -13 239 -13Z" glyph-name="Scircumflex" horiz-adv-x="520" unicode="&#348;" /><glyph d="M239 -13Q184 -13 137.5 -3Q91 7 50 28L39 171Q96 142 143 129.5Q190 117 239 117Q284 117 308 132Q332 147 332 179Q332 204 316 219.5Q300 235 262 248L191 273Q116 298 77.5 345Q39 392 39 464Q39 554 101.5 606.5Q164 659 271 659Q322 659 372.5 648Q423 637 461 618L448 485Q408 506 360.5 517.5Q313 529 270 529Q230 529 208.5 515.5Q187 502 187 474Q187 449 204 433Q221 417 262 402L329 377Q402 350 441 307Q480 264 480 193Q480 97 416 42Q352 -13 239 -13ZM267 -258 165 -248Q184 -203 191 -166.5Q198 -130 198 -71V-56H309V-90Q309 -141 300.5 -179.5Q292 -218 267 -258Z" glyph-name="Scommaaccent" horiz-adv-x="520" unicode="&#536;" /><glyph d="M194 0V514H19V646H522L511 514H337V0Z" glyph-name="T" horiz-adv-x="537" unicode="T" /><glyph d="M194 0V242H86V343H194V514H19V646H522L511 514H337V343H450V242H337V0Z" glyph-name="Tbar" horiz-adv-x="537" unicode="&#358;" /><glyph d="M204 687 105 817H215L261 759L307 817H413L314 687ZM194 0V514H19V646H522L511 514H337V0Z" glyph-name="Tcaron" horiz-adv-x="537" unicode="&#356;" /><glyph d="M253 -230Q228 -230 208 -225.5Q188 -221 170 -214L165 -140Q183 -148 201 -153Q219 -158 238 -158Q257 -158 266 -151Q275 -144 275 -130Q275 -111 255.5 -99Q236 -87 202 -86L226 0H194V514H19V646H522L511 514H337V0H305L290 -45Q328 -54 346 -76.5Q364 -99 364 -133Q364 -178 333 -204Q302 -230 253 -230Z" glyph-name="Tcedilla" horiz-adv-x="537" unicode="&#354;" /><glyph d="M194 0V514H19V646H522L511 514H337V0ZM279 -258 177 -248Q196 -203 203 -166.5Q210 -130 210 -71V-56H321V-90Q321 -141 312.5 -179.5Q304 -218 279 -258Z" glyph-name="Tcommaaccent" horiz-adv-x="537" unicode="&#538;" /><glyph d="M75 0V646H218V548H279Q398 548 468 490.5Q538 433 538 326Q538 219 469 161.5Q400 104 286 104H218V0ZM218 233H278Q327 233 358.5 253.5Q390 274 390 325Q390 375 358.5 396.5Q327 418 278 418H218Z" glyph-name="Thorn" horiz-adv-x="560" unicode="&#222;" /><glyph d="M312 -13Q188 -13 124.5 59.5Q61 132 61 258V646H205V279Q205 198 234 161.5Q263 125 314 125Q368 125 395 162.5Q422 200 422 280V646H565V260Q565 128 496.5 57.5Q428 -13 312 -13Z" glyph-name="U" horiz-adv-x="625" unicode="U" /><glyph d="M248 691 375 815H524L375 691ZM312 -13Q188 -13 124.5 59.5Q61 132 61 258V646H205V279Q205 198 234 161.5Q263 125 314 125Q368 125 395 162.5Q422 200 422 280V646H565V260Q565 128 496.5 57.5Q428 -13 312 -13Z" glyph-name="Uacute" horiz-adv-x="625" unicode="&#218;" /><glyph d="M316 681Q243 681 205 721Q167 761 161 827H262Q265 799 278.5 784Q292 769 316 769Q339 769 353 784Q367 799 371 827H469Q463 761 426 721Q389 681 316 681ZM312 -13Q188 -13 124.5 59.5Q61 132 61 258V646H205V279Q205 198 234 161.5Q263 125 314 125Q368 125 395 162.5Q422 200 422 280V646H565V260Q565 128 496.5 57.5Q428 -13 312 -13Z" glyph-name="Ubreve" horiz-adv-x="625" unicode="&#364;" /><glyph d="M162 691 253 820 378 821 470 691H360L314 749L268 691ZM312 -13Q188 -13 124.5 59.5Q61 132 61 258V646H205V279Q205 198 234 161.5Q263 125 314 125Q368 125 395 162.5Q422 200 422 280V646H565V260Q565 128 496.5 57.5Q428 -13 312 -13Z" glyph-name="Ucircumflex" horiz-adv-x="625" unicode="&#219;" /><glyph d="M154 697V810H288V697ZM344 697V810H478V697ZM312 -13Q188 -13 124.5 59.5Q61 132 61 258V646H205V279Q205 198 234 161.5Q263 125 314 125Q368 125 395 162.5Q422 200 422 280V646H565V260Q565 128 496.5 57.5Q428 -13 312 -13Z" glyph-name="Udieresis" horiz-adv-x="625" unicode="&#220;" /><glyph d="M258 691 108 815H257L384 691ZM312 -13Q188 -13 124.5 59.5Q61 132 61 258V646H205V279Q205 198 234 161.5Q263 125 314 125Q368 125 395 162.5Q422 200 422 280V646H565V260Q565 128 496.5 57.5Q428 -13 312 -13Z" glyph-name="Ugrave" horiz-adv-x="625" unicode="&#217;" /><glyph d="M329 691 444 808H556L425 691ZM189 691 271 808H389L278 691ZM312 -13Q188 -13 124.5 59.5Q61 132 61 258V646H205V279Q205 198 234 161.5Q263 125 314 125Q368 125 395 162.5Q422 200 422 280V646H565V260Q565 128 496.5 57.5Q428 -13 312 -13Z" glyph-name="Uhungarumlaut" horiz-adv-x="625" unicode="&#368;" /><glyph d="M181 708V798H451V708ZM312 -13Q188 -13 124.5 59.5Q61 132 61 258V646H205V279Q205 198 234 161.5Q263 125 314 125Q368 125 395 162.5Q422 200 422 280V646H565V260Q565 128 496.5 57.5Q428 -13 312 -13Z" glyph-name="Umacron" horiz-adv-x="625" unicode="&#362;" /><glyph d="M354 -227Q309 -227 281.5 -200.5Q254 -174 254 -129Q254 -97 269 -68.5Q284 -40 314 -13Q307 -13 299.5 -12.5Q292 -12 285 -12Q175 -4 118 67.5Q61 139 61 258V646H205V279Q205 198 234 161.5Q263 125 314 125Q368 125 395 162.5Q422 200 422 280V646H565V260Q565 170 533 110Q501 50 446 15Q412 -7 384.5 -38.5Q357 -70 357 -100Q357 -119 366 -128Q375 -137 393 -137Q406 -137 417.5 -134Q429 -131 442 -125L434 -212Q415 -219 395 -223Q375 -227 354 -227Z" glyph-name="Uogonek" horiz-adv-x="625" unicode="&#370;" /><glyph d="M316 678Q263 678 230 706.5Q197 735 197 783Q197 829 232 859Q267 889 316 889Q370 889 401.5 860.5Q433 832 433 783Q433 738 399 708Q365 678 316 678ZM316 742Q334 742 345.5 753Q357 764 357 783Q357 802 345.5 813Q334 824 316 824Q299 824 287 813Q275 802 275 783Q275 765 287 753.5Q299 742 316 742ZM312 -13Q188 -13 124.5 59.5Q61 132 61 258V646H205V279Q205 198 234 161.5Q263 125 314 125Q368 125 395 162.5Q422 200 422 280V646H565V260Q565 128 496.5 57.5Q428 -13 312 -13Z" glyph-name="Uring" horiz-adv-x="625" unicode="&#366;" /><glyph d="M151 692Q152 761 176.5 791.5Q201 822 242 822Q261 822 276.5 817Q292 812 304.5 806Q317 800 328.5 795Q340 790 352 790Q365 790 371 803Q377 816 378 832L459 826Q458 765 437 730.5Q416 696 362 696Q345 696 330.5 701.5Q316 707 303.5 713Q291 719 280 724.5Q269 730 259 730Q248 730 241.5 720.5Q235 711 234 692ZM312 -13Q188 -13 124.5 59.5Q61 132 61 258V646H205V279Q205 198 234 161.5Q263 125 314 125Q368 125 395 162.5Q422 200 422 280V646H565V260Q565 128 496.5 57.5Q428 -13 312 -13Z" glyph-name="Utilde" horiz-adv-x="625" unicode="&#360;" /><glyph d="M231 -4 12 646H158L298 207L440 646H580L361 3Z" glyph-name="V" horiz-adv-x="592" unicode="V" /><glyph d="M193 -3 31 646H182L277 210L396 643L546 649L643 221L758 646H901L716 2L563 -3L458 437L346 2Z" glyph-name="W" horiz-adv-x="925" unicode="W" /><glyph d="M403 691 530 815H679L530 691ZM193 -3 31 646H182L277 210L396 643L546 649L643 221L758 646H901L716 2L563 -3L458 437L346 2Z" glyph-name="Wacute" horiz-adv-x="925" unicode="&#7810;" /><glyph d="M317 691 408 820 533 821 625 691H515L469 749L423 691ZM193 -3 31 646H182L277 210L396 643L546 649L643 221L758 646H901L716 2L563 -3L458 437L346 2Z" glyph-name="Wcircumflex" horiz-adv-x="925" unicode="&#372;" /><glyph d="M309 697V810H443V697ZM499 697V810H633V697ZM193 -3 31 646H182L277 210L396 643L546 649L643 221L758 646H901L716 2L563 -3L458 437L346 2Z" glyph-name="Wdieresis" horiz-adv-x="925" unicode="&#7812;" /><glyph d="M413 691 263 815H412L539 691ZM193 -3 31 646H182L277 210L396 643L546 649L643 221L758 646H901L716 2L563 -3L458 437L346 2Z" glyph-name="Wgrave" horiz-adv-x="925" unicode="&#7808;" /><glyph d="M0 0 203 333 19 646H182L294 448L415 646H575L371 339L573 0H406L283 216L162 0Z" glyph-name="X" horiz-adv-x="579" unicode="X" /><glyph d="M227 694V813H367V694ZM0 0 203 333 19 646H182L294 448L415 646H575L371 339L573 0H406L283 216L162 0Z" glyph-name="Xdot" horiz-adv-x="578" unicode="&#7818;" /><glyph d="M198 0V271L-7 646H144L273 405L401 646H545L341 270V0Z" glyph-name="Y" horiz-adv-x="542" unicode="Y" /><glyph d="M207 691 334 815H483L334 691ZM198 0V271L-7 646H144L273 405L401 646H545L341 270V0Z" glyph-name="Yacute" horiz-adv-x="542" unicode="&#221;" /><glyph d="M121 691 212 820 337 821 429 691H319L273 749L227 691ZM198 0V271L-7 646H144L273 405L401 646H545L341 270V0Z" glyph-name="Ycircumflex" horiz-adv-x="542" unicode="&#374;" /><glyph d="M113 697V810H247V697ZM303 697V810H437V697ZM198 0V271L-7 646H144L273 405L401 646H545L341 270V0Z" glyph-name="Ydieresis" horiz-adv-x="542" unicode="&#376;" /><glyph d="M217 691 67 815H216L343 691ZM198 0V271L-7 646H144L273 405L401 646H545L341 270V0Z" glyph-name="Ygrave" horiz-adv-x="542" unicode="&#7922;" /><glyph d="M28 0 22 59 304 514H42V646H508L515 587L232 132H519L507 0Z" glyph-name="Z" horiz-adv-x="549" unicode="Z" /><glyph d="M205 691 332 815H481L332 691ZM28 0 22 59 304 514H42V646H508L515 587L232 132H519L507 0Z" glyph-name="Zacute" horiz-adv-x="549" unicode="&#377;" /><glyph d="M217 687 118 817H228L274 759L320 817H426L327 687ZM28 0 22 59 304 514H42V646H508L515 587L232 132H519L507 0Z" glyph-name="Zcaron" horiz-adv-x="549" unicode="&#381;" /><glyph d="M203 694V813H343V694ZM28 0 22 59 304 514H42V646H508L515 587L232 132H519L507 0Z" glyph-name="Zdotaccent" horiz-adv-x="549" unicode="&#379;" /><glyph d="M28 0 22 59 159 279H82V380H221L304 514H42V646H508L515 587L386 380H475V279H323L231 132H519L507 0Z" glyph-name="Zstroke" horiz-adv-x="549" unicode="&#437;" /><glyph d="M180 -13Q111 -13 72 26Q33 65 33 132Q33 192 74 233Q115 274 206 295L297 315V324Q297 353 279 370.5Q261 388 222 388Q179 388 136 376Q93 364 61 345L48 462Q84 483 131 495Q178 507 227 507Q325 507 379 459.5Q433 412 433 320Q433 308 432 280.5Q431 253 431 225V116Q431 88 436 60Q441 32 454 3L328 -10Q323 0 317.5 19.5Q312 39 310 53Q289 20 254.5 3.5Q220 -13 180 -13ZM217 89Q251 89 273 115Q295 141 295 182V218L237 208Q196 201 178 186.5Q160 172 160 144Q160 119 175 104Q190 89 217 89Z" glyph-name="a" horiz-adv-x="490" unicode="a" /><glyph d="M229 -13Q139 -13 87.5 56Q36 125 36 243Q36 306 54 355.5Q72 405 103 438Q134 471 176.5 488.5Q219 506 268 506Q329 506 379 491.5Q429 477 475 445V127Q475 96 479.5 66.5Q484 37 497 7L368 -6Q363 4 358 21.5Q353 39 352 55Q335 23 303.5 5Q272 -13 229 -13ZM257 106Q297 106 318 140.5Q339 175 339 232V364Q325 376 308 382.5Q291 389 270 389Q221 389 197.5 354.5Q174 320 174 251Q174 185 194.5 145.5Q215 106 257 106Z" glyph-name="a.alt" horiz-adv-x="540" /><glyph d="M6 0 193 516 344 521 533 0H393L361 94H172L140 0ZM205 202H326L265 378Z" glyph-name="a.smcp" horiz-adv-x="540" /><glyph d="M164 567 211 648Q220 662 231 685Q242 708 247 725L372 721Q366 702 350.5 674.5Q335 647 316 622L276 567ZM180 -13Q111 -13 72 26Q33 65 33 132Q33 192 74 233Q115 274 206 295L297 315V324Q297 353 279 370.5Q261 388 222 388Q179 388 136 376Q93 364 61 345L48 462Q84 483 131 495Q178 507 227 507Q325 507 379 459.5Q433 412 433 320Q433 308 432 280.5Q431 253 431 225V116Q431 88 436 60Q441 32 454 3L328 -10Q323 0 317.5 19.5Q312 39 310 53Q289 20 254.5 3.5Q220 -13 180 -13ZM217 89Q251 89 273 115Q295 141 295 182V218L237 208Q196 201 178 186.5Q160 172 160 144Q160 119 175 104Q190 89 217 89Z" glyph-name="aacute" horiz-adv-x="490" unicode="&#225;" /><glyph d="M204 567 251 648Q260 662 271 685Q282 708 287 725L412 721Q406 702 390.5 674.5Q375 647 356 622L316 567ZM229 -13Q139 -13 87.5 56Q36 125 36 243Q36 306 54 355.5Q72 405 103 438Q134 471 176.5 488.5Q219 506 268 506Q329 506 379 491.5Q429 477 475 445V127Q475 96 479.5 66.5Q484 37 497 7L368 -6Q363 4 358 21.5Q353 39 352 55Q335 23 303.5 5Q272 -13 229 -13ZM257 106Q297 106 318 140.5Q339 175 339 232V364Q325 376 308 382.5Q291 389 270 389Q221 389 197.5 354.5Q174 320 174 251Q174 185 194.5 145.5Q215 106 257 106Z" glyph-name="aacute.alt" horiz-adv-x="540" /><glyph d="M202 563 329 687H478L329 563ZM6 0 193 516 344 521 533 0H393L361 94H172L140 0ZM205 202H326L265 378Z" glyph-name="aacute.smcp" horiz-adv-x="540" /><glyph d="M226 561Q161 561 124 601Q87 641 87 715H178Q180 683 192 666Q204 649 226 649Q248 649 260 666Q272 683 274 715H365Q365 641 328 601Q291 561 226 561ZM180 -13Q111 -13 72 26Q33 65 33 132Q33 192 74 233Q115 274 206 295L297 315V324Q297 353 279 370.5Q261 388 222 388Q179 388 136 376Q93 364 61 345L48 462Q84 483 131 495Q178 507 227 507Q325 507 379 459.5Q433 412 433 320Q433 308 432 280.5Q431 253 431 225V116Q431 88 436 60Q441 32 454 3L328 -10Q323 0 317.5 19.5Q312 39 310 53Q289 20 254.5 3.5Q220 -13 180 -13ZM217 89Q251 89 273 115Q295 141 295 182V218L237 208Q196 201 178 186.5Q160 172 160 144Q160 119 175 104Q190 89 217 89Z" glyph-name="abreve" horiz-adv-x="490" unicode="&#259;" /><glyph d="M266 561Q201 561 164 601Q127 641 127 715H218Q220 683 232 666Q244 649 266 649Q288 649 300 666Q312 683 314 715H405Q405 641 368 601Q331 561 266 561ZM229 -13Q139 -13 87.5 56Q36 125 36 243Q36 306 54 355.5Q72 405 103 438Q134 471 176.5 488.5Q219 506 268 506Q329 506 379 491.5Q429 477 475 445V127Q475 96 479.5 66.5Q484 37 497 7L368 -6Q363 4 358 21.5Q353 39 352 55Q335 23 303.5 5Q272 -13 229 -13ZM257 106Q297 106 318 140.5Q339 175 339 232V364Q325 376 308 382.5Q291 389 270 389Q221 389 197.5 354.5Q174 320 174 251Q174 185 194.5 145.5Q215 106 257 106Z" glyph-name="abreve.alt" horiz-adv-x="540" /><glyph d="M269 553Q196 553 158 593Q120 633 114 699H215Q218 671 231.5 656Q245 641 269 641Q292 641 306 656Q320 671 324 699H422Q416 633 379 593Q342 553 269 553ZM6 0 193 516 344 521 533 0H393L361 94H172L140 0ZM205 202H326L265 378Z" glyph-name="abreve.smcp" horiz-adv-x="540" /><glyph d="M73 565 164 713 295 717 380 565H265L226 635L187 565ZM180 -13Q111 -13 72 26Q33 65 33 132Q33 192 74 233Q115 274 206 295L297 315V324Q297 353 279 370.5Q261 388 222 388Q179 388 136 376Q93 364 61 345L48 462Q84 483 131 495Q178 507 227 507Q325 507 379 459.5Q433 412 433 320Q433 308 432 280.5Q431 253 431 225V116Q431 88 436 60Q441 32 454 3L328 -10Q323 0 317.5 19.5Q312 39 310 53Q289 20 254.5 3.5Q220 -13 180 -13ZM217 89Q251 89 273 115Q295 141 295 182V218L237 208Q196 201 178 186.5Q160 172 160 144Q160 119 175 104Q190 89 217 89Z" glyph-name="acircumflex" horiz-adv-x="490" unicode="&#226;" /><glyph d="M113 565 204 713 335 717 420 565H305L266 635L227 565ZM229 -13Q139 -13 87.5 56Q36 125 36 243Q36 306 54 355.5Q72 405 103 438Q134 471 176.5 488.5Q219 506 268 506Q329 506 379 491.5Q429 477 475 445V127Q475 96 479.5 66.5Q484 37 497 7L368 -6Q363 4 358 21.5Q353 39 352 55Q335 23 303.5 5Q272 -13 229 -13ZM257 106Q297 106 318 140.5Q339 175 339 232V364Q325 376 308 382.5Q291 389 270 389Q221 389 197.5 354.5Q174 320 174 251Q174 185 194.5 145.5Q215 106 257 106Z" glyph-name="acircumflex.alt" horiz-adv-x="540" /><glyph d="M115 563 206 692 331 693 423 563H313L267 621L221 563ZM6 0 193 516 344 521 533 0H393L361 94H172L140 0ZM205 202H326L265 378Z" glyph-name="acircumflex.smcp" horiz-adv-x="540" /><glyph d="M188 567 235 648Q244 662 255 685Q266 708 271 725L396 721Q390 702 374.5 674.5Q359 647 340 622L300 567Z" glyph-name="acute" horiz-adv-x="500" unicode="&#180;" /><glyph d="M182 691 309 815H458L309 691Z" glyph-name="acute.case" horiz-adv-x="500" /><glyph d="M69 581V701H199V581ZM253 581V701H383V581ZM180 -13Q111 -13 72 26Q33 65 33 132Q33 192 74 233Q115 274 206 295L297 315V324Q297 353 279 370.5Q261 388 222 388Q179 388 136 376Q93 364 61 345L48 462Q84 483 131 495Q178 507 227 507Q325 507 379 459.5Q433 412 433 320Q433 308 432 280.5Q431 253 431 225V116Q431 88 436 60Q441 32 454 3L328 -10Q323 0 317.5 19.5Q312 39 310 53Q289 20 254.5 3.5Q220 -13 180 -13ZM217 89Q251 89 273 115Q295 141 295 182V218L237 208Q196 201 178 186.5Q160 172 160 144Q160 119 175 104Q190 89 217 89Z" glyph-name="adieresis" horiz-adv-x="490" unicode="&#228;" /><glyph d="M109 581V701H239V581ZM293 581V701H423V581ZM229 -13Q139 -13 87.5 56Q36 125 36 243Q36 306 54 355.5Q72 405 103 438Q134 471 176.5 488.5Q219 506 268 506Q329 506 379 491.5Q429 477 475 445V127Q475 96 479.5 66.5Q484 37 497 7L368 -6Q363 4 358 21.5Q353 39 352 55Q335 23 303.5 5Q272 -13 229 -13ZM257 106Q297 106 318 140.5Q339 175 339 232V364Q325 376 308 382.5Q291 389 270 389Q221 389 197.5 354.5Q174 320 174 251Q174 185 194.5 145.5Q215 106 257 106Z" glyph-name="adieresis.alt" horiz-adv-x="540" /><glyph d="M107 569V682H241V569ZM297 569V682H431V569ZM6 0 193 516 344 521 533 0H393L361 94H172L140 0ZM205 202H326L265 378Z" glyph-name="adieresis.smcp" horiz-adv-x="540" /><glyph d="M180 -13Q111 -13 72 26Q33 65 33 132Q33 192 74 233Q115 274 206 295L297 315V324Q297 353 279 370.5Q261 388 222 388Q179 388 136 376Q93 364 61 345L48 462Q84 483 131 495Q178 507 227 507Q278 507 316 492.5Q354 478 377 450Q402 477 438 492Q474 507 520 507Q616 507 668 442Q720 377 720 252Q720 244 720 233.5Q720 223 719 215L431 207Q435 161 465 134.5Q495 108 553 108Q600 108 640 118Q680 128 716 149L707 28Q678 9 634.5 -2Q591 -13 542 -13Q467 -13 421 11Q375 35 350 75Q320 29 279 8Q238 -13 180 -13ZM433 304H595Q593 349 573 372Q553 395 516 395Q482 395 459.5 372Q437 349 433 304ZM217 89Q251 89 273 115Q295 141 295 182V218L237 208Q196 201 178 186.5Q160 172 160 144Q160 119 175 104Q190 89 217 89Z" glyph-name="ae" horiz-adv-x="759" unicode="&#230;" /><glyph d="M-28 0 221 518H680V401H434V320H661V212H434V116H689L677 0H299V94H154L108 0ZM203 201H299V399Z" glyph-name="ae.smcp" horiz-adv-x="728" /><glyph d="M336 567 383 648Q392 662 403 685Q414 708 419 725L544 721Q538 702 522.5 674.5Q507 647 488 622L448 567ZM180 -13Q111 -13 72 26Q33 65 33 132Q33 192 74 233Q115 274 206 295L297 315V324Q297 353 279 370.5Q261 388 222 388Q179 388 136 376Q93 364 61 345L48 462Q84 483 131 495Q178 507 227 507Q278 507 316 492.5Q354 478 377 450Q402 477 438 492Q474 507 520 507Q616 507 668 442Q720 377 720 252Q720 244 720 233.5Q720 223 719 215L431 207Q435 161 465 134.5Q495 108 553 108Q600 108 640 118Q680 128 716 149L707 28Q678 9 634.5 -2Q591 -13 542 -13Q467 -13 421 11Q375 35 350 75Q320 29 279 8Q238 -13 180 -13ZM433 304H595Q593 349 573 372Q553 395 516 395Q482 395 459.5 372Q437 349 433 304ZM217 89Q251 89 273 115Q295 141 295 182V218L237 208Q196 201 178 186.5Q160 172 160 144Q160 119 175 104Q190 89 217 89Z" glyph-name="aeacute" horiz-adv-x="759" unicode="&#509;" /><glyph d="M291 563 418 687H567L418 563ZM-28 0 221 518H680V401H434V320H661V212H434V116H689L677 0H299V94H154L108 0ZM203 201H299V399Z" glyph-name="aeacute.smcp" horiz-adv-x="728" /><glyph d="M176 567 129 630Q113 652 99.5 677Q86 702 80 721L205 725Q209 709 220.5 685.5Q232 662 241 648L288 567ZM180 -13Q111 -13 72 26Q33 65 33 132Q33 192 74 233Q115 274 206 295L297 315V324Q297 353 279 370.5Q261 388 222 388Q179 388 136 376Q93 364 61 345L48 462Q84 483 131 495Q178 507 227 507Q325 507 379 459.5Q433 412 433 320Q433 308 432 280.5Q431 253 431 225V116Q431 88 436 60Q441 32 454 3L328 -10Q323 0 317.5 19.5Q312 39 310 53Q289 20 254.5 3.5Q220 -13 180 -13ZM217 89Q251 89 273 115Q295 141 295 182V218L237 208Q196 201 178 186.5Q160 172 160 144Q160 119 175 104Q190 89 217 89Z" glyph-name="agrave" horiz-adv-x="490" unicode="&#224;" /><glyph d="M216 567 169 630Q153 652 139.5 677Q126 702 120 721L245 725Q249 709 260.5 685.5Q272 662 281 648L328 567ZM229 -13Q139 -13 87.5 56Q36 125 36 243Q36 306 54 355.5Q72 405 103 438Q134 471 176.5 488.5Q219 506 268 506Q329 506 379 491.5Q429 477 475 445V127Q475 96 479.5 66.5Q484 37 497 7L368 -6Q363 4 358 21.5Q353 39 352 55Q335 23 303.5 5Q272 -13 229 -13ZM257 106Q297 106 318 140.5Q339 175 339 232V364Q325 376 308 382.5Q291 389 270 389Q221 389 197.5 354.5Q174 320 174 251Q174 185 194.5 145.5Q215 106 257 106Z" glyph-name="agrave.alt" horiz-adv-x="540" /><glyph d="M210 563 60 687H209L336 563ZM6 0 193 516 344 521 533 0H393L361 94H172L140 0ZM205 202H326L265 378Z" glyph-name="agrave.smcp" horiz-adv-x="540" /><glyph d="M97 594V684H359V594ZM180 -13Q111 -13 72 26Q33 65 33 132Q33 192 74 233Q115 274 206 295L297 315V324Q297 353 279 370.5Q261 388 222 388Q179 388 136 376Q93 364 61 345L48 462Q84 483 131 495Q178 507 227 507Q325 507 379 459.5Q433 412 433 320Q433 308 432 280.5Q431 253 431 225V116Q431 88 436 60Q441 32 454 3L328 -10Q323 0 317.5 19.5Q312 39 310 53Q289 20 254.5 3.5Q220 -13 180 -13ZM217 89Q251 89 273 115Q295 141 295 182V218L237 208Q196 201 178 186.5Q160 172 160 144Q160 119 175 104Q190 89 217 89Z" glyph-name="amacron" horiz-adv-x="490" unicode="&#257;" /><glyph d="M135 594V684H397V594ZM229 -13Q139 -13 87.5 56Q36 125 36 243Q36 306 54 355.5Q72 405 103 438Q134 471 176.5 488.5Q219 506 268 506Q329 506 379 491.5Q429 477 475 445V127Q475 96 479.5 66.5Q484 37 497 7L368 -6Q363 4 358 21.5Q353 39 352 55Q335 23 303.5 5Q272 -13 229 -13ZM257 106Q297 106 318 140.5Q339 175 339 232V364Q325 376 308 382.5Q291 389 270 389Q221 389 197.5 354.5Q174 320 174 251Q174 185 194.5 145.5Q215 106 257 106Z" glyph-name="amacron.alt" horiz-adv-x="540" /><glyph d="M134 580V670H404V580ZM6 0 193 516 344 521 533 0H393L361 94H172L140 0ZM205 202H326L265 378Z" glyph-name="amacron.smcp" horiz-adv-x="540" /><glyph d="M263 -13Q155 -13 92 38.5Q29 90 29 180Q29 233 56.5 276.5Q84 320 139 351Q118 387 107.5 423Q97 459 97 493Q97 564 146.5 611.5Q196 659 280 659Q360 659 409 616.5Q458 574 458 502Q458 448 426 402.5Q394 357 324 329Q346 303 379 274.5Q412 246 452 221Q470 255 481 298.5Q492 342 494 393L618 381Q612 314 597 258Q582 202 560 158Q584 145 611.5 133Q639 121 667 111L635 -9Q594 4 553.5 21Q513 38 478 57Q437 23 383 5Q329 -13 263 -13ZM257 406Q294 422 313 444Q332 466 332 498Q332 523 318 537.5Q304 552 280 552Q256 552 240.5 536.5Q225 521 225 494Q225 472 234 449.5Q243 427 257 406ZM279 106Q302 106 322 112Q342 118 358 128Q310 160 270.5 195Q231 230 200 266Q185 253 176.5 235.5Q168 218 168 197Q168 152 196.5 129Q225 106 279 106Z" glyph-name="ampersand" horiz-adv-x="682" unicode="&amp;" /><glyph d="M237 -13Q133 -13 79.5 33Q26 79 26 151Q26 194 49 229.5Q72 265 119 289Q105 314 97.5 339Q90 364 90 389Q90 452 134 491.5Q178 531 253 531Q324 531 366 495.5Q408 460 408 403Q408 353 380 317.5Q352 282 294 263Q314 243 342.5 222.5Q371 202 405 183Q421 209 431 242.5Q441 276 443 316L562 304Q555 253 542 209.5Q529 166 510 130Q530 122 551.5 113.5Q573 105 595 97L565 -11Q529 -1 495 12.5Q461 26 431 41Q394 15 345.5 1Q297 -13 237 -13ZM229 335Q260 345 275 359Q290 373 290 398Q290 415 279.5 425.5Q269 436 250 436Q231 436 219.5 424.5Q208 413 208 394Q208 381 213.5 365.5Q219 350 229 335ZM250 87Q269 87 286 91Q303 95 316 103Q276 127 241 154.5Q206 182 181 210Q168 201 161.5 188.5Q155 176 155 160Q155 124 179.5 105.5Q204 87 250 87Z" glyph-name="ampersand.smcp" horiz-adv-x="612" /><glyph d="M371 -231Q327 -231 297.5 -207Q268 -183 268 -138Q268 -103 285.5 -71Q303 -39 338 -8H327Q322 2 317 20.5Q312 39 310 53Q289 20 254.5 3.5Q220 -13 180 -13Q111 -13 72 26Q33 65 33 132Q33 192 74 233Q115 274 206 295L297 315V324Q297 353 279 370.5Q261 388 222 388Q179 388 136 376Q93 364 61 345L48 462Q84 483 131.5 495Q179 507 228 507Q325 507 379 459.5Q433 412 433 320Q433 308 432 280.5Q431 253 431 225V116Q431 88 436.5 59.5Q442 31 455 2Q421 -19 395.5 -47.5Q370 -76 370 -104Q370 -123 379.5 -132Q389 -141 407 -141Q420 -141 432.5 -137.5Q445 -134 457 -127L450 -215Q433 -223 413 -227Q393 -231 371 -231ZM217 89Q251 89 273 115Q295 141 295 182V218L237 208Q196 201 178 186.5Q160 172 160 144Q160 119 175 104Q190 89 217 89Z" glyph-name="aogonek" horiz-adv-x="490" unicode="&#261;" /><glyph d="M412 -231Q364 -231 336.5 -206Q309 -181 309 -138Q309 -101 327 -68Q345 -35 383 -4L367 -5Q362 5 357.5 22Q353 39 351 55Q334 23 303 5Q272 -13 229 -13Q139 -13 87.5 56Q36 125 36 243Q36 306 54 355.5Q72 405 103 438Q134 471 176 488.5Q218 506 267 506Q329 506 379 491.5Q429 477 475 445V127Q475 96 479.5 66Q484 36 497 5Q457 -22 434 -49Q411 -76 411 -104Q411 -123 420.5 -132Q430 -141 447 -141Q460 -141 472.5 -137.5Q485 -134 497 -127L490 -215Q474 -223 454 -227Q434 -231 412 -231ZM257 106Q297 106 318 140.5Q339 175 339 232V364Q325 376 308 382.5Q291 389 270 389Q221 389 197.5 354.5Q174 320 174 251Q174 181 195.5 143.5Q217 106 257 106Z" glyph-name="aogonek.alt" horiz-adv-x="540" /><glyph d="M442 -231Q398 -231 368.5 -207Q339 -183 339 -138Q339 -101 358.5 -66.5Q378 -32 418 0H393L361 94H172L140 0H6L193 516L344 521L533 0H513Q487 -22 464 -50Q441 -78 441 -104Q441 -123 450.5 -132Q460 -141 478 -141Q491 -141 503 -137.5Q515 -134 528 -127L520 -215Q504 -223 484 -227Q464 -231 442 -231ZM205 202H326L265 378Z" glyph-name="aogonek.smcp" horiz-adv-x="540" /><glyph d="M45 348 44 471Q66 509 99 530Q132 551 171 551Q202 551 226.5 541.5Q251 532 272.5 520.5Q294 509 315 499.5Q336 490 361 490Q383 490 403 499Q423 508 439.5 522Q456 536 469 552.5Q482 569 491 584L492 454Q472 417 439 394.5Q406 372 360 372Q329 372 304 381Q279 390 257.5 401.5Q236 413 214.5 422Q193 431 168 431Q128 431 97.5 406.5Q67 382 45 348ZM45 118 44 241Q66 279 99 300Q132 321 171 321Q202 321 226.5 311.5Q251 302 272.5 290.5Q294 279 315 269.5Q336 260 361 260Q383 260 403 269Q423 278 439.5 292Q456 306 469 322.5Q482 339 491 354L492 224Q472 187 439 164.5Q406 142 360 142Q329 142 304 151Q279 160 257.5 171.5Q236 183 214.5 192Q193 201 168 201Q128 201 97.5 176.5Q67 152 45 118Z" glyph-name="approxequal" horiz-adv-x="540" unicode="&#8776;" /><glyph d="M237 538Q178 538 147 568Q116 598 116 652Q116 703 149.5 734Q183 765 237 765Q297 765 327 735.5Q357 706 357 652Q357 600 324 569Q291 538 237 538ZM237 603Q257 603 268.5 616.5Q280 630 280 652Q280 673 268.5 686Q257 699 237 699Q217 699 205.5 686Q194 673 194 652Q194 630 205.5 616.5Q217 603 237 603ZM180 -13Q111 -13 72 26Q33 65 33 132Q33 192 74 233Q115 274 206 295L297 315V324Q297 353 279 370.5Q261 388 222 388Q179 388 136 376Q93 364 61 345L48 462Q84 483 131 495Q178 507 227 507Q325 507 379 459.5Q433 412 433 320Q433 308 432 280.5Q431 253 431 225V116Q431 88 436 60Q441 32 454 3L328 -10Q323 0 317.5 19.5Q312 39 310 53Q289 20 254.5 3.5Q220 -13 180 -13ZM217 89Q251 89 273 115Q295 141 295 182V218L237 208Q196 201 178 186.5Q160 172 160 144Q160 119 175 104Q190 89 217 89Z" glyph-name="aring" horiz-adv-x="490" unicode="&#229;" /><glyph d="M266 538Q207 538 176 568Q145 598 145 652Q145 703 178.5 734Q212 765 266 765Q326 765 356 735.5Q386 706 386 652Q386 600 353 569Q320 538 266 538ZM266 603Q286 603 297.5 616.5Q309 630 309 652Q309 673 297.5 686Q286 699 266 699Q246 699 234.5 686Q223 673 223 652Q223 630 234.5 616.5Q246 603 266 603ZM229 -13Q139 -13 87.5 56Q36 125 36 243Q36 306 54 355.5Q72 405 103 438Q134 471 176.5 488.5Q219 506 268 506Q329 506 379 491.5Q429 477 475 445V127Q475 96 479.5 66.5Q484 37 497 7L368 -6Q363 4 358 21.5Q353 39 352 55Q335 23 303.5 5Q272 -13 229 -13ZM257 106Q297 106 318 140.5Q339 175 339 232V364Q325 376 308 382.5Q291 389 270 389Q221 389 197.5 354.5Q174 320 174 251Q174 185 194.5 145.5Q215 106 257 106Z" glyph-name="aring.alt" horiz-adv-x="540" /><glyph d="M269 550Q216 550 183 578.5Q150 607 150 655Q150 701 185 731Q220 761 269 761Q323 761 354.5 732.5Q386 704 386 655Q386 610 352 580Q318 550 269 550ZM269 614Q287 614 298.5 625Q310 636 310 655Q310 674 298.5 685Q287 696 269 696Q252 696 240 685Q228 674 228 655Q228 637 240 625.5Q252 614 269 614ZM6 0 193 516 344 521 533 0H393L361 94H172L140 0ZM205 202H326L265 378Z" glyph-name="aring.smcp" horiz-adv-x="540" /><glyph d="M36 211 216 651H323L505 211H364L266 479L168 211Z" glyph-name="asciicircum" horiz-adv-x="540" unicode="^" /><glyph d="M45 233 44 356Q66 394 99 415Q132 436 171 436Q202 436 226.5 426.5Q251 417 272.5 405.5Q294 394 315 384.5Q336 375 361 375Q383 375 403 384Q423 393 439.5 407Q456 421 469 437.5Q482 454 491 469L492 339Q472 302 439 279.5Q406 257 360 257Q329 257 304 266Q279 275 257.5 286.5Q236 298 214.5 307Q193 316 168 316Q128 316 97.5 291.5Q67 267 45 233Z" glyph-name="asciitilde" horiz-adv-x="540" unicode="~" /><glyph d="M110 408 164 527 33 529 40 630 171 616 134 743 231 766 258 638 366 714 418 627 304 562 409 483 344 408 248 495 204 369Z" glyph-name="asterisk" horiz-adv-x="453" unicode="*" /><glyph d="M415 -150Q334 -150 265.5 -125.5Q197 -101 148.5 -54Q100 -7 72.5 62Q45 131 45 218Q45 312 74 390.5Q103 469 156.5 525Q210 581 285.5 612Q361 643 454 643Q536 643 602.5 620Q669 597 716 555.5Q763 514 788.5 454Q814 394 814 321Q814 195 743.5 120.5Q673 46 548 46Q513 46 492.5 58Q472 70 464 92Q461 99 459.5 106.5Q458 114 458 122Q445 92 423 72.5Q401 53 370 53Q317 53 286.5 96.5Q256 140 256 212Q256 319 308 381Q360 443 447 443Q484 443 519.5 437Q555 431 588 419Q581 391 575.5 356.5Q570 322 567 289L559 200Q559 196 558.5 190.5Q558 185 558 181Q558 168 564.5 161Q571 154 585 154Q632 154 659.5 198.5Q687 243 687 321Q687 427 624 481.5Q561 536 450 536Q317 536 244.5 451Q172 366 172 219Q172 93 241 26Q310 -41 432 -41Q482 -41 525 -31.5Q568 -22 594 -8L588 -119Q548 -135 508.5 -142.5Q469 -150 415 -150ZM399 152Q420 152 437 188.5Q454 225 460 296L465 339Q457 343 449 343.5Q441 344 433 344Q401 344 384 313Q367 282 367 222Q367 189 375.5 170.5Q384 152 399 152Z" glyph-name="at" horiz-adv-x="859" unicode="@" /><glyph d="M415 -69Q334 -69 265.5 -44.5Q197 -20 148.5 27Q100 74 72.5 143Q45 212 45 299Q45 393 74 471.5Q103 550 156.5 606Q210 662 285.5 693Q361 724 454 724Q536 724 602.5 701Q669 678 716 636.5Q763 595 788.5 535Q814 475 814 402Q814 276 743.5 201.5Q673 127 548 127Q513 127 492.5 139Q472 151 464 173Q461 180 459.5 187.5Q458 195 458 203Q445 173 423 153.5Q401 134 370 134Q317 134 286.5 177.5Q256 221 256 293Q256 400 308 462Q360 524 447 524Q484 524 519.5 518Q555 512 588 500Q581 472 575.5 437.5Q570 403 567 370L559 281Q559 277 558.5 271.5Q558 266 558 262Q558 249 564.5 242Q571 235 585 235Q632 235 659.5 279.5Q687 324 687 402Q687 508 624 562.5Q561 617 450 617Q317 617 244.5 532Q172 447 172 300Q172 174 241 107Q310 40 432 40Q482 40 525 49.5Q568 59 594 73L588 -38Q548 -54 508.5 -61.5Q469 -69 415 -69ZM399 233Q420 233 437 269.5Q454 306 460 377L465 420Q457 424 449 424.5Q441 425 433 425Q401 425 384 394Q367 363 367 303Q367 270 375.5 251.5Q384 233 399 233Z" glyph-name="at.case" horiz-adv-x="859" /><glyph d="M88 573Q88 636 108 669Q128 702 169 702Q201 702 219 689Q237 676 259 676Q270 676 274.5 686.5Q279 697 279 715L373 709Q373 646 350 611.5Q327 577 284 577Q250 577 232.5 591Q215 605 197 605Q187 605 183 598Q179 591 178 573ZM180 -13Q111 -13 72 26Q33 65 33 132Q33 192 74 233Q115 274 206 295L297 315V324Q297 353 279 370.5Q261 388 222 388Q179 388 136 376Q93 364 61 345L48 462Q84 483 131 495Q178 507 227 507Q325 507 379 459.5Q433 412 433 320Q433 308 432 280.5Q431 253 431 225V116Q431 88 436 60Q441 32 454 3L328 -10Q323 0 317.5 19.5Q312 39 310 53Q289 20 254.5 3.5Q220 -13 180 -13ZM217 89Q251 89 273 115Q295 141 295 182V218L237 208Q196 201 178 186.5Q160 172 160 144Q160 119 175 104Q190 89 217 89Z" glyph-name="atilde" horiz-adv-x="490" unicode="&#227;" /><glyph d="M128 573Q128 636 148 669Q168 702 209 702Q241 702 259 689Q277 676 299 676Q310 676 314.5 686.5Q319 697 319 715L413 709Q413 646 390 611.5Q367 577 324 577Q290 577 272.5 591Q255 605 237 605Q227 605 223 598Q219 591 218 573ZM229 -13Q139 -13 87.5 56Q36 125 36 243Q36 306 54 355.5Q72 405 103 438Q134 471 176.5 488.5Q219 506 268 506Q329 506 379 491.5Q429 477 475 445V127Q475 96 479.5 66.5Q484 37 497 7L368 -6Q363 4 358 21.5Q353 39 352 55Q335 23 303.5 5Q272 -13 229 -13ZM257 106Q297 106 318 140.5Q339 175 339 232V364Q325 376 308 382.5Q291 389 270 389Q221 389 197.5 354.5Q174 320 174 251Q174 185 194.5 145.5Q215 106 257 106Z" glyph-name="atilde.alt" horiz-adv-x="540" /><glyph d="M104 564Q105 633 129.5 663.5Q154 694 195 694Q214 694 229.5 689Q245 684 257.5 678Q270 672 281.5 667Q293 662 305 662Q318 662 324 675Q330 688 331 704L412 698Q411 637 390 602.5Q369 568 315 568Q298 568 283.5 573.5Q269 579 256.5 585Q244 591 233 596.5Q222 602 212 602Q201 602 194.5 592.5Q188 583 187 564ZM6 0 193 516 344 521 533 0H393L361 94H172L140 0ZM205 202H326L265 378Z" glyph-name="atilde.smcp" horiz-adv-x="540" /><glyph d="M247 -12Q191 -12 142.5 1.5Q94 15 56 42Q59 74 60.5 120Q62 166 62 216V553Q62 602 60.5 637.5Q59 673 55 710L191 716Q192 708 193 694Q194 680 195 664.5Q196 649 196.5 633.5Q197 618 197 608V437Q214 473 243 490Q272 507 311 507Q403 507 452.5 440Q502 373 502 259Q502 132 436.5 60Q371 -12 247 -12ZM263 106Q314 106 338 144Q362 182 362 246Q362 318 339.5 351Q317 384 277 384Q237 384 217 344.5Q197 305 197 230V127Q212 116 227 111Q242 106 263 106Z" glyph-name="b" horiz-adv-x="538" unicode="b" /><glyph d="M67 0V518H259Q359 518 412.5 481Q466 444 466 377Q466 338 445 311Q424 284 382 272Q431 263 461.5 231Q492 199 492 149Q492 79 439 39.5Q386 0 275 0ZM201 307H259Q293 307 311 321Q329 335 329 362Q329 388 310.5 401.5Q292 415 257 415H201ZM201 101H275Q314 101 334 115.5Q354 130 354 160Q354 189 332.5 204Q311 219 272 219H201Z" glyph-name="b.smcp" horiz-adv-x="529" /><glyph d="M378 -250 10 750H111L479 -250Z" glyph-name="backslash" horiz-adv-x="489" unicode="\" /><glyph d="M76 -250V750H174V-250Z" glyph-name="bar" horiz-adv-x="250" unicode="|" /><glyph d="M339 -283Q231 -283 179.5 -241Q128 -199 128 -117V86Q128 143 109 163.5Q90 184 50 190V294Q90 300 109 321Q128 342 128 399V601Q128 683 179.5 725Q231 767 339 767L348 638Q302 638 286.5 619.5Q271 601 271 542V380Q271 318 247 285Q223 252 182 242Q223 232 247 199.5Q271 167 271 105V-57Q271 -116 286.5 -134.5Q302 -153 348 -153Z" glyph-name="braceleft" horiz-adv-x="385" unicode="{" /><glyph d="M342 -150Q235 -150 184.5 -105.5Q134 -61 134 23V168Q134 226 118 247Q102 268 56 275V378Q102 385 118 406Q134 427 134 486V623Q134 707 184.5 751.5Q235 796 342 796L352 661Q306 661 292 645Q278 629 278 578V467Q278 410 256 375Q234 340 188 327Q234 314 256 280Q278 246 278 189V71Q278 20 292.5 2.5Q307 -15 352 -15Z" glyph-name="braceleft.case" horiz-adv-x="385" /><glyph d="M288 -145Q195 -145 149 -110Q103 -75 103 -6V123Q103 169 89.5 186Q76 203 35 209V308Q76 313 89.5 330.5Q103 348 103 394V522Q103 590 152.5 625Q202 660 295 660L308 536Q269 536 256 520.5Q243 505 243 470V370Q243 324 222 296Q201 268 155 258Q201 248 222 221Q243 194 243 148V48Q243 12 256.5 -4Q270 -20 308 -20Z" glyph-name="braceleft.smcp" horiz-adv-x="324" /><glyph d="M46 767Q154 767 205.5 725Q257 683 257 601V398Q257 341 276 320.5Q295 300 335 294V190Q295 184 276 163Q257 142 257 85V-117Q257 -199 205.5 -241Q154 -283 46 -283L37 -154Q83 -154 98.5 -135.5Q114 -117 114 -58V104Q114 166 138 199Q162 232 203 242Q162 252 138 284.5Q114 317 114 379V541Q114 600 98.5 618.5Q83 637 37 637Z" glyph-name="braceright" horiz-adv-x="385" unicode="}" /><glyph d="M43 796Q150 796 200.5 751.5Q251 707 251 623V478Q251 420 267 399Q283 378 329 371V268Q283 261 267 240Q251 219 251 160V23Q251 -61 200.5 -105.5Q150 -150 43 -150L33 -15Q79 -15 93 1Q107 17 107 68V179Q107 236 129 271Q151 306 197 319Q151 332 129 366Q107 400 107 457V575Q107 626 92.5 643.5Q78 661 33 661Z" glyph-name="braceright.case" horiz-adv-x="385" /><glyph d="M36 662Q129 662 175 627Q221 592 221 523V394Q221 348 234.5 331Q248 314 289 308V209Q248 204 234.5 186.5Q221 169 221 123V-5Q221 -73 171.5 -108Q122 -143 29 -143L16 -19Q55 -19 68 -3.5Q81 12 81 47V147Q81 193 102 221Q123 249 169 259Q123 269 102 296Q81 323 81 369V469Q81 505 67.5 521Q54 537 16 537Z" glyph-name="braceright.smcp" horiz-adv-x="324" /><glyph d="M112 -277V760H387V638H249V-155H387V-277Z" glyph-name="bracketleft" horiz-adv-x="385" unicode="[" /><glyph d="M114 -141V787H375V660H257V-14H375V-141Z" glyph-name="bracketleft.case" horiz-adv-x="385" /><glyph d="M74 -142V660H319V540H215V-22H319V-142Z" glyph-name="bracketleft.smcp" horiz-adv-x="324" /><glyph d="M273 760V-277H-2V-155H136V638H-2V760Z" glyph-name="bracketright" horiz-adv-x="385" unicode="]" /><glyph d="M271 787V-141H10V-14H128V660H10V787Z" glyph-name="bracketright.case" horiz-adv-x="385" /><glyph d="M250 658V-144H5V-24H109V538H5V658Z" glyph-name="bracketright.smcp" horiz-adv-x="324" /><glyph d="M250 561Q185 561 148 601Q111 641 111 715H202Q204 683 216 666Q228 649 250 649Q272 649 284 666Q296 683 298 715H389Q389 641 352 601Q315 561 250 561Z" glyph-name="breve" horiz-adv-x="500" unicode="&#728;" /><glyph d="M250 681Q177 681 139 721Q101 761 95 827H196Q199 799 212.5 784Q226 769 250 769Q273 769 287 784Q301 799 305 827H403Q397 761 360 721Q323 681 250 681Z" glyph-name="breve.case" horiz-adv-x="500" /><glyph d="M76 289V750H174V289ZM76 -250V211H174V-250Z" glyph-name="brokenbar" horiz-adv-x="250" unicode="&#166;" /><glyph d="M97 234V442H311V234Z" glyph-name="bullet" horiz-adv-x="407" unicode="&#8226;" /><glyph d="M272 -13Q156 -13 95.5 57Q35 127 35 247Q35 369 97 438Q159 507 269 507Q300 507 330 502.5Q360 498 385 488L373 363Q354 373 333 378Q312 383 292 383Q236 383 204.5 349.5Q173 316 173 247Q173 178 207.5 144.5Q242 111 296 111Q322 111 344 118.5Q366 126 388 141L380 11Q355 -1 330 -7Q305 -13 272 -13Z" glyph-name="c" horiz-adv-x="418" unicode="c" /><glyph d="M287 -13Q165 -13 101.5 57Q38 127 38 259Q38 384 105.5 457.5Q173 531 289 531Q327 531 362 525Q397 519 426 506L408 381Q381 394 357.5 400Q334 406 303 406Q244 406 212 368.5Q180 331 180 259Q180 188 214.5 150Q249 112 306 112Q341 112 371 120Q401 128 426 144L415 14Q392 1 356.5 -6Q321 -13 287 -13Z" glyph-name="c.smcp" horiz-adv-x="461" /><glyph d="M182 567 229 648Q238 662 249 685Q260 708 265 725L390 721Q384 702 368.5 674.5Q353 647 334 622L294 567ZM272 -13Q156 -13 95.5 57Q35 127 35 247Q35 369 97 438Q159 507 269 507Q300 507 330 502.5Q360 498 385 488L373 363Q354 373 333 378Q312 383 292 383Q236 383 204.5 349.5Q173 316 173 247Q173 178 207.5 144.5Q242 111 296 111Q322 111 344 118.5Q366 126 388 141L380 11Q355 -1 330 -7Q305 -13 272 -13Z" glyph-name="cacute" horiz-adv-x="418" unicode="&#263;" /><glyph d="M201 563 328 687H477L328 563ZM287 -13Q165 -13 101.5 57Q38 127 38 259Q38 384 105.5 457.5Q173 531 289 531Q327 531 362 525Q397 519 426 506L408 381Q381 394 357.5 400Q334 406 303 406Q244 406 212 368.5Q180 331 180 259Q180 188 214.5 150Q249 112 306 112Q341 112 371 120Q401 128 426 144L415 14Q392 1 356.5 -6Q321 -13 287 -13Z" glyph-name="cacute.smcp" horiz-adv-x="461" /><glyph d="M191 566 107 715H196L251 645L305 715H393L302 570Z" glyph-name="caron" horiz-adv-x="500" unicode="&#711;" /><glyph d="M194 687 95 817H205L251 759L297 817H403L304 687Z" glyph-name="caron.case" horiz-adv-x="500" /><glyph d="M208 526Q212 543 217 567Q222 591 225.5 617Q229 643 232 668Q235 693 236 712H338Q337 692 332.5 667Q328 642 322.5 616.5Q317 591 310.5 567.5Q304 544 298 526Z" glyph-name="caronSlovak" horiz-adv-x="500" /><glyph d="M174 448Q179 466 185 493Q191 520 196 548.5Q201 577 205.5 603Q210 629 212 646H332Q326 625 318 598.5Q310 572 301 545.5Q292 519 282.5 493.5Q273 468 264 448Z" glyph-name="caronSlovak.case" horiz-adv-x="500" /><glyph d="M185 566 101 715H190L245 645L299 715H387L296 570ZM272 -13Q156 -13 95.5 57Q35 127 35 247Q35 369 97 438Q159 507 269 507Q300 507 330 502.5Q360 498 385 488L373 363Q354 373 333 378Q312 383 292 383Q236 383 204.5 349.5Q173 316 173 247Q173 178 207.5 144.5Q242 111 296 111Q322 111 344 118.5Q366 126 388 141L380 11Q355 -1 330 -7Q305 -13 272 -13Z" glyph-name="ccaron" horiz-adv-x="418" unicode="&#269;" /><glyph d="M213 559 114 689H224L270 631L316 689H422L323 559ZM287 -13Q165 -13 101.5 57Q38 127 38 259Q38 384 105.5 457.5Q173 531 289 531Q327 531 362 525Q397 519 426 506L408 381Q381 394 357.5 400Q334 406 303 406Q244 406 212 368.5Q180 331 180 259Q180 188 214.5 150Q249 112 306 112Q341 112 371 120Q401 128 426 144L415 14Q392 1 356.5 -6Q321 -13 287 -13Z" glyph-name="ccaron.smcp" horiz-adv-x="461" /><glyph d="M225 -233Q201 -233 184 -229.5Q167 -226 150 -218L144 -141Q163 -149 181 -154Q199 -159 218 -159Q237 -159 246 -151.5Q255 -144 255 -130Q255 -111 233.5 -99.5Q212 -88 181 -87L205 -6Q122 13 78.5 79.5Q35 146 35 247Q35 369 97 438Q159 507 269 507Q300 507 330 502.5Q360 498 385 488L373 363Q354 373 333 378Q312 383 292 383Q236 383 204.5 349.5Q173 316 173 247Q173 178 207.5 144.5Q242 111 296 111Q322 111 344 118.5Q366 126 388 141L380 11Q359 1 338.5 -5Q318 -11 293 -12L280 -43Q311 -54 329 -74.5Q347 -95 347 -131Q347 -179 313 -206Q279 -233 225 -233Z" glyph-name="ccedilla" horiz-adv-x="418" unicode="&#231;" /><glyph d="M245 -233Q221 -233 204 -229.5Q187 -226 170 -218L165 -141Q183 -149 201 -154Q219 -159 238 -159Q257 -159 266 -151.5Q275 -144 275 -130Q275 -111 253.5 -99.5Q232 -88 202 -87L224 -7Q133 9 85.5 77Q38 145 38 259Q38 384 105.5 457.5Q173 531 289 531Q327 531 362 525Q397 519 426 506L408 381Q381 394 357.5 400Q334 406 303 406Q244 406 212 368.5Q180 331 180 259Q180 188 214.5 150Q249 112 306 112Q341 112 371 120Q401 128 426 144L415 14Q396 3 368.5 -4Q341 -11 312 -12L300 -43Q331 -54 349 -74.5Q367 -95 367 -131Q367 -179 332.5 -206Q298 -233 245 -233Z" glyph-name="ccedilla.smcp" horiz-adv-x="461" /><glyph d="M91 565 182 713 313 717 398 565H283L244 635L205 565ZM272 -13Q156 -13 95.5 57Q35 127 35 247Q35 369 97 438Q159 507 269 507Q300 507 330 502.5Q360 498 385 488L373 363Q354 373 333 378Q312 383 292 383Q236 383 204.5 349.5Q173 316 173 247Q173 178 207.5 144.5Q242 111 296 111Q322 111 344 118.5Q366 126 388 141L380 11Q355 -1 330 -7Q305 -13 272 -13Z" glyph-name="ccircumflex" horiz-adv-x="418" unicode="&#265;" /><glyph d="M115 563 206 692 331 693 423 563H313L267 621L221 563ZM287 -13Q165 -13 101.5 57Q38 127 38 259Q38 384 105.5 457.5Q173 531 289 531Q327 531 362 525Q397 519 426 506L408 381Q381 394 357.5 400Q334 406 303 406Q244 406 212 368.5Q180 331 180 259Q180 188 214.5 150Q249 112 306 112Q341 112 371 120Q401 128 426 144L415 14Q392 1 356.5 -6Q321 -13 287 -13Z" glyph-name="ccircumflex.smcp" horiz-adv-x="461" /><glyph d="M168 581V701H306V581ZM272 -13Q156 -13 95.5 57Q35 127 35 247Q35 369 97 438Q159 507 269 507Q300 507 330 502.5Q360 498 385 488L373 363Q354 373 333 378Q312 383 292 383Q236 383 204.5 349.5Q173 316 173 247Q173 178 207.5 144.5Q242 111 296 111Q322 111 344 118.5Q366 126 388 141L380 11Q355 -1 330 -7Q305 -13 272 -13Z" glyph-name="cdotaccent" horiz-adv-x="418" unicode="&#267;" /><glyph d="M199 566V685H339V566ZM287 -13Q165 -13 101.5 57Q38 127 38 259Q38 384 105.5 457.5Q173 531 289 531Q327 531 362 525Q397 519 426 506L408 381Q381 394 357.5 400Q334 406 303 406Q244 406 212 368.5Q180 331 180 259Q180 188 214.5 150Q249 112 306 112Q341 112 371 120Q401 128 426 144L415 14Q392 1 356.5 -6Q321 -13 287 -13Z" glyph-name="cdotaccent.smcp" horiz-adv-x="461" /><glyph d="M238 -233Q214 -233 197 -229.5Q180 -226 162 -218L157 -141Q175 -149 193 -154Q211 -159 230 -159Q249 -159 258 -151.5Q267 -144 267 -130Q267 -111 246 -99.5Q225 -88 194 -87L223 14L312 3L292 -43Q323 -54 341 -74.5Q359 -95 359 -131Q359 -179 325 -206Q291 -233 238 -233Z" glyph-name="cedilla" horiz-adv-x="500" unicode="&#184;" /><glyph d="M245 -230Q220 -230 200 -225.5Q180 -221 162 -214L157 -140Q175 -148 193 -153Q211 -158 230 -158Q249 -158 258 -151Q267 -144 267 -130Q267 -111 247.5 -99Q228 -87 194 -86L219 1H298L283 -45Q320 -54 338 -76.5Q356 -99 356 -133Q356 -178 325 -204Q294 -230 245 -230Z" glyph-name="cedilla.case" horiz-adv-x="500" /><glyph d="M208 -118 238 78Q160 101 114 166Q68 231 68 328Q68 389 86.5 437.5Q105 486 138.5 519Q172 552 217.5 570Q263 588 317 588L342 749H419L393 581Q413 577 430.5 572Q448 567 461 561L449 436Q436 443 416.5 450.5Q397 458 375 461L333 191Q337 191 340.5 191Q344 191 348 191Q379 191 407.5 202.5Q436 214 458 229L449 99Q424 87 390.5 77Q357 67 324 67Q322 67 319.5 67Q317 67 314 67L286 -118ZM207 328Q207 287 220.5 258Q234 229 259 213L297 459Q252 449 229.5 416.5Q207 384 207 328Z" glyph-name="cent" horiz-adv-x="540" unicode="&#162;" /><glyph d="M191 -95 213 47Q141 66 99.5 122.5Q58 179 58 262Q58 365 120.5 426Q183 487 281 487H282L300 599H369L350 480Q364 478 378 474Q392 470 405 466L393 348Q380 355 364 360Q348 365 333 367L299 154H304Q326 154 351 161Q376 168 401 184L394 62Q369 51 339 44.5Q309 38 283 38H281L260 -95ZM185 262Q185 228 197 205Q209 182 232 169L264 367Q224 360 204.5 334Q185 308 185 262Z" glyph-name="cent.smcp" horiz-adv-x="478" /><glyph d="M97 565 188 713 319 717 404 565H289L250 635L211 565Z" glyph-name="circumflex" horiz-adv-x="500" unicode="&#710;" /><glyph d="M96 691 187 820 312 821 404 691H294L248 749L202 691Z" glyph-name="circumflex.case" horiz-adv-x="500" /><glyph d="M56 284V429H210V284ZM56 0V145H210V0Z" glyph-name="colon" horiz-adv-x="266" unicode=":" /><glyph d="M144 -172 22 -155Q35 -123 43.5 -96Q52 -69 57.5 -41Q63 -13 65 20Q67 53 67 97V142H198V77Q198 0 185 -60Q172 -120 144 -172Z" glyph-name="comma" horiz-adv-x="266" unicode="," /><glyph d="M269 -258 164 -248Q185 -203 191.5 -166.5Q198 -130 198 -71V-56H311V-90Q311 -141 302.5 -179.5Q294 -218 269 -258Z" glyph-name="commaaccent" horiz-adv-x="500" unicode="&#63171;" /><glyph d="M267 -258 165 -248Q184 -203 191 -166.5Q198 -130 198 -71V-56H309V-90Q309 -141 300.5 -179.5Q292 -218 267 -258Z" glyph-name="commaaccent.case" horiz-adv-x="500" /><glyph d="M412 -68Q328 -68 258.5 -40Q189 -12 140.5 39Q92 90 65 162.5Q38 235 38 322Q38 410 65 482Q92 554 140.5 605Q189 656 258.5 684Q328 712 412 712Q496 712 565 684Q634 656 683 605Q732 554 759 481.5Q786 409 786 322Q786 235 759 162.5Q732 90 683 39Q634 -12 565 -40Q496 -68 412 -68ZM412 47Q530 47 595.5 122Q661 197 661 322Q661 448 595.5 522.5Q530 597 412 597Q293 597 228 522.5Q163 448 163 322Q163 197 228 122Q293 47 412 47ZM427 135Q346 135 299 183.5Q252 232 252 325Q252 412 299.5 463Q347 514 428 514Q455 514 479 510.5Q503 507 524 497L511 407Q492 417 476 421Q460 425 438 425Q397 425 376 399.5Q355 374 355 325Q355 278 377.5 251.5Q400 225 440 225Q465 225 486 231Q507 237 524 248L515 156Q499 146 475 140.5Q451 135 427 135Z" glyph-name="copyright" horiz-adv-x="824" unicode="&#169;" /><glyph d="M55 149 127 221Q113 246 104.5 274Q96 302 96 332Q96 363 104.5 391Q113 419 127 444L55 516L144 605L215 534Q240 547 268 555.5Q296 564 327 564Q358 564 386 555.5Q414 547 439 534L511 605L600 516L528 444Q542 419 550 391Q558 363 558 332Q558 302 550 274Q542 246 528 221L600 149L511 60L439 132Q414 118 386 109.5Q358 101 327 101Q296 101 268 109.5Q240 118 215 132L144 60ZM220 332Q220 288 251.5 256.5Q283 225 327 225Q372 225 403.5 256.5Q435 288 435 332Q435 377 403.5 408.5Q372 440 327 440Q283 440 251.5 408.5Q220 377 220 332Z" glyph-name="currency" horiz-adv-x="655" unicode="&#164;" /><glyph d="M231 -13Q139 -13 87.5 56.5Q36 126 36 243Q36 364 95 435Q154 506 252 506Q277 506 300.5 500.5Q324 495 341 485V558Q341 606 339.5 639Q338 672 334 710L472 716Q473 701 475 667.5Q477 634 477 606V127Q477 90 482.5 61Q488 32 499 7L369 -6Q365 4 360 21Q355 38 353 55Q336 21 304 4Q272 -13 231 -13ZM260 109Q299 109 320 149Q341 189 341 265V361Q327 375 309 382Q291 389 271 389Q222 389 198 355Q174 321 174 251Q174 181 195.5 145Q217 109 260 109Z" glyph-name="d" horiz-adv-x="544" unicode="d" /><glyph d="M67 0V518H225Q359 518 439 449Q519 380 519 259Q519 134 440.5 67Q362 0 226 0ZM205 123H233Q303 123 340 156.5Q377 190 377 259Q377 323 338 359Q299 395 233 395H205Z" glyph-name="d.smcp" horiz-adv-x="553" /><glyph d="M198 -190V374H50V494H198V659H340V494H490V374H340V-190Z" glyph-name="dagger" horiz-adv-x="540" unicode="&#8224;" /><glyph d="M50 4V123H198V374H50V494H198V659H340V494H490V374H340V123H490V4H340V-190H198V4Z" glyph-name="daggerdbl" horiz-adv-x="540" unicode="&#8225;" /><glyph d="M231 -13Q139 -13 87.5 56.5Q36 126 36 243Q36 364 95 435Q154 506 252 506Q277 506 300.5 500.5Q324 495 341 485V558Q341 606 339.5 639Q338 672 334 710L472 716Q473 701 475 667.5Q477 634 477 606V127Q477 90 482.5 61Q488 32 499 7L369 -6Q365 4 360 21Q355 38 353 55Q336 21 304 4Q272 -13 231 -13ZM512 526Q516 543 521 567Q526 591 529.5 617Q533 643 536 668Q539 693 540 712H642Q641 692 636.5 667Q632 642 626.5 616.5Q621 591 614.5 567.5Q608 544 602 526ZM260 109Q299 109 320 149Q341 189 341 265V361Q327 375 309 382Q291 389 271 389Q222 389 198 355Q174 321 174 251Q174 181 195.5 145Q217 109 260 109Z" glyph-name="dcaron" horiz-adv-x="544" unicode="&#271;" /><glyph d="M219 559 120 689H230L276 631L322 689H428L329 559ZM67 0V518H225Q359 518 439 449Q519 380 519 259Q519 134 440.5 67Q362 0 226 0ZM205 123H233Q303 123 340 156.5Q377 190 377 259Q377 323 338 359Q299 395 233 395H205Z" glyph-name="dcaron.smcp" horiz-adv-x="553" /><glyph d="M231 -13Q140 -13 88 56.5Q36 126 36 243Q36 364 95 435Q154 506 252 506Q277 506 300.5 500.5Q324 495 341 485V553H260V644H339Q338 660 337 676Q336 692 334 710L472 716Q473 706 474 686Q475 666 476 644H522V553H477V127Q477 90 482.5 61Q488 32 499 7L369 -6Q365 4 360 21Q355 38 353 55Q336 21 304 4Q272 -13 231 -13ZM260 109Q300 109 320.5 150Q341 191 341 265V361Q327 375 309 382Q291 389 271 389Q222 389 198.5 355Q175 321 175 251Q175 181 196.5 145Q218 109 260 109Z" glyph-name="dcroat" horiz-adv-x="544" unicode="&#273;" /><glyph d="M67 0V220H28V307H67V518H225Q359 518 439 449Q519 380 519 259Q519 134 440.5 67Q362 0 226 0ZM205 123H233Q303 123 340 156.5Q377 190 377 259Q377 323 338 359Q299 395 233 395H205V307H285V220H205Z" glyph-name="dcroat.smcp" horiz-adv-x="553" /><glyph d="M192 291Q119 291 74 341Q29 391 29 474Q29 552 75.5 604Q122 656 192 656Q267 656 311.5 606Q356 556 356 474Q356 395 309.5 343Q263 291 192 291ZM192 379Q219 379 232 402.5Q245 426 245 474Q245 522 232 545Q219 568 192 568Q167 568 153.5 544.5Q140 521 140 474Q140 426 153.5 402.5Q167 379 192 379Z" glyph-name="degree" horiz-adv-x="385" unicode="&#176;" /><glyph d="M93 581V701H223V581ZM277 581V701H407V581Z" glyph-name="dieresis" horiz-adv-x="500" unicode="&#168;" /><glyph d="M88 697V810H222V697ZM278 697V810H412V697Z" glyph-name="dieresis.case" horiz-adv-x="500" /><glyph d="M198 467V604H341V467ZM64 281V397H475V281ZM198 74V211H341V74Z" glyph-name="divide" horiz-adv-x="540" unicode="&#247;" /><glyph d="M162 -118 179 -8Q147 -4 117.5 5.5Q88 15 62 28L50 171Q90 152 126 139.5Q162 127 199 122L221 267L203 273Q128 298 89.5 344.5Q51 391 51 464Q51 554 112.5 606.5Q174 659 281 659L295 749H373L358 653Q390 648 419.5 639Q449 630 473 618L459 485Q434 498 402.5 508Q371 518 338 524L317 384L341 375Q416 349 454 306.5Q492 264 492 193Q492 97 428.5 42Q365 -13 255 -13L239 -118ZM191 474Q191 452 203 437.5Q215 423 243 411L261 530Q226 528 208.5 513.5Q191 499 191 474ZM352 179Q352 201 338.5 215Q325 229 294 241L275 118Q312 120 332 135Q352 150 352 179Z" glyph-name="dollar" horiz-adv-x="540" unicode="$" /><glyph d="M150 -95 163 -10Q132 -6 102.5 1.5Q73 9 50 20L39 144Q73 129 109.5 119Q146 109 181 105L197 207L186 210Q119 228 81.5 265.5Q44 303 44 369Q44 441 97 486Q150 531 248 531L259 599H327L316 527Q347 523 376.5 515.5Q406 508 428 498L414 383Q392 393 360.5 402Q329 411 298 415L283 316L303 311Q366 294 402.5 260Q439 226 439 160Q439 85 387.5 37Q336 -11 232 -13L219 -95ZM171 380Q171 365 181 354Q191 343 217 334L231 421Q199 420 185 408Q171 396 171 380ZM311 145Q311 161 299.5 171.5Q288 182 263 189L250 101Q284 102 297.5 113.5Q311 125 311 145Z" glyph-name="dollar.smcp" horiz-adv-x="478" /><glyph d="M181 581V701H319V581Z" glyph-name="dotaccent" horiz-adv-x="500" unicode="&#729;" /><glyph d="M180 694V813H320V694Z" glyph-name="dotaccent.case" horiz-adv-x="500" /><glyph d="M64 0V495H200V0Z" glyph-name="dotlessi" horiz-adv-x="264" unicode="&#305;" /><glyph d="M-14 -234 -23 -119Q29 -106 46.5 -79Q64 -52 64 9V495H200V-9Q200 -111 151.5 -166Q103 -221 -14 -234Z" glyph-name="dotlessj" horiz-adv-x="264" unicode="&#567;" /><glyph d="M282 -13Q161 -13 98 56.5Q35 126 35 247Q35 365 94 436Q153 507 260 507Q356 507 408 442Q460 377 460 252Q460 244 460 233.5Q460 223 459 215L171 207Q175 161 205 134.5Q235 108 293 108Q340 108 380 118Q420 128 456 149L447 28Q418 9 374.5 -2Q331 -13 282 -13ZM173 304H335Q333 349 313 372Q293 395 256 395Q222 395 199.5 372Q177 349 173 304Z" glyph-name="e" horiz-adv-x="499" unicode="e" /><glyph d="M67 0V518H454V401H202V320H435V212H202V116H462L451 0Z" glyph-name="e.smcp" horiz-adv-x="501" /><glyph d="M188 567 235 648Q244 662 255 685Q266 708 271 725L396 721Q390 702 374.5 674.5Q359 647 340 622L300 567ZM282 -13Q161 -13 98 56.5Q35 126 35 247Q35 365 94 436Q153 507 260 507Q356 507 408 442Q460 377 460 252Q460 244 460 233.5Q460 223 459 215L171 207Q175 161 205 134.5Q235 108 293 108Q340 108 380 118Q420 128 456 149L447 28Q418 9 374.5 -2Q331 -13 282 -13ZM173 304H335Q333 349 313 372Q293 395 256 395Q222 395 199.5 372Q177 349 173 304Z" glyph-name="eacute" horiz-adv-x="499" unicode="&#233;" /><glyph d="M189 563 316 687H465L316 563ZM67 0V518H454V401H202V320H435V212H202V116H462L451 0Z" glyph-name="eacute.smcp" horiz-adv-x="501" /><glyph d="M250 561Q185 561 148 601Q111 641 111 715H202Q204 683 216 666Q228 649 250 649Q272 649 284 666Q296 683 298 715H389Q389 641 352 601Q315 561 250 561ZM282 -13Q161 -13 98 56.5Q35 126 35 247Q35 365 94 436Q153 507 260 507Q356 507 408 442Q460 377 460 252Q460 244 460 233.5Q460 223 459 215L171 207Q175 161 205 134.5Q235 108 293 108Q340 108 380 118Q420 128 456 149L447 28Q418 9 374.5 -2Q331 -13 282 -13ZM173 304H335Q333 349 313 372Q293 395 256 395Q222 395 199.5 372Q177 349 173 304Z" glyph-name="ebreve" horiz-adv-x="499" unicode="&#277;" /><glyph d="M257 553Q184 553 146 593Q108 633 102 699H203Q206 671 219.5 656Q233 641 257 641Q280 641 294 656Q308 671 312 699H410Q404 633 367 593Q330 553 257 553ZM67 0V518H454V401H202V320H435V212H202V116H462L451 0Z" glyph-name="ebreve.smcp" horiz-adv-x="501" /><glyph d="M191 566 107 715H196L251 645L305 715H393L302 570ZM282 -13Q161 -13 98 56.5Q35 126 35 247Q35 365 94 436Q153 507 260 507Q356 507 408 442Q460 377 460 252Q460 244 460 233.5Q460 223 459 215L171 207Q175 161 205 134.5Q235 108 293 108Q340 108 380 118Q420 128 456 149L447 28Q418 9 374.5 -2Q331 -13 282 -13ZM173 304H335Q333 349 313 372Q293 395 256 395Q222 395 199.5 372Q177 349 173 304Z" glyph-name="ecaron" horiz-adv-x="499" unicode="&#283;" /><glyph d="M201 559 102 689H212L258 631L304 689H410L311 559ZM67 0V518H454V401H202V320H435V212H202V116H462L451 0Z" glyph-name="ecaron.smcp" horiz-adv-x="501" /><glyph d="M97 565 188 713 319 717 404 565H289L250 635L211 565ZM282 -13Q161 -13 98 56.5Q35 126 35 247Q35 365 94 436Q153 507 260 507Q356 507 408 442Q460 377 460 252Q460 244 460 233.5Q460 223 459 215L171 207Q175 161 205 134.5Q235 108 293 108Q340 108 380 118Q420 128 456 149L447 28Q418 9 374.5 -2Q331 -13 282 -13ZM173 304H335Q333 349 313 372Q293 395 256 395Q222 395 199.5 372Q177 349 173 304Z" glyph-name="ecircumflex" horiz-adv-x="499" unicode="&#234;" /><glyph d="M103 563 194 692 319 693 411 563H301L255 621L209 563ZM67 0V518H454V401H202V320H435V212H202V116H462L451 0Z" glyph-name="ecircumflex.smcp" horiz-adv-x="501" /><glyph d="M93 581V701H223V581ZM277 581V701H407V581ZM282 -13Q161 -13 98 56.5Q35 126 35 247Q35 365 94 436Q153 507 260 507Q356 507 408 442Q460 377 460 252Q460 244 460 233.5Q460 223 459 215L171 207Q175 161 205 134.5Q235 108 293 108Q340 108 380 118Q420 128 456 149L447 28Q418 9 374.5 -2Q331 -13 282 -13ZM173 304H335Q333 349 313 372Q293 395 256 395Q222 395 199.5 372Q177 349 173 304Z" glyph-name="edieresis" horiz-adv-x="499" unicode="&#235;" /><glyph d="M95 569V682H229V569ZM285 569V682H419V569ZM67 0V518H454V401H202V320H435V212H202V116H462L451 0Z" glyph-name="edieresis.smcp" horiz-adv-x="501" /><glyph d="M181 581V701H319V581ZM282 -13Q161 -13 98 56.5Q35 126 35 247Q35 365 94 436Q153 507 260 507Q356 507 408 442Q460 377 460 252Q460 244 460 233.5Q460 223 459 215L171 207Q175 161 205 134.5Q235 108 293 108Q340 108 380 118Q420 128 456 149L447 28Q418 9 374.5 -2Q331 -13 282 -13ZM173 304H335Q333 349 313 372Q293 395 256 395Q222 395 199.5 372Q177 349 173 304Z" glyph-name="edotaccent" horiz-adv-x="499" unicode="&#279;" /><glyph d="M187 566V685H327V566ZM67 0V518H454V401H202V320H435V212H202V116H462L451 0Z" glyph-name="edotaccent.smcp" horiz-adv-x="501" /><glyph d="M200 567 153 630Q137 652 123.5 677Q110 702 104 721L229 725Q233 709 244.5 685.5Q256 662 265 648L312 567ZM282 -13Q161 -13 98 56.5Q35 126 35 247Q35 365 94 436Q153 507 260 507Q356 507 408 442Q460 377 460 252Q460 244 460 233.5Q460 223 459 215L171 207Q175 161 205 134.5Q235 108 293 108Q340 108 380 118Q420 128 456 149L447 28Q418 9 374.5 -2Q331 -13 282 -13ZM173 304H335Q333 349 313 372Q293 395 256 395Q222 395 199.5 372Q177 349 173 304Z" glyph-name="egrave" horiz-adv-x="499" unicode="&#232;" /><glyph d="M199 563 49 687H198L325 563ZM67 0V518H454V401H202V320H435V212H202V116H462L451 0Z" glyph-name="egrave.smcp" horiz-adv-x="501" /><glyph d="M262 -13Q158 -13 98.5 40Q39 93 39 181Q39 227 61.5 264Q84 301 131 330Q92 356 72.5 392.5Q53 429 53 477Q53 555 111.5 607Q170 659 266 659Q363 659 419 611.5Q475 564 475 483Q475 435 455 398Q435 361 395 337Q441 309 464.5 269.5Q488 230 488 180Q488 92 426 39.5Q364 -13 262 -13ZM300 381Q322 398 333.5 419Q345 440 345 465Q345 500 322.5 520.5Q300 541 264 541Q227 541 207 523.5Q187 506 187 476Q187 454 204 435Q221 416 256 400ZM264 105Q301 105 322.5 124Q344 143 344 180Q344 209 323 228.5Q302 248 260 267L225 283Q201 264 188.5 239.5Q176 215 176 189Q176 152 199 128.5Q222 105 264 105Z" glyph-name="eight" horiz-adv-x="527" unicode="8" /><glyph d="M164 -14Q101 -14 67.5 15.5Q34 45 34 95Q34 120 47.5 142Q61 164 85 175Q62 188 51 208.5Q40 229 40 255Q40 297 73 327.5Q106 358 167 358Q226 358 257 330Q288 302 288 260Q288 232 276 211.5Q264 191 241 181Q264 170 279.5 149Q295 128 295 97Q295 51 260.5 18.5Q226 -14 164 -14ZM183 210Q193 219 199 228.5Q205 238 205 250Q205 265 194 274.5Q183 284 165 284Q146 284 137.5 275.5Q129 267 129 254Q129 243 137.5 234Q146 225 160 220ZM165 61Q184 61 194.5 71Q205 81 205 98Q205 111 194 120Q183 129 166 136L144 145Q134 135 127.5 124.5Q121 114 121 101Q121 86 131.5 73.5Q142 61 165 61Z" glyph-name="eight.dnom" horiz-adv-x="329" /><glyph d="M164 282Q101 282 67.5 311.5Q34 341 34 391Q34 416 47.5 438Q61 460 85 471Q62 484 51 504.5Q40 525 40 551Q40 593 73 623.5Q106 654 167 654Q226 654 257 626Q288 598 288 556Q288 528 276 507.5Q264 487 241 477Q264 466 279.5 445Q295 424 295 393Q295 347 260.5 314.5Q226 282 164 282ZM183 506Q193 515 199 524.5Q205 534 205 546Q205 561 194 570.5Q183 580 165 580Q146 580 137.5 571.5Q129 563 129 550Q129 539 137.5 530Q146 521 160 516ZM165 357Q184 357 194.5 367Q205 377 205 394Q205 407 194 416Q183 425 166 432L144 441Q134 431 127.5 420.5Q121 410 121 397Q121 382 131.5 369.5Q142 357 165 357Z" glyph-name="eight.numr" horiz-adv-x="329" /><glyph d="M260 -11Q157 -11 98 41.5Q39 94 39 186Q39 239 68 283.5Q97 328 147 353L129 365Q89 390 70 426Q51 462 51 509Q51 590 108.5 640Q166 690 259 690Q353 690 410.5 640.5Q468 591 468 509Q468 459 443.5 418Q419 377 375 353L394 341Q437 313 458 275Q479 237 479 187Q479 95 420.5 42Q362 -11 260 -11ZM286 403Q312 422 324 445.5Q336 469 336 501Q336 534 315 554.5Q294 575 261 575Q225 575 206 556.5Q187 538 187 503Q187 478 203 457.5Q219 437 248 423ZM258 105Q297 105 319.5 127.5Q342 150 342 187Q342 217 322.5 240.5Q303 264 262 284L235 297Q203 275 187 249.5Q171 224 171 190Q171 153 195 129Q219 105 258 105Z" glyph-name="eight.osf" horiz-adv-x="519" /><glyph d="M240 -13Q141 -13 88.5 27Q36 67 36 144Q36 181 57.5 213Q79 245 114 261Q80 281 63.5 311Q47 341 47 379Q47 446 101 488.5Q155 531 243 531Q333 531 384 492Q435 453 435 385Q435 348 420 319Q405 290 374 272Q410 252 428 222Q446 192 446 149Q446 73 392 30Q338 -13 240 -13ZM272 315Q287 326 295 341Q303 356 303 373Q303 397 286.5 411Q270 425 241 425Q214 425 199 413.5Q184 402 184 380Q184 362 196 350Q208 338 235 328ZM241 92Q271 92 287 105Q303 118 303 143Q303 163 288.5 177.5Q274 192 238 205L211 214Q192 201 183 185Q174 169 174 150Q174 123 192 107.5Q210 92 241 92Z" glyph-name="eight.smcp" horiz-adv-x="482" /><glyph d="M164 362Q101 362 67.5 391.5Q34 421 34 471Q34 496 47.5 518Q61 540 85 551Q62 564 51 584.5Q40 605 40 631Q40 673 73 703.5Q106 734 167 734Q226 734 257 706Q288 678 288 636Q288 608 276 587.5Q264 567 241 557Q264 546 279.5 525Q295 504 295 473Q295 427 260.5 394.5Q226 362 164 362ZM183 586Q193 595 199 604.5Q205 614 205 626Q205 641 194 650.5Q183 660 165 660Q146 660 137.5 651.5Q129 643 129 630Q129 619 137.5 610Q146 601 160 596ZM165 437Q184 437 194.5 447Q205 457 205 474Q205 487 194 496Q183 505 166 512L144 521Q134 511 127.5 500.5Q121 490 121 477Q121 462 131.5 449.5Q142 437 165 437Z" glyph-name="eight.sup" horiz-adv-x="329" /><glyph d="M268 -13Q164 -13 104.5 40Q45 93 45 181Q45 227 67.5 264Q90 301 137 330Q98 356 78.5 392.5Q59 429 59 477Q59 555 117.5 607Q176 659 272 659Q369 659 425 611.5Q481 564 481 483Q481 435 461 398Q441 361 401 337Q447 309 470.5 269.5Q494 230 494 180Q494 92 432 39.5Q370 -13 268 -13ZM306 381Q328 398 339.5 419Q351 440 351 465Q351 500 328.5 520.5Q306 541 270 541Q233 541 213 523.5Q193 506 193 476Q193 454 210 435Q227 416 262 400ZM270 105Q307 105 328.5 124Q350 143 350 180Q350 209 329 228.5Q308 248 266 267L231 283Q207 264 194.5 239.5Q182 215 182 189Q182 152 205 128.5Q228 105 270 105Z" glyph-name="eight.tf" horiz-adv-x="540" /><glyph d="M269 -11Q166 -11 107 41.5Q48 94 48 186Q48 239 77 283.5Q106 328 156 353L138 365Q98 390 79 426Q60 462 60 509Q60 590 117.5 640Q175 690 268 690Q362 690 419.5 640.5Q477 591 477 509Q477 459 452.5 418Q428 377 384 353L403 341Q446 313 467 275Q488 237 488 187Q488 95 429.5 42Q371 -11 269 -11ZM295 403Q321 422 333 445.5Q345 469 345 501Q345 534 324 554.5Q303 575 270 575Q234 575 215 556.5Q196 538 196 503Q196 478 212 457.5Q228 437 257 423ZM267 105Q306 105 328.5 127.5Q351 150 351 187Q351 217 331.5 240.5Q312 264 271 284L244 297Q212 275 196 249.5Q180 224 180 190Q180 153 204 129Q228 105 267 105Z" glyph-name="eight.tosf" horiz-adv-x="540" /><glyph d="M546 0V145H700V0ZM301 0V145H455V0ZM56 0V145H210V0Z" glyph-name="ellipsis" horiz-adv-x="756" unicode="&#8230;" /><glyph d="M119 594V684H381V594ZM282 -13Q161 -13 98 56.5Q35 126 35 247Q35 365 94 436Q153 507 260 507Q356 507 408 442Q460 377 460 252Q460 244 460 233.5Q460 223 459 215L171 207Q175 161 205 134.5Q235 108 293 108Q340 108 380 118Q420 128 456 149L447 28Q418 9 374.5 -2Q331 -13 282 -13ZM173 304H335Q333 349 313 372Q293 395 256 395Q222 395 199.5 372Q177 349 173 304Z" glyph-name="emacron" horiz-adv-x="499" unicode="&#275;" /><glyph d="M122 580V670H392V580ZM67 0V518H454V401H202V320H435V212H202V116H462L451 0Z" glyph-name="emacron.smcp" horiz-adv-x="501" /><glyph d="M50 201V311H950V201Z" glyph-name="emdash" horiz-adv-x="1000" unicode="&#8212;" /><glyph d="M50 283V399H950V283Z" glyph-name="emdash.case" horiz-adv-x="1000" /><glyph d="M50 201V311H450V201Z" glyph-name="endash" horiz-adv-x="500" unicode="&#8211;" /><glyph d="M50 283V399H450V283Z" glyph-name="endash.case" horiz-adv-x="500" /><glyph d="M279 -234 270 -119Q322 -106 339.5 -79Q357 -52 357 9V286Q357 336 341 359.5Q325 383 291 383Q250 383 225.5 341.5Q201 300 201 217V0H65V329Q65 378 63.5 417.5Q62 457 58 492L189 498Q191 485 192.5 457Q194 429 194 415V408Q209 455 246 481Q283 507 334 507Q413 507 453 456Q493 405 493 316V-9Q493 -111 444 -164.5Q395 -218 279 -234Z" glyph-name="eng" horiz-adv-x="552" unicode="&#331;" /><glyph d="M282 -202 274 -87Q331 -83 356 -57.5Q381 -32 382 27L196 295V0H67V518H196L393 227V518H521V3Q521 -101 458.5 -150Q396 -199 282 -202Z" glyph-name="eng.smcp" horiz-adv-x="588" /><glyph d="M346 -221Q298 -221 270.5 -196Q243 -171 243 -128Q243 -97 256 -69Q269 -41 297 -13H282Q161 -13 97.5 56.5Q34 126 34 247Q34 365 93 436Q152 507 259 507Q355 507 407 442Q459 377 459 252Q459 245 459 234.5Q459 224 458 217L170 209Q174 163 204 135.5Q234 108 292 108Q341 108 380.5 118.5Q420 129 455 149L446 28Q403 2 374 -33Q345 -68 345 -94Q345 -113 355 -122Q365 -131 382 -131Q395 -131 407 -127.5Q419 -124 432 -117L424 -205Q408 -213 388 -217Q368 -221 346 -221ZM172 302H334Q333 347 312.5 371Q292 395 255 395Q221 395 198 371.5Q175 348 172 302Z" glyph-name="eogonek" horiz-adv-x="498" unicode="&#281;" /><glyph d="M353 -230Q309 -230 281.5 -204Q254 -178 254 -132Q254 -95 273.5 -63Q293 -31 332 0H67V518H454V401H202V320H435V212H202V116H462L451 0H426Q398 -25 376.5 -52Q355 -79 355 -105Q355 -124 364.5 -132.5Q374 -141 392 -141Q405 -141 417 -137.5Q429 -134 441 -128L434 -215Q415 -223 395 -226.5Q375 -230 353 -230Z" glyph-name="eogonek.smcp" horiz-adv-x="501" /><glyph d="M64 386V502H475V386ZM64 176V292H475V176Z" glyph-name="equal" horiz-adv-x="540" unicode="=" /><glyph d="M190 139Q232 95 289 69Q346 43 411 43Q480 43 540 72Q600 101 643 150L703 121Q654 64 575.5 25.5Q497 -13 410 -13Q336 -13 270 12.5Q204 38 155.5 82Q107 126 78.5 185Q50 244 50 311Q50 378 78.5 437Q107 496 155.5 540Q204 584 270 609.5Q336 635 410 635Q484 635 550 609.5Q616 584 664.5 540Q713 496 741.5 437Q770 378 770 311V270H187Q185 270 183.5 269Q182 268 182 266V159Q182 153 184 148Q186 143 190 139ZM187 355H634Q636 355 637 357Q638 359 638 360V461Q638 467 635.5 472.5Q633 478 629 482Q587 524 530.5 549Q474 574 411 574Q347 574 290 548Q233 522 191 479Q187 475 184.5 469.5Q182 464 182 457V360Q182 359 183.5 357Q185 355 187 355Z" glyph-name="estimated" horiz-adv-x="820" unicode="&#8494;" /><glyph d="M265 -13Q160 -13 97.5 58Q35 129 35 247Q35 365 95 435.5Q155 506 261 506Q271 506 281 503.5Q291 501 299 497Q292 515 281 533.5Q270 552 257 571L144 541V625L202 641Q186 660 170.5 676Q155 692 141 705L277 714Q287 705 298.5 694.5Q310 684 321 671L432 700V616L380 602Q427 541 461 454.5Q495 368 495 247Q495 129 432.5 58Q370 -13 265 -13ZM265 104Q310 104 334 140Q358 176 358 247Q358 317 333.5 354Q309 391 265 391Q220 391 196.5 354.5Q173 318 173 247Q173 177 197 140.5Q221 104 265 104Z" glyph-name="eth" horiz-adv-x="530" unicode="&#240;" /><glyph d="M67 0V220H28V307H67V518H225Q359 518 439 449Q519 380 519 259Q519 134 440.5 67Q362 0 226 0ZM205 123H233Q303 123 340 156.5Q377 190 377 259Q377 323 338 359Q299 395 233 395H205V307H285V220H205Z" glyph-name="eth.smcp" horiz-adv-x="553" /><glyph d="M109 202 71 646H251L213 202ZM86 0V138H236V0Z" glyph-name="exclam" horiz-adv-x="322" unicode="!" /><glyph d="M91 178 65 518H233L207 178ZM74 0V121H223V0Z" glyph-name="exclam.smcp" horiz-adv-x="297" /><glyph d="M236 495V357H86V495ZM213 293 251 -151H71L109 293Z" glyph-name="exclamdown" horiz-adv-x="322" unicode="&#161;" /><glyph d="M236 646V508H86V646ZM213 444 251 0H71L109 444Z" glyph-name="exclamdown.case" horiz-adv-x="322" /><glyph d="M223 517V396H74V517ZM206 339 232 -1H64L90 339Z" glyph-name="exclamdown.smcp" horiz-adv-x="297" /><glyph d="M84 0V376H37L30 474L67 484Q79 487 83.5 494.5Q88 502 88 518V525Q88 615 146.5 668.5Q205 722 306 722Q314 722 325 721.5Q336 721 343 720L353 603Q345 604 336.5 604.5Q328 605 321 605Q271 605 245.5 583Q220 561 220 512V495H332V376H221V0Z" glyph-name="f" horiz-adv-x="338" unicode="f" /><glyph d="M67 0V518H453L442 401H206V310H427V195H206V0Z" glyph-name="f.smcp" horiz-adv-x="482" /><glyph d="M84 0V376H37L30 474L67 484Q79 487 83.5 494.5Q88 502 88 518V525Q88 615 146.5 668.5Q205 722 306 722Q314 722 325 721.5Q336 721 343 720L353 603Q345 604 336.5 604.5Q328 605 321 605Q271 605 245.5 583Q220 561 220 512V495H332V376H221V0ZM585 -12Q529 -12 480.5 1.5Q432 15 394 42Q397 74 398.5 120Q400 166 400 216V553Q400 602 398.5 637.5Q397 673 393 710L529 716Q530 708 531 694Q532 680 533 664.5Q534 649 534.5 633.5Q535 618 535 608V437Q552 473 581 490Q610 507 649 507Q741 507 790.5 440Q840 373 840 259Q840 132 774.5 60Q709 -12 585 -12ZM601 106Q652 106 676 144Q700 182 700 246Q700 318 677.5 351Q655 384 615 384Q575 384 555 344.5Q535 305 535 230V127Q550 116 565 111Q580 106 601 106Z" glyph-name="f_b" horiz-adv-x="875" /><glyph d="M84 0V384H35L30 474L67 484Q79 487 83.5 494Q88 501 88 515V523Q88 613 150 666Q212 719 313 719Q320 719 329 719Q338 719 346 718L352 605Q343 606 335.5 606.5Q328 607 321 607Q271 607 247 585Q223 563 221 517L220 495H353Q366 495 373.5 503Q381 511 381 525V532Q381 613 443 666Q505 719 606 719Q614 719 622.5 719Q631 719 639 718L645 605Q637 606 629 606.5Q621 607 614 607Q565 607 540.5 585Q516 563 514 517V495H626V384H514V0H378V384H221V0Z" glyph-name="f_f" horiz-adv-x="631" unicode="&#64256;" /><glyph d="M84 0V384H35L30 474L67 484Q79 487 83.5 494Q88 501 88 515V523Q88 613 150 666Q212 719 313 719Q320 719 329 719Q338 719 346 718L352 605Q343 606 335.5 606.5Q328 607 321 607Q271 607 247 585Q223 563 221 517L220 495H353Q366 495 373.5 503Q381 511 381 525V532Q381 613 443 666Q505 719 606 719Q614 719 622.5 719Q631 719 639 718L645 605Q637 606 629 606.5Q621 607 614 607Q565 607 540.5 585Q516 563 514 517V495H626V384H514V0H378V384H221V0ZM878 -12Q822 -12 773.5 1.5Q725 15 687 42Q690 74 691.5 120Q693 166 693 216V553Q693 602 691.5 637.5Q690 673 686 710L822 716Q823 708 824 694Q825 680 826 664.5Q827 649 827.5 633.5Q828 618 828 608V437Q845 473 874 490Q903 507 942 507Q1034 507 1083.5 440Q1133 373 1133 259Q1133 132 1067.5 60Q1002 -12 878 -12ZM894 106Q945 106 969 144Q993 182 993 246Q993 318 970.5 351Q948 384 908 384Q868 384 848 344.5Q828 305 828 230V127Q843 116 858 111Q873 106 894 106Z" glyph-name="f_f_b" horiz-adv-x="1168" /><glyph d="M84 0V384H35L30 474L67 484Q79 487 83.5 494Q88 501 88 515V523Q88 613 150 666Q212 719 313 719Q320 719 329 719Q338 719 346 718L352 605Q343 606 335.5 606.5Q328 607 321 607Q271 607 247 585Q223 563 221 517L220 495H353Q366 495 373.5 503Q381 511 381 525V532Q381 613 443 666Q505 719 606 719Q614 719 622.5 719Q631 719 639 718L645 605Q637 606 629 606.5Q621 607 614 607Q565 607 540.5 585Q516 563 514 517V495H626V384H514V0H378V384H221V0ZM695 0V555Q695 604 693.5 638.5Q692 673 688 710L825 716Q826 708 827.5 694.5Q829 681 829.5 665.5Q830 650 830.5 635Q831 620 831 610V425Q850 466 884.5 486.5Q919 507 964 507Q1040 507 1083 460Q1126 413 1126 318V0H990V287Q990 333 973 357Q956 381 924 381Q881 381 856 341Q831 301 831 218V0Z" glyph-name="f_f_h" horiz-adv-x="1185" /><glyph d="M84 0V384H35L30 474L67 484Q79 487 83.5 494Q88 501 88 515V523Q88 613 150 666Q212 719 313 719Q320 719 329 719Q338 719 346 718L352 605Q343 606 335.5 606.5Q328 607 321 607Q271 607 247 585Q223 563 221 517L220 495H353Q366 495 373.5 503Q381 511 381 525V532Q381 613 443 666Q505 719 606 719Q614 719 622.5 719Q631 719 639 718L645 605Q637 606 629 606.5Q621 607 614 607Q565 607 540.5 585Q516 563 514 517V495H626V384H514V0H378V384H221V0ZM694 581V701H832V581ZM695 0V495H831V0Z" glyph-name="f_f_i" horiz-adv-x="895" unicode="&#64259;" /><glyph d="M84 0V384H35L30 474L67 484Q79 487 83.5 494Q88 501 88 515V523Q88 613 150 666Q212 719 313 719Q320 719 329 719Q338 719 346 718L352 605Q343 606 335.5 606.5Q328 607 321 607Q271 607 247 585Q223 563 221 517L220 495H353Q366 495 373.5 503Q381 511 381 525V532Q381 613 443 666Q505 719 606 719Q614 719 622.5 719Q631 719 639 718L645 605Q637 606 629 606.5Q621 607 614 607Q565 607 540.5 585Q516 563 514 517V495H626V384H514V0H378V384H221V0ZM694 581V701H832V581ZM623 -233 611 -118Q661 -108 678 -82Q695 -56 695 9V495H831V-4Q831 -111 781 -166Q731 -221 623 -233Z" glyph-name="f_f_j" horiz-adv-x="895" /><glyph d="M84 0V384H35L30 474L67 484Q79 487 83.5 494Q88 501 88 515V523Q88 613 150 666Q212 719 313 719Q320 719 329 719Q338 719 346 718L352 605Q343 606 335.5 606.5Q328 607 321 607Q271 607 247 585Q223 563 221 517L220 495H353Q366 495 373.5 503Q381 511 381 525V532Q381 613 443 666Q505 719 606 719Q614 719 622.5 719Q631 719 639 718L645 605Q637 606 629 606.5Q621 607 614 607Q565 607 540.5 585Q516 563 514 517V495H626V384H514V0H378V384H221V0ZM695 0V555Q695 599 693.5 636Q692 673 688 710L825 716Q826 708 827.5 694.5Q829 681 829.5 665.5Q830 650 830.5 635Q831 620 831 610V291L904 372Q938 410 957 437Q976 464 992 498L1132 492Q1119 455 1088 410.5Q1057 366 1019 329L964 274L1144 0H992L831 248V0Z" glyph-name="f_f_k" horiz-adv-x="1143" /><glyph d="M84 0V384H35L30 474L67 484Q79 487 83.5 494Q88 501 88 515V523Q88 613 150 666Q212 719 313 719Q320 719 329 719Q338 719 346 718L352 605Q343 606 335.5 606.5Q328 607 321 607Q271 607 247 585Q223 563 221 517L220 495H353Q366 495 373.5 503Q381 511 381 525V532Q381 613 443 666Q505 719 606 719Q614 719 622.5 719Q631 719 639 718L645 605Q637 606 629 606.5Q621 607 614 607Q565 607 540.5 585Q516 563 514 517V495H626V384H514V0H378V384H221V0ZM865 -7Q769 -2 727 39Q685 80 685 178V550Q685 594 683.5 633.5Q682 673 678 710L816 716Q817 708 818 694Q819 680 819.5 664Q820 648 820.5 632.5Q821 617 821 605V183Q821 146 833.5 131.5Q846 117 878 111Z" glyph-name="f_f_l" horiz-adv-x="897" unicode="&#64260;" /><glyph d="M84 0V376H37L30 474L67 484Q79 487 83.5 494.5Q88 502 88 518V525Q88 615 146.5 668.5Q205 722 306 722Q314 722 325 721.5Q336 721 343 720L353 603Q345 604 336.5 604.5Q328 605 321 605Q271 605 245.5 583Q220 561 220 512V495H332V376H221V0ZM402 0V555Q402 604 400.5 638.5Q399 673 395 710L532 716Q533 708 534.5 694.5Q536 681 536.5 665.5Q537 650 537.5 635Q538 620 538 610V425Q557 466 591.5 486.5Q626 507 671 507Q747 507 790 460Q833 413 833 318V0H697V287Q697 333 680 357Q663 381 631 381Q588 381 563 341Q538 301 538 218V0Z" glyph-name="f_h" horiz-adv-x="892" /><glyph d="M84 0V376H37L30 474L67 484Q79 487 83.5 494.5Q88 502 88 518V525Q88 615 146.5 668.5Q205 722 306 722Q314 722 325 721.5Q336 721 343 720L353 603Q345 604 336.5 604.5Q328 605 321 605Q271 605 245.5 583Q220 561 220 512V495H332V376H221V0ZM401 581V701H539V581ZM330 -233 318 -118Q368 -108 385 -82Q402 -56 402 9V495H538V-4Q538 -111 488 -166Q438 -221 330 -233Z" glyph-name="f_j" horiz-adv-x="602" /><glyph d="M84 0V376H37L30 474L67 484Q79 487 83.5 494.5Q88 502 88 518V525Q88 615 146.5 668.5Q205 722 306 722Q314 722 325 721.5Q336 721 343 720L353 603Q345 604 336.5 604.5Q328 605 321 605Q271 605 245.5 583Q220 561 220 512V495H332V376H221V0ZM402 0V555Q402 599 400.5 636Q399 673 395 710L532 716Q533 708 534.5 694.5Q536 681 536.5 665.5Q537 650 537.5 635Q538 620 538 610V291L611 372Q645 410 664 437Q683 464 699 498L839 492Q826 455 795 410.5Q764 366 726 329L671 274L851 0H699L538 248V0Z" glyph-name="f_k" horiz-adv-x="850" /><glyph d="M84 0V376H37L30 474L67 484Q79 487 83.5 494.5Q88 502 88 518V525Q88 615 146.5 668.5Q205 722 306 722Q314 722 325 721.5Q336 721 343 720L353 603Q345 604 336.5 604.5Q328 605 321 605Q271 605 245.5 583Q220 561 220 512V495H332V376H221V0ZM401 581V701H539V581ZM402 0V495H538V0Z" glyph-name="fi" horiz-adv-x="602" unicode="&#64257;" /><glyph d="M67 0V518H453L442 401H206V310H427V195H206V0ZM549 0V518H688V0Z" glyph-name="fi.smcp" horiz-adv-x="755" /><glyph d="M184 -13Q139 -13 104.5 -3.5Q70 6 39 21L27 153Q57 137 95 126Q133 115 164 115Q214 115 242.5 136Q271 157 271 199Q271 248 218 273.5Q165 299 67 299L84 646H421L410 513H206L199 403Q300 397 359.5 345Q419 293 419 200Q419 101 355.5 44Q292 -13 184 -13Z" glyph-name="five" horiz-adv-x="471" unicode="5" /><glyph d="M120 -14Q94 -14 73.5 -8Q53 -2 36 7L28 89Q45 80 68.5 74Q92 68 111 68Q138 68 152.5 76.5Q167 85 167 104Q167 128 136.5 137.5Q106 147 51 147L61 350H257L250 267H134L131 214Q195 210 228 184Q261 158 261 105Q261 49 222 17.5Q183 -14 120 -14Z" glyph-name="five.dnom" horiz-adv-x="288" /><glyph d="M120 282Q94 282 73.5 288Q53 294 36 303L28 385Q45 376 68.5 370Q92 364 111 364Q138 364 152.5 372.5Q167 381 167 400Q167 424 136.5 433.5Q106 443 51 443L61 646H257L250 563H134L131 510Q195 506 228 480Q261 454 261 401Q261 345 222 313.5Q183 282 120 282Z" glyph-name="five.numr" horiz-adv-x="288" /><glyph d="M170 -194Q130 -194 95 -185Q60 -176 32 -161L23 -37Q53 -53 88 -63Q123 -73 162 -73Q211 -73 238 -51.5Q265 -30 265 14Q265 69 212 98.5Q159 128 61 129L80 495H406L395 362H198L189 237Q292 224 349 170Q406 116 406 24Q406 -83 343 -138.5Q280 -194 170 -194Z" glyph-name="five.osf" horiz-adv-x="455" /><glyph d="M175 -13Q136 -13 105 -6Q74 1 47 14L36 139Q63 126 96 117Q129 108 157 108Q201 108 223.5 120.5Q246 133 246 163Q246 199 201 213.5Q156 228 72 228L88 518H385L374 393H209L203 321Q291 317 339.5 275.5Q388 234 388 159Q388 74 329.5 30.5Q271 -13 175 -13Z" glyph-name="five.smcp" horiz-adv-x="446" /><glyph d="M120 362Q94 362 73.5 368Q53 374 36 383L28 465Q45 456 68.5 450Q92 444 111 444Q138 444 152.5 452.5Q167 461 167 480Q167 504 136.5 513.5Q106 523 51 523L61 726H257L250 643H134L131 590Q195 586 228 560Q261 534 261 481Q261 425 222 393.5Q183 362 120 362Z" glyph-name="five.sup" horiz-adv-x="288" /><glyph d="M220 -13Q175 -13 140.5 -3.5Q106 6 75 21L63 153Q93 137 131 126Q169 115 200 115Q250 115 278.5 136Q307 157 307 199Q307 248 254 273.5Q201 299 103 299L120 646H457L446 513H242L235 403Q336 397 395.5 345Q455 293 455 200Q455 101 391.5 44Q328 -13 220 -13Z" glyph-name="five.tf" horiz-adv-x="540" /><glyph d="M211 -194Q171 -194 136 -185Q101 -176 73 -161L64 -37Q94 -53 129 -63Q164 -73 203 -73Q252 -73 279 -51.5Q306 -30 306 14Q306 69 253 98.5Q200 128 102 129L121 495H447L436 362H239L230 237Q333 224 390 170Q447 116 447 24Q447 -83 384 -138.5Q321 -194 211 -194Z" glyph-name="five.tosf" horiz-adv-x="540" /><glyph d="M84 0V376H37L30 474L67 484Q79 487 83.5 494.5Q88 502 88 518V525Q88 615 146.5 668.5Q205 722 306 722Q314 722 325 721.5Q336 721 343 720L353 603Q345 604 336.5 604.5Q328 605 321 605Q271 605 245.5 583Q220 561 220 512V495H332V376H221V0ZM572 -7Q476 -2 434 39Q392 80 392 178V550Q392 594 390.5 633.5Q389 673 385 710L523 716Q524 708 525 694Q526 680 526.5 664Q527 648 527.5 632.5Q528 617 528 605V183Q528 146 540.5 131.5Q553 117 585 111Z" glyph-name="fl" horiz-adv-x="604" unicode="&#64258;" /><glyph d="M67 0V518H453L442 401H206V310H427V195H206V0ZM549 0V518H688V121H914L902 0Z" glyph-name="fl.smcp" horiz-adv-x="933" /><glyph d="M297 0V128H17L11 186L269 642L425 650V241H503L492 128H425V0ZM174 241H297V465Z" glyph-name="four" horiz-adv-x="533" unicode="4" /><glyph d="M178 -6V58H22L18 107L161 349L263 352V132H305L298 58H263V-6ZM113 132H178V248Z" glyph-name="four.dnom" horiz-adv-x="334" /><glyph d="M178 290V354H22L18 403L161 645L263 648V428H305L298 354H263V290ZM113 428H178V544Z" glyph-name="four.numr" horiz-adv-x="334" /><glyph d="M306 -190V9H24L19 67L260 490L432 500V124H515L506 9H432V-180ZM183 124H306V341Z" glyph-name="four.osf" horiz-adv-x="545" /><glyph d="M271 0V87H24L18 141L231 515L398 522V197H466L455 87H398V0ZM176 197H271V371Z" glyph-name="four.smcp" horiz-adv-x="496" /><glyph d="M178 370V434H22L18 483L161 725L263 728V508H305L298 434H263V370ZM113 508H178V624Z" glyph-name="four.sup" horiz-adv-x="334" /><glyph d="M299 0V128H19L13 186L271 642L427 650V241H505L494 128H427V0ZM176 241H299V465Z" glyph-name="four.tf" horiz-adv-x="540" /><glyph d="M299 -190V9H17L12 67L253 490L425 500V124H508L499 9H425V-180ZM176 124H299V341Z" glyph-name="four.tosf" horiz-adv-x="540" /><glyph d="M73 0H-38L330 646H442Z" glyph-name="fraction" horiz-adv-x="404" unicode="&#8260;" /><glyph d="M226 -233Q130 -233 76 -195.5Q22 -158 22 -97Q22 -54 47 -25.5Q72 3 118 13Q99 23 89 40Q79 57 79 80Q79 106 94.5 128Q110 150 138 160Q89 185 64 226Q39 267 39 322Q39 409 94.5 458Q150 507 237 507Q279 507 312.5 499.5Q346 492 380 492Q399 492 420 494Q441 496 457 501L471 387Q464 384 456 382.5Q448 381 440 380Q433 379 425 379Q417 379 412 380Q419 369 424 350Q429 331 429 313Q429 232 382 190.5Q335 149 239 142Q222 141 209 133Q196 125 196 111Q196 95 209 88.5Q222 82 253 82H339Q416 82 454 46Q492 10 492 -50Q492 -130 420 -181.5Q348 -233 226 -233ZM235 244Q268 244 285 265Q302 286 302 325Q302 363 284.5 384.5Q267 406 235 406Q204 406 186 384.5Q168 363 168 325Q168 287 185.5 265.5Q203 244 235 244ZM240 -136Q294 -136 325.5 -119.5Q357 -103 357 -73Q357 -51 341.5 -39Q326 -27 297 -27H231Q190 -27 169 -41Q148 -55 148 -80Q148 -108 171 -122Q194 -136 240 -136Z" glyph-name="g" horiz-adv-x="503" unicode="g" /><glyph d="M206 -234Q165 -234 125.5 -227Q86 -220 54 -208L66 -83Q102 -98 134 -106Q166 -114 208 -114Q278 -114 310 -81Q342 -48 342 12V49Q326 21 297 4.5Q268 -12 228 -12Q138 -12 87 57Q36 126 36 244Q36 363 100.5 434.5Q165 506 276 506Q339 506 394 489.5Q449 473 485 447Q482 417 480 379.5Q478 342 478 296V42Q478 -109 410 -171.5Q342 -234 206 -234ZM259 108Q300 108 322 146Q344 184 344 256V366Q330 378 311.5 384Q293 390 271 390Q223 390 198.5 357.5Q174 325 174 257Q174 183 195 145.5Q216 108 259 108Z" glyph-name="g.alt" horiz-adv-x="541" /><glyph d="M299 -13Q170 -13 103.5 60.5Q37 134 37 259Q37 382 109 456.5Q181 531 308 531Q349 531 392 522.5Q435 514 465 501L451 380Q426 393 388 401Q350 409 319 409Q250 409 215 371Q180 333 180 259Q180 190 211.5 148Q243 106 303 106Q322 106 334.5 108Q347 110 361 114V190H298V292H486V31Q453 11 401.5 -1Q350 -13 299 -13Z" glyph-name="g.smcp" horiz-adv-x="539" /><glyph d="M235 561Q170 561 133 601Q96 641 96 715H187Q189 683 201 666Q213 649 235 649Q257 649 269 666Q281 683 283 715H374Q374 641 337 601Q300 561 235 561ZM226 -233Q130 -233 76 -195.5Q22 -158 22 -97Q22 -54 47 -25.5Q72 3 118 13Q99 23 89 40Q79 57 79 80Q79 106 94.5 128Q110 150 138 160Q89 185 64 226Q39 267 39 322Q39 409 94.5 458Q150 507 237 507Q279 507 312.5 499.5Q346 492 380 492Q399 492 420 494Q441 496 457 501L471 387Q464 384 456 382.5Q448 381 440 380Q433 379 425 379Q417 379 412 380Q419 369 424 350Q429 331 429 313Q429 232 382 190.5Q335 149 239 142Q222 141 209 133Q196 125 196 111Q196 95 209 88.5Q222 82 253 82H339Q416 82 454 46Q492 10 492 -50Q492 -130 420 -181.5Q348 -233 226 -233ZM235 244Q268 244 285 265Q302 286 302 325Q302 363 284.5 384.5Q267 406 235 406Q204 406 186 384.5Q168 363 168 325Q168 287 185.5 265.5Q203 244 235 244ZM240 -136Q294 -136 325.5 -119.5Q357 -103 357 -73Q357 -51 341.5 -39Q326 -27 297 -27H231Q190 -27 169 -41Q148 -55 148 -80Q148 -108 171 -122Q194 -136 240 -136Z" glyph-name="gbreve" horiz-adv-x="503" unicode="&#287;" /><glyph d="M262 561Q197 561 160 601Q123 641 123 715H214Q216 683 228 666Q240 649 262 649Q284 649 296 666Q308 683 310 715H401Q401 641 364 601Q327 561 262 561ZM206 -234Q165 -234 125.5 -227Q86 -220 54 -208L66 -83Q102 -98 134 -106Q166 -114 208 -114Q278 -114 310 -81Q342 -48 342 12V49Q326 21 297 4.5Q268 -12 228 -12Q138 -12 87 57Q36 126 36 244Q36 363 100.5 434.5Q165 506 276 506Q339 506 394 489.5Q449 473 485 447Q482 417 480 379.5Q478 342 478 296V42Q478 -109 410 -171.5Q342 -234 206 -234ZM259 108Q300 108 322 146Q344 184 344 256V366Q330 378 311.5 384Q293 390 271 390Q223 390 198.5 357.5Q174 325 174 257Q174 183 195 145.5Q216 108 259 108Z" glyph-name="gbreve.alt" horiz-adv-x="541" /><glyph d="M290 553Q217 553 179 593Q141 633 135 699H236Q239 671 252.5 656Q266 641 290 641Q313 641 327 656Q341 671 345 699H443Q437 633 400 593Q363 553 290 553ZM299 -13Q170 -13 103.5 60.5Q37 134 37 259Q37 382 109 456.5Q181 531 308 531Q349 531 392 522.5Q435 514 465 501L451 380Q426 393 388 401Q350 409 319 409Q250 409 215 371Q180 333 180 259Q180 190 211.5 148Q243 106 303 106Q322 106 334.5 108Q347 110 361 114V190H298V292H486V31Q453 11 401.5 -1Q350 -13 299 -13Z" glyph-name="gbreve.smcp" horiz-adv-x="539" /><glyph d="M82 565 173 713 304 717 389 565H274L235 635L196 565ZM226 -233Q130 -233 76 -195.5Q22 -158 22 -97Q22 -54 47 -25.5Q72 3 118 13Q99 23 89 40Q79 57 79 80Q79 106 94.5 128Q110 150 138 160Q89 185 64 226Q39 267 39 322Q39 409 94.5 458Q150 507 237 507Q279 507 312.5 499.5Q346 492 380 492Q399 492 420 494Q441 496 457 501L471 387Q464 384 456 382.5Q448 381 440 380Q433 379 425 379Q417 379 412 380Q419 369 424 350Q429 331 429 313Q429 232 382 190.5Q335 149 239 142Q222 141 209 133Q196 125 196 111Q196 95 209 88.5Q222 82 253 82H339Q416 82 454 46Q492 10 492 -50Q492 -130 420 -181.5Q348 -233 226 -233ZM235 244Q268 244 285 265Q302 286 302 325Q302 363 284.5 384.5Q267 406 235 406Q204 406 186 384.5Q168 363 168 325Q168 287 185.5 265.5Q203 244 235 244ZM240 -136Q294 -136 325.5 -119.5Q357 -103 357 -73Q357 -51 341.5 -39Q326 -27 297 -27H231Q190 -27 169 -41Q148 -55 148 -80Q148 -108 171 -122Q194 -136 240 -136Z" glyph-name="gcircumflex" horiz-adv-x="503" unicode="&#285;" /><glyph d="M109 565 200 713 331 717 416 565H301L262 635L223 565ZM206 -234Q165 -234 125.5 -227Q86 -220 54 -208L66 -83Q102 -98 134 -106Q166 -114 208 -114Q278 -114 310 -81Q342 -48 342 12V49Q326 21 297 4.5Q268 -12 228 -12Q138 -12 87 57Q36 126 36 244Q36 363 100.5 434.5Q165 506 276 506Q339 506 394 489.5Q449 473 485 447Q482 417 480 379.5Q478 342 478 296V42Q478 -109 410 -171.5Q342 -234 206 -234ZM259 108Q300 108 322 146Q344 184 344 256V366Q330 378 311.5 384Q293 390 271 390Q223 390 198.5 357.5Q174 325 174 257Q174 183 195 145.5Q216 108 259 108Z" glyph-name="gcircumflex.alt" horiz-adv-x="541" /><glyph d="M136 563 227 692 352 693 444 563H334L288 621L242 563ZM299 -13Q170 -13 103.5 60.5Q37 134 37 259Q37 382 109 456.5Q181 531 308 531Q349 531 392 522.5Q435 514 465 501L451 380Q426 393 388 401Q350 409 319 409Q250 409 215 371Q180 333 180 259Q180 190 211.5 148Q243 106 303 106Q322 106 334.5 108Q347 110 361 114V190H298V292H486V31Q453 11 401.5 -1Q350 -13 299 -13Z" glyph-name="gcircumflex.smcp" horiz-adv-x="539" /><glyph d="M178 565V599Q178 654 188 694Q198 734 223 774L326 764Q304 718 296.5 679.5Q289 641 289 580V565ZM226 -233Q130 -233 76 -195.5Q22 -158 22 -97Q22 -54 47 -25.5Q72 3 118 13Q99 23 89 40Q79 57 79 80Q79 106 94.5 128Q110 150 138 160Q89 185 64 226Q39 267 39 322Q39 409 94.5 458Q150 507 237 507Q279 507 312.5 499.5Q346 492 380 492Q399 492 420 494Q441 496 457 501L471 387Q464 384 456 382.5Q448 381 440 380Q433 379 425 379Q417 379 412 380Q419 369 424 350Q429 331 429 313Q429 232 382 190.5Q335 149 239 142Q222 141 209 133Q196 125 196 111Q196 95 209 88.5Q222 82 253 82H339Q416 82 454 46Q492 10 492 -50Q492 -130 420 -181.5Q348 -233 226 -233ZM235 244Q268 244 285 265Q302 286 302 325Q302 363 284.5 384.5Q267 406 235 406Q204 406 186 384.5Q168 363 168 325Q168 287 185.5 265.5Q203 244 235 244ZM240 -136Q294 -136 325.5 -119.5Q357 -103 357 -73Q357 -51 341.5 -39Q326 -27 297 -27H231Q190 -27 169 -41Q148 -55 148 -80Q148 -108 171 -122Q194 -136 240 -136Z" glyph-name="gcommaaccent" horiz-adv-x="503" unicode="&#291;" /><glyph d="M206 565V599Q206 654 216 694Q226 734 251 774L354 764Q332 718 324.5 679.5Q317 641 317 580V565ZM206 -234Q165 -234 125.5 -227Q86 -220 54 -208L66 -83Q102 -98 134 -106Q166 -114 208 -114Q278 -114 310 -81Q342 -48 342 12V49Q326 21 297 4.5Q268 -12 228 -12Q138 -12 87 57Q36 126 36 244Q36 363 100.5 434.5Q165 506 276 506Q339 506 394 489.5Q449 473 485 447Q482 417 480 379.5Q478 342 478 296V42Q478 -109 410 -171.5Q342 -234 206 -234ZM259 108Q300 108 322 146Q344 184 344 256V366Q330 378 311.5 384Q293 390 271 390Q223 390 198.5 357.5Q174 325 174 257Q174 183 195 145.5Q216 108 259 108Z" glyph-name="gcommaaccent.alt" horiz-adv-x="541" /><glyph d="M299 -13Q170 -13 103.5 60.5Q37 134 37 259Q37 382 109 456.5Q181 531 308 531Q349 531 392 522.5Q435 514 465 501L451 380Q426 393 388 401Q350 409 319 409Q250 409 215 371Q180 333 180 259Q180 190 211.5 148Q243 106 303 106Q322 106 334.5 108Q347 110 361 114V190H298V292H486V31Q453 11 401.5 -1Q350 -13 299 -13ZM303 -258 201 -248Q220 -203 227 -166.5Q234 -130 234 -71V-56H345V-90Q345 -141 336.5 -179.5Q328 -218 303 -258Z" glyph-name="gcommaaccent.smcp" horiz-adv-x="539" /><glyph d="M166 581V701H304V581ZM226 -233Q130 -233 76 -195.5Q22 -158 22 -97Q22 -54 47 -25.5Q72 3 118 13Q99 23 89 40Q79 57 79 80Q79 106 94.5 128Q110 150 138 160Q89 185 64 226Q39 267 39 322Q39 409 94.5 458Q150 507 237 507Q279 507 312.5 499.5Q346 492 380 492Q399 492 420 494Q441 496 457 501L471 387Q464 384 456 382.5Q448 381 440 380Q433 379 425 379Q417 379 412 380Q419 369 424 350Q429 331 429 313Q429 232 382 190.5Q335 149 239 142Q222 141 209 133Q196 125 196 111Q196 95 209 88.5Q222 82 253 82H339Q416 82 454 46Q492 10 492 -50Q492 -130 420 -181.5Q348 -233 226 -233ZM235 244Q268 244 285 265Q302 286 302 325Q302 363 284.5 384.5Q267 406 235 406Q204 406 186 384.5Q168 363 168 325Q168 287 185.5 265.5Q203 244 235 244ZM240 -136Q294 -136 325.5 -119.5Q357 -103 357 -73Q357 -51 341.5 -39Q326 -27 297 -27H231Q190 -27 169 -41Q148 -55 148 -80Q148 -108 171 -122Q194 -136 240 -136Z" glyph-name="gdotaccent" horiz-adv-x="503" unicode="&#289;" /><glyph d="M193 581V701H331V581ZM206 -234Q165 -234 125.5 -227Q86 -220 54 -208L66 -83Q102 -98 134 -106Q166 -114 208 -114Q278 -114 310 -81Q342 -48 342 12V49Q326 21 297 4.5Q268 -12 228 -12Q138 -12 87 57Q36 126 36 244Q36 363 100.5 434.5Q165 506 276 506Q339 506 394 489.5Q449 473 485 447Q482 417 480 379.5Q478 342 478 296V42Q478 -109 410 -171.5Q342 -234 206 -234ZM259 108Q300 108 322 146Q344 184 344 256V366Q330 378 311.5 384Q293 390 271 390Q223 390 198.5 357.5Q174 325 174 257Q174 183 195 145.5Q216 108 259 108Z" glyph-name="gdotaccent.alt" horiz-adv-x="541" /><glyph d="M220 566V685H360V566ZM299 -13Q170 -13 103.5 60.5Q37 134 37 259Q37 382 109 456.5Q181 531 308 531Q349 531 392 522.5Q435 514 465 501L451 380Q426 393 388 401Q350 409 319 409Q250 409 215 371Q180 333 180 259Q180 190 211.5 148Q243 106 303 106Q322 106 334.5 108Q347 110 361 114V190H298V292H486V31Q453 11 401.5 -1Q350 -13 299 -13Z" glyph-name="gdotaccent.smcp" horiz-adv-x="539" /><glyph d="M418 -12Q378 -12 346.5 -4.5Q315 3 282 19L275 139Q315 117 350 107.5Q385 98 419 98Q452 98 469 108.5Q486 119 486 141Q486 159 474 169Q462 179 434 188L395 201Q342 220 310.5 252Q279 284 279 340Q279 383 296.5 408Q314 433 335.5 452Q357 471 374.5 491Q392 511 392 544Q392 573 368.5 591Q345 609 304 609Q255 609 236 584Q217 559 217 511V0H81V385H32L27 474L64 484Q76 487 80 494.5Q84 502 84 518V526Q84 615 145 668.5Q206 722 307 722Q406 722 469 677.5Q532 633 532 549Q532 501 512.5 473.5Q493 446 469.5 428Q446 410 426.5 395Q407 380 407 357Q407 338 418.5 327.5Q430 317 459 307L502 290Q561 271 590 238Q619 205 619 148Q619 73 566 30.5Q513 -12 418 -12Z" glyph-name="germandbls" horiz-adv-x="639" unicode="&#223;" /><glyph d="M324 -7Q303 -7 277.5 -4.5Q252 -2 234 3L223 108Q243 101 264.5 98Q286 95 307 95Q350 95 371.5 110Q393 125 393 159Q393 194 356 212.5Q319 231 255 232L248 283L344 413H273Q227 413 205.5 396Q184 379 184 342V3H57V351Q57 428 111.5 474Q166 520 259 520H501L507 461L393 305Q450 295 487.5 256.5Q525 218 525 157Q525 80 473.5 36.5Q422 -7 324 -7Z" glyph-name="germandbls.smcp" horiz-adv-x="551" /><glyph d="M200 567 153 630Q137 652 123.5 677Q110 702 104 721L229 725Q233 709 244.5 685.5Q256 662 265 648L312 567Z" glyph-name="grave" horiz-adv-x="500" unicode="`" /><glyph d="M192 691 42 815H191L318 691Z" glyph-name="grave.case" horiz-adv-x="500" /><glyph d="M59 634 498 373V273L59 12L41 154L334 318L41 483Z" glyph-name="greater" horiz-adv-x="540" unicode="&gt;" /><glyph d="M497 188H58V299H323L58 530L78 656L497 286ZM497 0H57V106H497Z" glyph-name="greaterequal" horiz-adv-x="540" unicode="&#8805;" /><glyph d="M120 61 15 246V248L126 434H247L141 250L247 61ZM327 61 222 246V248L333 434H454L348 250L454 61Z" glyph-name="guillemotleft" horiz-adv-x="465" unicode="&#171;" /><glyph d="M136 99 27 306V339L136 547H271L154 322L271 99ZM344 99 235 306V339L344 547H479L362 322L479 99Z" glyph-name="guillemotleft.case" horiz-adv-x="491" /><glyph d="M138 434 243 249V247L132 61H11L117 245L11 434ZM345 434 450 249V247L339 61H218L324 245L218 434Z" glyph-name="guillemotright" horiz-adv-x="465" unicode="&#187;" /><glyph d="M148 546 257 339V306L148 98H13L130 323L13 546ZM355 546 464 339V306L355 98H220L337 323L220 546Z" glyph-name="guillemotright.case" horiz-adv-x="491" /><glyph d="M120 61 15 246V248L126 434H247L141 250L247 61Z" glyph-name="guilsinglleft" horiz-adv-x="258" unicode="&#8249;" /><glyph d="M136 99 27 306V339L136 547H271L154 322L271 99Z" glyph-name="guilsinglleft.case" horiz-adv-x="284" /><glyph d="M138 434 243 249V247L132 61H11L117 245L11 434Z" glyph-name="guilsinglright" horiz-adv-x="258" unicode="&#8250;" /><glyph d="M148 546 257 339V306L148 98H13L130 323L13 546Z" glyph-name="guilsinglright.case" horiz-adv-x="284" /><glyph d="M64 0V555Q64 604 62.5 638.5Q61 673 57 710L194 716Q195 708 196.5 694.5Q198 681 198.5 665.5Q199 650 199.5 635Q200 620 200 610V425Q219 466 253.5 486.5Q288 507 333 507Q409 507 452 460Q495 413 495 318V0H359V287Q359 333 342 357Q325 381 293 381Q250 381 225 341Q200 301 200 218V0Z" glyph-name="h" horiz-adv-x="554" unicode="h" /><glyph d="M67 0V518H206V335H389V518H528V0H389V212H206V0Z" glyph-name="h.smcp" horiz-adv-x="595" /><glyph d="M64 0V553H15V644H62Q61 661 59.5 677.5Q58 694 57 710L194 716Q196 706 197 684.5Q198 663 199 644H292V553H200V425Q219 466 253.5 486.5Q288 507 333 507Q409 507 452 460Q495 413 495 318V0H359V287Q359 333 342 357Q325 381 293 381Q250 381 225 341Q200 301 200 218V0Z" glyph-name="hbar" horiz-adv-x="554" unicode="&#295;" /><glyph d="M67 0V382H34V467H67V518H206V467H389V518H528V467H562V382H528V0H389V212H206V0ZM206 335H389V382H206Z" glyph-name="hbar.smcp" horiz-adv-x="595" /><glyph d="M-26 745 65 893 196 897 281 745H166L127 815L88 745ZM64 0V555Q64 604 62.5 638.5Q61 673 57 710L194 716Q195 708 196.5 694.5Q198 681 198.5 665.5Q199 650 199.5 635Q200 620 200 610V425Q219 466 253.5 486.5Q288 507 333 507Q409 507 452 460Q495 413 495 318V0H359V287Q359 333 342 357Q325 381 293 381Q250 381 225 341Q200 301 200 218V0Z" glyph-name="hcircumflex" horiz-adv-x="554" unicode="&#293;" /><glyph d="M145 563 236 692 361 693 453 563H343L297 621L251 563ZM67 0V518H206V335H389V518H528V0H389V212H206V0Z" glyph-name="hcircumflex.smcp" horiz-adv-x="595" /><glyph d="M272 566Q296 597 325.5 641Q355 685 371 715H480Q471 699 457 679Q443 659 427 638.5Q411 618 394.5 598.5Q378 579 365 566ZM136 566Q145 582 157 603Q169 624 180.5 645Q192 666 201.5 685Q211 704 216 715H323Q315 699 303 679Q291 659 278 638.5Q265 618 252 599Q239 580 229 566Z" glyph-name="hungarumlaut" horiz-adv-x="500" unicode="&#733;" /><glyph d="M263 691 378 808H490L359 691ZM123 691 205 808H323L212 691Z" glyph-name="hungarumlaut.case" horiz-adv-x="500" /><glyph d="M50 201V311L284 322V212Z" glyph-name="hyphen" horiz-adv-x="334" unicode="-" /><glyph d="M50 283V399H286V283Z" glyph-name="hyphen.case" horiz-adv-x="336" /><glyph d="M63 581V701H201V581ZM64 0V495H200V0Z" glyph-name="i" horiz-adv-x="264" unicode="i" /><glyph d="M63 581V701H201V581ZM64 0V495H200V0Z" glyph-name="i.latn_TRK" horiz-adv-x="264" /><glyph d="M67 0V518H206V0Z" glyph-name="i.smcp" horiz-adv-x="273" /><glyph d="M70 567 117 648Q126 662 137 685Q148 708 153 725L278 721Q272 702 256.5 674.5Q241 647 222 622L182 567ZM64 0V495H200V0Z" glyph-name="iacute" horiz-adv-x="264" unicode="&#237;" /><glyph d="M70 563 197 687H346L197 563ZM67 0V518H206V0Z" glyph-name="iacute.smcp" horiz-adv-x="273" /><glyph d="M132 561Q67 561 30 601Q-7 641 -7 715H84Q86 683 98 666Q110 649 132 649Q154 649 166 666Q178 683 180 715H271Q271 641 234 601Q197 561 132 561ZM64 0V495H200V0Z" glyph-name="ibreve" horiz-adv-x="264" unicode="&#301;" /><glyph d="M138 553Q65 553 27 593Q-11 633 -17 699H84Q87 671 100.5 656Q114 641 138 641Q161 641 175 656Q189 671 193 699H291Q285 633 248 593Q211 553 138 553ZM67 0V518H206V0Z" glyph-name="ibreve.smcp" horiz-adv-x="273" /><glyph d="M-21 565 70 713 201 717 286 565H171L132 635L93 565ZM64 0V495H200V0Z" glyph-name="icircumflex" horiz-adv-x="264" unicode="&#238;" /><glyph d="M-16 563 75 692 200 693 292 563H182L136 621L90 563ZM67 0V518H206V0Z" glyph-name="icircumflex.smcp" horiz-adv-x="273" /><glyph d="M-25 581V701H105V581ZM159 581V701H289V581ZM64 0V495H200V0Z" glyph-name="idieresis" horiz-adv-x="264" unicode="&#239;" /><glyph d="M-24 569V682H110V569ZM166 569V682H300V569ZM67 0V518H206V0Z" glyph-name="idieresis.smcp" horiz-adv-x="273" /><glyph d="M65 566V685H205V566ZM67 0V518H206V0Z" glyph-name="idotaccent.smcp" horiz-adv-x="273" /><glyph d="M82 567 35 630Q19 652 5.5 677Q-8 702 -14 721L111 725Q115 709 126.5 685.5Q138 662 147 648L194 567ZM64 0V495H200V0Z" glyph-name="igrave" horiz-adv-x="264" unicode="&#236;" /><glyph d="M80 563 -70 687H79L206 563ZM67 0V518H206V0Z" glyph-name="igrave.smcp" horiz-adv-x="273" /><glyph d="M326 581V701H464V581ZM63 581V701H201V581ZM255 -233 243 -118Q293 -108 310 -82Q327 -56 327 9V495H463V-4Q463 -111 413 -166Q363 -221 255 -233ZM64 0V495H200V0Z" glyph-name="ij" horiz-adv-x="526" unicode="&#307;" /><glyph d="M67 0V518H206V0ZM296 -13 288 103Q345 107 370.5 133Q396 159 396 218V518H535V204Q535 93 474 42Q413 -9 296 -13Z" glyph-name="ij.smcp" horiz-adv-x="591" /><glyph d="M1 594V684H263V594ZM64 0V495H200V0Z" glyph-name="imacron" horiz-adv-x="264" unicode="&#299;" /><glyph d="M3 580V670H273V580ZM67 0V518H206V0Z" glyph-name="imacron.smcp" horiz-adv-x="273" /><glyph d="M234 94Q187 94 151 109Q115 124 91 150Q67 176 55 211Q43 246 43 286Q43 326 55 361Q67 396 91 422Q115 448 151 463Q187 478 234 478Q285 478 325.5 453Q366 428 401 386Q436 428 476.5 453Q517 478 568 478Q615 478 650.5 463Q686 448 710 422Q734 396 746.5 361Q759 326 759 286Q759 246 746.5 211Q734 176 710 150.5Q686 125 650.5 110Q615 95 568 95Q517 95 476 119.5Q435 144 400 188Q365 145 324.5 119.5Q284 94 234 94ZM233 220Q256 220 276.5 238.5Q297 257 316 282Q297 307 276.5 326.5Q256 346 233 346Q211 346 193.5 329.5Q176 313 176 282Q176 253 193.5 236.5Q211 220 233 220ZM484 282Q503 257 524 238.5Q545 220 568 220Q590 220 607.5 236.5Q625 253 625 282Q625 313 607.5 329Q590 345 568 345Q545 345 524 326Q503 307 484 282Z" glyph-name="infinity" horiz-adv-x="801" unicode="&#8734;" /><glyph d="M47 -231Q40 -231 28.5 -230.5Q17 -230 10 -229V-113Q16 -114 22 -114Q28 -114 35 -114Q80 -114 105.5 -93.5Q131 -73 134 -24L173 531Q179 619 235.5 670Q292 721 391 721Q398 721 409.5 720.5Q421 720 428 719V603Q422 604 416 604Q410 604 403 604Q358 604 332.5 583.5Q307 563 303 514L265 -41Q259 -129 202.5 -180Q146 -231 47 -231Z" glyph-name="integral" horiz-adv-x="444" unicode="&#8747;" /><glyph d="M63 581V701H201V581ZM113 -228Q69 -228 39.5 -204Q10 -180 10 -135Q10 -98 29.5 -64Q49 -30 86 1L64 3V495H200V2L181 0Q155 -22 133.5 -49Q112 -76 112 -101Q112 -120 121.5 -129Q131 -138 149 -138Q162 -138 174.5 -134.5Q187 -131 199 -124L192 -212Q175 -220 155 -224Q135 -228 113 -228Z" glyph-name="iogonek" horiz-adv-x="264" unicode="&#303;" /><glyph d="M117 -231Q72 -231 42.5 -207Q13 -183 13 -138Q13 -101 32.5 -66.5Q52 -32 92 0L67 1V518H206V1L188 0Q162 -22 139 -50Q116 -78 116 -104Q116 -123 125.5 -132Q135 -141 152 -141Q165 -141 177.5 -137.5Q190 -134 203 -127L195 -215Q178 -223 158.5 -227Q139 -231 117 -231Z" glyph-name="iogonek.smcp" horiz-adv-x="273" /><glyph d="M-6 573Q-6 636 14 669Q34 702 75 702Q107 702 125 689Q143 676 165 676Q176 676 180.5 686.5Q185 697 185 715L279 709Q279 646 256 611.5Q233 577 190 577Q156 577 138.5 591Q121 605 103 605Q93 605 89 598Q85 591 84 573ZM64 0V495H200V0Z" glyph-name="itilde" horiz-adv-x="264" unicode="&#297;" /><glyph d="M-27 564Q-26 633 -1.5 663.5Q23 694 64 694Q83 694 98.5 689Q114 684 126.5 678Q139 672 150.5 667Q162 662 174 662Q187 662 193 675Q199 688 200 704L281 698Q280 637 259 602.5Q238 568 184 568Q167 568 152.5 573.5Q138 579 125.5 585Q113 591 102 596.5Q91 602 81 602Q70 602 63.5 592.5Q57 583 56 564ZM67 0V518H206V0Z" glyph-name="itilde.smcp" horiz-adv-x="273" /><glyph d="M63 581V701H201V581ZM-8 -233 -20 -118Q30 -108 47 -82Q64 -56 64 9V495H200V-4Q200 -111 150 -166Q100 -221 -8 -233Z" glyph-name="j" horiz-adv-x="264" unicode="j" /><glyph d="M26 -13 18 103Q75 107 100.5 133Q126 159 126 218V518H265V204Q265 93 204 42Q143 -9 26 -13Z" glyph-name="j.smcp" horiz-adv-x="321" /><glyph d="M-23 565 68 713 199 717 284 565H169L130 635L91 565ZM-14 -234 -23 -119Q29 -106 46.5 -79Q64 -52 64 9V495H200V-9Q200 -111 151.5 -166Q103 -221 -14 -234Z" glyph-name="jcircumflex" horiz-adv-x="264" unicode="&#309;" /><glyph d="M39 563 130 692 255 693 347 563H237L191 621L145 563ZM26 -13 18 103Q75 107 100.5 133Q126 159 126 218V518H265V204Q265 93 204 42Q143 -9 26 -13Z" glyph-name="jcircumflex.smcp" horiz-adv-x="321" /><glyph d="M64 0V555Q64 599 62.5 636Q61 673 57 710L194 716Q195 708 196.5 694.5Q198 681 198.5 665.5Q199 650 199.5 635Q200 620 200 610V291L273 372Q307 410 326 437Q345 464 361 498L501 492Q488 455 457 410.5Q426 366 388 329L333 274L513 0H361L200 248V0Z" glyph-name="k" horiz-adv-x="512" unicode="k" /><glyph d="M67 0V518H206V296L389 518H540L339 278L543 0H382L206 241V0Z" glyph-name="k.smcp" horiz-adv-x="541" /><glyph d="M64 0V555Q64 599 62.5 636Q61 673 57 710L194 716Q195 708 196.5 694.5Q198 681 198.5 665.5Q199 650 199.5 635Q200 620 200 610V291L273 372Q307 410 326 437Q345 464 361 498L501 492Q488 455 457 410.5Q426 366 388 329L333 274L513 0H361L200 248V0ZM294 -258 189 -248Q210 -203 216.5 -166.5Q223 -130 223 -71V-56H336V-90Q336 -141 327.5 -179.5Q319 -218 294 -258Z" glyph-name="kcommaaccent" horiz-adv-x="512" unicode="&#311;" /><glyph d="M67 0V518H206V296L389 518H540L339 278L543 0H382L206 241V0ZM289 -258 187 -248Q206 -203 213 -166.5Q220 -130 220 -71V-56H331V-90Q331 -141 322.5 -179.5Q314 -218 289 -258Z" glyph-name="kcommaaccent.smcp" horiz-adv-x="541" /><glyph d="M65 0V338Q65 382 63.5 419Q62 456 58 493L196 500Q197 492 198 478.5Q199 465 199.5 449.5Q200 434 200.5 418.5Q201 403 201 393V285L275 367Q309 404 328.5 434Q348 464 362 498L503 492Q490 454 458.5 407.5Q427 361 389 323L335 269L515 0H362L201 243V0Z" glyph-name="kgreenlandic" horiz-adv-x="510" unicode="&#312;" /><glyph d="M234 -7Q138 -2 96 39Q54 80 54 178V550Q54 594 52.5 633.5Q51 673 47 710L185 716Q186 708 187 694Q188 680 188.5 664Q189 648 189.5 632.5Q190 617 190 605V183Q190 146 202.5 131.5Q215 117 247 111Z" glyph-name="l" horiz-adv-x="266" unicode="l" /><glyph d="M67 0V518H206V121H432L420 0Z" glyph-name="l.smcp" horiz-adv-x="451" /><glyph d="M66 756 113 837Q122 851 133 874Q144 897 149 914L274 910Q268 891 252.5 863.5Q237 836 218 811L178 756ZM234 -7Q138 -2 96 39Q54 80 54 178V550Q54 594 52.5 633.5Q51 673 47 710L185 716Q186 708 187 694Q188 680 188.5 664Q189 648 189.5 632.5Q190 617 190 605V183Q190 146 202.5 131.5Q215 117 247 111Z" glyph-name="lacute" horiz-adv-x="266" unicode="&#314;" /><glyph d="M69 563 196 687H345L196 563ZM67 0V518H206V121H432L420 0Z" glyph-name="lacute.smcp" horiz-adv-x="451" /><glyph d="M234 -7Q138 -2 96 39Q54 80 54 178V550Q54 594 52.5 633.5Q51 673 47 710L185 716Q186 708 187 694Q188 680 188.5 664Q189 648 189.5 632.5Q190 617 190 605V183Q190 146 202.5 131.5Q215 117 247 111ZM224 526Q228 543 233 567Q238 591 241.5 617Q245 643 248 668Q251 693 252 712H354Q353 692 348.5 667Q344 642 338.5 616.5Q333 591 326.5 567.5Q320 544 314 526Z" glyph-name="lcaron" horiz-adv-x="266" unicode="&#318;" /><glyph d="M266 320Q271 338 277 365Q283 392 288 420.5Q293 449 297.5 475Q302 501 304 518H424Q418 497 410 470.5Q402 444 393 417.5Q384 391 374.5 365.5Q365 340 356 320ZM67 0V518H206V121H432L420 0Z" glyph-name="lcaron.smcp" horiz-adv-x="451" /><glyph d="M234 -7Q138 -2 96 39Q54 80 54 178V550Q54 594 52.5 633.5Q51 673 47 710L185 716Q186 708 187 694Q188 680 188.5 664Q189 648 189.5 632.5Q190 617 190 605V183Q190 146 202.5 131.5Q215 117 247 111ZM164 -258 59 -248Q80 -203 86.5 -166.5Q93 -130 93 -71V-56H206V-90Q206 -141 197.5 -179.5Q189 -218 164 -258Z" glyph-name="lcommaaccent" horiz-adv-x="266" unicode="&#316;" /><glyph d="M67 0V518H206V121H432L420 0ZM259 -258 157 -248Q176 -203 183 -166.5Q190 -130 190 -71V-56H301V-90Q301 -141 292.5 -179.5Q284 -218 259 -258Z" glyph-name="lcommaaccent.smcp" horiz-adv-x="451" /><glyph d="M611 -7Q515 -2 473 39Q431 80 431 178V550Q431 594 429.5 633.5Q428 673 424 710L562 716Q563 708 564 694Q565 680 565.5 664Q566 648 566.5 632.5Q567 617 567 605V183Q567 146 579.5 131.5Q592 117 624 111ZM234 -7Q138 -2 96 39Q54 80 54 178V550Q54 594 52.5 633.5Q51 673 47 710L185 716Q186 708 187 694Q188 680 188.5 664Q189 648 189.5 632.5Q190 617 190 605V183Q190 146 202.5 131.5Q215 117 247 111ZM247 328V460H378V328Z" glyph-name="ldot" horiz-adv-x="642" unicode="&#320;" /><glyph d="M502 0V518H641V121H867L855 0ZM67 0V518H206V121H432L420 0ZM295 236V368H426V236Z" glyph-name="ldot.smcp" horiz-adv-x="886" /><glyph d="M480 12 41 273V373L480 634L498 492L205 328L498 163Z" glyph-name="less" horiz-adv-x="540" unicode="&lt;" /><glyph d="M50 188V286L469 656L489 530L224 299H489V188ZM50 0V106H490V0Z" glyph-name="lessequal" horiz-adv-x="540" unicode="&#8804;" /><glyph d="M281 -9Q194 -9 148 34Q102 77 102 155V177L56 141L31 248L102 306V455Q102 546 141 601Q180 656 273 656Q356 656 392 610.5Q428 565 428 504Q428 426 376.5 361.5Q325 297 237 238V196Q237 151 260 130Q283 109 326 109Q339 109 358.5 112Q378 115 393 122L382 6Q364 -1 335 -5Q306 -9 281 -9ZM237 371Q268 407 280.5 438Q293 469 294 495Q295 520 288.5 536.5Q282 553 266 553Q250 553 243.5 539Q237 525 237 491Z" glyph-name="litre" horiz-adv-x="461" unicode="&#8467;" /><glyph d="M349 70V297H43V414H485V70Z" glyph-name="logicalnot" horiz-adv-x="540" unicode="&#172;" /><glyph d="M212 -10 48 306V340L212 656H327L492 340V306L327 -10ZM270 128 362 323 269 518 177 324Z" glyph-name="lozenge" horiz-adv-x="540" unicode="&#9674;" /><glyph d="M234 -7Q138 -2 96 39Q54 80 54 178V278L6 245V354L54 387V550Q54 594 52.5 633.5Q51 673 47 710L185 716Q186 708 187 694Q188 680 188.5 664Q189 648 189.5 632.5Q190 617 190 605V477L263 527V416L190 367V183Q190 146 202.5 131.5Q215 117 247 111Z" glyph-name="lslash" horiz-adv-x="266" unicode="&#322;" /><glyph d="M67 0V192L24 170V267L67 289V518H206V360L276 397V299L206 262V121H432L420 0Z" glyph-name="lslash.smcp" horiz-adv-x="451" /><glyph d="M65 0V330Q65 378 63.5 417.5Q62 457 58 492L189 498Q191 486 192.5 460Q194 434 194 416V408Q212 459 248.5 482.5Q285 506 336 506Q388 506 425.5 481Q463 456 477 407Q496 452 534 479Q572 506 623 506Q703 506 743 457Q783 408 783 318V0H647V287Q647 336 631.5 359.5Q616 383 581 383Q539 383 515.5 339Q492 295 492 220V0H356V287Q356 338 340 360.5Q324 383 292 383Q249 383 225 339Q201 295 201 220V0Z" glyph-name="m" horiz-adv-x="842" unicode="m" /><glyph d="M50 0 87 518H256L365 249L477 518H641L678 0H536L519 318L413 67L306 70L205 319L186 0Z" glyph-name="m.smcp" horiz-adv-x="730" /><glyph d="M119 594V684H381V594Z" glyph-name="macron" horiz-adv-x="500" unicode="&#175;" /><glyph d="M115 708V798H385V708Z" glyph-name="macron.case" horiz-adv-x="500" /><glyph d="M64 281V397H475V281Z" glyph-name="minus" horiz-adv-x="540" unicode="&#8722;" /><glyph d="M-15 -234 -24 -119Q28 -106 45.5 -79Q63 -52 63 9V495H199V200Q199 156 214 134.5Q229 113 260 113Q303 113 327.5 164Q352 215 352 310V495H488V154Q488 107 491.5 75Q495 43 502 6L374 -8Q369 9 364.5 33.5Q360 58 360 81Q341 38 310 15.5Q279 -7 239 -11Q229 -12 219 -11.5Q209 -11 199 -10Q199 -14 199 -21Q199 -28 198 -32Q194 -123 144.5 -172.5Q95 -222 -15 -234Z" glyph-name="mu" horiz-adv-x="553" unicode="&#181;" /><glyph d="M46 188 189 344 48 498 138 577 270 433 400 575 488 500 349 347 495 189 406 109 268 258 132 110Z" glyph-name="multiply" horiz-adv-x="540" unicode="&#215;" /><glyph d="M65 0V329Q65 378 63.5 417.5Q62 457 58 492L189 498Q191 485 192.5 457Q194 429 194 415V408Q209 455 246 481Q283 507 334 507Q413 507 453 456Q493 405 493 316V0H357V286Q357 336 341 359.5Q325 383 291 383Q250 383 225.5 341.5Q201 300 201 217V0Z" glyph-name="n" horiz-adv-x="552" unicode="n" /><glyph d="M67 0V518H196L393 227V518H521V2L404 -4L196 295V0Z" glyph-name="n.smcp" horiz-adv-x="588" /><glyph d="M234 567 281 648Q290 662 301 685Q312 708 317 725L442 721Q436 702 420.5 674.5Q405 647 386 622L346 567ZM65 0V329Q65 378 63.5 417.5Q62 457 58 492L189 498Q191 485 192.5 457Q194 429 194 415V408Q209 455 246 481Q283 507 334 507Q413 507 453 456Q493 405 493 316V0H357V286Q357 336 341 359.5Q325 383 291 383Q250 383 225.5 341.5Q201 300 201 217V0Z" glyph-name="nacute" horiz-adv-x="552" unicode="&#324;" /><glyph d="M226 563 353 687H502L353 563ZM67 0V518H196L393 227V518H521V2L404 -4L196 295V0Z" glyph-name="nacute.smcp" horiz-adv-x="588" /><glyph d="M99 442 -6 452Q15 497 21.5 533.5Q28 570 28 629V644H141V610Q141 559 132.5 520.5Q124 482 99 442ZM182 0V329Q182 378 180.5 417.5Q179 457 175 492L306 498Q308 485 309.5 457Q311 429 311 415V408Q326 455 363 481Q400 507 451 507Q530 507 570 456Q610 405 610 316V0H474V286Q474 336 458 359.5Q442 383 408 383Q367 383 342.5 341.5Q318 300 318 217V0Z" glyph-name="napostrophe" horiz-adv-x="670" unicode="&#329;" /><glyph d="M234 566 150 715H239L294 645L348 715H436L345 570ZM65 0V329Q65 378 63.5 417.5Q62 457 58 492L189 498Q191 485 192.5 457Q194 429 194 415V408Q209 455 246 481Q283 507 334 507Q413 507 453 456Q493 405 493 316V0H357V286Q357 336 341 359.5Q325 383 291 383Q250 383 225.5 341.5Q201 300 201 217V0Z" glyph-name="ncaron" horiz-adv-x="552" unicode="&#328;" /><glyph d="M238 559 139 689H249L295 631L341 689H447L348 559ZM67 0V518H196L393 227V518H521V2L404 -4L196 295V0Z" glyph-name="ncaron.smcp" horiz-adv-x="588" /><glyph d="M65 0V329Q65 378 63.5 417.5Q62 457 58 492L189 498Q191 485 192.5 457Q194 429 194 415V408Q209 455 246 481Q283 507 334 507Q413 507 453 456Q493 405 493 316V0H357V286Q357 336 341 359.5Q325 383 291 383Q250 383 225.5 341.5Q201 300 201 217V0ZM296 -258 191 -248Q212 -203 218.5 -166.5Q225 -130 225 -71V-56H338V-90Q338 -141 329.5 -179.5Q321 -218 296 -258Z" glyph-name="ncommaaccent" horiz-adv-x="552" unicode="&#326;" /><glyph d="M67 0V518H196L393 227V518H521V2L404 -4L196 295V0ZM312 -258 210 -248Q229 -203 236 -166.5Q243 -130 243 -71V-56H354V-90Q354 -141 345.5 -179.5Q337 -218 312 -258Z" glyph-name="ncommaaccent.smcp" horiz-adv-x="588" /><glyph d="M255 659Q359 659 423 578Q487 497 487 352Q487 272 460.5 205.5Q434 139 384.5 91.5Q335 44 262 16.5Q189 -11 97 -13L85 108Q184 114 246.5 150.5Q309 187 333 253Q314 240 292 233Q270 226 245 226Q148 226 93.5 283Q39 340 39 435Q39 539 100 599Q161 659 255 659ZM255 539Q217 539 194 514Q171 489 171 440Q171 394 199.5 366Q228 338 278 338Q297 338 319 346.5Q341 355 354 366Q352 447 326.5 493Q301 539 255 539Z" glyph-name="nine" horiz-adv-x="531" unicode="9" /><glyph d="M154 356Q217 356 253.5 311.5Q290 267 290 186Q290 98 227.5 43Q165 -12 62 -14L55 57Q105 61 139.5 77.5Q174 94 190 127Q180 121 166.5 118Q153 115 140 115Q87 115 56 144.5Q25 174 25 232Q25 286 62 321Q99 356 154 356ZM154 279Q135 279 124 266Q113 253 113 231Q113 209 127 198Q141 187 165 187Q174 187 184.5 190Q195 193 205 199Q204 236 191 257.5Q178 279 154 279Z" glyph-name="nine.dnom" horiz-adv-x="322" /><glyph d="M154 652Q217 652 253.5 607.5Q290 563 290 482Q290 394 227.5 339Q165 284 62 282L55 353Q105 357 139.5 373.5Q174 390 190 423Q180 417 166.5 414Q153 411 140 411Q87 411 56 440.5Q25 470 25 528Q25 582 62 617Q99 652 154 652ZM154 575Q135 575 124 562Q113 549 113 527Q113 505 127 494Q141 483 165 483Q174 483 184.5 486Q195 489 205 495Q204 532 191 553.5Q178 575 154 575Z" glyph-name="nine.numr" horiz-adv-x="322" /><glyph d="M251 509Q309 509 353.5 485.5Q398 462 427.5 420Q457 378 472.5 318Q488 258 488 185Q488 106 459 37Q430 -32 376.5 -83.5Q323 -135 246.5 -166Q170 -197 76 -201L66 -87Q177 -76 247 -23.5Q317 29 339 104Q316 89 288.5 82Q261 75 235 75Q138 75 85 132.5Q32 190 32 287Q32 336 48.5 377Q65 418 94 447Q123 476 163.5 492.5Q204 509 251 509ZM251 389Q213 389 190.5 363Q168 337 168 293Q168 242 195.5 216Q223 190 269 190Q288 190 309 197.5Q330 205 349 219Q345 299 320 344Q295 389 251 389Z" glyph-name="nine.osf" horiz-adv-x="526" /><glyph d="M228 535Q328 535 383.5 470.5Q439 406 439 290Q439 222 413 166.5Q387 111 340 71.5Q293 32 225 10Q157 -12 74 -13L64 100Q150 104 204 129Q258 154 281 198Q265 189 246.5 184Q228 179 208 179Q125 179 78.5 224.5Q32 270 32 349Q32 433 86 484Q140 535 228 535ZM230 423Q199 423 182.5 404.5Q166 386 166 352Q166 321 187 304Q208 287 242 287Q258 287 274.5 292Q291 297 304 305Q302 361 282.5 392Q263 423 230 423Z" glyph-name="nine.smcp" horiz-adv-x="477" /><glyph d="M154 732Q217 732 253.5 687.5Q290 643 290 562Q290 474 227.5 419Q165 364 62 362L55 433Q105 437 139.5 453.5Q174 470 190 503Q180 497 166.5 494Q153 491 140 491Q87 491 56 520.5Q25 550 25 608Q25 662 62 697Q99 732 154 732ZM154 655Q135 655 124 642Q113 629 113 607Q113 585 127 574Q141 563 165 563Q174 563 184.5 566Q195 569 205 575Q204 612 191 633.5Q178 655 154 655Z" glyph-name="nine.sup" horiz-adv-x="322" /><glyph d="M258 659Q362 659 426 578Q490 497 490 352Q490 272 463.5 205.5Q437 139 387.5 91.5Q338 44 265 16.5Q192 -11 100 -13L88 108Q187 114 249.5 150.5Q312 187 336 253Q317 240 295 233Q273 226 248 226Q151 226 96.5 283Q42 340 42 435Q42 539 103 599Q164 659 258 659ZM258 539Q220 539 197 514Q174 489 174 440Q174 394 202.5 366Q231 338 281 338Q300 338 322 346.5Q344 355 357 366Q355 447 329.5 493Q304 539 258 539Z" glyph-name="nine.tf" horiz-adv-x="540" /><glyph d="M257 509Q315 509 359.5 485.5Q404 462 433.5 420Q463 378 478.5 318Q494 258 494 185Q494 106 465 37Q436 -32 382.5 -83.5Q329 -135 252.5 -166Q176 -197 82 -201L72 -87Q183 -76 253 -23.5Q323 29 345 104Q322 89 294.5 82Q267 75 241 75Q144 75 91 132.5Q38 190 38 287Q38 336 54.5 377Q71 418 100 447Q129 476 169.5 492.5Q210 509 257 509ZM257 389Q219 389 196.5 363Q174 337 174 293Q174 242 201.5 216Q229 190 275 190Q294 190 315 197.5Q336 205 355 219Q351 299 326 344Q301 389 257 389Z" glyph-name="nine.tosf" horiz-adv-x="540" /><glyph d="M77 0 152 176H64V292H201L241 386H64V502H290L351 645H461L400 502H475V386H351L311 292H475V176H262L187 0Z" glyph-name="notequal" horiz-adv-x="540" unicode="&#8800;" /><glyph d="M142 573Q142 636 162 669Q182 702 223 702Q255 702 273 689Q291 676 313 676Q324 676 328.5 686.5Q333 697 333 715L427 709Q427 646 404 611.5Q381 577 338 577Q304 577 286.5 591Q269 605 251 605Q241 605 237 598Q233 591 232 573ZM65 0V329Q65 378 63.5 417.5Q62 457 58 492L189 498Q191 485 192.5 457Q194 429 194 415V408Q209 455 246 481Q283 507 334 507Q413 507 453 456Q493 405 493 316V0H357V286Q357 336 341 359.5Q325 383 291 383Q250 383 225.5 341.5Q201 300 201 217V0Z" glyph-name="ntilde" horiz-adv-x="552" unicode="&#241;" /><glyph d="M144 564Q145 633 169.5 663.5Q194 694 235 694Q254 694 269.5 689Q285 684 297.5 678Q310 672 321.5 667Q333 662 345 662Q358 662 364 675Q370 688 371 704L452 698Q451 637 430 602.5Q409 568 355 568Q338 568 323.5 573.5Q309 579 296.5 585Q284 591 273 596.5Q262 602 252 602Q241 602 234.5 592.5Q228 583 227 564ZM67 0V518H196L393 227V518H521V2L404 -4L196 295V0Z" glyph-name="ntilde.smcp" horiz-adv-x="588" /><glyph d="M72 0 88 172H33L42 282H98L109 384H51L60 495H119L133 646H245L231 495H334L348 646H461L446 495H506L498 384H436L426 282H489L479 172H416L399 0H287L304 172H200L184 0ZM211 282H314L324 384H221Z" glyph-name="numbersign" horiz-adv-x="540" unicode="#" /><glyph d="M807 291Q734 291 689 341Q644 391 644 474Q644 552 690.5 604Q737 656 807 656Q882 656 926.5 606Q971 556 971 474Q971 395 924.5 343Q878 291 807 291ZM75 0V646H204L446 260V646H574V3L456 -4L203 398V0ZM807 379Q834 379 847 402.5Q860 426 860 474Q860 522 847 545Q834 568 807 568Q782 568 768.5 544.5Q755 521 755 474Q755 426 768.5 402.5Q782 379 807 379ZM662 140V235H953V140Z" glyph-name="numero" horiz-adv-x="1044" unicode="&#8470;" /><glyph d="M263 -13Q159 -13 97 58Q35 129 35 247Q35 365 97 436Q159 507 263 507Q368 507 430 436.5Q492 366 492 247Q492 129 430 58Q368 -13 263 -13ZM263 112Q308 112 330.5 147.5Q353 183 353 247Q353 311 330 347Q307 383 263 383Q219 383 196 347.5Q173 312 173 247Q173 183 196.5 147.5Q220 112 263 112Z" glyph-name="o" horiz-adv-x="526" unicode="o" /><glyph d="M286 -13Q173 -13 105 58.5Q37 130 37 259Q37 383 106 457Q175 531 286 531Q399 531 466.5 459Q534 387 534 259Q534 135 465 61Q396 -13 286 -13ZM286 112Q336 112 364.5 149.5Q393 187 393 259Q393 330 364 368Q335 406 286 406Q235 406 207 368.5Q179 331 179 259Q179 187 207.5 149.5Q236 112 286 112Z" glyph-name="o.smcp" horiz-adv-x="571" /><glyph d="M200 567 247 648Q256 662 267 685Q278 708 283 725L408 721Q402 702 386.5 674.5Q371 647 352 622L312 567ZM263 -13Q159 -13 97 58Q35 129 35 247Q35 365 97 436Q159 507 263 507Q368 507 430 436.5Q492 366 492 247Q492 129 430 58Q368 -13 263 -13ZM263 112Q308 112 330.5 147.5Q353 183 353 247Q353 311 330 347Q307 383 263 383Q219 383 196 347.5Q173 312 173 247Q173 183 196.5 147.5Q220 112 263 112Z" glyph-name="oacute" horiz-adv-x="526" unicode="&#243;" /><glyph d="M219 561 346 685H495L346 561ZM286 -13Q173 -13 105 58.5Q37 130 37 259Q37 383 106 457Q175 531 286 531Q399 531 466.5 459Q534 387 534 259Q534 135 465 61Q396 -13 286 -13ZM286 112Q336 112 364.5 149.5Q393 187 393 259Q393 330 364 368Q335 406 286 406Q235 406 207 368.5Q179 331 179 259Q179 187 207.5 149.5Q236 112 286 112Z" glyph-name="oacute.smcp" horiz-adv-x="571" /><glyph d="M262 561Q197 561 160 601Q123 641 123 715H214Q216 683 228 666Q240 649 262 649Q284 649 296 666Q308 683 310 715H401Q401 641 364 601Q327 561 262 561ZM263 -13Q159 -13 97 58Q35 129 35 247Q35 365 97 436Q159 507 263 507Q368 507 430 436.5Q492 366 492 247Q492 129 430 58Q368 -13 263 -13ZM263 112Q308 112 330.5 147.5Q353 183 353 247Q353 311 330 347Q307 383 263 383Q219 383 196 347.5Q173 312 173 247Q173 183 196.5 147.5Q220 112 263 112Z" glyph-name="obreve" horiz-adv-x="526" unicode="&#335;" /><glyph d="M287 551Q214 551 176 591Q138 631 132 697H233Q236 669 249.5 654Q263 639 287 639Q310 639 324 654Q338 669 342 697H440Q434 631 397 591Q360 551 287 551ZM286 -13Q173 -13 105 58.5Q37 130 37 259Q37 383 106 457Q175 531 286 531Q399 531 466.5 459Q534 387 534 259Q534 135 465 61Q396 -13 286 -13ZM286 112Q336 112 364.5 149.5Q393 187 393 259Q393 330 364 368Q335 406 286 406Q235 406 207 368.5Q179 331 179 259Q179 187 207.5 149.5Q236 112 286 112Z" glyph-name="obreve.smcp" horiz-adv-x="571" /><glyph d="M109 565 200 713 331 717 416 565H301L262 635L223 565ZM263 -13Q159 -13 97 58Q35 129 35 247Q35 365 97 436Q159 507 263 507Q368 507 430 436.5Q492 366 492 247Q492 129 430 58Q368 -13 263 -13ZM263 112Q308 112 330.5 147.5Q353 183 353 247Q353 311 330 347Q307 383 263 383Q219 383 196 347.5Q173 312 173 247Q173 183 196.5 147.5Q220 112 263 112Z" glyph-name="ocircumflex" horiz-adv-x="526" unicode="&#244;" /><glyph d="M133 561 224 690 349 691 441 561H331L285 619L239 561ZM286 -13Q173 -13 105 58.5Q37 130 37 259Q37 383 106 457Q175 531 286 531Q399 531 466.5 459Q534 387 534 259Q534 135 465 61Q396 -13 286 -13ZM286 112Q336 112 364.5 149.5Q393 187 393 259Q393 330 364 368Q335 406 286 406Q235 406 207 368.5Q179 331 179 259Q179 187 207.5 149.5Q236 112 286 112Z" glyph-name="ocircumflex.smcp" horiz-adv-x="571" /><glyph d="M105 581V701H235V581ZM289 581V701H419V581ZM263 -13Q159 -13 97 58Q35 129 35 247Q35 365 97 436Q159 507 263 507Q368 507 430 436.5Q492 366 492 247Q492 129 430 58Q368 -13 263 -13ZM263 112Q308 112 330.5 147.5Q353 183 353 247Q353 311 330 347Q307 383 263 383Q219 383 196 347.5Q173 312 173 247Q173 183 196.5 147.5Q220 112 263 112Z" glyph-name="odieresis" horiz-adv-x="526" unicode="&#246;" /><glyph d="M125 567V680H259V567ZM315 567V680H449V567ZM286 -13Q173 -13 105 58.5Q37 130 37 259Q37 383 106 457Q175 531 286 531Q399 531 466.5 459Q534 387 534 259Q534 135 465 61Q396 -13 286 -13ZM286 112Q336 112 364.5 149.5Q393 187 393 259Q393 330 364 368Q335 406 286 406Q235 406 207 368.5Q179 331 179 259Q179 187 207.5 149.5Q236 112 286 112Z" glyph-name="odieresis.smcp" horiz-adv-x="571" /><glyph d="M263 -13Q159 -13 97 58Q35 129 35 247Q35 365 97 436Q159 507 263 507Q313 507 353.5 489.5Q394 472 422 440Q450 472 490 489.5Q530 507 580 507Q676 507 728 442Q780 377 780 252Q780 244 780 233.5Q780 223 779 215L491 207Q495 161 525 134.5Q555 108 613 108Q660 108 700 118Q740 128 776 149L767 28Q738 9 694.5 -2Q651 -13 602 -13Q545 -13 499.5 5Q454 23 423 56Q395 23 354 5Q313 -13 263 -13ZM493 304H655Q653 349 633 372Q613 395 576 395Q542 395 519.5 372Q497 349 493 304ZM263 112Q308 112 330.5 147.5Q353 183 353 247Q353 311 330 347Q307 383 263 383Q219 383 196 347.5Q173 312 173 247Q173 183 196.5 147.5Q220 112 263 112Z" glyph-name="oe" horiz-adv-x="819" unicode="&#339;" /><glyph d="M320 0Q187 0 112 67.5Q37 135 37 259Q37 380 113 449Q189 518 320 518H735V401H484V320H716V212H484V116H744L732 0ZM317 116H348V401H317Q248 401 213 366Q178 331 178 259Q178 187 213 151.5Q248 116 317 116Z" glyph-name="oe.smcp" horiz-adv-x="782" /><glyph d="M227 -231Q183 -231 153.5 -207Q124 -183 124 -138Q124 -101 143.5 -66.5Q163 -32 204 1L306 6Q278 -16 252 -46Q226 -76 226 -104Q226 -123 235.5 -132Q245 -141 263 -141Q276 -141 288 -137.5Q300 -134 313 -127L305 -215Q289 -223 269 -227Q249 -231 227 -231Z" glyph-name="ogonek" horiz-adv-x="500" unicode="&#731;" /><glyph d="M216 -230Q171 -230 143.5 -204Q116 -178 116 -132Q116 -95 136 -63Q156 -31 196 1L302 12Q271 -13 244 -44Q217 -75 217 -105Q217 -124 227 -132.5Q237 -141 255 -141Q268 -141 279.5 -137.5Q291 -134 304 -128L297 -215Q278 -223 257.5 -226.5Q237 -230 216 -230Z" glyph-name="ogonek.case" horiz-adv-x="500" /><glyph d="M212 567 165 630Q149 652 135.5 677Q122 702 116 721L241 725Q245 709 256.5 685.5Q268 662 277 648L324 567ZM263 -13Q159 -13 97 58Q35 129 35 247Q35 365 97 436Q159 507 263 507Q368 507 430 436.5Q492 366 492 247Q492 129 430 58Q368 -13 263 -13ZM263 112Q308 112 330.5 147.5Q353 183 353 247Q353 311 330 347Q307 383 263 383Q219 383 196 347.5Q173 312 173 247Q173 183 196.5 147.5Q220 112 263 112Z" glyph-name="ograve" horiz-adv-x="526" unicode="&#242;" /><glyph d="M229 561 79 685H228L355 561ZM286 -13Q173 -13 105 58.5Q37 130 37 259Q37 383 106 457Q175 531 286 531Q399 531 466.5 459Q534 387 534 259Q534 135 465 61Q396 -13 286 -13ZM286 112Q336 112 364.5 149.5Q393 187 393 259Q393 330 364 368Q335 406 286 406Q235 406 207 368.5Q179 331 179 259Q179 187 207.5 149.5Q236 112 286 112Z" glyph-name="ograve.smcp" horiz-adv-x="571" /><glyph d="M284 566Q308 597 337.5 641Q367 685 383 715H492Q483 699 469 679Q455 659 439 638.5Q423 618 406.5 598.5Q390 579 377 566ZM148 566Q157 582 169 603Q181 624 192.5 645Q204 666 213.5 685Q223 704 228 715H335Q327 699 315 679Q303 659 290 638.5Q277 618 264 599Q251 580 241 566ZM263 -13Q159 -13 97 58Q35 129 35 247Q35 365 97 436Q159 507 263 507Q368 507 430 436.5Q492 366 492 247Q492 129 430 58Q368 -13 263 -13ZM263 112Q308 112 330.5 147.5Q353 183 353 247Q353 311 330 347Q307 383 263 383Q219 383 196 347.5Q173 312 173 247Q173 183 196.5 147.5Q220 112 263 112Z" glyph-name="ohungarumlaut" horiz-adv-x="526" unicode="&#337;" /><glyph d="M300 561 415 678H527L396 561ZM160 561 242 678H360L249 561ZM286 -13Q173 -13 105 58.5Q37 130 37 259Q37 383 106 457Q175 531 286 531Q399 531 466.5 459Q534 387 534 259Q534 135 465 61Q396 -13 286 -13ZM286 112Q336 112 364.5 149.5Q393 187 393 259Q393 330 364 368Q335 406 286 406Q235 406 207 368.5Q179 331 179 259Q179 187 207.5 149.5Q236 112 286 112Z" glyph-name="ohungarumlaut.smcp" horiz-adv-x="571" /><glyph d="M131 594V684H393V594ZM263 -13Q159 -13 97 58Q35 129 35 247Q35 365 97 436Q159 507 263 507Q368 507 430 436.5Q492 366 492 247Q492 129 430 58Q368 -13 263 -13ZM263 112Q308 112 330.5 147.5Q353 183 353 247Q353 311 330 347Q307 383 263 383Q219 383 196 347.5Q173 312 173 247Q173 183 196.5 147.5Q220 112 263 112Z" glyph-name="omacron" horiz-adv-x="526" unicode="&#333;" /><glyph d="M152 578V668H422V578ZM286 -13Q173 -13 105 58.5Q37 130 37 259Q37 383 106 457Q175 531 286 531Q399 531 466.5 459Q534 387 534 259Q534 135 465 61Q396 -13 286 -13ZM286 112Q336 112 364.5 149.5Q393 187 393 259Q393 330 364 368Q335 406 286 406Q235 406 207 368.5Q179 331 179 259Q179 187 207.5 149.5Q236 112 286 112Z" glyph-name="omacron.smcp" horiz-adv-x="571" /><glyph d="M299 0H155V482L25 446L13 565L229 649H299Z" glyph-name="one" horiz-adv-x="396" unicode="1" /><glyph d="M207 -6H113V248L39 229L33 306L148 352H207Z" glyph-name="one.dnom" horiz-adv-x="278" /><glyph d="M207 289H113V543L39 524L33 601L148 647H207Z" glyph-name="one.numr" horiz-adv-x="278" /><glyph d="M146 0V339L30 300L4 403L211 499H282V0Z" glyph-name="one.osf" horiz-adv-x="363" /><glyph d="M146 0V364L28 327L14 446L225 522H285V0Z" glyph-name="one.smcp" horiz-adv-x="368" /><glyph d="M207 370H113V624L39 605L33 682L148 728H207Z" glyph-name="one.sup" horiz-adv-x="278" /><glyph d="M95 0V132H217V482L87 446L74 565L290 649H360V132H489L481 0Z" glyph-name="one.tf" horiz-adv-x="540" /><glyph d="M94 0V111H217V339L101 300L75 403L282 499H353V111H482L471 0Z" glyph-name="one.tosf" horiz-adv-x="540" /><glyph d="M207 290H113V544L39 525L33 602L148 648H207ZM201 0H90L458 646H570ZM430 0 426 44Q496 104 527 144Q558 184 558 225Q558 252 542.5 264.5Q527 277 504 277Q485 277 470 271.5Q455 266 440 256L430 340Q448 351 474.5 357Q501 363 528 363Q587 363 624 332Q661 301 661 245Q661 199 638.5 162Q616 125 566 83H690L682 0Z" glyph-name="onehalf" horiz-adv-x="707" unicode="&#189;" /><glyph d="M207 290H113V544L39 525L33 602L148 648H207ZM201 0H90L458 646H570ZM529 0V64H373L369 113L512 355L614 358V138H656L649 64H614V0ZM464 138H529V254Z" glyph-name="onequarter" horiz-adv-x="685" unicode="&#188;" /><glyph d="M207 290H113V544L39 525L33 602L148 648H207Z" glyph-name="onesuperior" horiz-adv-x="278" unicode="&#185;" /><glyph d="M133 287Q84 287 57 314Q30 341 30 390Q30 432 59 461.5Q88 491 151 505L214 519V524Q214 546 199.5 558.5Q185 571 157 571Q126 571 99.5 561.5Q73 552 50 534L40 615Q65 634 99.5 643.5Q134 653 168 653Q237 653 275 618Q313 583 313 521Q313 512 312.5 494Q312 476 311.5 455.5Q311 435 310.5 414Q310 393 310 379Q310 360 313.5 340Q317 320 327 298L235 289Q231 296 227 309Q223 322 222 332Q208 310 184 298.5Q160 287 133 287ZM161 361Q184 361 196.5 376.5Q209 392 210 415L212 448L175 443Q147 439 134.5 428.5Q122 418 122 399Q122 383 132.5 372Q143 361 161 361Z" glyph-name="ordfeminine" horiz-adv-x="365" unicode="&#170;" /><glyph d="M196 287Q121 287 76.5 337Q32 387 32 470Q32 553 76.5 603Q121 653 196 653Q270 653 314.5 603.5Q359 554 359 470Q359 387 315 337Q271 287 196 287ZM196 373Q226 373 242 397Q258 421 258 470Q258 518 241.5 542.5Q225 567 196 567Q166 567 150 542.5Q134 518 134 470Q134 422 150 397.5Q166 373 196 373Z" glyph-name="ordmasculine" horiz-adv-x="392" unicode="&#186;" /><glyph d="M32 -50 98 57Q67 91 51 139.5Q35 188 35 247Q35 365 97 436Q159 507 263 507Q290 507 314.5 502.5Q339 498 360 488L394 545H491L427 441Q458 407 475 357.5Q492 308 492 247Q492 129 430 58Q368 -13 263 -13Q235 -13 209.5 -7.5Q184 -2 162 8L127 -50ZM180 192 293 378Q286 380 278.5 381.5Q271 383 263 383Q219 383 196 347.5Q173 312 173 247Q173 231 174.5 217.5Q176 204 180 192ZM263 112Q308 112 330.5 147.5Q353 183 353 247Q353 264 351.5 279.5Q350 295 346 308L230 119Q237 115 245.5 113.5Q254 112 263 112Z" glyph-name="oslash" horiz-adv-x="526" unicode="&#248;" /><glyph d="M21 -37 95 69Q67 103 52 151Q37 199 37 259Q37 383 106 457Q175 531 286 531Q318 531 347 525Q376 519 401 506L439 561H552L474 450Q503 416 518.5 367.5Q534 319 534 259Q534 135 465 61Q396 -13 286 -13Q252 -13 222 -6.5Q192 0 167 13L132 -37ZM186 199 325 398Q316 402 306 404Q296 406 286 406Q235 406 207 368.5Q179 331 179 259Q179 242 180.5 227Q182 212 186 199ZM286 112Q336 112 364.5 149.5Q393 187 393 259Q393 277 390.5 293Q388 309 384 322L243 121Q253 117 263 114.5Q273 112 286 112Z" glyph-name="oslash.smcp" horiz-adv-x="571" /><glyph d="M200 567 247 648Q256 662 267 685Q278 708 283 725L408 721Q402 702 386.5 674.5Q371 647 352 622L312 567ZM32 -50 98 57Q67 91 51 139.5Q35 188 35 247Q35 365 97 436Q159 507 263 507Q290 507 314.5 502.5Q339 498 360 488L394 545H491L427 441Q458 407 475 357.5Q492 308 492 247Q492 129 430 58Q368 -13 263 -13Q235 -13 209.5 -7.5Q184 -2 162 8L127 -50ZM180 192 293 378Q286 380 278.5 381.5Q271 383 263 383Q219 383 196 347.5Q173 312 173 247Q173 231 174.5 217.5Q176 204 180 192ZM263 112Q308 112 330.5 147.5Q353 183 353 247Q353 264 351.5 279.5Q350 295 346 308L230 119Q237 115 245.5 113.5Q254 112 263 112Z" glyph-name="oslashacute" horiz-adv-x="526" unicode="&#511;" /><glyph d="M204 571 331 695H480L331 571ZM21 -37 95 69Q67 103 52 151Q37 199 37 259Q37 383 106 457Q175 531 286 531Q318 531 347 525Q376 519 401 506L439 561H552L474 450Q503 416 518.5 367.5Q534 319 534 259Q534 135 465 61Q396 -13 286 -13Q252 -13 222 -6.5Q192 0 167 13L132 -37ZM186 199 325 398Q316 402 306 404Q296 406 286 406Q235 406 207 368.5Q179 331 179 259Q179 242 180.5 227Q182 212 186 199ZM286 112Q336 112 364.5 149.5Q393 187 393 259Q393 277 390.5 293Q388 309 384 322L243 121Q253 117 263 114.5Q273 112 286 112Z" glyph-name="oslashacute.smcp" horiz-adv-x="571" /><glyph d="M124 573Q124 636 144 669Q164 702 205 702Q237 702 255 689Q273 676 295 676Q306 676 310.5 686.5Q315 697 315 715L409 709Q409 646 386 611.5Q363 577 320 577Q286 577 268.5 591Q251 605 233 605Q223 605 219 598Q215 591 214 573ZM263 -13Q159 -13 97 58Q35 129 35 247Q35 365 97 436Q159 507 263 507Q368 507 430 436.5Q492 366 492 247Q492 129 430 58Q368 -13 263 -13ZM263 112Q308 112 330.5 147.5Q353 183 353 247Q353 311 330 347Q307 383 263 383Q219 383 196 347.5Q173 312 173 247Q173 183 196.5 147.5Q220 112 263 112Z" glyph-name="otilde" horiz-adv-x="526" unicode="&#245;" /><glyph d="M122 562Q123 631 147.5 661.5Q172 692 213 692Q232 692 247.5 687Q263 682 275.5 676Q288 670 299.5 665Q311 660 323 660Q336 660 342 673Q348 686 349 702L430 696Q429 635 408 600.5Q387 566 333 566Q316 566 301.5 571.5Q287 577 274.5 583Q262 589 251 594.5Q240 600 230 600Q219 600 212.5 590.5Q206 581 205 562ZM286 -13Q173 -13 105 58.5Q37 130 37 259Q37 383 106 457Q175 531 286 531Q399 531 466.5 459Q534 387 534 259Q534 135 465 61Q396 -13 286 -13ZM286 112Q336 112 364.5 149.5Q393 187 393 259Q393 330 364 368Q335 406 286 406Q235 406 207 368.5Q179 331 179 259Q179 187 207.5 149.5Q236 112 286 112Z" glyph-name="otilde.smcp" horiz-adv-x="571" /><glyph d="M65 -220V329Q65 375 63.5 416Q62 457 58 492L189 498Q190 484 191.5 462.5Q193 441 194 423Q207 457 239 481.5Q271 506 320 506Q403 506 454.5 441.5Q506 377 506 255Q506 130 447 59.5Q388 -11 278 -11Q257 -11 238 -5.5Q219 0 201 10V-220ZM270 106Q319 106 342.5 143Q366 180 366 247Q366 317 343 350Q320 383 280 383Q243 383 221.5 345Q200 307 200 231V132Q213 120 231.5 113Q250 106 270 106Z" glyph-name="p" horiz-adv-x="542" unicode="p" /><glyph d="M67 0V518H263Q373 518 432 471.5Q491 425 491 340Q491 258 431 209.5Q371 161 269 161H206V0ZM206 276H254Q297 276 318.5 291.5Q340 307 340 340Q340 372 318.5 387.5Q297 403 254 403H206Z" glyph-name="p.smcp" horiz-adv-x="520" /><glyph d="M221 -234 212 -120Q266 -106 282.5 -79Q299 -52 299 8V84H277Q174 84 111 142Q48 200 48 306Q48 428 116.5 490.5Q185 553 303 553H612V0H495V452H435V-9Q435 -111 386.5 -166Q338 -221 221 -234Z" glyph-name="paragraph" horiz-adv-x="649" unicode="&#182;" /><glyph d="M355 -273Q216 -201 139.5 -67Q63 67 63 255Q63 441 139 574Q215 707 355 782L381 648Q298 588 250 488.5Q202 389 202 255Q202 120 250 20.5Q298 -79 381 -139Z" glyph-name="parenleft" horiz-adv-x="385" unicode="(" /><glyph d="M371 -151Q231 -107 157 16Q83 139 83 323Q83 507 157 630Q231 753 371 797L381 667Q305 627 267.5 541Q230 455 230 323Q230 191 267.5 105Q305 19 381 -21Z" glyph-name="parenleft.case" horiz-adv-x="385" /><glyph d="M315 -145Q193 -107 123.5 -4.5Q54 98 54 258Q54 418 123.5 521Q193 624 315 661L325 532Q270 500 233.5 432Q197 364 197 258Q197 153 233.5 84.5Q270 16 325 -16Z" glyph-name="parenleft.smcp" horiz-adv-x="324" /><glyph d="M30 783Q169 711 245.5 577Q322 443 322 255Q322 69 246 -64Q170 -197 30 -272L4 -138Q87 -78 135 21.5Q183 121 183 255Q183 390 135 489.5Q87 589 4 649Z" glyph-name="parenright" horiz-adv-x="385" unicode=")" /><glyph d="M14 797Q154 753 228 630Q302 507 302 323Q302 139 228 16Q154 -107 14 -151L4 -21Q80 19 117.5 105Q155 191 155 323Q155 455 117.5 541Q80 627 4 667Z" glyph-name="parenright.case" horiz-adv-x="385" /><glyph d="M9 661Q131 623 200.5 520.5Q270 418 270 258Q270 98 200.5 -5Q131 -108 9 -145L-1 -16Q54 16 90.5 84Q127 152 127 258Q127 363 90.5 431.5Q54 500 -1 532Z" glyph-name="parenright.smcp" horiz-adv-x="324" /><glyph d="M244 -13Q139 -13 84 49.5Q29 112 29 211Q29 306 84 363Q139 420 235 420Q260 420 281.5 413.5Q303 407 322 395Q297 460 235 496Q173 532 74 538L86 659Q178 657 251 629.5Q324 602 373.5 554.5Q423 507 449.5 440.5Q476 374 476 294Q476 149 412 68Q348 -13 244 -13ZM244 107Q290 107 315.5 152.5Q341 198 343 279Q324 292 301 300Q278 308 259 308Q209 308 184.5 280Q160 252 160 206Q160 159 183 133Q206 107 244 107Z" glyph-name="partialdiff" horiz-adv-x="521" unicode="&#8706;" /><glyph d="M169 283Q105 283 66.5 329Q28 375 28 468Q28 560 67 606.5Q106 653 169 653Q233 653 271 607Q309 561 309 468Q309 376 270 329.5Q231 283 169 283ZM251 0H140L508 646H620ZM169 372Q192 372 204 394.5Q216 417 216 468Q216 519 204 541.5Q192 564 169 564Q145 564 132.5 541.5Q120 519 120 468Q120 417 132.5 394.5Q145 372 169 372ZM593 -7Q529 -7 490.5 39Q452 85 452 178Q452 270 491 316.5Q530 363 593 363Q657 363 695 317Q733 271 733 178Q733 86 694 39.5Q655 -7 593 -7ZM593 82Q616 82 628 104.5Q640 127 640 178Q640 229 628 251.5Q616 274 593 274Q569 274 556.5 251.5Q544 229 544 178Q544 127 556.5 104.5Q569 82 593 82Z" glyph-name="percent" horiz-adv-x="761" unicode="%" /><glyph d="M148 226Q92 226 59 265.5Q26 305 26 374Q26 443 60 483Q94 523 148 523Q205 523 237.5 483Q270 443 270 374Q270 305 236 265.5Q202 226 148 226ZM236 0H121L445 518H559ZM148 304Q167 304 177 320Q187 336 187 374Q187 412 177 428.5Q167 445 148 445Q129 445 119 428.5Q109 412 109 374Q109 336 119 320Q129 304 148 304ZM531 -6Q475 -6 442.5 33.5Q410 73 410 142Q410 211 443.5 251Q477 291 531 291Q588 291 620.5 251Q653 211 653 142Q653 73 619.5 33.5Q586 -6 531 -6ZM531 72Q550 72 560.5 88Q571 104 571 142Q571 180 560.5 196.5Q550 213 531 213Q512 213 502.5 196.5Q493 180 493 142Q493 104 502.5 88Q512 72 531 72Z" glyph-name="percent.smcp" horiz-adv-x="679" /><glyph d="M56 0V145H210V0Z" glyph-name="period" horiz-adv-x="266" unicode="." /><glyph d="M43 233V365H174V233Z" glyph-name="periodcentered" horiz-adv-x="217" unicode="&#183;" /><glyph d="M62 291V423H195V291Z" glyph-name="periodcentered.case" horiz-adv-x="257" /><glyph d="M169 283Q105 283 66.5 329Q28 375 28 468Q28 560 67 606.5Q106 653 169 653Q233 653 271 607Q309 561 309 468Q309 376 270 329.5Q231 283 169 283ZM251 0H140L508 646H620ZM169 372Q192 372 204 394.5Q216 417 216 468Q216 519 204 541.5Q192 564 169 564Q145 564 132.5 541.5Q120 519 120 468Q120 417 132.5 394.5Q145 372 169 372ZM914 -5Q850 -5 811.5 41Q773 87 773 180Q773 272 812 318.5Q851 365 914 365Q978 365 1016 319Q1054 273 1054 180Q1054 88 1015 41.5Q976 -5 914 -5ZM593 -7Q529 -7 490.5 39Q452 85 452 178Q452 270 491 316.5Q530 363 593 363Q657 363 695 317Q733 271 733 178Q733 86 694 39.5Q655 -7 593 -7ZM914 84Q937 84 949 106.5Q961 129 961 180Q961 231 949 253.5Q937 276 914 276Q890 276 877.5 253.5Q865 231 865 180Q865 129 877.5 106.5Q890 84 914 84ZM593 82Q616 82 628 104.5Q640 127 640 178Q640 229 628 251.5Q616 274 593 274Q569 274 556.5 251.5Q544 229 544 178Q544 127 556.5 104.5Q569 82 593 82Z" glyph-name="perthousand" horiz-adv-x="1082" unicode="&#8240;" /><glyph d="M148 226Q92 226 59 265.5Q26 305 26 374Q26 443 60 483Q94 523 148 523Q205 523 237.5 483Q270 443 270 374Q270 305 236 265.5Q202 226 148 226ZM236 0H121L445 518H559ZM148 304Q167 304 177 320Q187 336 187 374Q187 412 177 428.5Q167 445 148 445Q129 445 119 428.5Q109 412 109 374Q109 336 119 320Q129 304 148 304ZM531 -6Q475 -6 442.5 33.5Q410 73 410 142Q410 211 443.5 251Q477 291 531 291Q588 291 620.5 251Q653 211 653 142Q653 73 619.5 33.5Q586 -6 531 -6ZM815 -6Q758 -6 725.5 33.5Q693 73 693 142Q693 211 726.5 251Q760 291 815 291Q872 291 904 251Q936 211 936 142Q936 73 902.5 33.5Q869 -6 815 -6ZM531 72Q550 72 560.5 88Q571 104 571 142Q571 180 560.5 196.5Q550 213 531 213Q512 213 502.5 196.5Q493 180 493 142Q493 104 502.5 88Q512 72 531 72ZM815 72Q834 72 844 88Q854 104 854 142Q854 180 844 196.5Q834 213 815 213Q796 213 786 196.5Q776 180 776 142Q776 104 786 88Q796 72 815 72Z" glyph-name="perthousand.smcp" horiz-adv-x="963" /><glyph d="M64 0V495H494V0H358V372H200V0Z" glyph-name="pi" horiz-adv-x="558" unicode="&#960;" /><glyph d="M54 281V397H203V564H336V397H486V281H336V98H203V281Z" glyph-name="plus" horiz-adv-x="540" unicode="+" /><glyph d="M70 384V491H208V646H331V491H470V384H331V215H208V384ZM79 0V107H459V0Z" glyph-name="plusminus" horiz-adv-x="540" unicode="&#177;" /><glyph d="M75 0V646H569V0H426V524H218V0Z" glyph-name="product" horiz-adv-x="644" unicode="&#8719;" /><glyph d="M339 -220V50Q323 23 294 5.5Q265 -12 225 -12Q134 -12 85 57.5Q36 127 36 244Q36 363 97 434.5Q158 506 271 506Q332 506 389 490Q446 474 483 447Q480 417 478 379.5Q476 342 476 296V-220ZM255 108Q297 108 318.5 149.5Q340 191 340 279V366Q327 378 310 384Q293 390 271 390Q222 390 198 355Q174 320 174 251Q174 179 194.5 143.5Q215 108 255 108Z" glyph-name="q" horiz-adv-x="538" unicode="q" /><glyph d="M377 -127 326 -61Q306 -35 288 -24Q270 -13 226 -6Q139 7 88 78Q37 149 37 259Q37 383 105.5 457Q174 531 286 531Q399 531 466.5 459Q534 387 534 259Q534 169 498 106Q462 43 401 13Q414 6 425.5 -5.5Q437 -17 447 -31L509 -116ZM286 111Q336 111 364.5 149Q393 187 393 259Q393 330 364.5 368Q336 406 286 406Q235 406 207 368.5Q179 331 179 259Q179 187 207 149Q235 111 286 111Z" glyph-name="q.smcp" horiz-adv-x="571" /><glyph d="M114 207 105 349Q177 378 203.5 405.5Q230 433 230 467Q230 502 207 519.5Q184 537 138 537Q110 537 80.5 528.5Q51 520 31 509L41 632Q68 642 101 650Q134 658 177 658Q262 658 317.5 613Q373 568 373 484Q373 418 340.5 372Q308 326 238 298L231 207ZM100 0V138H250V0Z" glyph-name="question" horiz-adv-x="423" unicode="?" /><glyph d="M100 178 92 285Q148 304 170.5 324Q193 344 193 371Q193 396 175 407.5Q157 419 125 419Q100 419 73.5 411.5Q47 404 30 396L40 510Q63 519 92 525Q121 531 159 531Q236 531 286.5 492.5Q337 454 337 386Q337 335 309 298Q281 261 218 237L212 178ZM84 0V121H233V0Z" glyph-name="question.smcp" horiz-adv-x="369" /><glyph d="M322 494V356H172V494ZM308 287 317 145Q245 116 218.5 88.5Q192 61 192 27Q192 -8 215 -25.5Q238 -43 284 -43Q312 -43 341.5 -34.5Q371 -26 391 -15L381 -138Q354 -148 321 -156Q288 -164 245 -164Q160 -164 104.5 -119Q49 -74 49 10Q49 76 81.5 122Q114 168 184 196L191 287Z" glyph-name="questiondown" horiz-adv-x="423" unicode="&#191;" /><glyph d="M322 645V507H172V645ZM308 438 317 296Q245 267 218.5 239.5Q192 212 192 178Q192 143 215 125.5Q238 108 284 108Q312 108 341.5 116.5Q371 125 391 136L381 13Q354 3 321 -5Q288 -13 245 -13Q160 -13 104.5 32Q49 77 49 161Q49 227 81.5 273Q114 319 184 347L191 438Z" glyph-name="questiondown.case" horiz-adv-x="423" /><glyph d="M285 518V397H136V518ZM269 340 277 233Q221 214 198.5 194Q176 174 176 147Q176 122 194 110.5Q212 99 244 99Q269 99 295.5 106.5Q322 114 339 122L329 8Q306 -1 277 -7Q248 -13 210 -13Q133 -13 82.5 25.5Q32 64 32 132Q32 183 60 220Q88 257 151 281L157 340Z" glyph-name="questiondown.smcp" horiz-adv-x="369" /><glyph d="M48 398 39 646H152L143 398ZM231 398 222 646H335L326 398Z" glyph-name="quotedbl" horiz-adv-x="374" unicode="&quot;" /><glyph d="M120 -147 9 -134Q21 -106 29 -83.5Q37 -61 41.5 -37.5Q46 -14 47.5 13.5Q49 41 49 78V110H168V61Q168 -5 157 -53.5Q146 -102 120 -147ZM310 -147 199 -134Q211 -106 219 -83.5Q227 -61 231.5 -37.5Q236 -14 237.5 13.5Q239 41 239 78V110H358V61Q358 -5 347 -53.5Q336 -102 310 -147Z" glyph-name="quotedblbase" horiz-adv-x="395" unicode="&#8222;" /><glyph d="M85 699 196 686Q184 658 176 635.5Q168 613 163.5 589.5Q159 566 157.5 538.5Q156 511 156 474V442H37V491Q37 557 48 605.5Q59 654 85 699ZM275 699 386 686Q374 658 366 635.5Q358 613 353.5 589.5Q349 566 347.5 538.5Q346 511 346 474V442H227V491Q227 557 238 605.5Q249 654 275 699Z" glyph-name="quotedblleft" horiz-adv-x="395" unicode="&#8220;" /><glyph d="M85 569 196 556Q184 528 176 505.5Q168 483 163.5 459.5Q159 436 157.5 408.5Q156 381 156 344V312H37V361Q37 427 48 475.5Q59 524 85 569ZM275 569 386 556Q374 528 366 505.5Q358 483 353.5 459.5Q349 436 347.5 408.5Q346 381 346 344V312H227V361Q227 427 238 475.5Q249 524 275 569Z" glyph-name="quotedblleft.smcp" horiz-adv-x="395" /><glyph d="M120 435 9 448Q21 476 29 498.5Q37 521 41.5 544.5Q46 568 47.5 595.5Q49 623 49 660V692H168V643Q168 577 157 528.5Q146 480 120 435ZM310 435 199 448Q211 476 219 498.5Q227 521 231.5 544.5Q236 568 237.5 595.5Q239 623 239 660V692H358V643Q358 577 347 528.5Q336 480 310 435Z" glyph-name="quotedblright" horiz-adv-x="395" unicode="&#8221;" /><glyph d="M120 305 9 318Q21 346 29 368.5Q37 391 41.5 414.5Q46 438 47.5 465.5Q49 493 49 530V562H168V513Q168 447 157 398.5Q146 350 120 305ZM310 305 199 318Q211 346 219 368.5Q227 391 231.5 414.5Q236 438 237.5 465.5Q239 493 239 530V562H358V513Q358 447 347 398.5Q336 350 310 305Z" glyph-name="quotedblright.smcp" horiz-adv-x="395" /><glyph d="M85 699 196 686Q184 658 176 635.5Q168 613 163.5 589.5Q159 566 157.5 538.5Q156 511 156 474V442H37V491Q37 557 48 605.5Q59 654 85 699Z" glyph-name="quoteleft" horiz-adv-x="205" unicode="&#8216;" /><glyph d="M85 569 196 556Q184 528 176 505.5Q168 483 163.5 459.5Q159 436 157.5 408.5Q156 381 156 344V312H37V361Q37 427 48 475.5Q59 524 85 569Z" glyph-name="quoteleft.smcp" horiz-adv-x="205" /><glyph d="M120 435 9 448Q21 476 29 498.5Q37 521 41.5 544.5Q46 568 47.5 595.5Q49 623 49 660V692H168V643Q168 577 157 528.5Q146 480 120 435Z" glyph-name="quoteright" horiz-adv-x="205" unicode="&#8217;" /><glyph d="M120 305 9 318Q21 346 29 368.5Q37 391 41.5 414.5Q46 438 47.5 465.5Q49 493 49 530V562H168V513Q168 447 157 398.5Q146 350 120 305Z" glyph-name="quoteright.smcp" horiz-adv-x="205" /><glyph d="M120 -147 9 -134Q21 -106 29 -83.5Q37 -61 41.5 -37.5Q46 -14 47.5 13.5Q49 41 49 78V110H168V61Q168 -5 157 -53.5Q146 -102 120 -147Z" glyph-name="quotesinglbase" horiz-adv-x="205" unicode="&#8218;" /><glyph d="M48 398 39 646H152L143 398Z" glyph-name="quotesingle" horiz-adv-x="191" unicode="'" /><glyph d="M65 0V330Q65 378 63 417Q61 456 58 492L188 498Q190 485 192 458Q194 431 194 415V400Q208 450 248.5 478Q289 506 346 506H354L364 381Q357 382 347 382Q337 382 330 382Q267 382 234 335Q201 288 201 202V0Z" glyph-name="r" horiz-adv-x="376" unicode="r" /><glyph d="M200 185V0H67V518H258Q360 518 419.5 472.5Q479 427 479 349Q479 306 457.5 269Q436 232 384 217Q400 205 409.5 188Q419 171 431 146L496 0H356L303 122Q290 152 275.5 168.5Q261 185 234 185ZM200 291H248Q291 291 313 303.5Q335 316 335 347Q335 378 312.5 391.5Q290 405 247 405H200Z" glyph-name="r.smcp" horiz-adv-x="523" /><glyph d="M148 567 195 648Q204 662 215 685Q226 708 231 725L356 721Q350 702 334.5 674.5Q319 647 300 622L260 567ZM65 0V330Q65 378 63 417Q61 456 58 492L188 498Q190 485 192 458Q194 431 194 415V400Q208 450 248.5 478Q289 506 346 506H354L364 381Q357 382 347 382Q337 382 330 382Q267 382 234 335Q201 288 201 202V0Z" glyph-name="racute" horiz-adv-x="376" unicode="&#341;" /><glyph d="M182 561 309 685H458L309 561ZM200 185V0H67V518H258Q360 518 419.5 472.5Q479 427 479 349Q479 306 457.5 269Q436 232 384 217Q400 205 409.5 188Q419 171 431 146L496 0H356L303 122Q290 152 275.5 168.5Q261 185 234 185ZM200 291H248Q291 291 313 303.5Q335 316 335 347Q335 378 312.5 391.5Q290 405 247 405H200Z" glyph-name="racute.smcp" horiz-adv-x="523" /><glyph d="M214 0 96 394H13V495H205L301 155L473 750H601L377 -1Z" glyph-name="radical" horiz-adv-x="600" unicode="&#8730;" /><glyph d="M158 566 74 715H163L218 645L272 715H360L269 570ZM65 0V330Q65 378 63 417Q61 456 58 492L188 498Q190 485 192 458Q194 431 194 415V400Q208 450 248.5 478Q289 506 346 506H354L364 381Q357 382 347 382Q337 382 330 382Q267 382 234 335Q201 288 201 202V0Z" glyph-name="rcaron" horiz-adv-x="376" unicode="&#345;" /><glyph d="M194 557 95 687H205L251 629L297 687H403L304 557ZM200 185V0H67V518H258Q360 518 419.5 472.5Q479 427 479 349Q479 306 457.5 269Q436 232 384 217Q400 205 409.5 188Q419 171 431 146L496 0H356L303 122Q290 152 275.5 168.5Q261 185 234 185ZM200 291H248Q291 291 313 303.5Q335 316 335 347Q335 378 312.5 391.5Q290 405 247 405H200Z" glyph-name="rcaron.smcp" horiz-adv-x="523" /><glyph d="M65 0V330Q65 378 63 417Q61 456 58 492L188 498Q190 485 192 458Q194 431 194 415V400Q208 450 248.5 478Q289 506 346 506H354L364 381Q357 382 347 382Q337 382 330 382Q267 382 234 335Q201 288 201 202V0ZM148 -258 43 -248Q64 -203 70.5 -166.5Q77 -130 77 -71V-56H190V-90Q190 -141 181.5 -179.5Q173 -218 148 -258Z" glyph-name="rcommaaccent" horiz-adv-x="376" unicode="&#343;" /><glyph d="M200 185V0H67V518H258Q360 518 419.5 472.5Q479 427 479 349Q479 306 457.5 269Q436 232 384 217Q400 205 409.5 188Q419 171 431 146L496 0H356L303 122Q290 152 275.5 168.5Q261 185 234 185ZM200 291H248Q291 291 313 303.5Q335 316 335 347Q335 378 312.5 391.5Q290 405 247 405H200ZM282 -258 180 -248Q199 -203 206 -166.5Q213 -130 213 -71V-56H324V-90Q324 -141 315.5 -179.5Q307 -218 282 -258Z" glyph-name="rcommaaccent.smcp" horiz-adv-x="523" /><glyph d="M412 -68Q328 -68 258.5 -40Q189 -12 140.5 39Q92 90 65 162.5Q38 235 38 322Q38 410 65 482Q92 554 140.5 605Q189 656 258.5 684Q328 712 412 712Q496 712 565 684Q634 656 683 605Q732 554 759 481.5Q786 409 786 322Q786 235 759 162.5Q732 90 683 39Q634 -12 565 -40Q496 -68 412 -68ZM412 47Q530 47 595.5 122Q661 197 661 322Q661 448 595.5 522.5Q530 597 412 597Q293 597 228 522.5Q163 448 163 322Q163 197 228 122Q293 47 412 47ZM371 273V144H275V506H409Q481 506 522.5 473.5Q564 441 564 387Q564 359 550 332.5Q536 306 499 295Q509 287 515.5 274Q522 261 529 247L574 144H474L438 229Q430 248 421 260.5Q412 273 395 273ZM371 347H402Q430 347 445.5 356Q461 365 461 386Q461 406 445 415.5Q429 425 402 425H371Z" glyph-name="registered" horiz-adv-x="824" unicode="&#174;" /><glyph d="M250 538Q191 538 160 568Q129 598 129 652Q129 703 162.5 734Q196 765 250 765Q310 765 340 735.5Q370 706 370 652Q370 600 337 569Q304 538 250 538ZM250 603Q270 603 281.5 616.5Q293 630 293 652Q293 673 281.5 686Q270 699 250 699Q230 699 218.5 686Q207 673 207 652Q207 630 218.5 616.5Q230 603 250 603Z" glyph-name="ring" horiz-adv-x="500" unicode="&#730;" /><glyph d="M250 678Q197 678 164 706.5Q131 735 131 783Q131 829 166 859Q201 889 250 889Q304 889 335.5 860.5Q367 832 367 783Q367 738 333 708Q299 678 250 678ZM250 742Q268 742 279.5 753Q291 764 291 783Q291 802 279.5 813Q268 824 250 824Q233 824 221 813Q209 802 209 783Q209 765 221 753.5Q233 742 250 742Z" glyph-name="ring.case" horiz-adv-x="500" /><glyph d="M202 -13Q152 -13 113.5 -5Q75 3 41 20L31 144Q71 122 116 111.5Q161 101 203 101Q236 101 252 110Q268 119 268 138Q268 154 256 164Q244 174 216 183L168 198Q101 220 70 256Q39 292 39 353Q39 422 90.5 464.5Q142 507 229 507Q276 507 316 499Q356 491 388 478L371 362Q336 377 298.5 385.5Q261 394 227 394Q200 394 187 385Q174 376 174 360Q174 344 186.5 334Q199 324 238 311L281 296Q343 276 373 242Q403 208 403 148Q403 73 350 30Q297 -13 202 -13Z" glyph-name="s" horiz-adv-x="437" unicode="s" /><glyph d="M217 -13Q168 -13 122.5 -5Q77 3 43 20L33 148Q80 126 124.5 114.5Q169 103 216 103Q256 103 272.5 114Q289 125 289 145Q289 161 277 171.5Q265 182 237 190L174 210Q103 232 70 270.5Q37 309 37 370Q37 442 90.5 486.5Q144 531 245 531Q290 531 338.5 522.5Q387 514 421 498L407 380Q372 396 327 406.5Q282 417 244 417Q209 417 194 407.5Q179 398 179 380Q179 364 191 352.5Q203 341 237 330L296 311Q368 287 400.5 251Q433 215 433 155Q433 78 375 32.5Q317 -13 217 -13Z" glyph-name="s.smcp" horiz-adv-x="469" /><glyph d="M166 567 213 648Q222 662 233 685Q244 708 249 725L374 721Q368 702 352.5 674.5Q337 647 318 622L278 567ZM201 -13Q151 -13 112.5 -5Q74 3 40 20L30 144Q70 122 115 111.5Q160 101 202 101Q235 101 251 110Q267 119 267 138Q267 154 255 164Q243 174 215 183L167 198Q100 220 69 256Q38 292 38 353Q38 422 89.5 464.5Q141 507 228 507Q275 507 315 499Q355 491 387 478L370 362Q335 377 297.5 385.5Q260 394 226 394Q199 394 186 385Q173 376 173 360Q173 344 185.5 334Q198 324 237 311L280 296Q342 276 372 242Q402 208 402 148Q402 73 349 30Q296 -13 201 -13Z" glyph-name="sacute" horiz-adv-x="436" unicode="&#347;" /><glyph d="M168 563 295 687H444L295 563ZM217 -13Q168 -13 122.5 -5Q77 3 43 20L33 148Q80 126 124.5 114.5Q169 103 216 103Q256 103 272.5 114Q289 125 289 145Q289 161 277 171.5Q265 182 237 190L174 210Q103 232 70 270.5Q37 309 37 370Q37 442 90.5 486.5Q144 531 245 531Q290 531 338.5 522.5Q387 514 421 498L407 380Q372 396 327 406.5Q282 417 244 417Q209 417 194 407.5Q179 398 179 380Q179 364 191 352.5Q203 341 237 330L296 311Q368 287 400.5 251Q433 215 433 155Q433 78 375 32.5Q317 -13 217 -13Z" glyph-name="sacute.smcp" horiz-adv-x="469" /><glyph d="M166 566 82 715H171L226 645L280 715H368L277 570ZM201 -13Q151 -13 112.5 -5Q74 3 40 20L30 144Q70 122 115 111.5Q160 101 202 101Q235 101 251 110Q267 119 267 138Q267 154 255 164Q243 174 215 183L167 198Q100 220 69 256Q38 292 38 353Q38 422 89.5 464.5Q141 507 228 507Q275 507 315 499Q355 491 387 478L370 362Q335 377 297.5 385.5Q260 394 226 394Q199 394 186 385Q173 376 173 360Q173 344 185.5 334Q198 324 237 311L280 296Q342 276 372 242Q402 208 402 148Q402 73 349 30Q296 -13 201 -13Z" glyph-name="scaron" horiz-adv-x="436" unicode="&#353;" /><glyph d="M180 559 81 689H191L237 631L283 689H389L290 559ZM217 -13Q168 -13 122.5 -5Q77 3 43 20L33 148Q80 126 124.5 114.5Q169 103 216 103Q256 103 272.5 114Q289 125 289 145Q289 161 277 171.5Q265 182 237 190L174 210Q103 232 70 270.5Q37 309 37 370Q37 442 90.5 486.5Q144 531 245 531Q290 531 338.5 522.5Q387 514 421 498L407 380Q372 396 327 406.5Q282 417 244 417Q209 417 194 407.5Q179 398 179 380Q179 364 191 352.5Q203 341 237 330L296 311Q368 287 400.5 251Q433 215 433 155Q433 78 375 32.5Q317 -13 217 -13Z" glyph-name="scaron.smcp" horiz-adv-x="469" /><glyph d="M191 -233Q167 -233 150 -229.5Q133 -226 115 -217L110 -140Q128 -149 146 -154Q164 -159 183 -159Q202 -159 211 -151.5Q220 -144 220 -130Q220 -111 199 -99.5Q178 -88 147 -87L168 -12Q131 -11 99.5 -3Q68 5 39 20L29 144Q70 122 114.5 111.5Q159 101 201 101Q235 101 250.5 110Q266 119 266 138Q266 154 254 164Q242 174 214 183L167 198Q100 220 68.5 256Q37 292 37 353Q37 422 88.5 464.5Q140 507 228 507Q275 507 314.5 499Q354 491 386 478L370 362Q334 377 297 385.5Q260 394 226 394Q199 394 185.5 385Q172 376 172 360Q172 344 185 334Q198 324 237 311L279 296Q341 276 371 242Q401 208 401 148Q401 86 363.5 45.5Q326 5 260 -8L245 -43Q276 -54 294 -74.5Q312 -95 312 -131Q312 -179 278 -206Q244 -233 191 -233Z" glyph-name="scedilla" horiz-adv-x="436" unicode="&#351;" /><glyph d="M212 -233Q188 -233 171 -229.5Q154 -226 137 -218L131 -141Q149 -149 167 -154Q185 -159 205 -159Q223 -159 232.5 -151.5Q242 -144 242 -130Q242 -111 220.5 -99.5Q199 -88 168 -87L189 -12Q149 -11 111 -2.5Q73 6 43 20L33 148Q80 126 124.5 114.5Q169 103 216 103Q256 103 272.5 114Q289 125 289 145Q289 161 277 171.5Q265 182 237 190L174 210Q103 232 70 270.5Q37 309 37 370Q37 442 90.5 486.5Q144 531 245 531Q290 531 338.5 522.5Q387 514 421 498L407 380Q372 396 327 406.5Q282 417 244 417Q209 417 194 407.5Q179 398 179 380Q179 364 191 352.5Q203 341 237 330L296 311Q368 287 400.5 251Q433 215 433 155Q433 92 393.5 49Q354 6 282 -7L266 -43Q297 -54 315.5 -74.5Q334 -95 334 -131Q334 -179 299.5 -206Q265 -233 212 -233Z" glyph-name="scedilla.smcp" horiz-adv-x="470" /><glyph d="M75 565 166 713 297 717 382 565H267L228 635L189 565ZM201 -13Q151 -13 112.5 -5Q74 3 40 20L30 144Q70 122 115 111.5Q160 101 202 101Q235 101 251 110Q267 119 267 138Q267 154 255 164Q243 174 215 183L167 198Q100 220 69 256Q38 292 38 353Q38 422 89.5 464.5Q141 507 228 507Q275 507 315 499Q355 491 387 478L370 362Q335 377 297.5 385.5Q260 394 226 394Q199 394 186 385Q173 376 173 360Q173 344 185.5 334Q198 324 237 311L280 296Q342 276 372 242Q402 208 402 148Q402 73 349 30Q296 -13 201 -13Z" glyph-name="scircumflex" horiz-adv-x="436" unicode="&#349;" /><glyph d="M82 563 173 692 298 693 390 563H280L234 621L188 563ZM217 -13Q168 -13 122.5 -5Q77 3 43 20L33 148Q80 126 124.5 114.5Q169 103 216 103Q256 103 272.5 114Q289 125 289 145Q289 161 277 171.5Q265 182 237 190L174 210Q103 232 70 270.5Q37 309 37 370Q37 442 90.5 486.5Q144 531 245 531Q290 531 338.5 522.5Q387 514 421 498L407 380Q372 396 327 406.5Q282 417 244 417Q209 417 194 407.5Q179 398 179 380Q179 364 191 352.5Q203 341 237 330L296 311Q368 287 400.5 251Q433 215 433 155Q433 78 375 32.5Q317 -13 217 -13Z" glyph-name="scircumflex.smcp" horiz-adv-x="469" /><glyph d="M201 -13Q151 -13 112.5 -5Q74 3 40 20L30 144Q70 122 115 111.5Q160 101 202 101Q235 101 251 110Q267 119 267 138Q267 154 255 164Q243 174 215 183L167 198Q100 220 69 256Q38 292 38 353Q38 422 89.5 464.5Q141 507 228 507Q275 507 315 499Q355 491 387 478L370 362Q335 377 297.5 385.5Q260 394 226 394Q199 394 186 385Q173 376 173 360Q173 344 185.5 334Q198 324 237 311L280 296Q342 276 372 242Q402 208 402 148Q402 73 349 30Q296 -13 201 -13ZM236 -258 131 -248Q152 -203 158.5 -166.5Q165 -130 165 -71V-56H278V-90Q278 -141 269.5 -179.5Q261 -218 236 -258Z" glyph-name="scommaaccent" horiz-adv-x="436" unicode="&#537;" /><glyph d="M217 -13Q168 -13 122.5 -5Q77 3 43 20L33 148Q80 126 124.5 114.5Q169 103 216 103Q256 103 272.5 114Q289 125 289 145Q289 161 277 171.5Q265 182 237 190L174 210Q103 232 70 270.5Q37 309 37 370Q37 442 90.5 486.5Q144 531 245 531Q290 531 338.5 522.5Q387 514 421 498L407 380Q372 396 327 406.5Q282 417 244 417Q209 417 194 407.5Q179 398 179 380Q179 364 191 352.5Q203 341 237 330L296 311Q368 287 400.5 251Q433 215 433 155Q433 78 375 32.5Q317 -13 217 -13ZM237 -258 135 -248Q154 -203 161 -166.5Q168 -130 168 -71V-56H279V-90Q279 -141 270.5 -179.5Q262 -218 237 -258Z" glyph-name="scommaaccent.smcp" horiz-adv-x="471" /><glyph d="M252 -215Q199 -215 151.5 -205Q104 -195 66 -175L58 -36Q108 -64 156 -76Q204 -88 258 -88Q304 -88 330 -73.5Q356 -59 356 -30Q356 -6 341 8.5Q326 23 290 41L216 77Q115 126 70 198Q25 270 25 381Q25 459 48.5 522.5Q72 586 113.5 630.5Q155 675 213.5 699.5Q272 724 341 724Q392 724 434 717Q476 710 516 694L503 559Q461 579 414 588.5Q367 598 324 598Q287 598 264 584Q241 570 241 543Q241 516 254 502Q267 488 307 469L384 431Q476 385 522.5 315.5Q569 246 569 141Q569 54 545 -12.5Q521 -79 479.5 -124Q438 -169 379.5 -192Q321 -215 252 -215ZM427 98Q429 110 430.5 121.5Q432 133 432 147Q432 197 409 233Q386 269 339 295L246 348Q214 366 195.5 384Q177 402 168 425Q164 412 162.5 396Q161 380 161 366Q161 316 183.5 280.5Q206 245 253 220L338 172Q366 156 390 139.5Q414 123 427 98Z" glyph-name="section" horiz-adv-x="593" unicode="&#167;" /><glyph d="M56 284V429H210V284ZM144 -172 22 -155Q35 -123 43.5 -96Q52 -69 57.5 -41Q63 -13 65 20Q67 53 67 97V142H198V77Q198 0 185 -60Q172 -120 144 -172Z" glyph-name="semicolon" horiz-adv-x="266" unicode=";" /><glyph d="M39 0 272 514H23L33 646H443L449 587L198 0Z" glyph-name="seven" horiz-adv-x="465" unicode="7" /><glyph d="M38 -6 164 267H23L30 350H264L269 307L128 -6Z" glyph-name="seven.dnom" horiz-adv-x="287" /><glyph d="M38 290 164 563H23L30 646H264L269 603L128 290Z" glyph-name="seven.numr" horiz-adv-x="287" /><glyph d="M55 -190 304 369H24L34 495H468L475 444L201 -184Z" glyph-name="seven.osf" horiz-adv-x="500" /><glyph d="M43 0 245 392H34L46 518H416L422 463L192 0Z" glyph-name="seven.smcp" horiz-adv-x="447" /><glyph d="M38 370 164 643H23L30 726H264L269 683L128 370Z" glyph-name="seven.sup" horiz-adv-x="287" /><glyph d="M85 0 318 514H69L79 646H489L495 587L244 0Z" glyph-name="seven.tf" horiz-adv-x="540" /><glyph d="M75 -190 324 369H44L54 495H488L495 444L221 -184Z" glyph-name="seven.tosf" horiz-adv-x="540" /><glyph d="M276 -13Q172 -13 108 68Q44 149 44 294Q44 374 70.5 440.5Q97 507 146.5 554.5Q196 602 269 629.5Q342 657 434 659L446 538Q347 532 284.5 495.5Q222 459 198 393Q217 406 239 413Q261 420 286 420Q383 420 437.5 363Q492 306 492 211Q492 107 431 47Q370 -13 276 -13ZM276 107Q314 107 337 132Q360 157 360 206Q360 252 331.5 280Q303 308 253 308Q234 308 212 299.5Q190 291 177 280Q179 199 204.5 153Q230 107 276 107Z" glyph-name="six" horiz-adv-x="531" unicode="6" /><glyph d="M168 -13Q105 -13 68.5 31.5Q32 76 32 157Q32 245 94.5 300Q157 355 260 357L267 286Q217 282 182.5 265.5Q148 249 132 216Q142 222 155.5 225Q169 228 182 228Q235 228 266 198.5Q297 169 297 111Q297 57 260 22Q223 -13 168 -13ZM168 64Q187 64 198 77Q209 90 209 112Q209 134 195 145Q181 156 157 156Q148 156 137.5 153Q127 150 117 144Q118 107 131 85.5Q144 64 168 64Z" glyph-name="six.dnom" horiz-adv-x="322" /><glyph d="M168 283Q105 283 68.5 327.5Q32 372 32 453Q32 541 94.5 596Q157 651 260 653L267 582Q217 578 182.5 561.5Q148 545 132 512Q142 518 155.5 521Q169 524 182 524Q235 524 266 494.5Q297 465 297 407Q297 353 260 318Q223 283 168 283ZM168 360Q187 360 198 373Q209 386 209 408Q209 430 195 441Q181 452 157 452Q148 452 137.5 449Q127 446 117 440Q118 403 131 381.5Q144 360 168 360Z" glyph-name="six.numr" horiz-adv-x="322" /><glyph d="M274 -12Q216 -12 171.5 11.5Q127 35 97.5 77Q68 119 52.5 179Q37 239 37 312Q37 391 66 460Q95 529 148.5 580.5Q202 632 278.5 663Q355 694 449 698L459 584Q348 573 278 520.5Q208 468 186 393Q209 408 236.5 415Q264 422 290 422Q387 422 440 364.5Q493 307 493 210Q493 161 476.5 120Q460 79 431 50Q402 21 361.5 4.5Q321 -12 274 -12ZM274 108Q312 108 334.5 134Q357 160 357 204Q357 255 329.5 281Q302 307 256 307Q237 307 216 299.5Q195 292 176 278Q180 198 205 153Q230 108 274 108Z" glyph-name="six.osf" horiz-adv-x="526" /><glyph d="M249 -13Q149 -13 93.5 51.5Q38 116 38 232Q38 300 64 355.5Q90 411 137 450.5Q184 490 252 512Q320 534 403 535L413 422Q327 418 273 393Q219 368 196 324Q212 333 230.5 338Q249 343 269 343Q352 343 398.5 297.5Q445 252 445 173Q445 89 391 38Q337 -13 249 -13ZM247 99Q278 99 294.5 117.5Q311 136 311 170Q311 201 290 218Q269 235 235 235Q219 235 202.5 230Q186 225 173 217Q175 161 194.5 130Q214 99 247 99Z" glyph-name="six.smcp" horiz-adv-x="478" /><glyph d="M168 363Q105 363 68.5 407.5Q32 452 32 533Q32 621 94.5 676Q157 731 260 733L267 662Q217 658 182.5 641.5Q148 625 132 592Q142 598 155.5 601Q169 604 182 604Q235 604 266 574.5Q297 545 297 487Q297 433 260 398Q223 363 168 363ZM168 440Q187 440 198 453Q209 466 209 488Q209 510 195 521Q181 532 157 532Q148 532 137.5 529Q127 526 117 520Q118 483 131 461.5Q144 440 168 440Z" glyph-name="six.sup" horiz-adv-x="322" /><glyph d="M281 -13Q177 -13 113 68Q49 149 49 294Q49 374 75.5 440.5Q102 507 151.5 554.5Q201 602 274 629.5Q347 657 439 659L451 538Q352 532 289.5 495.5Q227 459 203 393Q222 406 244 413Q266 420 291 420Q388 420 442.5 363Q497 306 497 211Q497 107 436 47Q375 -13 281 -13ZM281 107Q319 107 342 132Q365 157 365 206Q365 252 336.5 280Q308 308 258 308Q239 308 217 299.5Q195 291 182 280Q184 199 209.5 153Q235 107 281 107Z" glyph-name="six.tf" horiz-adv-x="540" /><glyph d="M283 -12Q225 -12 180.5 11.5Q136 35 106.5 77Q77 119 61.5 179Q46 239 46 312Q46 391 75 460Q104 529 157.5 580.5Q211 632 287.5 663Q364 694 458 698L468 584Q357 573 287 520.5Q217 468 195 393Q218 408 245.5 415Q273 422 299 422Q396 422 449 364.5Q502 307 502 210Q502 161 485.5 120Q469 79 440 50Q411 21 370.5 4.5Q330 -12 283 -12ZM283 108Q321 108 343.5 134Q366 160 366 204Q366 255 338.5 281Q311 307 265 307Q246 307 225 299.5Q204 292 185 278Q189 198 214 153Q239 108 283 108Z" glyph-name="six.tosf" horiz-adv-x="540" /><glyph d="M13 -250 381 750H476L108 -250Z" glyph-name="slash" horiz-adv-x="489" unicode="/" /><glyph d="M412 -68Q328 -68 258.5 -40Q189 -12 140.5 39Q92 90 65 162.5Q38 235 38 322Q38 410 65 482Q92 554 140.5 605Q189 656 258.5 684Q328 712 412 712Q496 712 565 684Q634 656 683 605Q732 554 759 481.5Q786 409 786 322Q786 235 759 162.5Q732 90 683 39Q634 -12 565 -40Q496 -68 412 -68ZM412 47Q530 47 595.5 122Q661 197 661 322Q661 448 595.5 522.5Q530 597 412 597Q293 597 228 522.5Q163 448 163 322Q163 197 228 122Q293 47 412 47ZM286 144V505H423Q500 505 541.5 472Q583 439 583 379Q583 322 541.5 288Q500 254 428 254H386V144ZM386 336H417Q445 336 459.5 346.5Q474 357 474 379Q474 401 459.5 411.5Q445 422 417 422H386Z" glyph-name="soundcopyright" horiz-adv-x="824" unicode="&#8471;" /><glyph glyph-name="space" horiz-adv-x="201" unicode=" " /><glyph d="M374 -43Q296 -43 238 -27.5Q180 -12 108 -6Q95 -5 81 -4Q67 -3 51 -3L37 83Q91 110 118.5 147.5Q146 185 151 245Q152 252 152 259.5Q152 267 152 274H61L62 376H144Q142 396 140 416Q138 436 138 453Q138 548 197.5 603Q257 658 368 658Q390 658 417 653.5Q444 649 469 642L481 515Q463 521 437 525.5Q411 530 387 530Q337 530 311 508.5Q285 487 285 440Q285 427 287 411Q289 395 292 376H448V274H299Q299 265 298 256Q297 247 296 239Q290 194 269 162Q248 130 210 110Q256 106 295.5 96Q335 86 383 86Q412 86 439 94Q466 102 491 120L480 -17Q459 -33 430 -38Q401 -43 374 -43Z" glyph-name="sterling" horiz-adv-x="540" unicode="&#163;" /><glyph d="M324 -35Q247 -35 186.5 -20Q126 -5 47 -3L31 76Q73 96 93.5 122Q114 148 121 185Q122 192 123 200Q124 208 125 215H46L47 306H115Q113 321 111 335Q109 349 109 362Q109 440 161 485.5Q213 531 309 531Q330 531 361 526.5Q392 522 414 515L423 401Q407 408 381 413.5Q355 419 334 419Q290 419 270 403Q250 387 250 351Q250 342 252 330.5Q254 319 256 306H395L394 215H262Q261 207 258.5 198.5Q256 190 254 183Q246 152 228.5 131Q211 110 181 97Q224 92 258 85Q292 78 333 78Q358 78 384.5 84Q411 90 433 104L423 -15Q404 -27 376 -31Q348 -35 324 -35Z" glyph-name="sterling.smcp" horiz-adv-x="478" /><glyph d="M30 0V77L203 337L30 567V646H495V528H217L350 367V309L214 118H495V0Z" glyph-name="summation" horiz-adv-x="527" unicode="&#8721;" /><glyph d="M254 -9Q163 -9 120 41Q77 91 77 178V376H19L12 472Q37 480 51.5 489.5Q66 499 74.5 513Q83 527 88 547.5Q93 568 99 598L213 604V495H342V376H213V198Q213 153 232 131Q251 109 294 109Q307 109 323 112Q339 115 354 122L343 5Q325 -2 302 -5.5Q279 -9 254 -9Z" glyph-name="t" horiz-adv-x="372" unicode="t" /><glyph d="M173 0V396H17V518H480L468 396H312V0Z" glyph-name="t.smcp" horiz-adv-x="492" /><glyph d="M254 -9Q163 -9 120 41Q77 91 77 178V206H22V297H77V376H19L12 472Q37 480 51.5 489.5Q66 499 74.5 513Q83 527 88 547.5Q93 568 99 598L213 604V495H342V376H213V297H322V206H214V185Q214 148 233.5 128.5Q253 109 293 109Q306 109 322.5 112Q339 115 354 122L343 5Q325 -2 302 -5.5Q279 -9 254 -9Z" glyph-name="tbar" horiz-adv-x="372" unicode="&#359;" /><glyph d="M173 0V178H78V269H173V396H17V518H480L468 396H312V269H412V178H312V0Z" glyph-name="tbar.smcp" horiz-adv-x="492" /><glyph d="M245 533Q249 550 254 574Q259 598 262.5 624Q266 650 269 675Q272 700 273 719H375Q374 699 369.5 674Q365 649 359.5 623.5Q354 598 347.5 574.5Q341 551 335 533ZM254 -9Q163 -9 120 41Q77 91 77 178V376H19L12 472Q37 480 51.5 489.5Q66 499 74.5 513Q83 527 88 547.5Q93 568 99 598L213 604V495H342V376H213V198Q213 153 232 131Q251 109 294 109Q307 109 323 112Q339 115 354 122L343 5Q325 -2 302 -5.5Q279 -9 254 -9Z" glyph-name="tcaron" horiz-adv-x="372" unicode="&#357;" /><glyph d="M186 559 87 689H197L243 631L289 689H395L296 559ZM173 0V396H17V518H480L468 396H312V0Z" glyph-name="tcaron.smcp" horiz-adv-x="492" /><glyph d="M191 -233Q167 -233 149.5 -229.5Q132 -226 115 -218L110 -141Q128 -149 146 -154Q164 -159 183 -159Q202 -159 211 -151.5Q220 -144 220 -130Q220 -111 199 -99.5Q178 -88 147 -87L173 5Q124 24 101 69Q78 114 78 178V376H20L13 472Q62 488 75.5 513Q89 538 99 598L214 604V495H342V376H214V198Q214 153 233 131Q252 109 295 109Q308 109 324 112Q340 115 355 122L344 5Q326 -2 304 -5Q282 -8 259 -9L245 -43Q276 -54 294 -74.5Q312 -95 312 -131Q312 -179 278 -206Q244 -233 191 -233Z" glyph-name="tcedilla" horiz-adv-x="373" unicode="&#355;" /><glyph d="M229 -230Q204 -230 184 -225.5Q164 -221 146 -214L140 -140Q158 -148 176.5 -153Q195 -158 214 -158Q232 -158 241.5 -151Q251 -144 251 -130Q251 -111 231 -99Q211 -87 177 -86L203 0H173V396H17V518H480L468 396H312V0H281L266 -45Q304 -54 321.5 -76.5Q339 -99 339 -133Q339 -178 308.5 -204Q278 -230 229 -230Z" glyph-name="tcedilla.smcp" horiz-adv-x="492" /><glyph d="M253 -9Q162 -9 119 41Q76 91 76 178V376H18L11 472Q36 480 50.5 489.5Q65 499 73.5 513Q82 527 87 547.5Q92 568 98 598L212 604V495H341V376H212V198Q212 153 231 131Q250 109 293 109Q306 109 322 112Q338 115 353 122L342 5Q324 -2 301 -5.5Q278 -9 253 -9ZM230 -258 125 -248Q146 -203 152.5 -166.5Q159 -130 159 -71V-56H272V-90Q272 -141 263.5 -179.5Q255 -218 230 -258Z" glyph-name="tcommaaccent" horiz-adv-x="371" unicode="&#539;" /><glyph d="M173 0V396H17V518H480L468 396H312V0ZM254 -258 152 -248Q171 -203 178 -166.5Q185 -130 185 -71V-56H296V-90Q296 -141 287.5 -179.5Q279 -218 254 -258Z" glyph-name="tcommaaccent.smcp" horiz-adv-x="492" /><glyph d="M64 -220V552Q64 601 62.5 636.5Q61 672 57 709L193 716Q194 708 195 694Q196 680 196.5 664Q197 648 197.5 632.5Q198 617 198 607V438Q213 470 243 488.5Q273 507 312 507Q405 507 454.5 440Q504 373 504 257Q504 130 443.5 60.5Q383 -9 261 -9Q245 -9 228 -5Q211 -1 200 6V-220ZM267 106Q318 106 341 142.5Q364 179 364 244Q364 319 342 353Q320 387 277 387Q237 387 217.5 353Q198 319 198 265V132Q214 118 230 112Q246 106 267 106Z" glyph-name="thorn" horiz-adv-x="540" unicode="&#254;" /><glyph d="M67 0V518H206V440H259Q367 440 429 395Q491 350 491 262Q491 178 429.5 131Q368 84 266 84H206V0ZM206 199H254Q297 199 318.5 214.5Q340 230 340 262Q340 295 318.5 310.5Q297 326 254 326H206Z" glyph-name="thorn.smcp" horiz-adv-x="516" /><glyph d="M194 -13Q151 -13 114.5 -3.5Q78 6 47 23L35 154Q72 133 108.5 122.5Q145 112 183 112Q232 112 257.5 131.5Q283 151 283 192Q283 229 253 253Q223 277 155 277Q151 277 145 276.5Q139 276 134 276L133 385H153Q204 385 231 405Q258 425 258 463Q258 496 234.5 515Q211 534 174 534Q139 534 110 525Q81 516 55 500L40 620Q65 636 106 647.5Q147 659 196 659Q289 659 344.5 611.5Q400 564 400 488Q400 437 378.5 400.5Q357 364 319 345Q370 331 400.5 290Q431 249 431 192Q431 91 365.5 39Q300 -13 194 -13Z" glyph-name="three" horiz-adv-x="480" unicode="3" /><glyph d="M122 -14Q96 -14 74 -8Q52 -2 36 8L30 86Q49 76 72.5 69.5Q96 63 118 63Q142 63 156 72.5Q170 82 170 103Q170 119 157 129.5Q144 140 121 140Q111 140 100.5 138.5Q90 137 83 136L72 177L141 267H31L38 350H254L257 307L170 197Q213 193 238 168Q263 143 263 102Q263 45 223.5 15.5Q184 -14 122 -14Z" glyph-name="three.dnom" horiz-adv-x="290" /><glyph d="M122 282Q96 282 74 288Q52 294 36 304L30 382Q49 372 72.5 365.5Q96 359 118 359Q142 359 156 368.5Q170 378 170 399Q170 415 157 425.5Q144 436 121 436Q111 436 100.5 434.5Q90 433 83 432L72 473L141 563H31L38 646H254L257 603L170 493Q213 489 238 464Q263 439 263 398Q263 341 223.5 311.5Q184 282 122 282Z" glyph-name="three.numr" horiz-adv-x="290" /><glyph d="M173 -194Q134 -194 98 -185Q62 -176 34 -159L24 -32Q67 -52 100 -61Q133 -70 172 -70Q223 -70 253.5 -47Q284 -24 284 21Q284 63 252 87Q220 111 162 112Q154 112 143 112Q132 112 124 111L118 217Q194 221 225.5 245.5Q257 270 257 312Q257 348 231 365Q205 382 168 382Q133 382 103.5 372Q74 362 45 344L32 464Q57 481 97.5 493.5Q138 506 187 506Q286 506 341 459Q396 412 396 332Q396 274 369 236.5Q342 199 299 184Q358 171 390.5 124Q423 77 423 18Q423 -86 357 -140Q291 -194 173 -194Z" glyph-name="three.osf" horiz-adv-x="470" /><glyph d="M185 -13Q148 -13 112.5 -6Q77 1 50 13L40 136Q72 120 106.5 111.5Q141 103 175 103Q217 103 236.5 116.5Q256 130 256 161Q256 188 229.5 201.5Q203 215 155 215Q152 215 142.5 215Q133 215 128 214L127 317H148Q193 317 213 328.5Q233 340 233 367Q233 390 215.5 402.5Q198 415 167 415Q132 415 108 407.5Q84 400 61 388L45 499Q68 512 108.5 521.5Q149 531 187 531Q269 531 320.5 493Q372 455 372 391Q372 348 351.5 319.5Q331 291 298 277Q343 266 371 233Q399 200 399 155Q399 74 346 30.5Q293 -13 185 -13Z" glyph-name="three.smcp" horiz-adv-x="454" /><glyph d="M122 362Q96 362 74 368Q52 374 36 384L30 462Q49 452 72.5 445.5Q96 439 118 439Q142 439 156 448.5Q170 458 170 479Q170 495 157 505.5Q144 516 121 516Q111 516 100.5 514.5Q90 513 83 512L72 553L141 643H31L38 726H254L257 683L170 573Q213 569 238 544Q263 519 263 478Q263 421 223.5 391.5Q184 362 122 362Z" glyph-name="three.sup" horiz-adv-x="290" /><glyph d="M223 -13Q180 -13 143.5 -3.5Q107 6 76 23L64 154Q101 133 137.5 122.5Q174 112 212 112Q261 112 286.5 131.5Q312 151 312 192Q312 229 282 253Q252 277 184 277Q180 277 174 276.5Q168 276 163 276L162 385H182Q233 385 260 405Q287 425 287 463Q287 496 263.5 515Q240 534 203 534Q168 534 139 525Q110 516 84 500L69 620Q94 636 135 647.5Q176 659 225 659Q318 659 373.5 611.5Q429 564 429 488Q429 437 407.5 400.5Q386 364 348 345Q399 331 429.5 290Q460 249 460 192Q460 91 394.5 39Q329 -13 223 -13Z" glyph-name="three.tf" horiz-adv-x="540" /><glyph d="M223 -194Q184 -194 148 -185Q112 -176 84 -159L74 -32Q117 -52 150 -61Q183 -70 222 -70Q273 -70 303.5 -47Q334 -24 334 21Q334 63 302 87Q270 111 212 112Q204 112 193 112Q182 112 174 111L168 217Q244 221 275.5 245.5Q307 270 307 312Q307 348 281 365Q255 382 218 382Q183 382 153.5 372Q124 362 95 344L82 464Q107 481 147.5 493.5Q188 506 237 506Q336 506 391 459Q446 412 446 332Q446 274 419 236.5Q392 199 349 184Q408 171 440.5 124Q473 77 473 18Q473 -86 407 -140Q341 -194 223 -194Z" glyph-name="three.tosf" horiz-adv-x="540" /><glyph d="M122 282Q96 282 74 288Q52 294 36 304L30 382Q49 372 72.5 365.5Q96 359 118 359Q142 359 156 368.5Q170 378 170 399Q170 415 157 425.5Q144 436 121 436Q111 436 100.5 434.5Q90 433 83 432L72 473L141 563H31L38 646H254L257 603L170 493Q213 489 238 464Q263 439 263 398Q263 341 223.5 311.5Q184 282 122 282ZM248 0H137L505 646H617ZM569 0V64H413L409 113L552 355L654 358V138H696L689 64H654V0ZM504 138H569V254Z" glyph-name="threequarters" horiz-adv-x="725" unicode="&#190;" /><glyph d="M122 282Q96 282 74 288Q52 294 36 304L30 382Q49 372 72.5 365.5Q96 359 118 359Q142 359 156 368.5Q170 378 170 399Q170 415 157 425.5Q144 436 121 436Q111 436 100.5 434.5Q90 433 83 432L72 473L141 563H31L38 646H254L257 603L170 493Q213 489 238 464Q263 439 263 398Q263 341 223.5 311.5Q184 282 122 282Z" glyph-name="threesuperior" horiz-adv-x="290" unicode="&#179;" /><glyph d="M112 573Q112 636 132 669Q152 702 193 702Q225 702 243 689Q261 676 283 676Q294 676 298.5 686.5Q303 697 303 715L397 709Q397 646 374 611.5Q351 577 308 577Q274 577 256.5 591Q239 605 221 605Q211 605 207 598Q203 591 202 573Z" glyph-name="tilde" horiz-adv-x="500" unicode="&#732;" /><glyph d="M85 692Q86 761 110.5 791.5Q135 822 176 822Q195 822 210.5 817Q226 812 238.5 806Q251 800 262.5 795Q274 790 286 790Q299 790 305 803Q311 816 312 832L393 826Q392 765 371 730.5Q350 696 296 696Q279 696 264.5 701.5Q250 707 237.5 713Q225 719 214 724.5Q203 730 193 730Q182 730 175.5 720.5Q169 711 168 692Z" glyph-name="tilde.case" horiz-adv-x="500" /><glyph d="M118 323V563H31V646H313L306 563H218V323ZM354 323 377 646H493L551 477L614 646H726L748 323H657L648 529L586 372L504 375L450 527L440 323Z" glyph-name="trademark" horiz-adv-x="813" unicode="&#8482;" /><glyph d="M17 0 11 59Q77 116 125 164Q173 212 204 254Q235 296 250 335.5Q265 375 265 416Q265 468 232 495.5Q199 523 150 523Q119 523 91 514Q63 505 36 486L23 615Q51 635 94 647Q137 659 180 659Q287 659 349.5 600Q412 541 412 440Q412 353 374 282Q336 211 241 133H461L450 0Z" glyph-name="two" horiz-adv-x="482" unicode="2" /><glyph d="M25 -6 21 38Q91 98 122 138Q153 178 153 219Q153 246 137.5 258.5Q122 271 99 271Q80 271 65 265.5Q50 260 35 250L25 334Q43 345 69.5 351Q96 357 123 357Q182 357 219 326Q256 295 256 239Q256 193 233.5 156Q211 119 161 77H285L277 -6Z" glyph-name="two.dnom" horiz-adv-x="303" /><glyph d="M22 289 18 333Q88 393 119 433Q150 473 150 514Q150 541 134.5 553.5Q119 566 96 566Q77 566 62 560.5Q47 555 32 545L22 629Q40 640 66.5 646Q93 652 120 652Q179 652 216 621Q253 590 253 534Q253 488 230.5 451Q208 414 158 372H282L274 289Z" glyph-name="two.numr" horiz-adv-x="303" /><glyph d="M32 0 27 50Q134 121 184.5 184.5Q235 248 235 301Q235 339 213 362Q191 385 151 385Q120 385 94 377Q68 369 42 351L27 465Q56 486 96.5 496.5Q137 507 185 507Q278 507 328 456.5Q378 406 378 331Q378 274 349.5 221Q321 168 253 119H433L423 0Z" glyph-name="two.osf" horiz-adv-x="458" /><glyph d="M46 0 39 54Q155 146 200.5 206Q246 266 246 328Q246 368 220.5 388.5Q195 409 155 409Q128 409 101.5 401.5Q75 394 52 379L40 496Q66 510 104.5 520.5Q143 531 181 531Q277 531 332.5 481.5Q388 432 388 351Q388 284 358 231Q328 178 259 125H432L420 0Z" glyph-name="two.smcp" horiz-adv-x="474" /><glyph d="M25 370 21 414Q91 474 122 514Q153 554 153 595Q153 622 137.5 634.5Q122 647 99 647Q80 647 65 641.5Q50 636 35 626L25 710Q43 721 69.5 727Q96 733 123 733Q182 733 219 702Q256 671 256 615Q256 569 233.5 532Q211 495 161 453H285L277 370Z" glyph-name="two.sup" horiz-adv-x="303" /><glyph d="M43 0 37 59Q103 116 151 164Q199 212 230 254Q261 296 276 335.5Q291 375 291 416Q291 468 258 495.5Q225 523 176 523Q145 523 117 514Q89 505 62 486L49 615Q77 635 120 647Q163 659 206 659Q313 659 375.5 600Q438 541 438 440Q438 353 400 282Q362 211 267 133H487L476 0Z" glyph-name="two.tf" horiz-adv-x="540" /><glyph d="M82 0 77 50Q184 121 234.5 184.5Q285 248 285 301Q285 339 263 362Q241 385 201 385Q170 385 144 377Q118 369 92 351L77 465Q106 486 146.5 496.5Q187 507 235 507Q328 507 378 456.5Q428 406 428 331Q428 274 399.5 221Q371 168 303 119H483L473 0Z" glyph-name="two.tosf" horiz-adv-x="540" /><glyph d="M25 290 21 334Q91 394 122 434Q153 474 153 515Q153 542 137.5 554.5Q122 567 99 567Q80 567 65 561.5Q50 556 35 546L25 630Q43 641 69.5 647Q96 653 123 653Q182 653 219 622Q256 591 256 535Q256 489 233.5 452Q211 415 161 373H285L277 290Z" glyph-name="twosuperior" horiz-adv-x="303" unicode="&#178;" /><glyph d="M212 -13Q140 -13 99 34.5Q58 82 58 169V495H194V200Q194 156 209 134.5Q224 113 255 113Q298 113 322.5 164Q347 215 347 310V495H483V154Q483 107 486.5 75Q490 43 497 6L369 -8Q364 9 359.5 33.5Q355 58 355 81Q333 33 296.5 10Q260 -13 212 -13Z" glyph-name="u" horiz-adv-x="549" unicode="u" /><glyph d="M281 -13Q172 -13 113.5 45Q55 103 55 204V518H195V232Q195 169 217.5 140Q240 111 283 111Q329 111 349.5 140.5Q370 170 370 233V518H507V205Q507 100 445 43.5Q383 -13 281 -13Z" glyph-name="u.smcp" horiz-adv-x="561" /><glyph d="M209 567 256 648Q265 662 276 685Q287 708 292 725L417 721Q411 702 395.5 674.5Q380 647 361 622L321 567ZM212 -13Q140 -13 99 34.5Q58 82 58 169V495H194V200Q194 156 209 134.5Q224 113 255 113Q298 113 322.5 164Q347 215 347 310V495H483V154Q483 107 486.5 75Q490 43 497 6L369 -8Q364 9 359.5 33.5Q355 58 355 81Q333 33 296.5 10Q260 -13 212 -13Z" glyph-name="uacute" horiz-adv-x="549" unicode="&#250;" /><glyph d="M215 562 342 686H491L342 562ZM281 -13Q172 -13 113.5 45Q55 103 55 204V518H195V232Q195 169 217.5 140Q240 111 283 111Q329 111 349.5 140.5Q370 170 370 233V518H507V205Q507 100 445 43.5Q383 -13 281 -13Z" glyph-name="uacute.smcp" horiz-adv-x="561" /><glyph d="M273 561Q208 561 171 601Q134 641 134 715H225Q227 683 239 666Q251 649 273 649Q295 649 307 666Q319 683 321 715H412Q412 641 375 601Q338 561 273 561ZM212 -13Q140 -13 99 34.5Q58 82 58 169V495H194V200Q194 156 209 134.5Q224 113 255 113Q298 113 322.5 164Q347 215 347 310V495H483V154Q483 107 486.5 75Q490 43 497 6L369 -8Q364 9 359.5 33.5Q355 58 355 81Q333 33 296.5 10Q260 -13 212 -13Z" glyph-name="ubreve" horiz-adv-x="549" unicode="&#365;" /><glyph d="M283 552Q210 552 172 592Q134 632 128 698H229Q232 670 245.5 655Q259 640 283 640Q306 640 320 655Q334 670 338 698H436Q430 632 393 592Q356 552 283 552ZM281 -13Q172 -13 113.5 45Q55 103 55 204V518H195V232Q195 169 217.5 140Q240 111 283 111Q329 111 349.5 140.5Q370 170 370 233V518H507V205Q507 100 445 43.5Q383 -13 281 -13Z" glyph-name="ubreve.smcp" horiz-adv-x="561" /><glyph d="M118 565 209 713 340 717 425 565H310L271 635L232 565ZM212 -13Q140 -13 99 34.5Q58 82 58 169V495H194V200Q194 156 209 134.5Q224 113 255 113Q298 113 322.5 164Q347 215 347 310V495H483V154Q483 107 486.5 75Q490 43 497 6L369 -8Q364 9 359.5 33.5Q355 58 355 81Q333 33 296.5 10Q260 -13 212 -13Z" glyph-name="ucircumflex" horiz-adv-x="549" unicode="&#251;" /><glyph d="M129 562 220 691 345 692 437 562H327L281 620L235 562ZM281 -13Q172 -13 113.5 45Q55 103 55 204V518H195V232Q195 169 217.5 140Q240 111 283 111Q329 111 349.5 140.5Q370 170 370 233V518H507V205Q507 100 445 43.5Q383 -13 281 -13Z" glyph-name="ucircumflex.smcp" horiz-adv-x="561" /></font>
</defs>
</svg>
