<?xml version="1.0" standalone="no"?><!DOCTYPE svg PUBLIC "-//W3C//DTD SVG 1.1//EN" "http://www.w3.org/Graphics/SVG/1.1/DTD/svg11.dtd" ><svg version="1.1" xmlns="http://www.w3.org/2000/svg"><defs><font horiz-adv-x="0" id="font"><font-face ascent="750" bbox="-37 -285 1117 925" cap-height="646" descent="-250" font-family="Folha Grafico" font-stretch="normal" font-style="normal" font-weight="700" units-per-em="1000" x-height="495" /><missing-glyph d="M0 0V646H500V0ZM60 586V60H440V586Z" horiz-adv-x="500" /><glyph glyph-name=".null" horiz-adv-x="0" /><glyph d="M11 0 250 645 407 651 546 0H400L376 127H196L152 0ZM235 243H356L312 464Z" glyph-name="A" horiz-adv-x="555" unicode="A" /><glyph d="M-10 0 298 646H769L757 514H507L496 395H723L712 271H485L474 132H732L709 0H323L334 129H190L128 0ZM244 250H345L368 513Z" glyph-name="AE" horiz-adv-x="754" unicode="&#198;" /><glyph d="M380 691 504 808H650L503 691ZM-10 0 298 646H769L757 514H507L496 395H723L712 271H485L474 132H732L709 0H323L334 129H190L128 0ZM244 250H345L368 513Z" glyph-name="AEacute" horiz-adv-x="754" unicode="&#508;" /><glyph d="M264 691 388 808H534L387 691ZM11 0 250 645 407 651 546 0H400L376 127H196L152 0ZM235 243H356L312 464Z" glyph-name="Aacute" horiz-adv-x="555" unicode="&#193;" /><glyph d="M329 681Q264 681 232 720Q200 759 199 827H300Q301 799 309.5 784.5Q318 770 337 770Q356 770 368.5 784Q381 798 385 827H484Q472 760 433.5 720.5Q395 681 329 681ZM11 0 250 645 407 651 546 0H400L376 127H196L152 0ZM235 243H356L312 464Z" glyph-name="Abreve" horiz-adv-x="555" unicode="&#258;" /><glyph d="M181 691 287 820 396 821 479 691H371L334 748L287 691ZM11 0 250 645 407 651 546 0H400L376 127H196L152 0ZM235 243H356L312 464Z" glyph-name="Acircumflex" horiz-adv-x="555" unicode="&#194;" /><glyph d="M182 697 192 816H315L305 697ZM357 697 367 816H491L480 697ZM11 0 250 645 407 651 546 0H400L376 127H196L152 0ZM235 243H356L312 464Z" glyph-name="Adieresis" horiz-adv-x="555" unicode="&#196;" /><glyph d="M273 691 145 808H291L396 691ZM11 0 250 645 407 651 546 0H400L376 127H196L152 0ZM235 243H356L312 464Z" glyph-name="Agrave" horiz-adv-x="555" unicode="&#192;" /><glyph d="M214 708 222 798H459L451 708ZM11 0 250 645 407 651 546 0H400L376 127H196L152 0ZM235 243H356L312 464Z" glyph-name="Amacron" horiz-adv-x="555" unicode="&#256;" /><glyph d="M428 -231Q388 -231 363 -210Q338 -189 338 -148Q338 -110 360 -72Q382 -34 425 0H400L376 127H196L152 0H11L249 645L407 651L545 0H520Q488 -26 465 -54Q442 -82 442 -107Q442 -124 449.5 -131.5Q457 -139 473 -139Q483 -139 492.5 -136.5Q502 -134 513 -129L500 -216Q482 -224 465 -227.5Q448 -231 428 -231ZM235 243H355L312 464Z" glyph-name="Aogonek" horiz-adv-x="554" unicode="&#260;" /><glyph d="M329 677Q280 677 253.5 701.5Q227 726 227 771Q227 820 258.5 855Q290 890 348 890Q397 890 423.5 865.5Q450 841 450 796Q450 747 418.5 712Q387 677 329 677ZM336 743Q351 743 361.5 756.5Q372 770 372 789Q372 805 364 814.5Q356 824 342 824Q326 824 316 811Q306 798 306 779Q306 763 314 753Q322 743 336 743ZM11 0 250 645 407 651 546 0H400L376 127H196L152 0ZM235 243H356L312 464Z" glyph-name="Aring" horiz-adv-x="555" unicode="&#197;" /><glyph d="M182 692Q184 761 209 791.5Q234 822 274 822Q290 822 303 816.5Q316 811 327 804.5Q338 798 349 792.5Q360 787 372 787Q384 787 391 801Q398 815 399 832L480 827Q478 764 452.5 730.5Q427 697 379 697Q362 697 349 702Q336 707 325.5 713.5Q315 720 305.5 725Q296 730 286 730Q275 730 268.5 720.5Q262 711 261 692ZM11 0 250 645 407 651 546 0H400L376 127H196L152 0ZM235 243H356L312 464Z" glyph-name="Atilde" horiz-adv-x="555" unicode="&#195;" /><glyph d="M66 0 122 646H286Q396 646 455 602.5Q514 559 514 484Q514 429 487 392.5Q460 356 406 341Q459 329 488.5 292.5Q518 256 518 201Q518 106 448 53Q378 0 250 0ZM238 386H282Q325 386 347.5 404Q370 422 370 457Q370 489 349 505Q328 521 290 521H250ZM215 125H273Q323 125 348.5 145Q374 165 374 206Q374 240 351 258Q328 276 284 276H228Z" glyph-name="B" horiz-adv-x="536" unicode="B" /><glyph d="M304 -13Q181 -13 122.5 66.5Q64 146 64 280Q64 366 84.5 436Q105 506 143 555.5Q181 605 236.5 632Q292 659 362 659Q396 659 431.5 652Q467 645 495 631L463 498Q441 509 418.5 515.5Q396 522 366 522Q293 522 253 460.5Q213 399 213 289Q213 212 245.5 168Q278 124 338 124Q369 124 392.5 131Q416 138 447 154L422 10Q395 -1 364 -7Q333 -13 304 -13Z" glyph-name="C" horiz-adv-x="466" unicode="C" /><glyph glyph-name="CR" horiz-adv-x="201" unicode="" /><glyph d="M270 691 394 808H540L393 691ZM304 -13Q181 -13 122.5 66.5Q64 146 64 280Q64 366 84.5 436Q105 506 143 555.5Q181 605 236.5 632Q292 659 362 659Q396 659 431.5 652Q467 645 495 631L463 498Q441 509 418.5 515.5Q396 522 366 522Q293 522 253 460.5Q213 399 213 289Q213 212 245.5 168Q278 124 338 124Q369 124 392.5 131Q416 138 447 154L422 10Q395 -1 364 -7Q333 -13 304 -13Z" glyph-name="Cacute" horiz-adv-x="465" unicode="&#262;" /><glyph d="M282 687 206 817H312L344 759L384 817H491L391 687ZM304 -13Q181 -13 122.5 66.5Q64 146 64 280Q64 366 84.5 436Q105 506 143 555.5Q181 605 236.5 632Q292 659 362 659Q396 659 431.5 652Q467 645 495 631L463 498Q441 509 418.5 515.5Q396 522 366 522Q293 522 253 460.5Q213 399 213 289Q213 212 245.5 168Q278 124 338 124Q369 124 392.5 131Q416 138 447 154L422 10Q395 -1 364 -7Q333 -13 304 -13Z" glyph-name="Ccaron" horiz-adv-x="465" unicode="&#268;" /><glyph d="M244 -231Q220 -231 203.5 -226.5Q187 -222 169 -214V-140Q185 -148 200 -153Q215 -158 231 -158Q246 -158 256 -150Q266 -142 266 -126Q266 -109 251 -98Q236 -87 205 -86L234 -5Q147 16 105.5 91.5Q64 167 64 280Q64 366 84.5 436Q105 506 143 555.5Q181 605 236.5 632Q292 659 362 659Q396 659 431.5 652Q467 645 495 631L463 498Q441 509 418.5 515.5Q396 522 366 522Q293 522 253 460.5Q213 399 213 289Q213 212 245.5 168Q278 124 338 124Q369 124 392.5 131Q416 138 447 154L422 10Q396 0 366.5 -6Q337 -12 309 -13L296 -44Q324 -52 339 -73Q354 -94 354 -124Q354 -173 324 -202Q294 -231 244 -231Z" glyph-name="Ccedilla" horiz-adv-x="465" unicode="&#199;" /><glyph d="M182 691 288 820 397 821 480 691H372L335 748L288 691ZM304 -13Q181 -13 122.5 66.5Q64 146 64 280Q64 366 84.5 436Q105 506 143 555.5Q181 605 236.5 632Q292 659 362 659Q396 659 431.5 652Q467 645 495 631L463 498Q441 509 418.5 515.5Q396 522 366 522Q293 522 253 460.5Q213 399 213 289Q213 212 245.5 168Q278 124 338 124Q369 124 392.5 131Q416 138 447 154L422 10Q395 -1 364 -7Q333 -13 304 -13Z" glyph-name="Ccircumflex" horiz-adv-x="465" unicode="&#264;" /><glyph d="M269 697 279 816H410L399 697ZM304 -13Q181 -13 122.5 66.5Q64 146 64 280Q64 366 84.5 436Q105 506 143 555.5Q181 605 236.5 632Q292 659 362 659Q396 659 431.5 652Q467 645 495 631L463 498Q441 509 418.5 515.5Q396 522 366 522Q293 522 253 460.5Q213 399 213 289Q213 212 245.5 168Q278 124 338 124Q369 124 392.5 131Q416 138 447 154L422 10Q395 -1 364 -7Q333 -13 304 -13Z" glyph-name="Cdotaccent" horiz-adv-x="465" unicode="&#266;" /><glyph d="M66 0 122 646H205Q367 646 461.5 562Q556 478 556 336Q556 172 466.5 86Q377 0 192 0ZM219 134H236Q326 134 368 185Q410 236 410 335Q410 413 366.5 459.5Q323 506 265 511L252 512Z" glyph-name="D" horiz-adv-x="563" unicode="D" /><glyph d="M282 687 206 817H312L344 759L384 817H491L391 687ZM66 0 122 646H205Q367 646 461.5 562Q556 478 556 336Q556 172 466.5 86Q377 0 192 0ZM219 134H236Q326 134 368 185Q410 236 410 335Q410 413 366.5 459.5Q323 506 265 511L252 512Z" glyph-name="Dcaron" horiz-adv-x="563" unicode="&#270;" /><glyph d="M66 0 90 273H47L55 378H99L122 646H205Q367 646 461.5 562Q556 478 556 336Q556 172 466.5 86Q377 0 192 0ZM219 134H236Q326 134 368 185Q410 236 410 335Q410 413 366.5 459.5Q323 506 265 511L252 512L240 378H321L312 273H231Z" glyph-name="Dcroat" horiz-adv-x="563" unicode="&#272;" /><glyph d="M42 0 299 650 387 651 527 0ZM205 131H384L318 430Z" glyph-name="Delta" horiz-adv-x="569" unicode="&#8710;" /><glyph d="M66 0 122 646H512L500 514H250L239 395H466L455 271H228L217 132H475L452 0Z" glyph-name="E" horiz-adv-x="497" unicode="E" /><glyph d="M261 691 385 808H531L384 691ZM66 0 122 646H512L500 514H250L239 395H466L455 271H228L217 132H475L452 0Z" glyph-name="Eacute" horiz-adv-x="497" unicode="&#201;" /><glyph d="M329 681Q264 681 232 720Q200 759 199 827H300Q301 799 309.5 784.5Q318 770 337 770Q356 770 368.5 784Q381 798 385 827H484Q472 760 433.5 720.5Q395 681 329 681ZM66 0 122 646H512L500 514H250L239 395H466L455 271H228L217 132H475L452 0Z" glyph-name="Ebreve" horiz-adv-x="497" unicode="&#276;" /><glyph d="M274 687 198 817H304L336 759L376 817H483L383 687ZM66 0 122 646H512L500 514H250L239 395H466L455 271H228L217 132H475L452 0Z" glyph-name="Ecaron" horiz-adv-x="497" unicode="&#282;" /><glyph d="M181 691 287 820 396 821 479 691H371L334 748L287 691ZM66 0 122 646H512L500 514H250L239 395H466L455 271H228L217 132H475L452 0Z" glyph-name="Ecircumflex" horiz-adv-x="497" unicode="&#202;" /><glyph d="M182 697 192 816H315L305 697ZM357 697 367 816H491L480 697ZM66 0 122 646H512L500 514H250L239 395H466L455 271H228L217 132H475L452 0Z" glyph-name="Edieresis" horiz-adv-x="497" unicode="&#203;" /><glyph d="M266 697 276 816H407L396 697ZM66 0 122 646H512L500 514H250L239 395H466L455 271H228L217 132H475L452 0Z" glyph-name="Edotaccent" horiz-adv-x="497" unicode="&#278;" /><glyph d="M275 691 147 808H293L398 691ZM66 0 122 646H512L500 514H250L239 395H466L455 271H228L217 132H475L452 0Z" glyph-name="Egrave" horiz-adv-x="497" unicode="&#200;" /><glyph d="M214 708 222 798H459L451 708ZM66 0 122 646H512L500 514H250L239 395H466L455 271H228L217 132H475L452 0Z" glyph-name="Emacron" horiz-adv-x="497" unicode="&#274;" /><glyph d="M260 -230V-101Q321 -91 347.5 -58.5Q374 -26 381 42L224 391L189 0H65L122 646H249L419 270L451 646H575L521 34Q509 -99 445 -159.5Q381 -220 260 -230Z" glyph-name="Eng" horiz-adv-x="584" unicode="&#330;" /><glyph d="M345 -231Q305 -231 280 -209.5Q255 -188 255 -148Q255 -110 277 -72Q299 -34 342 0H66L122 646H512L500 514H250L239 395H466L455 271H228L217 132H475L452 0H437Q406 -26 382.5 -53.5Q359 -81 359 -106Q359 -124 366.5 -131.5Q374 -139 390 -139Q400 -139 410 -136.5Q420 -134 431 -129L417 -216Q398 -224 381.5 -227.5Q365 -231 345 -231Z" glyph-name="Eogonek" horiz-adv-x="497" unicode="&#280;" /><glyph d="M66 0 90 273H47L55 378H99L122 646H205Q367 646 461.5 562Q556 478 556 336Q556 172 466.5 86Q377 0 192 0ZM219 134H236Q326 134 368 185Q410 236 410 335Q410 413 366.5 459.5Q323 506 265 511L252 512L240 378H321L312 273H231Z" glyph-name="Eth" horiz-adv-x="563" unicode="&#208;" /><glyph d="M31 216 47 298H90Q91 311 92 324.5Q93 338 94 351H57L74 433H109Q139 538 211 598.5Q283 659 388 659Q422 659 457.5 652Q493 645 521 631L489 498Q467 509 444.5 515.5Q422 522 392 522Q348 522 315.5 499Q283 476 264 433H469L451 351H243Q242 339 240.5 325.5Q239 312 239 298H439L420 216H248Q261 172 290.5 148Q320 124 364 124Q395 124 418.5 131Q442 138 473 154L448 10Q421 -1 390 -7Q359 -13 330 -13Q223 -13 164.5 48.5Q106 110 94 216Z" glyph-name="Euro" horiz-adv-x="475" unicode="&#8364;" /><glyph d="M33 170 48 238H82Q83 248 83.5 258.5Q84 269 85 279H56L71 347H99Q125 430 188 479Q251 528 344 528Q373 528 403.5 522.5Q434 517 458 505L432 396Q413 406 393.5 411Q374 416 349 416Q310 416 281 398.5Q252 381 236 347H419L404 279H217Q216 268 215 256.5Q214 245 214 238H393L377 170H222Q232 136 257 118.5Q282 101 321 101Q348 101 370 106Q392 111 419 124L398 8Q374 -1 347.5 -6Q321 -11 295 -11Q205 -11 152 37.5Q99 86 86 170Z" glyph-name="Euro.smcp" horiz-adv-x="453" /><glyph d="M66 0 122 646H508L484 514H252L241 385H456L445 260H230L208 0Z" glyph-name="F" horiz-adv-x="478" unicode="F" /><glyph d="M315 -13Q191 -13 127.5 65Q64 143 64 273Q64 460 148 559.5Q232 659 381 659Q414 659 454.5 652Q495 645 520 632L493 496Q466 509 439 515.5Q412 522 381 522Q297 522 254 459.5Q211 397 211 280Q211 203 240.5 163.5Q270 124 327 124Q337 124 348.5 125.5Q360 127 368 129L377 239H322L331 352H517L489 28Q455 8 410.5 -2.5Q366 -13 315 -13Z" glyph-name="G" horiz-adv-x="539" unicode="G" /><glyph d="M352 681Q287 681 255 720Q223 759 222 827H323Q324 799 332.5 784.5Q341 770 360 770Q379 770 391.5 784Q404 798 408 827H507Q495 760 456.5 720.5Q418 681 352 681ZM315 -13Q191 -13 127.5 65Q64 143 64 273Q64 460 148 559.5Q232 659 381 659Q414 659 454.5 652Q495 645 520 632L493 496Q466 509 439 515.5Q412 522 381 522Q297 522 254 459.5Q211 397 211 280Q211 203 240.5 163.5Q270 124 327 124Q337 124 348.5 125.5Q360 127 368 129L377 239H322L331 352H517L489 28Q455 8 410.5 -2.5Q366 -13 315 -13Z" glyph-name="Gbreve" horiz-adv-x="539" unicode="&#286;" /><glyph d="M204 691 310 820 419 821 502 691H394L357 748L310 691ZM315 -13Q191 -13 127.5 65Q64 143 64 273Q64 460 148 559.5Q232 659 381 659Q414 659 454.5 652Q495 645 520 632L493 496Q466 509 439 515.5Q412 522 381 522Q297 522 254 459.5Q211 397 211 280Q211 203 240.5 163.5Q270 124 327 124Q337 124 348.5 125.5Q360 127 368 129L377 239H322L331 352H517L489 28Q455 8 410.5 -2.5Q366 -13 315 -13Z" glyph-name="Gcircumflex" horiz-adv-x="539" unicode="&#284;" /><glyph d="M315 -13Q191 -13 127.5 65Q64 143 64 273Q64 460 148 559.5Q232 659 381 659Q414 659 454.5 652Q495 645 520 632L493 496Q466 509 439 515.5Q412 522 381 522Q297 522 254 459.5Q211 397 211 280Q211 203 240.5 163.5Q270 124 327 124Q337 124 348.5 125.5Q360 127 368 129L377 239H322L331 352H517L489 28Q455 8 410.5 -2.5Q366 -13 315 -13ZM290 -258 184 -248Q206 -203 216 -166.5Q226 -130 230 -71L231 -56H344L341 -92Q337 -142 326 -181.5Q315 -221 290 -258Z" glyph-name="Gcommaaccent" horiz-adv-x="539" unicode="&#290;" /><glyph d="M289 697 299 816H430L419 697ZM315 -13Q191 -13 127.5 65Q64 143 64 273Q64 460 148 559.5Q232 659 381 659Q414 659 454.5 652Q495 645 520 632L493 496Q466 509 439 515.5Q412 522 381 522Q297 522 254 459.5Q211 397 211 280Q211 203 240.5 163.5Q270 124 327 124Q337 124 348.5 125.5Q360 127 368 129L377 239H322L331 352H517L489 28Q455 8 410.5 -2.5Q366 -13 315 -13Z" glyph-name="Gdotaccent" horiz-adv-x="539" unicode="&#288;" /><glyph d="M59 0 96 445Q103 535 162 590.5Q221 646 305 646H575V587L433 371Q484 352 521 310Q558 268 558 192Q558 100 501 43.5Q444 -13 347 -13Q317 -13 296.5 -9.5Q276 -6 256 1V124Q273 117 289.5 113.5Q306 110 324 110Q366 110 390.5 129Q415 148 415 188Q415 234 380.5 257Q346 280 294 285V354L406 515H329Q279 515 257.5 491Q236 467 232 425L197 0Z" glyph-name="Germandbls" horiz-adv-x="573" unicode="&#7838;" /><glyph d="M66 0 122 646H264L243 407H422L443 646H584L528 0H387L411 275H231L208 0Z" glyph-name="H" horiz-adv-x="594" unicode="H" /><glyph d="M66 0 108 482H60L69 583H117L122 646H264L258 583H437L443 646H584L578 583H626L618 482H570L528 0H387L411 275H231L208 0ZM243 407H422L429 482H249Z" glyph-name="Hbar" horiz-adv-x="593" unicode="&#294;" /><glyph d="M209 691 315 820 424 821 507 691H399L362 748L315 691ZM66 0 122 646H264L243 407H422L443 646H584L528 0H387L411 275H231L208 0Z" glyph-name="Hcircumflex" horiz-adv-x="594" unicode="&#292;" /><glyph d="M66 0 122 646H264L208 0Z" glyph-name="I" horiz-adv-x="273" unicode="I" /><glyph d="M66 0 122 646H264L208 0ZM291 -10V118Q358 129 384 164.5Q410 200 415 272L447 646H588L556 256Q545 123 483 64Q421 5 291 -10Z" glyph-name="IJ" horiz-adv-x="586" unicode="&#306;" /><glyph d="M127 691 251 808H397L250 691ZM66 0 122 646H264L208 0Z" glyph-name="Iacute" horiz-adv-x="273" unicode="&#205;" /><glyph d="M195 681Q130 681 98 720Q66 759 65 827H166Q167 799 175.5 784.5Q184 770 203 770Q222 770 234.5 784Q247 798 251 827H350Q338 760 299.5 720.5Q261 681 195 681ZM66 0 122 646H264L208 0Z" glyph-name="Ibreve" horiz-adv-x="273" unicode="&#300;" /><glyph d="M47 691 153 820 262 821 345 691H237L200 748L153 691ZM66 0 122 646H264L208 0Z" glyph-name="Icircumflex" horiz-adv-x="273" unicode="&#206;" /><glyph d="M48 697 58 816H181L171 697ZM223 697 233 816H357L346 697ZM66 0 122 646H264L208 0Z" glyph-name="Idieresis" horiz-adv-x="273" unicode="&#207;" /><glyph d="M132 697 142 816H273L262 697ZM66 0 122 646H264L208 0Z" glyph-name="Idotaccent" horiz-adv-x="273" unicode="&#304;" /><glyph d="M141 691 13 808H159L264 691ZM66 0 122 646H264L208 0Z" glyph-name="Igrave" horiz-adv-x="273" unicode="&#204;" /><glyph d="M80 708 88 798H325L317 708ZM66 0 122 646H264L208 0Z" glyph-name="Imacron" horiz-adv-x="273" unicode="&#298;" /><glyph d="M96 -231Q56 -231 31 -209.5Q6 -188 6 -148Q6 -110 28.5 -72Q51 -34 95 0H66L122 646H264L208 0H188Q157 -26 133.5 -53.5Q110 -81 110 -106Q110 -124 117.5 -131.5Q125 -139 141 -139Q151 -139 161 -136.5Q171 -134 181 -129L168 -216Q149 -224 132.5 -227.5Q116 -231 96 -231Z" glyph-name="Iogonek" horiz-adv-x="273" unicode="&#302;" /><glyph d="M48 692Q50 761 75 791.5Q100 822 140 822Q156 822 169 816.5Q182 811 193 804.5Q204 798 215 792.5Q226 787 238 787Q250 787 257 801Q264 815 265 832L346 827Q344 764 318.5 730.5Q293 697 245 697Q228 697 215 702Q202 707 191.5 713.5Q181 720 171.5 725Q162 730 152 730Q141 730 134.5 720.5Q128 711 127 692ZM66 0 122 646H264L208 0Z" glyph-name="Itilde" horiz-adv-x="273" unicode="&#296;" /><glyph d="M24 -10V118Q91 129 117 164.5Q143 200 148 272L180 646H321L289 256Q278 123 216 64Q154 5 24 -10Z" glyph-name="J" horiz-adv-x="318" unicode="J" /><glyph d="M104 691 210 820 319 821 402 691H294L257 748L210 691ZM24 -10V118Q91 129 117 164.5Q143 200 148 272L180 646H321L289 256Q278 123 216 64Q154 5 24 -10Z" glyph-name="Jcircumflex" horiz-adv-x="318" unicode="&#308;" /><glyph d="M66 0 122 646H262L239 381L446 646H600L353 328L538 0H386L231 284L206 0Z" glyph-name="K" horiz-adv-x="532" unicode="K" /><glyph d="M66 0 122 646H262L239 381L446 646H600L353 328L538 0H386L231 284L206 0ZM285 -258 179 -248Q201 -203 211 -166.5Q221 -130 225 -71L226 -56H339L336 -92Q332 -142 321 -181.5Q310 -221 285 -258Z" glyph-name="Kcommaaccent" horiz-adv-x="532" unicode="&#310;" /><glyph d="M66 0 122 646H264L219 132H442L419 0Z" glyph-name="L" horiz-adv-x="451" unicode="L" /><glyph d="M129 691 253 808H399L252 691ZM66 0 122 646H264L219 132H442L419 0Z" glyph-name="Lacute" horiz-adv-x="451" unicode="&#313;" /><glyph d="M312 448Q319 467 327.5 494Q336 521 344 548.5Q352 576 358.5 602Q365 628 368 646H487Q481 624 471 596.5Q461 569 449 542.5Q437 516 425 491Q413 466 403 448ZM66 0 122 646H264L219 132H442L419 0Z" glyph-name="Lcaron" horiz-adv-x="451" unicode="&#317;" /><glyph d="M66 0 122 646H264L219 132H442L419 0ZM237 -258 131 -248Q153 -203 163 -166.5Q173 -130 177 -71L178 -56H291L288 -92Q284 -142 273 -181.5Q262 -221 237 -258Z" glyph-name="Lcommaaccent" horiz-adv-x="451" unicode="&#315;" /><glyph d="M499 0 555 646H697L652 132H875L852 0ZM66 0 122 646H264L219 132H442L419 0ZM318 319 329 452H459L448 319Z" glyph-name="Ldot" horiz-adv-x="884" unicode="&#319;" /><glyph d="M66 0 86 233 33 200 43 330 98 364 122 646H264L247 453L339 510L328 380L235 323L219 132H442L419 0Z" glyph-name="Lslash" horiz-adv-x="451" unicode="&#321;" /><glyph d="M52 0 152 646H323L397 294L527 646H705L685 0H550L566 424L434 92L317 97L245 418L188 0Z" glyph-name="M" horiz-adv-x="741" unicode="M" /><glyph d="M66 0 122 646H249L419 269L451 646H574L518 3L402 -4L224 391L189 0Z" glyph-name="N" horiz-adv-x="584" unicode="N" /><glyph d="M286 691 410 808H556L409 691ZM66 0 122 646H249L419 269L451 646H574L518 3L402 -4L224 391L189 0Z" glyph-name="Nacute" horiz-adv-x="584" unicode="&#323;" /><glyph d="M299 687 223 817H329L361 759L401 817H508L408 687ZM66 0 122 646H249L419 269L451 646H574L518 3L402 -4L224 391L189 0Z" glyph-name="Ncaron" horiz-adv-x="584" unicode="&#327;" /><glyph d="M66 0 122 646H249L419 269L451 646H574L518 3L402 -4L224 391L189 0ZM293 -258 187 -248Q209 -203 219 -166.5Q229 -130 233 -71L234 -56H347L344 -92Q340 -142 329 -181.5Q318 -221 293 -258Z" glyph-name="Ncommaaccent" horiz-adv-x="584" unicode="&#325;" /><glyph d="M207 692Q209 761 234 791.5Q259 822 299 822Q315 822 328 816.5Q341 811 352 804.5Q363 798 374 792.5Q385 787 397 787Q409 787 416 801Q423 815 424 832L505 827Q503 764 477.5 730.5Q452 697 404 697Q387 697 374 702Q361 707 350.5 713.5Q340 720 330.5 725Q321 730 311 730Q300 730 293.5 720.5Q287 711 286 692ZM66 0 122 646H249L419 269L451 646H574L518 3L402 -4L224 391L189 0Z" glyph-name="Ntilde" horiz-adv-x="584" unicode="&#209;" /><glyph d="M288 -13Q181 -13 122 59.5Q63 132 63 264Q63 348 82.5 421Q102 494 138.5 546.5Q175 599 227.5 629Q280 659 345 659Q452 659 510.5 586.5Q569 514 569 382Q569 298 549.5 225Q530 152 494 99.5Q458 47 405.5 17Q353 -13 288 -13ZM298 124Q351 124 387 193Q423 262 423 385Q423 451 400 486.5Q377 522 334 522Q281 522 245 453Q209 384 209 261Q209 196 232 160Q255 124 298 124Z" glyph-name="O" horiz-adv-x="575" unicode="O" /><glyph d="M323 0Q199 0 131 66.5Q63 133 63 264Q63 444 153 545Q243 646 403 646H800L788 514H537L527 395H753L743 271H516L505 132H763L740 0ZM329 133H365L398 513H363Q292 513 250.5 447.5Q209 382 209 269Q209 198 240.5 165.5Q272 133 329 133Z" glyph-name="OE" horiz-adv-x="785" unicode="&#338;" /><glyph d="M275 691 399 808H545L398 691ZM288 -13Q181 -13 122 59.5Q63 132 63 264Q63 348 82.5 421Q102 494 138.5 546.5Q175 599 227.5 629Q280 659 345 659Q452 659 510.5 586.5Q569 514 569 382Q569 298 549.5 225Q530 152 494 99.5Q458 47 405.5 17Q353 -13 288 -13ZM298 124Q351 124 387 193Q423 262 423 385Q423 451 400 486.5Q377 522 334 522Q281 522 245 453Q209 384 209 261Q209 196 232 160Q255 124 298 124Z" glyph-name="Oacute" horiz-adv-x="575" unicode="&#211;" /><glyph d="M343 681Q278 681 246 720Q214 759 213 827H314Q315 799 323.5 784.5Q332 770 351 770Q370 770 382.5 784Q395 798 399 827H498Q486 760 447.5 720.5Q409 681 343 681ZM288 -13Q181 -13 122 59.5Q63 132 63 264Q63 348 82.5 421Q102 494 138.5 546.5Q175 599 227.5 629Q280 659 345 659Q452 659 510.5 586.5Q569 514 569 382Q569 298 549.5 225Q530 152 494 99.5Q458 47 405.5 17Q353 -13 288 -13ZM298 124Q351 124 387 193Q423 262 423 385Q423 451 400 486.5Q377 522 334 522Q281 522 245 453Q209 384 209 261Q209 196 232 160Q255 124 298 124Z" glyph-name="Obreve" horiz-adv-x="575" unicode="&#334;" /><glyph d="M195 691 301 820 410 821 493 691H385L348 748L301 691ZM288 -13Q181 -13 122 59.5Q63 132 63 264Q63 348 82.5 421Q102 494 138.5 546.5Q175 599 227.5 629Q280 659 345 659Q452 659 510.5 586.5Q569 514 569 382Q569 298 549.5 225Q530 152 494 99.5Q458 47 405.5 17Q353 -13 288 -13ZM298 124Q351 124 387 193Q423 262 423 385Q423 451 400 486.5Q377 522 334 522Q281 522 245 453Q209 384 209 261Q209 196 232 160Q255 124 298 124Z" glyph-name="Ocircumflex" horiz-adv-x="575" unicode="&#212;" /><glyph d="M196 697 206 816H329L319 697ZM371 697 381 816H505L494 697ZM288 -13Q181 -13 122 59.5Q63 132 63 264Q63 348 82.5 421Q102 494 138.5 546.5Q175 599 227.5 629Q280 659 345 659Q452 659 510.5 586.5Q569 514 569 382Q569 298 549.5 225Q530 152 494 99.5Q458 47 405.5 17Q353 -13 288 -13ZM298 124Q351 124 387 193Q423 262 423 385Q423 451 400 486.5Q377 522 334 522Q281 522 245 453Q209 384 209 261Q209 196 232 160Q255 124 298 124Z" glyph-name="Odieresis" horiz-adv-x="575" unicode="&#214;" /><glyph d="M289 691 161 808H307L412 691ZM288 -13Q181 -13 122 59.5Q63 132 63 264Q63 348 82.5 421Q102 494 138.5 546.5Q175 599 227.5 629Q280 659 345 659Q452 659 510.5 586.5Q569 514 569 382Q569 298 549.5 225Q530 152 494 99.5Q458 47 405.5 17Q353 -13 288 -13ZM298 124Q351 124 387 193Q423 262 423 385Q423 451 400 486.5Q377 522 334 522Q281 522 245 453Q209 384 209 261Q209 196 232 160Q255 124 298 124Z" glyph-name="Ograve" horiz-adv-x="575" unicode="&#210;" /><glyph d="M364 691 478 808H589L459 691ZM227 691 309 808H426L315 691ZM288 -13Q181 -13 122 59.5Q63 132 63 264Q63 348 82.5 421Q102 494 138.5 546.5Q175 599 227.5 629Q280 659 345 659Q452 659 510.5 586.5Q569 514 569 382Q569 298 549.5 225Q530 152 494 99.5Q458 47 405.5 17Q353 -13 288 -13ZM298 124Q351 124 387 193Q423 262 423 385Q423 451 400 486.5Q377 522 334 522Q281 522 245 453Q209 384 209 261Q209 196 232 160Q255 124 298 124Z" glyph-name="Ohungarumlaut" horiz-adv-x="575" unicode="&#336;" /><glyph d="M228 708 236 798H473L465 708ZM288 -13Q181 -13 122 59.5Q63 132 63 264Q63 348 82.5 421Q102 494 138.5 546.5Q175 599 227.5 629Q280 659 345 659Q452 659 510.5 586.5Q569 514 569 382Q569 298 549.5 225Q530 152 494 99.5Q458 47 405.5 17Q353 -13 288 -13ZM298 124Q351 124 387 193Q423 262 423 385Q423 451 400 486.5Q377 522 334 522Q281 522 245 453Q209 384 209 261Q209 196 232 160Q255 124 298 124Z" glyph-name="Omacron" horiz-adv-x="575" unicode="&#332;" /><glyph d="M36 0 45 113H188Q143 153 122.5 211.5Q102 270 108 354Q112 422 134 478.5Q156 535 191.5 575Q227 615 275.5 637Q324 659 381 659Q488 659 547.5 581Q607 503 599 374Q593 284 563 219.5Q533 155 477 113H620L610 0H353L355 99Q406 139 434 201.5Q462 264 467 353Q472 437 447 481.5Q422 526 369 526Q310 526 275.5 476Q241 426 237 333Q232 251 249.5 195Q267 139 308 99L293 0Z" glyph-name="Omega" horiz-adv-x="645" unicode="&#8486;" /><glyph d="M21 -50 105 83Q84 117 73.5 163Q63 209 63 264Q63 348 82.5 421Q102 494 138.5 546.5Q175 599 227.5 629Q280 659 345 659Q376 659 402.5 653Q429 647 451 635L490 697H602L522 571Q545 536 557 488.5Q569 441 569 382Q569 298 549.5 225Q530 152 494 99.5Q458 47 405.5 17Q353 -13 288 -13Q255 -13 226 -5.5Q197 2 173 15L132 -50ZM209 261Q209 261 209 259.5Q209 258 209 250L374 512Q366 517 355.5 519.5Q345 522 334 522Q281 522 245 453Q209 384 209 261ZM298 124Q351 124 387 193Q423 262 423 385Q423 392 423 398.5Q423 405 422 411L251 139Q261 132 272.5 128Q284 124 298 124Z" glyph-name="Oslash" horiz-adv-x="575" unicode="&#216;" /><glyph d="M275 691 399 808H545L398 691ZM21 -50 105 83Q84 117 73.5 163Q63 209 63 264Q63 348 82.5 421Q102 494 138.5 546.5Q175 599 227.5 629Q280 659 345 659Q376 659 402.5 653Q429 647 451 635L490 697H602L522 571Q545 536 557 488.5Q569 441 569 382Q569 298 549.5 225Q530 152 494 99.5Q458 47 405.5 17Q353 -13 288 -13Q255 -13 226 -5.5Q197 2 173 15L132 -50ZM209 261Q209 261 209 259.5Q209 258 209 250L374 512Q366 517 355.5 519.5Q345 522 334 522Q281 522 245 453Q209 384 209 261ZM298 124Q351 124 387 193Q423 262 423 385Q423 392 423 398.5Q423 405 422 411L251 139Q261 132 272.5 128Q284 124 298 124Z" glyph-name="Oslashacute" horiz-adv-x="575" unicode="&#510;" /><glyph d="M196 692Q198 761 223 791.5Q248 822 288 822Q304 822 317 816.5Q330 811 341 804.5Q352 798 363 792.5Q374 787 386 787Q398 787 405 801Q412 815 413 832L494 827Q492 764 466.5 730.5Q441 697 393 697Q376 697 363 702Q350 707 339.5 713.5Q329 720 319.5 725Q310 730 300 730Q289 730 282.5 720.5Q276 711 275 692ZM288 -13Q181 -13 122 59.5Q63 132 63 264Q63 348 82.5 421Q102 494 138.5 546.5Q175 599 227.5 629Q280 659 345 659Q452 659 510.5 586.5Q569 514 569 382Q569 298 549.5 225Q530 152 494 99.5Q458 47 405.5 17Q353 -13 288 -13ZM298 124Q351 124 387 193Q423 262 423 385Q423 451 400 486.5Q377 522 334 522Q281 522 245 453Q209 384 209 261Q209 196 232 160Q255 124 298 124Z" glyph-name="Otilde" horiz-adv-x="575" unicode="&#213;" /><glyph d="M66 0 122 646H257Q317 646 367.5 632.5Q418 619 453.5 593Q489 567 509 527Q529 487 529 435Q529 330 463 271Q397 212 279 212H226L208 0ZM237 343H271Q324 343 353.5 363.5Q383 384 383 430Q383 476 352.5 495.5Q322 515 276 515H252Z" glyph-name="P" horiz-adv-x="520" unicode="P" /><glyph d="M503 -146Q430 -134 385.5 -110.5Q341 -87 307 -56Q286 -37 269 -24Q252 -11 223 -3Q148 16 105.5 85.5Q63 155 63 264Q63 349 83 422Q103 495 139.5 547Q176 599 228 629Q280 659 345 659Q452 659 510.5 586.5Q569 514 569 382Q569 315 556.5 255.5Q544 196 521 148Q498 100 465 66Q432 32 391 16Q402 11 415.5 2Q429 -7 442 -15Q459 -25 478.5 -32.5Q498 -40 523 -45ZM298 124Q351 124 387 193Q423 262 423 385Q423 451 400 486.5Q377 522 334 522Q281 522 245 453Q209 384 209 261Q209 195 232 159.5Q255 124 298 124Z" glyph-name="Q" horiz-adv-x="576" unicode="Q" /><glyph d="M65 0 122 646H267Q324 646 371.5 633Q419 620 453 594.5Q487 569 506 531Q525 493 525 444Q525 381 493.5 334.5Q462 288 402 272Q418 259 427.5 238.5Q437 218 447 191L513 0H368L309 171Q296 208 283 220Q270 232 246 232H225L205 0ZM236 356H273Q322 356 351 374.5Q380 393 380 436Q380 479 351.5 498.5Q323 518 272 518H251Z" glyph-name="R" horiz-adv-x="531" unicode="R" /><glyph d="M260 691 384 808H530L383 691ZM65 0 122 646H267Q324 646 371.5 633Q419 620 453 594.5Q487 569 506 531Q525 493 525 444Q525 381 493.5 334.5Q462 288 402 272Q418 259 427.5 238.5Q437 218 447 191L513 0H368L309 171Q296 208 283 220Q270 232 246 232H225L205 0ZM236 356H273Q322 356 351 374.5Q380 393 380 436Q380 479 351.5 498.5Q323 518 272 518H251Z" glyph-name="Racute" horiz-adv-x="531" unicode="&#340;" /><glyph d="M273 687 197 817H303L335 759L375 817H482L382 687ZM65 0 122 646H267Q324 646 371.5 633Q419 620 453 594.5Q487 569 506 531Q525 493 525 444Q525 381 493.5 334.5Q462 288 402 272Q418 259 427.5 238.5Q437 218 447 191L513 0H368L309 171Q296 208 283 220Q270 232 246 232H225L205 0ZM236 356H273Q322 356 351 374.5Q380 393 380 436Q380 479 351.5 498.5Q323 518 272 518H251Z" glyph-name="Rcaron" horiz-adv-x="531" unicode="&#344;" /><glyph d="M65 0 122 646H267Q324 646 371.5 633Q419 620 453 594.5Q487 569 506 531Q525 493 525 444Q525 381 493.5 334.5Q462 288 402 272Q418 259 427.5 238.5Q437 218 447 191L513 0H368L309 171Q296 208 283 220Q270 232 246 232H225L205 0ZM236 356H273Q322 356 351 374.5Q380 393 380 436Q380 479 351.5 498.5Q323 518 272 518H251ZM273 -258 167 -248Q189 -203 199 -166.5Q209 -130 213 -71L214 -56H327L324 -92Q320 -142 309 -181.5Q298 -221 273 -258Z" glyph-name="Rcommaaccent" horiz-adv-x="531" unicode="&#342;" /><glyph d="M218 -13Q170 -13 122.5 -1.5Q75 10 46 30V170Q92 144 132.5 130.5Q173 117 224 117Q266 117 286 133Q306 149 306 177Q306 200 291 216Q276 232 246 248L205 270Q133 308 102 352Q71 396 71 462Q71 549 133 604Q195 659 302 659Q351 659 394 649Q437 639 474 620L448 485Q411 504 374 516.5Q337 529 295 529Q257 529 237.5 516Q218 503 218 476Q218 454 231.5 436.5Q245 419 281 400L326 377Q392 343 423.5 299.5Q455 256 455 192Q455 97 393 42Q331 -13 218 -13Z" glyph-name="S" horiz-adv-x="471" unicode="S" /><glyph d="M224 691 348 808H494L347 691ZM218 -13Q170 -13 122.5 -1.5Q75 10 46 30V170Q92 144 132.5 130.5Q173 117 224 117Q266 117 286 133Q306 149 306 177Q306 200 291 216Q276 232 246 248L205 270Q133 308 102 352Q71 396 71 462Q71 549 133 604Q195 659 302 659Q351 659 394 649Q437 639 474 620L448 485Q411 504 374 516.5Q337 529 295 529Q257 529 237.5 516Q218 503 218 476Q218 454 231.5 436.5Q245 419 281 400L326 377Q392 343 423.5 299.5Q455 256 455 192Q455 97 393 42Q331 -13 218 -13Z" glyph-name="Sacute" horiz-adv-x="471" unicode="&#346;" /><glyph d="M240 687 164 817H270L302 759L342 817H449L349 687ZM218 -13Q170 -13 122.5 -1.5Q75 10 46 30V170Q92 144 132.5 130.5Q173 117 224 117Q266 117 286 133Q306 149 306 177Q306 200 291 216Q276 232 246 248L205 270Q133 308 102 352Q71 396 71 462Q71 549 133 604Q195 659 302 659Q351 659 394 649Q437 639 474 620L448 485Q411 504 374 516.5Q337 529 295 529Q257 529 237.5 516Q218 503 218 476Q218 454 231.5 436.5Q245 419 281 400L326 377Q392 343 423.5 299.5Q455 256 455 192Q455 97 393 42Q331 -13 218 -13Z" glyph-name="Scaron" horiz-adv-x="471" unicode="&#352;" /><glyph d="M198 -231Q174 -231 157 -226.5Q140 -222 122 -214V-140Q138 -148 153 -153Q168 -158 184 -158Q200 -158 210 -150Q220 -142 220 -126Q220 -109 204.5 -98Q189 -87 158 -86L185 -11Q145 -8 108 3Q71 14 46 30V170Q92 144 132.5 130.5Q173 117 224 117Q266 117 286 133Q306 149 306 177Q306 200 291 216Q276 232 246 248L205 270Q133 308 102 352Q71 396 71 462Q71 549 133 604Q195 659 302 659Q351 659 394 649Q437 639 474 620L448 485Q411 504 374 516.5Q337 529 295 529Q257 529 237.5 516Q218 503 218 476Q218 454 231.5 436.5Q245 419 281 400L326 377Q392 343 423.5 299.5Q455 256 455 192Q455 107 405 53.5Q355 0 262 -11L250 -44Q278 -52 293 -73Q308 -94 308 -124Q308 -173 277.5 -202Q247 -231 198 -231Z" glyph-name="Scedilla" horiz-adv-x="471" unicode="&#350;" /><glyph d="M144 691 250 820 359 821 442 691H334L297 748L250 691ZM218 -13Q170 -13 122.5 -1.5Q75 10 46 30V170Q92 144 132.5 130.5Q173 117 224 117Q266 117 286 133Q306 149 306 177Q306 200 291 216Q276 232 246 248L205 270Q133 308 102 352Q71 396 71 462Q71 549 133 604Q195 659 302 659Q351 659 394 649Q437 639 474 620L448 485Q411 504 374 516.5Q337 529 295 529Q257 529 237.5 516Q218 503 218 476Q218 454 231.5 436.5Q245 419 281 400L326 377Q392 343 423.5 299.5Q455 256 455 192Q455 97 393 42Q331 -13 218 -13Z" glyph-name="Scircumflex" horiz-adv-x="471" unicode="&#348;" /><glyph d="M218 -13Q170 -13 122.5 -1.5Q75 10 46 30V170Q92 144 132.5 130.5Q173 117 224 117Q266 117 286 133Q306 149 306 177Q306 200 291 216Q276 232 246 248L205 270Q133 308 102 352Q71 396 71 462Q71 549 133 604Q195 659 302 659Q351 659 394 649Q437 639 474 620L448 485Q411 504 374 516.5Q337 529 295 529Q257 529 237.5 516Q218 503 218 476Q218 454 231.5 436.5Q245 419 281 400L326 377Q392 343 423.5 299.5Q455 256 455 192Q455 97 393 42Q331 -13 218 -13ZM216 -258 110 -248Q132 -203 142 -166.5Q152 -130 156 -71L157 -56H270L267 -92Q263 -142 252 -181.5Q241 -221 216 -258Z" glyph-name="Scommaaccent" horiz-adv-x="471" unicode="&#536;" /><glyph d="M174 0 219 514H66L77 646H532L509 514H361L316 0Z" glyph-name="T" horiz-adv-x="491" unicode="T" /><glyph d="M174 0 195 242H99L107 343H205L219 514H66L77 646H532L509 514H361L346 343H445L437 242H336L316 0Z" glyph-name="Tbar" horiz-adv-x="542" unicode="&#358;" /><glyph d="M245 687 169 817H275L307 759L347 817H454L354 687ZM174 0 219 514H66L77 646H532L509 514H361L316 0Z" glyph-name="Tcaron" horiz-adv-x="491" unicode="&#356;" /><glyph d="M216 -231Q192 -231 175 -226.5Q158 -222 140 -214V-140Q156 -148 171 -153Q186 -158 202 -158Q217 -158 227 -150Q237 -142 237 -126Q237 -109 222 -98Q207 -87 176 -86L207 0H174L219 514H66L77 646H532L509 514H361L316 0H285L267 -44Q295 -52 310.5 -73Q326 -94 326 -124Q326 -173 295.5 -202Q265 -231 216 -231Z" glyph-name="Tcedilla" horiz-adv-x="491" unicode="&#354;" /><glyph d="M174 0 219 514H66L77 646H532L509 514H361L316 0ZM234 -258 128 -248Q150 -203 160 -166.5Q170 -130 174 -71L175 -56H288L285 -92Q281 -142 270 -181.5Q259 -221 234 -258Z" glyph-name="Tcommaaccent" horiz-adv-x="491" unicode="&#538;" /><glyph d="M66 0 122 646H264L254 541H270Q395 541 456.5 484Q518 427 518 328Q518 224 451 165.5Q384 107 264 107H216L208 0ZM228 238H261Q315 238 343.5 260.5Q372 283 372 326Q372 368 345.5 389Q319 410 270 410H243Z" glyph-name="Thorn" horiz-adv-x="512" unicode="&#222;" /><glyph d="M285 -13Q184 -13 129.5 46.5Q75 106 75 207Q75 217 77 246.5Q79 276 80 298L111 646H254L225 315Q222 290 220.5 263Q219 236 219 226Q219 175 238.5 150Q258 125 297 125Q346 125 369 161Q392 197 399 277L430 646H572L537 258Q525 121 462.5 54Q400 -13 285 -13Z" glyph-name="U" horiz-adv-x="569" unicode="U" /><glyph d="M276 691 400 808H546L399 691ZM285 -13Q184 -13 129.5 46.5Q75 106 75 207Q75 217 77 246.5Q79 276 80 298L111 646H254L225 315Q222 290 220.5 263Q219 236 219 226Q219 175 238.5 150Q258 125 297 125Q346 125 369 161Q392 197 399 277L430 646H572L537 258Q525 121 462.5 54Q400 -13 285 -13Z" glyph-name="Uacute" horiz-adv-x="569" unicode="&#218;" /><glyph d="M344 681Q279 681 247 720Q215 759 214 827H315Q316 799 324.5 784.5Q333 770 352 770Q371 770 383.5 784Q396 798 400 827H499Q487 760 448.5 720.5Q410 681 344 681ZM285 -13Q184 -13 129.5 46.5Q75 106 75 207Q75 217 77 246.5Q79 276 80 298L111 646H254L225 315Q222 290 220.5 263Q219 236 219 226Q219 175 238.5 150Q258 125 297 125Q346 125 369 161Q392 197 399 277L430 646H572L537 258Q525 121 462.5 54Q400 -13 285 -13Z" glyph-name="Ubreve" horiz-adv-x="569" unicode="&#364;" /><glyph d="M196 691 302 820 411 821 494 691H386L349 748L302 691ZM285 -13Q184 -13 129.5 46.5Q75 106 75 207Q75 217 77 246.5Q79 276 80 298L111 646H254L225 315Q222 290 220.5 263Q219 236 219 226Q219 175 238.5 150Q258 125 297 125Q346 125 369 161Q392 197 399 277L430 646H572L537 258Q525 121 462.5 54Q400 -13 285 -13Z" glyph-name="Ucircumflex" horiz-adv-x="569" unicode="&#219;" /><glyph d="M197 697 207 816H330L320 697ZM372 697 382 816H506L495 697ZM285 -13Q184 -13 129.5 46.5Q75 106 75 207Q75 217 77 246.5Q79 276 80 298L111 646H254L225 315Q222 290 220.5 263Q219 236 219 226Q219 175 238.5 150Q258 125 297 125Q346 125 369 161Q392 197 399 277L430 646H572L537 258Q525 121 462.5 54Q400 -13 285 -13Z" glyph-name="Udieresis" horiz-adv-x="569" unicode="&#220;" /><glyph d="M290 691 162 808H308L413 691ZM285 -13Q184 -13 129.5 46.5Q75 106 75 207Q75 217 77 246.5Q79 276 80 298L111 646H254L225 315Q222 290 220.5 263Q219 236 219 226Q219 175 238.5 150Q258 125 297 125Q346 125 369 161Q392 197 399 277L430 646H572L537 258Q525 121 462.5 54Q400 -13 285 -13Z" glyph-name="Ugrave" horiz-adv-x="569" unicode="&#217;" /><glyph d="M365 691 479 808H590L460 691ZM228 691 310 808H427L316 691ZM285 -13Q184 -13 129.5 46.5Q75 106 75 207Q75 217 77 246.5Q79 276 80 298L111 646H254L225 315Q222 290 220.5 263Q219 236 219 226Q219 175 238.5 150Q258 125 297 125Q346 125 369 161Q392 197 399 277L430 646H572L537 258Q525 121 462.5 54Q400 -13 285 -13Z" glyph-name="Uhungarumlaut" horiz-adv-x="569" unicode="&#368;" /><glyph d="M229 708 237 798H474L466 708ZM285 -13Q184 -13 129.5 46.5Q75 106 75 207Q75 217 77 246.5Q79 276 80 298L111 646H254L225 315Q222 290 220.5 263Q219 236 219 226Q219 175 238.5 150Q258 125 297 125Q346 125 369 161Q392 197 399 277L430 646H572L537 258Q525 121 462.5 54Q400 -13 285 -13Z" glyph-name="Umacron" horiz-adv-x="569" unicode="&#362;" /><glyph d="M317 -218Q277 -218 252 -196.5Q227 -175 227 -135Q227 -104 242 -73Q257 -42 285 -13Q281 -13 277 -13Q273 -13 269 -12Q176 -7 125.5 52Q75 111 75 207Q75 217 77 246.5Q79 276 80 298L111 646H254L225 315Q223 290 221.5 263Q220 236 220 226Q220 175 239 150Q258 125 297 125Q346 125 369 161Q392 197 399 277L431 646H572L538 258Q529 164 498.5 105.5Q468 47 415 14Q376 -12 353.5 -42.5Q331 -73 331 -95Q331 -111 339 -118.5Q347 -126 362 -126Q372 -126 382 -123.5Q392 -121 403 -116L389 -203Q370 -211 353.5 -214.5Q337 -218 317 -218Z" glyph-name="Uogonek" horiz-adv-x="569" unicode="&#370;" /><glyph d="M344 677Q295 677 268.5 701.5Q242 726 242 771Q242 820 273.5 855Q305 890 363 890Q412 890 438.5 865.5Q465 841 465 796Q465 747 433.5 712Q402 677 344 677ZM351 743Q366 743 376.5 756.5Q387 770 387 789Q387 805 379 814.5Q371 824 357 824Q341 824 331 811Q321 798 321 779Q321 763 329 753Q337 743 351 743ZM285 -13Q184 -13 129.5 46.5Q75 106 75 207Q75 217 77 246.5Q79 276 80 298L111 646H254L225 315Q222 290 220.5 263Q219 236 219 226Q219 175 238.5 150Q258 125 297 125Q346 125 369 161Q392 197 399 277L430 646H572L537 258Q525 121 462.5 54Q400 -13 285 -13Z" glyph-name="Uring" horiz-adv-x="569" unicode="&#366;" /><glyph d="M197 692Q199 761 224 791.5Q249 822 289 822Q305 822 318 816.5Q331 811 342 804.5Q353 798 364 792.5Q375 787 387 787Q399 787 406 801Q413 815 414 832L495 827Q493 764 467.5 730.5Q442 697 394 697Q377 697 364 702Q351 707 340.5 713.5Q330 720 320.5 725Q311 730 301 730Q290 730 283.5 720.5Q277 711 276 692ZM285 -13Q184 -13 129.5 46.5Q75 106 75 207Q75 217 77 246.5Q79 276 80 298L111 646H254L225 315Q222 290 220.5 263Q219 236 219 226Q219 175 238.5 150Q258 125 297 125Q346 125 369 161Q392 197 399 277L430 646H572L537 258Q525 121 462.5 54Q400 -13 285 -13Z" glyph-name="Utilde" horiz-adv-x="570" unicode="&#360;" /><glyph d="M202 -4 68 646H209L290 225L445 646H588L337 3Z" glyph-name="V" horiz-adv-x="546" unicode="V" /><glyph d="M162 -3 81 646H221L266 232L397 643L540 649L586 230L715 646H854L640 2L490 -3L442 424L315 2Z" glyph-name="W" horiz-adv-x="819" unicode="W" /><glyph d="M411 691 535 808H681L534 691ZM162 -3 81 646H221L266 232L397 643L540 649L586 230L715 646H854L640 2L490 -3L442 424L315 2Z" glyph-name="Wacute" horiz-adv-x="818" unicode="&#7810;" /><glyph d="M331 691 437 820 546 821 629 691H521L484 748L437 691ZM162 -3 81 646H221L266 232L397 643L540 649L586 230L715 646H854L640 2L490 -3L442 424L315 2Z" glyph-name="Wcircumflex" horiz-adv-x="818" unicode="&#372;" /><glyph d="M332 697 342 816H465L455 697ZM507 697 517 816H641L630 697ZM162 -3 81 646H221L266 232L397 643L540 649L586 230L715 646H854L640 2L490 -3L442 424L315 2Z" glyph-name="Wdieresis" horiz-adv-x="818" unicode="&#7812;" /><glyph d="M425 691 297 808H443L548 691ZM162 -3 81 646H221L266 232L397 643L540 649L586 230L715 646H854L640 2L490 -3L442 424L315 2Z" glyph-name="Wgrave" horiz-adv-x="818" unicode="&#7808;" /><glyph d="M4 0 214 341 78 646H232L308 459L424 646H578L372 337L521 0H365L280 208L159 0Z" glyph-name="X" horiz-adv-x="533" unicode="X" /><glyph d="M268 697 278 816H409L398 697ZM4 0 214 341 78 646H232L308 459L424 646H578L372 337L521 0H365L280 208L159 0Z" glyph-name="Xdot" horiz-adv-x="533" unicode="&#7818;" /><glyph d="M176 0 199 267 50 646H192L282 410L412 646H559L340 266L317 0Z" glyph-name="Y" horiz-adv-x="493" unicode="Y" /><glyph d="M238 691 362 808H508L361 691ZM176 0 199 267 50 646H192L282 410L412 646H559L340 266L317 0Z" glyph-name="Yacute" horiz-adv-x="493" unicode="&#221;" /><glyph d="M158 691 264 820 373 821 456 691H348L311 748L264 691ZM176 0 199 267 50 646H192L282 410L412 646H559L340 266L317 0Z" glyph-name="Ycircumflex" horiz-adv-x="493" unicode="&#374;" /><glyph d="M159 697 169 816H292L282 697ZM334 697 344 816H468L457 697ZM176 0 199 267 50 646H192L282 410L412 646H559L340 266L317 0Z" glyph-name="Ydieresis" horiz-adv-x="493" unicode="&#376;" /><glyph d="M252 691 124 808H270L375 691ZM176 0 199 267 50 646H192L282 410L412 646H559L340 266L317 0Z" glyph-name="Ygrave" horiz-adv-x="493" unicode="&#7922;" /><glyph d="M26 0V59L317 514H87L99 646H528V587L236 132H484L461 0Z" glyph-name="Z" horiz-adv-x="502" unicode="Z" /><glyph d="M245 691 369 808H515L368 691ZM26 0V59L317 514H87L99 646H528V587L236 132H484L461 0Z" glyph-name="Zacute" horiz-adv-x="502" unicode="&#377;" /><glyph d="M258 687 182 817H288L320 759L360 817H467L367 687ZM26 0V59L317 514H87L99 646H528V587L236 132H484L461 0Z" glyph-name="Zcaron" horiz-adv-x="502" unicode="&#381;" /><glyph d="M250 697 260 816H391L380 697ZM26 0V59L317 514H87L99 646H528V587L236 132H484L461 0Z" glyph-name="Zdotaccent" horiz-adv-x="502" unicode="&#379;" /><glyph d="M26 0V59L167 279H102L111 380H232L317 514H87L99 646H528V587L395 380H466L449 279H331L236 132H484L461 0Z" glyph-name="Zstroke" horiz-adv-x="502" unicode="&#437;" /><glyph d="M200 -13Q131 -13 93 44.5Q55 102 55 197Q55 341 121.5 423.5Q188 506 304 506Q355 506 400.5 497.5Q446 489 489 473Q481 439 473 392.5Q465 346 461 301L446 130Q445 116 444.5 105.5Q444 95 444 87Q444 66 447.5 46Q451 26 456 7L326 -7Q323 3 321.5 15.5Q320 28 319 41Q318 51 318.5 63.5Q319 76 320 84Q304 45 273.5 16Q243 -13 200 -13ZM239 109Q253 109 267.5 126.5Q282 144 294.5 175.5Q307 207 316.5 250.5Q326 294 330 345L333 380Q324 384 312.5 386.5Q301 389 288 389Q242 389 218.5 341.5Q195 294 195 209Q195 163 206 136Q217 109 239 109Z" glyph-name="a" horiz-adv-x="495" unicode="a" /><glyph d="M155 -13Q98 -13 65.5 22Q33 57 33 111Q33 183 75 228Q117 273 210 297L280 315Q281 322 281 327Q281 332 281 338Q281 361 268 374.5Q255 388 226 388Q191 388 153 375.5Q115 363 83 342V463Q119 485 160.5 496Q202 507 250 507Q334 507 374.5 466.5Q415 426 415 350Q415 332 411 297.5Q407 263 403 225Q399 187 395 149.5Q391 112 391 88Q391 68 394.5 46.5Q398 25 406 3L280 -10Q276 0 272 19Q268 38 267 53Q251 21 223 4Q195 -13 155 -13ZM198 92Q225 92 244.5 116Q264 140 269 180L272 213L229 203Q192 195 173.5 178.5Q155 162 155 136Q155 115 166.5 103.5Q178 92 198 92Z" glyph-name="a.alt" horiz-adv-x="440" /><glyph d="M10 0 218 515 370 521 492 0H354L334 94H179L143 0ZM218 202H315L280 367Z" glyph-name="a.smcp" horiz-adv-x="501" /><glyph d="M233 565 284 646Q294 662 304.5 681.5Q315 701 320 720L441 717Q434 694 420 671Q406 648 391 627L344 565ZM200 -13Q131 -13 93 44.5Q55 102 55 197Q55 341 121.5 423.5Q188 506 304 506Q355 506 400.5 497.5Q446 489 489 473Q481 439 473 392.5Q465 346 461 301L446 130Q445 116 444.5 105.5Q444 95 444 87Q444 66 447.5 46Q451 26 456 7L326 -7Q323 3 321.5 15.5Q320 28 319 41Q318 51 318.5 63.5Q319 76 320 84Q304 45 273.5 16Q243 -13 200 -13ZM239 109Q253 109 267.5 126.5Q282 144 294.5 175.5Q307 207 316.5 250.5Q326 294 330 345L333 380Q324 384 312.5 386.5Q301 389 288 389Q242 389 218.5 341.5Q195 294 195 209Q195 163 206 136Q217 109 239 109Z" glyph-name="aacute" horiz-adv-x="495" unicode="&#225;" /><glyph d="M192 565 243 646Q253 662 263.5 681.5Q274 701 279 720L400 717Q393 694 379 671Q365 648 350 627L303 565ZM155 -13Q98 -13 65.5 22Q33 57 33 111Q33 183 75 228Q117 273 210 297L280 315Q281 322 281 327Q281 332 281 338Q281 361 268 374.5Q255 388 226 388Q191 388 153 375.5Q115 363 83 342V463Q119 485 160.5 496Q202 507 250 507Q334 507 374.5 466.5Q415 426 415 350Q415 332 411 297.5Q407 263 403 225Q399 187 395 149.5Q391 112 391 88Q391 68 394.5 46.5Q398 25 406 3L280 -10Q276 0 272 19Q268 38 267 53Q251 21 223 4Q195 -13 155 -13ZM198 92Q225 92 244.5 116Q264 140 269 180L272 213L229 203Q192 195 173.5 178.5Q155 162 155 136Q155 115 166.5 103.5Q178 92 198 92Z" glyph-name="aacute.alt" horiz-adv-x="440" /><glyph d="M229 563 353 680H499L352 563ZM10 0 218 515 370 521 492 0H354L334 94H179L143 0ZM218 202H315L280 367Z" glyph-name="aacute.smcp" horiz-adv-x="501" /><glyph d="M292 556Q235 556 206.5 589Q178 622 178 683Q178 689 178 696Q178 703 179 710H268V701Q268 673 275.5 658.5Q283 644 300 644Q318 644 328 660Q338 676 342 710H432Q425 635 390 595.5Q355 556 292 556ZM200 -13Q131 -13 93 44.5Q55 102 55 197Q55 341 121.5 423.5Q188 506 304 506Q355 506 400.5 497.5Q446 489 489 473Q481 439 473 392.5Q465 346 461 301L446 130Q445 116 444.5 105.5Q444 95 444 87Q444 66 447.5 46Q451 26 456 7L326 -7Q323 3 321.5 15.5Q320 28 319 41Q318 51 318.5 63.5Q319 76 320 84Q304 45 273.5 16Q243 -13 200 -13ZM239 109Q253 109 267.5 126.5Q282 144 294.5 175.5Q307 207 316.5 250.5Q326 294 330 345L333 380Q324 384 312.5 386.5Q301 389 288 389Q242 389 218.5 341.5Q195 294 195 209Q195 163 206 136Q217 109 239 109Z" glyph-name="abreve" horiz-adv-x="495" unicode="&#259;" /><glyph d="M251 556Q194 556 165.5 589Q137 622 137 683Q137 689 137 696Q137 703 138 710H227V701Q227 673 234.5 658.5Q242 644 259 644Q277 644 287 660Q297 676 301 710H391Q384 635 349 595.5Q314 556 251 556ZM155 -13Q98 -13 65.5 22Q33 57 33 111Q33 183 75 228Q117 273 210 297L280 315Q281 322 281 327Q281 332 281 338Q281 361 268 374.5Q255 388 226 388Q191 388 153 375.5Q115 363 83 342V463Q119 485 160.5 496Q202 507 250 507Q334 507 374.5 466.5Q415 426 415 350Q415 332 411 297.5Q407 263 403 225Q399 187 395 149.5Q391 112 391 88Q391 68 394.5 46.5Q398 25 406 3L280 -10Q276 0 272 19Q268 38 267 53Q251 21 223 4Q195 -13 155 -13ZM198 92Q225 92 244.5 116Q264 140 269 180L272 213L229 203Q192 195 173.5 178.5Q155 162 155 136Q155 115 166.5 103.5Q178 92 198 92Z" glyph-name="abreve.alt" horiz-adv-x="440" /><glyph d="M295 553Q230 553 198 592Q166 631 165 699H266Q267 671 275.5 656.5Q284 642 303 642Q322 642 334.5 656Q347 670 351 699H450Q438 632 399.5 592.5Q361 553 295 553ZM10 0 218 515 370 521 492 0H354L334 94H179L143 0ZM218 202H315L280 367Z" glyph-name="abreve.smcp" horiz-adv-x="501" /><glyph d="M152 561 248 713 359 717 430 561H326L298 631L258 561ZM200 -13Q131 -13 93 44.5Q55 102 55 197Q55 341 121.5 423.5Q188 506 304 506Q355 506 400.5 497.5Q446 489 489 473Q481 439 473 392.5Q465 346 461 301L446 130Q445 116 444.5 105.5Q444 95 444 87Q444 66 447.5 46Q451 26 456 7L326 -7Q323 3 321.5 15.5Q320 28 319 41Q318 51 318.5 63.5Q319 76 320 84Q304 45 273.5 16Q243 -13 200 -13ZM239 109Q253 109 267.5 126.5Q282 144 294.5 175.5Q307 207 316.5 250.5Q326 294 330 345L333 380Q324 384 312.5 386.5Q301 389 288 389Q242 389 218.5 341.5Q195 294 195 209Q195 163 206 136Q217 109 239 109Z" glyph-name="acircumflex" horiz-adv-x="495" unicode="&#226;" /><glyph d="M111 561 207 713 318 717 389 561H285L257 631L217 561ZM155 -13Q98 -13 65.5 22Q33 57 33 111Q33 183 75 228Q117 273 210 297L280 315Q281 322 281 327Q281 332 281 338Q281 361 268 374.5Q255 388 226 388Q191 388 153 375.5Q115 363 83 342V463Q119 485 160.5 496Q202 507 250 507Q334 507 374.5 466.5Q415 426 415 350Q415 332 411 297.5Q407 263 403 225Q399 187 395 149.5Q391 112 391 88Q391 68 394.5 46.5Q398 25 406 3L280 -10Q276 0 272 19Q268 38 267 53Q251 21 223 4Q195 -13 155 -13ZM198 92Q225 92 244.5 116Q264 140 269 180L272 213L229 203Q192 195 173.5 178.5Q155 162 155 136Q155 115 166.5 103.5Q178 92 198 92Z" glyph-name="acircumflex.alt" horiz-adv-x="440" /><glyph d="M147 563 253 692 362 693 445 563H337L300 620L253 563ZM10 0 218 515 370 521 492 0H354L334 94H179L143 0ZM218 202H315L280 367Z" glyph-name="acircumflex.smcp" horiz-adv-x="501" /><glyph d="M209 565 260 646Q270 662 280.5 681.5Q291 701 296 720L417 717Q410 694 396 671Q382 648 367 627L320 565Z" glyph-name="acute" horiz-adv-x="440" unicode="&#180;" /><glyph d="M211 691 335 808H481L334 691Z" glyph-name="acute.case" horiz-adv-x="439" /><glyph d="M146 581 157 701H280L269 581ZM322 581 332 701H456L445 581ZM200 -13Q131 -13 93 44.5Q55 102 55 197Q55 341 121.5 423.5Q188 506 304 506Q355 506 400.5 497.5Q446 489 489 473Q481 439 473 392.5Q465 346 461 301L446 130Q445 116 444.5 105.5Q444 95 444 87Q444 66 447.5 46Q451 26 456 7L326 -7Q323 3 321.5 15.5Q320 28 319 41Q318 51 318.5 63.5Q319 76 320 84Q304 45 273.5 16Q243 -13 200 -13ZM239 109Q253 109 267.5 126.5Q282 144 294.5 175.5Q307 207 316.5 250.5Q326 294 330 345L333 380Q324 384 312.5 386.5Q301 389 288 389Q242 389 218.5 341.5Q195 294 195 209Q195 163 206 136Q217 109 239 109Z" glyph-name="adieresis" horiz-adv-x="495" unicode="&#228;" /><glyph d="M105 581 116 701H239L228 581ZM281 581 291 701H415L404 581ZM155 -13Q98 -13 65.5 22Q33 57 33 111Q33 183 75 228Q117 273 210 297L280 315Q281 322 281 327Q281 332 281 338Q281 361 268 374.5Q255 388 226 388Q191 388 153 375.5Q115 363 83 342V463Q119 485 160.5 496Q202 507 250 507Q334 507 374.5 466.5Q415 426 415 350Q415 332 411 297.5Q407 263 403 225Q399 187 395 149.5Q391 112 391 88Q391 68 394.5 46.5Q398 25 406 3L280 -10Q276 0 272 19Q268 38 267 53Q251 21 223 4Q195 -13 155 -13ZM198 92Q225 92 244.5 116Q264 140 269 180L272 213L229 203Q192 195 173.5 178.5Q155 162 155 136Q155 115 166.5 103.5Q178 92 198 92Z" glyph-name="adieresis.alt" horiz-adv-x="440" /><glyph d="M148 569 158 688H281L271 569ZM323 569 333 688H457L446 569ZM10 0 218 515 370 521 492 0H354L334 94H179L143 0ZM218 202H315L280 367Z" glyph-name="adieresis.smcp" horiz-adv-x="501" /><glyph d="M202 -13Q133 -13 94 44Q55 101 55 197Q55 341 121.5 423.5Q188 506 304 506Q344 506 379 499.5Q414 493 447 481Q466 494 492.5 500.5Q519 507 545 507Q615 507 655 471.5Q695 436 695 373Q695 307 655 268.5Q615 230 543 213L447 190Q447 151 470.5 130Q494 109 541 109Q578 109 610 121.5Q642 134 672 153L649 24Q623 6 588 -3.5Q553 -13 518 -13Q454 -13 412.5 11.5Q371 36 346 83Q325 46 286 16.5Q247 -13 202 -13ZM456 291 518 305Q543 310 556 322.5Q569 335 569 358Q569 377 558.5 386.5Q548 396 530 396Q501 396 480.5 368.5Q460 341 456 291ZM240 109Q261 109 280 144.5Q299 180 312 228Q312 235 312.5 243Q313 251 314 258Q317 292 326 321Q335 350 348 375Q335 382 320.5 385.5Q306 389 287 389Q243 389 219 341.5Q195 294 195 209Q195 162 206.5 135.5Q218 109 240 109Z" glyph-name="ae" horiz-adv-x="695" unicode="&#230;" /><glyph d="M-15 0 246 518H677L667 401H442L436 320H638L628 212H426L418 116H648L628 0H282L290 93H168L121 0ZM219 200H300L317 393Z" glyph-name="ae.smcp" horiz-adv-x="670" /><glyph d="M362 565 413 646Q423 662 433.5 681.5Q444 701 449 720L570 717Q563 694 549 671Q535 648 520 627L473 565ZM202 -13Q133 -13 94 44Q55 101 55 197Q55 341 121.5 423.5Q188 506 304 506Q344 506 379 499.5Q414 493 447 481Q466 494 492.5 500.5Q519 507 545 507Q615 507 655 471.5Q695 436 695 373Q695 307 655 268.5Q615 230 543 213L447 190Q447 151 470.5 130Q494 109 541 109Q578 109 610 121.5Q642 134 672 153L649 24Q623 6 588 -3.5Q553 -13 518 -13Q454 -13 412.5 11.5Q371 36 346 83Q325 46 286 16.5Q247 -13 202 -13ZM456 291 518 305Q543 310 556 322.5Q569 335 569 358Q569 377 558.5 386.5Q548 396 530 396Q501 396 480.5 368.5Q460 341 456 291ZM240 109Q261 109 280 144.5Q299 180 312 228Q312 235 312.5 243Q313 251 314 258Q317 292 326 321Q335 350 348 375Q335 382 320.5 385.5Q306 389 287 389Q243 389 219 341.5Q195 294 195 209Q195 162 206.5 135.5Q218 109 240 109Z" glyph-name="aeacute" horiz-adv-x="695" unicode="&#509;" /><glyph d="M312 568 436 685H582L435 568ZM-15 0 246 518H677L667 401H442L436 320H638L628 212H426L418 116H648L628 0H282L290 93H168L121 0ZM219 200H300L317 393Z" glyph-name="aeacute.smcp" horiz-adv-x="670" /><glyph d="M243 565 204 628Q189 651 179.5 674.5Q170 698 166 717L287 720Q291 701 299 681Q307 661 314 647L353 565ZM200 -13Q131 -13 93 44.5Q55 102 55 197Q55 341 121.5 423.5Q188 506 304 506Q355 506 400.5 497.5Q446 489 489 473Q481 439 473 392.5Q465 346 461 301L446 130Q445 116 444.5 105.5Q444 95 444 87Q444 66 447.5 46Q451 26 456 7L326 -7Q323 3 321.5 15.5Q320 28 319 41Q318 51 318.5 63.5Q319 76 320 84Q304 45 273.5 16Q243 -13 200 -13ZM239 109Q253 109 267.5 126.5Q282 144 294.5 175.5Q307 207 316.5 250.5Q326 294 330 345L333 380Q324 384 312.5 386.5Q301 389 288 389Q242 389 218.5 341.5Q195 294 195 209Q195 163 206 136Q217 109 239 109Z" glyph-name="agrave" horiz-adv-x="495" unicode="&#224;" /><glyph d="M202 565 163 628Q148 651 138.5 674.5Q129 698 125 717L246 720Q250 701 258 681Q266 661 273 647L312 565ZM155 -13Q98 -13 65.5 22Q33 57 33 111Q33 183 75 228Q117 273 210 297L280 315Q281 322 281 327Q281 332 281 338Q281 361 268 374.5Q255 388 226 388Q191 388 153 375.5Q115 363 83 342V463Q119 485 160.5 496Q202 507 250 507Q334 507 374.5 466.5Q415 426 415 350Q415 332 411 297.5Q407 263 403 225Q399 187 395 149.5Q391 112 391 88Q391 68 394.5 46.5Q398 25 406 3L280 -10Q276 0 272 19Q268 38 267 53Q251 21 223 4Q195 -13 155 -13ZM198 92Q225 92 244.5 116Q264 140 269 180L272 213L229 203Q192 195 173.5 178.5Q155 162 155 136Q155 115 166.5 103.5Q178 92 198 92Z" glyph-name="agrave.alt" horiz-adv-x="440" /><glyph d="M241 563 113 680H259L364 563ZM10 0 218 515 370 521 492 0H354L334 94H179L143 0ZM218 202H315L280 367Z" glyph-name="agrave.smcp" horiz-adv-x="501" /><glyph d="M180 590 188 681H419L411 590ZM200 -13Q131 -13 93 44.5Q55 102 55 197Q55 341 121.5 423.5Q188 506 304 506Q355 506 400.5 497.5Q446 489 489 473Q481 439 473 392.5Q465 346 461 301L446 130Q445 116 444.5 105.5Q444 95 444 87Q444 66 447.5 46Q451 26 456 7L326 -7Q323 3 321.5 15.5Q320 28 319 41Q318 51 318.5 63.5Q319 76 320 84Q304 45 273.5 16Q243 -13 200 -13ZM239 109Q253 109 267.5 126.5Q282 144 294.5 175.5Q307 207 316.5 250.5Q326 294 330 345L333 380Q324 384 312.5 386.5Q301 389 288 389Q242 389 218.5 341.5Q195 294 195 209Q195 163 206 136Q217 109 239 109Z" glyph-name="amacron" horiz-adv-x="495" unicode="&#257;" /><glyph d="M139 590 147 681H378L370 590ZM155 -13Q98 -13 65.5 22Q33 57 33 111Q33 183 75 228Q117 273 210 297L280 315Q281 322 281 327Q281 332 281 338Q281 361 268 374.5Q255 388 226 388Q191 388 153 375.5Q115 363 83 342V463Q119 485 160.5 496Q202 507 250 507Q334 507 374.5 466.5Q415 426 415 350Q415 332 411 297.5Q407 263 403 225Q399 187 395 149.5Q391 112 391 88Q391 68 394.5 46.5Q398 25 406 3L280 -10Q276 0 272 19Q268 38 267 53Q251 21 223 4Q195 -13 155 -13ZM198 92Q225 92 244.5 116Q264 140 269 180L272 213L229 203Q192 195 173.5 178.5Q155 162 155 136Q155 115 166.5 103.5Q178 92 198 92Z" glyph-name="amacron.alt" horiz-adv-x="440" /><glyph d="M180 580 188 670H425L417 580ZM10 0 218 515 370 521 492 0H354L334 94H179L143 0ZM218 202H315L280 367Z" glyph-name="amacron.smcp" horiz-adv-x="501" /><glyph d="M254 -13Q150 -13 95 40Q40 93 40 180Q40 243 67.5 289.5Q95 336 154 367Q144 394 138.5 421Q133 448 133 475Q133 553 179.5 606Q226 659 321 659Q390 659 434 621Q478 583 478 517Q478 448 441 402.5Q404 357 325 329Q346 298 378.5 267.5Q411 237 446 212Q465 247 475 293Q485 339 487 393L611 380Q605 311 588.5 252.5Q572 194 544 148Q561 138 579.5 128Q598 118 617 111L575 -9Q543 4 514.5 19.5Q486 35 458 51Q417 20 365.5 3.5Q314 -13 254 -13ZM275 416Q314 433 334 453Q354 473 354 504Q354 524 342.5 538Q331 552 312 552Q289 552 275 534Q261 516 261 486Q261 469 264.5 451.5Q268 434 275 416ZM283 103Q303 103 320.5 107Q338 111 354 119Q309 153 272.5 189.5Q236 226 210 265Q196 251 189.5 232.5Q183 214 183 192Q183 149 209 126Q235 103 283 103Z" glyph-name="ampersand" horiz-adv-x="625" unicode="&amp;" /><glyph d="M232 -13Q148 -13 95.5 26.5Q43 66 43 139Q43 194 68.5 232.5Q94 271 146 296Q136 318 131 340Q126 362 126 384Q126 450 169 490.5Q212 531 288 531Q353 531 392 497Q431 463 431 409Q431 356 399 318Q367 280 304 261Q322 239 347.5 217Q373 195 403 176Q419 204 429 239.5Q439 275 443 318L553 308Q548 254 533 207Q518 160 493 123Q509 114 527 106Q545 98 562 91L524 -15Q494 -6 464.5 8Q435 22 410 38Q373 13 328 0Q283 -13 232 -13ZM254 335Q288 348 304 362.5Q320 377 320 404Q320 420 310 430.5Q300 441 284 441Q264 441 252 429Q240 417 240 394Q240 379 243.5 364.5Q247 350 254 335ZM258 87Q273 87 287.5 90Q302 93 314 99Q277 124 246 154.5Q215 185 193 216Q180 206 173.5 191Q167 176 167 158Q167 124 190.5 105.5Q214 87 258 87Z" glyph-name="ampersand.smcp" horiz-adv-x="569" /><glyph d="M355 -231Q312 -231 287.5 -207Q263 -183 263 -141Q263 -100 285 -67.5Q307 -35 344 -4L326 -5Q323 5 321.5 16.5Q320 28 319 41Q318 51 318.5 63.5Q319 76 320 84Q304 45 273.5 16Q243 -13 200 -13Q131 -13 93 44.5Q55 102 55 197Q55 341 121.5 423.5Q188 506 304 506Q355 506 400.5 497.5Q446 489 489 473Q481 439 473 392.5Q465 346 461 301L446 130Q445 116 444.5 105.5Q444 95 444 87Q444 66 447.5 45.5Q451 25 457 6Q422 -18 393.5 -50.5Q365 -83 365 -108Q365 -124 372.5 -132Q380 -140 393 -140Q404 -140 416 -137.5Q428 -135 439 -129L425 -218Q404 -225 389.5 -228Q375 -231 355 -231ZM239 109Q253 109 267.5 126.5Q282 144 294.5 175.5Q307 207 316.5 250.5Q326 294 330 345L333 380Q324 384 312.5 386.5Q301 389 288 389Q242 389 218.5 341.5Q195 294 195 209Q195 163 206 136Q217 109 239 109Z" glyph-name="aogonek" horiz-adv-x="495" unicode="&#261;" /><glyph d="M155 -13Q98 -13 65.5 22Q33 57 33 111Q33 183 75 228Q117 273 210 297L280 315Q281 322 281 327Q281 332 281 338Q281 361 268 374.5Q255 388 226 388Q191 388 153 375.5Q115 363 83 342V463Q119 485 160.5 496Q202 507 250 507Q334 507 374.5 466.5Q415 426 415 350Q415 332 411 297.5Q407 263 403 225Q399 187 395 149.5Q391 112 391 88Q391 68 394.5 46.5Q398 25 406 3L393 2Q363 -23 337.5 -53Q312 -83 312 -108Q312 -124 319.5 -132Q327 -140 340 -140Q351 -140 363 -137.5Q375 -135 386 -129L372 -218Q351 -225 336.5 -228Q322 -231 302 -231Q260 -231 235 -207Q210 -183 210 -141Q210 -104 230 -71.5Q250 -39 284 -10H280Q276 0 272 19Q268 38 267 53Q251 21 223 4Q195 -13 155 -13ZM198 92Q225 92 244.5 116Q264 140 269 180L272 213L229 203Q192 195 173.5 178.5Q155 162 155 136Q155 115 166.5 103.5Q178 92 198 92Z" glyph-name="aogonek.alt" horiz-adv-x="440" /><glyph d="M380 -231Q340 -231 315.5 -209.5Q291 -188 291 -148Q291 -111 312.5 -73Q334 -35 377 -1L353 1L334 94H179L143 0H10L218 515L370 521L492 0H473Q441 -26 417.5 -53.5Q394 -81 394 -106Q394 -124 401.5 -131.5Q409 -139 425 -139Q435 -139 445 -136.5Q455 -134 466 -129L452 -216Q433 -224 416.5 -227.5Q400 -231 380 -231ZM218 202H315L280 367Z" glyph-name="aogonek.smcp" horiz-adv-x="501" /><glyph d="M104 368 80 460Q102 500 133.5 521Q165 542 200 542Q227 542 247 532.5Q267 523 284 511.5Q301 500 318.5 490.5Q336 481 358 481Q383 481 405 498.5Q427 516 445 548L475 450Q447 405 416 384Q385 363 344 363Q320 363 300 372.5Q280 382 262 393Q244 404 225.5 413.5Q207 423 186 423Q162 423 143 409Q124 395 104 368ZM84 147 60 239Q82 279 113.5 300Q145 321 180 321Q207 321 227 311.5Q247 302 264 290.5Q281 279 298.5 269.5Q316 260 338 260Q363 260 385 277.5Q407 295 425 327L455 229Q427 184 396 163Q365 142 324 142Q300 142 280 151.5Q260 161 242 172Q224 183 205.5 192.5Q187 202 166 202Q142 202 123 188Q104 174 84 147Z" glyph-name="approxequal" horiz-adv-x="475" unicode="&#8776;" /><glyph d="M290 538Q242 538 216 563Q190 588 190 634Q190 694 222 729.5Q254 765 311 765Q359 765 385 740Q411 715 411 669Q411 609 379 573.5Q347 538 290 538ZM297 604Q313 604 323.5 620Q334 636 334 661Q334 678 326 688.5Q318 699 304 699Q288 699 277.5 683Q267 667 267 642Q267 625 275 614.5Q283 604 297 604ZM200 -13Q131 -13 93 44.5Q55 102 55 197Q55 341 121.5 423.5Q188 506 304 506Q355 506 400.5 497.5Q446 489 489 473Q481 439 473 392.5Q465 346 461 301L446 130Q445 116 444.5 105.5Q444 95 444 87Q444 66 447.5 46Q451 26 456 7L326 -7Q323 3 321.5 15.5Q320 28 319 41Q318 51 318.5 63.5Q319 76 320 84Q304 45 273.5 16Q243 -13 200 -13ZM239 109Q253 109 267.5 126.5Q282 144 294.5 175.5Q307 207 316.5 250.5Q326 294 330 345L333 380Q324 384 312.5 386.5Q301 389 288 389Q242 389 218.5 341.5Q195 294 195 209Q195 163 206 136Q217 109 239 109Z" glyph-name="aring" horiz-adv-x="495" unicode="&#229;" /><glyph d="M249 538Q201 538 175 563Q149 588 149 634Q149 694 181 729.5Q213 765 270 765Q318 765 344 740Q370 715 370 669Q370 609 338 573.5Q306 538 249 538ZM256 604Q272 604 282.5 620Q293 636 293 661Q293 678 285 688.5Q277 699 263 699Q247 699 236.5 683Q226 667 226 642Q226 625 234 614.5Q242 604 256 604ZM155 -13Q98 -13 65.5 22Q33 57 33 111Q33 183 75 228Q117 273 210 297L280 315Q281 322 281 327Q281 332 281 338Q281 361 268 374.5Q255 388 226 388Q191 388 153 375.5Q115 363 83 342V463Q119 485 160.5 496Q202 507 250 507Q334 507 374.5 466.5Q415 426 415 350Q415 332 411 297.5Q407 263 403 225Q399 187 395 149.5Q391 112 391 88Q391 68 394.5 46.5Q398 25 406 3L280 -10Q276 0 272 19Q268 38 267 53Q251 21 223 4Q195 -13 155 -13ZM198 92Q225 92 244.5 116Q264 140 269 180L272 213L229 203Q192 195 173.5 178.5Q155 162 155 136Q155 115 166.5 103.5Q178 92 198 92Z" glyph-name="aring.alt" horiz-adv-x="440" /><glyph d="M295 549Q246 549 219.5 573.5Q193 598 193 643Q193 692 224.5 727Q256 762 314 762Q363 762 389.5 737.5Q416 713 416 668Q416 619 384.5 584Q353 549 295 549ZM302 615Q317 615 327.5 628.5Q338 642 338 661Q338 677 330 686.5Q322 696 308 696Q292 696 282 683Q272 670 272 651Q272 635 280 625Q288 615 302 615ZM10 0 218 515 370 521 492 0H354L334 94H179L143 0ZM218 202H315L280 367Z" glyph-name="aring.smcp" horiz-adv-x="501" /><glyph d="M58 211 248 651H357L469 211H346L284 486L176 211Z" glyph-name="asciicircum" horiz-adv-x="492" unicode="^" /><glyph d="M93 254 69 346Q91 386 122.5 407Q154 428 189 428Q216 428 236 418.5Q256 409 273 397.5Q290 386 307.5 376.5Q325 367 347 367Q372 367 394 384.5Q416 402 434 434L464 336Q436 291 405 270Q374 249 333 249Q309 249 289 258.5Q269 268 251 279Q233 290 214.5 299.5Q196 309 175 309Q151 309 132 295Q113 281 93 254Z" glyph-name="asciitilde" horiz-adv-x="475" unicode="~" /><glyph d="M135 401 188 525 70 519 78 615 195 609 165 735 255 763 277 639 375 723 421 641 314 568 410 490 351 409 264 495 221 371Z" glyph-name="asterisk" horiz-adv-x="392" unicode="*" /><glyph d="M369 -150Q299 -150 241 -126.5Q183 -103 142.5 -59.5Q102 -16 79.5 47Q57 110 57 188Q57 292 85.5 376.5Q114 461 166 520Q218 579 291.5 611Q365 643 455 643Q521 643 576.5 620.5Q632 598 672 559Q712 520 734.5 466Q757 412 757 350Q757 216 697.5 136.5Q638 57 521 57Q497 57 478.5 67Q460 77 451 95Q447 101 444 109.5Q441 118 441 125Q428 91 403.5 73.5Q379 56 354 56Q305 56 276 98Q247 140 247 211Q247 317 297 378.5Q347 440 436 440Q473 440 506.5 434Q540 428 570 416Q563 391 557.5 357Q552 323 549 289L540 202Q539 197 539 189.5Q539 182 539 176Q539 162 544 155Q549 148 561 148Q596 148 619.5 200Q643 252 643 327Q643 424 591.5 480Q540 536 447 536Q320 536 246 448Q172 360 172 203Q172 85 229 20.5Q286 -44 391 -44Q422 -44 461.5 -34Q501 -24 529 -9L515 -122Q476 -138 444.5 -144Q413 -150 369 -150ZM383 147Q402 147 423 193.5Q444 240 451 317L454 347Q448 350 440 351.5Q432 353 424 353Q388 353 369.5 319Q351 285 351 221Q351 187 359.5 167Q368 147 383 147Z" glyph-name="at" horiz-adv-x="767" unicode="@" /><glyph d="M376 -69Q306 -69 248 -45.5Q190 -22 149.5 21.5Q109 65 86.5 128Q64 191 64 269Q64 373 92.5 457.5Q121 542 173 601Q225 660 298.5 692Q372 724 462 724Q528 724 583.5 701.5Q639 679 679 640Q719 601 741.5 547Q764 493 764 431Q764 297 704.5 217.5Q645 138 528 138Q504 138 485.5 148Q467 158 458 176Q454 182 451 190.5Q448 199 448 206Q435 172 410.5 154.5Q386 137 361 137Q312 137 283 179Q254 221 254 292Q254 398 304 459.5Q354 521 443 521Q480 521 513.5 515Q547 509 577 497Q570 472 564.5 438Q559 404 556 370L547 283Q546 278 546 270.5Q546 263 546 257Q546 243 551 236Q556 229 568 229Q603 229 626.5 281Q650 333 650 408Q650 505 598.5 561Q547 617 454 617Q327 617 253 529Q179 441 179 284Q179 166 236 101.5Q293 37 398 37Q429 37 468.5 47Q508 57 536 72L522 -41Q483 -57 451.5 -63Q420 -69 376 -69ZM390 228Q409 228 430 274.5Q451 321 458 398L461 428Q455 431 447 432.5Q439 434 431 434Q395 434 376.5 400Q358 366 358 302Q358 268 366.5 248Q375 228 390 228Z" glyph-name="at.case" horiz-adv-x="767" /><glyph d="M164 573Q169 641 187 671.5Q205 702 245 702Q270 702 289 689Q308 676 323 676Q335 676 340 686.5Q345 697 347 715L436 709Q430 646 409 612Q388 578 346 578Q321 578 302 591.5Q283 605 272 605Q264 605 258.5 597.5Q253 590 252 573ZM200 -13Q131 -13 93 44.5Q55 102 55 197Q55 341 121.5 423.5Q188 506 304 506Q355 506 400.5 497.5Q446 489 489 473Q481 439 473 392.5Q465 346 461 301L446 130Q445 116 444.5 105.5Q444 95 444 87Q444 66 447.5 46Q451 26 456 7L326 -7Q323 3 321.5 15.5Q320 28 319 41Q318 51 318.5 63.5Q319 76 320 84Q304 45 273.5 16Q243 -13 200 -13ZM239 109Q253 109 267.5 126.5Q282 144 294.5 175.5Q307 207 316.5 250.5Q326 294 330 345L333 380Q324 384 312.5 386.5Q301 389 288 389Q242 389 218.5 341.5Q195 294 195 209Q195 163 206 136Q217 109 239 109Z" glyph-name="atilde" horiz-adv-x="495" unicode="&#227;" /><glyph d="M123 573Q128 641 146 671.5Q164 702 204 702Q229 702 248 689Q267 676 282 676Q294 676 299 686.5Q304 697 306 715L395 709Q389 646 368 612Q347 578 305 578Q280 578 261 591.5Q242 605 231 605Q223 605 217.5 597.5Q212 590 211 573ZM155 -13Q98 -13 65.5 22Q33 57 33 111Q33 183 75 228Q117 273 210 297L280 315Q281 322 281 327Q281 332 281 338Q281 361 268 374.5Q255 388 226 388Q191 388 153 375.5Q115 363 83 342V463Q119 485 160.5 496Q202 507 250 507Q334 507 374.5 466.5Q415 426 415 350Q415 332 411 297.5Q407 263 403 225Q399 187 395 149.5Q391 112 391 88Q391 68 394.5 46.5Q398 25 406 3L280 -10Q276 0 272 19Q268 38 267 53Q251 21 223 4Q195 -13 155 -13ZM198 92Q225 92 244.5 116Q264 140 269 180L272 213L229 203Q192 195 173.5 178.5Q155 162 155 136Q155 115 166.5 103.5Q178 92 198 92Z" glyph-name="atilde.alt" horiz-adv-x="440" /><glyph d="M148 564Q150 633 175 663.5Q200 694 240 694Q256 694 269 688.5Q282 683 293 676.5Q304 670 315 664.5Q326 659 338 659Q350 659 357 673Q364 687 365 704L446 699Q444 636 418.5 602.5Q393 569 345 569Q328 569 315 574Q302 579 291.5 585.5Q281 592 271.5 597Q262 602 252 602Q241 602 234.5 592.5Q228 583 227 564ZM10 0 218 515 370 521 492 0H354L334 94H179L143 0ZM218 202H315L280 367Z" glyph-name="atilde.smcp" horiz-adv-x="501" /><glyph d="M233 -12Q175 -12 133 0.5Q91 13 53 38Q59 69 65.5 112.5Q72 156 76 207L106 549Q110 593 111.5 632Q113 671 113 709L250 717Q250 707 250 697Q250 687 249 674Q249 657 247.5 636.5Q246 616 244 593L228 424Q246 462 277 484.5Q308 507 348 507Q412 507 451.5 453Q491 399 491 302Q491 154 424.5 71Q358 -12 233 -12ZM250 106Q299 106 325 155Q351 204 351 285Q351 334 337 358.5Q323 383 301 383Q270 383 244 324Q218 265 207 163L203 117Q212 112 223.5 109Q235 106 250 106Z" glyph-name="b" horiz-adv-x="502" unicode="b" /><glyph d="M58 0 103 518H265Q361 518 413.5 483.5Q466 449 466 387Q466 343 442.5 314.5Q419 286 373 274Q419 264 444 234.5Q469 205 469 161Q469 85 407.5 42.5Q346 0 233 0ZM216 308H255Q293 308 311.5 322.5Q330 337 330 365Q330 391 312.5 403Q295 415 262 415H225ZM198 101H247Q290 101 312 116.5Q334 132 334 165Q334 192 314.5 205.5Q295 219 257 219H208Z" glyph-name="b.smcp" horiz-adv-x="488" /><glyph d="M309 -250 71 750H169L406 -250Z" glyph-name="backslash" horiz-adv-x="434" unicode="\" /><glyph d="M39 -250 127 750H224L136 -250Z" glyph-name="bar" horiz-adv-x="220" unicode="|" /><glyph d="M298 -283Q197 -283 150 -247.5Q103 -212 103 -140Q103 -117 106.5 -78.5Q110 -40 113.5 -0.5Q117 39 120.5 73Q124 107 124 122Q124 155 111 170.5Q98 186 64 190L73 294Q116 301 130 323Q144 345 148 399L166 601Q173 685 222 726Q271 767 380 767L379 638Q339 638 324 620Q309 602 305 542L290 380Q285 322 260 287Q235 252 189 242Q228 232 247.5 204Q267 176 267 128Q267 112 264.5 81.5Q262 51 258.5 17.5Q255 -16 252.5 -46.5Q250 -77 250 -93Q250 -130 263 -141.5Q276 -153 309 -153Z" glyph-name="braceleft" horiz-adv-x="359" unicode="{" /><glyph d="M297 -150Q199 -150 153 -112Q107 -74 107 -4Q107 2 107 8Q107 14 108 20L121 168Q122 181 122.5 192Q123 203 123 212Q123 247 109.5 259Q96 271 65 275L74 378Q116 384 129 402.5Q142 421 149 486L161 626Q168 708 215 752Q262 796 369 796L371 661Q325 661 314.5 644.5Q304 628 300 578L290 464Q283 390 252 363Q221 336 187 327Q217 319 242 295.5Q267 272 267 212Q267 207 267 201Q267 195 266 189L256 71Q255 59 254 49.5Q253 40 253 33Q253 5 265.5 -5Q278 -15 312 -15Z" glyph-name="braceleft.case" horiz-adv-x="358" /><glyph d="M287 -147Q200 -147 155.5 -116Q111 -85 111 -28Q111 -24 111 -14Q111 -4 112 6L123 123Q124 135 125 143Q126 151 126 158Q126 184 113.5 194Q101 204 73 208L83 311Q120 317 131.5 331.5Q143 346 147 397L159 527Q164 593 211.5 628Q259 663 352 663L354 539Q315 539 304 526.5Q293 514 290 474L281 371Q276 314 249 291Q222 268 191 261Q218 255 240 235.5Q262 216 262 170Q262 165 261.5 155Q261 145 260 140L251 53Q250 40 249.5 31.5Q249 23 249 16Q249 -6 260 -14Q271 -22 299 -22Z" glyph-name="braceleft.smcp" horiz-adv-x="352" /><glyph d="M103 767Q204 767 251 731.5Q298 696 298 624Q298 601 294.5 562.5Q291 524 287.5 484.5Q284 445 280.5 411Q277 377 277 362Q277 329 290 313.5Q303 298 337 294L328 190Q285 183 271 161Q257 139 253 85L235 -117Q228 -201 179 -242Q130 -283 21 -283L22 -154Q62 -154 77 -136Q92 -118 96 -58L111 104Q116 162 141 197Q166 232 212 242Q173 252 153.5 280Q134 308 134 356Q134 372 136.5 402.5Q139 433 142.5 466.5Q146 500 148.5 530.5Q151 561 151 577Q151 614 138 625.5Q125 637 92 637Z" glyph-name="braceright" horiz-adv-x="359" unicode="}" /><glyph d="M118 796Q216 796 262 758Q308 720 308 650Q308 644 308 638Q308 632 307 626L294 478Q293 465 292.5 454Q292 443 292 434Q292 399 305.5 387Q319 375 350 371L341 268Q299 262 286 243.5Q273 225 266 160L254 20Q247 -62 200 -106Q153 -150 46 -150L44 -15Q90 -15 100.5 1.5Q111 18 115 68L125 182Q132 256 163 283Q194 310 228 319Q198 327 173 350.5Q148 374 148 434Q148 439 148 445Q148 451 149 457L159 575Q160 587 161 596.5Q162 606 162 613Q162 641 149.5 651Q137 661 103 661Z" glyph-name="braceright.case" horiz-adv-x="358" /><glyph d="M110 664Q197 664 241.5 633Q286 602 286 545Q286 541 286 531Q286 521 285 511L274 394Q273 382 272 374Q271 366 271 359Q271 333 283.5 323Q296 313 324 309L314 206Q277 200 265.5 185.5Q254 171 250 120L238 -10Q233 -76 185.5 -111Q138 -146 45 -146L43 -22Q82 -22 93 -9.5Q104 3 107 43L116 146Q121 203 148 226Q175 249 206 256Q179 262 157 281.5Q135 301 135 347Q135 352 135.5 362Q136 372 137 377L146 464Q147 477 147.5 485.5Q148 494 148 501Q148 523 137 531Q126 539 98 539Z" glyph-name="braceright.smcp" horiz-adv-x="352" /><glyph d="M71 -285 163 768H420L408 638H289L219 -155H339L327 -285Z" glyph-name="bracketleft" horiz-adv-x="359" unicode="[" /><glyph d="M72 -149 155 795H402L390 660H286L227 -14H331L319 -149Z" glyph-name="bracketleft.case" horiz-adv-x="358" /><glyph d="M80 -142 153 660H382L372 540H280L230 -22H322L312 -142Z" glyph-name="bracketleft.smcp" horiz-adv-x="352" /><glyph d="M330 768 238 -285H-19L-7 -155H112L182 638H62L74 768Z" glyph-name="bracketright" horiz-adv-x="359" unicode="]" /><glyph d="M343 795 260 -149H13L25 -14H129L188 660H84L96 795Z" glyph-name="bracketright.case" horiz-adv-x="358" /><glyph d="M317 658 244 -144H15L25 -24H117L167 538H75L85 658Z" glyph-name="bracketright.smcp" horiz-adv-x="352" /><glyph d="M268 556Q211 556 182.5 589Q154 622 154 683Q154 689 154 696Q154 703 155 710H244V701Q244 673 251.5 658.5Q259 644 276 644Q294 644 304 660Q314 676 318 710H408Q401 635 366 595.5Q331 556 268 556Z" glyph-name="breve" horiz-adv-x="440" unicode="&#728;" /><glyph d="M279 681Q214 681 182 720Q150 759 149 827H250Q251 799 259.5 784.5Q268 770 287 770Q306 770 318.5 784Q331 798 335 827H434Q422 760 383.5 720.5Q345 681 279 681Z" glyph-name="breve.case" horiz-adv-x="440" /><glyph d="M87 289 127 750H224L184 289ZM39 -250 80 211H177L136 -250Z" glyph-name="brokenbar" horiz-adv-x="220" unicode="&#166;" /><glyph d="M97 234 115 442H321L302 234Z" glyph-name="bullet" horiz-adv-x="359" unicode="&#8226;" /><glyph d="M251 -13Q156 -13 104.5 43.5Q53 100 53 207Q53 346 118.5 426.5Q184 507 291 507Q317 507 347 501Q377 495 399 484L373 358Q357 370 336 376.5Q315 383 297 383Q251 383 221.5 345Q192 307 192 227Q192 170 213.5 140.5Q235 111 280 111Q299 111 319.5 116.5Q340 122 362 135L344 9Q324 -1 299.5 -7Q275 -13 251 -13Z" glyph-name="c" horiz-adv-x="378" unicode="c" /><glyph d="M271 -13Q166 -13 109.5 52Q53 117 53 224Q53 292 70.5 348.5Q88 405 121.5 445.5Q155 486 204 508.5Q253 531 315 531Q354 531 388.5 523Q423 515 448 503L415 380Q397 391 373 398.5Q349 406 324 406Q260 406 228 360.5Q196 315 196 231Q196 174 224.5 143Q253 112 300 112Q328 112 353.5 120.5Q379 129 404 143L380 9Q357 -1 330 -7Q303 -13 271 -13Z" glyph-name="c.smcp" horiz-adv-x="427" /><glyph d="M216 565 267 646Q277 662 287.5 681.5Q298 701 303 720L424 717Q417 694 403 671Q389 648 374 627L327 565ZM251 -13Q156 -13 104.5 43.5Q53 100 53 207Q53 346 118.5 426.5Q184 507 291 507Q317 507 347 501Q377 495 399 484L373 358Q357 370 336 376.5Q315 383 297 383Q251 383 221.5 345Q192 307 192 227Q192 170 213.5 140.5Q235 111 280 111Q299 111 319.5 116.5Q340 122 362 135L344 9Q324 -1 299.5 -7Q275 -13 251 -13Z" glyph-name="cacute" horiz-adv-x="378" unicode="&#263;" /><glyph d="M237 563 361 680H507L360 563ZM271 -13Q166 -13 109.5 52Q53 117 53 224Q53 292 70.5 348.5Q88 405 121.5 445.5Q155 486 204 508.5Q253 531 315 531Q354 531 388.5 523Q423 515 448 503L415 380Q397 391 373 398.5Q349 406 324 406Q260 406 228 360.5Q196 315 196 231Q196 174 224.5 143Q253 112 300 112Q328 112 353.5 120.5Q379 129 404 143L380 9Q357 -1 330 -7Q303 -13 271 -13Z" glyph-name="cacute.smcp" horiz-adv-x="427" /><glyph d="M223 557 149 707H238L275 636L323 707H420L319 562Z" glyph-name="caron" horiz-adv-x="440" unicode="&#711;" /><glyph d="M224 687 148 817H254L286 759L326 817H433L333 687Z" glyph-name="caron.case" horiz-adv-x="440" /><glyph d="M207 526Q213 544 221 569.5Q229 595 236 621.5Q243 648 249 672.5Q255 697 258 711H363Q359 690 351 665.5Q343 641 334 616Q325 591 315 567.5Q305 544 297 526Z" glyph-name="caronSlovak" horiz-adv-x="440" /><glyph d="M204 448Q211 467 219.5 494Q228 521 236 548.5Q244 576 250.5 602Q257 628 260 646H379Q373 624 363 596.5Q353 569 341 542.5Q329 516 317 491Q305 466 295 448Z" glyph-name="caronSlovak.case" horiz-adv-x="440" /><glyph d="M230 557 156 707H245L282 636L330 707H427L326 562ZM251 -13Q156 -13 104.5 43.5Q53 100 53 207Q53 346 118.5 426.5Q184 507 291 507Q317 507 347 501Q377 495 399 484L373 358Q357 370 336 376.5Q315 383 297 383Q251 383 221.5 345Q192 307 192 227Q192 170 213.5 140.5Q235 111 280 111Q299 111 319.5 116.5Q340 122 362 135L344 9Q324 -1 299.5 -7Q275 -13 251 -13Z" glyph-name="ccaron" horiz-adv-x="378" unicode="&#269;" /><glyph d="M250 559 174 689H280L312 631L352 689H459L359 559ZM271 -13Q166 -13 109.5 52Q53 117 53 224Q53 292 70.5 348.5Q88 405 121.5 445.5Q155 486 204 508.5Q253 531 315 531Q354 531 388.5 523Q423 515 448 503L415 380Q397 391 373 398.5Q349 406 324 406Q260 406 228 360.5Q196 315 196 231Q196 174 224.5 143Q253 112 300 112Q328 112 353.5 120.5Q379 129 404 143L380 9Q357 -1 330 -7Q303 -13 271 -13Z" glyph-name="ccaron.smcp" horiz-adv-x="427" /><glyph d="M189 -230Q169 -230 149.5 -227Q130 -224 116 -217V-143Q131 -150 146 -153Q161 -156 176 -156Q193 -156 202.5 -149.5Q212 -143 212 -128Q212 -110 195.5 -99Q179 -88 150 -87L183 -4Q120 13 86.5 67Q53 121 53 207Q53 346 118.5 426.5Q184 507 291 507Q317 507 347 501Q377 495 399 484L373 358Q357 370 336 376.5Q315 383 297 383Q251 383 221.5 345Q192 307 192 227Q192 170 213.5 140.5Q235 111 280 111Q299 111 319.5 116.5Q340 122 362 135L344 9Q326 0 304.5 -5.5Q283 -11 261 -12L245 -44Q276 -53 292 -75.5Q308 -98 308 -126Q308 -175 275.5 -202.5Q243 -230 189 -230Z" glyph-name="ccedilla" horiz-adv-x="378" unicode="&#231;" /><glyph d="M212 -231Q188 -231 171.5 -226.5Q155 -222 137 -214V-140Q153 -148 168 -153Q183 -158 199 -158Q214 -158 224 -150Q234 -142 234 -126Q234 -109 219 -98Q204 -87 173 -86L202 -5Q130 14 91.5 74.5Q53 135 53 224Q53 292 70.5 348.5Q88 405 121.5 445.5Q155 486 204 508.5Q253 531 315 531Q354 531 388.5 523Q423 515 448 503L415 380Q397 391 373 398.5Q349 406 324 406Q260 406 228 360.5Q196 315 196 231Q196 174 224.5 143Q253 112 300 112Q328 112 353.5 120.5Q379 129 404 143L380 9Q358 0 332.5 -6Q307 -12 277 -13L264 -44Q292 -52 307 -73Q322 -94 322 -124Q322 -173 292 -202Q262 -231 212 -231Z" glyph-name="ccedilla.smcp" horiz-adv-x="427" /><glyph d="M135 561 231 713 342 717 413 561H309L281 631L241 561ZM251 -13Q156 -13 104.5 43.5Q53 100 53 207Q53 346 118.5 426.5Q184 507 291 507Q317 507 347 501Q377 495 399 484L373 358Q357 370 336 376.5Q315 383 297 383Q251 383 221.5 345Q192 307 192 227Q192 170 213.5 140.5Q235 111 280 111Q299 111 319.5 116.5Q340 122 362 135L344 9Q324 -1 299.5 -7Q275 -13 251 -13Z" glyph-name="ccircumflex" horiz-adv-x="378" unicode="&#265;" /><glyph d="M157 563 263 692 372 693 455 563H347L310 620L263 563ZM271 -13Q166 -13 109.5 52Q53 117 53 224Q53 292 70.5 348.5Q88 405 121.5 445.5Q155 486 204 508.5Q253 531 315 531Q354 531 388.5 523Q423 515 448 503L415 380Q397 391 373 398.5Q349 406 324 406Q260 406 228 360.5Q196 315 196 231Q196 174 224.5 143Q253 112 300 112Q328 112 353.5 120.5Q379 129 404 143L380 9Q357 -1 330 -7Q303 -13 271 -13Z" glyph-name="ccircumflex.smcp" horiz-adv-x="427" /><glyph d="M209 581 219 701H357L347 581ZM251 -13Q156 -13 104.5 43.5Q53 100 53 207Q53 346 118.5 426.5Q184 507 291 507Q317 507 347 501Q377 495 399 484L373 358Q357 370 336 376.5Q315 383 297 383Q251 383 221.5 345Q192 307 192 227Q192 170 213.5 140.5Q235 111 280 111Q299 111 319.5 116.5Q340 122 362 135L344 9Q324 -1 299.5 -7Q275 -13 251 -13Z" glyph-name="cdotaccent" horiz-adv-x="378" unicode="&#267;" /><glyph d="M242 569 252 688H383L372 569ZM271 -13Q166 -13 109.5 52Q53 117 53 224Q53 292 70.5 348.5Q88 405 121.5 445.5Q155 486 204 508.5Q253 531 315 531Q354 531 388.5 523Q423 515 448 503L415 380Q397 391 373 398.5Q349 406 324 406Q260 406 228 360.5Q196 315 196 231Q196 174 224.5 143Q253 112 300 112Q328 112 353.5 120.5Q379 129 404 143L380 9Q357 -1 330 -7Q303 -13 271 -13Z" glyph-name="cdotaccent.smcp" horiz-adv-x="427" /><glyph d="M191 -230Q172 -230 152.5 -227Q133 -224 119 -217V-143Q133 -150 148.5 -153Q164 -156 178 -156Q195 -156 204.5 -149.5Q214 -143 214 -128Q214 -110 197.5 -99Q181 -88 152 -87L187 1L272 4L248 -44Q278 -53 294 -75.5Q310 -98 310 -126Q310 -175 277.5 -202.5Q245 -230 191 -230Z" glyph-name="cedilla" horiz-adv-x="439" unicode="&#184;" /><glyph d="M197 -231Q173 -231 156.5 -226.5Q140 -222 122 -214V-140Q138 -148 153 -153Q168 -158 184 -158Q200 -158 209.5 -150Q219 -142 219 -126Q219 -109 204 -98Q189 -87 158 -86L189 1H267L249 -44Q277 -52 292 -73Q307 -94 307 -124Q307 -173 276.5 -202Q246 -231 197 -231Z" glyph-name="cedilla.case" horiz-adv-x="440" /><glyph d="M170 -118 221 78Q156 99 117.5 154.5Q79 210 79 291Q79 362 98 417.5Q117 473 150.5 510.5Q184 548 231 568Q278 588 333 588Q337 588 342.5 588Q348 588 353 587L395 749H460L415 577Q428 574 440 570Q452 566 460 562L434 440Q425 445 411.5 449.5Q398 454 385 458L316 192Q318 192 320.5 192Q323 192 325 192Q353 192 380 200.5Q407 209 429 222L411 95Q387 83 360 75Q333 67 296 67Q293 67 290 67Q287 67 284 67L236 -118ZM219 304Q219 270 228 247Q237 224 255 211L321 462Q275 455 247 415.5Q219 376 219 304Z" glyph-name="cent" horiz-adv-x="475" unicode="&#162;" /><glyph d="M145 -95 188 62Q131 79 97 124Q63 169 63 233Q63 290 80 334.5Q97 379 127 409Q157 439 198.5 455Q240 471 288 471Q291 471 294 471Q297 471 301 471L336 599H395L357 463Q370 460 381 457Q392 454 400 451L377 351Q369 355 356.5 359Q344 363 331 366L273 154Q274 154 276.5 154Q279 154 281 154Q306 154 329.5 161Q353 168 373 178L357 75Q335 65 311.5 59Q288 53 256 53Q253 53 250 53Q247 53 245 53L204 -95ZM186 244Q186 218 194 199Q202 180 218 170L272 368Q234 361 210 330Q186 299 186 244Z" glyph-name="cent.smcp" horiz-adv-x="410" /><glyph d="M128 561 224 713 335 717 406 561H302L274 631L234 561Z" glyph-name="circumflex" horiz-adv-x="440" unicode="&#710;" /><glyph d="M131 691 237 820 346 821 429 691H321L284 748L237 691Z" glyph-name="circumflex.case" horiz-adv-x="440" /><glyph d="M82 284 93 426H233L221 284ZM58 0 69 142H209L197 0Z" glyph-name="colon" horiz-adv-x="254" unicode=":" /><glyph d="M133 -172 14 -155Q29 -122 39.5 -95Q50 -68 57 -40.5Q64 -13 69 20Q74 53 77 97L80 137H203L198 77Q193 2 178 -58Q163 -118 133 -172Z" glyph-name="comma" horiz-adv-x="254" unicode="," /><glyph d="M213 -258 114 -248Q137 -203 147 -166.5Q157 -130 161 -70L162 -56H268L264 -92Q260 -146 248.5 -183.5Q237 -221 213 -258Z" glyph-name="commaaccent" horiz-adv-x="440" unicode="&#63171;" /><glyph d="M216 -258 110 -248Q132 -203 142 -166.5Q152 -130 156 -71L157 -56H270L267 -92Q263 -142 252 -181.5Q241 -221 216 -258Z" glyph-name="commaaccent.case" horiz-adv-x="440" /><glyph d="M365 -68Q295 -68 238.5 -44Q182 -20 142 24.5Q102 69 80.5 131.5Q59 194 59 270Q59 368 84 449.5Q109 531 155.5 589Q202 647 269 679.5Q336 712 419 712Q489 712 546 688Q603 664 642.5 620Q682 576 704 513.5Q726 451 726 375Q726 277 701 195Q676 113 629.5 55Q583 -3 515.5 -35.5Q448 -68 365 -68ZM368 47Q486 47 546 132Q606 217 606 367Q606 480 556.5 539Q507 598 416 598Q298 598 238.5 513Q179 428 179 278Q179 165 228.5 106Q278 47 368 47ZM398 135Q327 135 286.5 180.5Q246 226 246 302Q246 398 295 456Q344 514 427 514Q455 514 480.5 508Q506 502 522 494L500 405Q485 414 469 419Q453 424 434 424Q393 424 371 394.5Q349 365 349 308Q349 268 368.5 247Q388 226 419 226Q439 226 457 232.5Q475 239 493 249L476 152Q459 145 440 140Q421 135 398 135Z" glyph-name="copyright" horiz-adv-x="728" unicode="&#169;" /><glyph d="M123 60 53 149 122 221Q112 244 107.5 271Q103 298 105 327Q106 359 116 389Q126 419 142 444L85 516L171 605L227 534Q250 547 276 555.5Q302 564 329 564Q356 564 380 555.5Q404 547 425 534L494 605L565 516L495 444Q505 421 509.5 394Q514 367 512 338Q511 307 501 276.5Q491 246 476 221L532 149L446 60L390 132Q366 118 341 109.5Q316 101 288 101Q262 101 237.5 109.5Q213 118 192 132ZM299 226Q339 226 369.5 258Q400 290 401 336Q404 379 380 409Q356 439 318 439Q278 439 248 407Q218 375 216 329Q213 286 237 256Q261 226 299 226Z" glyph-name="currency" horiz-adv-x="559" unicode="&#164;" /><glyph d="M203 -13Q133 -13 94 43Q55 99 55 197Q55 339 117.5 422Q180 505 287 505Q301 505 318.5 503Q336 501 351 497L355 551Q359 595 360.5 633Q362 671 362 709L500 717Q500 707 500 696.5Q500 686 499 672Q498 656 497 636Q496 616 494 593L453 130Q452 120 451.5 108.5Q451 97 451 87Q451 68 454 47.5Q457 27 463 7L336 -7Q333 1 331 12.5Q329 24 328 35Q327 47 327 61Q327 75 328 85Q311 42 276.5 14.5Q242 -13 203 -13ZM245 109Q274 109 301 172.5Q328 236 338 354L340 379Q331 384 318 386.5Q305 389 292 389Q246 389 220 342.5Q194 296 194 208Q194 162 208.5 135.5Q223 109 245 109Z" glyph-name="d" horiz-adv-x="501" unicode="d" /><glyph d="M58 0 103 518H190Q332 518 415 451.5Q498 385 498 269Q498 134 417 67Q336 0 180 0ZM205 123H220Q289 123 322.5 159Q356 195 356 268Q356 322 322 356Q288 390 239 395L229 396Z" glyph-name="d.smcp" horiz-adv-x="506" /><glyph d="M152 -190 201 374H70L81 494H211L226 659H353L338 494H480L470 374H328L279 -190Z" glyph-name="dagger" horiz-adv-x="475" unicode="&#8224;" /><glyph d="M152 -190 168 0H38L49 120H179L201 374H70L81 494H211L226 659H353L338 494H480L470 374H328L306 120H447L437 0H296L279 -190Z" glyph-name="daggerdbl" horiz-adv-x="475" unicode="&#8225;" /><glyph d="M203 -13Q133 -13 94 43Q55 99 55 197Q55 339 117.5 422Q180 505 287 505Q301 505 318.5 503Q336 501 351 497L355 551Q359 595 360.5 633Q362 671 362 709L500 717Q500 707 500 696.5Q500 686 499 672Q498 656 497 636Q496 616 494 593L453 130Q452 120 451.5 108.5Q451 97 451 87Q451 68 454 47.5Q457 27 463 7L336 -7Q333 1 331 12.5Q329 24 328 35Q327 47 327 61Q327 75 328 85Q311 42 276.5 14.5Q242 -13 203 -13ZM524 526Q530 544 538 569.5Q546 595 553 621.5Q560 648 566 672.5Q572 697 575 711H680Q676 690 668 665.5Q660 641 651 616Q642 591 632 567.5Q622 544 614 526ZM245 109Q274 109 301 172.5Q328 236 338 354L340 379Q331 384 318 386.5Q305 389 292 389Q246 389 220 342.5Q194 296 194 208Q194 162 208.5 135.5Q223 109 245 109Z" glyph-name="dcaron" horiz-adv-x="501" unicode="&#271;" /><glyph d="M245 559 169 689H275L307 631L347 689H454L354 559ZM58 0 103 518H190Q332 518 415 451.5Q498 385 498 269Q498 134 417 67Q336 0 180 0ZM205 123H220Q289 123 322.5 159Q356 195 356 268Q356 322 322 356Q288 390 239 395L229 396Z" glyph-name="dcaron.smcp" horiz-adv-x="506" /><glyph d="M203 -13Q133 -13 94 43Q55 99 55 197Q55 339 117.5 422Q180 505 287 505Q301 505 318.5 503Q336 501 351 497L355 553H286L294 644H361Q362 660 362 676.5Q362 693 362 709L500 717Q500 707 500 696.5Q500 686 499 672Q499 667 498.5 659.5Q498 652 498 644H539L531 553H490L453 130Q452 120 451.5 108.5Q451 97 451 87Q451 68 454 47.5Q457 27 463 7L336 -7Q333 1 331 12.5Q329 24 328 35Q327 47 327 61Q327 75 328 85Q311 42 276.5 14.5Q242 -13 203 -13ZM245 109Q274 109 301 172.5Q328 236 338 354L340 379Q331 384 318 386.5Q305 389 292 389Q246 389 220 342.5Q194 296 194 208Q194 162 208.5 135.5Q223 109 245 109Z" glyph-name="dcroat" horiz-adv-x="501" unicode="&#273;" /><glyph d="M58 0 76 221H44L51 307H84L103 518H190Q332 518 415 451.5Q498 385 498 269Q498 134 417 67Q336 0 180 0ZM205 123H220Q289 123 322.5 159Q356 195 356 268Q356 322 322 357.5Q288 393 239 395L228 396L221 307H293L287 221H213Z" glyph-name="dcroat.smcp" horiz-adv-x="506" /><glyph d="M200 291Q136 291 100 339.5Q64 388 69 466Q74 549 120 602.5Q166 656 232 656Q296 656 332 608Q368 560 363 482Q358 399 311.5 345Q265 291 200 291ZM208 379Q232 379 246 405Q260 431 263 480Q266 524 256 546Q246 568 224 568Q200 568 186 542Q172 516 169 467Q166 423 176 401Q186 379 208 379Z" glyph-name="degree" horiz-adv-x="342" unicode="&#176;" /><glyph d="M122 581 133 701H256L245 581ZM298 581 308 701H432L421 581Z" glyph-name="dieresis" horiz-adv-x="442" unicode="&#168;" /><glyph d="M132 697 142 816H265L255 697ZM307 697 317 816H441L430 697Z" glyph-name="dieresis.case" horiz-adv-x="440" /><glyph d="M215 467 227 604H353L341 467ZM75 288 84 390H459L449 288ZM181 74 193 211H319L307 74Z" glyph-name="divide" horiz-adv-x="475" unicode="&#247;" /><glyph d="M108 -118 140 -4Q115 1 92 10Q69 19 53 30V170Q86 151 115.5 139Q145 127 176 121L218 267L212 270Q140 308 109 352Q78 396 78 462Q78 549 140 604Q202 659 309 659Q314 659 319.5 659Q325 659 329 659L355 749H421L393 651Q417 646 439 638Q461 630 481 620L455 485Q431 498 406.5 508Q382 518 357 523L317 385L333 377Q399 343 430.5 299.5Q462 256 462 192Q462 97 400 42Q338 -13 225 -13Q220 -13 214.5 -13Q209 -13 204 -12L174 -118ZM225 476Q225 460 233 445.5Q241 431 260 417L292 529Q259 528 242 514.5Q225 501 225 476ZM313 177Q313 196 303.5 209.5Q294 223 275 235L241 117Q278 119 295.5 135Q313 151 313 177Z" glyph-name="dollar" horiz-adv-x="475" unicode="$" /><glyph d="M101 -95 129 -4Q107 1 86 8Q65 15 50 24V137Q80 123 106.5 113Q133 103 161 99L196 213L191 215Q132 243 102.5 279.5Q73 316 73 370Q73 439 126.5 483.5Q180 528 275 528Q279 528 284.5 528Q290 528 294 528L316 599H374L350 521Q372 517 392 510.5Q412 504 429 496L405 386Q384 397 362.5 405Q341 413 318 417L285 309L299 303Q356 276 384 241.5Q412 207 412 154Q412 79 357 34Q302 -11 203 -11Q199 -11 195 -11Q191 -11 187 -11L161 -95ZM203 380Q203 367 210 356.5Q217 346 234 335L261 421Q231 420 217 410.5Q203 401 203 380ZM280 142Q280 158 272 168.5Q264 179 248 188L219 95Q250 97 265 109Q280 121 280 142Z" glyph-name="dollar.smcp" horiz-adv-x="440" /><glyph d="M202 581 212 701H350L340 581Z" glyph-name="dotaccent" horiz-adv-x="440" unicode="&#729;" /><glyph d="M216 697 226 816H357L346 697Z" glyph-name="dotaccent.case" horiz-adv-x="440" /><glyph d="M56 0 99 495H235L191 0Z" glyph-name="dotlessi" horiz-adv-x="248" unicode="&#305;" /><glyph d="M-33 -232V-117Q16 -105 34 -79.5Q52 -54 57 8L99 495H235L191 -7Q183 -106 131.5 -162.5Q80 -219 -33 -232Z" glyph-name="dotlessj" horiz-adv-x="248" unicode="&#567;" /><glyph d="M257 -13Q159 -13 106 45.5Q53 104 53 211Q53 275 70 329.5Q87 384 117.5 423.5Q148 463 191 485Q234 507 285 507Q354 507 394.5 471.5Q435 436 435 373Q435 307 395 268.5Q355 230 283 213L187 190Q187 151 210.5 130Q234 109 281 109Q318 109 350 121Q382 133 412 153L389 24Q362 6 327.5 -3.5Q293 -13 257 -13ZM196 292 257 306Q282 311 295.5 323.5Q309 336 309 358Q309 377 298.5 386.5Q288 396 269 396Q240 396 220 368.5Q200 341 196 292Z" glyph-name="e" horiz-adv-x="435" unicode="e" /><glyph d="M58 0 103 518H456L446 401H225L218 320H418L408 212H209L200 116H428L408 0Z" glyph-name="e.smcp" horiz-adv-x="450" /><glyph d="M227 565 278 646Q288 662 298.5 681.5Q309 701 314 720L435 717Q428 694 414 671Q400 648 385 627L338 565ZM257 -13Q159 -13 106 45.5Q53 104 53 211Q53 275 70 329.5Q87 384 117.5 423.5Q148 463 191 485Q234 507 285 507Q354 507 394.5 471.5Q435 436 435 373Q435 307 395 268.5Q355 230 283 213L187 190Q187 151 210.5 130Q234 109 281 109Q318 109 350 121Q382 133 412 153L389 24Q362 6 327.5 -3.5Q293 -13 257 -13ZM196 292 257 306Q282 311 295.5 323.5Q309 336 309 358Q309 377 298.5 386.5Q288 396 269 396Q240 396 220 368.5Q200 341 196 292Z" glyph-name="eacute" horiz-adv-x="435" unicode="&#233;" /><glyph d="M213 563 337 680H483L336 563ZM58 0 103 518H456L446 401H225L218 320H418L408 212H209L200 116H428L408 0Z" glyph-name="eacute.smcp" horiz-adv-x="450" /><glyph d="M286 556Q229 556 200.5 589Q172 622 172 683Q172 689 172 696Q172 703 173 710H262V701Q262 673 269.5 658.5Q277 644 294 644Q312 644 322 660Q332 676 336 710H426Q419 635 384 595.5Q349 556 286 556ZM257 -13Q159 -13 106 45.5Q53 104 53 211Q53 275 70 329.5Q87 384 117.5 423.5Q148 463 191 485Q234 507 285 507Q354 507 394.5 471.5Q435 436 435 373Q435 307 395 268.5Q355 230 283 213L187 190Q187 151 210.5 130Q234 109 281 109Q318 109 350 121Q382 133 412 153L389 24Q362 6 327.5 -3.5Q293 -13 257 -13ZM196 292 257 306Q282 311 295.5 323.5Q309 336 309 358Q309 377 298.5 386.5Q288 396 269 396Q240 396 220 368.5Q200 341 196 292Z" glyph-name="ebreve" horiz-adv-x="435" unicode="&#277;" /><glyph d="M281 553Q216 553 184 592Q152 631 151 699H252Q253 671 261.5 656.5Q270 642 289 642Q308 642 320.5 656Q333 670 337 699H436Q424 632 385.5 592.5Q347 553 281 553ZM58 0 103 518H456L446 401H225L218 320H418L408 212H209L200 116H428L408 0Z" glyph-name="ebreve.smcp" horiz-adv-x="450" /><glyph d="M241 557 167 707H256L293 636L341 707H438L337 562ZM257 -13Q159 -13 106 45.5Q53 104 53 211Q53 275 70 329.5Q87 384 117.5 423.5Q148 463 191 485Q234 507 285 507Q354 507 394.5 471.5Q435 436 435 373Q435 307 395 268.5Q355 230 283 213L187 190Q187 151 210.5 130Q234 109 281 109Q318 109 350 121Q382 133 412 153L389 24Q362 6 327.5 -3.5Q293 -13 257 -13ZM196 292 257 306Q282 311 295.5 323.5Q309 336 309 358Q309 377 298.5 386.5Q288 396 269 396Q240 396 220 368.5Q200 341 196 292Z" glyph-name="ecaron" horiz-adv-x="435" unicode="&#283;" /><glyph d="M226 559 150 689H256L288 631L328 689H435L335 559ZM58 0 103 518H456L446 401H225L218 320H418L408 212H209L200 116H428L408 0Z" glyph-name="ecaron.smcp" horiz-adv-x="450" /><glyph d="M146 561 242 713 353 717 424 561H320L292 631L252 561ZM257 -13Q159 -13 106 45.5Q53 104 53 211Q53 275 70 329.5Q87 384 117.5 423.5Q148 463 191 485Q234 507 285 507Q354 507 394.5 471.5Q435 436 435 373Q435 307 395 268.5Q355 230 283 213L187 190Q187 151 210.5 130Q234 109 281 109Q318 109 350 121Q382 133 412 153L389 24Q362 6 327.5 -3.5Q293 -13 257 -13ZM196 292 257 306Q282 311 295.5 323.5Q309 336 309 358Q309 377 298.5 386.5Q288 396 269 396Q240 396 220 368.5Q200 341 196 292Z" glyph-name="ecircumflex" horiz-adv-x="435" unicode="&#234;" /><glyph d="M133 563 239 692 348 693 431 563H323L286 620L239 563ZM58 0 103 518H456L446 401H225L218 320H418L408 212H209L200 116H428L408 0Z" glyph-name="ecircumflex.smcp" horiz-adv-x="450" /><glyph d="M140 581 151 701H274L263 581ZM316 581 326 701H450L439 581ZM257 -13Q159 -13 106 45.5Q53 104 53 211Q53 275 70 329.5Q87 384 117.5 423.5Q148 463 191 485Q234 507 285 507Q354 507 394.5 471.5Q435 436 435 373Q435 307 395 268.5Q355 230 283 213L187 190Q187 151 210.5 130Q234 109 281 109Q318 109 350 121Q382 133 412 153L389 24Q362 6 327.5 -3.5Q293 -13 257 -13ZM196 292 257 306Q282 311 295.5 323.5Q309 336 309 358Q309 377 298.5 386.5Q288 396 269 396Q240 396 220 368.5Q200 341 196 292Z" glyph-name="edieresis" horiz-adv-x="435" unicode="&#235;" /><glyph d="M134 569 144 688H267L257 569ZM309 569 319 688H443L432 569ZM58 0 103 518H456L446 401H225L218 320H418L408 212H209L200 116H428L408 0Z" glyph-name="edieresis.smcp" horiz-adv-x="450" /><glyph d="M220 581 230 701H368L358 581ZM257 -13Q159 -13 106 45.5Q53 104 53 211Q53 275 70 329.5Q87 384 117.5 423.5Q148 463 191 485Q234 507 285 507Q354 507 394.5 471.5Q435 436 435 373Q435 307 395 268.5Q355 230 283 213L187 190Q187 151 210.5 130Q234 109 281 109Q318 109 350 121Q382 133 412 153L389 24Q362 6 327.5 -3.5Q293 -13 257 -13ZM196 292 257 306Q282 311 295.5 323.5Q309 336 309 358Q309 377 298.5 386.5Q288 396 269 396Q240 396 220 368.5Q200 341 196 292Z" glyph-name="edotaccent" horiz-adv-x="435" unicode="&#279;" /><glyph d="M218 569 228 688H359L348 569ZM58 0 103 518H456L446 401H225L218 320H418L408 212H209L200 116H428L408 0Z" glyph-name="edotaccent.smcp" horiz-adv-x="450" /><glyph d="M230 565 191 628Q176 651 166.5 674.5Q157 698 153 717L274 720Q278 701 286 681Q294 661 301 647L340 565ZM257 -13Q159 -13 106 45.5Q53 104 53 211Q53 275 70 329.5Q87 384 117.5 423.5Q148 463 191 485Q234 507 285 507Q354 507 394.5 471.5Q435 436 435 373Q435 307 395 268.5Q355 230 283 213L187 190Q187 151 210.5 130Q234 109 281 109Q318 109 350 121Q382 133 412 153L389 24Q362 6 327.5 -3.5Q293 -13 257 -13ZM196 292 257 306Q282 311 295.5 323.5Q309 336 309 358Q309 377 298.5 386.5Q288 396 269 396Q240 396 220 368.5Q200 341 196 292Z" glyph-name="egrave" horiz-adv-x="435" unicode="&#232;" /><glyph d="M227 563 99 680H245L350 563ZM58 0 103 518H456L446 401H225L218 320H418L408 212H209L200 116H428L408 0Z" glyph-name="egrave.smcp" horiz-adv-x="450" /><glyph d="M250 -13Q146 -13 96.5 37Q47 87 47 171Q47 222 74.5 265Q102 308 143 330Q114 358 97.5 392Q81 426 81 477Q81 515 95.5 548.5Q110 582 136.5 606.5Q163 631 201.5 645Q240 659 287 659Q377 659 425.5 611Q474 563 474 485Q474 439 452.5 397.5Q431 356 386 331Q417 309 439 274.5Q461 240 461 191Q461 100 408 43.5Q355 -13 250 -13ZM300 387Q320 403 331.5 425Q343 447 343 472Q343 506 325.5 523.5Q308 541 280 541Q252 541 236.5 523.5Q221 506 221 476Q221 453 236 434Q251 415 271 404ZM247 105Q281 105 299 122.5Q317 140 317 174Q317 202 298 223Q279 244 253 260L230 273Q210 257 195.5 232.5Q181 208 181 180Q181 143 199.5 124Q218 105 247 105Z" glyph-name="eight" horiz-adv-x="473" unicode="8" /><glyph d="M149 -14Q94 -14 64 16.5Q34 47 34 93Q34 122 51.5 145.5Q69 169 94 179Q75 192 65.5 209.5Q56 227 56 253Q56 297 89 327.5Q122 358 179 358Q229 358 260.5 331.5Q292 305 292 260Q292 230 275.5 207.5Q259 185 234 177Q259 164 271 145Q283 126 283 95Q283 46 245 16Q207 -14 149 -14ZM185 206Q198 216 203 228Q208 240 208 252Q208 269 198.5 278.5Q189 288 174 288Q157 288 148.5 279Q140 270 140 254Q140 241 148 231.5Q156 222 169 215ZM157 57Q173 57 184 67Q195 77 195 97Q195 113 184.5 123.5Q174 134 161 141L146 149Q135 139 128.5 126Q122 113 122 97Q122 80 131 68.5Q140 57 157 57Z" glyph-name="eight.dnom" horiz-adv-x="301" /><glyph d="M234 -13Q141 -13 92 38.5Q43 90 43 174Q43 231 72 278Q101 325 160 353Q122 385 102.5 421Q83 457 83 504Q83 588 137 639.5Q191 691 283 691Q370 691 419 644Q468 597 468 519Q468 466 444 419.5Q420 373 371 348Q413 314 433 277.5Q453 241 453 189Q453 101 395.5 44Q338 -13 234 -13ZM290 409Q314 430 325.5 453Q337 476 337 510Q337 539 321 557Q305 575 280 575Q251 575 234.5 555.5Q218 536 218 506Q218 481 232 461Q246 441 271 423ZM243 104Q276 104 294.5 126.5Q313 149 313 186Q313 214 295 238Q277 262 252 281L237 292Q208 270 191 244.5Q174 219 174 182Q174 148 193 126Q212 104 243 104Z" glyph-name="eight.osf" horiz-adv-x="467" /><glyph d="M225 -13Q143 -13 96 26Q49 65 49 134Q49 177 73.5 212.5Q98 248 141 264Q109 281 93 308.5Q77 336 77 374Q77 443 130 487Q183 531 273 531Q351 531 399.5 492Q448 453 448 386Q448 345 425.5 312.5Q403 280 366 265Q399 246 416.5 216.5Q434 187 434 147Q434 73 378 30Q322 -13 225 -13ZM280 311Q296 321 305.5 339Q315 357 315 374Q315 396 301.5 409Q288 422 263 422Q241 422 227.5 410Q214 398 214 376Q214 359 224 346.5Q234 334 256 324ZM238 95Q266 95 281.5 108.5Q297 122 297 148Q297 166 283 181Q269 196 245 207L225 216Q204 203 193.5 186Q183 169 183 150Q183 125 196.5 110Q210 95 238 95Z" glyph-name="eight.smcp" horiz-adv-x="458" /><glyph d="M181 362Q126 362 96 392.5Q66 423 66 469Q66 498 83.5 521.5Q101 545 126 555Q107 568 97.5 585.5Q88 603 88 629Q88 673 121 703.5Q154 734 211 734Q261 734 292.5 707.5Q324 681 324 636Q324 606 307.5 583.5Q291 561 266 553Q291 540 303 521Q315 502 315 471Q315 422 277 392Q239 362 181 362ZM217 582Q230 592 235 604Q240 616 240 628Q240 645 230.5 654.5Q221 664 206 664Q189 664 180.5 655Q172 646 172 630Q172 617 180 607.5Q188 598 201 591ZM189 433Q205 433 216 443Q227 453 227 473Q227 489 216.5 499.5Q206 510 193 517L178 525Q167 515 160.5 502Q154 489 154 473Q154 456 163 444.5Q172 433 189 433Z" glyph-name="eight.sup" horiz-adv-x="300" /><glyph d="M249 -13Q145 -13 95.5 37Q46 87 46 171Q46 222 73.5 265Q101 308 142 330Q113 358 96.5 392Q80 426 80 477Q80 515 94.5 548.5Q109 582 135.5 606.5Q162 631 200.5 645Q239 659 286 659Q376 659 424.5 611Q473 563 473 485Q473 439 451.5 397.5Q430 356 385 331Q416 309 438 274.5Q460 240 460 191Q460 100 407 43.5Q354 -13 249 -13ZM299 387Q319 403 330.5 425Q342 447 342 472Q342 506 324.5 523.5Q307 541 279 541Q251 541 235.5 523.5Q220 506 220 476Q220 453 235 434Q250 415 270 404ZM246 105Q280 105 298 122.5Q316 140 316 174Q316 202 297 223Q278 244 252 260L229 273Q209 257 194.5 232.5Q180 208 180 180Q180 143 198.5 124Q217 105 246 105Z" glyph-name="eight.tf" horiz-adv-x="475" /><glyph d="M241 -13Q148 -13 99 38.5Q50 90 50 174Q50 231 79 278Q108 325 167 353Q129 385 109.5 421Q90 457 90 504Q90 588 144 639.5Q198 691 290 691Q377 691 426 644Q475 597 475 519Q475 466 451 419.5Q427 373 378 348Q420 314 440 277.5Q460 241 460 189Q460 101 402.5 44Q345 -13 241 -13ZM297 409Q321 430 332.5 453Q344 476 344 510Q344 539 328 557Q312 575 287 575Q258 575 241.5 555.5Q225 536 225 506Q225 481 239 461Q253 441 278 423ZM250 104Q283 104 301.5 126.5Q320 149 320 186Q320 214 302 238Q284 262 259 281L244 292Q215 270 198 244.5Q181 219 181 182Q181 148 200 126Q219 104 250 104Z" glyph-name="eight.tosf" horiz-adv-x="475" /><glyph d="M318 0 329 142H554L542 0ZM102 0 113 142H253L241 0Z" glyph-name="ellipsis" horiz-adv-x="672" unicode="&#8230;" /><glyph d="M174 590 182 681H413L405 590ZM257 -13Q159 -13 106 45.5Q53 104 53 211Q53 275 70 329.5Q87 384 117.5 423.5Q148 463 191 485Q234 507 285 507Q354 507 394.5 471.5Q435 436 435 373Q435 307 395 268.5Q355 230 283 213L187 190Q187 151 210.5 130Q234 109 281 109Q318 109 350 121Q382 133 412 153L389 24Q362 6 327.5 -3.5Q293 -13 257 -13ZM196 292 257 306Q282 311 295.5 323.5Q309 336 309 358Q309 377 298.5 386.5Q288 396 269 396Q240 396 220 368.5Q200 341 196 292Z" glyph-name="emacron" horiz-adv-x="435" unicode="&#275;" /><glyph d="M166 580 174 670H411L403 580ZM58 0 103 518H456L446 401H225L218 320H418L408 212H209L200 116H428L408 0Z" glyph-name="emacron.smcp" horiz-adv-x="450" /><glyph d="M65 201 74 311H869L860 201Z" glyph-name="emdash" horiz-adv-x="890" unicode="&#8212;" /><glyph d="M69 283 79 399H872L861 283Z" glyph-name="emdash.case" horiz-adv-x="881" /><glyph d="M65 201 74 311H428L419 201Z" glyph-name="endash" horiz-adv-x="449" unicode="&#8211;" /><glyph d="M69 283 79 399H432L421 283Z" glyph-name="endash.case" horiz-adv-x="441" /><glyph d="M229 -232V-117Q279 -105 296.5 -79.5Q314 -54 320 8L340 259Q341 278 342.5 299Q344 320 344 325Q344 354 336 368.5Q328 383 309 383Q275 383 245 309Q215 235 202 95L193 0H58L87 330Q91 376 93 414.5Q95 453 95 491L221 497Q221 488 220.5 472.5Q220 457 219.5 440.5Q219 424 218 408Q217 392 216 382Q237 437 273 472Q309 507 360 507Q417 507 449.5 470Q482 433 482 359Q482 354 480.5 326.5Q479 299 477 277L454 -7Q446 -106 394 -162.5Q342 -219 229 -232Z" glyph-name="eng" horiz-adv-x="505" unicode="&#331;" /><glyph d="M230 -213V-97Q285 -87 308.5 -63.5Q332 -40 337 17L338 33L205 292L179 0H58L103 518H233L371 238L396 518H518L473 -6Q463 -109 404.5 -157Q346 -205 230 -213Z" glyph-name="eng.smcp" horiz-adv-x="531" /><glyph d="M274 -228Q232 -228 207 -204Q182 -180 182 -138Q182 -102 200 -71.5Q218 -41 249 -13Q159 -10 106 46Q53 102 53 211Q53 275 70 329.5Q87 384 117.5 423.5Q148 463 191 485Q234 507 285 507Q354 507 394.5 471.5Q435 436 435 373Q435 307 395 268Q355 229 283 213L187 191Q187 151 210.5 130Q234 109 281 109Q318 109 350 121.5Q382 134 412 153L389 24Q373 12 354.5 -3.5Q336 -19 320.5 -36Q305 -53 294.5 -71Q284 -89 284 -105Q284 -121 291.5 -129.5Q299 -138 313 -138Q324 -138 335.5 -135.5Q347 -133 358 -127L345 -216Q324 -223 309.5 -225.5Q295 -228 274 -228ZM196 291 257 305Q282 310 295.5 322.5Q309 335 309 358Q309 377 298.5 386.5Q288 396 269 396Q240 396 220 368.5Q200 341 196 291Z" glyph-name="eogonek" horiz-adv-x="435" unicode="&#281;" /><glyph d="M299 -231Q257 -231 232 -207Q207 -183 207 -141Q207 -101 230.5 -66Q254 -31 294 0H58L103 518H456L446 401H225L218 320H418L408 212H209L200 116H428L408 0H388Q359 -24 334.5 -53.5Q310 -83 310 -108Q310 -124 317 -132Q324 -140 338 -140Q349 -140 361 -137.5Q373 -135 384 -129L370 -218Q349 -225 334.5 -228Q320 -231 299 -231Z" glyph-name="eogonek.smcp" horiz-adv-x="450" /><glyph d="M85 393 94 495H469L459 393ZM66 183 75 285H450L440 183Z" glyph-name="equal" horiz-adv-x="475" unicode="=" /><glyph d="M363 -13Q301 -13 247.5 9.5Q194 32 154.5 71.5Q115 111 92.5 164.5Q70 218 70 280Q70 343 96 406.5Q122 470 168 520.5Q214 571 277.5 603Q341 635 416 635Q478 635 531 612Q584 589 623 549.5Q662 510 684 456Q706 402 706 340Q706 333 705.5 320Q705 307 701 270H188Q186 270 184.5 269Q183 268 183 266L174 158Q174 152 175.5 147Q177 142 180 138Q213 93 262 71Q311 49 368 49Q450 49 506.5 74Q563 99 601 150H676Q627 77 546 32Q465 -13 363 -13ZM196 355H589Q590 355 591.5 357Q593 359 593 360L602 462Q603 468 601 473.5Q599 479 596 483Q562 525 514.5 549.5Q467 574 412 574Q349 574 300 548.5Q251 523 210 480Q206 476 203.5 470.5Q201 465 200 458L192 360Q192 359 193 357Q194 355 196 355Z" glyph-name="estimated" horiz-adv-x="722" unicode="&#8494;" /><glyph d="M245 -13Q155 -13 104.5 46Q54 105 54 208Q54 343 116 424.5Q178 506 275 506Q284 506 292 503.5Q300 501 306 497Q302 515 293 533.5Q284 552 274 571L174 541L181 626L231 641Q218 660 206 676Q194 692 184 705L305 714Q315 704 324.5 693.5Q334 683 344 672L441 701L433 616L393 604Q429 547 452 470Q475 393 475 287Q475 219 458 163.5Q441 108 411 69Q381 30 338.5 8.5Q296 -13 245 -13ZM253 112Q293 112 315 158.5Q337 205 337 278Q337 329 321.5 356Q306 383 275 383Q235 383 213.5 336.5Q192 290 192 216Q192 165 207.5 138.5Q223 112 253 112Z" glyph-name="eth" horiz-adv-x="485" unicode="&#240;" /><glyph d="M58 0 76 221H44L51 307H84L103 518H190Q332 518 415 451.5Q498 385 498 269Q498 134 417 67Q336 0 180 0ZM205 123H220Q289 123 322.5 159Q356 195 356 268Q356 322 322 357.5Q288 393 239 395L228 396L221 307H293L287 221H213Z" glyph-name="eth.smcp" horiz-adv-x="506" /><glyph d="M122 201V646H295L217 201ZM81 0 92 133H234L223 0Z" glyph-name="exclam" horiz-adv-x="304" unicode="!" /><glyph d="M101 163 100 517H269L201 163ZM70 0 79 109H212L202 0Z" glyph-name="exclam.smcp" horiz-adv-x="278" /><glyph d="M266 495 255 362H113L124 495ZM225 294V-151H52L130 294Z" glyph-name="exclamdown" horiz-adv-x="304" unicode="&#161;" /><glyph d="M279 646 268 513H126L137 646ZM238 445V0H65L143 445Z" glyph-name="exclamdown.case" horiz-adv-x="304" /><glyph d="M254 517 245 408H112L122 517ZM223 354 224 0H55L123 354Z" glyph-name="exclamdown.smcp" horiz-adv-x="278" /><glyph d="M-7 -235V-120Q44 -107 62 -81.5Q80 -56 84 6L110 376H63V474L102 484Q114 487 119 494.5Q124 502 125 517L126 531Q133 619 189 670Q245 721 344 721Q351 721 362.5 720.5Q374 720 380 719V603Q374 604 368 604.5Q362 605 356 605Q311 605 285.5 584Q260 563 256 514L254 495H361L352 376H245L219 -7Q212 -107 163.5 -163Q115 -219 -7 -235Z" glyph-name="f" horiz-adv-x="322" unicode="f" /><glyph d="M58 0 103 518H458L437 401H229L222 310H413L403 195H212L194 0Z" glyph-name="f.smcp" horiz-adv-x="438" /><glyph d="M-7 -235V-120Q44 -107 62 -81.5Q80 -56 84 6L110 376H63V474L102 484Q114 487 119 494.5Q124 502 125 517L126 531Q133 619 189 670Q245 721 344 721Q351 721 362.5 720.5Q374 720 380 719V603Q374 604 368 604.5Q362 605 356 605Q311 605 285.5 584Q260 563 256 514L254 495H361L352 376H245L219 -7Q212 -107 163.5 -163Q115 -219 -7 -235ZM555 -12Q497 -12 455 0.5Q413 13 375 38Q381 69 387.5 112.5Q394 156 398 207L428 549Q432 593 433.5 632Q435 671 435 709L572 717Q572 707 572 697Q572 687 571 674Q571 657 569.5 636.5Q568 616 566 593L550 424Q568 462 599 484.5Q630 507 670 507Q734 507 773.5 453Q813 399 813 302Q813 154 746.5 71Q680 -12 555 -12ZM572 106Q621 106 647 155Q673 204 673 285Q673 334 659 358.5Q645 383 623 383Q592 383 566 324Q540 265 529 163L525 117Q534 112 545.5 109Q557 106 572 106Z" glyph-name="f_b" horiz-adv-x="824" /><glyph d="M-8 -234V-120Q42 -107 60.5 -81.5Q79 -56 83 6L111 377H64L66 474L102 484Q115 488 119.5 495Q124 502 125 517L126 528Q134 616 189.5 667Q245 718 344 718Q351 718 362.5 717.5Q374 717 381 716V600Q375 601 369 601.5Q363 602 356 602Q311 602 286 580.5Q261 559 256 510L255 495H407L409 531Q415 619 471.5 670Q528 721 631 721Q638 721 648.5 720.5Q659 720 664 719V603Q659 604 650 604.5Q641 605 637 605Q591 605 568 583Q545 561 539 512L537 495H645L635 377H528L507 70Q500 -30 448.5 -87Q397 -144 283 -158V-43Q332 -30 350.5 -4.5Q369 21 373 83L393 377H246L218 -7Q211 -107 162.5 -163Q114 -219 -8 -234Z" glyph-name="f_f" horiz-adv-x="605" unicode="&#64256;" /><glyph d="M-8 -234V-120Q42 -107 60.5 -81.5Q79 -56 83 6L111 377H64L66 474L102 484Q115 488 119.5 495Q124 502 125 517L126 528Q134 616 189.5 667Q245 718 344 718Q351 718 362.5 717.5Q374 717 381 716V600Q375 601 369 601.5Q363 602 356 602Q311 602 286 580.5Q261 559 256 510L255 495H407L409 531Q415 619 471.5 670Q528 721 631 721Q638 721 648.5 720.5Q659 720 664 719V603Q659 604 650 604.5Q641 605 637 605Q591 605 568 583Q545 561 539 512L537 495H645L635 377H528L507 70Q500 -30 448.5 -87Q397 -144 283 -158V-43Q332 -30 350.5 -4.5Q369 21 373 83L393 377H246L218 -7Q211 -107 162.5 -163Q114 -219 -8 -234ZM838 -12Q780 -12 738 0.5Q696 13 658 38Q664 69 670.5 112.5Q677 156 681 207L711 549Q715 593 716.5 632Q718 671 718 709L855 717Q855 707 855 697Q855 687 854 674Q854 657 852.5 636.5Q851 616 849 593L833 424Q851 462 882 484.5Q913 507 953 507Q1017 507 1056.5 453Q1096 399 1096 302Q1096 154 1029.5 71Q963 -12 838 -12ZM855 106Q904 106 930 155Q956 204 956 285Q956 334 942 358.5Q928 383 906 383Q875 383 849 324Q823 265 812 163L808 117Q817 112 828.5 109Q840 106 855 106Z" glyph-name="f_f_b" horiz-adv-x="1108" /><glyph d="M-8 -234V-120Q42 -107 60.5 -81.5Q79 -56 83 6L111 377H64L66 474L102 484Q115 488 119.5 495Q124 502 125 517L126 528Q134 616 189.5 667Q245 718 344 718Q351 718 362.5 717.5Q374 717 381 716V600Q375 601 369 601.5Q363 602 356 602Q311 602 286 580.5Q261 559 256 510L255 495H407L409 531Q415 619 471.5 670Q528 721 631 721Q638 721 648.5 720.5Q659 720 664 719V603Q659 604 650 604.5Q641 605 637 605Q591 605 568 583Q545 561 539 512L537 495H645L635 377H528L507 70Q500 -30 448.5 -87Q397 -144 283 -158V-43Q332 -30 350.5 -4.5Q369 21 373 83L393 377H246L218 -7Q211 -107 162.5 -163Q114 -219 -8 -234ZM661 0 710 549Q714 593 715.5 632Q717 671 717 709L854 717Q854 707 854 697Q854 687 853 674Q853 657 851.5 636.5Q850 616 848 593L831 403Q855 455 892 481Q929 507 973 507Q1027 507 1057 471Q1087 435 1087 369Q1087 356 1085.5 332.5Q1084 309 1083 290L1057 0H921L946 264Q947 281 948 295.5Q949 310 949 318Q949 350 942 365.5Q935 381 916 381Q879 381 848 310.5Q817 240 805 100L797 0Z" glyph-name="f_f_h" horiz-adv-x="1109" /><glyph d="M-8 -234V-120Q42 -107 60.5 -81.5Q79 -56 83 6L111 377H64L66 474L102 484Q115 488 119.5 495Q124 502 125 517L126 528Q134 616 189.5 667Q245 718 344 718Q351 718 362.5 717.5Q374 717 381 716V600Q375 601 369 601.5Q363 602 356 602Q311 602 286 580.5Q261 559 256 510L255 495H407L409 531Q415 619 471.5 670Q528 721 631 721Q638 721 648.5 720.5Q659 720 664 719V603Q659 604 650 604.5Q641 605 637 605Q591 605 568 583Q545 561 539 512L537 495H645L635 377H528L507 70Q500 -30 448.5 -87Q397 -144 283 -158V-43Q332 -30 350.5 -4.5Q369 21 373 83L393 377H246L218 -7Q211 -107 162.5 -163Q114 -219 -8 -234ZM711 581 721 701H859L848 581ZM661 0 704 495H840L796 0Z" glyph-name="f_f_i" horiz-adv-x="853" unicode="&#64259;" /><glyph d="M-8 -234V-120Q42 -107 60.5 -81.5Q79 -56 83 6L111 377H64L66 474L102 484Q115 488 119.5 495Q124 502 125 517L126 528Q134 616 189.5 667Q245 718 344 718Q351 718 362.5 717.5Q374 717 381 716V600Q375 601 369 601.5Q363 602 356 602Q311 602 286 580.5Q261 559 256 510L255 495H407L409 531Q415 619 471.5 670Q528 721 631 721Q638 721 648.5 720.5Q659 720 664 719V603Q659 604 650 604.5Q641 605 637 605Q591 605 568 583Q545 561 539 512L537 495H645L635 377H528L507 70Q500 -30 448.5 -87Q397 -144 283 -158V-43Q332 -30 350.5 -4.5Q369 21 373 83L393 377H246L218 -7Q211 -107 162.5 -163Q114 -219 -8 -234ZM711 581 721 701H859L848 581ZM572 -233V-117Q622 -106 639.5 -80Q657 -54 662 8L704 495H840L796 -7Q788 -106 736.5 -163Q685 -220 572 -233Z" glyph-name="f_f_j" horiz-adv-x="853" /><glyph d="M-8 -234V-120Q42 -107 60.5 -81.5Q79 -56 83 6L111 377H64L66 474L102 484Q115 488 119.5 495Q124 502 125 517L126 528Q134 616 189.5 667Q245 718 344 718Q351 718 362.5 717.5Q374 717 381 716V600Q375 601 369 601.5Q363 602 356 602Q311 602 286 580.5Q261 559 256 510L255 495H407L409 531Q415 619 471.5 670Q528 721 631 721Q638 721 648.5 720.5Q659 720 664 719V603Q659 604 650 604.5Q641 605 637 605Q591 605 568 583Q545 561 539 512L537 495H645L635 377H528L507 70Q500 -30 448.5 -87Q397 -144 283 -158V-43Q332 -30 350.5 -4.5Q369 21 373 83L393 377H246L218 -7Q211 -107 162.5 -163Q114 -219 -8 -234ZM661 0 709 548Q713 592 715 631.5Q717 671 717 709L854 717Q854 707 854 697Q854 687 853 674Q852 657 851 636.5Q850 616 848 593L821 287L896 371Q928 408 947.5 434.5Q967 461 980 498L1117 492Q1102 443 1075 406Q1048 369 1009 328L945 261L1076 0H934L817 241L796 0Z" glyph-name="f_f_k" horiz-adv-x="1077" /><glyph d="M-8 -234V-120Q42 -107 60.5 -81.5Q79 -56 83 6L111 377H64L66 474L102 484Q115 488 119.5 495Q124 502 125 517L126 528Q134 616 189.5 667Q245 718 344 718Q351 718 362.5 717.5Q374 717 381 716V600Q375 601 369 601.5Q363 602 356 602Q311 602 286 580.5Q261 559 256 510L255 495H407L409 531Q415 619 471.5 670Q528 721 631 721Q638 721 648.5 720.5Q659 720 664 719V603Q659 604 650 604.5Q641 605 637 605Q591 605 568 583Q545 561 539 512L537 495H645L635 377H528L507 70Q500 -30 448.5 -87Q397 -144 283 -158V-43Q332 -30 350.5 -4.5Q369 21 373 83L393 377H246L218 -7Q211 -107 162.5 -163Q114 -219 -8 -234ZM830 -7Q746 -2 707 32Q668 66 668 143Q668 150 669 166Q670 182 672 204L702 550Q706 594 707.5 632.5Q709 671 709 709L846 717V674Q845 657 843.5 636.5Q842 616 840 593L807 215Q806 199 804.5 185Q803 171 803 167Q803 140 815 128Q827 116 853 111Z" glyph-name="f_f_l" horiz-adv-x="858" unicode="&#64260;" /><glyph d="M-7 -235V-120Q44 -107 62 -81.5Q80 -56 84 6L110 376H63V474L102 484Q114 487 119 494.5Q124 502 125 517L126 531Q133 619 189 670Q245 721 344 721Q351 721 362.5 720.5Q374 720 380 719V603Q374 604 368 604.5Q362 605 356 605Q311 605 285.5 584Q260 563 256 514L254 495H361L352 376H245L219 -7Q212 -107 163.5 -163Q115 -219 -7 -235ZM378 0 427 549Q431 593 432.5 632Q434 671 434 709L571 717Q571 707 571 697Q571 687 570 674Q570 657 568.5 636.5Q567 616 565 593L548 403Q572 455 609 481Q646 507 690 507Q744 507 774 471Q804 435 804 369Q804 356 802.5 332.5Q801 309 800 290L774 0H638L663 264Q664 281 665 295.5Q666 310 666 318Q666 350 659 365.5Q652 381 633 381Q596 381 565 310.5Q534 240 522 100L514 0Z" glyph-name="f_h" horiz-adv-x="826" /><glyph d="M-7 -235V-120Q44 -107 62 -81.5Q80 -56 84 6L110 376H63V474L102 484Q114 487 119 494.5Q124 502 125 517L126 531Q133 619 189 670Q245 721 344 721Q351 721 362.5 720.5Q374 720 380 719V603Q374 604 368 604.5Q362 605 356 605Q311 605 285.5 584Q260 563 256 514L254 495H361L352 376H245L219 -7Q212 -107 163.5 -163Q115 -219 -7 -235ZM428 581 438 701H576L565 581ZM289 -233V-117Q339 -106 356.5 -80Q374 -54 379 8L421 495H557L513 -7Q505 -106 453.5 -163Q402 -220 289 -233Z" glyph-name="f_j" horiz-adv-x="570" /><glyph d="M-7 -235V-120Q44 -107 62 -81.5Q80 -56 84 6L110 376H63V474L102 484Q114 487 119 494.5Q124 502 125 517L126 531Q133 619 189 670Q245 721 344 721Q351 721 362.5 720.5Q374 720 380 719V603Q374 604 368 604.5Q362 605 356 605Q311 605 285.5 584Q260 563 256 514L254 495H361L352 376H245L219 -7Q212 -107 163.5 -163Q115 -219 -7 -235ZM378 0 426 548Q430 592 432 631.5Q434 671 434 709L571 717Q571 707 571 697Q571 687 570 674Q569 657 568 636.5Q567 616 565 593L538 287L613 371Q645 408 664.5 434.5Q684 461 697 498L834 492Q819 443 792 406Q765 369 726 328L662 261L793 0H651L534 241L513 0Z" glyph-name="f_k" horiz-adv-x="794" /><glyph d="M-7 -235V-120Q44 -107 62 -81.5Q80 -56 84 6L110 376H63V474L102 484Q114 487 119 494.5Q124 502 125 517L126 531Q133 619 189 670Q245 721 344 721Q351 721 362.5 720.5Q374 720 380 719V603Q374 604 368 604.5Q362 605 356 605Q311 605 285.5 584Q260 563 256 514L254 495H361L352 376H245L219 -7Q212 -107 163.5 -163Q115 -219 -7 -235ZM428 581 438 701H576L565 581ZM378 0 421 495H557L513 0Z" glyph-name="fi" horiz-adv-x="570" unicode="&#64257;" /><glyph d="M58 0 103 518H458L437 401H229L222 310H413L403 195H212L194 0ZM497 0 542 518H679L634 0Z" glyph-name="fi.smcp" horiz-adv-x="691" /><glyph d="M170 -13Q127 -13 98 -6Q69 1 39 14V147Q67 133 98.5 124Q130 115 161 115Q202 115 228.5 134.5Q255 154 255 195Q255 241 210 268Q165 295 89 299L137 646H442L419 513H249L232 403Q303 389 352 342.5Q401 296 401 210Q401 106 338 46.5Q275 -13 170 -13Z" glyph-name="five" horiz-adv-x="428" unicode="5" /><glyph d="M117 -14Q95 -14 71 -8.5Q47 -3 31 6V88Q45 80 64.5 74Q84 68 100 68Q125 68 137 77Q149 86 149 106Q149 131 124.5 144Q100 157 59 157L84 350H265L251 267H150L143 217Q192 213 220.5 186Q249 159 249 106Q249 53 211.5 19.5Q174 -14 117 -14Z" glyph-name="five.dnom" horiz-adv-x="275" /><glyph d="M132 -194Q98 -194 65 -186Q32 -178 7 -165V-42Q36 -57 65.5 -64Q95 -71 128 -71Q176 -71 202 -48.5Q228 -26 228 18Q228 68 182.5 97Q137 126 59 130L109 495H411L389 362H223L203 236Q282 220 329.5 168.5Q377 117 377 34Q377 -76 311 -135Q245 -194 132 -194Z" glyph-name="five.osf" horiz-adv-x="413" /><glyph d="M157 -13Q122 -13 93.5 -6Q65 1 41 14L46 138Q69 125 98 116.5Q127 108 152 108Q190 108 209 121Q228 134 228 162Q228 193 192.5 211.5Q157 230 85 230L124 518H388L367 393H223L212 325Q285 315 327 276Q369 237 369 166Q369 80 310 33.5Q251 -13 157 -13Z" glyph-name="five.smcp" horiz-adv-x="406" /><glyph d="M149 362Q127 362 103 367.5Q79 373 63 382V464Q77 456 96.5 450Q116 444 132 444Q157 444 169 453Q181 462 181 482Q181 507 156.5 520Q132 533 91 533L116 726H297L283 643H182L175 593Q224 589 252.5 562Q281 535 281 482Q281 429 243.5 395.5Q206 362 149 362Z" glyph-name="five.sup" horiz-adv-x="275" /><glyph d="M200 -13Q157 -13 128 -6Q99 1 69 14V147Q97 133 128.5 124Q160 115 191 115Q232 115 258.5 134.5Q285 154 285 195Q285 241 240 268Q195 295 119 299L167 646H472L449 513H279L262 403Q333 389 382 342.5Q431 296 431 210Q431 106 368 46.5Q305 -13 200 -13Z" glyph-name="five.tf" horiz-adv-x="475" /><glyph d="M182 -194Q148 -194 115 -186Q82 -178 57 -165V-42Q86 -57 115.5 -64Q145 -71 178 -71Q226 -71 252 -48.5Q278 -26 278 18Q278 68 232.5 97Q187 126 109 130L159 495H461L439 362H273L253 236Q332 220 379.5 168.5Q427 117 427 34Q427 -76 361 -135Q295 -194 182 -194Z" glyph-name="five.tosf" horiz-adv-x="475" /><glyph d="M-7 -235V-120Q44 -107 62 -81.5Q80 -56 84 6L110 376H63V474L102 484Q114 487 119 494.5Q124 502 125 517L126 531Q133 619 189 670Q245 721 344 721Q351 721 362.5 720.5Q374 720 380 719V603Q374 604 368 604.5Q362 605 356 605Q311 605 285.5 584Q260 563 256 514L254 495H361L352 376H245L219 -7Q212 -107 163.5 -163Q115 -219 -7 -235ZM547 -7Q463 -2 424 32Q385 66 385 143Q385 150 386 166Q387 182 389 204L419 550Q423 594 424.5 632.5Q426 671 426 709L563 717V674Q562 657 560.5 636.5Q559 616 557 593L524 215Q523 199 521.5 185Q520 171 520 167Q520 140 532 128Q544 116 570 111Z" glyph-name="fl" horiz-adv-x="575" unicode="&#64258;" /><glyph d="M58 0 103 518H458L437 401H229L222 310H413L403 195H212L194 0ZM497 0 542 518H679L644 121H841L819 0Z" glyph-name="fl.smcp" horiz-adv-x="854" /><glyph d="M277 0 289 128H24V187L285 642L461 650L426 241H494L473 128H416L405 0ZM186 241H298L319 478Z" glyph-name="four" horiz-adv-x="490" unicode="4" /><glyph d="M169 -6 174 58H23V107L163 346L292 354L273 136H309L296 58H266L260 -6ZM123 136H181L191 255Z" glyph-name="four.dnom" horiz-adv-x="318" /><glyph d="M261 -190 279 11H21V84L265 491L446 500L413 124H477L458 11H404L387 -180ZM175 124H288L308 347Z" glyph-name="four.osf" horiz-adv-x="496" /><glyph d="M251 0 259 87H32V146L248 515L411 522L382 197H442L424 87H373L364 0ZM179 197H268L285 379Z" glyph-name="four.smcp" horiz-adv-x="457" /><glyph d="M201 370 206 434H55V483L195 722L324 730L305 512H341L328 434H298L292 370ZM155 512H213L223 631Z" glyph-name="four.sup" horiz-adv-x="318" /><glyph d="M272 0 284 128H19V187L280 642L456 650L421 241H489L468 128H411L400 0ZM181 241H293L314 478Z" glyph-name="four.tf" horiz-adv-x="475" /><glyph d="M258 -190 276 11H18V84L262 491L443 500L410 124H474L455 11H401L384 -180ZM172 124H285L305 347Z" glyph-name="four.tosf" horiz-adv-x="475" /><glyph d="M-37 0 343 646H453L72 0Z" glyph-name="fraction" horiz-adv-x="360" unicode="&#8260;" /><glyph d="M172 -234Q141 -234 105 -229Q69 -224 41 -212L49 -91Q76 -101 105.5 -107.5Q135 -114 172 -114Q235 -114 268.5 -81.5Q302 -49 307 14L311 64Q293 31 264.5 9Q236 -13 199 -13Q128 -13 91.5 45Q55 103 55 197Q55 350 123 428Q191 506 304 506Q357 506 406.5 494Q456 482 487 461Q481 432 474 387.5Q467 343 463 297L441 30Q428 -119 359 -176.5Q290 -234 172 -234ZM244 109Q272 109 298 171Q324 233 334 352L336 379Q327 384 315.5 386.5Q304 389 292 389Q245 389 219 342.5Q193 296 193 208Q193 162 207.5 135.5Q222 109 244 109Z" glyph-name="g" horiz-adv-x="495" unicode="g" /><glyph d="M198 -233Q108 -233 58.5 -197Q9 -161 9 -105Q9 -57 35 -27Q61 3 113 14Q96 23 86 39Q76 55 76 75Q76 103 94 126Q112 149 144 161Q110 173 85.5 213.5Q61 254 61 304Q61 394 111 450.5Q161 507 254 507Q295 507 326 499.5Q357 492 387 492Q407 492 427.5 494.5Q448 497 464 501L466 387Q459 384 449.5 382Q440 380 431 379Q426 378 420 378Q414 378 410 379Q415 371 418 356Q421 341 421 325Q421 242 375 196Q329 150 236 143Q220 142 208.5 133Q197 124 197 112Q197 98 208 92Q219 86 242 82L301 74Q370 65 406.5 35.5Q443 6 443 -53Q443 -134 377 -183.5Q311 -233 198 -233ZM236 244Q264 244 280 271Q296 298 296 339Q296 370 284 388Q272 406 250 406Q225 406 207.5 379.5Q190 353 190 310Q190 279 202.5 261.5Q215 244 236 244ZM210 -136Q257 -136 283 -120Q309 -104 309 -76Q309 -57 295 -47.5Q281 -38 252 -34L213 -28Q209 -27 204.5 -27Q200 -27 196 -27Q168 -27 152.5 -42.5Q137 -58 137 -80Q137 -107 156.5 -121.5Q176 -136 210 -136Z" glyph-name="g.alt" horiz-adv-x="454" /><glyph d="M281 -13Q171 -13 112 48.5Q53 110 53 219Q53 365 125.5 448Q198 531 332 531Q369 531 408.5 523.5Q448 516 470 504L446 379Q421 392 393 399.5Q365 407 340 407Q265 407 229.5 360.5Q194 314 194 224Q194 164 220 136Q246 108 292 108Q301 108 309.5 109Q318 110 328 113L334 190H284L292 292H462L438 21Q399 4 360 -4.5Q321 -13 281 -13Z" glyph-name="g.smcp" horiz-adv-x="484" /><glyph d="M303 556Q246 556 217.5 589Q189 622 189 683Q189 689 189 696Q189 703 190 710H279V701Q279 673 286.5 658.5Q294 644 311 644Q329 644 339 660Q349 676 353 710H443Q436 635 401 595.5Q366 556 303 556ZM172 -234Q141 -234 105 -229Q69 -224 41 -212L49 -91Q76 -101 105.5 -107.5Q135 -114 172 -114Q235 -114 268.5 -81.5Q302 -49 307 14L311 64Q293 31 264.5 9Q236 -13 199 -13Q128 -13 91.5 45Q55 103 55 197Q55 350 123 428Q191 506 304 506Q357 506 406.5 494Q456 482 487 461Q481 432 474 387.5Q467 343 463 297L441 30Q428 -119 359 -176.5Q290 -234 172 -234ZM244 109Q272 109 298 171Q324 233 334 352L336 379Q327 384 315.5 386.5Q304 389 292 389Q245 389 219 342.5Q193 296 193 208Q193 162 207.5 135.5Q222 109 244 109Z" glyph-name="gbreve" horiz-adv-x="495" unicode="&#287;" /><glyph d="M270 555Q213 555 184.5 588Q156 621 156 682Q156 688 156 695Q156 702 157 709H246V700Q246 672 253.5 657.5Q261 643 278 643Q296 643 306 659Q316 675 320 709H410Q403 634 368 594.5Q333 555 270 555ZM198 -233Q108 -233 58.5 -197Q9 -161 9 -105Q9 -57 35 -27Q61 3 113 14Q96 23 86 39Q76 55 76 75Q76 103 94 126Q112 149 144 161Q110 173 85.5 213.5Q61 254 61 304Q61 394 111 450.5Q161 507 254 507Q295 507 326 499.5Q357 492 387 492Q407 492 427.5 494.5Q448 497 464 501L466 387Q459 384 449.5 382Q440 380 431 379Q426 378 420 378Q414 378 410 379Q415 371 418 356Q421 341 421 325Q421 242 375 196Q329 150 236 143Q220 142 208.5 133Q197 124 197 112Q197 98 208 92Q219 86 242 82L301 74Q370 65 406.5 35.5Q443 6 443 -53Q443 -134 377 -183.5Q311 -233 198 -233ZM236 244Q264 244 280 271Q296 298 296 339Q296 370 284 388Q272 406 250 406Q225 406 207.5 379.5Q190 353 190 310Q190 279 202.5 261.5Q215 244 236 244ZM210 -136Q257 -136 283 -120Q309 -104 309 -76Q309 -57 295 -47.5Q281 -38 252 -34L213 -28Q209 -27 204.5 -27Q200 -27 196 -27Q168 -27 152.5 -42.5Q137 -58 137 -80Q137 -107 156.5 -121.5Q176 -136 210 -136Z" glyph-name="gbreve.alt" horiz-adv-x="455" /><glyph d="M306 553Q241 553 209 592Q177 631 176 699H277Q278 671 286.5 656.5Q295 642 314 642Q333 642 345.5 656Q358 670 362 699H461Q449 632 410.5 592.5Q372 553 306 553ZM281 -13Q171 -13 112 48.5Q53 110 53 219Q53 365 125.5 448Q198 531 332 531Q369 531 408.5 523.5Q448 516 470 504L446 379Q421 392 393 399.5Q365 407 340 407Q265 407 229.5 360.5Q194 314 194 224Q194 164 220 136Q246 108 292 108Q301 108 309.5 109Q318 110 328 113L334 190H284L292 292H462L438 21Q399 4 360 -4.5Q321 -13 281 -13Z" glyph-name="gbreve.smcp" horiz-adv-x="484" /><glyph d="M163 561 259 713 370 717 441 561H337L309 631L269 561ZM172 -234Q141 -234 105 -229Q69 -224 41 -212L49 -91Q76 -101 105.5 -107.5Q135 -114 172 -114Q235 -114 268.5 -81.5Q302 -49 307 14L311 64Q293 31 264.5 9Q236 -13 199 -13Q128 -13 91.5 45Q55 103 55 197Q55 350 123 428Q191 506 304 506Q357 506 406.5 494Q456 482 487 461Q481 432 474 387.5Q467 343 463 297L441 30Q428 -119 359 -176.5Q290 -234 172 -234ZM244 109Q272 109 298 171Q324 233 334 352L336 379Q327 384 315.5 386.5Q304 389 292 389Q245 389 219 342.5Q193 296 193 208Q193 162 207.5 135.5Q222 109 244 109Z" glyph-name="gcircumflex" horiz-adv-x="495" unicode="&#285;" /><glyph d="M130 560 226 712 337 716 408 560H304L276 630L236 560ZM198 -233Q108 -233 58.5 -197Q9 -161 9 -105Q9 -57 35 -27Q61 3 113 14Q96 23 86 39Q76 55 76 75Q76 103 94 126Q112 149 144 161Q110 173 85.5 213.5Q61 254 61 304Q61 394 111 450.5Q161 507 254 507Q295 507 326 499.5Q357 492 387 492Q407 492 427.5 494.5Q448 497 464 501L466 387Q459 384 449.5 382Q440 380 431 379Q426 378 420 378Q414 378 410 379Q415 371 418 356Q421 341 421 325Q421 242 375 196Q329 150 236 143Q220 142 208.5 133Q197 124 197 112Q197 98 208 92Q219 86 242 82L301 74Q370 65 406.5 35.5Q443 6 443 -53Q443 -134 377 -183.5Q311 -233 198 -233ZM236 244Q264 244 280 271Q296 298 296 339Q296 370 284 388Q272 406 250 406Q225 406 207.5 379.5Q190 353 190 310Q190 279 202.5 261.5Q215 244 236 244ZM210 -136Q257 -136 283 -120Q309 -104 309 -76Q309 -57 295 -47.5Q281 -38 252 -34L213 -28Q209 -27 204.5 -27Q200 -27 196 -27Q168 -27 152.5 -42.5Q137 -58 137 -80Q137 -107 156.5 -121.5Q176 -136 210 -136Z" glyph-name="gcircumflex.alt" horiz-adv-x="455" /><glyph d="M158 563 264 692 373 693 456 563H348L311 620L264 563ZM281 -13Q171 -13 112 48.5Q53 110 53 219Q53 365 125.5 448Q198 531 332 531Q369 531 408.5 523.5Q448 516 470 504L446 379Q421 392 393 399.5Q365 407 340 407Q265 407 229.5 360.5Q194 314 194 224Q194 164 220 136Q246 108 292 108Q301 108 309.5 109Q318 110 328 113L334 190H284L292 292H462L438 21Q399 4 360 -4.5Q321 -13 281 -13Z" glyph-name="gcircumflex.smcp" horiz-adv-x="484" /><glyph d="M243 565 245 594Q249 648 262 690Q275 732 301 770L406 757Q382 711 372 673.5Q362 636 357 577L356 565ZM172 -234Q141 -234 105 -229Q69 -224 41 -212L49 -91Q76 -101 105.5 -107.5Q135 -114 172 -114Q235 -114 268.5 -81.5Q302 -49 307 14L311 64Q293 31 264.5 9Q236 -13 199 -13Q128 -13 91.5 45Q55 103 55 197Q55 350 123 428Q191 506 304 506Q357 506 406.5 494Q456 482 487 461Q481 432 474 387.5Q467 343 463 297L441 30Q428 -119 359 -176.5Q290 -234 172 -234ZM244 109Q272 109 298 171Q324 233 334 352L336 379Q327 384 315.5 386.5Q304 389 292 389Q245 389 219 342.5Q193 296 193 208Q193 162 207.5 135.5Q222 109 244 109Z" glyph-name="gcommaaccent" horiz-adv-x="495" unicode="&#291;" /><glyph d="M211 564 213 593Q217 647 230 689Q243 731 269 769L374 756Q350 710 340 672.5Q330 635 325 576L324 564ZM198 -233Q108 -233 58.5 -197Q9 -161 9 -105Q9 -57 35 -27Q61 3 113 14Q96 23 86 39Q76 55 76 75Q76 103 94 126Q112 149 144 161Q110 173 85.5 213.5Q61 254 61 304Q61 394 111 450.5Q161 507 254 507Q295 507 326 499.5Q357 492 387 492Q407 492 427.5 494.5Q448 497 464 501L466 387Q459 384 449.5 382Q440 380 431 379Q426 378 420 378Q414 378 410 379Q415 371 418 356Q421 341 421 325Q421 242 375 196Q329 150 236 143Q220 142 208.5 133Q197 124 197 112Q197 98 208 92Q219 86 242 82L301 74Q370 65 406.5 35.5Q443 6 443 -53Q443 -134 377 -183.5Q311 -233 198 -233ZM236 244Q264 244 280 271Q296 298 296 339Q296 370 284 388Q272 406 250 406Q225 406 207.5 379.5Q190 353 190 310Q190 279 202.5 261.5Q215 244 236 244ZM210 -136Q257 -136 283 -120Q309 -104 309 -76Q309 -57 295 -47.5Q281 -38 252 -34L213 -28Q209 -27 204.5 -27Q200 -27 196 -27Q168 -27 152.5 -42.5Q137 -58 137 -80Q137 -107 156.5 -121.5Q176 -136 210 -136Z" glyph-name="gcommaaccent.alt" horiz-adv-x="455" /><glyph d="M281 -13Q171 -13 112 48.5Q53 110 53 219Q53 365 125.5 448Q198 531 332 531Q369 531 408.5 523.5Q448 516 470 504L446 379Q421 392 393 399.5Q365 407 340 407Q265 407 229.5 360.5Q194 314 194 224Q194 164 220 136Q246 108 292 108Q301 108 309.5 109Q318 110 328 113L334 190H284L292 292H462L438 21Q399 4 360 -4.5Q321 -13 281 -13ZM258 -258 152 -248Q174 -203 184 -166.5Q194 -130 198 -71L199 -56H312L309 -92Q305 -142 294 -181.5Q283 -221 258 -258Z" glyph-name="gcommaaccent.smcp" horiz-adv-x="484" /><glyph d="M237 581 247 701H385L375 581ZM172 -234Q141 -234 105 -229Q69 -224 41 -212L49 -91Q76 -101 105.5 -107.5Q135 -114 172 -114Q235 -114 268.5 -81.5Q302 -49 307 14L311 64Q293 31 264.5 9Q236 -13 199 -13Q128 -13 91.5 45Q55 103 55 197Q55 350 123 428Q191 506 304 506Q357 506 406.5 494Q456 482 487 461Q481 432 474 387.5Q467 343 463 297L441 30Q428 -119 359 -176.5Q290 -234 172 -234ZM244 109Q272 109 298 171Q324 233 334 352L336 379Q327 384 315.5 386.5Q304 389 292 389Q245 389 219 342.5Q193 296 193 208Q193 162 207.5 135.5Q222 109 244 109Z" glyph-name="gdotaccent" horiz-adv-x="495" unicode="&#289;" /><glyph d="M203 580 213 700H351L341 580ZM198 -233Q108 -233 58.5 -197Q9 -161 9 -105Q9 -57 35 -27Q61 3 113 14Q96 23 86 39Q76 55 76 75Q76 103 94 126Q112 149 144 161Q110 173 85.5 213.5Q61 254 61 304Q61 394 111 450.5Q161 507 254 507Q295 507 326 499.5Q357 492 387 492Q407 492 427.5 494.5Q448 497 464 501L466 387Q459 384 449.5 382Q440 380 431 379Q426 378 420 378Q414 378 410 379Q415 371 418 356Q421 341 421 325Q421 242 375 196Q329 150 236 143Q220 142 208.5 133Q197 124 197 112Q197 98 208 92Q219 86 242 82L301 74Q370 65 406.5 35.5Q443 6 443 -53Q443 -134 377 -183.5Q311 -233 198 -233ZM236 244Q264 244 280 271Q296 298 296 339Q296 370 284 388Q272 406 250 406Q225 406 207.5 379.5Q190 353 190 310Q190 279 202.5 261.5Q215 244 236 244ZM210 -136Q257 -136 283 -120Q309 -104 309 -76Q309 -57 295 -47.5Q281 -38 252 -34L213 -28Q209 -27 204.5 -27Q200 -27 196 -27Q168 -27 152.5 -42.5Q137 -58 137 -80Q137 -107 156.5 -121.5Q176 -136 210 -136Z" glyph-name="gdotaccent.alt" horiz-adv-x="455" /><glyph d="M243 569 253 688H384L373 569ZM281 -13Q171 -13 112 48.5Q53 110 53 219Q53 365 125.5 448Q198 531 332 531Q369 531 408.5 523.5Q448 516 470 504L446 379Q421 392 393 399.5Q365 407 340 407Q265 407 229.5 360.5Q194 314 194 224Q194 164 220 136Q246 108 292 108Q301 108 309.5 109Q318 110 328 113L334 190H284L292 292H462L438 21Q399 4 360 -4.5Q321 -13 281 -13Z" glyph-name="gdotaccent.smcp" horiz-adv-x="484" /><glyph d="M-10 -234V-120Q39 -107 57 -81.5Q75 -56 80 6L108 377H62V474L99 484Q111 488 116 494.5Q121 501 122 517L123 531Q130 622 187.5 671.5Q245 721 342 721Q423 721 477 678Q531 635 531 564Q531 515 515 485.5Q499 456 479.5 435.5Q460 415 444 396.5Q428 378 428 352Q428 334 437 321.5Q446 309 465 299L482 290Q532 263 557 228Q582 193 582 150Q582 70 533 28.5Q484 -13 389 -13Q358 -13 330.5 -8.5Q303 -4 275 6V128Q309 115 336.5 109.5Q364 104 393 104Q421 104 434 113.5Q447 123 447 144Q447 158 439 168Q431 178 409 189L392 199Q341 227 317.5 257Q294 287 294 330Q294 367 308.5 393Q323 419 340.5 441.5Q358 464 372.5 488Q387 512 387 544Q387 573 372.5 588.5Q358 604 333 604Q299 604 278.5 581.5Q258 559 254 514L214 -7Q206 -114 154 -167Q102 -220 -10 -234Z" glyph-name="germandbls" horiz-adv-x="587" unicode="&#223;" /><glyph d="M48 0 79 356Q86 428 138.5 473Q191 518 266 518H512V459L389 299Q437 285 468 250.5Q499 216 499 155Q499 81 450 35.5Q401 -10 316 -10Q294 -10 271 -7Q248 -4 231 3V105Q244 99 259.5 97Q275 95 291 95Q325 95 344.5 108.5Q364 122 364 152Q364 185 337.5 202Q311 219 265 222V284L361 411H296Q252 411 233 392Q214 373 211 342L181 0Z" glyph-name="germandbls.smcp" horiz-adv-x="514" /><glyph d="M219 565 180 628Q165 651 155.5 674.5Q146 698 142 717L263 720Q267 701 275 681Q283 661 290 647L329 565Z" glyph-name="grave" horiz-adv-x="440" unicode="`" /><glyph d="M225 691 97 808H243L348 691Z" glyph-name="grave.case" horiz-adv-x="439" /><glyph d="M53 12 52 159 322 322 81 486 107 635 473 373 463 272Z" glyph-name="greater" horiz-adv-x="475" unicode="&gt;" /><glyph d="M67 188 77 299H309L97 526L121 656L462 286L446 188ZM50 0 60 106H447L438 0Z" glyph-name="greaterequal" horiz-adv-x="475" unicode="&#8805;" /><glyph d="M122 61 45 246V248L157 434H284L172 249L247 61ZM311 61 234 246V248L346 434H473L361 249L436 61Z" glyph-name="guillemotleft" horiz-adv-x="446" unicode="&#171;" /><glyph d="M139 99 56 317 57 328 178 547H310L184 322L271 99ZM339 99 256 317 257 328 378 547H510L384 322L471 99Z" glyph-name="guillemotleft.case" horiz-adv-x="481" /><glyph d="M178 434 255 249V247L143 61H16L128 246L53 434ZM367 434 444 249V247L332 61H205L317 246L242 434Z" glyph-name="guillemotright" horiz-adv-x="445" unicode="&#187;" /><glyph d="M199 546 282 328 281 317 160 98H28L154 323L67 546ZM393 546 476 328 475 317 354 98H222L348 323L261 546Z" glyph-name="guillemotright.case" horiz-adv-x="475" /><glyph d="M119 61 42 246V248L154 434H281L169 249L244 61Z" glyph-name="guilsinglleft" horiz-adv-x="257" unicode="&#8249;" /><glyph d="M139 99 56 317 57 328 178 547H310L184 322L271 99Z" glyph-name="guilsinglleft.case" horiz-adv-x="281" /><glyph d="M178 434 255 249V247L143 61H16L128 246L53 434Z" glyph-name="guilsinglright" horiz-adv-x="256" unicode="&#8250;" /><glyph d="M199 546 282 328 281 317 160 98H28L154 323L67 546Z" glyph-name="guilsinglright.case" horiz-adv-x="281" /><glyph d="M56 0 105 549Q109 593 110.5 632Q112 671 112 709L249 717Q249 707 249 697Q249 687 248 674Q248 657 246.5 636.5Q245 616 243 593L226 403Q250 455 287 481Q324 507 368 507Q422 507 452 471Q482 435 482 369Q482 356 480.5 332.5Q479 309 478 290L452 0H316L341 264Q342 281 343 295.5Q344 310 344 318Q344 350 337 365.5Q330 381 311 381Q274 381 243 310.5Q212 240 200 100L192 0Z" glyph-name="h" horiz-adv-x="504" unicode="h" /><glyph d="M58 0 103 518H240L224 335H372L388 518H525L480 0H343L361 212H213L195 0Z" glyph-name="h.smcp" horiz-adv-x="538" /><glyph d="M56 0 105 553H61L69 644H111Q112 661 112 677Q112 693 112 709L249 717Q249 707 249 697Q249 687 248 674Q248 668 247.5 660Q247 652 247 644H315L307 553H239L226 403Q250 455 287 481Q324 507 368 507Q422 507 452 471Q482 435 482 369Q482 356 480.5 332.5Q479 309 478 290L452 0H316L341 264Q342 281 343 295.5Q344 310 344 318Q344 350 337 365.5Q330 381 311 381Q274 381 243 310.5Q212 240 200 100L192 0Z" glyph-name="hbar" horiz-adv-x="504" unicode="&#295;" /><glyph d="M58 0 91 382H58L66 467H99L103 518H240L235 467H382L387 518H525L520 467H554L546 382H513L480 0H342L361 212H213L195 0ZM224 335H371L375 382H228Z" glyph-name="hbar.smcp" horiz-adv-x="537" /><glyph d="M41 760 137 912 248 916 319 760H215L187 830L147 760ZM56 0 105 549Q109 593 110.5 632Q112 671 112 709L249 717Q249 707 249 697Q249 687 248 674Q248 657 246.5 636.5Q245 616 243 593L226 403Q250 455 287 481Q324 507 368 507Q422 507 452 471Q482 435 482 369Q482 356 480.5 332.5Q479 309 478 290L452 0H316L341 264Q342 281 343 295.5Q344 310 344 318Q344 350 337 365.5Q330 381 311 381Q274 381 243 310.5Q212 240 200 100L192 0Z" glyph-name="hcircumflex" horiz-adv-x="504" unicode="&#293;" /><glyph d="M167 563 273 692 382 693 465 563H357L320 620L273 563ZM58 0 103 518H240L224 335H372L388 518H525L480 0H343L361 212H213L195 0Z" glyph-name="hcircumflex.smcp" horiz-adv-x="538" /><glyph d="M288 566Q291 569 305.5 590.5Q320 612 337 637Q354 662 368 683Q382 704 384 707H496Q494 704 476.5 682.5Q459 661 439 636Q419 611 401.5 590Q384 569 381 566ZM154 566Q156 569 168 590.5Q180 612 194 637Q208 662 220.5 683.5Q233 705 234 707H341Q339 704 325 682.5Q311 661 294.5 636Q278 611 263.5 590Q249 569 246 566Z" glyph-name="hungarumlaut" horiz-adv-x="440" unicode="&#733;" /><glyph d="M300 691 414 808H525L395 691ZM163 691 245 808H362L251 691Z" glyph-name="hungarumlaut.case" horiz-adv-x="439" /><glyph d="M65 201 74 311 277 320 268 211Z" glyph-name="hyphen" horiz-adv-x="297" unicode="-" /><glyph d="M69 283 79 399H287L277 283Z" glyph-name="hyphen.case" horiz-adv-x="296" /><glyph d="M106 581 116 701H254L243 581ZM56 0 99 495H235L191 0Z" glyph-name="i" horiz-adv-x="248" unicode="i" /><glyph d="M106 581 116 701H254L243 581ZM56 0 99 495H235L191 0Z" glyph-name="i.latn_TRK" horiz-adv-x="248" /><glyph d="M58 0 103 518H240L195 0Z" glyph-name="i.smcp" horiz-adv-x="253" /><glyph d="M112 565 163 646Q173 662 183.5 681.5Q194 701 199 720L320 717Q313 694 299 671Q285 648 270 627L223 565ZM56 0 99 495H235L191 0Z" glyph-name="iacute" horiz-adv-x="248" unicode="&#237;" /><glyph d="M105 563 229 680H375L228 563ZM58 0 103 518H240L195 0Z" glyph-name="iacute.smcp" horiz-adv-x="253" /><glyph d="M171 556Q114 556 85.5 589Q57 622 57 683Q57 689 57 696Q57 703 58 710H147V701Q147 673 154.5 658.5Q162 644 179 644Q197 644 207 660Q217 676 221 710H311Q304 635 269 595.5Q234 556 171 556ZM56 0 99 495H235L191 0Z" glyph-name="ibreve" horiz-adv-x="248" unicode="&#301;" /><glyph d="M173 553Q108 553 76 592Q44 631 43 699H144Q145 671 153.5 656.5Q162 642 181 642Q200 642 212.5 656Q225 670 229 699H328Q316 632 277.5 592.5Q239 553 173 553ZM58 0 103 518H240L195 0Z" glyph-name="ibreve.smcp" horiz-adv-x="253" /><glyph d="M31 561 127 713 238 717 309 561H205L177 631L137 561ZM56 0 99 495H235L191 0Z" glyph-name="icircumflex" horiz-adv-x="248" unicode="&#238;" /><glyph d="M25 563 131 692 240 693 323 563H215L178 620L131 563ZM58 0 103 518H240L195 0Z" glyph-name="icircumflex.smcp" horiz-adv-x="253" /><glyph d="M26 581 37 701H160L149 581ZM202 581 212 701H336L325 581ZM57 0 100 495H236L192 0Z" glyph-name="idieresis" horiz-adv-x="249" unicode="&#239;" /><glyph d="M26 569 36 688H159L149 569ZM201 569 211 688H335L324 569ZM58 0 103 518H240L195 0Z" glyph-name="idieresis.smcp" horiz-adv-x="253" /><glyph d="M110 569 120 688H251L240 569ZM58 0 103 518H240L195 0Z" glyph-name="idotaccent.smcp" horiz-adv-x="253" /><glyph d="M122 565 83 628Q68 651 58.5 674.5Q49 698 45 717L166 720Q170 701 178 681Q186 661 193 647L232 565ZM56 0 99 495H235L191 0Z" glyph-name="igrave" horiz-adv-x="248" unicode="&#236;" /><glyph d="M119 563 -9 680H137L242 563ZM58 0 103 518H240L195 0Z" glyph-name="igrave.smcp" horiz-adv-x="253" /><glyph d="M355 581 365 701H503L492 581ZM106 581 116 701H254L243 581ZM216 -233V-117Q266 -106 283.5 -80Q301 -54 306 8L348 495H484L440 -7Q432 -106 380.5 -163Q329 -220 216 -233ZM56 0 99 495H235L191 0Z" glyph-name="ij" horiz-adv-x="496" unicode="&#307;" /><glyph d="M58 0 103 518H240L195 0ZM271 -13V103Q326 113 350 136.5Q374 160 378 217L404 518H541L514 205Q505 96 447 45Q389 -6 271 -13Z" glyph-name="ij.smcp" horiz-adv-x="542" /><glyph d="M59 590 67 681H298L290 590ZM56 0 99 495H235L191 0Z" glyph-name="imacron" horiz-adv-x="248" unicode="&#299;" /><glyph d="M58 580 66 670H303L295 580ZM58 0 103 518H240L195 0Z" glyph-name="imacron.smcp" horiz-adv-x="253" /><glyph d="M220 94Q139 94 100 148.5Q61 203 66 283Q69 324 82.5 359.5Q96 395 119.5 421.5Q143 448 176.5 463Q210 478 251 478Q295 478 332 452.5Q369 427 397 385Q430 428 470.5 453Q511 478 556 478Q597 478 627 463.5Q657 449 676.5 424Q696 399 704.5 364.5Q713 330 710 291Q707 250 693.5 214Q680 178 656.5 151.5Q633 125 599.5 110Q566 95 525 95Q479 95 442 120.5Q405 146 380 188Q347 146 306 120Q265 94 220 94ZM231 220Q251 220 270 238.5Q289 257 307 282Q291 310 275.5 328Q260 346 240 346Q219 346 202 329Q185 312 183 279Q182 251 197 235.5Q212 220 231 220ZM468 282Q484 254 499.5 237Q515 220 536 220Q557 220 574 237Q591 254 592 285Q593 313 578.5 329Q564 345 545 345Q524 345 506 327.5Q488 310 468 282Z" glyph-name="infinity" horiz-adv-x="718" unicode="&#8734;" /><glyph d="M61 -208Q42 -208 23.5 -205Q5 -202 -10 -195L20 -98Q27 -101 35.5 -103Q44 -105 52 -105Q77 -105 94.5 -82.5Q112 -60 121 0L198 530Q211 616 256 669Q301 722 377 722Q396 722 414.5 719Q433 716 448 709L417 603Q410 606 402 607Q394 608 384 608Q359 608 342 586.5Q325 565 316 505L234 -53Q224 -120 181 -164Q138 -208 61 -208Z" glyph-name="integral" horiz-adv-x="390" unicode="&#8747;" /><glyph d="M106 581 116 701H254L243 581ZM85 -228Q43 -228 18 -204Q-7 -180 -7 -138Q-7 -98 16.5 -63Q40 -28 77 0H56L99 495H235L191 0H170Q142 -24 118.5 -52.5Q95 -81 95 -105Q95 -121 102.5 -129Q110 -137 124 -137Q135 -137 147 -134.5Q159 -132 170 -126L156 -215Q135 -222 120.5 -225Q106 -228 85 -228Z" glyph-name="iogonek" horiz-adv-x="248" unicode="&#303;" /><glyph d="M89 -231Q47 -231 22 -207Q-3 -183 -3 -141Q-3 -101 20.5 -66Q44 -31 84 0H58L103 518H240L195 0H177Q149 -24 124 -53.5Q99 -83 99 -108Q99 -124 106.5 -132Q114 -140 127 -140Q138 -140 150 -137.5Q162 -135 173 -129L159 -218Q138 -225 123.5 -228Q109 -231 89 -231Z" glyph-name="iogonek.smcp" horiz-adv-x="253" /><glyph d="M43 573Q48 641 66 671.5Q84 702 124 702Q149 702 168 689Q187 676 202 676Q214 676 219 686.5Q224 697 226 715L315 709Q309 646 288 612Q267 578 225 578Q200 578 181 591.5Q162 605 151 605Q143 605 137.5 597.5Q132 590 131 573ZM56 0 99 495H235L191 0Z" glyph-name="itilde" horiz-adv-x="248" unicode="&#297;" /><glyph d="M26 564Q28 633 53 663.5Q78 694 118 694Q134 694 147 688.5Q160 683 171 676.5Q182 670 193 664.5Q204 659 216 659Q228 659 235 673Q242 687 243 704L324 699Q322 636 296.5 602.5Q271 569 223 569Q206 569 193 574Q180 579 169.5 585.5Q159 592 149.5 597Q140 602 130 602Q119 602 112.5 592.5Q106 583 105 564ZM58 0 103 518H240L195 0Z" glyph-name="itilde.smcp" horiz-adv-x="253" /><glyph d="M106 581 116 701H254L243 581ZM-33 -233V-117Q17 -106 34.5 -80Q52 -54 57 8L99 495H235L191 -7Q183 -106 131.5 -163Q80 -220 -33 -233Z" glyph-name="j" horiz-adv-x="248" unicode="j" /><glyph d="M21 -13V103Q76 113 100 136.5Q124 160 128 217L154 518H291L264 205Q255 96 197 45Q139 -6 21 -13Z" glyph-name="j.smcp" horiz-adv-x="292" /><glyph d="M32 561 128 713 239 717 310 561H206L178 631L138 561ZM-33 -232V-117Q16 -105 34 -79.5Q52 -54 57 8L99 495H235L191 -7Q183 -106 131.5 -162.5Q80 -219 -33 -232Z" glyph-name="jcircumflex" horiz-adv-x="248" unicode="&#309;" /><glyph d="M77 563 183 692 292 693 375 563H267L230 620L183 563ZM21 -13V103Q76 113 100 136.5Q124 160 128 217L154 518H291L264 205Q255 96 197 45Q139 -6 21 -13Z" glyph-name="jcircumflex.smcp" horiz-adv-x="292" /><glyph d="M56 0 104 548Q108 592 110 631.5Q112 671 112 709L249 717Q249 707 249 697Q249 687 248 674Q247 657 246 636.5Q245 616 243 593L216 287L291 371Q323 408 342.5 434.5Q362 461 375 498L512 492Q497 443 470 406Q443 369 404 328L340 261L471 0H329L212 241L191 0Z" glyph-name="k" horiz-adv-x="472" unicode="k" /><glyph d="M58 0 103 518H237L220 323L383 518H534L322 270L481 0H336L211 216L192 0Z" glyph-name="k.smcp" horiz-adv-x="486" /><glyph d="M56 0 104 548Q108 592 110 631.5Q112 671 112 709L249 717Q249 707 249 697Q249 687 248 674Q247 657 246 636.5Q245 616 243 593L216 287L291 371Q323 408 342.5 434.5Q362 461 375 498L512 492Q497 443 470 406Q443 369 404 328L340 261L471 0H329L212 241L191 0ZM248 -258 149 -248Q172 -203 182 -166.5Q192 -130 196 -70L197 -56H303L299 -92Q295 -146 283.5 -183.5Q272 -221 248 -258Z" glyph-name="kcommaaccent" horiz-adv-x="472" unicode="&#311;" /><glyph d="M58 0 103 518H237L220 323L383 518H534L322 270L481 0H336L211 216L192 0ZM255 -258 149 -248Q171 -203 181 -166.5Q191 -130 195 -71L196 -56H309L306 -92Q302 -142 291 -181.5Q280 -221 255 -258Z" glyph-name="kcommaaccent.smcp" horiz-adv-x="486" /><glyph d="M58 0 87 330Q91 376 93 414.5Q95 453 95 491L230 498Q230 489 229.5 474Q229 459 228.5 442.5Q228 426 227.5 410Q227 394 226 383L218 286L292 369Q324 406 344 433.5Q364 461 378 498L515 492Q499 443 472 406.5Q445 370 406 328L342 262L473 0H331L214 243L193 0Z" glyph-name="kgreenlandic" horiz-adv-x="475" unicode="&#312;" /><glyph d="M225 -7Q141 -2 102 32Q63 66 63 143Q63 150 64 166Q65 182 67 204L97 550Q101 594 102.5 632.5Q104 671 104 709L241 717V674Q240 657 238.5 636.5Q237 616 235 593L202 215Q201 199 199.5 185Q198 171 198 167Q198 140 210 128Q222 116 248 111Z" glyph-name="l" horiz-adv-x="253" unicode="l" /><glyph d="M58 0 103 518H240L205 121H402L380 0Z" glyph-name="l.smcp" horiz-adv-x="415" /><glyph d="M127 770 178 851Q188 867 198.5 886.5Q209 906 214 925L335 922Q328 899 314 876Q300 853 285 832L238 770ZM225 -7Q141 -2 102 32Q63 66 63 143Q63 150 64 166Q65 182 67 204L97 550Q101 594 102.5 632.5Q104 671 104 709L241 717V674Q240 657 238.5 636.5Q237 616 235 593L202 215Q201 199 199.5 185Q198 171 198 167Q198 140 210 128Q222 116 248 111Z" glyph-name="lacute" horiz-adv-x="261" unicode="&#314;" /><glyph d="M119 574 243 691H389L242 574ZM58 0 103 518H240L205 121H402L380 0Z" glyph-name="lacute.smcp" horiz-adv-x="415" /><glyph d="M225 -7Q141 -2 102 32Q63 66 63 143Q63 150 64 166Q65 182 67 204L97 550Q101 594 102.5 632.5Q104 671 104 709L241 717V674Q240 657 238.5 636.5Q237 616 235 593L202 215Q201 199 199.5 185Q198 171 198 167Q198 140 210 128Q222 116 248 111ZM262 526Q268 544 276 569.5Q284 595 291 621.5Q298 648 304 672.5Q310 697 313 711H418Q414 690 406 665.5Q398 641 389 616Q380 591 370 567.5Q360 544 352 526Z" glyph-name="lcaron" horiz-adv-x="253" unicode="&#318;" /><glyph d="M277 320Q284 339 292.5 366Q301 393 309 420.5Q317 448 323.5 474Q330 500 333 518H452Q446 496 436 468.5Q426 441 414 414.5Q402 388 390 363Q378 338 368 320ZM58 0 103 518H240L205 121H402L380 0Z" glyph-name="lcaron.smcp" horiz-adv-x="415" /><glyph d="M225 -7Q141 -2 102 32Q63 66 63 143Q63 150 64 166Q65 182 67 204L97 550Q101 594 102.5 632.5Q104 671 104 709L241 717V674Q240 657 238.5 636.5Q237 616 235 593L202 215Q201 199 199.5 185Q198 171 198 167Q198 140 210 128Q222 116 248 111ZM117 -258 18 -248Q41 -203 51 -166.5Q61 -130 65 -70L66 -56H172L168 -92Q164 -146 152.5 -183.5Q141 -221 117 -258Z" glyph-name="lcommaaccent" horiz-adv-x="253" unicode="&#316;" /><glyph d="M58 0 103 518H240L205 121H402L380 0ZM215 -258 109 -248Q131 -203 141 -166.5Q151 -130 155 -71L156 -56H269L266 -92Q262 -142 251 -181.5Q240 -221 215 -258Z" glyph-name="lcommaaccent.smcp" horiz-adv-x="415" /><glyph d="M575 -7Q491 -2 452 32Q413 66 413 143Q413 150 414 166Q415 182 417 204L447 550Q451 594 452.5 632.5Q454 671 454 709L591 717V674Q590 657 588.5 636.5Q587 616 585 593L552 215Q551 199 549.5 185Q548 171 548 167Q548 140 560 128Q572 116 598 111ZM225 -7Q141 -2 102 32Q63 66 63 143Q63 150 64 166Q65 182 67 204L97 550Q101 594 102.5 632.5Q104 671 104 709L241 717V674Q240 657 238.5 636.5Q237 616 235 593L202 215Q201 199 199.5 185Q198 171 198 167Q198 140 210 128Q222 116 248 111ZM259 338 270 470H394L382 338Z" glyph-name="ldot" horiz-adv-x="602" unicode="&#320;" /><glyph d="M451 0 496 518H633L598 121H795L773 0ZM58 0 103 518H240L205 121H402L380 0ZM280 237 291 370H421L410 237Z" glyph-name="ldot.smcp" horiz-adv-x="809" /><glyph d="M424 12 59 273 68 373 478 635 479 489 209 325 450 161Z" glyph-name="less" horiz-adv-x="475" unicode="&lt;" /><glyph d="M68 188 70 286 474 656 477 527 224 299H457L447 188ZM44 0 53 106H441L431 0Z" glyph-name="lessequal" horiz-adv-x="475" unicode="&#8804;" /><glyph d="M244 -9Q174 -9 137 27.5Q100 64 100 132Q100 138 101 147.5Q102 157 104 177L59 141L47 248L114 306L128 455Q136 548 175.5 602Q215 656 296 656Q362 656 391 618Q420 580 420 525Q420 441 370.5 372.5Q321 304 228 238Q225 206 224 195Q223 184 223 181Q223 144 241.5 126.5Q260 109 294 109Q307 109 324.5 112.5Q342 116 355 122L335 6Q318 -1 292 -5Q266 -9 244 -9ZM239 371Q275 414 288.5 450Q302 486 302 514Q302 533 296.5 543Q291 553 281 553Q267 553 260 539Q253 525 250 491Z" glyph-name="litre" horiz-adv-x="411" unicode="&#8467;" /><glyph d="M64 297 73 414H463L433 70H313L333 297Z" glyph-name="logicalnot" horiz-adv-x="475" unicode="&#172;" /><glyph d="M186 -10 69 306 72 340 244 656H345L463 340L460 306L288 -10ZM249 128 348 323 283 518 184 323Z" glyph-name="lozenge" horiz-adv-x="475" unicode="&#9674;" /><glyph d="M225 -7Q141 -2 102 32Q63 66 63 143Q63 150 64 166Q65 182 67 204L73 269L27 238L38 354L83 385L97 550Q101 594 102.5 632.5Q104 671 104 709L241 717V674Q240 657 238.5 636.5Q237 616 235 593L226 482L288 525L277 407L216 364L202 215Q201 199 199.5 185Q198 171 198 167Q198 140 210 128Q222 116 248 111Z" glyph-name="lslash" horiz-adv-x="253" unicode="&#322;" /><glyph d="M58 0 74 191 31 169 40 276 84 298 103 518H240L227 367L301 405L292 297L217 259L205 121H402L380 0Z" glyph-name="lslash.smcp" horiz-adv-x="415" /><glyph d="M58 0 87 330Q91 377 93 415.5Q95 454 95 492L221 498Q221 475 219.5 446.5Q218 418 217 394Q237 446 273 476.5Q309 507 361 507Q404 507 433 483Q462 459 472 406Q495 458 532 482.5Q569 507 615 507Q669 507 700 470.5Q731 434 731 361Q731 355 730 334.5Q729 314 727 293L702 0H567L589 261Q591 280 592 300Q593 320 593 326Q593 355 584 369Q575 383 559 383Q524 383 497.5 323Q471 263 461 154L448 0H313L335 261Q337 280 338 300Q339 320 339 326Q339 355 329.5 369Q320 383 304 383Q269 383 242 319.5Q215 256 205 139L193 0Z" glyph-name="m" horiz-adv-x="753" unicode="m" /><glyph d="M41 0 119 518H287L347 260L454 518H623L605 0H474L487 333L380 67L276 71L216 331L169 0Z" glyph-name="m.smcp" horiz-adv-x="646" /><glyph d="M156 590 164 681H395L387 590Z" glyph-name="macron" horiz-adv-x="440" unicode="&#175;" /><glyph d="M164 708 172 798H409L401 708Z" glyph-name="macron.case" horiz-adv-x="440" /><glyph d="M75 288 84 390H459L449 288Z" glyph-name="minus" horiz-adv-x="475" unicode="&#8722;" /><glyph d="M-33 -233V-117Q17 -106 34.5 -80Q52 -54 57 8L99 495H235L213 240Q211 218 209.5 201Q208 184 208 177Q208 143 215.5 128Q223 113 242 113Q273 113 301.5 181Q330 249 343 398L352 495H487L457 154Q456 132 455 113Q454 94 454 78Q454 60 455 42.5Q456 25 458 6L331 -8Q327 4 325 21.5Q323 39 323 57Q323 64 324 73Q325 82 326 93Q312 56 289 31Q266 6 239 -1Q226 -5 214 -6Q202 -7 191 -5L188 -26Q180 -113 126 -168Q72 -223 -33 -233Z" glyph-name="mu" horiz-adv-x="502" unicode="&#181;" /><glyph d="M56 188 197 344 85 498 172 577 275 433 403 575 474 500 338 347 452 189 367 109 259 258 126 110Z" glyph-name="multiply" horiz-adv-x="475" unicode="&#215;" /><glyph d="M58 0 87 330Q91 376 93 415Q95 454 95 492L221 498Q221 488 220.5 472.5Q220 457 219 440.5Q218 424 217 408Q216 392 215 382Q236 437 272.5 472Q309 507 360 507Q417 507 449.5 470Q482 433 482 359Q482 354 480.5 326.5Q479 299 477 277L451 0H316L340 259Q341 278 342.5 299Q344 320 344 325Q344 354 336 368.5Q328 383 309 383Q275 383 244.5 309Q214 235 202 95L193 0Z" glyph-name="n" horiz-adv-x="504" unicode="n" /><glyph d="M58 0 103 518H233L371 238L396 518H518L473 2L357 -3L205 292L179 0Z" glyph-name="n.smcp" horiz-adv-x="531" /><glyph d="M249 565 300 646Q310 662 320.5 681.5Q331 701 336 720L457 717Q450 694 436 671Q422 648 407 627L360 565ZM58 0 87 330Q91 376 93 415Q95 454 95 492L221 498Q221 488 220.5 472.5Q220 457 219 440.5Q218 424 217 408Q216 392 215 382Q236 437 272.5 472Q309 507 360 507Q417 507 449.5 470Q482 433 482 359Q482 354 480.5 326.5Q479 299 477 277L451 0H316L340 259Q341 278 342.5 299Q344 320 344 325Q344 354 336 368.5Q328 383 309 383Q275 383 244.5 309Q214 235 202 95L193 0Z" glyph-name="nacute" horiz-adv-x="504" unicode="&#324;" /><glyph d="M256 563 380 680H526L379 563ZM58 0 103 518H233L371 238L396 518H518L473 2L357 -3L205 292L179 0Z" glyph-name="nacute.smcp" horiz-adv-x="531" /><glyph d="M136 442 30 452Q52 497 62 533.5Q72 570 76 629L77 644H190L187 608Q183 558 172 518.5Q161 479 136 442ZM163 0 192 330Q196 376 198 415Q200 454 200 492L326 498Q326 488 325.5 472.5Q325 457 324 440.5Q323 424 322 408Q321 392 320 382Q341 437 377.5 472Q414 507 465 507Q522 507 554.5 470Q587 433 587 359Q587 354 585.5 326.5Q584 299 582 277L556 0H421L445 259Q446 278 447.5 299Q449 320 449 325Q449 354 441 368.5Q433 383 414 383Q380 383 349.5 309Q319 235 307 95L298 0Z" glyph-name="napostrophe" horiz-adv-x="609" unicode="&#329;" /><glyph d="M263 557 189 707H278L315 636L363 707H460L359 562ZM58 0 87 330Q91 376 93 415Q95 454 95 492L221 498Q221 488 220.5 472.5Q220 457 219 440.5Q218 424 217 408Q216 392 215 382Q236 437 272.5 472Q309 507 360 507Q417 507 449.5 470Q482 433 482 359Q482 354 480.5 326.5Q479 299 477 277L451 0H316L340 259Q341 278 342.5 299Q344 320 344 325Q344 354 336 368.5Q328 383 309 383Q275 383 244.5 309Q214 235 202 95L193 0Z" glyph-name="ncaron" horiz-adv-x="504" unicode="&#328;" /><glyph d="M269 559 193 689H299L331 631L371 689H478L378 559ZM58 0 103 518H233L371 238L396 518H518L473 2L357 -3L205 292L179 0Z" glyph-name="ncaron.smcp" horiz-adv-x="531" /><glyph d="M58 0 87 330Q91 376 93 415Q95 454 95 492L221 498Q221 488 220.5 472.5Q220 457 219 440.5Q218 424 217 408Q216 392 215 382Q236 437 272.5 472Q309 507 360 507Q417 507 449.5 470Q482 433 482 359Q482 354 480.5 326.5Q479 299 477 277L451 0H316L340 259Q341 278 342.5 299Q344 320 344 325Q344 354 336 368.5Q328 383 309 383Q275 383 244.5 309Q214 235 202 95L193 0ZM250 -258 151 -248Q174 -203 184 -166.5Q194 -130 198 -70L199 -56H305L301 -92Q297 -146 285.5 -183.5Q274 -221 250 -258Z" glyph-name="ncommaaccent" horiz-adv-x="504" unicode="&#326;" /><glyph d="M58 0 103 518H233L371 238L396 518H518L473 2L357 -3L205 292L179 0ZM266 -258 160 -248Q182 -203 192 -166.5Q202 -130 206 -71L207 -56H320L317 -92Q313 -142 302 -181.5Q291 -221 266 -258Z" glyph-name="ncommaaccent.smcp" horiz-adv-x="531" /><glyph d="M282 659Q378 659 426.5 591Q475 523 475 403Q475 310 447 234Q419 158 368 104Q317 50 244 19.5Q171 -11 82 -12V108Q162 113 217.5 144.5Q273 176 304 232Q293 229 279.5 227Q266 225 251 225Q169 225 119.5 276Q70 327 70 417Q70 524 129.5 591.5Q189 659 282 659ZM274 539Q243 539 223 509.5Q203 480 203 434Q203 385 231 361Q259 337 302 337Q312 337 320.5 338Q329 339 339 342Q342 359 343 377Q344 395 344 415Q344 472 326 505.5Q308 539 274 539Z" glyph-name="nine" horiz-adv-x="481" unicode="9" /><glyph d="M181 356Q236 356 269.5 317.5Q303 279 303 215Q303 165 287 122Q271 79 240 48Q209 17 163 -1Q117 -19 58 -20V59Q112 60 150 78.5Q188 97 201 134Q191 127 174 121.5Q157 116 140 116Q95 116 69.5 143.5Q44 171 44 217Q44 277 81.5 316.5Q119 356 181 356ZM175 280Q156 280 146 265.5Q136 251 136 228Q136 209 146.5 197.5Q157 186 176 186Q185 186 194 189Q203 192 211 197Q212 201 212 206Q212 211 212 217Q212 247 202 263.5Q192 280 175 280Z" glyph-name="nine.dnom" horiz-adv-x="312" /><glyph d="M264 508Q357 508 410 439.5Q463 371 463 246Q463 151 432.5 70.5Q402 -10 347 -68.5Q292 -127 214 -162Q136 -197 42 -202V-87Q128 -76 190.5 -36Q253 4 287 68Q280 67 272 66Q264 65 254 65Q169 65 112.5 122.5Q56 180 56 269Q56 380 112 444Q168 508 264 508ZM257 389Q225 389 207 362.5Q189 336 189 291Q189 242 215.5 214Q242 186 284 181Q294 180 304 179.5Q314 179 325 180Q328 198 329.5 217Q331 236 331 255Q331 317 311 353Q291 389 257 389Z" glyph-name="nine.osf" horiz-adv-x="476" /><glyph d="M262 533Q341 533 391 477.5Q441 422 441 326Q441 252 417 189.5Q393 127 347 82.5Q301 38 232.5 12Q164 -14 77 -15V98Q142 102 187.5 120Q233 138 259 173Q243 172 226.5 174.5Q210 177 196 181Q132 192 98 233.5Q64 275 64 341Q64 428 118 480.5Q172 533 262 533ZM251 421Q224 421 210.5 400.5Q197 380 197 351Q197 317 217 300Q237 283 267 280Q274 278 283 277.5Q292 277 300 278Q302 290 303 303Q304 316 304 330Q304 369 291.5 395Q279 421 251 421Z" glyph-name="nine.smcp" horiz-adv-x="450" /><glyph d="M214 732Q269 732 302.5 693.5Q336 655 336 591Q336 541 320 498Q304 455 273 424Q242 393 196 375Q150 357 91 356V435Q145 436 183 454.5Q221 473 234 510Q224 503 207 497.5Q190 492 173 492Q128 492 102.5 519.5Q77 547 77 593Q77 653 114.5 692.5Q152 732 214 732ZM208 656Q189 656 179 641.5Q169 627 169 604Q169 585 179.5 573.5Q190 562 209 562Q218 562 227 565Q236 568 244 573Q245 577 245 582Q245 587 245 593Q245 623 235 639.5Q225 656 208 656Z" glyph-name="nine.sup" horiz-adv-x="312" /><glyph d="M280 659Q376 659 424.5 591Q473 523 473 403Q473 310 445 234Q417 158 366 104Q315 50 242 19.5Q169 -11 80 -12V108Q160 113 215.5 144.5Q271 176 302 232Q291 229 277.5 227Q264 225 249 225Q167 225 117.5 276Q68 327 68 417Q68 524 127.5 591.5Q187 659 280 659ZM272 539Q241 539 221 509.5Q201 480 201 434Q201 385 229 361Q257 337 300 337Q310 337 318.5 338Q327 339 337 342Q340 359 341 377Q342 395 342 415Q342 472 324 505.5Q306 539 272 539Z" glyph-name="nine.tf" horiz-adv-x="475" /><glyph d="M260 508Q353 508 406 439.5Q459 371 459 246Q459 151 428.5 70.5Q398 -10 343 -68.5Q288 -127 210 -162Q132 -197 38 -202V-87Q124 -76 186.5 -36Q249 4 283 68Q276 67 268 66Q260 65 250 65Q165 65 108.5 122.5Q52 180 52 269Q52 380 108 444Q164 508 260 508ZM253 389Q221 389 203 362.5Q185 336 185 291Q185 242 211.5 214Q238 186 280 181Q290 180 300 179.5Q310 179 321 180Q324 198 325.5 217Q327 236 327 255Q327 317 307 353Q287 389 253 389Z" glyph-name="nine.tosf" horiz-adv-x="475" /><glyph d="M68 0 153 183H66L75 285H200L250 393H85L94 495H297L366 645H463L393 495H469L459 393H346L296 285H450L440 183H249L164 0Z" glyph-name="notequal" horiz-adv-x="475" unicode="&#8800;" /><glyph d="M180 573Q185 641 203 671.5Q221 702 261 702Q286 702 305 689Q324 676 339 676Q351 676 356 686.5Q361 697 363 715L452 709Q446 646 425 612Q404 578 362 578Q337 578 318 591.5Q299 605 288 605Q280 605 274.5 597.5Q269 590 268 573ZM58 0 87 330Q91 376 93 415Q95 454 95 492L221 498Q221 488 220.5 472.5Q220 457 219 440.5Q218 424 217 408Q216 392 215 382Q236 437 272.5 472Q309 507 360 507Q417 507 449.5 470Q482 433 482 359Q482 354 480.5 326.5Q479 299 477 277L451 0H316L340 259Q341 278 342.5 299Q344 320 344 325Q344 354 336 368.5Q328 383 309 383Q275 383 244.5 309Q214 235 202 95L193 0Z" glyph-name="ntilde" horiz-adv-x="504" unicode="&#241;" /><glyph d="M177 564Q179 633 204 663.5Q229 694 269 694Q285 694 298 688.5Q311 683 322 676.5Q333 670 344 664.5Q355 659 367 659Q379 659 386 673Q393 687 394 704L475 699Q473 636 447.5 602.5Q422 569 374 569Q357 569 344 574Q331 579 320.5 585.5Q310 592 300.5 597Q291 602 281 602Q270 602 263.5 592.5Q257 583 256 564ZM58 0 103 518H233L371 238L396 518H518L473 2L357 -3L205 292L179 0Z" glyph-name="ntilde.smcp" horiz-adv-x="531" /><glyph d="M89 0 118 172H72L90 282H136L155 384H107L125 495H173L200 646H300L274 495H367L393 646H493L467 495H515L497 384H449L430 282H479L461 172H412L382 0H282L311 172H220L190 0ZM238 282H330L348 384H256Z" glyph-name="numbersign" horiz-adv-x="525" unicode="#" /><glyph d="M769 287Q706 287 669 328.5Q632 370 632 442Q632 535 678 593.5Q724 652 796 652Q859 652 896 611Q933 570 933 498Q933 405 887 346Q841 287 769 287ZM66 0 122 646H249L419 269L451 646H574L518 3L402 -4L224 391L189 0ZM775 377Q801 377 816.5 408Q832 439 832 491Q832 525 821.5 543.5Q811 562 790 562Q764 562 748.5 531Q733 500 733 448Q733 414 743.5 395.5Q754 377 775 377ZM618 140 627 235H889L880 140Z" glyph-name="numero" horiz-adv-x="939" unicode="&#8470;" /><glyph d="M245 -13Q155 -13 104 47Q53 107 53 208Q53 274 69.5 329.5Q86 385 116 424Q146 463 188.5 485Q231 507 282 507Q373 507 424 447.5Q475 388 475 287Q475 220 458.5 164.5Q442 109 412 70Q382 31 339 9Q296 -13 245 -13ZM253 112Q290 112 313.5 157.5Q337 203 337 278Q337 329 321 356Q305 383 274 383Q237 383 214 337.5Q191 292 191 216Q191 165 206.5 138.5Q222 112 253 112Z" glyph-name="o" horiz-adv-x="484" unicode="o" /><glyph d="M257 -13Q163 -13 108.5 51.5Q54 116 54 221Q54 290 72.5 347.5Q91 405 124 445.5Q157 486 204.5 508.5Q252 531 309 531Q403 531 457.5 466Q512 401 512 297Q512 227 493.5 169.5Q475 112 442 71.5Q409 31 361.5 9Q314 -13 257 -13ZM272 112Q316 112 342.5 160.5Q369 209 369 290Q369 346 350 376Q331 406 294 406Q250 406 223.5 357Q197 308 197 227Q197 171 216 141.5Q235 112 272 112Z" glyph-name="o.smcp" horiz-adv-x="521" /><glyph d="M228 565 279 646Q289 662 299.5 681.5Q310 701 315 720L436 717Q429 694 415 671Q401 648 386 627L339 565ZM245 -13Q155 -13 104 47Q53 107 53 208Q53 274 69.5 329.5Q86 385 116 424Q146 463 188.5 485Q231 507 282 507Q373 507 424 447.5Q475 388 475 287Q475 220 458.5 164.5Q442 109 412 70Q382 31 339 9Q296 -13 245 -13ZM253 112Q290 112 313.5 157.5Q337 203 337 278Q337 329 321 356Q305 383 274 383Q237 383 214 337.5Q191 292 191 216Q191 165 206.5 138.5Q222 112 253 112Z" glyph-name="oacute" horiz-adv-x="484" unicode="&#243;" /><glyph d="M239 563 363 680H509L362 563ZM257 -13Q163 -13 108.5 51.5Q54 116 54 221Q54 290 72.5 347.5Q91 405 124 445.5Q157 486 204.5 508.5Q252 531 309 531Q403 531 457.5 466Q512 401 512 297Q512 227 493.5 169.5Q475 112 442 71.5Q409 31 361.5 9Q314 -13 257 -13ZM272 112Q316 112 342.5 160.5Q369 209 369 290Q369 346 350 376Q331 406 294 406Q250 406 223.5 357Q197 308 197 227Q197 171 216 141.5Q235 112 272 112Z" glyph-name="oacute.smcp" horiz-adv-x="521" /><glyph d="M287 556Q230 556 201.5 589Q173 622 173 683Q173 689 173 696Q173 703 174 710H263V701Q263 673 270.5 658.5Q278 644 295 644Q313 644 323 660Q333 676 337 710H427Q420 635 385 595.5Q350 556 287 556ZM245 -13Q155 -13 104 47Q53 107 53 208Q53 274 69.5 329.5Q86 385 116 424Q146 463 188.5 485Q231 507 282 507Q373 507 424 447.5Q475 388 475 287Q475 220 458.5 164.5Q442 109 412 70Q382 31 339 9Q296 -13 245 -13ZM253 112Q290 112 313.5 157.5Q337 203 337 278Q337 329 321 356Q305 383 274 383Q237 383 214 337.5Q191 292 191 216Q191 165 206.5 138.5Q222 112 253 112Z" glyph-name="obreve" horiz-adv-x="484" unicode="&#335;" /><glyph d="M307 553Q242 553 210 592Q178 631 177 699H278Q279 671 287.5 656.5Q296 642 315 642Q334 642 346.5 656Q359 670 363 699H462Q450 632 411.5 592.5Q373 553 307 553ZM257 -13Q163 -13 108.5 51.5Q54 116 54 221Q54 290 72.5 347.5Q91 405 124 445.5Q157 486 204.5 508.5Q252 531 309 531Q403 531 457.5 466Q512 401 512 297Q512 227 493.5 169.5Q475 112 442 71.5Q409 31 361.5 9Q314 -13 257 -13ZM272 112Q316 112 342.5 160.5Q369 209 369 290Q369 346 350 376Q331 406 294 406Q250 406 223.5 357Q197 308 197 227Q197 171 216 141.5Q235 112 272 112Z" glyph-name="obreve.smcp" horiz-adv-x="521" /><glyph d="M147 561 243 713 354 717 425 561H321L293 631L253 561ZM245 -13Q155 -13 104 47Q53 107 53 208Q53 274 69.5 329.5Q86 385 116 424Q146 463 188.5 485Q231 507 282 507Q373 507 424 447.5Q475 388 475 287Q475 220 458.5 164.5Q442 109 412 70Q382 31 339 9Q296 -13 245 -13ZM253 112Q290 112 313.5 157.5Q337 203 337 278Q337 329 321 356Q305 383 274 383Q237 383 214 337.5Q191 292 191 216Q191 165 206.5 138.5Q222 112 253 112Z" glyph-name="ocircumflex" horiz-adv-x="484" unicode="&#244;" /><glyph d="M159 563 265 692 374 693 457 563H349L312 620L265 563ZM257 -13Q163 -13 108.5 51.5Q54 116 54 221Q54 290 72.5 347.5Q91 405 124 445.5Q157 486 204.5 508.5Q252 531 309 531Q403 531 457.5 466Q512 401 512 297Q512 227 493.5 169.5Q475 112 442 71.5Q409 31 361.5 9Q314 -13 257 -13ZM272 112Q316 112 342.5 160.5Q369 209 369 290Q369 346 350 376Q331 406 294 406Q250 406 223.5 357Q197 308 197 227Q197 171 216 141.5Q235 112 272 112Z" glyph-name="ocircumflex.smcp" horiz-adv-x="521" /><glyph d="M141 581 152 701H275L264 581ZM317 581 327 701H451L440 581ZM245 -13Q155 -13 104 47Q53 107 53 208Q53 274 69.5 329.5Q86 385 116 424Q146 463 188.5 485Q231 507 282 507Q373 507 424 447.5Q475 388 475 287Q475 220 458.5 164.5Q442 109 412 70Q382 31 339 9Q296 -13 245 -13ZM253 112Q290 112 313.5 157.5Q337 203 337 278Q337 329 321 356Q305 383 274 383Q237 383 214 337.5Q191 292 191 216Q191 165 206.5 138.5Q222 112 253 112Z" glyph-name="odieresis" horiz-adv-x="484" unicode="&#246;" /><glyph d="M160 569 170 688H293L283 569ZM335 569 345 688H469L458 569ZM257 -13Q163 -13 108.5 51.5Q54 116 54 221Q54 290 72.5 347.5Q91 405 124 445.5Q157 486 204.5 508.5Q252 531 309 531Q403 531 457.5 466Q512 401 512 297Q512 227 493.5 169.5Q475 112 442 71.5Q409 31 361.5 9Q314 -13 257 -13ZM272 112Q316 112 342.5 160.5Q369 209 369 290Q369 346 350 376Q331 406 294 406Q250 406 223.5 357Q197 308 197 227Q197 171 216 141.5Q235 112 272 112Z" glyph-name="odieresis.smcp" horiz-adv-x="521" /><glyph d="M567 507Q637 507 677 471.5Q717 436 717 373Q717 307 677 268Q637 229 565 213L469 191Q469 151 492.5 130Q516 109 563 109Q600 109 632 121.5Q664 134 694 153L671 24Q645 6 610 -3.5Q575 -13 540 -13Q491 -13 452.5 3Q414 19 389 50Q361 20 324.5 3.5Q288 -13 245 -13Q155 -13 104 47Q53 107 53 208Q53 274 69.5 329.5Q86 385 116 424Q146 463 188.5 485Q231 507 282 507Q328 507 363.5 491Q399 475 423 444Q451 474 487.5 490.5Q524 507 567 507ZM478 291 539 305Q564 310 577.5 322.5Q591 335 591 358Q591 377 580.5 386.5Q570 396 552 396Q523 396 502.5 368.5Q482 341 478 291ZM253 112Q290 112 313.5 157.5Q337 203 337 278Q337 329 321 356Q305 383 274 383Q237 383 214 337.5Q191 292 191 216Q191 165 206.5 138.5Q222 112 253 112Z" glyph-name="oe" horiz-adv-x="717" unicode="&#339;" /><glyph d="M274 0Q168 0 110.5 56Q53 112 53 216Q53 353 123.5 435.5Q194 518 313 518H713L703 401H481L475 320H675L664 212H465L457 116H684L664 0ZM295 116H324L349 401H323Q262 401 228.5 355Q195 309 195 224Q195 170 220 143Q245 116 295 116Z" glyph-name="oe.smcp" horiz-adv-x="707" /><glyph d="M189 -231Q147 -231 122 -207Q97 -183 97 -141Q97 -101 120.5 -66Q144 -31 184 1L280 2Q250 -23 224.5 -53Q199 -83 199 -108Q199 -124 206.5 -132Q214 -140 227 -140Q238 -140 250 -137.5Q262 -135 273 -129L259 -218Q238 -225 223.5 -228Q209 -231 189 -231Z" glyph-name="ogonek" horiz-adv-x="440" unicode="&#731;" /><glyph d="M182 -231Q142 -231 117 -209.5Q92 -188 92 -148Q92 -110 114 -72Q136 -34 180 1L277 3Q244 -25 220 -53Q196 -81 196 -106Q196 -124 203.5 -131.5Q211 -139 227 -139Q237 -139 246.5 -136.5Q256 -134 267 -129L254 -216Q235 -224 218.5 -227.5Q202 -231 182 -231Z" glyph-name="ogonek.case" horiz-adv-x="440" /><glyph d="M238 565 199 628Q184 651 174.5 674.5Q165 698 161 717L282 720Q286 701 294 681Q302 661 309 647L348 565ZM245 -13Q155 -13 104 47Q53 107 53 208Q53 274 69.5 329.5Q86 385 116 424Q146 463 188.5 485Q231 507 282 507Q373 507 424 447.5Q475 388 475 287Q475 220 458.5 164.5Q442 109 412 70Q382 31 339 9Q296 -13 245 -13ZM253 112Q290 112 313.5 157.5Q337 203 337 278Q337 329 321 356Q305 383 274 383Q237 383 214 337.5Q191 292 191 216Q191 165 206.5 138.5Q222 112 253 112Z" glyph-name="ograve" horiz-adv-x="484" unicode="&#242;" /><glyph d="M253 563 125 680H271L376 563ZM257 -13Q163 -13 108.5 51.5Q54 116 54 221Q54 290 72.5 347.5Q91 405 124 445.5Q157 486 204.5 508.5Q252 531 309 531Q403 531 457.5 466Q512 401 512 297Q512 227 493.5 169.5Q475 112 442 71.5Q409 31 361.5 9Q314 -13 257 -13ZM272 112Q316 112 342.5 160.5Q369 209 369 290Q369 346 350 376Q331 406 294 406Q250 406 223.5 357Q197 308 197 227Q197 171 216 141.5Q235 112 272 112Z" glyph-name="ograve.smcp" horiz-adv-x="521" /><glyph d="M307 566Q310 569 324.5 590.5Q339 612 356 637Q373 662 387 683Q401 704 403 707H515Q513 704 495.5 682.5Q478 661 458 636Q438 611 420.5 590Q403 569 400 566ZM173 566Q175 569 187 590.5Q199 612 213 637Q227 662 239.5 683.5Q252 705 253 707H360Q358 704 344 682.5Q330 661 313.5 636Q297 611 282.5 590Q268 569 265 566ZM245 -13Q155 -13 104 47Q53 107 53 208Q53 274 69.5 329.5Q86 385 116 424Q146 463 188.5 485Q231 507 282 507Q373 507 424 447.5Q475 388 475 287Q475 220 458.5 164.5Q442 109 412 70Q382 31 339 9Q296 -13 245 -13ZM253 112Q290 112 313.5 157.5Q337 203 337 278Q337 329 321 356Q305 383 274 383Q237 383 214 337.5Q191 292 191 216Q191 165 206.5 138.5Q222 112 253 112Z" glyph-name="ohungarumlaut" horiz-adv-x="484" unicode="&#337;" /><glyph d="M328 563 442 680H553L423 563ZM191 563 273 680H390L279 563ZM257 -13Q163 -13 108.5 51.5Q54 116 54 221Q54 290 72.5 347.5Q91 405 124 445.5Q157 486 204.5 508.5Q252 531 309 531Q403 531 457.5 466Q512 401 512 297Q512 227 493.5 169.5Q475 112 442 71.5Q409 31 361.5 9Q314 -13 257 -13ZM272 112Q316 112 342.5 160.5Q369 209 369 290Q369 346 350 376Q331 406 294 406Q250 406 223.5 357Q197 308 197 227Q197 171 216 141.5Q235 112 272 112Z" glyph-name="ohungarumlaut.smcp" horiz-adv-x="521" /><glyph d="M175 590 183 681H414L406 590ZM245 -13Q155 -13 104 47Q53 107 53 208Q53 274 69.5 329.5Q86 385 116 424Q146 463 188.5 485Q231 507 282 507Q373 507 424 447.5Q475 388 475 287Q475 220 458.5 164.5Q442 109 412 70Q382 31 339 9Q296 -13 245 -13ZM253 112Q290 112 313.5 157.5Q337 203 337 278Q337 329 321 356Q305 383 274 383Q237 383 214 337.5Q191 292 191 216Q191 165 206.5 138.5Q222 112 253 112Z" glyph-name="omacron" horiz-adv-x="484" unicode="&#333;" /><glyph d="M192 580 200 670H437L429 580ZM257 -13Q163 -13 108.5 51.5Q54 116 54 221Q54 290 72.5 347.5Q91 405 124 445.5Q157 486 204.5 508.5Q252 531 309 531Q403 531 457.5 466Q512 401 512 297Q512 227 493.5 169.5Q475 112 442 71.5Q409 31 361.5 9Q314 -13 257 -13ZM272 112Q316 112 342.5 160.5Q369 209 369 290Q369 346 350 376Q331 406 294 406Q250 406 223.5 357Q197 308 197 227Q197 171 216 141.5Q235 112 272 112Z" glyph-name="omacron.smcp" horiz-adv-x="521" /><glyph d="M270 0H129L170 471L61 435V566L253 649H327Z" glyph-name="one" horiz-adv-x="349" unicode="1" /><glyph d="M94 -6 117 247 51 228 52 306 157 352H225L193 -6Z" glyph-name="one.dnom" horiz-adv-x="244" /><glyph d="M126 0 155 339 55 300 46 407 245 499H304L261 0Z" glyph-name="one.osf" horiz-adv-x="327" /><glyph d="M142 0 174 360 75 333V453L264 520H325L279 0Z" glyph-name="one.smcp" horiz-adv-x="365" /><glyph d="M126 370 149 623 83 604 84 682 189 728H257L225 370Z" glyph-name="one.sup" horiz-adv-x="243" /><glyph d="M61 0 73 132H183L212 471L103 435V566L296 649H369L324 132H440L420 0Z" glyph-name="one.tf" horiz-adv-x="475" /><glyph d="M77 0 87 111H188L208 339L108 300L100 407L299 499H358L324 111H437L415 0Z" glyph-name="one.tosf" horiz-adv-x="475" /><glyph d="M119 290 142 543 76 524 77 602 182 648H250L218 290ZM97 0 477 646H587L206 0ZM423 0V49Q495 112 523.5 151.5Q552 191 552 230Q552 252 539.5 264.5Q527 277 508 277Q495 277 481 271.5Q467 266 453 256V340Q469 352 493 358Q517 364 541 364Q592 364 624.5 335.5Q657 307 657 256Q657 208 634 167Q611 126 553 83H663L649 0Z" glyph-name="onehalf" horiz-adv-x="713" unicode="&#189;" /><glyph d="M119 290 142 543 76 524 77 602 182 648H250L218 290ZM97 0 477 646H587L206 0ZM505 0 510 64H359V113L499 352L628 360L609 142H645L632 64H602L596 0ZM459 142H517L527 261Z" glyph-name="onequarter" horiz-adv-x="656" unicode="&#188;" /><glyph d="M119 290 142 543 76 524 77 602 182 648H250L218 290Z" glyph-name="onesuperior" horiz-adv-x="243" unicode="&#185;" /><glyph d="M169 289Q120 289 92 329.5Q64 370 64 437Q64 537 112 594.5Q160 652 241 652Q276 652 308.5 646Q341 640 371 629Q365 604 360 572Q355 540 352 509L341 389Q341 379 340.5 372Q340 365 340 359Q340 345 342 330.5Q344 316 348 303L256 293Q254 300 252.5 308.5Q251 317 251 327Q250 334 250 341Q250 348 251 354Q240 326 218.5 307.5Q197 289 169 289ZM196 378Q215 378 232 413Q249 448 256 518L260 562Q253 565 245.5 566Q238 567 229 567Q198 567 182 535Q166 503 166 445Q166 414 173.5 396Q181 378 196 378Z" glyph-name="ordfeminine" horiz-adv-x="356" unicode="&#170;" /><glyph d="M200 287Q137 287 100 328.5Q63 370 63 442Q63 535 109 593.5Q155 652 227 652Q290 652 327 611Q364 570 364 498Q364 405 318 346Q272 287 200 287ZM206 377Q232 377 247.5 408Q263 439 263 491Q263 525 252.5 543.5Q242 562 221 562Q195 562 179.5 531Q164 500 164 448Q164 414 174.5 395.5Q185 377 206 377Z" glyph-name="ordmasculine" horiz-adv-x="344" unicode="&#186;" /><glyph d="M35 -50 98 53Q76 81 64.5 120.5Q53 160 53 208Q53 274 69.5 329.5Q86 385 116 424Q146 463 188.5 485Q231 507 282 507Q306 507 327.5 502.5Q349 498 367 490L401 545H491L428 443Q451 415 463 375.5Q475 336 475 287Q475 220 458.5 164.5Q442 109 412 70Q382 31 339 9Q296 -13 245 -13Q220 -13 198.5 -8.5Q177 -4 158 5L124 -50ZM191 216Q191 216 191 214.5Q191 213 191 204L298 378Q293 380 287 381.5Q281 383 274 383Q237 383 214 337.5Q191 292 191 216ZM253 112Q290 112 313.5 157.5Q337 203 337 278Q337 282 337 286.5Q337 291 337 295L227 118Q233 115 239.5 113.5Q246 112 253 112Z" glyph-name="oslash" horiz-adv-x="484" unicode="&#248;" /><glyph d="M23 -37 96 67Q76 97 65 136Q54 175 54 221Q54 290 72.5 347.5Q91 405 124 445.5Q157 486 204.5 508.5Q252 531 309 531Q336 531 360.5 525Q385 519 405 509L442 561H543L468 454Q489 424 500.5 384Q512 344 512 297Q512 227 493.5 169.5Q475 112 442 71.5Q409 31 361.5 9Q314 -13 257 -13Q229 -13 203.5 -6.5Q178 0 157 11L123 -37ZM197 227Q197 223 197 219.5Q197 216 197 212L328 398Q321 402 312.5 404Q304 406 294 406Q250 406 223.5 357Q197 308 197 227ZM272 112Q316 112 342.5 160.5Q369 209 369 290Q369 296 369 301.5Q369 307 368 312L235 122Q242 117 252 114.5Q262 112 272 112Z" glyph-name="oslash.smcp" horiz-adv-x="521" /><glyph d="M235 565 286 646Q296 662 306.5 681.5Q317 701 322 720L443 717Q436 694 422 671Q408 648 393 627L346 565ZM35 -50 98 53Q76 81 64.5 120.5Q53 160 53 208Q53 274 69.5 329.5Q86 385 116 424Q146 463 188.5 485Q231 507 282 507Q306 507 327.5 502.5Q349 498 367 490L401 545H491L428 443Q451 415 463 375.5Q475 336 475 287Q475 220 458.5 164.5Q442 109 412 70Q382 31 339 9Q296 -13 245 -13Q220 -13 198.5 -8.5Q177 -4 158 5L124 -50ZM191 216Q191 216 191 214.5Q191 213 191 204L298 378Q293 380 287 381.5Q281 383 274 383Q237 383 214 337.5Q191 292 191 216ZM253 112Q290 112 313.5 157.5Q337 203 337 278Q337 282 337 286.5Q337 291 337 295L227 118Q233 115 239.5 113.5Q246 112 253 112Z" glyph-name="oslashacute" horiz-adv-x="484" unicode="&#511;" /><glyph d="M239 563 363 680H509L362 563ZM23 -37 96 67Q76 97 65 136Q54 175 54 221Q54 290 72.5 347.5Q91 405 124 445.5Q157 486 204.5 508.5Q252 531 309 531Q336 531 360.5 525Q385 519 405 509L442 561H543L468 454Q489 424 500.5 384Q512 344 512 297Q512 227 493.5 169.5Q475 112 442 71.5Q409 31 361.5 9Q314 -13 257 -13Q229 -13 203.5 -6.5Q178 0 157 11L123 -37ZM197 227Q197 223 197 219.5Q197 216 197 212L328 398Q321 402 312.5 404Q304 406 294 406Q250 406 223.5 357Q197 308 197 227ZM272 112Q316 112 342.5 160.5Q369 209 369 290Q369 296 369 301.5Q369 307 368 312L235 122Q242 117 252 114.5Q262 112 272 112Z" glyph-name="oslashacute.smcp" horiz-adv-x="521" /><glyph d="M159 573Q164 641 182 671.5Q200 702 240 702Q265 702 284 689Q303 676 318 676Q330 676 335 686.5Q340 697 342 715L431 709Q425 646 404 612Q383 578 341 578Q316 578 297 591.5Q278 605 267 605Q259 605 253.5 597.5Q248 590 247 573ZM245 -13Q155 -13 104 47Q53 107 53 208Q53 274 69.5 329.5Q86 385 116 424Q146 463 188.5 485Q231 507 282 507Q373 507 424 447.5Q475 388 475 287Q475 220 458.5 164.5Q442 109 412 70Q382 31 339 9Q296 -13 245 -13ZM253 112Q290 112 313.5 157.5Q337 203 337 278Q337 329 321 356Q305 383 274 383Q237 383 214 337.5Q191 292 191 216Q191 165 206.5 138.5Q222 112 253 112Z" glyph-name="otilde" horiz-adv-x="484" unicode="&#245;" /><glyph d="M160 564Q162 633 187 663.5Q212 694 252 694Q268 694 281 688.5Q294 683 305 676.5Q316 670 327 664.5Q338 659 350 659Q362 659 369 673Q376 687 377 704L458 699Q456 636 430.5 602.5Q405 569 357 569Q340 569 327 574Q314 579 303.5 585.5Q293 592 283.5 597Q274 602 264 602Q253 602 246.5 592.5Q240 583 239 564ZM257 -13Q163 -13 108.5 51.5Q54 116 54 221Q54 290 72.5 347.5Q91 405 124 445.5Q157 486 204.5 508.5Q252 531 309 531Q403 531 457.5 466Q512 401 512 297Q512 227 493.5 169.5Q475 112 442 71.5Q409 31 361.5 9Q314 -13 257 -13ZM272 112Q316 112 342.5 160.5Q369 209 369 290Q369 346 350 376Q331 406 294 406Q250 406 223.5 357Q197 308 197 227Q197 171 216 141.5Q235 112 272 112Z" glyph-name="otilde.smcp" horiz-adv-x="521" /><glyph d="M39 -220 87 329Q91 376 93 414.5Q95 453 95 492L221 498Q221 475 219.5 447.5Q218 420 216 399Q235 450 271 478.5Q307 507 346 507Q413 507 451 451.5Q489 396 489 297Q489 156 427.5 72.5Q366 -11 255 -11Q241 -11 225 -8.5Q209 -6 194 -2L176 -220ZM250 106Q297 106 324 154Q351 202 351 286Q351 334 336.5 358.5Q322 383 300 383Q284 383 269 365.5Q254 348 242 318Q230 288 221 246Q212 204 207 155L203 118Q211 113 223 109.5Q235 106 250 106Z" glyph-name="p" horiz-adv-x="500" unicode="p" /><glyph d="M58 0 103 518H240Q293 518 337 506.5Q381 495 412.5 472.5Q444 450 462 416.5Q480 383 480 339Q480 255 424 208Q368 161 262 161H209L195 0ZM219 276H247Q292 276 315 290.5Q338 305 338 342Q338 373 314 388Q290 403 250 403H230Z" glyph-name="p.smcp" horiz-adv-x="474" /><glyph d="M178 -234 180 -120Q229 -106 245.5 -79Q262 -52 268 8L274 84H248Q164 84 114.5 137.5Q65 191 65 283Q65 406 134 479.5Q203 553 326 553H599L553 0H447L483 452H428L391 -9Q383 -111 332.5 -166Q282 -221 178 -234Z" glyph-name="paragraph" horiz-adv-x="574" unicode="&#182;" /><glyph d="M322 -273Q206 -207 140 -88Q74 31 74 188Q74 287 95 377Q116 467 158.5 542.5Q201 618 265 679Q329 740 414 782L422 647Q328 576 270 459.5Q212 343 212 197Q212 89 250.5 5Q289 -79 353 -138Z" glyph-name="parenleft" horiz-adv-x="359" unicode="(" /><glyph d="M331 -151Q212 -112 154.5 -8.5Q97 95 97 246Q97 336 113 423.5Q129 511 166 584Q203 657 263 713Q323 769 411 797V666Q322 615 282.5 505Q243 395 243 238Q243 140 269 78.5Q295 17 352 -20Z" glyph-name="parenleft.case" horiz-adv-x="358" /><glyph d="M301 -136Q197 -105 144.5 -20Q92 65 92 197Q92 279 109 353Q126 427 160 487.5Q194 548 246 593Q298 638 367 662L379 532Q307 485 268.5 404.5Q230 324 230 203Q230 134 252.5 76Q275 18 326 -15Z" glyph-name="parenleft.smcp" horiz-adv-x="353" /><glyph d="M81 783Q197 717 263 598Q329 479 329 322Q329 223 308 133Q287 43 244.5 -32.5Q202 -108 138 -169Q74 -230 -11 -272L-19 -137Q75 -66 133 50.5Q191 167 191 313Q191 421 152.5 505Q114 589 50 648Z" glyph-name="parenright" horiz-adv-x="358" unicode=")" /><glyph d="M74 797Q193 758 250.5 654.5Q308 551 308 400Q308 310 292 222.5Q276 135 239 62Q202 -11 142 -67Q82 -123 -6 -151V-20Q83 31 122.5 141Q162 251 162 408Q162 506 136 567.5Q110 629 53 666Z" glyph-name="parenright.case" horiz-adv-x="349" /><glyph d="M97 652Q201 621 253.5 536Q306 451 306 319Q306 237 289 163Q272 89 238 28.5Q204 -32 152 -77Q100 -122 31 -146L19 -16Q91 31 129.5 111.5Q168 192 168 313Q168 382 145.5 440Q123 498 72 531Z" glyph-name="parenright.smcp" horiz-adv-x="352" /><glyph d="M220 -13Q139 -13 91 47Q43 107 50 203Q56 299 106.5 358.5Q157 418 235 418Q260 418 282.5 412Q305 406 324 393Q306 461 253.5 498Q201 535 119 539L138 657Q214 656 275 630Q336 604 377 558Q418 512 438 448Q458 384 453 306Q443 155 378 71Q313 -13 220 -13ZM230 108Q273 108 299.5 154Q326 200 332 281Q316 294 297.5 301Q279 308 263 308Q222 308 195 279.5Q168 251 165 198Q164 156 181.5 132Q199 108 230 108Z" glyph-name="partialdiff" horiz-adv-x="458" unicode="&#8706;" /><glyph d="M188 283Q128 283 96.5 322Q65 361 65 436Q65 540 110 596.5Q155 653 218 653Q278 653 309.5 614Q341 575 341 500Q341 396 296 339.5Q251 283 188 283ZM157 0 537 646H647L266 0ZM196 370Q216 370 228.5 406Q241 442 241 499Q241 533 234 549.5Q227 566 211 566Q190 566 177.5 530Q165 494 165 437Q165 403 172 386.5Q179 370 196 370ZM587 -7Q527 -7 495.5 32Q464 71 464 146Q464 250 509 306.5Q554 363 617 363Q677 363 708.5 324Q740 285 740 210Q740 106 695 49.5Q650 -7 587 -7ZM595 80Q615 80 627.5 116Q640 152 640 209Q640 243 633 259.5Q626 276 610 276Q589 276 576.5 240Q564 204 564 147Q564 113 571 96.5Q578 80 595 80Z" glyph-name="percent" horiz-adv-x="748" unicode="%" /><glyph d="M169 226Q117 226 87 257.5Q57 289 57 349Q57 432 95.5 477.5Q134 523 189 523Q240 523 270.5 491.5Q301 460 301 400Q301 317 262.5 271.5Q224 226 169 226ZM235 0H137L472 517H569ZM172 304Q190 304 201 329Q212 354 212 400Q212 421 206 433Q200 445 185 445Q167 445 156.5 420Q146 395 146 349Q146 327 151.5 315.5Q157 304 172 304ZM518 -6Q465 -6 435.5 25.5Q406 57 406 117Q406 200 444 245.5Q482 291 537 291Q589 291 619 259.5Q649 228 649 168Q649 85 611 39.5Q573 -6 518 -6ZM521 72Q539 72 550 97Q561 122 561 168Q561 189 555 201Q549 213 535 213Q516 213 505 188Q494 163 494 117Q494 95 500 83.5Q506 72 521 72Z" glyph-name="percent.smcp" horiz-adv-x="661" /><glyph d="M58 0 69 142H209L197 0Z" glyph-name="period" horiz-adv-x="254" unicode="." /><glyph d="M53 248 64 380H188L176 248Z" glyph-name="periodcentered" horiz-adv-x="186" unicode="&#183;" /><glyph d="M70 290 81 423H211L200 290Z" glyph-name="periodcentered.case" horiz-adv-x="219" /><glyph d="M188 283Q128 283 96.5 322Q65 361 65 436Q65 540 110 596.5Q155 653 218 653Q278 653 309.5 614Q341 575 341 500Q341 396 296 339.5Q251 283 188 283ZM157 0 537 646H647L266 0ZM196 370Q216 370 228.5 406Q241 442 241 499Q241 533 234 549.5Q227 566 211 566Q190 566 177.5 530Q165 494 165 437Q165 403 172 386.5Q179 370 196 370ZM905 -7Q845 -7 813.5 32Q782 71 782 146Q782 250 827 306.5Q872 363 935 363Q995 363 1026.5 324Q1058 285 1058 210Q1058 106 1013 49.5Q968 -7 905 -7ZM587 -7Q527 -7 495.5 32Q464 71 464 146Q464 250 509 306.5Q554 363 617 363Q677 363 708.5 324Q740 285 740 210Q740 106 695 49.5Q650 -7 587 -7ZM913 80Q933 80 945.5 116Q958 152 958 209Q958 243 951 259.5Q944 276 928 276Q907 276 894.5 240Q882 204 882 147Q882 113 889 96.5Q896 80 913 80ZM595 80Q615 80 627.5 116Q640 152 640 209Q640 243 633 259.5Q626 276 610 276Q589 276 576.5 240Q564 204 564 147Q564 113 571 96.5Q578 80 595 80Z" glyph-name="perthousand" horiz-adv-x="1066" unicode="&#8240;" /><glyph d="M169 226Q117 226 87 257.5Q57 289 57 349Q57 432 95.5 477.5Q134 523 189 523Q240 523 270.5 491.5Q301 460 301 400Q301 317 262.5 271.5Q224 226 169 226ZM235 0H137L472 517H569ZM172 304Q190 304 201 329Q212 354 212 400Q212 421 206 433Q200 445 185 445Q167 445 156.5 420Q146 395 146 349Q146 327 151.5 315.5Q157 304 172 304ZM518 -6Q465 -6 435.5 25.5Q406 57 406 117Q406 200 444 245.5Q482 291 537 291Q589 291 619 259.5Q649 228 649 168Q649 85 611 39.5Q573 -6 518 -6ZM797 -6Q744 -6 714.5 25.5Q685 57 685 117Q685 200 723 245.5Q761 291 816 291Q868 291 898 259.5Q928 228 928 168Q928 85 890 39.5Q852 -6 797 -6ZM521 72Q539 72 550 97Q561 122 561 168Q561 189 555 201Q549 213 535 213Q516 213 505 188Q494 163 494 117Q494 95 500 83.5Q506 72 521 72ZM799 72Q818 72 829 97Q840 122 840 168Q840 189 834 201Q828 213 813 213Q795 213 784 188Q773 163 773 117Q773 95 778.5 83.5Q784 72 799 72Z" glyph-name="perthousand.smcp" horiz-adv-x="940" /><glyph d="M57 0 99 495H501L458 0H321L354 372H225L193 0Z" glyph-name="pi" horiz-adv-x="514" unicode="&#960;" /><glyph d="M194 98 210 288H72L81 390H219L234 564H339L324 390H462L452 288H316L298 98Z" glyph-name="plus" horiz-adv-x="475" unicode="+" /><glyph d="M202 180 218 370H80L89 472H227L242 646H347L332 472H470L460 370H324L306 180ZM47 0 56 102H431L421 0Z" glyph-name="plusminus" horiz-adv-x="475" unicode="&#177;" /><glyph d="M65 0 122 646H585L528 0H387L432 524H253L208 0Z" glyph-name="product" horiz-adv-x="593" unicode="&#8719;" /><glyph d="M282 -220 308 64Q286 24 258 5.5Q230 -13 192 -13Q130 -13 92.5 44Q55 101 55 193Q55 341 119.5 424Q184 507 299 507Q350 507 399.5 497Q449 487 490 468Q481 432 474.5 389.5Q468 347 465 311L419 -220ZM243 109Q271 109 298.5 172Q326 235 336 354L338 379Q329 384 316 386.5Q303 389 291 389Q246 389 220.5 344Q195 299 195 208Q195 162 208 135.5Q221 109 243 109Z" glyph-name="q" horiz-adv-x="496" unicode="q" /><glyph d="M456 -123Q390 -113 348.5 -95.5Q307 -78 274 -47Q255 -29 240 -19.5Q225 -10 200 -5Q132 8 93 68Q54 128 54 213Q54 284 72 343Q90 402 123 443.5Q156 485 203.5 508Q251 531 309 531Q405 531 458.5 469.5Q512 408 512 305Q512 198 472 120Q432 42 363 12Q373 7 385 0Q397 -7 407 -12Q423 -19 438 -24Q453 -29 474 -33ZM271 112Q317 112 343 160Q369 208 369 290Q369 345 350 375.5Q331 406 294 406Q249 406 223 357.5Q197 309 197 227Q197 172 216 142Q235 112 271 112Z" glyph-name="q.smcp" horiz-adv-x="520" /><glyph d="M135 206 137 348Q195 374 231.5 401.5Q268 429 268 473Q268 507 249.5 525Q231 543 184 543Q160 543 138.5 536Q117 529 95 516L116 632Q144 645 171.5 651.5Q199 658 234 658Q319 658 364.5 615Q410 572 410 491Q410 426 371.5 376Q333 326 261 298L246 206ZM107 -1 119 132H261L248 -1Z" glyph-name="question" horiz-adv-x="418" unicode="?" /><glyph d="M123 168 124 283Q178 302 203.5 323Q229 344 229 372Q229 397 214 407.5Q199 418 170 418Q149 418 127.5 412Q106 406 87 395L107 510Q132 521 159 526Q186 531 217 531Q289 531 331.5 494.5Q374 458 374 392Q374 340 341 301Q308 262 244 237L230 168ZM97 0 107 109H239L230 0Z" glyph-name="question.smcp" horiz-adv-x="387" /><glyph d="M354 495 342 362H200L213 495ZM326 288 324 146Q266 120 229.5 92.5Q193 65 193 21Q193 -13 211.5 -31Q230 -49 277 -49Q301 -49 322.5 -42Q344 -35 366 -22L345 -138Q317 -151 289.5 -157.5Q262 -164 227 -164Q142 -164 96.5 -121Q51 -78 51 3Q51 68 89.5 118Q128 168 200 196L215 288Z" glyph-name="questiondown" horiz-adv-x="418" unicode="&#191;" /><glyph d="M368 646 356 513H214L227 646ZM340 439 338 297Q280 271 243.5 243.5Q207 216 207 172Q207 138 225.5 120Q244 102 291 102Q315 102 336.5 109Q358 116 380 129L359 13Q331 0 303.5 -6.5Q276 -13 241 -13Q156 -13 110.5 30Q65 73 65 154Q65 219 103.5 269Q142 319 214 347L229 439Z" glyph-name="questiondown.case" horiz-adv-x="418" /><glyph d="M336 518 326 409H194L203 518ZM310 350 309 235Q255 216 229.5 195Q204 174 204 146Q204 121 219 110.5Q234 100 263 100Q284 100 305.5 106Q327 112 346 123L326 8Q301 -3 274 -8Q247 -13 216 -13Q144 -13 101.5 23.5Q59 60 59 126Q59 178 92 217Q125 256 189 281L203 350Z" glyph-name="questiondown.smcp" horiz-adv-x="387" /><glyph d="M75 398 87 646H195L166 398ZM234 398 246 646H354L325 398Z" glyph-name="quotedbl" horiz-adv-x="328" unicode="&quot;" /><glyph d="M106 -147 -3 -134Q10 -106 19.5 -83.5Q29 -61 35 -38Q41 -15 45 12Q49 39 51 76L54 110H172L168 61Q164 -2 149 -52Q134 -102 106 -147ZM286 -147 177 -134Q190 -106 199.5 -83.5Q209 -61 215 -38Q221 -15 225 12Q229 39 231 76L234 110H352L348 61Q344 -2 329 -52Q314 -102 286 -147Z" glyph-name="quotedblbase" horiz-adv-x="378" unicode="&#8222;" /><glyph d="M140 706 249 693Q236 665 226.5 642.5Q217 620 211 597Q205 574 201 547Q197 520 195 483L192 449H74L78 498Q82 561 97 611Q112 661 140 706ZM319 706 428 693Q415 665 405.5 642.5Q396 620 390 597Q384 574 380 547Q376 520 374 483L371 449H253L257 498Q261 561 276 611Q291 661 319 706Z" glyph-name="quotedblleft" horiz-adv-x="376" unicode="&#8220;" /><glyph d="M129 576 238 563Q225 535 215.5 512.5Q206 490 200 467Q194 444 190 417Q186 390 184 353L181 319H63L67 368Q71 431 86 481Q101 531 129 576ZM308 576 417 563Q404 535 394.5 512.5Q385 490 379 467Q373 444 369 417Q365 390 363 353L360 319H242L246 368Q250 431 265 481Q280 531 308 576Z" glyph-name="quotedblleft.smcp" horiz-adv-x="377" /><glyph d="M157 435 48 448Q61 476 70.5 498.5Q80 521 86 544Q92 567 96 594Q100 621 102 658L105 692H223L219 643Q215 580 200 530Q185 480 157 435ZM336 435 227 448Q240 476 249.5 498.5Q259 521 265 544Q271 567 275 594Q279 621 281 658L284 692H402L398 643Q394 580 379 530Q364 480 336 435Z" glyph-name="quotedblright" horiz-adv-x="376" unicode="&#8221;" /><glyph d="M146 305 37 318Q50 346 59.5 368.5Q69 391 75 414Q81 437 85 464Q89 491 91 528L94 562H212L208 513Q204 450 189 400Q174 350 146 305ZM325 305 216 318Q229 346 238.5 368.5Q248 391 254 414Q260 437 264 464Q268 491 270 528L273 562H391L387 513Q383 450 368 400Q353 350 325 305Z" glyph-name="quotedblright.smcp" horiz-adv-x="377" /><glyph d="M140 706 249 693Q236 665 226.5 642.5Q217 620 211 597Q205 574 201 547Q197 520 195 483L192 449H74L78 498Q82 561 97 611Q112 661 140 706Z" glyph-name="quoteleft" horiz-adv-x="197" unicode="&#8216;" /><glyph d="M129 576 238 563Q225 535 215.5 512.5Q206 490 200 467Q194 444 190 417Q186 390 184 353L181 319H63L67 368Q71 431 86 481Q101 531 129 576Z" glyph-name="quoteleft.smcp" horiz-adv-x="197" /><glyph d="M157 435 48 448Q61 476 70.5 498.5Q80 521 86 544Q92 567 96 594Q100 621 102 658L105 692H223L219 643Q215 580 200 530Q185 480 157 435Z" glyph-name="quoteright" horiz-adv-x="197" unicode="&#8217;" /><glyph d="M146 305 37 318Q50 346 59.5 368.5Q69 391 75 414Q81 437 85 464Q89 491 91 528L94 562H212L208 513Q204 450 189 400Q174 350 146 305Z" glyph-name="quoteright.smcp" horiz-adv-x="198" /><glyph d="M106 -147 -3 -134Q10 -106 19.5 -83.5Q29 -61 35 -38Q41 -15 45 12Q49 39 51 76L54 110H172L168 61Q164 -2 149 -52Q134 -102 106 -147Z" glyph-name="quotesinglbase" horiz-adv-x="197" unicode="&#8218;" /><glyph d="M75 398 87 646H195L166 398Z" glyph-name="quotesingle" horiz-adv-x="169" unicode="'" /><glyph d="M58 0 87 330Q91 378 92.5 417Q94 456 94 492L221 498Q221 486 220.5 466.5Q220 447 219 429Q218 419 217 407.5Q216 396 215 386Q235 446 276.5 475.5Q318 505 372 506V383H355Q291 383 253.5 328Q216 273 204 137L193 0Z" glyph-name="r" horiz-adv-x="351" unicode="r" /><glyph d="M57 0 102 518H229Q351 518 410.5 477Q470 436 470 354Q470 300 440.5 266Q411 232 362 221Q374 211 383.5 192Q393 173 401 150L454 0H320L273 136Q263 165 251.5 175Q240 185 220 185H205L188 0ZM214 291H246Q290 291 310.5 304.5Q331 318 331 349Q331 378 308.5 391.5Q286 405 240 405H224Z" glyph-name="r.smcp" horiz-adv-x="477" /><glyph d="M189 565 240 646Q250 662 260.5 681.5Q271 701 276 720L397 717Q390 694 376 671Q362 648 347 627L300 565ZM58 0 87 330Q91 378 92.5 417Q94 456 94 492L221 498Q221 486 220.5 466.5Q220 447 219 429Q218 419 217 407.5Q216 396 215 386Q235 446 276.5 475.5Q318 505 372 506V383H355Q291 383 253.5 328Q216 273 204 137L193 0Z" glyph-name="racute" horiz-adv-x="350" unicode="&#341;" /><glyph d="M225 563 349 680H495L348 563ZM57 0 102 518H229Q351 518 410.5 477Q470 436 470 354Q470 300 440.5 266Q411 232 362 221Q374 211 383.5 192Q393 173 401 150L454 0H320L273 136Q263 165 251.5 175Q240 185 220 185H205L188 0ZM214 291H246Q290 291 310.5 304.5Q331 318 331 349Q331 378 308.5 391.5Q286 405 240 405H224Z" glyph-name="racute.smcp" horiz-adv-x="477" /><glyph d="M195 -1 120 395H46L55 495H239L289 184L482 750H615L352 -1Z" glyph-name="radical" horiz-adv-x="528" unicode="&#8730;" /><glyph d="M203 557 129 707H218L255 636L303 707H400L299 562ZM58 0 87 330Q91 378 92.5 417Q94 456 94 492L221 498Q221 486 220.5 466.5Q220 447 219 429Q218 419 217 407.5Q216 396 215 386Q235 446 276.5 475.5Q318 505 372 506V383H355Q291 383 253.5 328Q216 273 204 137L193 0Z" glyph-name="rcaron" horiz-adv-x="350" unicode="&#345;" /><glyph d="M238 559 162 689H268L300 631L340 689H447L347 559ZM57 0 102 518H229Q351 518 410.5 477Q470 436 470 354Q470 300 440.5 266Q411 232 362 221Q374 211 383.5 192Q393 173 401 150L454 0H320L273 136Q263 165 251.5 175Q240 185 220 185H205L188 0ZM214 291H246Q290 291 310.5 304.5Q331 318 331 349Q331 378 308.5 391.5Q286 405 240 405H224Z" glyph-name="rcaron.smcp" horiz-adv-x="477" /><glyph d="M58 0 87 330Q91 378 92.5 417Q94 456 94 492L221 498Q221 486 220.5 466.5Q220 447 219 429Q218 419 217 407.5Q216 396 215 386Q235 446 276.5 475.5Q318 505 372 506V383H355Q291 383 253.5 328Q216 273 204 137L193 0ZM117 -258 18 -248Q41 -203 51 -166.5Q61 -130 65 -70L66 -56H172L168 -92Q164 -146 152.5 -183.5Q141 -221 117 -258Z" glyph-name="rcommaaccent" horiz-adv-x="351" unicode="&#343;" /><glyph d="M57 0 102 518H229Q351 518 410.5 477Q470 436 470 354Q470 300 440.5 266Q411 232 362 221Q374 211 383.5 192Q393 173 401 150L454 0H320L273 136Q263 165 251.5 175Q240 185 220 185H205L188 0ZM214 291H246Q290 291 310.5 304.5Q331 318 331 349Q331 378 308.5 391.5Q286 405 240 405H224ZM245 -258 139 -248Q161 -203 171 -166.5Q181 -130 185 -71L186 -56H299L296 -92Q292 -142 281 -181.5Q270 -221 245 -258Z" glyph-name="rcommaaccent.smcp" horiz-adv-x="477" /><glyph d="M365 -68Q295 -68 238.5 -44Q182 -20 142 24.5Q102 69 80.5 131.5Q59 194 59 270Q59 368 84 449.5Q109 531 155.5 589Q202 647 269 679.5Q336 712 419 712Q489 712 546 688Q603 664 642.5 620Q682 576 704 513.5Q726 451 726 375Q726 277 701 195Q676 113 629.5 55Q583 -3 515.5 -35.5Q448 -68 365 -68ZM368 47Q486 47 546 132Q606 217 606 367Q606 480 556.5 539Q507 598 416 598Q298 598 238.5 513Q179 428 179 278Q179 165 228.5 106Q278 47 368 47ZM252 144 284 506H375Q458 506 499.5 477Q541 448 541 391Q541 357 521 331.5Q501 306 467 298Q474 292 480.5 279.5Q487 267 493 250L529 144H433L402 240Q395 259 389 265.5Q383 272 370 272H357L347 144ZM364 347H387Q415 347 428 356.5Q441 366 441 387Q441 406 426 415.5Q411 425 383 425H371Z" glyph-name="registered" horiz-adv-x="728" unicode="&#174;" /><glyph d="M266 538Q218 538 192 563Q166 588 166 634Q166 694 198 729.5Q230 765 287 765Q335 765 361 740Q387 715 387 669Q387 609 355 573.5Q323 538 266 538ZM273 604Q289 604 299.5 620Q310 636 310 661Q310 678 302 688.5Q294 699 280 699Q264 699 253.5 683Q243 667 243 642Q243 625 251 614.5Q259 604 273 604Z" glyph-name="ring" horiz-adv-x="440" unicode="&#730;" /><glyph d="M279 677Q230 677 203.5 701.5Q177 726 177 771Q177 820 208.5 855Q240 890 298 890Q347 890 373.5 865.5Q400 841 400 796Q400 747 368.5 712Q337 677 279 677ZM286 743Q301 743 311.5 756.5Q322 770 322 789Q322 805 314 814.5Q306 824 292 824Q276 824 266 811Q256 798 256 779Q256 763 264 753Q272 743 286 743Z" glyph-name="ring.case" horiz-adv-x="440" /><glyph d="M178 -13Q138 -13 101.5 -5.5Q65 2 33 18V142Q72 123 108 113.5Q144 104 182 104Q213 104 226.5 113Q240 122 240 140Q240 155 228.5 166.5Q217 178 194 190L168 203Q114 230 88 265.5Q62 301 62 355Q62 424 111.5 465.5Q161 507 242 507Q281 507 321.5 498Q362 489 389 476L363 359Q331 375 301 383Q271 391 240 391Q218 391 207 382Q196 373 196 357Q196 341 209 328.5Q222 316 249 303L271 292Q325 264 349.5 230Q374 196 374 147Q374 66 321.5 26.5Q269 -13 178 -13Z" glyph-name="s" horiz-adv-x="389" unicode="s" /><glyph d="M201 -13Q158 -13 114.5 -3.5Q71 6 42 22V148Q84 127 123.5 115Q163 103 207 103Q241 103 257 113Q273 123 273 144Q273 162 262 172.5Q251 183 226 195L189 212Q125 242 96.5 278.5Q68 315 68 369Q68 438 119 484.5Q170 531 266 531Q314 531 357 521.5Q400 512 433 495L409 375Q377 391 340.5 402Q304 413 267 413Q236 413 223.5 404Q211 395 211 377Q211 362 222 350.5Q233 339 263 325L302 308Q361 281 388 245Q415 209 415 154Q415 70 357.5 28.5Q300 -13 201 -13Z" glyph-name="s.smcp" horiz-adv-x="435" /><glyph d="M192 565 243 646Q253 662 263.5 681.5Q274 701 279 720L400 717Q393 694 379 671Q365 648 350 627L303 565ZM178 -13Q138 -13 101.5 -5.5Q65 2 33 18V142Q72 123 108 113.5Q144 104 182 104Q213 104 226.5 113Q240 122 240 140Q240 155 228.5 166.5Q217 178 194 190L168 203Q114 230 88 265.5Q62 301 62 355Q62 424 111.5 465.5Q161 507 242 507Q281 507 321.5 498Q362 489 389 476L363 359Q331 375 301 383Q271 391 240 391Q218 391 207 382Q196 373 196 357Q196 341 209 328.5Q222 316 249 303L271 292Q325 264 349.5 230Q374 196 374 147Q374 66 321.5 26.5Q269 -13 178 -13Z" glyph-name="sacute" horiz-adv-x="389" unicode="&#347;" /><glyph d="M199 563 323 680H469L322 563ZM201 -13Q158 -13 114.5 -3.5Q71 6 42 22V148Q84 127 123.5 115Q163 103 207 103Q241 103 257 113Q273 123 273 144Q273 162 262 172.5Q251 183 226 195L189 212Q125 242 96.5 278.5Q68 315 68 369Q68 438 119 484.5Q170 531 266 531Q314 531 357 521.5Q400 512 433 495L409 375Q377 391 340.5 402Q304 413 267 413Q236 413 223.5 404Q211 395 211 377Q211 362 222 350.5Q233 339 263 325L302 308Q361 281 388 245Q415 209 415 154Q415 70 357.5 28.5Q300 -13 201 -13Z" glyph-name="sacute.smcp" horiz-adv-x="434" /><glyph d="M206 557 132 707H221L258 636L306 707H403L302 562ZM178 -13Q138 -13 101.5 -5.5Q65 2 33 18V142Q72 123 108 113.5Q144 104 182 104Q213 104 226.5 113Q240 122 240 140Q240 155 228.5 166.5Q217 178 194 190L168 203Q114 230 88 265.5Q62 301 62 355Q62 424 111.5 465.5Q161 507 242 507Q281 507 321.5 498Q362 489 389 476L363 359Q331 375 301 383Q271 391 240 391Q218 391 207 382Q196 373 196 357Q196 341 209 328.5Q222 316 249 303L271 292Q325 264 349.5 230Q374 196 374 147Q374 66 321.5 26.5Q269 -13 178 -13Z" glyph-name="scaron" horiz-adv-x="389" unicode="&#353;" /><glyph d="M212 559 136 689H242L274 631L314 689H421L321 559ZM201 -13Q158 -13 114.5 -3.5Q71 6 42 22V148Q84 127 123.5 115Q163 103 207 103Q241 103 257 113Q273 123 273 144Q273 162 262 172.5Q251 183 226 195L189 212Q125 242 96.5 278.5Q68 315 68 369Q68 438 119 484.5Q170 531 266 531Q314 531 357 521.5Q400 512 433 495L409 375Q377 391 340.5 402Q304 413 267 413Q236 413 223.5 404Q211 395 211 377Q211 362 222 350.5Q233 339 263 325L302 308Q361 281 388 245Q415 209 415 154Q415 70 357.5 28.5Q300 -13 201 -13Z" glyph-name="scaron.smcp" horiz-adv-x="434" /><glyph d="M147 -230Q128 -230 108.5 -227Q89 -224 75 -217V-142Q90 -149 105 -152.5Q120 -156 135 -156Q152 -156 161.5 -149.5Q171 -143 171 -127Q171 -110 154 -99Q137 -88 109 -87L138 -11Q110 -9 83.5 -1.5Q57 6 33 18V142Q72 123 108 113.5Q144 104 182 104Q213 104 226.5 114Q240 124 240 142Q240 156 228.5 167Q217 178 194 190L168 203Q114 230 88 265.5Q62 301 62 355Q62 424 111.5 465.5Q161 507 242 507Q281 507 321.5 498Q362 489 389 476L363 359Q331 375 301 383Q271 391 240 391Q218 391 207 382.5Q196 374 196 358Q196 342 209 329Q222 316 249 303L271 292Q325 264 349.5 230Q374 196 374 147Q374 77 334 37Q294 -3 221 -11L204 -44Q235 -53 251 -75Q267 -97 267 -126Q267 -175 234 -202.5Q201 -230 147 -230Z" glyph-name="scedilla" horiz-adv-x="388" unicode="&#351;" /><glyph d="M185 -230Q165 -230 145.5 -227Q126 -224 112 -217V-143Q126 -150 141.5 -153Q157 -156 172 -156Q189 -156 198.5 -149.5Q208 -143 208 -128Q208 -110 191 -99Q174 -88 146 -87L175 -12Q138 -10 102.5 -1Q67 8 42 22V148Q84 127 123.5 115Q163 103 207 103Q241 103 257 113Q273 123 273 144Q273 162 262 172.5Q251 183 226 195L189 212Q125 242 96.5 278.5Q68 315 68 369Q68 438 119 484.5Q170 531 266 531Q314 531 357 521.5Q400 512 433 495L409 375Q377 391 340.5 402Q304 413 267 413Q236 413 223.5 404Q211 395 211 377Q211 362 222 350.5Q233 339 263 325L302 308Q361 281 388 245Q415 209 415 154Q415 83 373 42Q331 1 259 -9L241 -44Q271 -53 287.5 -75.5Q304 -98 304 -126Q304 -175 271.5 -202.5Q239 -230 185 -230Z" glyph-name="scedilla.smcp" horiz-adv-x="434" /><glyph d="M111 561 207 713 318 717 389 561H285L257 631L217 561ZM178 -13Q138 -13 101.5 -5.5Q65 2 33 18V142Q72 123 108 113.5Q144 104 182 104Q213 104 226.5 113Q240 122 240 140Q240 155 228.5 166.5Q217 178 194 190L168 203Q114 230 88 265.5Q62 301 62 355Q62 424 111.5 465.5Q161 507 242 507Q281 507 321.5 498Q362 489 389 476L363 359Q331 375 301 383Q271 391 240 391Q218 391 207 382Q196 373 196 357Q196 341 209 328.5Q222 316 249 303L271 292Q325 264 349.5 230Q374 196 374 147Q374 66 321.5 26.5Q269 -13 178 -13Z" glyph-name="scircumflex" horiz-adv-x="389" unicode="&#349;" /><glyph d="M119 563 225 692 334 693 417 563H309L272 620L225 563ZM201 -13Q158 -13 114.5 -3.5Q71 6 42 22V148Q84 127 123.5 115Q163 103 207 103Q241 103 257 113Q273 123 273 144Q273 162 262 172.5Q251 183 226 195L189 212Q125 242 96.5 278.5Q68 315 68 369Q68 438 119 484.5Q170 531 266 531Q314 531 357 521.5Q400 512 433 495L409 375Q377 391 340.5 402Q304 413 267 413Q236 413 223.5 404Q211 395 211 377Q211 362 222 350.5Q233 339 263 325L302 308Q361 281 388 245Q415 209 415 154Q415 70 357.5 28.5Q300 -13 201 -13Z" glyph-name="scircumflex.smcp" horiz-adv-x="434" /><glyph d="M178 -13Q138 -13 101.5 -5.5Q65 2 33 18V142Q72 123 108 113.5Q144 104 182 104Q213 104 226.5 113Q240 122 240 140Q240 155 228.5 166.5Q217 178 194 190L168 203Q114 230 88 265.5Q62 301 62 355Q62 424 111.5 465.5Q161 507 242 507Q281 507 321.5 498Q362 489 389 476L363 359Q331 375 301 383Q271 391 240 391Q218 391 207 382Q196 373 196 357Q196 341 209 328.5Q222 316 249 303L271 292Q325 264 349.5 230Q374 196 374 147Q374 66 321.5 26.5Q269 -13 178 -13ZM191 -258 92 -248Q115 -203 125 -166.5Q135 -130 139 -70L140 -56H246L242 -92Q238 -146 226.5 -183.5Q215 -221 191 -258Z" glyph-name="scommaaccent" horiz-adv-x="389" unicode="&#537;" /><glyph d="M201 -13Q158 -13 114.5 -3.5Q71 6 42 22V148Q84 127 123.5 115Q163 103 207 103Q241 103 257 113Q273 123 273 144Q273 162 262 172.5Q251 183 226 195L189 212Q125 242 96.5 278.5Q68 315 68 369Q68 438 119 484.5Q170 531 266 531Q314 531 357 521.5Q400 512 433 495L409 375Q377 391 340.5 402Q304 413 267 413Q236 413 223.5 404Q211 395 211 377Q211 362 222 350.5Q233 339 263 325L302 308Q361 281 388 245Q415 209 415 154Q415 70 357.5 28.5Q300 -13 201 -13ZM215 -258 109 -248Q131 -203 141 -166.5Q151 -130 155 -71L156 -56H269L266 -92Q262 -142 251 -181.5Q240 -221 215 -258Z" glyph-name="scommaaccent.smcp" horiz-adv-x="434" /><glyph d="M218 -215Q170 -215 124.5 -204.5Q79 -194 45 -173V-35Q90 -61 137 -75Q184 -89 231 -89Q272 -89 292.5 -74Q313 -59 313 -31Q313 -8 301.5 9Q290 26 265 41L207 75Q129 121 89 190.5Q49 260 49 365Q49 442 70.5 508Q92 574 132 622Q172 670 230 697Q288 724 362 724Q405 724 448.5 713Q492 702 526 684L500 550Q466 569 425 581Q384 593 348 593Q308 593 287.5 579Q267 565 267 540Q267 517 280.5 501.5Q294 486 325 468L384 433Q457 389 495 322.5Q533 256 533 159Q533 85 512.5 17Q492 -51 452.5 -102.5Q413 -154 353.5 -184.5Q294 -215 218 -215ZM389 98Q394 113 397 129.5Q400 146 400 165Q400 208 383.5 240Q367 272 333 295L259 349Q231 367 216.5 384Q202 401 195 420Q190 403 186.5 384.5Q183 366 183 349Q183 306 201 275.5Q219 245 256 220L320 174Q349 155 364 138Q379 121 389 98Z" glyph-name="section" horiz-adv-x="548" unicode="&#167;" /><glyph d="M84 284 95 426H235L223 284ZM132 -172 13 -155Q28 -122 38.5 -95Q49 -68 56 -40.5Q63 -13 68 20Q73 53 76 97L79 137H202L197 77Q192 2 177 -58Q162 -118 132 -172Z" glyph-name="semicolon" horiz-adv-x="254" unicode=";" /><glyph d="M37 0 290 515H69L90 646H467V587L190 0Z" glyph-name="seven" horiz-adv-x="429" unicode="7" /><glyph d="M32 -6 166 264H42L56 350H288V307L135 -6Z" glyph-name="seven.dnom" horiz-adv-x="278" /><glyph d="M31 -190 303 370H55L76 495H475V442L182 -184Z" glyph-name="seven.osf" horiz-adv-x="457" /><glyph d="M49 0 257 392H71L92 518H428V467L191 0Z" glyph-name="seven.smcp" horiz-adv-x="406" /><glyph d="M64 370 198 640H74L88 726H320V683L167 370Z" glyph-name="seven.sup" horiz-adv-x="277" /><glyph d="M53 0 306 515H85L106 646H483V587L206 0Z" glyph-name="seven.tf" horiz-adv-x="475" /><glyph d="M43 -190 315 370H67L88 495H487V442L194 -184Z" glyph-name="seven.tosf" horiz-adv-x="475" /><glyph d="M255 -13Q159 -13 110.5 55Q62 123 62 243Q62 336 90 412Q118 488 169 542Q220 596 293 626.5Q366 657 455 658V538Q375 533 319.5 501.5Q264 470 233 414Q244 417 257.5 419Q271 421 286 421Q368 421 417.5 370Q467 319 467 229Q467 122 407.5 54.5Q348 -13 255 -13ZM263 107Q294 107 314 136.5Q334 166 334 212Q334 261 306 285Q278 309 235 309Q225 309 216.5 308Q208 307 198 304Q195 287 194 269Q193 251 193 231Q193 174 211 140.5Q229 107 263 107Z" glyph-name="six" horiz-adv-x="481" unicode="6" /><glyph d="M160 -13Q105 -13 71.5 25.5Q38 64 38 128Q38 178 54 221Q70 264 101 295Q132 326 178 344Q224 362 283 363V284Q229 283 191 264.5Q153 246 140 209Q150 216 167 221.5Q184 227 201 227Q246 227 271.5 199.5Q297 172 297 126Q297 66 259.5 26.5Q222 -13 160 -13ZM166 63Q185 63 195 77.5Q205 92 205 115Q205 134 194.5 145.5Q184 157 165 157Q156 157 147 154Q138 151 130 146Q129 142 129 137Q129 132 129 126Q129 96 139 79.5Q149 63 166 63Z" glyph-name="six.dnom" horiz-adv-x="311" /><glyph d="M255 -12Q162 -12 109 56.5Q56 125 56 250Q56 345 86.5 425.5Q117 506 172 564.5Q227 623 305 658Q383 693 477 698V583Q391 572 328.5 532Q266 492 232 428Q239 429 247 430Q255 431 265 431Q350 431 406.5 373.5Q463 316 463 227Q463 116 407 52Q351 -12 255 -12ZM262 107Q294 107 312 133.5Q330 160 330 205Q330 254 303.5 282Q277 310 235 315Q225 316 215 316.5Q205 317 194 316Q191 298 189.5 279Q188 260 188 241Q188 179 208 143Q228 107 262 107Z" glyph-name="six.osf" horiz-adv-x="475" /><glyph d="M234 -13Q155 -13 105 42.5Q55 98 55 194Q55 268 79 330.5Q103 393 149 437.5Q195 482 263.5 508Q332 534 419 535V422Q354 418 308.5 400Q263 382 237 347Q253 348 269.5 345.5Q286 343 300 339Q364 328 398 286.5Q432 245 432 179Q432 92 378 39.5Q324 -13 234 -13ZM245 99Q272 99 285.5 119.5Q299 140 299 169Q299 203 279 220Q259 237 229 240Q222 242 213 242.5Q204 243 196 242Q194 230 193 217Q192 204 192 190Q192 151 204.5 125Q217 99 245 99Z" glyph-name="six.smcp" horiz-adv-x="450" /><glyph d="M193 363Q138 363 104.5 401.5Q71 440 71 504Q71 554 87 597Q103 640 134 671Q165 702 211 720Q257 738 316 739V660Q262 659 224 640.5Q186 622 173 585Q183 592 200 597.5Q217 603 234 603Q279 603 304.5 575.5Q330 548 330 502Q330 442 292.5 402.5Q255 363 193 363ZM199 439Q218 439 228 453.5Q238 468 238 491Q238 510 227.5 521.5Q217 533 198 533Q189 533 180 530Q171 527 163 522Q162 518 162 513Q162 508 162 502Q162 472 172 455.5Q182 439 199 439Z" glyph-name="six.sup" horiz-adv-x="312" /><glyph d="M249 -13Q153 -13 104.5 55Q56 123 56 243Q56 336 84 412Q112 488 163 542Q214 596 287 626.5Q360 657 449 658V538Q369 533 313.5 501.5Q258 470 227 414Q238 417 251.5 419Q265 421 280 421Q362 421 411.5 370Q461 319 461 229Q461 122 401.5 54.5Q342 -13 249 -13ZM257 107Q288 107 308 136.5Q328 166 328 212Q328 261 300 285Q272 309 229 309Q219 309 210.5 308Q202 307 192 304Q189 287 188 269Q187 251 187 231Q187 174 205 140.5Q223 107 257 107Z" glyph-name="six.tf" horiz-adv-x="475" /><glyph d="M259 -12Q166 -12 113 56.5Q60 125 60 250Q60 345 90.5 425.5Q121 506 176 564.5Q231 623 309 658Q387 693 481 698V583Q395 572 332.5 532Q270 492 236 428Q243 429 251 430Q259 431 269 431Q354 431 410.5 373.5Q467 316 467 227Q467 116 411 52Q355 -12 259 -12ZM266 107Q298 107 316 133.5Q334 160 334 205Q334 254 307.5 282Q281 310 239 315Q229 316 219 316.5Q209 317 198 316Q195 298 193.5 279Q192 260 192 241Q192 179 212 143Q232 107 266 107Z" glyph-name="six.tosf" horiz-adv-x="475" /><glyph d="M-17 -250 395 750H496L83 -250Z" glyph-name="slash" horiz-adv-x="435" unicode="/" /><glyph d="M365 -68Q295 -68 238.5 -44Q182 -20 142 24.5Q102 69 80.5 131.5Q59 194 59 270Q59 368 84 449.5Q109 531 155.5 589Q202 647 269 679.5Q336 712 419 712Q489 712 546 688Q603 664 642.5 620Q682 576 704 513.5Q726 451 726 375Q726 277 701 195Q676 113 629.5 55Q583 -3 515.5 -35.5Q448 -68 365 -68ZM368 47Q486 47 546 132Q606 217 606 367Q606 480 556.5 539Q507 598 416 598Q298 598 238.5 513Q179 428 179 278Q179 165 228.5 106Q278 47 368 47ZM256 144 287 506H386Q458 506 504 474Q550 442 550 379Q550 320 510.5 287.5Q471 255 402 255H363L353 144ZM370 337H392Q418 337 434 347Q450 357 450 381Q450 403 434.5 413Q419 423 393 423H378Z" glyph-name="soundcopyright" horiz-adv-x="728" unicode="&#8471;" /><glyph glyph-name="space" horiz-adv-x="201" unicode=" " /><glyph d="M37 -5 32 88Q95 112 126 162Q157 212 163 274H83L93 376H161Q159 392 157.5 410Q156 428 156 448Q156 549 215 603.5Q274 658 376 658Q398 658 424 653.5Q450 649 472 642V514Q452 521 430.5 526Q409 531 389 531Q343 531 317.5 509Q292 487 292 430Q292 420 293.5 406Q295 392 296 376H434L424 274H300Q296 220 272.5 176.5Q249 133 200 109Q243 109 278 97.5Q313 86 354 86Q375 86 397 92.5Q419 99 444 118L429 -15Q412 -28 389.5 -36Q367 -44 336 -44Q288 -44 258 -38Q228 -32 199.5 -24.5Q171 -17 134.5 -11Q98 -5 37 -5Z" glyph-name="sterling" horiz-adv-x="475" unicode="&#163;" /><glyph d="M43 -5 37 72Q90 91 116.5 129Q143 167 149 215H82L90 297H147Q146 311 144 326.5Q142 342 142 358Q142 439 193.5 485Q245 531 334 531Q357 531 384 527.5Q411 524 430 518V405Q412 411 391.5 415Q371 419 353 419Q313 419 291.5 404.5Q270 390 270 347Q270 339 271.5 326Q273 313 274 297H399L391 215H277Q273 174 251 141Q229 108 187 89Q222 88 255.5 80.5Q289 73 329 73Q348 73 367 78Q386 83 408 96L395 -12Q379 -22 359 -28.5Q339 -35 312 -35Q230 -35 171 -21.5Q112 -8 43 -5Z" glyph-name="sterling.smcp" horiz-adv-x="442" /><glyph d="M27 0 34 77 208 337 76 567 83 646H492L481 528H237L341 365L335 309L199 118H446L436 0Z" glyph-name="summation" horiz-adv-x="463" unicode="&#8721;" /></font>
</defs>
</svg>
