<?xml version="1.0" standalone="no"?><!DOCTYPE svg PUBLIC "-//W3C//DTD SVG 1.1//EN" "http://www.w3.org/Graphics/SVG/1.1/DTD/svg11.dtd" ><svg version="1.1" xmlns="http://www.w3.org/2000/svg"><defs><font horiz-adv-x="0" id="font"><font-face ascent="750" bbox="-30 -250 990 909" cap-height="646" descent="-250" font-family="Folha Grafico" font-stretch="normal" font-style="normal" font-weight="400" units-per-em="1000" x-height="483" /><missing-glyph d="M0 0V646H500V0ZM60 586V60H440V586Z" horiz-adv-x="500" /><glyph glyph-name=".null" horiz-adv-x="0" /><glyph d="M19 0 272 645 357 649 506 0H424L388 164H161L97 0ZM185 231H375L305 541Z" glyph-name="A" horiz-adv-x="525" unicode="A" /><glyph d="M-12 0 336 646H727L720 573H448L430 373H678L672 303H424L404 73H682L669 0H321L336 164H158L69 0ZM194 235H341L371 563Z" glyph-name="AE" horiz-adv-x="718" unicode="&#198;" /><glyph d="M385 699 495 807H584L458 699ZM-12 0 336 646H727L720 573H448L430 373H678L672 303H424L404 73H682L669 0H321L336 164H158L69 0ZM194 235H341L371 563Z" glyph-name="AEacute" horiz-adv-x="718" unicode="&#508;" /><glyph d="M281 699 391 807H480L354 699ZM19 0 272 645 357 649 506 0H424L388 164H161L97 0ZM185 231H375L305 541Z" glyph-name="Aacute" horiz-adv-x="525" unicode="&#193;" /><glyph d="M314 688Q263 688 236 720.5Q209 753 209 813H265Q268 780 281.5 763Q295 746 319 746Q343 746 360.5 763Q378 780 385 813H441Q433 755 400 721.5Q367 688 314 688ZM19 0 272 645 357 649 506 0H424L388 164H161L97 0ZM185 231H375L305 541Z" glyph-name="Abreve" horiz-adv-x="525" unicode="&#258;" /><glyph d="M195 699 290 816 361 818 435 699H369L322 767L261 699ZM19 0 272 645 357 649 506 0H424L388 164H161L97 0ZM185 231H375L305 541Z" glyph-name="Acircumflex" horiz-adv-x="525" unicode="&#194;" /><glyph d="M208 707 215 790H294L287 707ZM345 707 352 790H431L424 707ZM19 0 272 645 357 649 506 0H424L388 164H161L97 0ZM185 231H375L305 541Z" glyph-name="Adieresis" horiz-adv-x="525" unicode="&#196;" /><glyph d="M275 699 167 807H254L349 699ZM19 0 272 645 357 649 506 0H424L388 164H161L97 0ZM185 231H375L305 541Z" glyph-name="Agrave" horiz-adv-x="525" unicode="&#192;" /><glyph d="M208 719 213 777H431L425 719ZM19 0 272 645 357 649 506 0H424L388 164H161L97 0ZM185 231H375L305 541Z" glyph-name="Amacron" horiz-adv-x="525" unicode="&#256;" /><glyph d="M425 -229Q388 -229 365 -209Q342 -189 342 -150Q342 -113 366 -73Q390 -33 432 0H424L388 164H161L97 0H19L272 645L357 649L505 0H498Q454 -37 431.5 -70Q409 -103 409 -129Q409 -151 417.5 -160Q426 -169 446 -169Q456 -169 467 -166.5Q478 -164 490 -157L482 -216Q467 -224 453.5 -226.5Q440 -229 425 -229ZM185 231H374L305 541Z" glyph-name="Aogonek" horiz-adv-x="525" unicode="&#260;" /><glyph d="M314 684Q277 684 253 705Q229 726 229 766Q229 810 256 841.5Q283 873 330 873Q368 873 391.5 852Q415 831 415 791Q415 747 388 715.5Q361 684 314 684ZM318 731Q337 731 349.5 746Q362 761 362 785Q362 804 352.5 815Q343 826 326 826Q307 826 295 810.5Q283 795 283 772Q283 753 292.5 742Q302 731 318 731ZM19 0 272 645 357 649 506 0H424L388 164H161L97 0ZM185 231H375L305 541Z" glyph-name="Aring" horiz-adv-x="525" unicode="&#197;" /><glyph d="M196 704Q200 756 219.5 779.5Q239 803 272 803Q287 803 298 797.5Q309 792 318.5 786Q328 780 337.5 774.5Q347 769 358 769Q371 769 379 783Q387 797 389 818L441 811Q433 759 413 735Q393 711 356 711Q339 711 328 716Q317 721 308 727Q299 733 291.5 738Q284 743 275 743Q264 743 257 733Q250 723 247 704ZM19 0 272 645 357 649 506 0H424L388 164H161L97 0ZM185 231H375L305 541Z" glyph-name="Atilde" horiz-adv-x="525" unicode="&#195;" /><glyph d="M84 0 140 646H275Q373 646 425 603Q477 560 477 491Q477 434 450.5 393.5Q424 353 369 337Q423 324 453 287Q483 250 483 190Q483 101 419 50.5Q355 0 239 0ZM192 365H267Q329 365 362.5 394.5Q396 424 396 477Q396 527 363 552Q330 577 273 577H210ZM166 69H251Q325 69 363.5 100Q402 131 402 191Q402 245 368 272Q334 299 265 299H186Z" glyph-name="B" horiz-adv-x="517" unicode="B" /><glyph d="M304 -11Q191 -11 135 66Q79 143 79 271Q79 359 99 431Q119 503 155.5 553Q192 603 245 630Q298 657 364 657Q398 657 431.5 648.5Q465 640 493 624L475 549Q451 564 421.5 573Q392 582 361 582Q312 582 274.5 560Q237 538 212 498Q187 458 174 401.5Q161 345 161 277Q161 174 201.5 119Q242 64 317 64Q349 64 378 73.5Q407 83 440 104L425 20Q399 4 367.5 -3.5Q336 -11 304 -11Z" glyph-name="C" horiz-adv-x="470" unicode="C" /><glyph glyph-name="CR" horiz-adv-x="225" unicode="" /><glyph d="M305 699 415 807H504L378 699ZM304 -11Q191 -11 135 66Q79 143 79 271Q79 359 99 431Q119 503 155.5 553Q192 603 245 630Q298 657 364 657Q398 657 431.5 648.5Q465 640 493 624L475 549Q451 564 421.5 573Q392 582 361 582Q312 582 274.5 560Q237 538 212 498Q187 458 174 401.5Q161 345 161 277Q161 174 201.5 119Q242 64 317 64Q349 64 378 73.5Q407 83 440 104L425 20Q399 4 367.5 -3.5Q336 -11 304 -11Z" glyph-name="Cacute" horiz-adv-x="469" unicode="&#262;" /><glyph d="M310 691 236 810H300L349 740L409 810H474L378 692ZM304 -11Q191 -11 135 66Q79 143 79 271Q79 359 99 431Q119 503 155.5 553Q192 603 245 630Q298 657 364 657Q398 657 431.5 648.5Q465 640 493 624L475 549Q451 564 421.5 573Q392 582 361 582Q312 582 274.5 560Q237 538 212 498Q187 458 174 401.5Q161 345 161 277Q161 174 201.5 119Q242 64 317 64Q349 64 378 73.5Q407 83 440 104L425 20Q399 4 367.5 -3.5Q336 -11 304 -11Z" glyph-name="Ccaron" horiz-adv-x="469" unicode="&#268;" /><glyph d="M248 -229Q230 -229 215.5 -225.5Q201 -222 185 -215V-161Q200 -169 213 -173.5Q226 -178 243 -178Q263 -178 274.5 -167.5Q286 -157 286 -138Q286 -119 269.5 -105Q253 -91 222 -88L251 -6Q165 11 122 85Q79 159 79 271Q79 359 99 431Q119 503 155.5 553Q192 603 245 630Q298 657 364 657Q398 657 431.5 648.5Q465 640 493 624L475 549Q451 564 421.5 573Q392 582 361 582Q312 582 274.5 560Q237 538 212 498Q187 458 174 401.5Q161 345 161 277Q161 174 201.5 119Q242 64 317 64Q349 64 378 73.5Q407 83 440 104L425 20Q400 5 368.5 -2.5Q337 -10 305 -11L288 -54Q317 -62 333 -83.5Q349 -105 349 -134Q349 -179 320.5 -204Q292 -229 248 -229Z" glyph-name="Ccedilla" horiz-adv-x="469" unicode="&#199;" /><glyph d="M224 699 319 816 390 818 464 699H398L351 767L290 699ZM304 -11Q191 -11 135 66Q79 143 79 271Q79 359 99 431Q119 503 155.5 553Q192 603 245 630Q298 657 364 657Q398 657 431.5 648.5Q465 640 493 624L475 549Q451 564 421.5 573Q392 582 361 582Q312 582 274.5 560Q237 538 212 498Q187 458 174 401.5Q161 345 161 277Q161 174 201.5 119Q242 64 317 64Q349 64 378 73.5Q407 83 440 104L425 20Q399 4 367.5 -3.5Q336 -11 304 -11Z" glyph-name="Ccircumflex" horiz-adv-x="469" unicode="&#264;" /><glyph d="M305 707 312 790H394L386 707ZM304 -11Q191 -11 135 66Q79 143 79 271Q79 359 99 431Q119 503 155.5 553Q192 603 245 630Q298 657 364 657Q398 657 431.5 648.5Q465 640 493 624L475 549Q451 564 421.5 573Q392 582 361 582Q312 582 274.5 560Q237 538 212 498Q187 458 174 401.5Q161 345 161 277Q161 174 201.5 119Q242 64 317 64Q349 64 378 73.5Q407 83 440 104L425 20Q399 4 367.5 -3.5Q336 -11 304 -11Z" glyph-name="Cdotaccent" horiz-adv-x="469" unicode="&#266;" /><glyph d="M84 0 140 646H202Q274 646 334.5 625Q395 604 437.5 565Q480 526 504 469Q528 412 528 341Q528 178 441.5 89Q355 0 176 0ZM167 73H186Q321 73 384 140.5Q447 208 447 339Q447 393 430 436Q413 479 383 509Q353 539 312 555Q271 571 222 572L210 573Z" glyph-name="D" horiz-adv-x="550" unicode="D" /><glyph d="M299 691 225 810H289L338 740L398 810H463L367 692ZM84 0 140 646H202Q274 646 334.5 625Q395 604 437.5 565Q480 526 504 469Q528 412 528 341Q528 178 441.5 89Q355 0 176 0ZM167 73H186Q321 73 384 140.5Q447 208 447 339Q447 393 430 436Q413 479 383 509Q353 539 312 555Q271 571 222 572L210 573Z" glyph-name="Dcaron" horiz-adv-x="550" unicode="&#270;" /><glyph d="M84 0 110 301H63L67 363H115L140 646H202Q274 646 334.5 625Q395 604 437.5 565Q480 526 504 469Q528 412 528 341Q528 178 441.5 89Q355 0 176 0ZM167 73H186Q321 73 384 140.5Q447 208 447 339Q447 393 430 436Q413 479 383 509Q353 539 312 555Q271 571 222 572L210 573L192 363H305L299 301H187Z" glyph-name="Dcroat" horiz-adv-x="550" unicode="&#272;" /><glyph d="M38 0 295 646 345 649 500 0ZM137 73H412L306 508Z" glyph-name="Delta" horiz-adv-x="537" unicode="&#8710;" /><glyph d="M84 0 140 646H494L487 573H210L192 373H445L439 303H186L167 73H450L437 0Z" glyph-name="E" horiz-adv-x="487" unicode="E" /><glyph d="M287 699 397 807H486L360 699ZM84 0 140 646H494L487 573H210L192 373H445L439 303H186L167 73H450L437 0Z" glyph-name="Eacute" horiz-adv-x="486" unicode="&#201;" /><glyph d="M328 688Q277 688 250 720.5Q223 753 223 813H279Q282 780 295.5 763Q309 746 333 746Q357 746 374.5 763Q392 780 399 813H455Q447 755 414 721.5Q381 688 328 688ZM84 0 140 646H494L487 573H210L192 373H445L439 303H186L167 73H450L437 0Z" glyph-name="Ebreve" horiz-adv-x="486" unicode="&#276;" /><glyph d="M293 691 219 810H283L332 740L392 810H457L361 692ZM84 0 140 646H494L487 573H210L192 373H445L439 303H186L167 73H450L437 0Z" glyph-name="Ecaron" horiz-adv-x="486" unicode="&#282;" /><glyph d="M209 699 304 816 375 818 449 699H383L336 767L275 699ZM84 0 140 646H494L487 573H210L192 373H445L439 303H186L167 73H450L437 0Z" glyph-name="Ecircumflex" horiz-adv-x="486" unicode="&#202;" /><glyph d="M222 707 229 790H308L301 707ZM359 707 366 790H445L438 707ZM84 0 140 646H494L487 573H210L192 373H445L439 303H186L167 73H450L437 0Z" glyph-name="Edieresis" horiz-adv-x="486" unicode="&#203;" /><glyph d="M289 707 296 790H378L370 707ZM84 0 140 646H494L487 573H210L192 373H445L439 303H186L167 73H450L437 0Z" glyph-name="Edotaccent" horiz-adv-x="486" unicode="&#278;" /><glyph d="M297 699 189 807H276L371 699ZM84 0 140 646H494L487 573H210L192 373H445L439 303H186L167 73H450L437 0Z" glyph-name="Egrave" horiz-adv-x="486" unicode="&#200;" /><glyph d="M222 719 227 777H445L439 719ZM84 0 140 646H494L487 573H210L192 373H445L439 303H186L167 73H450L437 0Z" glyph-name="Emacron" horiz-adv-x="486" unicode="&#274;" /><glyph d="M284 -231V-160Q354 -144 383 -106.5Q412 -69 420 10L198 503L154 0H84L140 646H214L438 148L481 646H552L496 1Q486 -110 437 -162.5Q388 -215 284 -231Z" glyph-name="Eng" horiz-adv-x="580" unicode="&#330;" /><glyph d="M345 -229Q308 -229 285 -208Q262 -187 262 -150Q262 -113 286 -73Q310 -33 352 0H84L140 646H494L487 573H210L192 373H445L439 303H186L167 73H450L437 0H418Q375 -37 352 -69Q329 -101 329 -127Q329 -151 337.5 -160Q346 -169 366 -169Q376 -169 387 -166.5Q398 -164 410 -157L402 -216Q383 -224 371.5 -226.5Q360 -229 345 -229Z" glyph-name="Eogonek" horiz-adv-x="486" unicode="&#280;" /><glyph d="M84 0 110 301H63L67 363H115L140 646H202Q274 646 334.5 625Q395 604 437.5 565Q480 526 504 469Q528 412 528 341Q528 178 441.5 89Q355 0 176 0ZM167 73H186Q321 73 384 140.5Q447 208 447 339Q447 393 430 436Q413 479 383 509Q353 539 312 555Q271 571 222 572L210 573L192 363H305L299 301H187Z" glyph-name="Eth" horiz-adv-x="550" unicode="&#208;" /><glyph d="M47 243 57 300H101Q101 317 102.5 334Q104 351 107 367H67L77 423H118Q146 533 215 595Q284 657 385 657Q419 657 452.5 648.5Q486 640 514 624L496 549Q472 564 442.5 573Q413 582 382 582Q313 582 267.5 539.5Q222 497 200 423H460L446 367H188Q186 351 184.5 334.5Q183 318 182 300H429L414 243H183Q190 156 230 110Q270 64 338 64Q370 64 399 73.5Q428 83 461 104L446 20Q420 4 388.5 -3.5Q357 -11 325 -11Q218 -11 162.5 58Q107 127 101 243Z" glyph-name="Euro" horiz-adv-x="475" unicode="&#8364;" /><glyph d="M47 187 55 237H89Q90 251 91.5 264.5Q93 278 95 291H63L73 340H105Q130 424 189.5 475Q249 526 339 526Q369 526 400.5 519.5Q432 513 456 500L439 433Q418 445 391 452.5Q364 460 337 460Q278 460 239 428.5Q200 397 181 340H414L402 291H170Q168 278 167 264.5Q166 251 165 237H387L375 187H167Q174 121 209 88Q244 55 302 55Q330 55 358 62.5Q386 70 415 86L402 15Q379 4 349 -3Q319 -10 291 -10Q201 -10 149 43.5Q97 97 90 187Z" glyph-name="Euro.smcp" horiz-adv-x="459" /><glyph d="M84 0 140 646H490L477 573H211L193 364H436L430 294H187L161 0Z" glyph-name="F" horiz-adv-x="471" unicode="F" /><glyph d="M322 -11Q263 -11 218 9Q173 29 142.5 66Q112 103 96 155.5Q80 208 80 271Q80 361 99.5 432.5Q119 504 157 554Q195 604 251 630.5Q307 657 380 657Q415 657 450.5 649Q486 641 514 628L499 554Q469 568 439 575Q409 582 377 582Q270 582 216 501.5Q162 421 162 277Q162 175 205 119.5Q248 64 331 64Q350 64 370 66.5Q390 69 406 75L421 258H338L343 326H501L475 22Q443 6 404.5 -2.5Q366 -11 322 -11Z" glyph-name="G" horiz-adv-x="546" unicode="G" /><glyph d="M351 688Q300 688 273 720.5Q246 753 246 813H302Q305 780 318.5 763Q332 746 356 746Q380 746 397.5 763Q415 780 422 813H478Q470 755 437 721.5Q404 688 351 688ZM322 -11Q263 -11 218 9Q173 29 142.5 66Q112 103 96 155.5Q80 208 80 271Q80 361 99.5 432.5Q119 504 157 554Q195 604 251 630.5Q307 657 380 657Q415 657 450.5 649Q486 641 514 628L499 554Q469 568 439 575Q409 582 377 582Q270 582 216 501.5Q162 421 162 277Q162 175 205 119.5Q248 64 331 64Q350 64 370 66.5Q390 69 406 75L421 258H338L343 326H501L475 22Q443 6 404.5 -2.5Q366 -11 322 -11Z" glyph-name="Gbreve" horiz-adv-x="546" unicode="&#286;" /><glyph d="M232 699 327 816 398 818 472 699H406L359 767L298 699ZM322 -11Q263 -11 218 9Q173 29 142.5 66Q112 103 96 155.5Q80 208 80 271Q80 361 99.5 432.5Q119 504 157 554Q195 604 251 630.5Q307 657 380 657Q415 657 450.5 649Q486 641 514 628L499 554Q469 568 439 575Q409 582 377 582Q270 582 216 501.5Q162 421 162 277Q162 175 205 119.5Q248 64 331 64Q350 64 370 66.5Q390 69 406 75L421 258H338L343 326H501L475 22Q443 6 404.5 -2.5Q366 -11 322 -11Z" glyph-name="Gcircumflex" horiz-adv-x="546" unicode="&#284;" /><glyph d="M322 -11Q263 -11 218 9Q173 29 142.5 66Q112 103 96 155.5Q80 208 80 271Q80 361 99.5 432.5Q119 504 157 554Q195 604 251 630.5Q307 657 380 657Q415 657 450.5 649Q486 641 514 628L499 554Q469 568 439 575Q409 582 377 582Q270 582 216 501.5Q162 421 162 277Q162 175 205 119.5Q248 64 331 64Q350 64 370 66.5Q390 69 406 75L421 258H338L343 326H501L475 22Q443 6 404.5 -2.5Q366 -11 322 -11ZM278 -235 219 -229Q237 -189 244 -158.5Q251 -128 255 -83L256 -68H324L322 -85Q318 -130 309 -164.5Q300 -199 278 -235Z" glyph-name="Gcommaaccent" horiz-adv-x="546" unicode="&#290;" /><glyph d="M312 707 319 790H401L393 707ZM322 -11Q263 -11 218 9Q173 29 142.5 66Q112 103 96 155.5Q80 208 80 271Q80 361 99.5 432.5Q119 504 157 554Q195 604 251 630.5Q307 657 380 657Q415 657 450.5 649Q486 641 514 628L499 554Q469 568 439 575Q409 582 377 582Q270 582 216 501.5Q162 421 162 277Q162 175 205 119.5Q248 64 331 64Q350 64 370 66.5Q390 69 406 75L421 258H338L343 326H501L475 22Q443 6 404.5 -2.5Q366 -11 322 -11Z" glyph-name="Gdotaccent" horiz-adv-x="546" unicode="&#288;" /><glyph d="M75 0 115 459Q122 548 172.5 597Q223 646 307 646H531V610L363 367Q430 350 472 303.5Q514 257 514 183Q514 96 462.5 42.5Q411 -11 312 -11Q286 -11 261 -6Q236 -1 215 8V80Q234 71 260.5 65.5Q287 60 310 60Q371 60 402 91Q433 122 433 176Q433 240 389.5 273.5Q346 307 272 313V349L428 573H310Q251 573 223.5 544.5Q196 516 190 454L152 0Z" glyph-name="Germandbls" horiz-adv-x="539" unicode="&#7838;" /><glyph d="M84 0 140 646H217L194 379H453L476 646H553L497 0H420L447 307H188L161 0Z" glyph-name="H" horiz-adv-x="581" unicode="H" /><glyph d="M84 0 127 498H70L76 559H133L140 646H217L210 559H469L476 646H553L545 559H603L598 498H540L497 0H420L447 307H188L161 0ZM194 379H453L464 498H205Z" glyph-name="Hbar" horiz-adv-x="581" unicode="&#294;" /><glyph d="M237 699 332 816 403 818 477 699H411L364 767L303 699ZM84 0 140 646H217L194 379H453L476 646H553L497 0H420L447 307H188L161 0Z" glyph-name="Hcircumflex" horiz-adv-x="581" unicode="&#292;" /><glyph d="M84 0 140 646H217L161 0Z" glyph-name="I" horiz-adv-x="245" unicode="I" /><glyph d="M84 0 140 646H217L161 0ZM256 -6V65Q329 81 357.5 120.5Q386 160 393 244L427 646H505L469 226Q459 114 410.5 62.5Q362 11 256 -6Z" glyph-name="IJ" horiz-adv-x="520" unicode="&#306;" /><glyph d="M141 699 251 807H340L214 699ZM84 0 140 646H217L161 0Z" glyph-name="Iacute" horiz-adv-x="245" unicode="&#205;" /><glyph d="M182 688Q131 688 104 720.5Q77 753 77 813H133Q136 780 149.5 763Q163 746 187 746Q211 746 228.5 763Q246 780 253 813H309Q301 755 268 721.5Q235 688 182 688ZM84 0 140 646H217L161 0Z" glyph-name="Ibreve" horiz-adv-x="245" unicode="&#300;" /><glyph d="M63 699 158 816 229 818 303 699H237L190 767L129 699ZM84 0 140 646H217L161 0Z" glyph-name="Icircumflex" horiz-adv-x="245" unicode="&#206;" /><glyph d="M76 707 83 790H162L155 707ZM213 707 220 790H299L292 707ZM84 0 140 646H217L161 0Z" glyph-name="Idieresis" horiz-adv-x="245" unicode="&#207;" /><glyph d="M143 707 150 790H232L224 707ZM84 0 140 646H217L161 0Z" glyph-name="Idotaccent" horiz-adv-x="245" unicode="&#304;" /><glyph d="M151 699 43 807H130L225 699ZM84 0 140 646H217L161 0Z" glyph-name="Igrave" horiz-adv-x="245" unicode="&#204;" /><glyph d="M76 719 81 777H299L293 719ZM84 0 140 646H217L161 0Z" glyph-name="Imacron" horiz-adv-x="245" unicode="&#298;" /><glyph d="M81 -229Q44 -229 21 -208Q-2 -187 -2 -150Q-2 -113 23.5 -72Q49 -31 92 0H84L140 646H217L161 0H154Q111 -37 88 -69Q65 -101 65 -127Q65 -151 73.5 -160Q82 -169 101 -169Q112 -169 122.5 -166.5Q133 -164 146 -157L138 -216Q119 -224 108 -226.5Q97 -229 81 -229Z" glyph-name="Iogonek" horiz-adv-x="245" unicode="&#302;" /><glyph d="M64 704Q68 756 87.5 779.5Q107 803 140 803Q155 803 166 797.5Q177 792 186.5 786Q196 780 205.5 774.5Q215 769 226 769Q239 769 247 783Q255 797 257 818L309 811Q301 759 281 735Q261 711 224 711Q207 711 196 716Q185 721 176 727Q167 733 159.5 738Q152 743 143 743Q132 743 125 733Q118 723 115 704ZM84 0 140 646H217L161 0Z" glyph-name="Itilde" horiz-adv-x="245" unicode="&#296;" /><glyph d="M30 -6V65Q103 81 131.5 120.5Q160 160 167 244L201 646H279L243 226Q233 114 184.5 62.5Q136 11 30 -6Z" glyph-name="J" horiz-adv-x="294" unicode="J" /><glyph d="M118 699 213 816 284 818 358 699H292L245 767L184 699ZM30 -6V65Q103 81 131.5 120.5Q160 160 167 244L201 646H279L243 226Q233 114 184.5 62.5Q136 11 30 -6Z" glyph-name="Jcircumflex" horiz-adv-x="294" unicode="&#308;" /><glyph d="M84 0 140 646H217L161 0ZM400 0 193 334 460 646H547L281 331L487 0Z" glyph-name="K" horiz-adv-x="491" unicode="K" /><glyph d="M84 0 140 646H217L161 0ZM400 0 193 334 460 646H547L281 331L487 0ZM248 -235 189 -229Q207 -189 214 -158.5Q221 -128 225 -83L226 -68H294L292 -85Q288 -130 279 -164.5Q270 -199 248 -235Z" glyph-name="Kcommaaccent" horiz-adv-x="490" unicode="&#310;" /><glyph d="M84 0 140 646H217L167 73H414L401 0Z" glyph-name="L" horiz-adv-x="428" unicode="L" /><glyph d="M145 699 255 807H344L218 699ZM84 0 140 646H217L167 73H414L401 0Z" glyph-name="Lacute" horiz-adv-x="428" unicode="&#313;" /><glyph d="M286 463Q294 484 302.5 508.5Q311 533 318 557.5Q325 582 331 605Q337 628 341 646H412Q407 625 399 600.5Q391 576 381.5 551Q372 526 361.5 503Q351 480 342 463ZM84 0 140 646H217L167 73H414L401 0Z" glyph-name="Lcaron" horiz-adv-x="428" unicode="&#317;" /><glyph d="M84 0 140 646H217L167 73H414L401 0ZM227 -235 168 -229Q186 -189 193 -158.5Q200 -128 204 -83L205 -68H273L271 -85Q267 -130 258 -164.5Q249 -199 227 -235Z" glyph-name="Lcommaaccent" horiz-adv-x="428" unicode="&#315;" /><glyph d="M479 0 535 646H612L562 73H809L796 0ZM84 0 140 646H217L167 73H414L401 0ZM309 318 317 408H403L395 318Z" glyph-name="Ldot" horiz-adv-x="823" unicode="&#319;" /><glyph d="M84 0 107 267 45 227 51 303 114 343 140 646H217L195 394L309 468L304 392L188 317L167 73H414L401 0Z" glyph-name="Lslash" horiz-adv-x="428" unicode="&#321;" /><glyph d="M68 0 165 646H257L371 222L556 646H651L632 0H557L575 519L390 104L327 108L215 510L143 0Z" glyph-name="M" horiz-adv-x="701" unicode="M" /><glyph d="M84 0 140 646H214L438 145L481 646H552L496 3L424 -2L198 503L154 0Z" glyph-name="N" horiz-adv-x="579" unicode="N" /><glyph d="M313 699 423 807H512L386 699ZM84 0 140 646H214L438 145L481 646H552L496 3L424 -2L198 503L154 0Z" glyph-name="Nacute" horiz-adv-x="579" unicode="&#323;" /><glyph d="M319 691 245 810H309L358 740L418 810H483L387 692ZM84 0 140 646H214L438 145L481 646H552L496 3L424 -2L198 503L154 0Z" glyph-name="Ncaron" horiz-adv-x="579" unicode="&#327;" /><glyph d="M84 0 140 646H214L438 145L481 646H552L496 3L424 -2L198 503L154 0ZM281 -235 222 -229Q240 -189 247 -158.5Q254 -128 258 -83L259 -68H327L325 -85Q321 -130 312 -164.5Q303 -199 281 -235Z" glyph-name="Ncommaaccent" horiz-adv-x="579" unicode="&#325;" /><glyph d="M236 704Q240 756 259.5 779.5Q279 803 312 803Q327 803 338 797.5Q349 792 358.5 786Q368 780 377.5 774.5Q387 769 398 769Q411 769 419 783Q427 797 429 818L481 811Q473 759 453 735Q433 711 396 711Q379 711 368 716Q357 721 348 727Q339 733 331.5 738Q324 743 315 743Q304 743 297 733Q290 723 287 704ZM84 0 140 646H214L438 145L481 646H552L496 3L424 -2L198 503L154 0Z" glyph-name="Ntilde" horiz-adv-x="579" unicode="&#209;" /><glyph d="M286 -11Q190 -11 134.5 62Q79 135 79 266Q79 353 97 425.5Q115 498 148 549Q181 600 229.5 628.5Q278 657 338 657Q434 657 489.5 584Q545 511 545 380Q545 293 527 220.5Q509 148 476 97Q443 46 394.5 17.5Q346 -11 286 -11ZM290 64Q371 64 418 146.5Q465 229 465 375Q465 474 431 528Q397 582 334 582Q253 582 206 499.5Q159 417 159 271Q159 172 193 118Q227 64 290 64Z" glyph-name="O" horiz-adv-x="567" unicode="O" /><glyph d="M321 0Q213 0 146 64.5Q79 129 79 266Q79 354 101 424.5Q123 495 162.5 544Q202 593 259.5 619.5Q317 646 387 646H785L778 573H501L483 373H736L730 303H477L458 73H741L728 0ZM324 74H381L425 572H375Q275 572 217.5 493.5Q160 415 160 273Q160 166 206 120Q252 74 324 74Z" glyph-name="OE" horiz-adv-x="778" unicode="&#338;" /><glyph d="M298 699 408 807H497L371 699ZM286 -11Q190 -11 134.5 62Q79 135 79 266Q79 353 97 425.5Q115 498 148 549Q181 600 229.5 628.5Q278 657 338 657Q434 657 489.5 584Q545 511 545 380Q545 293 527 220.5Q509 148 476 97Q443 46 394.5 17.5Q346 -11 286 -11ZM290 64Q371 64 418 146.5Q465 229 465 375Q465 474 431 528Q397 582 334 582Q253 582 206 499.5Q159 417 159 271Q159 172 193 118Q227 64 290 64Z" glyph-name="Oacute" horiz-adv-x="567" unicode="&#211;" /><glyph d="M339 688Q288 688 261 720.5Q234 753 234 813H290Q293 780 306.5 763Q320 746 344 746Q368 746 385.5 763Q403 780 410 813H466Q458 755 425 721.5Q392 688 339 688ZM286 -11Q190 -11 134.5 62Q79 135 79 266Q79 353 97 425.5Q115 498 148 549Q181 600 229.5 628.5Q278 657 338 657Q434 657 489.5 584Q545 511 545 380Q545 293 527 220.5Q509 148 476 97Q443 46 394.5 17.5Q346 -11 286 -11ZM290 64Q371 64 418 146.5Q465 229 465 375Q465 474 431 528Q397 582 334 582Q253 582 206 499.5Q159 417 159 271Q159 172 193 118Q227 64 290 64Z" glyph-name="Obreve" horiz-adv-x="567" unicode="&#334;" /><glyph d="M220 699 315 816 386 818 460 699H394L347 767L286 699ZM286 -11Q190 -11 134.5 62Q79 135 79 266Q79 353 97 425.5Q115 498 148 549Q181 600 229.5 628.5Q278 657 338 657Q434 657 489.5 584Q545 511 545 380Q545 293 527 220.5Q509 148 476 97Q443 46 394.5 17.5Q346 -11 286 -11ZM290 64Q371 64 418 146.5Q465 229 465 375Q465 474 431 528Q397 582 334 582Q253 582 206 499.5Q159 417 159 271Q159 172 193 118Q227 64 290 64Z" glyph-name="Ocircumflex" horiz-adv-x="567" unicode="&#212;" /><glyph d="M233 707 240 790H319L312 707ZM370 707 377 790H456L449 707ZM286 -11Q190 -11 134.5 62Q79 135 79 266Q79 353 97 425.5Q115 498 148 549Q181 600 229.5 628.5Q278 657 338 657Q434 657 489.5 584Q545 511 545 380Q545 293 527 220.5Q509 148 476 97Q443 46 394.5 17.5Q346 -11 286 -11ZM290 64Q371 64 418 146.5Q465 229 465 375Q465 474 431 528Q397 582 334 582Q253 582 206 499.5Q159 417 159 271Q159 172 193 118Q227 64 290 64Z" glyph-name="Odieresis" horiz-adv-x="567" unicode="&#214;" /><glyph d="M308 699 200 807H287L382 699ZM286 -11Q190 -11 134.5 62Q79 135 79 266Q79 353 97 425.5Q115 498 148 549Q181 600 229.5 628.5Q278 657 338 657Q434 657 489.5 584Q545 511 545 380Q545 293 527 220.5Q509 148 476 97Q443 46 394.5 17.5Q346 -11 286 -11ZM290 64Q371 64 418 146.5Q465 229 465 375Q465 474 431 528Q397 582 334 582Q253 582 206 499.5Q159 417 159 271Q159 172 193 118Q227 64 290 64Z" glyph-name="Ograve" horiz-adv-x="567" unicode="&#210;" /><glyph d="M357 699 454 807H526L415 699ZM255 699 336 807H409L309 699ZM286 -11Q190 -11 134.5 62Q79 135 79 266Q79 353 97 425.5Q115 498 148 549Q181 600 229.5 628.5Q278 657 338 657Q434 657 489.5 584Q545 511 545 380Q545 293 527 220.5Q509 148 476 97Q443 46 394.5 17.5Q346 -11 286 -11ZM290 64Q371 64 418 146.5Q465 229 465 375Q465 474 431 528Q397 582 334 582Q253 582 206 499.5Q159 417 159 271Q159 172 193 118Q227 64 290 64Z" glyph-name="Ohungarumlaut" horiz-adv-x="567" unicode="&#336;" /><glyph d="M233 719 238 777H456L450 719ZM286 -11Q190 -11 134.5 62Q79 135 79 266Q79 353 97 425.5Q115 498 148 549Q181 600 229.5 628.5Q278 657 338 657Q434 657 489.5 584Q545 511 545 380Q545 293 527 220.5Q509 148 476 97Q443 46 394.5 17.5Q346 -11 286 -11ZM290 64Q371 64 418 146.5Q465 229 465 375Q465 474 431 528Q397 582 334 582Q253 582 206 499.5Q159 417 159 271Q159 172 193 118Q227 64 290 64Z" glyph-name="Omacron" horiz-adv-x="567" unicode="&#332;" /><glyph d="M45 0 50 66H200Q156 101 131 167Q106 233 107 314Q108 391 127.5 454.5Q147 518 181 563Q215 608 263 632.5Q311 657 369 657Q466 657 518.5 583.5Q571 510 569 378Q568 327 558 279Q548 231 530.5 190.5Q513 150 488.5 118Q464 86 434 66H584L578 0H341L345 62Q376 75 403 105.5Q430 136 449.5 177.5Q469 219 480.5 269.5Q492 320 493 374Q494 475 460.5 529.5Q427 584 362 584Q279 584 232 511Q185 438 184 309Q183 222 211.5 155.5Q240 89 289 62L281 0Z" glyph-name="Omega" horiz-adv-x="623" unicode="&#8486;" /><glyph d="M27 -50 116 90Q98 124 88.5 168Q79 212 79 266Q79 353 97 425.5Q115 498 148 549Q181 600 229.5 628.5Q278 657 338 657Q372 657 402 647.5Q432 638 456 619L505 696H579L499 571Q521 536 533 488Q545 440 545 380Q545 293 527 220.5Q509 148 476 97Q443 46 394.5 17.5Q346 -11 286 -11Q247 -11 214.5 1Q182 13 157 36L102 -50ZM159 271Q159 243 162 218.5Q165 194 170 173L413 552Q397 567 377.5 574.5Q358 582 334 582Q253 582 206 499.5Q159 417 159 271ZM290 64Q371 64 418 146.5Q465 229 465 375Q465 409 460.5 439Q456 469 449 492L202 106Q218 85 240 74.5Q262 64 290 64Z" glyph-name="Oslash" horiz-adv-x="567" unicode="&#216;" /><glyph d="M298 699 408 807H497L371 699ZM27 -50 116 90Q98 124 88.5 168Q79 212 79 266Q79 353 97 425.5Q115 498 148 549Q181 600 229.5 628.5Q278 657 338 657Q372 657 402 647.5Q432 638 456 619L505 696H579L499 571Q521 536 533 488Q545 440 545 380Q545 293 527 220.5Q509 148 476 97Q443 46 394.5 17.5Q346 -11 286 -11Q247 -11 214.5 1Q182 13 157 36L102 -50ZM159 271Q159 243 162 218.5Q165 194 170 173L413 552Q397 567 377.5 574.5Q358 582 334 582Q253 582 206 499.5Q159 417 159 271ZM290 64Q371 64 418 146.5Q465 229 465 375Q465 409 460.5 439Q456 469 449 492L202 106Q218 85 240 74.5Q262 64 290 64Z" glyph-name="Oslashacute" horiz-adv-x="567" unicode="&#510;" /><glyph d="M221 704Q225 756 244.5 779.5Q264 803 297 803Q312 803 323 797.5Q334 792 343.5 786Q353 780 362.5 774.5Q372 769 383 769Q396 769 404 783Q412 797 414 818L466 811Q458 759 438 735Q418 711 381 711Q364 711 353 716Q342 721 333 727Q324 733 316.5 738Q309 743 300 743Q289 743 282 733Q275 723 272 704ZM286 -11Q190 -11 134.5 62Q79 135 79 266Q79 353 97 425.5Q115 498 148 549Q181 600 229.5 628.5Q278 657 338 657Q434 657 489.5 584Q545 511 545 380Q545 293 527 220.5Q509 148 476 97Q443 46 394.5 17.5Q346 -11 286 -11ZM290 64Q371 64 418 146.5Q465 229 465 375Q465 474 431 528Q397 582 334 582Q253 582 206 499.5Q159 417 159 271Q159 172 193 118Q227 64 290 64Z" glyph-name="Otilde" horiz-adv-x="567" unicode="&#213;" /><glyph d="M84 0 140 646H254Q364 646 428.5 596.5Q493 547 493 452Q493 348 427.5 296Q362 244 245 244H182L161 0ZM188 316H245Q326 316 368.5 347Q411 378 411 446Q411 510 369 542Q327 574 255 574H211Z" glyph-name="P" horiz-adv-x="493" unicode="P" /><glyph d="M487 -119Q435 -109 400 -94Q365 -79 336 -54Q313 -35 295 -23Q277 -11 252 -7Q171 5 125 76.5Q79 148 79 266Q79 355 98 427.5Q117 500 150.5 551Q184 602 232 629.5Q280 657 338 657Q437 657 491.5 583.5Q546 510 546 380Q546 232 496 133.5Q446 35 365 6Q377 0 390.5 -10Q404 -20 418 -29Q434 -39 455.5 -46.5Q477 -54 501 -59ZM290 64Q370 64 417.5 146.5Q465 229 465 375Q465 475 431 528.5Q397 582 334 582Q255 582 207.5 499.5Q160 417 160 271Q160 171 194 117.5Q228 64 290 64Z" glyph-name="Q" horiz-adv-x="568" unicode="Q" /><glyph d="M84 0 140 646H260Q363 646 426 597.5Q489 549 489 457Q489 387 450.5 342Q412 297 344 284Q363 270 375 245.5Q387 221 403 178L467 0H387L323 177Q304 228 283.5 246.5Q263 265 226 265H183L161 0ZM189 335H259Q332 335 370.5 364.5Q409 394 409 455Q409 515 369 545Q329 575 258 575H211Z" glyph-name="R" horiz-adv-x="509" unicode="R" /><glyph d="M255 699 365 807H454L328 699ZM84 0 140 646H260Q363 646 426 597.5Q489 549 489 457Q489 387 450.5 342Q412 297 344 284Q363 270 375 245.5Q387 221 403 178L467 0H387L323 177Q304 228 283.5 246.5Q263 265 226 265H183L161 0ZM189 335H259Q332 335 370.5 364.5Q409 394 409 455Q409 515 369 545Q329 575 258 575H211Z" glyph-name="Racute" horiz-adv-x="509" unicode="&#340;" /><glyph d="M261 691 187 810H251L300 740L360 810H425L329 692ZM84 0 140 646H260Q363 646 426 597.5Q489 549 489 457Q489 387 450.5 342Q412 297 344 284Q363 270 375 245.5Q387 221 403 178L467 0H387L323 177Q304 228 283.5 246.5Q263 265 226 265H183L161 0ZM189 335H259Q332 335 370.5 364.5Q409 394 409 455Q409 515 369 545Q329 575 258 575H211Z" glyph-name="Rcaron" horiz-adv-x="509" unicode="&#344;" /><glyph d="M84 0 140 646H260Q363 646 426 597.5Q489 549 489 457Q489 387 450.5 342Q412 297 344 284Q363 270 375 245.5Q387 221 403 178L467 0H387L323 177Q304 228 283.5 246.5Q263 265 226 265H183L161 0ZM189 335H259Q332 335 370.5 364.5Q409 394 409 455Q409 515 369 545Q329 575 258 575H211ZM243 -235 184 -229Q202 -189 209 -158.5Q216 -128 220 -83L221 -68H289L287 -85Q283 -130 274 -164.5Q265 -199 243 -235Z" glyph-name="Rcommaaccent" horiz-adv-x="509" unicode="&#342;" /><glyph d="M208 -11Q162 -11 120 1.5Q78 14 44 36V118Q85 90 125 75.5Q165 61 213 61Q272 61 303 88.5Q334 116 334 165Q334 202 313.5 228.5Q293 255 250 279L217 297Q148 335 115 380.5Q82 426 82 484Q82 563 136.5 610Q191 657 282 657Q324 657 363.5 645.5Q403 634 437 615L421 540Q384 562 349.5 573.5Q315 585 278 585Q223 585 193 561.5Q163 538 163 492Q163 455 185 426Q207 397 254 372L288 353Q356 317 385.5 275.5Q415 234 415 176Q415 90 362 39.5Q309 -11 208 -11Z" glyph-name="S" horiz-adv-x="446" unicode="S" /><glyph d="M233 699 343 807H432L306 699ZM208 -11Q162 -11 120 1.5Q78 14 44 36V118Q85 90 125 75.5Q165 61 213 61Q272 61 303 88.5Q334 116 334 165Q334 202 313.5 228.5Q293 255 250 279L217 297Q148 335 115 380.5Q82 426 82 484Q82 563 136.5 610Q191 657 282 657Q324 657 363.5 645.5Q403 634 437 615L421 540Q384 562 349.5 573.5Q315 585 278 585Q223 585 193 561.5Q163 538 163 492Q163 455 185 426Q207 397 254 372L288 353Q356 317 385.5 275.5Q415 234 415 176Q415 90 362 39.5Q309 -11 208 -11Z" glyph-name="Sacute" horiz-adv-x="446" unicode="&#346;" /><glyph d="M248 691 174 810H238L287 740L347 810H412L316 692ZM208 -11Q162 -11 120 1.5Q78 14 44 36V118Q85 90 125 75.5Q165 61 213 61Q272 61 303 88.5Q334 116 334 165Q334 202 313.5 228.5Q293 255 250 279L217 297Q148 335 115 380.5Q82 426 82 484Q82 563 136.5 610Q191 657 282 657Q324 657 363.5 645.5Q403 634 437 615L421 540Q384 562 349.5 573.5Q315 585 278 585Q223 585 193 561.5Q163 538 163 492Q163 455 185 426Q207 397 254 372L288 353Q356 317 385.5 275.5Q415 234 415 176Q415 90 362 39.5Q309 -11 208 -11Z" glyph-name="Scaron" horiz-adv-x="446" unicode="&#352;" /><glyph d="M180 -229Q162 -229 148 -225.5Q134 -222 118 -215V-161Q132 -169 145 -173.5Q158 -178 175 -178Q195 -178 206.5 -167.5Q218 -157 218 -138Q218 -119 201.5 -105Q185 -91 154 -88L182 -9Q143 -6 108 5.5Q73 17 44 36V118Q85 90 125 75.5Q165 61 213 61Q272 61 303 88.5Q334 116 334 165Q334 202 313.5 228.5Q293 255 250 279L217 297Q148 335 115 380.5Q82 426 82 484Q82 563 136.5 610Q191 657 282 657Q324 657 363.5 645.5Q403 634 437 615L421 540Q384 562 349.5 573.5Q315 585 278 585Q223 585 193 561.5Q163 538 163 492Q163 455 185 426Q207 397 254 372L288 353Q356 317 385.5 275.5Q415 234 415 176Q415 96 370 47Q325 -2 238 -9L220 -54Q249 -62 265.5 -83.5Q282 -105 282 -134Q282 -179 253.5 -204Q225 -229 180 -229Z" glyph-name="Scedilla" horiz-adv-x="446" unicode="&#350;" /><glyph d="M155 699 250 816 321 818 395 699H329L282 767L221 699ZM208 -11Q162 -11 120 1.5Q78 14 44 36V118Q85 90 125 75.5Q165 61 213 61Q272 61 303 88.5Q334 116 334 165Q334 202 313.5 228.5Q293 255 250 279L217 297Q148 335 115 380.5Q82 426 82 484Q82 563 136.5 610Q191 657 282 657Q324 657 363.5 645.5Q403 634 437 615L421 540Q384 562 349.5 573.5Q315 585 278 585Q223 585 193 561.5Q163 538 163 492Q163 455 185 426Q207 397 254 372L288 353Q356 317 385.5 275.5Q415 234 415 176Q415 90 362 39.5Q309 -11 208 -11Z" glyph-name="Scircumflex" horiz-adv-x="446" unicode="&#348;" /><glyph d="M208 -11Q162 -11 120 1.5Q78 14 44 36V118Q85 90 125 75.5Q165 61 213 61Q272 61 303 88.5Q334 116 334 165Q334 202 313.5 228.5Q293 255 250 279L217 297Q148 335 115 380.5Q82 426 82 484Q82 563 136.5 610Q191 657 282 657Q324 657 363.5 645.5Q403 634 437 615L421 540Q384 562 349.5 573.5Q315 585 278 585Q223 585 193 561.5Q163 538 163 492Q163 455 185 426Q207 397 254 372L288 353Q356 317 385.5 275.5Q415 234 415 176Q415 90 362 39.5Q309 -11 208 -11ZM192 -235 133 -229Q151 -189 158 -158.5Q165 -128 169 -83L170 -68H238L236 -85Q232 -130 223 -164.5Q214 -199 192 -235Z" glyph-name="Scommaaccent" horiz-adv-x="446" unicode="&#536;" /><glyph d="M190 0 240 573H73L79 646H496L483 573H317L267 0Z" glyph-name="T" horiz-adv-x="459" unicode="T" /><glyph d="M190 0 215 292H102L107 353H221L240 573H73L79 646H496L483 573H317L298 353H414L409 292H292L267 0Z" glyph-name="Tbar" horiz-adv-x="459" unicode="&#358;" /><glyph d="M247 691 173 810H237L286 740L346 810H411L315 692ZM190 0 240 573H73L79 646H496L483 573H317L267 0Z" glyph-name="Tcaron" horiz-adv-x="459" unicode="&#356;" /><glyph d="M195 -229Q178 -229 163.5 -225.5Q149 -222 133 -215V-161Q147 -169 160 -173.5Q173 -178 190 -178Q210 -178 221.5 -167.5Q233 -157 233 -138Q233 -119 216.5 -105Q200 -91 169 -88L201 0H190L240 573H73L79 646H496L483 573H317L267 0H257L235 -54Q264 -62 280 -83.5Q296 -105 296 -134Q296 -179 268 -204Q240 -229 195 -229Z" glyph-name="Tcedilla" horiz-adv-x="459" unicode="&#354;" /><glyph d="M190 0 240 573H73L79 646H496L483 573H317L267 0ZM204 -235 145 -229Q163 -189 170 -158.5Q177 -128 181 -83L182 -68H250L248 -85Q244 -130 235 -164.5Q226 -199 204 -235Z" glyph-name="Tcommaaccent" horiz-adv-x="459" unicode="&#538;" /><glyph d="M84 0 140 646H217L207 530H246Q356 530 419 481Q482 432 482 339Q482 235 419 181.5Q356 128 234 128H172L161 0ZM178 200H235Q319 200 359.5 233.5Q400 267 400 334Q400 397 360.5 427.5Q321 458 246 458H201Z" glyph-name="Thorn" horiz-adv-x="486" unicode="&#222;" /><glyph d="M278 -11Q188 -11 139.5 44Q91 99 91 195Q91 209 93.5 244Q96 279 98 305L128 646H206L177 317Q174 288 172.5 257.5Q171 227 171 210Q171 140 199.5 102Q228 64 285 64Q357 64 391 112.5Q425 161 435 279L466 646H543L510 268Q497 119 440 54Q383 -11 278 -11Z" glyph-name="U" horiz-adv-x="558" unicode="U" /><glyph d="M293 699 403 807H492L366 699ZM278 -11Q188 -11 139.5 44Q91 99 91 195Q91 209 93.5 244Q96 279 98 305L128 646H206L177 317Q174 288 172.5 257.5Q171 227 171 210Q171 140 199.5 102Q228 64 285 64Q357 64 391 112.5Q425 161 435 279L466 646H543L510 268Q497 119 440 54Q383 -11 278 -11Z" glyph-name="Uacute" horiz-adv-x="558" unicode="&#218;" /><glyph d="M334 688Q283 688 256 720.5Q229 753 229 813H285Q288 780 301.5 763Q315 746 339 746Q363 746 380.5 763Q398 780 405 813H461Q453 755 420 721.5Q387 688 334 688ZM278 -11Q188 -11 139.5 44Q91 99 91 195Q91 209 93.5 244Q96 279 98 305L128 646H206L177 317Q174 288 172.5 257.5Q171 227 171 210Q171 140 199.5 102Q228 64 285 64Q357 64 391 112.5Q425 161 435 279L466 646H543L510 268Q497 119 440 54Q383 -11 278 -11Z" glyph-name="Ubreve" horiz-adv-x="558" unicode="&#364;" /><glyph d="M215 699 310 816 381 818 455 699H389L342 767L281 699ZM278 -11Q188 -11 139.5 44Q91 99 91 195Q91 209 93.5 244Q96 279 98 305L128 646H206L177 317Q174 288 172.5 257.5Q171 227 171 210Q171 140 199.5 102Q228 64 285 64Q357 64 391 112.5Q425 161 435 279L466 646H543L510 268Q497 119 440 54Q383 -11 278 -11Z" glyph-name="Ucircumflex" horiz-adv-x="558" unicode="&#219;" /><glyph d="M228 707 235 790H314L307 707ZM365 707 372 790H451L444 707ZM278 -11Q188 -11 139.5 44Q91 99 91 195Q91 209 93.5 244Q96 279 98 305L128 646H206L177 317Q174 288 172.5 257.5Q171 227 171 210Q171 140 199.5 102Q228 64 285 64Q357 64 391 112.5Q425 161 435 279L466 646H543L510 268Q497 119 440 54Q383 -11 278 -11Z" glyph-name="Udieresis" horiz-adv-x="558" unicode="&#220;" /><glyph d="M303 699 195 807H282L377 699ZM278 -11Q188 -11 139.5 44Q91 99 91 195Q91 209 93.5 244Q96 279 98 305L128 646H206L177 317Q174 288 172.5 257.5Q171 227 171 210Q171 140 199.5 102Q228 64 285 64Q357 64 391 112.5Q425 161 435 279L466 646H543L510 268Q497 119 440 54Q383 -11 278 -11Z" glyph-name="Ugrave" horiz-adv-x="558" unicode="&#217;" /><glyph d="M352 699 449 807H521L410 699ZM250 699 331 807H404L304 699ZM278 -11Q188 -11 139.5 44Q91 99 91 195Q91 209 93.5 244Q96 279 98 305L128 646H206L177 317Q174 288 172.5 257.5Q171 227 171 210Q171 140 199.5 102Q228 64 285 64Q357 64 391 112.5Q425 161 435 279L466 646H543L510 268Q497 119 440 54Q383 -11 278 -11Z" glyph-name="Uhungarumlaut" horiz-adv-x="558" unicode="&#368;" /><glyph d="M228 719 233 777H451L445 719ZM278 -11Q188 -11 139.5 44Q91 99 91 195Q91 209 93.5 244Q96 279 98 305L128 646H206L177 317Q174 288 172.5 257.5Q171 227 171 210Q171 140 199.5 102Q228 64 285 64Q357 64 391 112.5Q425 161 435 279L466 646H543L510 268Q497 119 440 54Q383 -11 278 -11Z" glyph-name="Umacron" horiz-adv-x="558" unicode="&#362;" /><glyph d="M320 -216Q283 -216 260 -195Q237 -174 237 -137Q237 -106 253 -73Q269 -40 297 -10Q291 -11 286 -11Q281 -11 275 -10Q187 -9 139.5 45.5Q92 100 92 195Q92 209 94.5 244Q97 279 99 305L129 646H207L178 317Q175 288 173.5 257.5Q172 227 172 210Q172 140 200.5 102Q229 64 286 64Q358 64 392 112.5Q426 161 436 279L467 646H544L511 268Q502 169 475.5 109.5Q449 50 403 18Q350 -22 327 -59Q304 -96 304 -119Q304 -136 313 -146Q322 -156 340 -156Q351 -156 362 -153.5Q373 -151 385 -144L377 -203Q358 -211 346.5 -213.5Q335 -216 320 -216Z" glyph-name="Uogonek" horiz-adv-x="558" unicode="&#370;" /><glyph d="M334 684Q297 684 273 705Q249 726 249 766Q249 810 276 841.5Q303 873 350 873Q388 873 411.5 852Q435 831 435 791Q435 747 408 715.5Q381 684 334 684ZM338 731Q357 731 369.5 746Q382 761 382 785Q382 804 372.5 815Q363 826 346 826Q327 826 315 810.5Q303 795 303 772Q303 753 312.5 742Q322 731 338 731ZM278 -11Q188 -11 139.5 44Q91 99 91 195Q91 209 93.5 244Q96 279 98 305L128 646H206L177 317Q174 288 172.5 257.5Q171 227 171 210Q171 140 199.5 102Q228 64 285 64Q357 64 391 112.5Q425 161 435 279L466 646H543L510 268Q497 119 440 54Q383 -11 278 -11Z" glyph-name="Uring" horiz-adv-x="558" unicode="&#366;" /><glyph d="M216 704Q220 756 239.5 779.5Q259 803 292 803Q307 803 318 797.5Q329 792 338.5 786Q348 780 357.5 774.5Q367 769 378 769Q391 769 399 783Q407 797 409 818L461 811Q453 759 433 735Q413 711 376 711Q359 711 348 716Q337 721 328 727Q319 733 311.5 738Q304 743 295 743Q284 743 277 733Q270 723 267 704ZM278 -11Q188 -11 139.5 44Q91 99 91 195Q91 209 93.5 244Q96 279 98 305L128 646H206L177 317Q174 288 172.5 257.5Q171 227 171 210Q171 140 199.5 102Q228 64 285 64Q357 64 391 112.5Q425 161 435 279L466 646H543L510 268Q497 119 440 54Q383 -11 278 -11Z" glyph-name="Utilde" horiz-adv-x="558" unicode="&#360;" /><glyph d="M217 -2 75 646H154L266 130L468 646H548L292 2Z" glyph-name="V" horiz-adv-x="511" unicode="V" /><glyph d="M180 -2 96 646H175L238 128L411 643L496 647L564 123L737 646H813L595 2L506 -2L438 523L268 2Z" glyph-name="W" horiz-adv-x="790" unicode="W" /><glyph d="M415 699 525 807H614L488 699ZM180 -2 96 646H175L238 128L411 643L496 647L564 123L737 646H813L595 2L506 -2L438 523L268 2Z" glyph-name="Wacute" horiz-adv-x="790" unicode="&#7810;" /><glyph d="M337 699 432 816 503 818 577 699H511L464 767L403 699ZM180 -2 96 646H175L238 128L411 643L496 647L564 123L737 646H813L595 2L506 -2L438 523L268 2Z" glyph-name="Wcircumflex" horiz-adv-x="790" unicode="&#372;" /><glyph d="M350 707 357 790H436L429 707ZM487 707 494 790H573L566 707ZM180 -2 96 646H175L238 128L411 643L496 647L564 123L737 646H813L595 2L506 -2L438 523L268 2Z" glyph-name="Wdieresis" horiz-adv-x="790" unicode="&#7812;" /><glyph d="M425 699 317 807H404L499 699ZM180 -2 96 646H175L238 128L411 643L496 647L564 123L737 646H813L595 2L506 -2L438 523L268 2Z" glyph-name="Wgrave" horiz-adv-x="790" unicode="&#7808;" /><glyph d="M15 0 227 339 87 646H172L280 403L437 646H523L318 335L476 0H388L265 268L102 0Z" glyph-name="X" horiz-adv-x="494" unicode="X" /><glyph d="M268 707 275 790H357L349 707ZM15 0 227 339 87 646H172L280 403L437 646H523L318 335L476 0H388L265 268L102 0Z" glyph-name="Xdot" horiz-adv-x="494" unicode="&#7818;" /><glyph d="M196 0 219 270 62 646H143L265 354L438 646H521L296 270L273 0Z" glyph-name="Y" horiz-adv-x="469" unicode="Y" /><glyph d="M250 699 360 807H449L323 699ZM196 0 219 270 62 646H143L265 354L438 646H521L296 270L273 0Z" glyph-name="Yacute" horiz-adv-x="469" unicode="&#221;" /><glyph d="M172 699 267 816 338 818 412 699H346L299 767L238 699ZM196 0 219 270 62 646H143L265 354L438 646H521L296 270L273 0Z" glyph-name="Ycircumflex" horiz-adv-x="469" unicode="&#374;" /><glyph d="M185 707 192 790H271L264 707ZM322 707 329 790H408L401 707ZM196 0 219 270 62 646H143L265 354L438 646H521L296 270L273 0Z" glyph-name="Ydieresis" horiz-adv-x="469" unicode="&#376;" /><glyph d="M260 699 152 807H239L334 699ZM196 0 219 270 62 646H143L265 354L438 646H521L296 270L273 0Z" glyph-name="Ygrave" horiz-adv-x="469" unicode="&#7922;" /><glyph d="M30 0V35L382 573H98L105 646H497V611L143 73H445L433 0Z" glyph-name="Z" horiz-adv-x="477" unicode="Z" /><glyph d="M260 699 370 807H459L333 699ZM30 0V35L382 573H98L105 646H497V611L143 73H445L433 0Z" glyph-name="Zacute" horiz-adv-x="477" unicode="&#377;" /><glyph d="M266 691 192 810H256L305 740L365 810H430L334 692ZM30 0V35L382 573H98L105 646H497V611L143 73H445L433 0Z" glyph-name="Zcaron" horiz-adv-x="477" unicode="&#381;" /><glyph d="M262 707 269 790H351L343 707ZM30 0V35L382 573H98L105 646H497V611L143 73H445L433 0Z" glyph-name="Zdotaccent" horiz-adv-x="477" unicode="&#379;" /><glyph d="M30 0V35L206 303H115L120 364H245L382 573H98L105 646H497V611L334 364H427L419 303H295L143 73H445L433 0Z" glyph-name="Zstroke" horiz-adv-x="477" unicode="&#437;" /><glyph d="M196 -11Q133 -11 99 45.5Q65 102 65 191Q65 331 123.5 412Q182 493 287 493Q333 493 370.5 483Q408 473 440 457Q433 427 427 386.5Q421 346 417 309L402 135Q401 120 400.5 104Q400 88 400 75Q400 56 401.5 39Q403 22 407 4L336 -6Q333 6 331.5 21Q330 36 330 55Q330 68 331 88.5Q332 109 334 127Q315 67 277.5 28Q240 -11 196 -11ZM212 59Q234 59 256.5 84Q279 109 297.5 152Q316 195 330 252Q344 309 349 373L352 410Q336 418 318.5 422Q301 426 276 426Q213 426 178 364.5Q143 303 143 196Q143 136 161 97.5Q179 59 212 59Z" glyph-name="a" horiz-adv-x="467" unicode="a" /><glyph d="M164 -11Q112 -11 79.5 22Q47 55 47 109Q47 177 87.5 217.5Q128 258 221 281L305 302Q306 314 307 322Q308 330 308 342Q308 382 289 404Q270 426 227 426Q193 426 157 413Q121 400 90 377V447Q118 469 156.5 481Q195 493 237 493Q305 493 343.5 457.5Q382 422 382 352Q382 333 378 295Q374 257 370 216Q366 175 362 136Q358 97 358 76Q358 57 361.5 39.5Q365 22 372 3L302 -6Q295 7 291.5 29.5Q288 52 288 67Q271 28 239 8.5Q207 -11 164 -11ZM186 52Q229 52 258 91Q287 130 296 199L300 238L227 221Q171 208 145 185Q119 162 119 122Q119 88 137.5 70Q156 52 186 52Z" glyph-name="a.alt" horiz-adv-x="426" /><glyph d="M17 0 239 516 321 519 452 0H375L344 126H146L93 0ZM171 190H330L272 428Z" glyph-name="a.smcp" horiz-adv-x="471" /><glyph d="M244 581 289 645Q301 664 312 682Q323 700 329 716L401 713Q393 694 381 675Q369 656 353 634L311 581ZM196 -11Q133 -11 99 45.5Q65 102 65 191Q65 331 123.5 412Q182 493 287 493Q333 493 370.5 483Q408 473 440 457Q433 427 427 386.5Q421 346 417 309L402 135Q401 120 400.5 104Q400 88 400 75Q400 56 401.5 39Q403 22 407 4L336 -6Q333 6 331.5 21Q330 36 330 55Q330 68 331 88.5Q332 109 334 127Q315 67 277.5 28Q240 -11 196 -11ZM212 59Q234 59 256.5 84Q279 109 297.5 152Q316 195 330 252Q344 309 349 373L352 410Q336 418 318.5 422Q301 426 276 426Q213 426 178 364.5Q143 303 143 196Q143 136 161 97.5Q179 59 212 59Z" glyph-name="aacute" horiz-adv-x="467" unicode="&#225;" /><glyph d="M207 581 252 645Q264 664 275 682Q286 700 292 716L364 713Q356 694 344 675Q332 656 316 634L274 581ZM165 -10Q113 -10 80.5 23Q48 56 48 110Q48 178 88.5 218.5Q129 259 222 282L306 303Q307 315 308 323Q309 331 309 343Q309 383 290 405Q271 427 228 427Q194 427 158 414Q122 401 91 378V448Q119 470 157.5 482Q196 494 238 494Q306 494 344.5 458.5Q383 423 383 353Q383 334 379 296Q375 258 371 217Q367 176 363 137Q359 98 359 77Q359 58 362.5 40.5Q366 23 373 4L303 -5Q296 8 292.5 30.5Q289 53 289 68Q272 29 240 9.5Q208 -10 165 -10ZM187 53Q230 53 259 92Q288 131 297 200L301 239L228 222Q172 209 146 186Q120 163 120 123Q120 89 138.5 71Q157 53 187 53Z" glyph-name="aacute.alt" horiz-adv-x="427" /><glyph d="M246 569 356 677H445L319 569ZM17 0 239 516 321 519 452 0H375L344 126H146L93 0ZM171 190H330L272 428Z" glyph-name="aacute.smcp" horiz-adv-x="471" /><glyph d="M279 567Q231 567 208.5 596Q186 625 186 676Q186 681 186 687Q186 693 187 700H241V691Q241 657 251.5 640Q262 623 284 623Q307 623 320.5 641.5Q334 660 338 700H393Q387 634 358.5 600.5Q330 567 279 567ZM196 -11Q133 -11 99 45.5Q65 102 65 191Q65 331 123.5 412Q182 493 287 493Q333 493 370.5 483Q408 473 440 457Q433 427 427 386.5Q421 346 417 309L402 135Q401 120 400.5 104Q400 88 400 75Q400 56 401.5 39Q403 22 407 4L336 -6Q333 6 331.5 21Q330 36 330 55Q330 68 331 88.5Q332 109 334 127Q315 67 277.5 28Q240 -11 196 -11ZM212 59Q234 59 256.5 84Q279 109 297.5 152Q316 195 330 252Q344 309 349 373L352 410Q336 418 318.5 422Q301 426 276 426Q213 426 178 364.5Q143 303 143 196Q143 136 161 97.5Q179 59 212 59Z" glyph-name="abreve" horiz-adv-x="467" unicode="&#259;" /><glyph d="M242 567Q194 567 171.5 596Q149 625 149 676Q149 681 149 687Q149 693 150 700H204V691Q204 657 214.5 640Q225 623 247 623Q270 623 283.5 641.5Q297 660 301 700H356Q350 634 321.5 600.5Q293 567 242 567ZM165 -10Q113 -10 80.5 23Q48 56 48 110Q48 178 88.5 218.5Q129 259 222 282L306 303Q307 315 308 323Q309 331 309 343Q309 383 290 405Q271 427 228 427Q194 427 158 414Q122 401 91 378V448Q119 470 157.5 482Q196 494 238 494Q306 494 344.5 458.5Q383 423 383 353Q383 334 379 296Q375 258 371 217Q367 176 363 137Q359 98 359 77Q359 58 362.5 40.5Q366 23 373 4L303 -5Q296 8 292.5 30.5Q289 53 289 68Q272 29 240 9.5Q208 -10 165 -10ZM187 53Q230 53 259 92Q288 131 297 200L301 239L228 222Q172 209 146 186Q120 163 120 123Q120 89 138.5 71Q157 53 187 53Z" glyph-name="abreve.alt" horiz-adv-x="427" /><glyph d="M282 558Q231 558 204 590.5Q177 623 177 683H233Q236 650 249.5 633Q263 616 287 616Q311 616 328.5 633Q346 650 353 683H409Q401 625 368 591.5Q335 558 282 558ZM17 0 239 516 321 519 452 0H375L344 126H146L93 0ZM171 190H330L272 428Z" glyph-name="abreve.smcp" horiz-adv-x="471" /><glyph d="M169 571 255 702 323 705 390 571H326L286 651L233 571ZM196 -11Q133 -11 99 45.5Q65 102 65 191Q65 331 123.5 412Q182 493 287 493Q333 493 370.5 483Q408 473 440 457Q433 427 427 386.5Q421 346 417 309L402 135Q401 120 400.5 104Q400 88 400 75Q400 56 401.5 39Q403 22 407 4L336 -6Q333 6 331.5 21Q330 36 330 55Q330 68 331 88.5Q332 109 334 127Q315 67 277.5 28Q240 -11 196 -11ZM212 59Q234 59 256.5 84Q279 109 297.5 152Q316 195 330 252Q344 309 349 373L352 410Q336 418 318.5 422Q301 426 276 426Q213 426 178 364.5Q143 303 143 196Q143 136 161 97.5Q179 59 212 59Z" glyph-name="acircumflex" horiz-adv-x="467" unicode="&#226;" /><glyph d="M132 571 218 702 286 705 353 571H289L249 651L196 571ZM165 -10Q113 -10 80.5 23Q48 56 48 110Q48 178 88.5 218.5Q129 259 222 282L306 303Q307 315 308 323Q309 331 309 343Q309 383 290 405Q271 427 228 427Q194 427 158 414Q122 401 91 378V448Q119 470 157.5 482Q196 494 238 494Q306 494 344.5 458.5Q383 423 383 353Q383 334 379 296Q375 258 371 217Q367 176 363 137Q359 98 359 77Q359 58 362.5 40.5Q366 23 373 4L303 -5Q296 8 292.5 30.5Q289 53 289 68Q272 29 240 9.5Q208 -10 165 -10ZM187 53Q230 53 259 92Q288 131 297 200L301 239L228 222Q172 209 146 186Q120 163 120 123Q120 89 138.5 71Q157 53 187 53Z" glyph-name="acircumflex.alt" horiz-adv-x="427" /><glyph d="M163 569 258 686 329 688 403 569H337L290 637L229 569ZM17 0 239 516 321 519 452 0H375L344 126H146L93 0ZM171 190H330L272 428Z" glyph-name="acircumflex.smcp" horiz-adv-x="471" /><glyph d="M234 581 279 645Q291 664 302 682Q313 700 319 716L391 713Q383 694 371 675Q359 656 343 634L301 581Z" glyph-name="acute" horiz-adv-x="440" unicode="&#180;" /><glyph d="M239 699 349 807H438L312 699Z" glyph-name="acute.case" horiz-adv-x="440" /><glyph d="M177 596 185 681H262L254 596ZM312 596 319 681H397L389 596ZM196 -11Q133 -11 99 45.5Q65 102 65 191Q65 331 123.5 412Q182 493 287 493Q333 493 370.5 483Q408 473 440 457Q433 427 427 386.5Q421 346 417 309L402 135Q401 120 400.5 104Q400 88 400 75Q400 56 401.5 39Q403 22 407 4L336 -6Q333 6 331.5 21Q330 36 330 55Q330 68 331 88.5Q332 109 334 127Q315 67 277.5 28Q240 -11 196 -11ZM212 59Q234 59 256.5 84Q279 109 297.5 152Q316 195 330 252Q344 309 349 373L352 410Q336 418 318.5 422Q301 426 276 426Q213 426 178 364.5Q143 303 143 196Q143 136 161 97.5Q179 59 212 59Z" glyph-name="adieresis" horiz-adv-x="467" unicode="&#228;" /><glyph d="M140 596 148 681H225L217 596ZM275 596 282 681H360L352 596ZM165 -10Q113 -10 80.5 23Q48 56 48 110Q48 178 88.5 218.5Q129 259 222 282L306 303Q307 315 308 323Q309 331 309 343Q309 383 290 405Q271 427 228 427Q194 427 158 414Q122 401 91 378V448Q119 470 157.5 482Q196 494 238 494Q306 494 344.5 458.5Q383 423 383 353Q383 334 379 296Q375 258 371 217Q367 176 363 137Q359 98 359 77Q359 58 362.5 40.5Q366 23 373 4L303 -5Q296 8 292.5 30.5Q289 53 289 68Q272 29 240 9.5Q208 -10 165 -10ZM187 53Q230 53 259 92Q288 131 297 200L301 239L228 222Q172 209 146 186Q120 163 120 123Q120 89 138.5 71Q157 53 187 53Z" glyph-name="adieresis.alt" horiz-adv-x="427" /><glyph d="M176 577 183 660H262L255 577ZM313 577 320 660H399L392 577ZM17 0 239 516 321 519 452 0H375L344 126H146L93 0ZM171 190H330L272 428Z" glyph-name="adieresis.smcp" horiz-adv-x="471" /><glyph d="M201 -11Q138 -11 101.5 43.5Q65 98 65 191Q65 331 123.5 412Q182 493 285 493Q325 493 357 484.5Q389 476 417 462Q439 477 465 485Q491 493 520 493Q579 493 612.5 460.5Q646 428 646 374Q646 317 609 280Q572 243 505 229L386 204Q386 133 416 96Q446 59 508 59Q544 59 573 73Q602 87 629 109L614 29Q590 10 559 -0.5Q528 -11 496 -11Q436 -11 394.5 16Q353 43 333 93Q308 42 273.5 15.5Q239 -11 201 -11ZM392 269 493 288Q530 295 550.5 315Q571 335 571 369Q571 397 554.5 413Q538 429 510 429Q466 429 431.5 388Q397 347 392 269ZM217 59Q243 59 267.5 94Q292 129 311 186Q310 193 310 202Q310 211 310 219Q311 273 324 321Q337 369 361 404Q345 415 323.5 420.5Q302 426 275 426Q214 426 178.5 364.5Q143 303 143 196Q143 135 162.5 97Q182 59 217 59Z" glyph-name="ae" horiz-adv-x="657" unicode="&#230;" /><glyph d="M-7 0 288 516H647L641 450H396L383 303H607L601 238H377L362 66H612L601 0H283L294 126H144L71 0ZM177 188H299L321 436Z" glyph-name="ae.smcp" horiz-adv-x="651" /><glyph d="M371 581 416 645Q428 664 439 682Q450 700 456 716L528 713Q520 694 508 675Q496 656 480 634L438 581ZM201 -11Q138 -11 101.5 43.5Q65 98 65 191Q65 331 123.5 412Q182 493 285 493Q325 493 357 484.5Q389 476 417 462Q439 477 465 485Q491 493 520 493Q579 493 612.5 460.5Q646 428 646 374Q646 317 609 280Q572 243 505 229L386 204Q386 133 416 96Q446 59 508 59Q544 59 573 73Q602 87 629 109L614 29Q590 10 559 -0.5Q528 -11 496 -11Q436 -11 394.5 16Q353 43 333 93Q308 42 273.5 15.5Q239 -11 201 -11ZM392 269 493 288Q530 295 550.5 315Q571 335 571 369Q571 397 554.5 413Q538 429 510 429Q466 429 431.5 388Q397 347 392 269ZM217 59Q243 59 267.5 94Q292 129 311 186Q310 193 310 202Q310 211 310 219Q311 273 324 321Q337 369 361 404Q345 415 323.5 420.5Q302 426 275 426Q214 426 178.5 364.5Q143 303 143 196Q143 135 162.5 97Q182 59 217 59Z" glyph-name="aeacute" horiz-adv-x="657" unicode="&#509;" /><glyph d="M320 571 430 679H519L393 571ZM-7 0 288 516H647L641 450H396L383 303H607L601 238H377L362 66H612L601 0H283L294 126H144L71 0ZM177 188H299L321 436Z" glyph-name="aeacute.smcp" horiz-adv-x="651" /><glyph d="M250 581 215 638Q204 657 194 676.5Q184 696 179 713L251 716Q257 699 265.5 681.5Q274 664 281 649L318 581ZM196 -11Q133 -11 99 45.5Q65 102 65 191Q65 331 123.5 412Q182 493 287 493Q333 493 370.5 483Q408 473 440 457Q433 427 427 386.5Q421 346 417 309L402 135Q401 120 400.5 104Q400 88 400 75Q400 56 401.5 39Q403 22 407 4L336 -6Q333 6 331.5 21Q330 36 330 55Q330 68 331 88.5Q332 109 334 127Q315 67 277.5 28Q240 -11 196 -11ZM212 59Q234 59 256.5 84Q279 109 297.5 152Q316 195 330 252Q344 309 349 373L352 410Q336 418 318.5 422Q301 426 276 426Q213 426 178 364.5Q143 303 143 196Q143 136 161 97.5Q179 59 212 59Z" glyph-name="agrave" horiz-adv-x="467" unicode="&#224;" /><glyph d="M213 581 178 638Q167 657 157 676.5Q147 696 142 713L214 716Q220 699 228.5 681.5Q237 664 244 649L281 581ZM165 -10Q113 -10 80.5 23Q48 56 48 110Q48 178 88.5 218.5Q129 259 222 282L306 303Q307 315 308 323Q309 331 309 343Q309 383 290 405Q271 427 228 427Q194 427 158 414Q122 401 91 378V448Q119 470 157.5 482Q196 494 238 494Q306 494 344.5 458.5Q383 423 383 353Q383 334 379 296Q375 258 371 217Q367 176 363 137Q359 98 359 77Q359 58 362.5 40.5Q366 23 373 4L303 -5Q296 8 292.5 30.5Q289 53 289 68Q272 29 240 9.5Q208 -10 165 -10ZM187 53Q230 53 259 92Q288 131 297 200L301 239L228 222Q172 209 146 186Q120 163 120 123Q120 89 138.5 71Q157 53 187 53Z" glyph-name="agrave.alt" horiz-adv-x="427" /><glyph d="M250 569 142 677H229L324 569ZM17 0 239 516 321 519 452 0H375L344 126H146L93 0ZM171 190H330L272 428Z" glyph-name="agrave.smcp" horiz-adv-x="471" /><glyph d="M183 606 188 662H387L383 606ZM196 -11Q133 -11 99 45.5Q65 102 65 191Q65 331 123.5 412Q182 493 287 493Q333 493 370.5 483Q408 473 440 457Q433 427 427 386.5Q421 346 417 309L402 135Q401 120 400.5 104Q400 88 400 75Q400 56 401.5 39Q403 22 407 4L336 -6Q333 6 331.5 21Q330 36 330 55Q330 68 331 88.5Q332 109 334 127Q315 67 277.5 28Q240 -11 196 -11ZM212 59Q234 59 256.5 84Q279 109 297.5 152Q316 195 330 252Q344 309 349 373L352 410Q336 418 318.5 422Q301 426 276 426Q213 426 178 364.5Q143 303 143 196Q143 136 161 97.5Q179 59 212 59Z" glyph-name="amacron" horiz-adv-x="467" unicode="&#257;" /><glyph d="M146 606 151 662H350L346 606ZM165 -10Q113 -10 80.5 23Q48 56 48 110Q48 178 88.5 218.5Q129 259 222 282L306 303Q307 315 308 323Q309 331 309 343Q309 383 290 405Q271 427 228 427Q194 427 158 414Q122 401 91 378V448Q119 470 157.5 482Q196 494 238 494Q306 494 344.5 458.5Q383 423 383 353Q383 334 379 296Q375 258 371 217Q367 176 363 137Q359 98 359 77Q359 58 362.5 40.5Q366 23 373 4L303 -5Q296 8 292.5 30.5Q289 53 289 68Q272 29 240 9.5Q208 -10 165 -10ZM187 53Q230 53 259 92Q288 131 297 200L301 239L228 222Q172 209 146 186Q120 163 120 123Q120 89 138.5 71Q157 53 187 53Z" glyph-name="amacron.alt" horiz-adv-x="427" /><glyph d="M176 589 181 647H399L393 589ZM17 0 239 516 321 519 452 0H375L344 126H146L93 0ZM171 190H330L272 428Z" glyph-name="amacron.smcp" horiz-adv-x="471" /><glyph d="M258 -11Q164 -11 111.5 38.5Q59 88 59 169Q59 232 88 279.5Q117 327 180 361Q168 390 162 419.5Q156 449 156 478Q156 553 198.5 605Q241 657 317 657Q379 657 415 622.5Q451 588 451 529Q451 454 406.5 410.5Q362 367 275 336Q302 288 344.5 242.5Q387 197 441 156Q463 196 476 252.5Q489 309 494 379L565 370Q557 291 540.5 227.5Q524 164 496 118Q521 102 547 87Q573 72 601 59L578 -8Q544 7 512 24.5Q480 42 452 61Q416 25 367.5 7Q319 -11 258 -11ZM249 391Q314 416 345 445.5Q376 475 376 523Q376 555 359 574Q342 593 311 593Q276 593 253.5 562Q231 531 231 482Q231 460 235.5 436.5Q240 413 249 391ZM273 57Q311 57 342 67.5Q373 78 396 100Q335 146 287 198Q239 250 208 304Q171 281 155 250Q139 219 139 176Q139 121 174.5 89Q210 57 273 57Z" glyph-name="ampersand" horiz-adv-x="612" unicode="&amp;" /><glyph d="M232 -11Q154 -11 108 28.5Q62 68 62 136Q62 190 89.5 228.5Q117 267 168 289Q158 313 152 336.5Q146 360 146 383Q146 449 185 488Q224 527 290 527Q345 527 377.5 498Q410 469 410 421Q410 361 375 324Q340 287 261 264Q283 230 317.5 197Q352 164 397 133Q416 164 428.5 207Q441 250 448 304L513 298Q506 237 490 187Q474 137 449 100Q471 87 495.5 74.5Q520 62 546 51L522 -10Q491 3 461.5 18Q432 33 405 49Q371 19 327.5 4Q284 -11 232 -11ZM234 313Q291 329 315.5 352Q340 375 340 415Q340 439 325.5 454Q311 469 285 469Q253 469 235 447.5Q217 426 217 388Q217 369 221.5 350.5Q226 332 234 313ZM245 52Q276 52 302.5 60Q329 68 351 84Q301 118 261 159Q221 200 194 241Q165 226 150 202Q135 178 135 144Q135 101 164.5 76.5Q194 52 245 52Z" glyph-name="ampersand.smcp" horiz-adv-x="560" /><glyph d="M335 -229Q297 -229 275 -207.5Q253 -186 253 -149Q253 -104 274.5 -70Q296 -36 337 -2L335 -1Q333 11 331.5 25Q330 39 330 55Q330 68 331 88.5Q332 109 334 127Q315 67 277.5 28Q240 -11 196 -11Q133 -11 99 45.5Q65 102 65 191Q65 331 123.5 412Q182 493 287 493Q333 493 370.5 483Q408 473 440 457Q433 427 427 386.5Q421 346 417 309L402 135Q401 120 400.5 104Q400 88 400 75Q400 56 402 38.5Q404 21 409 2Q362 -35 338.5 -66.5Q315 -98 315 -127Q315 -149 325 -161Q335 -173 353 -173Q366 -173 377.5 -169.5Q389 -166 400 -159L390 -216Q373 -223 362 -226Q351 -229 335 -229ZM212 59Q234 59 256.5 84Q279 109 297.5 152Q316 195 330 252Q344 309 349 373L352 410Q336 418 318.5 422Q301 426 276 426Q213 426 178 364.5Q143 303 143 196Q143 136 161 97.5Q179 59 212 59Z" glyph-name="aogonek" horiz-adv-x="467" unicode="&#261;" /><glyph d="M164 -11Q112 -11 79.5 22Q47 55 47 109Q47 177 87.5 217.5Q128 258 221 281L305 302Q306 314 307 322Q308 330 308 342Q308 382 289 404Q270 426 227 426Q193 426 157 413Q121 400 90 377V447Q118 469 156.5 481Q195 493 237 493Q305 493 343.5 457.5Q382 422 382 352Q382 333 378 295Q374 257 370 216Q366 175 362 136Q358 97 358 76Q358 57 361.5 39.5Q365 22 372 3H369Q325 -34 300.5 -66Q276 -98 276 -127Q276 -149 286 -161Q296 -173 314 -173Q327 -173 338.5 -169.5Q350 -166 361 -159L351 -216Q334 -223 323 -226Q312 -229 296 -229Q259 -229 236.5 -207.5Q214 -186 214 -149Q214 -108 236 -71.5Q258 -35 300 -1Q294 13 291 33.5Q288 54 288 67Q271 28 239 8.5Q207 -11 164 -11ZM186 52Q229 52 258 91Q287 130 296 199L300 238L227 221Q171 208 145 185Q119 162 119 122Q119 88 137.5 70Q156 52 186 52Z" glyph-name="aogonek.alt" horiz-adv-x="426" /><glyph d="M370 -229Q333 -229 310 -208Q287 -187 287 -150Q287 -114 310 -74Q333 -34 374 -3V3L344 126H146L93 0H17L239 516L321 519L452 0H443Q400 -37 377 -69Q354 -101 354 -127Q354 -151 362.5 -160Q371 -169 390 -169Q401 -169 411.5 -166.5Q422 -164 435 -157L427 -216Q409 -224 397.5 -226.5Q386 -229 370 -229ZM171 190H330L272 428Z" glyph-name="aogonek.smcp" horiz-adv-x="471" /><glyph d="M106 379 76 418Q98 466 129 491Q160 516 197 516Q223 516 243.5 504Q264 492 282.5 477.5Q301 463 320 451Q339 439 363 439Q386 439 407 456.5Q428 474 447 514L476 473Q454 423 423 398Q392 373 352 373Q326 373 305 385Q284 397 265.5 410.5Q247 424 228.5 436Q210 448 189 448Q164 448 145 431.5Q126 415 106 379ZM88 173 58 212Q80 260 111 285Q142 310 179 310Q205 310 225.5 298Q246 286 264.5 271.5Q283 257 302 245Q321 233 345 233Q368 233 389 250.5Q410 268 429 308L458 267Q436 217 405 192Q374 167 334 167Q308 167 287 179Q266 191 247.5 204.5Q229 218 210.5 230Q192 242 171 242Q146 242 127 225.5Q108 209 88 173Z" glyph-name="approxequal" horiz-adv-x="475" unicode="&#8776;" /><glyph d="M278 546Q239 546 216.5 568Q194 590 194 627Q194 677 220.5 707.5Q247 738 293 738Q332 738 355 715.5Q378 693 378 656Q378 607 351 576.5Q324 546 278 546ZM282 593Q301 593 312.5 608.5Q324 624 324 649Q324 668 314.5 679Q305 690 288 690Q270 690 258.5 674.5Q247 659 247 634Q247 615 256.5 604Q266 593 282 593ZM196 -11Q133 -11 99 45.5Q65 102 65 191Q65 331 123.5 412Q182 493 287 493Q333 493 370.5 483Q408 473 440 457Q433 427 427 386.5Q421 346 417 309L402 135Q401 120 400.5 104Q400 88 400 75Q400 56 401.5 39Q403 22 407 4L336 -6Q333 6 331.5 21Q330 36 330 55Q330 68 331 88.5Q332 109 334 127Q315 67 277.5 28Q240 -11 196 -11ZM212 59Q234 59 256.5 84Q279 109 297.5 152Q316 195 330 252Q344 309 349 373L352 410Q336 418 318.5 422Q301 426 276 426Q213 426 178 364.5Q143 303 143 196Q143 136 161 97.5Q179 59 212 59Z" glyph-name="aring" horiz-adv-x="467" unicode="&#229;" /><glyph d="M241 546Q202 546 179.5 568Q157 590 157 627Q157 677 183.5 707.5Q210 738 256 738Q295 738 318 715.5Q341 693 341 656Q341 607 314 576.5Q287 546 241 546ZM245 593Q264 593 275.5 608.5Q287 624 287 649Q287 668 277.5 679Q268 690 251 690Q233 690 221.5 674.5Q210 659 210 634Q210 615 219.5 604Q229 593 245 593ZM165 -10Q113 -10 80.5 23Q48 56 48 110Q48 178 88.5 218.5Q129 259 222 282L306 303Q307 315 308 323Q309 331 309 343Q309 383 290 405Q271 427 228 427Q194 427 158 414Q122 401 91 378V448Q119 470 157.5 482Q196 494 238 494Q306 494 344.5 458.5Q383 423 383 353Q383 334 379 296Q375 258 371 217Q367 176 363 137Q359 98 359 77Q359 58 362.5 40.5Q366 23 373 4L303 -5Q296 8 292.5 30.5Q289 53 289 68Q272 29 240 9.5Q208 -10 165 -10ZM187 53Q230 53 259 92Q288 131 297 200L301 239L228 222Q172 209 146 186Q120 163 120 123Q120 89 138.5 71Q157 53 187 53Z" glyph-name="aring.alt" horiz-adv-x="427" /><glyph d="M282 554Q245 554 221 575Q197 596 197 636Q197 680 224 711.5Q251 743 298 743Q336 743 359.5 722Q383 701 383 661Q383 617 356 585.5Q329 554 282 554ZM286 601Q305 601 317.5 616Q330 631 330 655Q330 674 320.5 685Q311 696 294 696Q275 696 263 680.5Q251 665 251 642Q251 623 260.5 612Q270 601 286 601ZM17 0 239 516 321 519 452 0H375L344 126H146L93 0ZM171 190H330L272 428Z" glyph-name="aring.smcp" horiz-adv-x="471" /><glyph d="M76 211 263 649H329L439 211H368L286 553L146 211Z" glyph-name="asciicircum" horiz-adv-x="480" unicode="^" /><glyph d="M97 275 67 314Q89 362 120 387Q151 412 188 412Q214 412 234.5 400Q255 388 273.5 373.5Q292 359 311 347Q330 335 354 335Q377 335 398 352.5Q419 370 438 410L467 369Q445 319 414 294Q383 269 343 269Q317 269 296 281Q275 293 256.5 306.5Q238 320 219.5 332Q201 344 180 344Q155 344 136 327.5Q117 311 97 275Z" glyph-name="asciitilde" horiz-adv-x="475" unicode="~" /><glyph d="M152 405 211 541 81 538 85 599 215 595 181 733 239 749 267 612 376 702 407 651 291 569 403 474 364 423 260 523 209 387Z" glyph-name="asterisk" horiz-adv-x="395" unicode="*" /><glyph d="M342 -127Q280 -127 229 -106Q178 -85 141.5 -45.5Q105 -6 84.5 52Q64 110 64 184Q64 281 91.5 360Q119 439 167.5 494Q216 549 283 579Q350 609 429 609Q491 609 540.5 587Q590 565 624.5 527Q659 489 677.5 438Q696 387 696 329Q696 275 684.5 224.5Q673 174 649.5 136Q626 98 588.5 75Q551 52 500 52Q471 52 451.5 67.5Q432 83 430 114Q429 120 428.5 129.5Q428 139 429 146Q410 94 381 72Q352 50 325 50Q281 50 253.5 92.5Q226 135 226 207Q226 314 275.5 378.5Q325 443 415 443Q445 443 473.5 435Q502 427 524 414Q518 392 512 360.5Q506 329 502 300L488 176Q487 170 487 164Q487 158 487 152Q487 128 494 118.5Q501 109 520 109Q543 109 562.5 125.5Q582 142 596.5 170Q611 198 619.5 236.5Q628 275 628 319Q628 419 572.5 482.5Q517 546 420 546Q358 546 305.5 522.5Q253 499 215 454Q177 409 155.5 343.5Q134 278 134 196Q134 73 191.5 5.5Q249 -62 358 -62Q395 -62 433.5 -52.5Q472 -43 506 -26L498 -95Q456 -114 421 -120.5Q386 -127 342 -127ZM340 108Q367 108 400 167.5Q433 227 444 338L447 375Q437 382 426.5 384.5Q416 387 403 387Q349 387 319.5 340.5Q290 294 290 212Q290 167 303.5 137.5Q317 108 340 108Z" glyph-name="at" horiz-adv-x="714" unicode="@" /><glyph d="M349 -42Q287 -42 236 -21Q185 0 148.5 39.5Q112 79 91.5 137Q71 195 71 269Q71 366 98.5 445Q126 524 174.5 579Q223 634 290 664Q357 694 436 694Q498 694 547.5 672Q597 650 631.5 612Q666 574 684.5 523Q703 472 703 414Q703 360 691.5 309.5Q680 259 656.5 221Q633 183 595.5 160Q558 137 507 137Q478 137 458.5 152.5Q439 168 437 199Q436 205 435.5 214.5Q435 224 436 231Q417 179 388 157Q359 135 332 135Q288 135 260.5 177.5Q233 220 233 292Q233 399 282.5 463.5Q332 528 422 528Q452 528 480.5 520Q509 512 531 499Q525 477 519 445.5Q513 414 509 385L495 261Q494 255 494 249Q494 243 494 237Q494 213 501 203.5Q508 194 527 194Q550 194 569.5 210.5Q589 227 603.5 255Q618 283 626.5 321.5Q635 360 635 404Q635 504 579.5 567.5Q524 631 427 631Q365 631 312.5 607.5Q260 584 222 539Q184 494 162.5 428.5Q141 363 141 281Q141 158 198.5 90.5Q256 23 365 23Q402 23 440.5 32.5Q479 42 513 59L505 -10Q463 -29 428 -35.5Q393 -42 349 -42ZM347 193Q374 193 407 252.5Q440 312 451 423L454 460Q444 467 433.5 469.5Q423 472 410 472Q356 472 326.5 425.5Q297 379 297 297Q297 252 310.5 222.5Q324 193 347 193Z" glyph-name="at.case" horiz-adv-x="715" /><glyph d="M174 585Q179 636 194.5 660Q210 684 240 684Q253 684 264 679Q275 674 284 667.5Q293 661 301.5 656Q310 651 319 651Q332 651 337.5 662.5Q343 674 345 696L397 692Q392 640 374.5 615Q357 590 325 590Q313 590 302.5 595.5Q292 601 282.5 607Q273 613 265 618.5Q257 624 251 624Q241 624 234.5 614.5Q228 605 227 585ZM196 -11Q133 -11 99 45.5Q65 102 65 191Q65 331 123.5 412Q182 493 287 493Q333 493 370.5 483Q408 473 440 457Q433 427 427 386.5Q421 346 417 309L402 135Q401 120 400.5 104Q400 88 400 75Q400 56 401.5 39Q403 22 407 4L336 -6Q333 6 331.5 21Q330 36 330 55Q330 68 331 88.5Q332 109 334 127Q315 67 277.5 28Q240 -11 196 -11ZM212 59Q234 59 256.5 84Q279 109 297.5 152Q316 195 330 252Q344 309 349 373L352 410Q336 418 318.5 422Q301 426 276 426Q213 426 178 364.5Q143 303 143 196Q143 136 161 97.5Q179 59 212 59Z" glyph-name="atilde" horiz-adv-x="467" unicode="&#227;" /><glyph d="M137 585Q142 636 157.5 660Q173 684 203 684Q216 684 227 679Q238 674 247 667.5Q256 661 264.5 656Q273 651 282 651Q295 651 300.5 662.5Q306 674 308 696L360 692Q355 640 337.5 615Q320 590 288 590Q276 590 265.5 595.5Q255 601 245.5 607Q236 613 228 618.5Q220 624 214 624Q204 624 197.5 614.5Q191 605 190 585ZM165 -10Q113 -10 80.5 23Q48 56 48 110Q48 178 88.5 218.5Q129 259 222 282L306 303Q307 315 308 323Q309 331 309 343Q309 383 290 405Q271 427 228 427Q194 427 158 414Q122 401 91 378V448Q119 470 157.5 482Q196 494 238 494Q306 494 344.5 458.5Q383 423 383 353Q383 334 379 296Q375 258 371 217Q367 176 363 137Q359 98 359 77Q359 58 362.5 40.5Q366 23 373 4L303 -5Q296 8 292.5 30.5Q289 53 289 68Q272 29 240 9.5Q208 -10 165 -10ZM187 53Q230 53 259 92Q288 131 297 200L301 239L228 222Q172 209 146 186Q120 163 120 123Q120 89 138.5 71Q157 53 187 53Z" glyph-name="atilde.alt" horiz-adv-x="427" /><glyph d="M164 574Q168 626 187.5 649.5Q207 673 240 673Q255 673 266 667.5Q277 662 286.5 656Q296 650 305.5 644.5Q315 639 326 639Q339 639 347 653Q355 667 357 688L409 681Q401 629 381 605Q361 581 324 581Q307 581 296 586Q285 591 276 597Q267 603 259.5 608Q252 613 243 613Q232 613 225 603Q218 593 215 574ZM17 0 239 516 321 519 452 0H375L344 126H146L93 0ZM171 190H330L272 428Z" glyph-name="atilde.smcp" horiz-adv-x="471" /><glyph d="M222 -10Q178 -10 139 1.5Q100 13 69 35Q75 63 81 99.5Q87 136 91 183L122 542Q126 587 127.5 628.5Q129 670 129 710L205 715Q206 702 206 693Q206 684 205 673Q205 655 203 624Q201 593 197 558L179 363Q201 422 236 457.5Q271 493 319 493Q382 493 417.5 438.5Q453 384 453 292Q453 155 394 72.5Q335 -10 222 -10ZM231 57Q303 57 339 120.5Q375 184 375 289Q375 350 354.5 386.5Q334 423 301 423Q257 423 216 342.5Q175 262 160 118L156 76Q174 66 191 61.5Q208 57 231 57Z" glyph-name="b" horiz-adv-x="477" unicode="b" /><glyph d="M74 0 119 516H251Q338 516 384.5 482Q431 448 431 391Q431 345 408.5 314Q386 283 340 270Q388 260 412 229.5Q436 199 436 152Q436 81 380 40.5Q324 0 220 0ZM173 293H243Q297 293 325.5 314.5Q354 336 354 379Q354 419 326.5 437Q299 455 248 455H187ZM153 61H228Q291 61 325 82.5Q359 104 359 153Q359 196 330 216Q301 236 241 236H168Z" glyph-name="b.smcp" horiz-adv-x="467" /><glyph d="M319 -250 83 750H145L382 -250Z" glyph-name="backslash" horiz-adv-x="421" unicode="\" /><glyph d="M60 -250 148 750H208L120 -250Z" glyph-name="bar" horiz-adv-x="225" unicode="|" /><glyph d="M268 -238Q182 -238 145.5 -210.5Q109 -183 109 -119Q109 -97 112 -58.5Q115 -20 119 19Q123 58 126 91.5Q129 125 129 138Q129 175 112.5 191.5Q96 208 55 214L61 280Q110 287 128.5 309Q147 331 152 387L169 587Q176 665 216 698.5Q256 732 350 732L347 662Q289 662 268.5 642.5Q248 623 244 563L227 379Q222 323 200 290Q178 257 130 247Q169 237 187.5 210.5Q206 184 206 138Q206 126 203 94.5Q200 63 196.5 26.5Q193 -10 190 -45Q187 -80 187 -99Q187 -140 205.5 -154Q224 -168 274 -168Z" glyph-name="braceleft" horiz-adv-x="317" unicode="{" /><glyph d="M270 -91Q191 -91 157 -62Q123 -33 123 27Q123 34 123 41Q123 48 124 55L135 176Q136 186 136.5 194Q137 202 137 209Q137 256 117.5 271.5Q98 287 61 293L67 354Q115 361 134.5 382Q154 403 161 472L171 591Q178 665 213.5 701Q249 737 339 737L344 664Q313 664 295 660Q277 656 267.5 646Q258 636 254 617.5Q250 599 247 570L237 456Q231 382 202 357Q173 332 136 323Q169 315 192 295Q215 275 215 215Q215 210 215 204Q215 198 214 192L204 77Q203 68 203 60.5Q203 53 203 47Q203 8 220.5 -5Q238 -18 283 -18Z" glyph-name="braceleft.case" horiz-adv-x="316" /><glyph d="M247 -83Q178 -83 145.5 -58.5Q113 -34 113 14Q113 21 113 27.5Q113 34 114 41L122 137Q123 150 123.5 155Q124 160 124 164Q124 195 110 209.5Q96 224 61 228L67 288Q110 295 125.5 312.5Q141 330 145 381L154 480Q159 543 196 571Q233 599 310 599L314 532Q262 532 246.5 519Q231 506 227 460L218 364Q214 313 192 289.5Q170 266 130 259Q165 252 182.5 233Q200 214 200 172Q200 166 200 160Q200 154 199 150L190 60Q189 53 188.5 47.5Q188 42 188 35Q188 5 203.5 -5Q219 -15 259 -15Z" glyph-name="braceleft.smcp" horiz-adv-x="296" /><glyph d="M92 732Q178 732 214.5 704.5Q251 677 251 613Q251 591 248 552.5Q245 514 241 475Q237 436 234 402.5Q231 369 231 356Q231 319 247.5 302.5Q264 286 305 280L299 214Q250 207 231.5 185Q213 163 208 107L191 -93Q184 -171 144 -204.5Q104 -238 10 -238L13 -168Q71 -168 91.5 -148.5Q112 -129 116 -69L133 115Q138 171 160 204Q182 237 230 247Q191 257 172.5 283.5Q154 310 154 356Q154 368 157 399.5Q160 431 163.5 467.5Q167 504 170 539Q173 574 173 593Q173 634 154.5 648Q136 662 86 662Z" glyph-name="braceright" horiz-adv-x="316" unicode="}" /><glyph d="M103 737Q182 737 216 708Q250 679 250 619Q250 612 250 605Q250 598 249 591L238 470Q237 460 236.5 452Q236 444 236 437Q236 390 255.5 374.5Q275 359 312 353L306 292Q258 285 238.5 264Q219 243 212 174L202 55Q195 -19 159.5 -55Q124 -91 34 -91L29 -18Q60 -18 78 -14Q96 -10 105.5 0Q115 10 119 28.5Q123 47 126 76L136 190Q142 264 171 289Q200 314 237 323Q204 331 181 351Q158 371 158 431Q158 436 158 442Q158 448 159 454L169 569Q170 578 170 585.5Q170 593 170 599Q170 638 152.5 651Q135 664 90 664Z" glyph-name="braceright.case" horiz-adv-x="316" /><glyph d="M94 600Q163 600 195.5 575.5Q228 551 228 503Q228 496 228 489.5Q228 483 227 476L219 380Q218 367 217.5 362Q217 357 217 353Q217 322 231 307.5Q245 293 280 289L274 229Q231 222 215.5 204.5Q200 187 196 136L187 37Q182 -26 145 -54Q108 -82 31 -82L27 -15Q79 -15 94.5 -2Q110 11 114 57L123 153Q127 204 149 227.5Q171 251 211 258Q176 265 158.5 284Q141 303 141 345Q141 351 141 357Q141 363 142 367L151 457Q152 464 152.5 469.5Q153 475 153 482Q153 512 137.5 522Q122 532 82 532Z" glyph-name="braceright.smcp" horiz-adv-x="296" /><glyph d="M78 -243 163 733H362L356 664H231L158 -174H283L277 -243Z" glyph-name="bracketleft" horiz-adv-x="316" unicode="[" /><glyph d="M88 -91 160 737H355L349 664H231L171 -18H289L283 -91Z" glyph-name="bracketleft.case" horiz-adv-x="316" /><glyph d="M82 -86 143 603H321L315 536H212L164 -18H266L261 -86Z" glyph-name="bracketleft.smcp" horiz-adv-x="297" /><glyph d="M281 733 196 -243H-3L3 -174H128L201 664H76L82 733Z" glyph-name="bracketright" horiz-adv-x="316" unicode="]" /><glyph d="M285 737 213 -91H18L24 -18H142L202 664H84L90 737Z" glyph-name="bracketright.case" horiz-adv-x="316" /><glyph d="M259 602 198 -87H20L26 -20H129L177 534H75L80 602Z" glyph-name="bracketright.smcp" horiz-adv-x="296" /><glyph d="M269 567Q221 567 198.5 596Q176 625 176 676Q176 681 176 687Q176 693 177 700H231V691Q231 657 241.5 640Q252 623 274 623Q297 623 310.5 641.5Q324 660 328 700H383Q377 634 348.5 600.5Q320 567 269 567Z" glyph-name="breve" horiz-adv-x="440" unicode="&#728;" /><glyph d="M280 688Q229 688 202 720.5Q175 753 175 813H231Q234 780 247.5 763Q261 746 285 746Q309 746 326.5 763Q344 780 351 813H407Q399 755 366 721.5Q333 688 280 688Z" glyph-name="breve.case" horiz-adv-x="440" /><glyph d="M108 305 148 750H208L169 305ZM60 -250 99 195H160L120 -250Z" glyph-name="brokenbar" horiz-adv-x="225" unicode="&#166;" /><glyph d="M86 247 102 431H283L267 247Z" glyph-name="bullet" horiz-adv-x="310" unicode="&#8226;" /><glyph d="M239 -11Q155 -11 109.5 45Q64 101 64 203Q64 337 123.5 415Q183 493 278 493Q305 493 332 485.5Q359 478 381 464L366 392Q345 407 321.5 415Q298 423 276 423Q216 423 179 368Q142 313 142 211Q142 138 169 99Q196 60 250 60Q272 60 296.5 67Q321 74 346 90L334 16Q312 3 287.5 -4Q263 -11 239 -11Z" glyph-name="c" horiz-adv-x="368" unicode="c" /><glyph d="M269 -11Q169 -11 118 52Q67 115 67 217Q67 283 83 340.5Q99 398 130.5 439Q162 480 209 503.5Q256 527 317 527Q349 527 380 520Q411 513 436 500L417 429Q395 442 369 449.5Q343 457 315 457Q231 457 188.5 392.5Q146 328 146 221Q146 142 181.5 101Q217 60 281 60Q309 60 338 69Q367 78 395 94L382 16Q359 4 329 -3.5Q299 -11 269 -11Z" glyph-name="c.smcp" horiz-adv-x="427" /><glyph d="M234 581 279 645Q291 664 302 682Q313 700 319 716L391 713Q383 694 371 675Q359 656 343 634L301 581ZM239 -11Q155 -11 109.5 45Q64 101 64 203Q64 337 123.5 415Q183 493 278 493Q305 493 332 485.5Q359 478 381 464L366 392Q345 407 321.5 415Q298 423 276 423Q216 423 179 368Q142 313 142 211Q142 138 169 99Q196 60 250 60Q272 60 296.5 67Q321 74 346 90L334 16Q312 3 287.5 -4Q263 -11 239 -11Z" glyph-name="cacute" horiz-adv-x="368" unicode="&#263;" /><glyph d="M272 569 382 677H471L345 569ZM269 -11Q169 -11 118 52Q67 115 67 217Q67 283 83 340.5Q99 398 130.5 439Q162 480 209 503.5Q256 527 317 527Q349 527 380 520Q411 513 436 500L417 429Q395 442 369 449.5Q343 457 315 457Q231 457 188.5 392.5Q146 328 146 221Q146 142 181.5 101Q217 60 281 60Q309 60 338 69Q367 78 395 94L382 16Q359 4 329 -3.5Q299 -11 269 -11Z" glyph-name="cacute.smcp" horiz-adv-x="427" /><glyph d="M239 567 170 700H228L273 617L329 700H392L303 570Z" glyph-name="caron" horiz-adv-x="440" unicode="&#711;" /><glyph d="M245 691 171 810H235L284 740L344 810H409L313 692Z" glyph-name="caron.case" horiz-adv-x="440" /><glyph d="M236 533Q241 550 247.5 574Q254 598 260 623.5Q266 649 271.5 672.5Q277 696 280 712H348Q344 694 337 670Q330 646 322.5 621Q315 596 307 573Q299 550 292 533Z" glyph-name="caronSlovak" horiz-adv-x="440" /><glyph d="M225 463Q233 484 241.5 508.5Q250 533 257 557.5Q264 582 270 605Q276 628 280 646H351Q346 625 338 600.5Q330 576 320.5 551Q311 526 300.5 503Q290 480 281 463Z" glyph-name="caronSlovak.case" horiz-adv-x="440" /><glyph d="M239 567 170 700H228L273 617L329 700H392L303 570ZM239 -11Q155 -11 109.5 45Q64 101 64 203Q64 337 123.5 415Q183 493 278 493Q305 493 332 485.5Q359 478 381 464L366 392Q345 407 321.5 415Q298 423 276 423Q216 423 179 368Q142 313 142 211Q142 138 169 99Q196 60 250 60Q272 60 296.5 67Q321 74 346 90L334 16Q312 3 287.5 -4Q263 -11 239 -11Z" glyph-name="ccaron" horiz-adv-x="368" unicode="&#269;" /><glyph d="M278 561 204 680H268L317 610L377 680H442L346 562ZM269 -11Q169 -11 118 52Q67 115 67 217Q67 283 83 340.5Q99 398 130.5 439Q162 480 209 503.5Q256 527 317 527Q349 527 380 520Q411 513 436 500L417 429Q395 442 369 449.5Q343 457 315 457Q231 457 188.5 392.5Q146 328 146 221Q146 142 181.5 101Q217 60 281 60Q309 60 338 69Q367 78 395 94L382 16Q359 4 329 -3.5Q299 -11 269 -11Z" glyph-name="ccaron.smcp" horiz-adv-x="427" /><glyph d="M179 -228Q162 -228 147 -224.5Q132 -221 120 -215V-162Q135 -169 148.5 -173Q162 -177 178 -177Q197 -177 208 -167.5Q219 -158 219 -140Q219 -120 202.5 -106Q186 -92 157 -90L188 -5Q128 10 96 63.5Q64 117 64 203Q64 337 123.5 415Q183 493 278 493Q305 493 332 485.5Q359 478 381 464L366 392Q345 407 321.5 415Q298 423 276 423Q216 423 179 368Q142 313 142 211Q142 138 169 99Q196 60 250 60Q272 60 296.5 67Q321 74 346 90L334 16Q313 3 289 -3.5Q265 -10 240 -10L221 -56Q250 -63 267 -85Q284 -107 284 -135Q284 -179 256 -203.5Q228 -228 179 -228Z" glyph-name="ccedilla" horiz-adv-x="368" unicode="&#231;" /><glyph d="M216 -229Q198 -229 183.5 -225.5Q169 -222 153 -215V-161Q168 -169 181 -173.5Q194 -178 211 -178Q231 -178 242.5 -167.5Q254 -157 254 -138Q254 -119 237.5 -105Q221 -91 190 -88L219 -7Q144 9 105.5 68.5Q67 128 67 217Q67 283 83 340.5Q99 398 130.5 439Q162 480 209 503.5Q256 527 317 527Q349 527 380 520Q411 513 436 500L417 429Q395 442 369 449.5Q343 457 315 457Q231 457 188.5 392.5Q146 328 146 221Q146 142 181.5 101Q217 60 281 60Q309 60 338 69Q367 78 395 94L382 16Q360 5 330.5 -2.5Q301 -10 273 -11L256 -54Q285 -62 301 -83.5Q317 -105 317 -134Q317 -179 288.5 -204Q260 -229 216 -229Z" glyph-name="ccedilla.smcp" horiz-adv-x="427" /><glyph d="M159 571 245 702 313 705 380 571H316L276 651L223 571ZM239 -11Q155 -11 109.5 45Q64 101 64 203Q64 337 123.5 415Q183 493 278 493Q305 493 332 485.5Q359 478 381 464L366 392Q345 407 321.5 415Q298 423 276 423Q216 423 179 368Q142 313 142 211Q142 138 169 99Q196 60 250 60Q272 60 296.5 67Q321 74 346 90L334 16Q312 3 287.5 -4Q263 -11 239 -11Z" glyph-name="ccircumflex" horiz-adv-x="368" unicode="&#265;" /><glyph d="M194 569 289 686 360 688 434 569H368L321 637L260 569ZM269 -11Q169 -11 118 52Q67 115 67 217Q67 283 83 340.5Q99 398 130.5 439Q162 480 209 503.5Q256 527 317 527Q349 527 380 520Q411 513 436 500L417 429Q395 442 369 449.5Q343 457 315 457Q231 457 188.5 392.5Q146 328 146 221Q146 142 181.5 101Q217 60 281 60Q309 60 338 69Q367 78 395 94L382 16Q359 4 329 -3.5Q299 -11 269 -11Z" glyph-name="ccircumflex.smcp" horiz-adv-x="427" /><glyph d="M232 595 239 682H320L314 595ZM239 -11Q155 -11 109.5 45Q64 101 64 203Q64 337 123.5 415Q183 493 278 493Q305 493 332 485.5Q359 478 381 464L366 392Q345 407 321.5 415Q298 423 276 423Q216 423 179 368Q142 313 142 211Q142 138 169 99Q196 60 250 60Q272 60 296.5 67Q321 74 346 90L334 16Q312 3 287.5 -4Q263 -11 239 -11Z" glyph-name="cdotaccent" horiz-adv-x="368" unicode="&#267;" /><glyph d="M274 577 281 660H363L355 577ZM269 -11Q169 -11 118 52Q67 115 67 217Q67 283 83 340.5Q99 398 130.5 439Q162 480 209 503.5Q256 527 317 527Q349 527 380 520Q411 513 436 500L417 429Q395 442 369 449.5Q343 457 315 457Q231 457 188.5 392.5Q146 328 146 221Q146 142 181.5 101Q217 60 281 60Q309 60 338 69Q367 78 395 94L382 16Q359 4 329 -3.5Q299 -11 269 -11Z" glyph-name="cdotaccent.smcp" horiz-adv-x="427" /><glyph d="M187 -228Q169 -228 154 -224.5Q139 -221 127 -215V-162Q142 -169 155.5 -173Q169 -177 185 -177Q204 -177 215 -167.5Q226 -158 226 -140Q226 -120 209.5 -106Q193 -92 164 -90L197 1L253 2L228 -56Q257 -63 274 -85Q291 -107 291 -135Q291 -179 263 -203.5Q235 -228 187 -228Z" glyph-name="cedilla" horiz-adv-x="440" unicode="&#184;" /><glyph d="M190 -229Q173 -229 158.5 -225.5Q144 -222 128 -215V-161Q142 -169 155 -173.5Q168 -178 186 -178Q205 -178 217 -167.5Q229 -157 229 -138Q229 -119 212 -105Q195 -91 165 -88L196 1H252L230 -54Q259 -62 275 -83.5Q291 -105 291 -134Q291 -179 262.5 -204Q234 -229 190 -229Z" glyph-name="cedilla.case" horiz-adv-x="440" /><glyph d="M192 -120 232 79Q169 95 134 148.5Q99 202 99 285Q99 353 116 407Q133 461 164 498Q195 535 237.5 555Q280 575 331 575L366 750H418L382 570Q400 566 417 559.5Q434 553 448 545L432 474Q418 483 401 489.5Q384 496 368 500L297 142Q298 142 300.5 142Q303 142 304 142Q330 142 357.5 149.5Q385 157 413 173L399 99Q375 86 348 78.5Q321 71 292 71Q290 71 287.5 71Q285 71 283 71L245 -120ZM181 292Q181 238 197.5 203Q214 168 247 153L317 504Q254 499 217.5 443.5Q181 388 181 292Z" glyph-name="cent" horiz-adv-x="475" unicode="&#162;" /><glyph d="M161 -97 193 61Q139 77 107.5 120Q76 163 76 228Q76 333 132.5 396Q189 459 275 463L303 600H353L324 460Q342 457 359 451.5Q376 446 389 439L375 375Q361 383 344.5 389Q328 395 312 398L254 115Q256 115 258 115Q260 115 262 115Q285 115 309 121Q333 127 357 140L346 76Q324 65 300.5 59.5Q277 54 252 54Q250 54 247 54Q244 54 242 54L211 -97ZM148 234Q148 192 163 165Q178 138 206 125L262 398Q211 391 179.5 349Q148 307 148 234Z" glyph-name="cent.smcp" horiz-adv-x="408" /><glyph d="M159 571 245 702 313 705 380 571H316L276 651L223 571Z" glyph-name="circumflex" horiz-adv-x="440" unicode="&#710;" /><glyph d="M161 699 256 816 327 818 401 699H335L288 767L227 699Z" glyph-name="circumflex.case" horiz-adv-x="440" /><glyph d="M89 299 97 394H185L177 299ZM63 0 71 95H159L151 0Z" glyph-name="colon" horiz-adv-x="214" unicode=":" /><glyph d="M93 -148 27 -136Q52 -88 64 -49Q76 -10 81 50L84 94H157L154 53Q150 -7 137 -53.5Q124 -100 93 -148Z" glyph-name="comma" horiz-adv-x="214" unicode="," /><glyph d="M201 -236 144 -229Q163 -189 170.5 -159.5Q178 -130 182 -80L183 -68H247L245 -85Q241 -140 231.5 -171Q222 -202 201 -236Z" glyph-name="commaaccent" horiz-adv-x="440" unicode="&#63171;" /><glyph d="M202 -235 143 -229Q161 -189 168 -158.5Q175 -128 179 -83L180 -68H248L246 -85Q242 -130 233 -164.5Q224 -199 202 -235Z" glyph-name="commaaccent.case" horiz-adv-x="440" /><glyph d="M346 -26Q221 -26 148 55.5Q75 137 75 275Q75 360 97.5 433.5Q120 507 162 559.5Q204 612 265.5 642Q327 672 405 672Q530 672 603 590.5Q676 509 676 371Q676 286 653.5 212.5Q631 139 589 86.5Q547 34 485.5 4Q424 -26 346 -26ZM351 40Q411 40 458.5 63.5Q506 87 538.5 130Q571 173 588 234Q605 295 605 369Q605 485 550.5 545.5Q496 606 400 606Q340 606 292.5 582.5Q245 559 212.5 516Q180 473 163 412Q146 351 146 277Q146 160 200.5 100Q255 40 351 40ZM377 139Q313 139 274.5 182.5Q236 226 236 300Q236 398 283.5 453.5Q331 509 405 509Q430 509 453 503Q476 497 492 487L479 429Q462 441 444 446.5Q426 452 404 452Q357 452 328.5 415.5Q300 379 300 304Q300 253 323.5 224.5Q347 196 386 196Q408 196 428.5 203Q449 210 469 225L458 162Q439 150 419 144.5Q399 139 377 139Z" glyph-name="copyright" horiz-adv-x="695" unicode="&#169;" /><glyph d="M79 93 43 139 109 207Q97 229 90 255.5Q83 282 84 311Q85 348 97 384Q109 420 130 448L76 515L121 561L175 494Q198 512 226 522Q254 532 284 532Q313 532 339.5 522Q366 512 385 494L452 561L489 515L422 448Q435 427 441 400.5Q447 374 446 345Q446 307 434.5 271Q423 235 402 207L456 139L411 93L357 162Q332 143 304.5 132.5Q277 122 248 122Q219 122 192.5 132.5Q166 143 145 162ZM253 194Q307 194 342.5 235.5Q378 277 379 338Q380 391 352 425.5Q324 460 278 460Q224 460 188.5 418.5Q153 377 152 316Q151 263 179 228.5Q207 194 253 194Z" glyph-name="currency" horiz-adv-x="474" unicode="&#164;" /><glyph d="M201 -11Q137 -11 101 43.5Q65 98 65 191Q65 329 121.5 411Q178 493 282 493Q303 493 326 489Q349 485 365 478L371 546Q375 591 376.5 630.5Q378 670 378 710L453 715Q454 702 454 693Q454 684 454 673Q454 655 451.5 624Q449 593 446 558L409 135Q408 122 407.5 106Q407 90 407 75Q407 57 408.5 40Q410 23 414 4L343 -6Q340 9 339 24Q338 39 338 53Q337 66 338.5 88.5Q340 111 342 127Q321 64 282.5 26.5Q244 -11 201 -11ZM216 59Q240 59 263 83.5Q286 108 304.5 150.5Q323 193 336.5 251Q350 309 356 375L359 407Q343 417 322 421.5Q301 426 279 426Q214 426 178 364.5Q142 303 142 193Q142 133 162 96Q182 59 216 59Z" glyph-name="d" horiz-adv-x="473" unicode="d" /><glyph d="M74 0 119 516H180Q245 516 298.5 499.5Q352 483 390.5 452Q429 421 450 375.5Q471 330 471 273Q471 142 392 71Q313 0 159 0ZM155 68H168Q283 68 337 118Q391 168 391 272Q391 356 336 400Q281 444 197 448H188Z" glyph-name="d.smcp" horiz-adv-x="492" /><glyph d="M177 -211 231 413H86L93 482H238L256 689H329L311 482H466L460 413H305L251 -211Z" glyph-name="dagger" horiz-adv-x="475" unicode="&#8224;" /><glyph d="M177 -211 196 0H50L57 70H201L231 413H86L93 482H238L256 689H329L311 482H466L460 413H305L275 70H431L425 0H270L251 -211Z" glyph-name="daggerdbl" horiz-adv-x="475" unicode="&#8225;" /><glyph d="M201 -11Q137 -11 101 43.5Q65 98 65 191Q65 329 121.5 411Q178 493 282 493Q303 493 326 489Q349 485 365 478L371 546Q375 591 376.5 630.5Q378 670 378 710L453 715Q454 702 454 693Q454 684 454 673Q454 655 451.5 624Q449 593 446 558L409 135Q408 122 407.5 106Q407 90 407 75Q407 57 408.5 40Q410 23 414 4L343 -6Q340 9 339 24Q338 39 338 53Q337 66 338.5 88.5Q340 111 342 127Q321 64 282.5 26.5Q244 -11 201 -11ZM487 533Q492 550 498.5 574Q505 598 511 623.5Q517 649 522.5 672.5Q528 696 531 712H599Q595 694 588 670Q581 646 573.5 621Q566 596 558 573Q550 550 543 533ZM216 59Q240 59 263 83.5Q286 108 304.5 150.5Q323 193 336.5 251Q350 309 356 375L359 407Q343 417 322 421.5Q301 426 279 426Q214 426 178 364.5Q142 303 142 193Q142 133 162 96Q182 59 216 59Z" glyph-name="dcaron" horiz-adv-x="473" unicode="&#271;" /><glyph d="M261 561 187 680H251L300 610L360 680H425L329 562ZM74 0 119 516H180Q245 516 298.5 499.5Q352 483 390.5 452Q429 421 450 375.5Q471 330 471 273Q471 142 392 71Q313 0 159 0ZM155 68H168Q283 68 337 118Q391 168 391 272Q391 356 336 400Q281 444 197 448H188Z" glyph-name="dcaron.smcp" horiz-adv-x="492" /><glyph d="M201 -11Q137 -11 101 43.5Q65 98 65 191Q65 329 121.5 411Q178 493 282 493Q303 493 326 489Q349 485 365 478L373 571H282L287 625H376Q377 647 377.5 667.5Q378 688 378 710L453 715Q454 702 454 693Q454 684 454 673Q454 665 453 652.5Q452 640 451 625H503L498 571H447L409 135Q408 122 407.5 106Q407 90 407 75Q407 57 408.5 40Q410 23 414 4L343 -6Q340 9 339 24Q338 39 338 53Q337 66 338.5 88.5Q340 111 342 127Q321 64 282.5 26.5Q244 -11 201 -11ZM216 59Q240 59 263 83.5Q286 108 304.5 150.5Q323 193 336.5 251Q350 309 356 375L359 407Q343 417 322 421.5Q301 426 279 426Q214 426 178 364.5Q142 303 142 193Q142 133 162 96Q182 59 216 59Z" glyph-name="dcroat" horiz-adv-x="473" unicode="&#273;" /><glyph d="M74 0 95 240H52L56 293H99L119 516H180Q245 516 298.5 499.5Q352 483 390.5 452Q429 421 450 375.5Q471 330 471 273Q471 142 392 71Q313 0 159 0ZM155 68H168Q283 68 337 118Q391 168 391 272Q391 356 336 402Q281 448 197 448H188L174 293H286L283 240H170Z" glyph-name="dcroat.smcp" horiz-adv-x="492" /><glyph d="M199 301Q142 301 108.5 342Q75 383 76 452Q77 542 119.5 598Q162 654 231 654Q288 654 321 613Q354 572 353 503Q352 413 309 357Q266 301 199 301ZM204 360Q241 360 263.5 397.5Q286 435 287 498Q288 544 271.5 569.5Q255 595 225 595Q188 595 165.5 557.5Q143 520 142 457Q141 411 157.5 385.5Q174 360 204 360Z" glyph-name="degree" horiz-adv-x="343" unicode="&#176;" /><glyph d="M167 596 175 681H252L244 596ZM302 596 309 681H387L379 596Z" glyph-name="dieresis" horiz-adv-x="442" unicode="&#168;" /><glyph d="M174 707 181 790H260L253 707ZM311 707 318 790H397L390 707Z" glyph-name="dieresis.case" horiz-adv-x="440" /><glyph d="M237 463 246 557H327L319 463ZM89 308 94 370H445L439 308ZM208 121 216 215H298L289 121Z" glyph-name="divide" horiz-adv-x="475" unicode="&#247;" /><glyph d="M152 -120 175 -7Q145 -2 117 9Q89 20 65 36V118Q96 97 126.5 83.5Q157 70 190 64L238 297Q169 335 136 380.5Q103 426 103 484Q103 563 157.5 610Q212 657 303 657Q305 657 307.5 657Q310 657 313 657L332 750H384L363 651Q388 646 412.5 636.5Q437 627 458 615L442 540Q417 554 394 564Q371 574 349 579L303 357L309 353Q377 317 406.5 275.5Q436 234 436 176Q436 90 383 39.5Q330 -11 229 -11H227L204 -120ZM184 492Q184 459 201.5 432.5Q219 406 256 383L298 585Q244 585 214 561.5Q184 538 184 492ZM355 165Q355 199 338 224Q321 249 285 271L241 61Q297 63 326 90.5Q355 118 355 165Z" glyph-name="dollar" horiz-adv-x="475" unicode="$" /><glyph d="M141 -97 160 -6Q132 -2 106 7Q80 16 60 28V99Q88 83 116 72Q144 61 174 57L212 236Q152 264 122 299.5Q92 335 92 387Q92 450 138.5 488Q185 526 264 526Q266 526 268.5 526Q271 526 273 526L289 600H338L321 521Q346 517 368 509.5Q390 502 409 492L393 426Q372 437 350.5 445Q329 453 308 457L273 290L278 287Q337 259 364 226Q391 193 391 142Q391 73 342.5 31.5Q294 -10 209 -10L191 -97ZM167 393Q167 368 182 348.5Q197 329 228 312L260 462Q212 462 189.5 446Q167 430 167 393ZM315 132Q315 161 300.5 180Q286 199 257 215L223 54Q268 56 291.5 75.5Q315 95 315 132Z" glyph-name="dollar.smcp" horiz-adv-x="434" /><glyph d="M232 595 239 682H320L314 595Z" glyph-name="dotaccent" horiz-adv-x="440" unicode="&#729;" /><glyph d="M241 707 248 790H330L322 707Z" glyph-name="dotaccent.case" horiz-adv-x="440" /><glyph d="M73 0 115 483H189L147 0Z" glyph-name="dotlessi" horiz-adv-x="221" unicode="&#305;" /><glyph d="M-21 -226V-160Q28 -144 47.5 -113.5Q67 -83 72 -20L115 483H189L146 -29Q139 -117 101 -162.5Q63 -208 -21 -226Z" glyph-name="dotlessj" horiz-adv-x="221" unicode="&#567;" /><glyph d="M250 -11Q163 -11 113.5 46Q64 103 64 206Q64 268 78.5 320.5Q93 373 120 411.5Q147 450 185.5 471.5Q224 493 273 493Q333 493 366.5 463Q400 433 400 379Q400 320 363 284Q326 248 259 232L140 203Q140 133 169.5 96Q199 59 262 59Q298 59 327.5 72.5Q357 86 382 109L368 29Q345 10 313.5 -0.5Q282 -11 250 -11ZM146 270 245 294Q282 303 303.5 321.5Q325 340 325 374Q325 402 308.5 415.5Q292 429 264 429Q220 429 185.5 387Q151 345 146 270Z" glyph-name="e" horiz-adv-x="411" unicode="e" /><glyph d="M74 0 119 516H442L436 450H187L174 303H402L396 238H169L153 66H407L396 0Z" glyph-name="e.smcp" horiz-adv-x="442" /><glyph d="M235 581 280 645Q292 664 303 682Q314 700 320 716L392 713Q384 694 372 675Q360 656 344 634L302 581ZM250 -11Q163 -11 113.5 46Q64 103 64 206Q64 268 78.5 320.5Q93 373 120 411.5Q147 450 185.5 471.5Q224 493 273 493Q333 493 366.5 463Q400 433 400 379Q400 320 363 284Q326 248 259 232L140 203Q140 133 169.5 96Q199 59 262 59Q298 59 327.5 72.5Q357 86 382 109L368 29Q345 10 313.5 -0.5Q282 -11 250 -11ZM146 270 245 294Q282 303 303.5 321.5Q325 340 325 374Q325 402 308.5 415.5Q292 429 264 429Q220 429 185.5 387Q151 345 146 270Z" glyph-name="eacute" horiz-adv-x="411" unicode="&#233;" /><glyph d="M242 569 352 677H441L315 569ZM74 0 119 516H442L436 450H187L174 303H402L396 238H169L153 66H407L396 0Z" glyph-name="eacute.smcp" horiz-adv-x="442" /><glyph d="M270 567Q222 567 199.5 596Q177 625 177 676Q177 681 177 687Q177 693 178 700H232V691Q232 657 242.5 640Q253 623 275 623Q298 623 311.5 641.5Q325 660 329 700H384Q378 634 349.5 600.5Q321 567 270 567ZM250 -11Q163 -11 113.5 46Q64 103 64 206Q64 268 78.5 320.5Q93 373 120 411.5Q147 450 185.5 471.5Q224 493 273 493Q333 493 366.5 463Q400 433 400 379Q400 320 363 284Q326 248 259 232L140 203Q140 133 169.5 96Q199 59 262 59Q298 59 327.5 72.5Q357 86 382 109L368 29Q345 10 313.5 -0.5Q282 -11 250 -11ZM146 270 245 294Q282 303 303.5 321.5Q325 340 325 374Q325 402 308.5 415.5Q292 429 264 429Q220 429 185.5 387Q151 345 146 270Z" glyph-name="ebreve" horiz-adv-x="411" unicode="&#277;" /><glyph d="M283 558Q232 558 205 590.5Q178 623 178 683H234Q237 650 250.5 633Q264 616 288 616Q312 616 329.5 633Q347 650 354 683H410Q402 625 369 591.5Q336 558 283 558ZM74 0 119 516H442L436 450H187L174 303H402L396 238H169L153 66H407L396 0Z" glyph-name="ebreve.smcp" horiz-adv-x="442" /><glyph d="M240 567 171 700H229L274 617L330 700H393L304 570ZM250 -11Q163 -11 113.5 46Q64 103 64 206Q64 268 78.5 320.5Q93 373 120 411.5Q147 450 185.5 471.5Q224 493 273 493Q333 493 366.5 463Q400 433 400 379Q400 320 363 284Q326 248 259 232L140 203Q140 133 169.5 96Q199 59 262 59Q298 59 327.5 72.5Q357 86 382 109L368 29Q345 10 313.5 -0.5Q282 -11 250 -11ZM146 270 245 294Q282 303 303.5 321.5Q325 340 325 374Q325 402 308.5 415.5Q292 429 264 429Q220 429 185.5 387Q151 345 146 270Z" glyph-name="ecaron" horiz-adv-x="411" unicode="&#283;" /><glyph d="M248 561 174 680H238L287 610L347 680H412L316 562ZM74 0 119 516H442L436 450H187L174 303H402L396 238H169L153 66H407L396 0Z" glyph-name="ecaron.smcp" horiz-adv-x="442" /><glyph d="M160 571 246 702 314 705 381 571H317L277 651L224 571ZM250 -11Q163 -11 113.5 46Q64 103 64 206Q64 268 78.5 320.5Q93 373 120 411.5Q147 450 185.5 471.5Q224 493 273 493Q333 493 366.5 463Q400 433 400 379Q400 320 363 284Q326 248 259 232L140 203Q140 133 169.5 96Q199 59 262 59Q298 59 327.5 72.5Q357 86 382 109L368 29Q345 10 313.5 -0.5Q282 -11 250 -11ZM146 270 245 294Q282 303 303.5 321.5Q325 340 325 374Q325 402 308.5 415.5Q292 429 264 429Q220 429 185.5 387Q151 345 146 270Z" glyph-name="ecircumflex" horiz-adv-x="411" unicode="&#234;" /><glyph d="M164 569 259 686 330 688 404 569H338L291 637L230 569ZM74 0 119 516H442L436 450H187L174 303H402L396 238H169L153 66H407L396 0Z" glyph-name="ecircumflex.smcp" horiz-adv-x="442" /><glyph d="M168 596 176 681H253L245 596ZM303 596 310 681H388L380 596ZM250 -11Q163 -11 113.5 46Q64 103 64 206Q64 268 78.5 320.5Q93 373 120 411.5Q147 450 185.5 471.5Q224 493 273 493Q333 493 366.5 463Q400 433 400 379Q400 320 363 284Q326 248 259 232L140 203Q140 133 169.5 96Q199 59 262 59Q298 59 327.5 72.5Q357 86 382 109L368 29Q345 10 313.5 -0.5Q282 -11 250 -11ZM146 270 245 294Q282 303 303.5 321.5Q325 340 325 374Q325 402 308.5 415.5Q292 429 264 429Q220 429 185.5 387Q151 345 146 270Z" glyph-name="edieresis" horiz-adv-x="411" unicode="&#235;" /><glyph d="M177 577 184 660H263L256 577ZM314 577 321 660H400L393 577ZM74 0 119 516H442L436 450H187L174 303H402L396 238H169L153 66H407L396 0Z" glyph-name="edieresis.smcp" horiz-adv-x="442" /><glyph d="M233 595 240 682H321L315 595ZM250 -11Q163 -11 113.5 46Q64 103 64 206Q64 268 78.5 320.5Q93 373 120 411.5Q147 450 185.5 471.5Q224 493 273 493Q333 493 366.5 463Q400 433 400 379Q400 320 363 284Q326 248 259 232L140 203Q140 133 169.5 96Q199 59 262 59Q298 59 327.5 72.5Q357 86 382 109L368 29Q345 10 313.5 -0.5Q282 -11 250 -11ZM146 270 245 294Q282 303 303.5 321.5Q325 340 325 374Q325 402 308.5 415.5Q292 429 264 429Q220 429 185.5 387Q151 345 146 270Z" glyph-name="edotaccent" horiz-adv-x="411" unicode="&#279;" /><glyph d="M244 577 251 660H333L325 577ZM74 0 119 516H442L436 450H187L174 303H402L396 238H169L153 66H407L396 0Z" glyph-name="edotaccent.smcp" horiz-adv-x="442" /><glyph d="M239 581 204 638Q193 657 183 676.5Q173 696 168 713L240 716Q246 699 254.5 681.5Q263 664 270 649L307 581ZM250 -11Q163 -11 113.5 46Q64 103 64 206Q64 268 78.5 320.5Q93 373 120 411.5Q147 450 185.5 471.5Q224 493 273 493Q333 493 366.5 463Q400 433 400 379Q400 320 363 284Q326 248 259 232L140 203Q140 133 169.5 96Q199 59 262 59Q298 59 327.5 72.5Q357 86 382 109L368 29Q345 10 313.5 -0.5Q282 -11 250 -11ZM146 270 245 294Q282 303 303.5 321.5Q325 340 325 374Q325 402 308.5 415.5Q292 429 264 429Q220 429 185.5 387Q151 345 146 270Z" glyph-name="egrave" horiz-adv-x="411" unicode="&#232;" /><glyph d="M252 569 144 677H231L326 569ZM74 0 119 516H442L436 450H187L174 303H402L396 238H169L153 66H407L396 0Z" glyph-name="egrave.smcp" horiz-adv-x="442" /><glyph d="M243 -11Q157 -11 109 38.5Q61 88 61 169Q61 222 90.5 269.5Q120 317 171 343Q135 371 118 406Q101 441 101 489Q101 561 151 609Q201 657 282 657Q360 657 406.5 611.5Q453 566 453 492Q453 438 429 395Q405 352 354 324Q396 296 416.5 261Q437 226 437 177Q437 91 386 40Q335 -11 243 -11ZM301 356Q335 378 355.5 411.5Q376 445 376 486Q376 533 348 560.5Q320 588 274 588Q230 588 205.5 562Q181 536 181 490Q181 455 200.5 427.5Q220 400 256 381ZM245 58Q299 58 328 86.5Q357 115 357 167Q357 204 331.5 236Q306 268 261 291L226 308Q185 283 162 249Q139 215 139 172Q139 119 167.5 88.5Q196 58 245 58Z" glyph-name="eight" horiz-adv-x="468" unicode="8" /><glyph d="M152 -10Q102 -10 74 18.5Q46 47 46 93Q46 123 62 148Q78 173 108 186Q88 200 78 219Q68 238 68 262Q68 304 98.5 331Q129 358 178 358Q224 358 252 332Q280 306 280 266Q280 233 263.5 210Q247 187 222 175Q247 161 258 142.5Q269 124 269 93Q269 44 236 17Q203 -10 152 -10ZM188 195Q209 210 217 226Q225 242 225 261Q225 283 210.5 297Q196 311 173 311Q148 311 135.5 298Q123 285 123 263Q123 247 133 232.5Q143 218 162 208ZM157 37Q182 37 198 50Q214 63 214 94Q214 116 199.5 129.5Q185 143 166 153L143 165Q124 153 113 135Q102 117 102 95Q102 67 116.5 52Q131 37 157 37Z" glyph-name="eight.dnom" horiz-adv-x="299" /><glyph d="M232 -11Q149 -11 103 39.5Q57 90 57 167Q57 229 89 278.5Q121 328 188 359Q149 387 124 424.5Q99 462 99 517Q99 588 147.5 636Q196 684 276 684Q353 684 399.5 640Q446 596 446 524Q446 464 420.5 416.5Q395 369 341 341Q387 307 408 268.5Q429 230 429 179Q429 95 375.5 42Q322 -11 232 -11ZM293 378Q331 404 350 436Q369 468 369 514Q369 562 342.5 589.5Q316 617 273 617Q227 617 201.5 589.5Q176 562 176 520Q176 478 199 451Q222 424 265 396ZM238 57Q290 57 320 88.5Q350 120 350 175Q350 215 327 247Q304 279 261 307L238 323Q186 294 159.5 257.5Q133 221 133 169Q133 120 161 88.5Q189 57 238 57Z" glyph-name="eight.osf" horiz-adv-x="457" /><glyph d="M216 -11Q145 -11 102 27.5Q59 66 59 135Q59 178 85 217Q111 256 157 274Q125 292 109 320.5Q93 349 93 387Q93 447 138.5 487Q184 527 258 527Q325 527 368.5 491Q412 455 412 393Q412 348 388.5 313.5Q365 279 322 259Q358 240 377 210Q396 180 396 138Q396 70 347.5 29.5Q299 -11 216 -11ZM274 285Q305 304 320 330Q335 356 335 386Q335 423 312.5 442Q290 461 250 461Q214 461 192.5 442Q171 423 171 388Q171 359 185.5 340Q200 321 234 305ZM223 56Q270 56 294.5 76Q319 96 319 138Q319 169 297.5 192Q276 215 239 232L210 245Q173 227 154.5 203Q136 179 136 142Q136 105 157.5 80.5Q179 56 223 56Z" glyph-name="eight.smcp" horiz-adv-x="433" /><glyph d="M185 369Q135 369 107 397.5Q79 426 79 472Q79 502 95 527Q111 552 141 565Q121 579 111 598Q101 617 101 641Q101 683 131.5 710Q162 737 211 737Q257 737 285 711Q313 685 313 645Q313 612 296.5 589Q280 566 255 554Q280 540 291 521.5Q302 503 302 472Q302 423 269 396Q236 369 185 369ZM221 574Q242 589 250 605Q258 621 258 640Q258 662 243.5 676Q229 690 206 690Q181 690 168.5 677Q156 664 156 642Q156 626 166 611.5Q176 597 195 587ZM190 416Q215 416 231 429Q247 442 247 473Q247 495 232.5 508.5Q218 522 199 532L176 544Q157 532 146 514Q135 496 135 474Q135 446 149.5 431Q164 416 190 416Z" glyph-name="eight.sup" horiz-adv-x="298" /><glyph d="M250 -11Q164 -11 116 38.5Q68 88 68 169Q68 222 97.5 269.5Q127 317 178 343Q142 371 125 406Q108 441 108 489Q108 561 158 609Q208 657 289 657Q367 657 413.5 611.5Q460 566 460 492Q460 438 436 395Q412 352 361 324Q403 296 423.5 261Q444 226 444 177Q444 91 393 40Q342 -11 250 -11ZM308 356Q342 378 362.5 411.5Q383 445 383 486Q383 533 355 560.5Q327 588 281 588Q237 588 212.5 562Q188 536 188 490Q188 455 207.5 427.5Q227 400 263 381ZM252 58Q306 58 335 86.5Q364 115 364 167Q364 204 338.5 236Q313 268 268 291L233 308Q192 283 169 249Q146 215 146 172Q146 119 174.5 88.5Q203 58 252 58Z" glyph-name="eight.tf" horiz-adv-x="475" /><glyph d="M246 -11Q163 -11 117 39.5Q71 90 71 167Q71 229 103 278.5Q135 328 202 359Q163 387 138 424.5Q113 462 113 517Q113 588 161.5 636Q210 684 290 684Q367 684 413.5 640Q460 596 460 524Q460 464 434.5 416.5Q409 369 355 341Q401 307 422 268.5Q443 230 443 179Q443 95 389.5 42Q336 -11 246 -11ZM307 378Q345 404 364 436Q383 468 383 514Q383 562 356.5 589.5Q330 617 287 617Q241 617 215.5 589.5Q190 562 190 520Q190 478 213 451Q236 424 279 396ZM252 57Q304 57 334 88.5Q364 120 364 175Q364 215 341 247Q318 279 275 307L252 323Q200 294 173.5 257.5Q147 221 147 169Q147 120 175 88.5Q203 57 252 57Z" glyph-name="eight.tosf" horiz-adv-x="475" /><glyph d="M388 0 396 95H484L476 0ZM159 0 167 95H297L289 0Z" glyph-name="ellipsis" horiz-adv-x="583" unicode="&#8230;" /><glyph d="M174 606 179 662H378L374 606ZM250 -11Q163 -11 113.5 46Q64 103 64 206Q64 268 78.5 320.5Q93 373 120 411.5Q147 450 185.5 471.5Q224 493 273 493Q333 493 366.5 463Q400 433 400 379Q400 320 363 284Q326 248 259 232L140 203Q140 133 169.5 96Q199 59 262 59Q298 59 327.5 72.5Q357 86 382 109L368 29Q345 10 313.5 -0.5Q282 -11 250 -11ZM146 270 245 294Q282 303 303.5 321.5Q325 340 325 374Q325 402 308.5 415.5Q292 429 264 429Q220 429 185.5 387Q151 345 146 270Z" glyph-name="emacron" horiz-adv-x="411" unicode="&#275;" /><glyph d="M177 589 182 647H400L394 589ZM74 0 119 516H442L436 450H187L174 303H402L396 238H169L153 66H407L396 0Z" glyph-name="emacron.smcp" horiz-adv-x="442" /><glyph d="M63 228 69 292H865L860 228Z" glyph-name="emdash" horiz-adv-x="884" unicode="&#8212;" /><glyph d="M71 310 77 378H871L865 310Z" glyph-name="emdash.case" horiz-adv-x="882" /><glyph d="M63 228 69 292H424L419 228Z" glyph-name="endash" horiz-adv-x="443" unicode="&#8211;" /><glyph d="M71 310 77 378H431L425 310Z" glyph-name="endash.case" horiz-adv-x="442" /><glyph d="M241 -226V-161Q290 -144 309 -113.5Q328 -83 334 -20L358 265Q360 287 361.5 307Q363 327 363 332Q363 380 350 401.5Q337 423 307 423Q282 423 258 398Q234 373 214 328Q194 283 179 220.5Q164 158 157 83L149 0H75L104 334Q108 369 109.5 406Q111 443 111 480L181 485Q181 453 179.5 410Q178 367 176 343Q198 412 237.5 452.5Q277 493 325 493Q380 493 409 457.5Q438 422 438 350Q438 344 437 327Q436 310 434 287L407 -29Q400 -117 362 -162.5Q324 -208 241 -226Z" glyph-name="eng" horiz-adv-x="478" unicode="&#331;" /><glyph d="M249 -209V-144Q313 -131 338.5 -101.5Q364 -72 369 -5L370 9L175 395L141 0H74L119 516H193L390 126L424 516H491L443 -22Q436 -110 389.5 -153Q343 -196 249 -209Z" glyph-name="eng.smcp" horiz-adv-x="519" /><glyph d="M270 -221Q233 -221 211 -199.5Q189 -178 189 -141Q189 -106 204.5 -74Q220 -42 252 -11Q167 -11 115.5 44Q64 99 64 206Q64 268 78.5 320.5Q93 373 120 411.5Q147 450 185.5 471.5Q224 493 273 493Q333 493 366.5 463Q400 433 400 379Q400 320 363 284Q326 248 259 232L140 203Q140 133 169.5 96Q199 59 262 59Q298 59 327.5 73Q357 87 382 109L368 29Q323 0 287 -42.5Q251 -85 251 -119Q251 -141 260.5 -153Q270 -165 289 -165Q302 -165 313.5 -161.5Q325 -158 336 -151L326 -209Q309 -216 297.5 -218.5Q286 -221 270 -221ZM146 269 245 293Q282 302 303.5 321Q325 340 325 374Q325 402 308.5 415.5Q292 429 264 429Q220 429 185.5 386.5Q151 344 146 269Z" glyph-name="eogonek" horiz-adv-x="411" unicode="&#281;" /><glyph d="M303 -229Q266 -229 243.5 -207.5Q221 -186 221 -149Q221 -108 243 -71Q265 -34 308 0H74L119 516H442L436 450H187L174 302H402L396 239H169L153 66H407L396 0H373Q330 -35 307 -67Q284 -99 284 -127Q284 -149 293.5 -161Q303 -173 321 -173Q334 -173 345.5 -169.5Q357 -166 368 -159L358 -216Q341 -223 330 -226Q319 -229 303 -229Z" glyph-name="eogonek.smcp" horiz-adv-x="442" /><glyph d="M97 402 102 464H453L447 402ZM82 214 87 276H438L432 214Z" glyph-name="equal" horiz-adv-x="475" unicode="=" /><glyph d="M368 -12Q306 -12 251.5 10.5Q197 33 157 72.5Q117 112 93.5 166Q70 220 70 282Q70 350 97.5 413.5Q125 477 172.5 526Q220 575 283 605Q346 635 416 635Q477 635 530.5 612.5Q584 590 622.5 550Q661 510 683.5 456Q706 402 706 339Q706 329 705.5 319.5Q705 310 703 286H190Q188 286 186.5 285Q185 284 185 282L173 151Q172 145 174 140Q176 135 179 131Q213 84 265.5 61.5Q318 39 373 39Q465 39 517.5 67.5Q570 96 606 145H671Q618 74 545 31Q472 -12 368 -12ZM194 344H588Q589 344 590.5 345.5Q592 347 592 349L604 481Q605 487 603 492.5Q601 498 598 502Q562 545 514.5 567.5Q467 590 414 590Q357 590 306 567Q255 544 212 499Q208 495 205.5 489.5Q203 484 202 477L190 349Q190 348 191.5 346Q193 344 194 344Z" glyph-name="estimated" horiz-adv-x="722" unicode="&#8494;" /><glyph d="M229 -11Q150 -11 107 49Q64 109 64 205Q64 269 78 322.5Q92 376 118.5 413.5Q145 451 183 472Q221 493 268 493Q287 493 305.5 486Q324 479 336 466Q327 502 311.5 535Q296 568 278 596L176 560L182 616L248 641Q235 661 221.5 678Q208 695 196 709L263 715Q276 702 288 688.5Q300 675 311 661L403 694L398 638L343 618Q383 558 409 476Q435 394 435 280Q435 215 421 161Q407 107 380.5 69Q354 31 316 10Q278 -11 229 -11ZM237 60Q294 60 326 117.5Q358 175 358 271Q358 343 334 383Q310 423 263 423Q206 423 174 365Q142 307 142 211Q142 139 166.5 99.5Q191 60 237 60Z" glyph-name="eth" horiz-adv-x="457" unicode="&#240;" /><glyph d="M74 0 95 240H52L56 293H99L119 516H180Q245 516 298.5 499.5Q352 483 390.5 452Q429 421 450 375.5Q471 330 471 273Q471 142 392 71Q313 0 159 0ZM155 68H168Q283 68 337 118Q391 168 391 272Q391 356 336 402Q281 448 197 448H188L174 293H286L283 240H170Z" glyph-name="eth.smcp" horiz-adv-x="492" /><glyph d="M116 161 138 646H231L170 161ZM83 0 90 90H182L174 0Z" glyph-name="exclam" horiz-adv-x="258" unicode="!" /><glyph d="M101 137 116 517H210L158 137ZM77 0 83 79H165L158 0Z" glyph-name="exclam.smcp" horiz-adv-x="236" /><glyph d="M217 483 210 393H118L126 483ZM184 322 162 -163H69L130 322Z" glyph-name="exclamdown" horiz-adv-x="257" unicode="&#161;" /><glyph d="M231 646 224 556H132L140 646ZM198 485 176 0H83L144 485Z" glyph-name="exclamdown.case" horiz-adv-x="258" /><glyph d="M206 517 200 438H118L125 517ZM182 380 167 0H73L125 380Z" glyph-name="exclamdown.smcp" horiz-adv-x="236" /><glyph d="M5 -228V-162Q57 -144 75.5 -113Q94 -82 98 -19L129 416H80L82 471L110 479Q125 483 131.5 490Q138 497 139 516L140 536Q147 622 196 670.5Q245 719 329 719Q336 719 347.5 718.5Q359 718 366 717V651Q359 652 349 653Q339 654 332 654Q277 654 247.5 622Q218 590 212 524L209 483H326L320 416H203L172 -21Q165 -112 130 -159Q95 -206 5 -228Z" glyph-name="f" horiz-adv-x="286" unicode="f" /><glyph d="M74 0 119 516H439L427 450H188L175 295H393L387 230H169L149 0Z" glyph-name="f.smcp" horiz-adv-x="427" /><glyph d="M5 -228V-162Q57 -144 75.5 -113Q94 -82 98 -19L129 416H80L82 471L110 479Q125 483 131.5 490Q138 497 139 516L140 536Q147 622 196 670.5Q245 719 329 719Q336 719 347.5 718.5Q359 718 366 717V651Q359 652 349 653Q339 654 332 654Q277 654 247.5 622Q218 590 212 524L209 483H326L320 416H203L172 -21Q165 -112 130 -159Q95 -206 5 -228ZM508 -10Q464 -10 425 1.5Q386 13 355 35Q361 63 367 99.5Q373 136 377 183L408 542Q412 587 413.5 628.5Q415 670 415 710L491 715Q492 702 492 693Q492 684 491 673Q491 655 489 624Q487 593 483 558L465 363Q487 422 522 457.5Q557 493 605 493Q668 493 703.5 438.5Q739 384 739 292Q739 155 680 72.5Q621 -10 508 -10ZM517 57Q589 57 625 120.5Q661 184 661 289Q661 350 640.5 386.5Q620 423 587 423Q543 423 502 342.5Q461 262 446 118L442 76Q460 66 477 61.5Q494 57 517 57Z" glyph-name="f_b" horiz-adv-x="763" /><glyph d="M4 -227V-162Q53 -144 72.5 -113Q92 -82 97 -19L132 417H85L87 471L112 479Q128 483 133.5 490Q139 497 141 516L142 526Q151 611 198.5 660Q246 709 330 709Q337 709 348.5 708Q360 707 367 706V641Q360 642 350.5 643Q341 644 334 644Q279 644 249 612Q219 580 214 514L211 483H388L393 536Q399 622 448.5 670.5Q498 719 582 719Q589 719 600.5 718.5Q612 718 618 717V651Q611 652 600.5 653Q590 654 584 654Q529 654 499.5 622Q470 590 464 524L461 483H578L572 417H455L428 54Q421 -38 385 -85Q349 -132 262 -153V-87Q310 -70 329.5 -39Q349 -8 354 55L381 417H206L171 -21Q164 -112 128.5 -159Q93 -206 4 -227Z" glyph-name="f_f" horiz-adv-x="537" unicode="&#64256;" /><glyph d="M4 -227V-162Q53 -144 72.5 -113Q92 -82 97 -19L132 417H85L87 471L112 479Q128 483 133.5 490Q139 497 141 516L142 526Q151 611 198.5 660Q246 709 330 709Q337 709 348.5 708Q360 707 367 706V641Q360 642 350.5 643Q341 644 334 644Q279 644 249 612Q219 580 214 514L211 483H388L393 536Q399 622 448.5 670.5Q498 719 582 719Q589 719 600.5 718.5Q612 718 618 717V651Q611 652 600.5 653Q590 654 584 654Q529 654 499.5 622Q470 590 464 524L461 483H578L572 417H455L428 54Q421 -38 385 -85Q349 -132 262 -153V-87Q310 -70 329.5 -39Q349 -8 354 55L381 417H206L171 -21Q164 -112 128.5 -159Q93 -206 4 -227ZM759 -10Q715 -10 676 1.5Q637 13 606 35Q612 63 618 99.5Q624 136 628 183L659 542Q663 587 664.5 628.5Q666 670 666 710L742 715Q743 702 743 693Q743 684 742 673Q742 655 740 624Q738 593 734 558L716 363Q738 422 773 457.5Q808 493 856 493Q919 493 954.5 438.5Q990 384 990 292Q990 155 931 72.5Q872 -10 759 -10ZM768 57Q840 57 876 120.5Q912 184 912 289Q912 350 891.5 386.5Q871 423 838 423Q794 423 753 342.5Q712 262 697 118L693 76Q711 66 728 61.5Q745 57 768 57Z" glyph-name="f_f_b" horiz-adv-x="1014" /><glyph d="M4 -227V-162Q53 -144 72.5 -113Q92 -82 97 -19L132 417H85L87 471L112 479Q128 483 133.5 490Q139 497 141 516L142 526Q151 611 198.5 660Q246 709 330 709Q337 709 348.5 708Q360 707 367 706V641Q360 642 350.5 643Q341 644 334 644Q279 644 249 612Q219 580 214 514L211 483H388L393 536Q399 622 448.5 670.5Q498 719 582 719Q589 719 600.5 718.5Q612 718 618 717V651Q611 652 600.5 653Q590 654 584 654Q529 654 499.5 622Q470 590 464 524L461 483H578L572 417H455L428 54Q421 -38 385 -85Q349 -132 262 -153V-87Q310 -70 329.5 -39Q349 -8 354 55L381 417H206L171 -21Q164 -112 128.5 -159Q93 -206 4 -227ZM611 0 658 541Q662 586 663.5 628Q665 670 665 710L741 715Q742 702 742 693Q742 684 741 673Q741 655 739 624Q737 593 733 558L715 349Q737 417 777.5 455Q818 493 864 493Q915 493 946 459.5Q977 426 977 363Q977 353 975.5 325.5Q974 298 972 274L948 0H874L898 271Q899 287 900.5 305.5Q902 324 902 335Q902 379 888.5 401Q875 423 844 423Q819 423 794.5 398Q770 373 749.5 328.5Q729 284 714 221.5Q699 159 693 84L685 0Z" glyph-name="f_f_h" horiz-adv-x="1016" /><glyph d="M4 -227V-162Q53 -144 72.5 -113Q92 -82 97 -19L132 417H85L87 471L112 479Q128 483 133.5 490Q139 497 141 516L142 526Q151 611 198.5 660Q246 709 330 709Q337 709 348.5 708Q360 707 367 706V641Q360 642 350.5 643Q341 644 334 644Q279 644 249 612Q219 580 214 514L211 483H388L393 536Q399 622 448.5 670.5Q498 719 582 719Q589 719 600.5 718.5Q612 718 618 717V651Q611 652 600.5 653Q590 654 584 654Q529 654 499.5 622Q470 590 464 524L461 483H578L572 417H455L428 54Q421 -38 385 -85Q349 -132 262 -153V-87Q310 -70 329.5 -39Q349 -8 354 55L381 417H206L171 -21Q164 -112 128.5 -159Q93 -206 4 -227ZM658 595 665 682H747L740 595ZM610 0 652 483H726L684 0Z" glyph-name="f_f_i" horiz-adv-x="757" unicode="&#64259;" /><glyph d="M4 -227V-162Q53 -144 72.5 -113Q92 -82 97 -19L132 417H85L87 471L112 479Q128 483 133.5 490Q139 497 141 516L142 526Q151 611 198.5 660Q246 709 330 709Q337 709 348.5 708Q360 707 367 706V641Q360 642 350.5 643Q341 644 334 644Q279 644 249 612Q219 580 214 514L211 483H388L393 536Q399 622 448.5 670.5Q498 719 582 719Q589 719 600.5 718.5Q612 718 618 717V651Q611 652 600.5 653Q590 654 584 654Q529 654 499.5 622Q470 590 464 524L461 483H578L572 417H455L428 54Q421 -38 385 -85Q349 -132 262 -153V-87Q310 -70 329.5 -39Q349 -8 354 55L381 417H206L171 -21Q164 -112 128.5 -159Q93 -206 4 -227ZM658 595 665 682H747L740 595ZM516 -228V-161Q566 -147 585 -115Q604 -83 609 -20L652 483H726L683 -28Q676 -116 639 -162.5Q602 -209 516 -228Z" glyph-name="f_f_j" horiz-adv-x="757" /><glyph d="M4 -227V-162Q53 -144 72.5 -113Q92 -82 97 -19L132 417H85L87 471L112 479Q128 483 133.5 490Q139 497 141 516L142 526Q151 611 198.5 660Q246 709 330 709Q337 709 348.5 708Q360 707 367 706V641Q360 642 350.5 643Q341 644 334 644Q279 644 249 612Q219 580 214 514L211 483H388L393 536Q399 622 448.5 670.5Q498 719 582 719Q589 719 600.5 718.5Q612 718 618 717V651Q611 652 600.5 653Q590 654 584 654Q529 654 499.5 622Q470 590 464 524L461 483H578L572 417H455L428 54Q421 -38 385 -85Q349 -132 262 -153V-87Q310 -70 329.5 -39Q349 -8 354 55L381 417H206L171 -21Q164 -112 128.5 -159Q93 -206 4 -227ZM610 0 657 537Q661 582 663 626Q665 670 665 710L740 715Q741 702 741 693Q741 684 741 673Q740 655 738 624Q736 593 733 558L684 0ZM863 0 715 264 822 374Q853 406 871.5 429Q890 452 906 486L982 480Q965 440 941 409Q917 378 877 339L796 261L944 0Z" glyph-name="f_f_k" horiz-adv-x="953" /><glyph d="M4 -227V-162Q53 -144 72.5 -113Q92 -82 97 -19L132 417H85L87 471L112 479Q128 483 133.5 490Q139 497 141 516L142 526Q151 611 198.5 660Q246 709 330 709Q337 709 348.5 708Q360 707 367 706V641Q360 642 350.5 643Q341 644 334 644Q279 644 249 612Q219 580 214 514L211 483H388L393 536Q399 622 448.5 670.5Q498 719 582 719Q589 719 600.5 718.5Q612 718 618 717V651Q611 652 600.5 653Q590 654 584 654Q529 654 499.5 622Q470 590 464 524L461 483H578L572 417H455L428 54Q421 -38 385 -85Q349 -132 262 -153V-87Q310 -70 329.5 -39Q349 -8 354 55L381 417H206L171 -21Q164 -112 128.5 -159Q93 -206 4 -227ZM726 -4Q668 6 642.5 34Q617 62 617 113Q617 119 618.5 138Q620 157 621 175L653 544Q657 590 659 630Q661 670 661 710L736 715V673Q736 655 734 624Q732 593 728 558L695 180Q694 163 692.5 147Q691 131 691 125Q691 97 701.5 83.5Q712 70 738 62Z" glyph-name="f_f_l" horiz-adv-x="762" unicode="&#64260;" /><glyph d="M5 -228V-162Q57 -144 75.5 -113Q94 -82 98 -19L129 416H80L82 471L110 479Q125 483 131.5 490Q138 497 139 516L140 536Q147 622 196 670.5Q245 719 329 719Q336 719 347.5 718.5Q359 718 366 717V651Q359 652 349 653Q339 654 332 654Q277 654 247.5 622Q218 590 212 524L209 483H326L320 416H203L172 -21Q165 -112 130 -159Q95 -206 5 -228ZM360 0 407 541Q411 586 412.5 628Q414 670 414 710L490 715Q491 702 491 693Q491 684 490 673Q490 655 488 624Q486 593 482 558L464 349Q486 417 526.5 455Q567 493 613 493Q664 493 695 459.5Q726 426 726 363Q726 353 724.5 325.5Q723 298 721 274L697 0H623L647 271Q648 287 649.5 305.5Q651 324 651 335Q651 379 637.5 401Q624 423 593 423Q568 423 543.5 398Q519 373 498.5 328.5Q478 284 463 221.5Q448 159 442 84L434 0Z" glyph-name="f_h" horiz-adv-x="765" /><glyph d="M5 -228V-162Q57 -144 75.5 -113Q94 -82 98 -19L129 416H80L82 471L110 479Q125 483 131.5 490Q138 497 139 516L140 536Q147 622 196 670.5Q245 719 329 719Q336 719 347.5 718.5Q359 718 366 717V651Q359 652 349 653Q339 654 332 654Q277 654 247.5 622Q218 590 212 524L209 483H326L320 416H203L172 -21Q165 -112 130 -159Q95 -206 5 -228ZM407 595 414 682H496L489 595ZM265 -228V-161Q315 -147 334 -115Q353 -83 358 -20L401 483H475L432 -28Q425 -116 388 -162.5Q351 -209 265 -228Z" glyph-name="f_j" horiz-adv-x="506" /><glyph d="M5 -228V-162Q57 -144 75.5 -113Q94 -82 98 -19L129 416H80L82 471L110 479Q125 483 131.5 490Q138 497 139 516L140 536Q147 622 196 670.5Q245 719 329 719Q336 719 347.5 718.5Q359 718 366 717V651Q359 652 349 653Q339 654 332 654Q277 654 247.5 622Q218 590 212 524L209 483H326L320 416H203L172 -21Q165 -112 130 -159Q95 -206 5 -228ZM359 0 406 537Q410 582 412 626Q414 670 414 710L489 715Q490 702 490 693Q490 684 490 673Q489 655 487 624Q485 593 482 558L433 0ZM612 0 464 264 571 374Q602 406 620.5 429Q639 452 655 486L731 480Q714 440 690 409Q666 378 626 339L545 261L693 0Z" glyph-name="f_k" horiz-adv-x="702" /><glyph d="M5 -228V-162Q57 -144 75.5 -113Q94 -82 98 -19L129 416H80L82 471L110 479Q125 483 131.5 490Q138 497 139 516L140 536Q147 622 196 670.5Q245 719 329 719Q336 719 347.5 718.5Q359 718 366 717V651Q359 652 349 653Q339 654 332 654Q277 654 247.5 622Q218 590 212 524L209 483H326L320 416H203L172 -21Q165 -112 130 -159Q95 -206 5 -228ZM407 595 414 682H496L489 595ZM359 0 401 483H475L433 0Z" glyph-name="fi" horiz-adv-x="506" unicode="&#64257;" /><glyph d="M74 0 119 516H439L427 450H188L175 295H393L387 230H169L149 0ZM501 0 546 516H621L576 0Z" glyph-name="fi.smcp" horiz-adv-x="650" /><glyph d="M168 -11Q129 -11 98.5 -2Q68 7 37 24V101Q71 80 103 70.5Q135 61 170 61Q227 61 262 93.5Q297 126 297 187Q297 253 241.5 291Q186 329 99 332L143 646H419L405 572H206L180 396Q271 381 324.5 330.5Q378 280 378 196Q378 95 320.5 42Q263 -11 168 -11Z" glyph-name="five" horiz-adv-x="412" unicode="5" /><glyph d="M118 -10Q94 -10 74 -4.5Q54 1 38 11V65Q54 54 74.5 47Q95 40 113 40Q144 40 161.5 55Q179 70 179 100Q179 137 151 155.5Q123 174 71 175L96 352H258L249 299H138L126 217Q180 213 209.5 183.5Q239 154 239 103Q239 51 206.5 20.5Q174 -10 118 -10Z" glyph-name="five.dnom" horiz-adv-x="273" /><glyph d="M148 -188Q108 -188 76 -178.5Q44 -169 19 -153V-81Q53 -101 82.5 -110Q112 -119 149 -119Q211 -119 246 -85Q281 -51 281 10Q281 80 228 118Q175 156 80 157L125 483H397L385 410H190L162 222Q254 212 310 161.5Q366 111 366 21Q366 -78 307 -133Q248 -188 148 -188Z" glyph-name="five.osf" horiz-adv-x="412" /><glyph d="M163 -11Q126 -11 97.5 -2.5Q69 6 45 20L46 92Q74 76 103.5 67Q133 58 164 58Q213 58 242 80Q271 102 271 150Q271 201 224 230.5Q177 260 98 261L136 516H381L369 445H195L174 321Q256 311 303 270Q350 229 350 156Q350 76 300 32.5Q250 -11 163 -11Z" glyph-name="five.smcp" horiz-adv-x="408" /><glyph d="M151 369Q127 369 107 374.5Q87 380 71 390V444Q87 433 107.5 426Q128 419 146 419Q177 419 194.5 434Q212 449 212 479Q212 516 184 534.5Q156 553 104 554L129 731H291L282 678H171L159 596Q213 592 242.5 562.5Q272 533 272 482Q272 430 239.5 399.5Q207 369 151 369Z" glyph-name="five.sup" horiz-adv-x="273" /><glyph d="M202 -11Q163 -11 132.5 -2Q102 7 71 24V101Q105 80 137 70.5Q169 61 204 61Q261 61 296 93.5Q331 126 331 187Q331 253 275.5 291Q220 329 133 332L177 646H453L439 572H240L214 396Q305 381 358.5 330.5Q412 280 412 196Q412 95 354.5 42Q297 -11 202 -11Z" glyph-name="five.tf" horiz-adv-x="475" /><glyph d="M194 -188Q154 -188 122 -178.5Q90 -169 65 -153V-81Q99 -101 128.5 -110Q158 -119 195 -119Q257 -119 292 -85Q327 -51 327 10Q327 80 274 118Q221 156 126 157L171 483H443L431 410H236L208 222Q300 212 356 161.5Q412 111 412 21Q412 -78 353 -133Q294 -188 194 -188Z" glyph-name="five.tosf" horiz-adv-x="475" /><glyph d="M5 -228V-162Q57 -144 75.5 -113Q94 -82 98 -19L129 416H80L82 471L110 479Q125 483 131.5 490Q138 497 139 516L140 536Q147 622 196 670.5Q245 719 329 719Q336 719 347.5 718.5Q359 718 366 717V651Q359 652 349 653Q339 654 332 654Q277 654 247.5 622Q218 590 212 524L209 483H326L320 416H203L172 -21Q165 -112 130 -159Q95 -206 5 -228ZM475 -4Q417 6 391.5 34Q366 62 366 113Q366 119 367.5 138Q369 157 370 175L402 544Q406 590 408 630Q410 670 410 710L485 715V673Q485 655 483 624Q481 593 477 558L444 180Q443 163 441.5 147Q440 131 440 125Q440 97 450.5 83.5Q461 70 487 62Z" glyph-name="fl" horiz-adv-x="511" unicode="&#64258;" /><glyph d="M74 0 119 516H439L427 450H188L175 295H393L387 230H169L149 0ZM501 0 546 516H621L582 68H803L791 0Z" glyph-name="fl.smcp" horiz-adv-x="819" /><glyph d="M284 0 297 144H36V181L323 644L414 648L376 211H454L442 144H371L358 0ZM130 211H302L331 537Z" glyph-name="four" horiz-adv-x="467" unicode="4" /><glyph d="M174 -4 181 70H36V102L192 350L264 354L244 119H286L278 70H239L232 -4ZM101 119H185L199 277Z" glyph-name="four.dnom" horiz-adv-x="306" /><glyph d="M267 -188 284 7H26L27 44L299 481L399 488L363 74H440L428 7H357L340 -182ZM122 74H290L317 387Z" glyph-name="four.osf" horiz-adv-x="472" /><glyph d="M262 0 272 111H42V146L290 516L379 519L347 175H416L405 111H342L330 0ZM132 175H278L301 423Z" glyph-name="four.smcp" horiz-adv-x="437" /><glyph d="M207 375 214 449H69V481L225 729L297 733L277 498H319L311 449H272L265 375ZM134 498H218L232 656Z" glyph-name="four.sup" horiz-adv-x="306" /><glyph d="M286 0 299 144H38V181L325 644L416 648L378 211H456L444 144H373L360 0ZM132 211H304L333 537Z" glyph-name="four.tf" horiz-adv-x="475" /><glyph d="M276 -188 293 7H35L36 44L308 481L408 488L372 74H449L437 7H366L349 -182ZM131 74H299L326 387Z" glyph-name="four.tosf" horiz-adv-x="475" /><glyph d="M-30 0 355 646H418L34 0Z" glyph-name="fraction" horiz-adv-x="332" unicode="&#8260;" /><glyph d="M162 -231Q128 -231 101 -225.5Q74 -220 49 -208L51 -138Q77 -151 105 -157.5Q133 -164 167 -164Q239 -164 277 -123Q315 -82 322 4L331 108Q309 54 274.5 21.5Q240 -11 199 -11Q133 -11 99 44.5Q65 100 65 191Q65 338 125.5 415.5Q186 493 288 493Q328 493 370 483.5Q412 474 443 456Q437 429 431 387Q425 345 421 308L396 9Q385 -116 327 -173.5Q269 -231 162 -231ZM215 59Q238 59 260 82Q282 105 300.5 145.5Q319 186 333 243Q347 300 353 368L356 409Q340 416 321 421Q302 426 280 426Q214 426 178 364.5Q142 303 142 193Q142 133 161.5 96Q181 59 215 59Z" glyph-name="g" horiz-adv-x="467" unicode="g" /><glyph d="M202 -231Q117 -231 71 -195Q25 -159 25 -102Q25 -53 52 -20.5Q79 12 129 21Q113 30 103 46Q93 62 93 82Q93 109 109.5 129Q126 149 154 160Q117 174 95.5 210Q74 246 74 297Q74 387 121.5 440Q169 493 249 493Q289 493 309 487.5Q329 482 357 482Q375 482 395 484Q415 486 433 491L436 426Q426 422 413 420Q400 418 389 418Q383 418 376.5 418Q370 418 366 419Q378 406 385 382Q392 358 392 329Q392 247 348.5 197Q305 147 222 143Q199 142 181.5 129.5Q164 117 164 98Q164 78 178.5 68.5Q193 59 230 53L280 45Q349 34 380 6.5Q411 -21 411 -74Q411 -141 356 -186Q301 -231 202 -231ZM223 204Q272 204 295.5 240Q319 276 319 337Q319 381 299 407Q279 433 243 433Q203 433 175.5 400.5Q148 368 148 305Q148 259 168.5 231.5Q189 204 223 204ZM208 -171Q270 -171 302.5 -146Q335 -121 335 -84Q335 -58 315.5 -43Q296 -28 248 -21L209 -15Q205 -14 196.5 -13.5Q188 -13 184 -13Q143 -13 121 -35Q99 -57 99 -90Q99 -129 128 -150Q157 -171 208 -171Z" glyph-name="g.alt" horiz-adv-x="431" /><glyph d="M279 -11Q178 -11 122.5 48.5Q67 108 67 217Q67 360 135.5 443.5Q204 527 334 527Q366 527 400.5 519.5Q435 512 460 499L444 428Q417 442 388 449.5Q359 457 331 457Q238 457 191.5 394Q145 331 145 222Q145 141 181.5 99.5Q218 58 287 58Q304 58 322 60Q340 62 356 67L367 204H296L302 269H443L422 17Q391 4 354 -3.5Q317 -11 279 -11Z" glyph-name="g.smcp" horiz-adv-x="480" /><glyph d="M284 567Q236 567 213.5 596Q191 625 191 676Q191 681 191 687Q191 693 192 700H246V691Q246 657 256.5 640Q267 623 289 623Q312 623 325.5 641.5Q339 660 343 700H398Q392 634 363.5 600.5Q335 567 284 567ZM162 -231Q128 -231 101 -225.5Q74 -220 49 -208L51 -138Q77 -151 105 -157.5Q133 -164 167 -164Q239 -164 277 -123Q315 -82 322 4L331 108Q309 54 274.5 21.5Q240 -11 199 -11Q133 -11 99 44.5Q65 100 65 191Q65 338 125.5 415.5Q186 493 288 493Q328 493 370 483.5Q412 474 443 456Q437 429 431 387Q425 345 421 308L396 9Q385 -116 327 -173.5Q269 -231 162 -231ZM215 59Q238 59 260 82Q282 105 300.5 145.5Q319 186 333 243Q347 300 353 368L356 409Q340 416 321 421Q302 426 280 426Q214 426 178 364.5Q142 303 142 193Q142 133 161.5 96Q181 59 215 59Z" glyph-name="gbreve" horiz-adv-x="467" unicode="&#287;" /><glyph d="M258 567Q210 567 187.5 596Q165 625 165 676Q165 681 165 687Q165 693 166 700H220V691Q220 657 230.5 640Q241 623 263 623Q286 623 299.5 641.5Q313 660 317 700H372Q366 634 337.5 600.5Q309 567 258 567ZM202 -230Q117 -230 71 -194Q25 -158 25 -101Q25 -52 52 -19.5Q79 13 129 22Q113 31 103 47Q93 63 93 83Q93 110 109.5 130Q126 150 154 161Q117 175 95.5 211Q74 247 74 298Q74 388 121.5 441Q169 494 249 494Q289 494 309 488.5Q329 483 357 483Q375 483 395 485Q415 487 433 492L436 427Q426 423 413 421Q400 419 389 419Q383 419 376.5 419Q370 419 366 420Q378 407 385 383Q392 359 392 330Q392 248 348.5 198Q305 148 222 144Q199 143 181.5 130.5Q164 118 164 99Q164 79 178.5 69.5Q193 60 230 54L280 46Q349 35 380 7.5Q411 -20 411 -73Q411 -140 356 -185Q301 -230 202 -230ZM223 205Q272 205 295.5 241Q319 277 319 338Q319 382 299 408Q279 434 243 434Q203 434 175.5 401.5Q148 369 148 306Q148 260 168.5 232.5Q189 205 223 205ZM208 -170Q270 -170 302.5 -145Q335 -120 335 -83Q335 -57 315.5 -42Q296 -27 248 -20L209 -14Q205 -13 196.5 -12.5Q188 -12 184 -12Q143 -12 121 -34Q99 -56 99 -89Q99 -128 128 -149Q157 -170 208 -170Z" glyph-name="gbreve.alt" horiz-adv-x="432" /><glyph d="M315 558Q264 558 237 590.5Q210 623 210 683H266Q269 650 282.5 633Q296 616 320 616Q344 616 361.5 633Q379 650 386 683H442Q434 625 401 591.5Q368 558 315 558ZM279 -11Q178 -11 122.5 48.5Q67 108 67 217Q67 360 135.5 443.5Q204 527 334 527Q366 527 400.5 519.5Q435 512 460 499L444 428Q417 442 388 449.5Q359 457 331 457Q238 457 191.5 394Q145 331 145 222Q145 141 181.5 99.5Q218 58 287 58Q304 58 322 60Q340 62 356 67L367 204H296L302 269H443L422 17Q391 4 354 -3.5Q317 -11 279 -11Z" glyph-name="gbreve.smcp" horiz-adv-x="480" /><glyph d="M174 571 260 702 328 705 395 571H331L291 651L238 571ZM162 -231Q128 -231 101 -225.5Q74 -220 49 -208L51 -138Q77 -151 105 -157.5Q133 -164 167 -164Q239 -164 277 -123Q315 -82 322 4L331 108Q309 54 274.5 21.5Q240 -11 199 -11Q133 -11 99 44.5Q65 100 65 191Q65 338 125.5 415.5Q186 493 288 493Q328 493 370 483.5Q412 474 443 456Q437 429 431 387Q425 345 421 308L396 9Q385 -116 327 -173.5Q269 -231 162 -231ZM215 59Q238 59 260 82Q282 105 300.5 145.5Q319 186 333 243Q347 300 353 368L356 409Q340 416 321 421Q302 426 280 426Q214 426 178 364.5Q142 303 142 193Q142 133 161.5 96Q181 59 215 59Z" glyph-name="gcircumflex" horiz-adv-x="467" unicode="&#285;" /><glyph d="M148 571 234 702 302 705 369 571H305L265 651L212 571ZM202 -230Q117 -230 71 -194Q25 -158 25 -101Q25 -52 52 -19.5Q79 13 129 22Q113 31 103 47Q93 63 93 83Q93 110 109.5 130Q126 150 154 161Q117 175 95.5 211Q74 247 74 298Q74 388 121.5 441Q169 494 249 494Q289 494 309 488.5Q329 483 357 483Q375 483 395 485Q415 487 433 492L436 427Q426 423 413 421Q400 419 389 419Q383 419 376.5 419Q370 419 366 420Q378 407 385 383Q392 359 392 330Q392 248 348.5 198Q305 148 222 144Q199 143 181.5 130.5Q164 118 164 99Q164 79 178.5 69.5Q193 60 230 54L280 46Q349 35 380 7.5Q411 -20 411 -73Q411 -140 356 -185Q301 -230 202 -230ZM223 205Q272 205 295.5 241Q319 277 319 338Q319 382 299 408Q279 434 243 434Q203 434 175.5 401.5Q148 369 148 306Q148 260 168.5 232.5Q189 205 223 205ZM208 -170Q270 -170 302.5 -145Q335 -120 335 -83Q335 -57 315.5 -42Q296 -27 248 -20L209 -14Q205 -13 196.5 -12.5Q188 -12 184 -12Q143 -12 121 -34Q99 -56 99 -89Q99 -128 128 -149Q157 -170 208 -170Z" glyph-name="gcircumflex.alt" horiz-adv-x="432" /><glyph d="M196 569 291 686 362 688 436 569H370L323 637L262 569ZM279 -11Q178 -11 122.5 48.5Q67 108 67 217Q67 360 135.5 443.5Q204 527 334 527Q366 527 400.5 519.5Q435 512 460 499L444 428Q417 442 388 449.5Q359 457 331 457Q238 457 191.5 394Q145 331 145 222Q145 141 181.5 99.5Q218 58 287 58Q304 58 322 60Q340 62 356 67L367 204H296L302 269H443L422 17Q391 4 354 -3.5Q317 -11 279 -11Z" glyph-name="gcircumflex.smcp" horiz-adv-x="480" /><glyph d="M247 570 249 586Q253 640 265.5 680Q278 720 302 757L365 750Q342 705 331.5 668Q321 631 317 582L316 570ZM162 -231Q128 -231 101 -225.5Q74 -220 49 -208L51 -138Q77 -151 105 -157.5Q133 -164 167 -164Q239 -164 277 -123Q315 -82 322 4L331 108Q309 54 274.5 21.5Q240 -11 199 -11Q133 -11 99 44.5Q65 100 65 191Q65 338 125.5 415.5Q186 493 288 493Q328 493 370 483.5Q412 474 443 456Q437 429 431 387Q425 345 421 308L396 9Q385 -116 327 -173.5Q269 -231 162 -231ZM215 59Q238 59 260 82Q282 105 300.5 145.5Q319 186 333 243Q347 300 353 368L356 409Q340 416 321 421Q302 426 280 426Q214 426 178 364.5Q142 303 142 193Q142 133 161.5 96Q181 59 215 59Z" glyph-name="gcommaaccent" horiz-adv-x="467" unicode="&#291;" /><glyph d="M222 569 224 585Q228 639 240.5 679Q253 719 277 756L340 749Q317 704 306.5 667Q296 630 292 581L291 569ZM203 -231Q118 -231 72 -195Q26 -159 26 -102Q26 -53 53 -20.5Q80 12 130 21Q114 30 104 46Q94 62 94 82Q94 109 110.5 129Q127 149 155 160Q118 174 96.5 210Q75 246 75 297Q75 387 122.5 440Q170 493 250 493Q290 493 310 487.5Q330 482 358 482Q376 482 396 484Q416 486 434 491L437 426Q427 422 414 420Q401 418 390 418Q384 418 377.5 418Q371 418 367 419Q379 406 386 382Q393 358 393 329Q393 247 349.5 197Q306 147 223 143Q200 142 182.5 129.5Q165 117 165 98Q165 78 179.5 68.5Q194 59 231 53L281 45Q350 34 381 6.5Q412 -21 412 -74Q412 -141 357 -186Q302 -231 203 -231ZM224 204Q273 204 296.5 240Q320 276 320 337Q320 381 300 407Q280 433 244 433Q204 433 176.5 400.5Q149 368 149 305Q149 259 169.5 231.5Q190 204 224 204ZM209 -171Q271 -171 303.5 -146Q336 -121 336 -84Q336 -58 316.5 -43Q297 -28 249 -21L210 -15Q206 -14 197.5 -13.5Q189 -13 185 -13Q144 -13 122 -35Q100 -57 100 -90Q100 -129 129 -150Q158 -171 209 -171Z" glyph-name="gcommaaccent.alt" horiz-adv-x="432" /><glyph d="M279 -11Q178 -11 122.5 48.5Q67 108 67 217Q67 360 135.5 443.5Q204 527 334 527Q366 527 400.5 519.5Q435 512 460 499L444 428Q417 442 388 449.5Q359 457 331 457Q238 457 191.5 394Q145 331 145 222Q145 141 181.5 99.5Q218 58 287 58Q304 58 322 60Q340 62 356 67L367 204H296L302 269H443L422 17Q391 4 354 -3.5Q317 -11 279 -11ZM250 -235 191 -229Q209 -189 216 -158.5Q223 -128 227 -83L228 -68H296L294 -85Q290 -130 281 -164.5Q272 -199 250 -235Z" glyph-name="gcommaaccent.smcp" horiz-adv-x="480" /><glyph d="M247 595 254 682H335L329 595ZM162 -231Q128 -231 101 -225.5Q74 -220 49 -208L51 -138Q77 -151 105 -157.5Q133 -164 167 -164Q239 -164 277 -123Q315 -82 322 4L331 108Q309 54 274.5 21.5Q240 -11 199 -11Q133 -11 99 44.5Q65 100 65 191Q65 338 125.5 415.5Q186 493 288 493Q328 493 370 483.5Q412 474 443 456Q437 429 431 387Q425 345 421 308L396 9Q385 -116 327 -173.5Q269 -231 162 -231ZM215 59Q238 59 260 82Q282 105 300.5 145.5Q319 186 333 243Q347 300 353 368L356 409Q340 416 321 421Q302 426 280 426Q214 426 178 364.5Q142 303 142 193Q142 133 161.5 96Q181 59 215 59Z" glyph-name="gdotaccent" horiz-adv-x="467" unicode="&#289;" /><glyph d="M219 595 226 682H307L301 595ZM202 -230Q117 -230 71 -194Q25 -158 25 -101Q25 -52 52 -19.5Q79 13 129 22Q113 31 103 47Q93 63 93 83Q93 110 109.5 130Q126 150 154 161Q117 175 95.5 211Q74 247 74 298Q74 388 121.5 441Q169 494 249 494Q289 494 309 488.5Q329 483 357 483Q375 483 395 485Q415 487 433 492L436 427Q426 423 413 421Q400 419 389 419Q383 419 376.5 419Q370 419 366 420Q378 407 385 383Q392 359 392 330Q392 248 348.5 198Q305 148 222 144Q199 143 181.5 130.5Q164 118 164 99Q164 79 178.5 69.5Q193 60 230 54L280 46Q349 35 380 7.5Q411 -20 411 -73Q411 -140 356 -185Q301 -230 202 -230ZM223 205Q272 205 295.5 241Q319 277 319 338Q319 382 299 408Q279 434 243 434Q203 434 175.5 401.5Q148 369 148 306Q148 260 168.5 232.5Q189 205 223 205ZM208 -170Q270 -170 302.5 -145Q335 -120 335 -83Q335 -57 315.5 -42Q296 -27 248 -20L209 -14Q205 -13 196.5 -12.5Q188 -12 184 -12Q143 -12 121 -34Q99 -56 99 -89Q99 -128 128 -149Q157 -170 208 -170Z" glyph-name="gdotaccent.alt" horiz-adv-x="432" /><glyph d="M276 577 283 660H365L357 577ZM279 -11Q178 -11 122.5 48.5Q67 108 67 217Q67 360 135.5 443.5Q204 527 334 527Q366 527 400.5 519.5Q435 512 460 499L444 428Q417 442 388 449.5Q359 457 331 457Q238 457 191.5 394Q145 331 145 222Q145 141 181.5 99.5Q218 58 287 58Q304 58 322 60Q340 62 356 67L367 204H296L302 269H443L422 17Q391 4 354 -3.5Q317 -11 279 -11Z" glyph-name="gdotaccent.smcp" horiz-adv-x="480" /><glyph d="M4 -227V-162Q52 -144 71.5 -113Q91 -82 96 -19L131 417H85L86 471L112 479Q127 483 133 490Q139 497 140 516L142 536Q149 622 198.5 670.5Q248 719 331 719Q391 719 435.5 685Q480 651 480 585Q480 529 460 494Q440 459 416 434.5Q392 410 372 390Q352 370 352 342Q352 321 363 307.5Q374 294 399 280L418 269Q471 240 494.5 210Q518 180 518 138Q518 68 474 28.5Q430 -11 346 -11Q321 -11 297 -7Q273 -3 251 4V76Q276 65 299.5 60.5Q323 56 350 56Q396 56 419 75Q442 94 442 131Q442 156 426.5 173Q411 190 380 206L363 215Q324 236 300 264Q276 292 276 332Q276 371 295.5 396.5Q315 422 337.5 445.5Q360 469 379.5 498Q399 527 399 573Q399 610 378.5 631.5Q358 653 326 653Q276 653 247.5 621Q219 589 214 524L171 -21Q163 -114 127 -160Q91 -206 4 -227Z" glyph-name="germandbls" horiz-adv-x="536" unicode="&#223;" /><glyph d="M65 0 97 368Q103 439 146.5 477.5Q190 516 268 516H468V486L323 297Q387 283 421 245Q455 207 455 148Q455 78 408.5 34Q362 -10 275 -10Q252 -10 230 -5.5Q208 -1 190 7V72Q206 65 229 60Q252 55 272 55Q325 55 351.5 77.5Q378 100 378 142Q378 192 340 218.5Q302 245 239 250V280L371 454H274Q222 454 198.5 432Q175 410 171 364L139 0Z" glyph-name="germandbls.smcp" horiz-adv-x="481" /><glyph d="M240 581 205 638Q194 657 184 676.5Q174 696 169 713L241 716Q247 699 255.5 681.5Q264 664 271 649L308 581Z" glyph-name="grave" horiz-adv-x="440" unicode="`" /><glyph d="M249 699 141 807H228L323 699Z" glyph-name="grave.case" horiz-adv-x="440" /><glyph d="M51 40 54 123 392 323 90 525 100 609 476 355 467 288Z" glyph-name="greater" horiz-adv-x="475" unicode="&gt;" /><glyph d="M62 195 68 261H361L95 570L105 652L455 253L448 195ZM45 0 50 66H439L433 0Z" glyph-name="greaterequal" horiz-adv-x="475" unicode="&#8805;" /><glyph d="M148 71 66 240V242L178 412H249L142 242L219 71ZM290 71 208 240V242L320 412H391L284 242L361 71Z" glyph-name="guillemotleft" horiz-adv-x="391" unicode="&#171;" /><glyph d="M153 121 72 314 73 333 189 526H263L146 324L227 121ZM310 121 229 314 230 333 346 526H420L303 324L384 121Z" glyph-name="guillemotleft.case" horiz-adv-x="411" /><glyph d="M143 412 225 243V241L113 71H42L149 241L72 412ZM284 412 366 243V241L254 71H183L290 241L213 412Z" glyph-name="guillemotright" horiz-adv-x="390" unicode="&#187;" /><glyph d="M158 526 239 333 238 314 122 121H48L165 323L84 526ZM314 526 395 333 394 314 278 121H204L321 323L240 526Z" glyph-name="guillemotright.case" horiz-adv-x="411" /><glyph d="M140 71 58 240V242L170 412H241L134 242L211 71Z" glyph-name="guilsinglleft" horiz-adv-x="248" unicode="&#8249;" /><glyph d="M153 121 72 314 73 333 189 526H263L146 324L227 121Z" glyph-name="guilsinglleft.case" horiz-adv-x="255" /><glyph d="M143 412 225 243V241L113 71H42L149 241L72 412Z" glyph-name="guilsinglright" horiz-adv-x="248" unicode="&#8250;" /><glyph d="M158 526 239 333 238 314 122 121H48L165 323L84 526Z" glyph-name="guilsinglright.case" horiz-adv-x="254" /><glyph d="M74 0 121 541Q125 586 126.5 628Q128 670 128 710L204 715Q205 702 205 693Q205 684 204 673Q204 655 202 624Q200 593 196 558L178 349Q200 417 240.5 455Q281 493 327 493Q378 493 409 459.5Q440 426 440 363Q440 353 438.5 325.5Q437 298 435 274L411 0H337L361 271Q362 287 363.5 305.5Q365 324 365 335Q365 379 351.5 401Q338 423 307 423Q282 423 257.5 398Q233 373 212.5 328.5Q192 284 177 221.5Q162 159 156 84L148 0Z" glyph-name="h" horiz-adv-x="480" unicode="h" /><glyph d="M74 0 119 516H194L176 310H400L418 516H493L448 0H373L394 242H170L149 0Z" glyph-name="h.smcp" horiz-adv-x="522" /><glyph d="M74 0 124 571H70L75 625H127Q128 647 128 668Q128 689 128 710L204 715V673Q204 665 203.5 652.5Q203 640 202 625H291L286 571H197L178 349Q200 417 240.5 455Q281 493 327 493Q378 493 409 459.5Q440 426 440 363Q440 353 438.5 325.5Q437 298 435 274L411 0H337L361 271Q362 287 363.5 305.5Q365 324 365 335Q365 379 351.5 401Q338 423 306 423Q281 423 256.5 398Q232 373 212 328.5Q192 284 177 221.5Q162 159 155 84L148 0Z" glyph-name="hbar" horiz-adv-x="480" unicode="&#295;" /><glyph d="M74 0 107 389H63L68 443H113L119 516H194L188 443H412L418 516H493L487 443H533L529 389H482L448 0H372L394 242H170L149 0ZM176 310H400L407 389H183Z" glyph-name="hbar.smcp" horiz-adv-x="522" /><glyph d="M56 746 142 877 210 880 277 746H213L173 826L120 746ZM74 0 121 541Q125 586 126.5 628Q128 670 128 710L204 715Q205 702 205 693Q205 684 204 673Q204 655 202 624Q200 593 196 558L178 349Q200 417 240.5 455Q281 493 327 493Q378 493 409 459.5Q440 426 440 363Q440 353 438.5 325.5Q437 298 435 274L411 0H337L361 271Q362 287 363.5 305.5Q365 324 365 335Q365 379 351.5 401Q338 423 307 423Q282 423 257.5 398Q233 373 212.5 328.5Q192 284 177 221.5Q162 159 156 84L148 0Z" glyph-name="hcircumflex" horiz-adv-x="480" unicode="&#293;" /><glyph d="M189 569 284 686 355 688 429 569H363L316 637L255 569ZM74 0 119 516H194L176 310H400L418 516H493L448 0H373L394 242H170L149 0Z" glyph-name="hcircumflex.smcp" horiz-adv-x="522" /><glyph d="M289 573Q297 582 311 600Q325 618 339.5 638Q354 658 367 675.5Q380 693 386 702H463Q456 691 441 673Q426 655 409 636Q392 617 375.5 599.5Q359 582 349 573ZM188 573Q194 582 205.5 600Q217 618 229.5 638Q242 658 253 676Q264 694 268 702H340Q334 691 321.5 673Q309 655 295 636Q281 617 267 599.5Q253 582 245 573Z" glyph-name="hungarumlaut" horiz-adv-x="440" unicode="&#733;" /><glyph d="M298 699 395 807H467L356 699ZM196 699 277 807H350L250 699Z" glyph-name="hungarumlaut.case" horiz-adv-x="440" /><glyph d="M63 228 69 292 247 299 242 235Z" glyph-name="hyphen" horiz-adv-x="265" unicode="-" /><glyph d="M71 310 77 378H263L257 310Z" glyph-name="hyphen.case" horiz-adv-x="274" /><glyph d="M121 595 128 682H210L203 595ZM73 0 115 483H189L147 0Z" glyph-name="i" horiz-adv-x="221" unicode="i" /><glyph d="M121 595 128 682H210L203 595ZM73 0 115 483H189L147 0Z" glyph-name="i.latn_TRK" horiz-adv-x="221" /><glyph d="M74 0 119 516H194L149 0Z" glyph-name="i.smcp" horiz-adv-x="223" /><glyph d="M123 581 168 645Q180 664 191 682Q202 700 208 716L280 713Q272 694 260 675Q248 656 232 634L190 581ZM73 0 115 483H189L147 0Z" glyph-name="iacute" horiz-adv-x="221" unicode="&#237;" /><glyph d="M119 569 229 677H318L192 569ZM74 0 119 516H194L149 0Z" glyph-name="iacute.smcp" horiz-adv-x="223" /><glyph d="M158 567Q110 567 87.5 596Q65 625 65 676Q65 681 65 687Q65 693 66 700H120V691Q120 657 130.5 640Q141 623 163 623Q186 623 199.5 641.5Q213 660 217 700H272Q266 634 237.5 600.5Q209 567 158 567ZM73 0 115 483H189L147 0Z" glyph-name="ibreve" horiz-adv-x="221" unicode="&#301;" /><glyph d="M160 558Q109 558 82 590.5Q55 623 55 683H111Q114 650 127.5 633Q141 616 165 616Q189 616 206.5 633Q224 650 231 683H287Q279 625 246 591.5Q213 558 160 558ZM74 0 119 516H194L149 0Z" glyph-name="ibreve.smcp" horiz-adv-x="223" /><glyph d="M48 571 134 702 202 705 269 571H205L165 651L112 571ZM73 0 115 483H189L147 0Z" glyph-name="icircumflex" horiz-adv-x="221" unicode="&#238;" /><glyph d="M41 569 136 686 207 688 281 569H215L168 637L107 569ZM74 0 119 516H194L149 0Z" glyph-name="icircumflex.smcp" horiz-adv-x="223" /><glyph d="M57 596 65 681H142L134 596ZM192 596 199 681H277L269 596ZM74 0 116 483H190L148 0Z" glyph-name="idieresis" horiz-adv-x="222" unicode="&#239;" /><glyph d="M54 577 61 660H140L133 577ZM191 577 198 660H277L270 577ZM74 0 119 516H194L149 0Z" glyph-name="idieresis.smcp" horiz-adv-x="223" /><glyph d="M121 577 128 660H210L202 577ZM74 0 119 516H194L149 0Z" glyph-name="idotaccent.smcp" horiz-adv-x="223" /><glyph d="M129 581 94 638Q83 657 73 676.5Q63 696 58 713L130 716Q136 699 144.5 681.5Q153 664 160 649L197 581ZM73 0 115 483H189L147 0Z" glyph-name="igrave" horiz-adv-x="221" unicode="&#236;" /><glyph d="M129 569 21 677H108L203 569ZM74 0 119 516H194L149 0Z" glyph-name="igrave.smcp" horiz-adv-x="223" /><glyph d="M335 595 342 682H424L417 595ZM121 595 128 682H210L203 595ZM193 -228V-161Q243 -147 262 -115Q281 -83 286 -20L329 483H403L360 -28Q353 -116 316 -162.5Q279 -209 193 -228ZM73 0 115 483H189L147 0Z" glyph-name="ij" horiz-adv-x="435" unicode="&#307;" /><glyph d="M74 0 119 516H194L149 0ZM240 -9V56Q304 69 329 98.5Q354 128 360 195L388 516H463L434 181Q427 91 381 47Q335 3 240 -9Z" glyph-name="ij.smcp" horiz-adv-x="480" /><glyph d="M62 606 67 662H266L262 606ZM73 0 115 483H189L147 0Z" glyph-name="imacron" horiz-adv-x="221" unicode="&#299;" /><glyph d="M54 589 59 647H277L271 589ZM74 0 119 516H194L149 0Z" glyph-name="imacron.smcp" horiz-adv-x="223" /><glyph d="M194 106Q135 106 100.5 147.5Q66 189 67 257Q68 330 110.5 379.5Q153 429 214 429Q252 429 284.5 402Q317 375 345 324Q378 377 412 403Q446 429 486 429Q544 429 579.5 388Q615 347 614 283Q613 207 570.5 157Q528 107 466 107Q423 107 391 133.5Q359 160 335 211Q304 160 268 133Q232 106 194 106ZM202 176Q226 176 251 199.5Q276 223 302 266Q277 313 255.5 336.5Q234 360 211 360Q179 360 156.5 332.5Q134 305 133 256Q133 219 153.5 197.5Q174 176 202 176ZM377 266Q402 217 423 196.5Q444 176 469 176Q500 176 523 202Q546 228 547 274Q547 312 526 335Q505 358 478 358Q454 358 431 336Q408 314 377 266Z" glyph-name="infinity" horiz-adv-x="631" unicode="&#8734;" /><glyph d="M27 -225Q18 -225 5.5 -224Q-7 -223 -16 -219L-4 -159Q3 -161 12 -162Q21 -163 28 -163Q73 -163 98.5 -131Q124 -99 134 -30L217 536Q230 620 272.5 670Q315 720 393 720Q403 720 416 718.5Q429 717 437 714L426 651Q419 653 409.5 654Q400 655 393 655Q349 655 322.5 622.5Q296 590 286 521L202 -51Q191 -131 148.5 -178Q106 -225 27 -225Z" glyph-name="integral" horiz-adv-x="369" unicode="&#8747;" /><glyph d="M121 595 128 682H210L203 595ZM73 -226Q35 -226 13 -204.5Q-9 -183 -9 -146Q-9 -103 15.5 -64Q40 -25 79 0H73L115 483H189L147 0H139Q99 -34 76 -65Q53 -96 53 -124Q53 -146 63 -158Q73 -170 91 -170Q104 -170 115.5 -166.5Q127 -163 138 -156L129 -213Q112 -220 100.5 -223Q89 -226 73 -226Z" glyph-name="iogonek" horiz-adv-x="221" unicode="&#303;" /><glyph d="M74 -229Q36 -229 14 -207.5Q-8 -186 -8 -149Q-8 -108 15 -71Q38 -34 81 1H74L119 516H194L149 0H144Q101 -35 78 -67Q55 -99 55 -127Q55 -149 64.5 -161Q74 -173 92 -173Q105 -173 116.5 -169.5Q128 -166 139 -159L129 -216Q113 -223 101.5 -226Q90 -229 74 -229Z" glyph-name="iogonek.smcp" horiz-adv-x="223" /><glyph d="M53 585Q58 636 73.5 660Q89 684 119 684Q132 684 143 679Q154 674 163 667.5Q172 661 180.5 656Q189 651 198 651Q211 651 216.5 662.5Q222 674 224 696L276 692Q271 640 253.5 615Q236 590 204 590Q192 590 181.5 595.5Q171 601 161.5 607Q152 613 144 618.5Q136 624 130 624Q120 624 113.5 614.5Q107 605 106 585ZM73 0 115 483H189L147 0Z" glyph-name="itilde" horiz-adv-x="221" unicode="&#297;" /><glyph d="M42 574Q46 626 65.5 649.5Q85 673 118 673Q133 673 144 667.5Q155 662 164.5 656Q174 650 183.5 644.5Q193 639 204 639Q217 639 225 653Q233 667 235 688L287 681Q279 629 259 605Q239 581 202 581Q185 581 174 586Q163 591 154 597Q145 603 137.5 608Q130 613 121 613Q110 613 103 603Q96 593 93 574ZM74 0 119 516H194L149 0Z" glyph-name="itilde.smcp" horiz-adv-x="223" /><glyph d="M121 595 128 682H210L203 595ZM-21 -228V-161Q29 -147 48 -115Q67 -83 72 -20L115 483H189L146 -28Q139 -116 102 -162.5Q65 -209 -21 -228Z" glyph-name="j" horiz-adv-x="221" unicode="j" /><glyph d="M25 -9V56Q89 69 114 98.5Q139 128 145 195L173 516H248L219 181Q212 91 166 47Q120 3 25 -9Z" glyph-name="j.smcp" horiz-adv-x="266" /><glyph d="M49 571 135 702 203 705 270 571H206L166 651L113 571ZM-21 -226V-160Q28 -144 47.5 -113.5Q67 -83 72 -20L115 483H189L146 -29Q139 -117 101 -162.5Q63 -208 -21 -226Z" glyph-name="jcircumflex" horiz-adv-x="221" unicode="&#309;" /><glyph d="M95 569 190 686 261 688 335 569H269L222 637L161 569ZM25 -9V56Q89 69 114 98.5Q139 128 145 195L173 516H248L219 181Q212 91 166 47Q120 3 25 -9Z" glyph-name="jcircumflex.smcp" horiz-adv-x="266" /><glyph d="M73 0 120 537Q124 582 126 626Q128 670 128 710L203 715Q204 702 204 693Q204 684 204 673Q203 655 201 624Q199 593 196 558L147 0ZM326 0 178 264 285 374Q316 406 334.5 429Q353 452 369 486L445 480Q428 440 404 409Q380 378 340 339L259 261L407 0Z" glyph-name="k" horiz-adv-x="416" unicode="k" /><glyph d="M74 0 119 516H193L172 272L397 516H483L254 267L434 0H350L171 264L148 0Z" glyph-name="k.smcp" horiz-adv-x="445" /><glyph d="M73 0 120 537Q124 582 126 626Q128 670 128 710L203 715Q204 702 204 693Q204 684 204 673Q203 655 201 624Q199 593 196 558L147 0ZM326 0 178 264 285 374Q316 406 334.5 429Q353 452 369 486L445 480Q428 440 404 409Q380 378 340 339L259 261L407 0ZM209 -236 152 -229Q171 -189 178.5 -159.5Q186 -130 190 -80L191 -68H255L253 -85Q249 -140 239.5 -171Q230 -202 209 -236Z" glyph-name="kcommaaccent" horiz-adv-x="416" unicode="&#311;" /><glyph d="M74 0 119 516H193L172 272L397 516H483L254 267L434 0H350L171 264L148 0ZM225 -235 166 -229Q184 -189 191 -158.5Q198 -128 202 -83L203 -68H271L269 -85Q265 -130 256 -164.5Q247 -199 225 -235Z" glyph-name="kcommaaccent.smcp" horiz-adv-x="445" /><glyph d="M329 0 181 264 282 367Q313 400 334.5 426Q356 452 373 486L449 480Q430 440 406.5 409Q383 378 343 339L263 261L410 0ZM75 0 104 334Q108 369 109.5 406Q111 443 111 480L185 485Q185 453 183 410.5Q181 368 179 343L149 0Z" glyph-name="kgreenlandic" horiz-adv-x="419" unicode="&#312;" /><glyph d="M189 -4Q131 6 105.5 34Q80 62 80 113Q80 119 81.5 138Q83 157 84 175L116 544Q120 590 122 630Q124 670 124 710L199 715V673Q199 655 197 624Q195 593 191 558L158 180Q157 163 155.5 147Q154 131 154 125Q154 97 164.5 83.5Q175 70 201 62Z" glyph-name="l" horiz-adv-x="226" unicode="l" /><glyph d="M74 0 119 516H194L155 68H376L364 0Z" glyph-name="l.smcp" horiz-adv-x="392" /><glyph d="M140 774 185 838Q197 857 208 875Q219 893 225 909L297 906Q289 887 277 868Q265 849 249 827L207 774ZM189 -4Q131 6 105.5 34Q80 62 80 113Q80 119 81.5 138Q83 157 84 175L116 544Q120 590 122 630Q124 670 124 710L199 715V673Q199 655 197 624Q195 593 191 558L158 180Q157 163 155.5 147Q154 131 154 125Q154 97 164.5 83.5Q175 70 201 62Z" glyph-name="lacute" horiz-adv-x="234" unicode="&#314;" /><glyph d="M128 572 238 680H327L201 572ZM74 0 119 516H194L155 68H376L364 0Z" glyph-name="lacute.smcp" horiz-adv-x="392" /><glyph d="M189 -4Q131 6 105.5 34Q80 62 80 113Q80 119 81.5 138Q83 157 84 175L116 544Q120 590 122 630Q124 670 124 710L199 715V673Q199 655 197 624Q195 593 191 558L158 180Q157 163 155.5 147Q154 131 154 125Q154 97 164.5 83.5Q175 70 201 62ZM229 533Q234 550 240.5 574Q247 598 253 623.5Q259 649 264.5 672.5Q270 696 273 712H341Q337 694 330 670Q323 646 315.5 621Q308 596 300 573Q292 550 285 533Z" glyph-name="lcaron" horiz-adv-x="226" unicode="&#318;" /><glyph d="M254 333Q262 354 270.5 378.5Q279 403 286 427.5Q293 452 299 475Q305 498 309 516H380Q375 495 367 470.5Q359 446 349.5 421Q340 396 329.5 373Q319 350 310 333ZM74 0 119 516H194L155 68H376L364 0Z" glyph-name="lcaron.smcp" horiz-adv-x="392" /><glyph d="M189 -4Q131 6 105.5 34Q80 62 80 113Q80 119 81.5 138Q83 157 84 175L116 544Q120 590 122 630Q124 670 124 710L199 715V673Q199 655 197 624Q195 593 191 558L158 180Q157 163 155.5 147Q154 131 154 125Q154 97 164.5 83.5Q175 70 201 62ZM93 -236 36 -229Q55 -189 62.5 -159.5Q70 -130 74 -80L75 -68H139L137 -85Q133 -140 123.5 -171Q114 -202 93 -236Z" glyph-name="lcommaaccent" horiz-adv-x="226" unicode="&#316;" /><glyph d="M74 0 119 516H194L155 68H376L364 0ZM201 -235 142 -229Q160 -189 167 -158.5Q174 -128 178 -83L179 -68H247L245 -85Q241 -130 232 -164.5Q223 -199 201 -235Z" glyph-name="lcommaaccent.smcp" horiz-adv-x="392" /><glyph d="M453 -4Q395 6 369.5 34Q344 62 344 113Q344 119 345.5 138Q347 157 348 175L380 544Q384 590 386 630Q388 670 388 710L463 715V673Q463 655 461 624Q459 593 455 558L422 180Q421 163 419.5 147Q418 131 418 125Q418 97 428.5 83.5Q439 70 465 62ZM189 -4Q131 6 105.5 34Q80 62 80 113Q80 119 81.5 138Q83 157 84 175L116 544Q120 590 122 630Q124 670 124 710L199 715V673Q199 655 197 624Q195 593 191 558L158 180Q157 163 155.5 147Q154 131 154 125Q154 97 164.5 83.5Q175 70 201 62ZM229 353 237 440H315L307 353Z" glyph-name="ldot" horiz-adv-x="490" unicode="&#320;" /><glyph d="M432 0 477 516H552L513 68H734L722 0ZM74 0 119 516H194L155 68H376L364 0ZM273 250 281 340H367L359 250Z" glyph-name="ldot.smcp" horiz-adv-x="750" /><glyph d="M431 40 61 291 66 357 481 609 477 527 138 324 442 121Z" glyph-name="less" horiz-adv-x="475" unicode="&lt;" /><glyph d="M63 195 66 253 484 654 481 574 160 261H454L448 195ZM44 0 49 66H437L432 0Z" glyph-name="lessequal" horiz-adv-x="475" unicode="&#8804;" /><glyph d="M230 -8Q172 -8 142 23.5Q112 55 112 118Q112 125 113 140.5Q114 156 118 196L74 157L59 208L124 273L144 497Q151 575 180 614.5Q209 654 266 654Q311 654 333.5 625Q356 596 356 546Q356 469 314 394.5Q272 320 188 243Q183 186 181 164.5Q179 143 179 139Q179 96 197 77Q215 58 253 58Q268 58 286 63Q304 68 317 75L305 8Q290 1 269 -3.5Q248 -8 230 -8ZM195 319Q240 373 265 431.5Q290 490 290 537Q290 563 281.5 578Q273 593 259 593Q237 593 225.5 573Q214 553 210 505Z" glyph-name="litre" horiz-adv-x="359" unicode="&#8467;" /><glyph d="M78 334 83 400H446L421 113H355L375 334Z" glyph-name="logicalnot" horiz-adv-x="475" unicode="&#172;" /><glyph d="M210 -6 83 311 86 335 266 652H321L449 335L446 311L266 -6ZM245 72 386 321 287 574 146 325Z" glyph-name="lozenge" horiz-adv-x="475" unicode="&#9674;" /><glyph d="M189 -4Q131 6 105.5 34Q80 62 80 113Q80 119 81.5 138Q83 157 84 175L96 305L41 266L48 333L102 372L116 544Q120 590 122 630Q124 670 124 710L199 715V673Q199 655 197 624Q195 593 191 558L180 428L256 484L249 414L174 360L158 180Q157 163 155.5 147Q154 131 154 125Q154 97 164.5 83.5Q175 70 201 62Z" glyph-name="lslash" horiz-adv-x="226" unicode="&#322;" /><glyph d="M74 0 92 208 42 179 48 246 98 275 119 516H194L177 318L273 375L267 307L171 251L155 68H376L364 0Z" glyph-name="lslash.smcp" horiz-adv-x="392" /><glyph d="M75 0 104 334Q107 369 109 406Q111 443 111 481L181 486Q181 452 179.5 411.5Q178 371 176 346Q198 413 237.5 453Q277 493 326 493Q375 493 401 459.5Q427 426 430 364Q454 428 493 460.5Q532 493 577 493Q625 493 653.5 460.5Q682 428 682 357Q682 350 681 332.5Q680 315 678 291L653 0H579L603 271Q605 293 606 311Q607 329 607 336Q607 382 593 402.5Q579 423 557 423Q532 423 508 399Q484 375 464.5 332Q445 289 430.5 229.5Q416 170 410 99L401 0H327L351 271Q353 293 354 311Q355 329 355 336Q355 382 341.5 402.5Q328 423 306 423Q281 423 256.5 398.5Q232 374 212.5 330.5Q193 287 178 226.5Q163 166 157 95L149 0Z" glyph-name="m" horiz-adv-x="721" unicode="m" /><glyph d="M55 0 133 516H226L323 193L481 516H572L555 0H483L497 408L340 81L283 85L186 409L125 0Z" glyph-name="m.smcp" horiz-adv-x="611" /><glyph d="M173 606 178 662H377L373 606Z" glyph-name="macron" horiz-adv-x="440" unicode="&#175;" /><glyph d="M174 719 179 777H397L391 719Z" glyph-name="macron.case" horiz-adv-x="440" /><glyph d="M89 308 94 370H445L439 308Z" glyph-name="minus" horiz-adv-x="475" unicode="&#8722;" /><glyph d="M-21 -228V-161Q29 -147 48 -115Q67 -83 72 -20L115 483H190L166 207Q164 185 163 168.5Q162 152 162 145Q162 102 173.5 81Q185 60 214 60Q240 60 264 84.5Q288 109 308 153.5Q328 198 342.5 261Q357 324 364 401L371 483H445L415 142Q414 124 413 106Q412 88 412 73Q412 55 413.5 38.5Q415 22 418 4L347 -6Q344 6 342.5 23Q341 40 341 59Q341 73 342.5 95Q344 117 347 136Q327 72 290 33Q253 -6 209 -8Q192 -9 176 -4.5Q160 0 149 11L145 -33Q137 -118 100 -164Q63 -210 -21 -228Z" glyph-name="mu" horiz-adv-x="478" unicode="&#181;" /><glyph d="M77 175 227 335 107 494 153 541 271 384 417 540 453 495 307 337 430 175 383 128 263 288 114 128Z" glyph-name="multiply" horiz-adv-x="475" unicode="&#215;" /><glyph d="M75 0 104 334Q108 369 109.5 406Q111 443 111 481L181 486Q181 452 179 409.5Q177 367 175 343Q197 412 237 452.5Q277 493 325 493Q380 493 409 457.5Q438 422 438 350Q438 344 437 327Q436 310 434 287L409 0H335L358 265Q360 287 361.5 307Q363 327 363 332Q363 380 350 401.5Q337 423 307 423Q282 423 257.5 398Q233 373 213 328Q193 283 178 220.5Q163 158 156 83L149 0Z" glyph-name="n" horiz-adv-x="478" unicode="n" /><glyph d="M74 0 119 516H193L390 126L424 516H491L446 2L376 -2L175 395L141 0Z" glyph-name="n.smcp" horiz-adv-x="519" /><glyph d="M262 581 307 645Q319 664 330 682Q341 700 347 716L419 713Q411 694 399 675Q387 656 371 634L329 581ZM75 0 104 334Q108 369 109.5 406Q111 443 111 481L181 486Q181 452 179 409.5Q177 367 175 343Q197 412 237 452.5Q277 493 325 493Q380 493 409 457.5Q438 422 438 350Q438 344 437 327Q436 310 434 287L409 0H335L358 265Q360 287 361.5 307Q363 327 363 332Q363 380 350 401.5Q337 423 307 423Q282 423 257.5 398Q233 373 213 328Q193 283 178 220.5Q163 158 156 83L149 0Z" glyph-name="nacute" horiz-adv-x="478" unicode="&#324;" /><glyph d="M280 569 390 677H479L353 569ZM74 0 119 516H193L390 126L424 516H491L446 2L376 -2L175 395L141 0Z" glyph-name="nacute.smcp" horiz-adv-x="519" /><glyph d="M103 469 44 475Q62 515 69 545.5Q76 576 80 621L81 636H149L147 619Q143 574 134 539.5Q125 505 103 469ZM119 0 148 334Q152 369 153.5 406Q155 443 155 481L225 486Q225 452 223 409.5Q221 367 219 343Q241 412 281 452.5Q321 493 369 493Q424 493 453 457.5Q482 422 482 350Q482 344 481 327Q480 310 478 287L453 0H379L402 265Q404 287 405.5 307Q407 327 407 332Q407 380 394 401.5Q381 423 351 423Q326 423 301.5 398Q277 373 257 328Q237 283 222 220.5Q207 158 200 83L193 0Z" glyph-name="napostrophe" horiz-adv-x="521" unicode="&#329;" /><glyph d="M267 567 198 700H256L301 617L357 700H420L331 570ZM75 0 104 334Q108 369 109.5 406Q111 443 111 481L181 486Q181 452 179 409.5Q177 367 175 343Q197 412 237 452.5Q277 493 325 493Q380 493 409 457.5Q438 422 438 350Q438 344 437 327Q436 310 434 287L409 0H335L358 265Q360 287 361.5 307Q363 327 363 332Q363 380 350 401.5Q337 423 307 423Q282 423 257.5 398Q233 373 213 328Q193 283 178 220.5Q163 158 156 83L149 0Z" glyph-name="ncaron" horiz-adv-x="478" unicode="&#328;" /><glyph d="M286 561 212 680H276L325 610L385 680H450L354 562ZM74 0 119 516H193L390 126L424 516H491L446 2L376 -2L175 395L141 0Z" glyph-name="ncaron.smcp" horiz-adv-x="519" /><glyph d="M75 0 104 334Q108 369 109.5 406Q111 443 111 481L181 486Q181 452 179 409.5Q177 367 175 343Q197 412 237 452.5Q277 493 325 493Q380 493 409 457.5Q438 422 438 350Q438 344 437 327Q436 310 434 287L409 0H335L358 265Q360 287 361.5 307Q363 327 363 332Q363 380 350 401.5Q337 423 307 423Q282 423 257.5 398Q233 373 213 328Q193 283 178 220.5Q163 158 156 83L149 0ZM225 -236 168 -229Q187 -189 194.5 -159.5Q202 -130 206 -80L207 -68H271L269 -85Q265 -140 255.5 -171Q246 -202 225 -236Z" glyph-name="ncommaaccent" horiz-adv-x="478" unicode="&#326;" /><glyph d="M74 0 119 516H193L390 126L424 516H491L446 2L376 -2L175 395L141 0ZM240 -235 181 -229Q199 -189 206 -158.5Q213 -128 217 -83L218 -68H286L284 -85Q280 -130 271 -164.5Q262 -199 240 -235Z" glyph-name="ncommaaccent.smcp" horiz-adv-x="519" /><glyph d="M278 657Q367 657 412 592Q457 527 457 413Q457 321 431 245.5Q405 170 357 115.5Q309 61 240 29Q171 -3 86 -8V59Q185 69 252 116.5Q319 164 351 245Q335 239 316.5 236Q298 233 278 233Q192 233 139 285.5Q86 338 86 432Q86 482 101 523.5Q116 565 141.5 594.5Q167 624 202.5 640.5Q238 657 278 657ZM273 588Q228 588 196 547.5Q164 507 164 438Q164 372 202.5 337.5Q241 303 301 303Q319 303 336 305.5Q353 308 372 315Q376 337 378 361Q380 385 380 411Q380 498 352 543Q324 588 273 588Z" glyph-name="nine" horiz-adv-x="477" unicode="9" /><glyph d="M174 357Q221 357 250.5 320.5Q280 284 280 221Q280 173 265.5 131.5Q251 90 223 59Q195 28 153 9.5Q111 -9 57 -11V38Q116 42 159.5 70Q203 98 216 149Q204 138 186 131.5Q168 125 149 125Q105 125 80 152.5Q55 180 55 225Q55 278 86.5 317.5Q118 357 174 357ZM170 308Q141 308 127.5 286.5Q114 265 114 232Q114 204 128.5 187.5Q143 171 169 171Q182 171 196 177Q210 183 223 193Q224 199 224 204.5Q224 210 224 217Q224 260 209.5 284Q195 308 170 308Z" glyph-name="nine.dnom" horiz-adv-x="300" /><glyph d="M256 494Q340 494 385.5 430Q431 366 431 248Q431 157 403 78Q375 -1 325 -61.5Q275 -122 203.5 -160.5Q132 -199 46 -209V-141Q147 -124 218.5 -66.5Q290 -9 324 77Q310 73 293 70Q276 67 260 67Q173 67 119.5 120Q66 173 66 264Q66 370 117.5 432Q169 494 256 494ZM251 427Q200 427 170.5 384.5Q141 342 141 275Q141 207 179.5 171.5Q218 136 282 136Q298 136 314 138.5Q330 141 345 147Q350 170 352.5 196Q355 222 355 248Q355 331 327.5 379Q300 427 251 427Z" glyph-name="nine.osf" horiz-adv-x="457" /><glyph d="M253 533Q326 533 369 480Q412 427 412 336Q412 262 389 201Q366 140 323 95.5Q280 51 218 24.5Q156 -2 78 -6V58Q161 65 218 98Q275 131 303 189Q291 187 279 186Q267 185 255 185Q171 185 125 228.5Q79 272 79 350Q79 433 127 483Q175 533 253 533ZM246 467Q204 467 179.5 436Q155 405 155 353Q155 304 190 277Q225 250 280 250Q290 250 302 251.5Q314 253 326 255Q330 273 332 291.5Q334 310 334 332Q334 396 312 431.5Q290 467 246 467Z" glyph-name="nine.smcp" horiz-adv-x="435" /><glyph d="M207 736Q254 736 283.5 699.5Q313 663 313 600Q313 552 298.5 510.5Q284 469 256 438Q228 407 186 388.5Q144 370 90 368V417Q149 421 192.5 449Q236 477 249 528Q237 517 219 510.5Q201 504 182 504Q138 504 113 531.5Q88 559 88 604Q88 657 119.5 696.5Q151 736 207 736ZM203 687Q174 687 160.5 665.5Q147 644 147 611Q147 583 161.5 566.5Q176 550 202 550Q215 550 229 556Q243 562 256 572Q257 578 257 583.5Q257 589 257 596Q257 639 242.5 663Q228 687 203 687Z" glyph-name="nine.sup" horiz-adv-x="299" /><glyph d="M277 657Q366 657 411 592Q456 527 456 413Q456 321 430 245.5Q404 170 356 115.5Q308 61 239 29Q170 -3 85 -8V59Q184 69 251 116.5Q318 164 350 245Q334 239 315.5 236Q297 233 277 233Q191 233 138 285.5Q85 338 85 432Q85 482 100 523.5Q115 565 140.5 594.5Q166 624 201.5 640.5Q237 657 277 657ZM272 588Q227 588 195 547.5Q163 507 163 438Q163 372 201.5 337.5Q240 303 300 303Q318 303 335 305.5Q352 308 371 315Q375 337 377 361Q379 385 379 411Q379 498 351 543Q323 588 272 588Z" glyph-name="nine.tf" horiz-adv-x="475" /><glyph d="M268 494Q352 494 397.5 430Q443 366 443 248Q443 157 415 78Q387 -1 337 -61.5Q287 -122 215.5 -160.5Q144 -199 58 -209V-141Q159 -124 230.5 -66.5Q302 -9 336 77Q322 73 305 70Q288 67 272 67Q185 67 131.5 120Q78 173 78 264Q78 370 129.5 432Q181 494 268 494ZM263 427Q212 427 182.5 384.5Q153 342 153 275Q153 207 191.5 171.5Q230 136 294 136Q310 136 326 138.5Q342 141 357 147Q362 170 364.5 196Q367 222 367 248Q367 331 339.5 379Q312 427 263 427Z" glyph-name="nine.tosf" horiz-adv-x="475" /><glyph d="M89 0 187 214H82L87 276H215L273 402H97L102 464H302L385 646H442L359 464H453L447 402H331L273 276H438L432 214H245L147 0Z" glyph-name="notequal" horiz-adv-x="475" unicode="&#8800;" /><glyph d="M192 585Q197 636 212.5 660Q228 684 258 684Q271 684 282 679Q293 674 302 667.5Q311 661 319.5 656Q328 651 337 651Q350 651 355.5 662.5Q361 674 363 696L415 692Q410 640 392.5 615Q375 590 343 590Q331 590 320.5 595.5Q310 601 300.5 607Q291 613 283 618.5Q275 624 269 624Q259 624 252.5 614.5Q246 605 245 585ZM75 0 104 334Q108 369 109.5 406Q111 443 111 481L181 486Q181 452 179 409.5Q177 367 175 343Q197 412 237 452.5Q277 493 325 493Q380 493 409 457.5Q438 422 438 350Q438 344 437 327Q436 310 434 287L409 0H335L358 265Q360 287 361.5 307Q363 327 363 332Q363 380 350 401.5Q337 423 307 423Q282 423 257.5 398Q233 373 213 328Q193 283 178 220.5Q163 158 156 83L149 0Z" glyph-name="ntilde" horiz-adv-x="478" unicode="&#241;" /><glyph d="M203 574Q207 626 226.5 649.5Q246 673 279 673Q294 673 305 667.5Q316 662 325.5 656Q335 650 344.5 644.5Q354 639 365 639Q378 639 386 653Q394 667 396 688L448 681Q440 629 420 605Q400 581 363 581Q346 581 335 586Q324 591 315 597Q306 603 298.5 608Q291 613 282 613Q271 613 264 603Q257 593 254 574ZM74 0 119 516H193L390 126L424 516H491L446 2L376 -2L175 395L141 0Z" glyph-name="ntilde.smcp" horiz-adv-x="519" /><glyph d="M86 0 119 174H62L74 243H131L165 413H103L115 483H177L208 646H270L239 483H365L397 646H459L428 483H485L473 413H416L383 243H444L431 174H370L338 0H275L307 174H182L149 0ZM194 243H320L353 413H227Z" glyph-name="numbersign" horiz-adv-x="489" unicode="#" /><glyph d="M739 299Q684 299 651.5 340Q619 381 619 450Q619 539 660 595Q701 651 768 651Q823 651 855.5 611Q888 571 888 502Q888 411 847.5 355Q807 299 739 299ZM84 0 140 646H214L438 145L481 646H552L496 3L424 -2L198 503L154 0ZM745 356Q782 356 803.5 393.5Q825 431 825 495Q825 542 809 568.5Q793 595 762 595Q725 595 703.5 557Q682 519 682 455Q682 408 698 382Q714 356 745 356ZM604 178 609 237H854L848 178Z" glyph-name="numero" horiz-adv-x="918" unicode="&#8470;" /><glyph d="M231 -11Q150 -11 107 49Q64 109 64 205Q64 269 78.5 322.5Q93 376 119.5 413.5Q146 451 184.5 472Q223 493 270 493Q351 493 394 434Q437 375 437 280Q437 214 422.5 160Q408 106 382 68.5Q356 31 317.5 10Q279 -11 231 -11ZM239 60Q292 60 326 117.5Q360 175 360 271Q360 343 335.5 383Q311 423 262 423Q210 423 175.5 365.5Q141 308 141 211Q141 139 165.5 99.5Q190 60 239 60Z" glyph-name="o" horiz-adv-x="458" unicode="o" /><glyph d="M252 -11Q167 -11 117 51Q67 113 67 217Q67 286 84 343.5Q101 401 131 441.5Q161 482 204 504.5Q247 527 299 527Q384 527 434 465Q484 403 484 299Q484 230 467 172.5Q450 115 420 74.5Q390 34 347 11.5Q304 -11 252 -11ZM258 60Q326 60 365 123Q404 186 404 295Q404 372 375 414.5Q346 457 292 457Q225 457 186 393.5Q147 330 147 221Q147 144 176 102Q205 60 258 60Z" glyph-name="o.smcp" horiz-adv-x="506" /><glyph d="M242 581 287 645Q299 664 310 682Q321 700 327 716L399 713Q391 694 379 675Q367 656 351 634L309 581ZM231 -11Q150 -11 107 49Q64 109 64 205Q64 269 78.5 322.5Q93 376 119.5 413.5Q146 451 184.5 472Q223 493 270 493Q351 493 394 434Q437 375 437 280Q437 214 422.5 160Q408 106 382 68.5Q356 31 317.5 10Q279 -11 231 -11ZM239 60Q292 60 326 117.5Q360 175 360 271Q360 343 335.5 383Q311 423 262 423Q210 423 175.5 365.5Q141 308 141 211Q141 139 165.5 99.5Q190 60 239 60Z" glyph-name="oacute" horiz-adv-x="458" unicode="&#243;" /><glyph d="M262 570 372 678H461L335 570ZM252 -11Q167 -11 117 51Q67 113 67 217Q67 286 84 343.5Q101 401 131 441.5Q161 482 204 504.5Q247 527 299 527Q384 527 434 465Q484 403 484 299Q484 230 467 172.5Q450 115 420 74.5Q390 34 347 11.5Q304 -11 252 -11ZM258 60Q326 60 365 123Q404 186 404 295Q404 372 375 414.5Q346 457 292 457Q225 457 186 393.5Q147 330 147 221Q147 144 176 102Q205 60 258 60Z" glyph-name="oacute.smcp" horiz-adv-x="506" /><glyph d="M277 567Q229 567 206.5 596Q184 625 184 676Q184 681 184 687Q184 693 185 700H239V691Q239 657 249.5 640Q260 623 282 623Q305 623 318.5 641.5Q332 660 336 700H391Q385 634 356.5 600.5Q328 567 277 567ZM231 -11Q150 -11 107 49Q64 109 64 205Q64 269 78.5 322.5Q93 376 119.5 413.5Q146 451 184.5 472Q223 493 270 493Q351 493 394 434Q437 375 437 280Q437 214 422.5 160Q408 106 382 68.5Q356 31 317.5 10Q279 -11 231 -11ZM239 60Q292 60 326 117.5Q360 175 360 271Q360 343 335.5 383Q311 423 262 423Q210 423 175.5 365.5Q141 308 141 211Q141 139 165.5 99.5Q190 60 239 60Z" glyph-name="obreve" horiz-adv-x="458" unicode="&#335;" /><glyph d="M303 558Q252 558 225 590.5Q198 623 198 683H254Q257 650 270.5 633Q284 616 308 616Q332 616 349.5 633Q367 650 374 683H430Q422 625 389 591.5Q356 558 303 558ZM252 -11Q167 -11 117 51Q67 113 67 217Q67 286 84 343.5Q101 401 131 441.5Q161 482 204 504.5Q247 527 299 527Q384 527 434 465Q484 403 484 299Q484 230 467 172.5Q450 115 420 74.5Q390 34 347 11.5Q304 -11 252 -11ZM258 60Q326 60 365 123Q404 186 404 295Q404 372 375 414.5Q346 457 292 457Q225 457 186 393.5Q147 330 147 221Q147 144 176 102Q205 60 258 60Z" glyph-name="obreve.smcp" horiz-adv-x="506" /><glyph d="M167 571 253 702 321 705 388 571H324L284 651L231 571ZM231 -11Q150 -11 107 49Q64 109 64 205Q64 269 78.5 322.5Q93 376 119.5 413.5Q146 451 184.5 472Q223 493 270 493Q351 493 394 434Q437 375 437 280Q437 214 422.5 160Q408 106 382 68.5Q356 31 317.5 10Q279 -11 231 -11ZM239 60Q292 60 326 117.5Q360 175 360 271Q360 343 335.5 383Q311 423 262 423Q210 423 175.5 365.5Q141 308 141 211Q141 139 165.5 99.5Q190 60 239 60Z" glyph-name="ocircumflex" horiz-adv-x="458" unicode="&#244;" /><glyph d="M184 569 279 686 350 688 424 569H358L311 637L250 569ZM252 -11Q167 -11 117 51Q67 113 67 217Q67 286 84 343.5Q101 401 131 441.5Q161 482 204 504.5Q247 527 299 527Q384 527 434 465Q484 403 484 299Q484 230 467 172.5Q450 115 420 74.5Q390 34 347 11.5Q304 -11 252 -11ZM258 60Q326 60 365 123Q404 186 404 295Q404 372 375 414.5Q346 457 292 457Q225 457 186 393.5Q147 330 147 221Q147 144 176 102Q205 60 258 60Z" glyph-name="ocircumflex.smcp" horiz-adv-x="506" /><glyph d="M175 596 183 681H260L252 596ZM310 596 317 681H395L387 596ZM231 -11Q150 -11 107 49Q64 109 64 205Q64 269 78.5 322.5Q93 376 119.5 413.5Q146 451 184.5 472Q223 493 270 493Q351 493 394 434Q437 375 437 280Q437 214 422.5 160Q408 106 382 68.5Q356 31 317.5 10Q279 -11 231 -11ZM239 60Q292 60 326 117.5Q360 175 360 271Q360 343 335.5 383Q311 423 262 423Q210 423 175.5 365.5Q141 308 141 211Q141 139 165.5 99.5Q190 60 239 60Z" glyph-name="odieresis" horiz-adv-x="458" unicode="&#246;" /><glyph d="M197 577 204 660H283L276 577ZM334 577 341 660H420L413 577ZM252 -11Q167 -11 117 51Q67 113 67 217Q67 286 84 343.5Q101 401 131 441.5Q161 482 204 504.5Q247 527 299 527Q384 527 434 465Q484 403 484 299Q484 230 467 172.5Q450 115 420 74.5Q390 34 347 11.5Q304 -11 252 -11ZM258 60Q326 60 365 123Q404 186 404 295Q404 372 375 414.5Q346 457 292 457Q225 457 186 393.5Q147 330 147 221Q147 144 176 102Q205 60 258 60Z" glyph-name="odieresis.smcp" horiz-adv-x="506" /><glyph d="M569 493Q628 493 661.5 463Q695 433 695 379Q695 320 658 284Q621 248 554 232L435 203Q435 133 465 96Q495 59 557 59Q593 59 622.5 73Q652 87 678 109L663 29Q640 10 608.5 -0.5Q577 -11 545 -11Q489 -11 448.5 13.5Q408 38 387 83Q362 39 322 14Q282 -11 231 -11Q150 -11 107 49Q64 109 64 205Q64 269 78.5 322.5Q93 376 119.5 413.5Q146 451 184.5 472Q223 493 270 493Q320 493 356 468Q392 443 411 400Q437 443 477 468Q517 493 569 493ZM441 269 540 293Q577 302 598.5 321Q620 340 620 374Q620 402 603.5 415.5Q587 429 559 429Q515 429 480.5 386.5Q446 344 441 269ZM239 60Q292 60 326 117.5Q360 175 360 271Q360 343 335.5 383Q311 423 262 423Q210 423 175.5 365.5Q141 308 141 211Q141 139 165.5 99.5Q190 60 239 60Z" glyph-name="oe" horiz-adv-x="706" unicode="&#339;" /><glyph d="M284 0Q181 0 124.5 56.5Q68 113 68 214Q68 354 139 435Q210 516 332 516H700L694 450H448L436 303H660L654 238H430L415 66H665L654 0ZM291 66H341L374 450H334Q244 450 196 390Q148 330 148 220Q148 144 184 105Q220 66 291 66Z" glyph-name="oe.smcp" horiz-adv-x="702" /><glyph d="M185 -229Q148 -229 125.5 -207.5Q103 -186 103 -149Q103 -108 125.5 -71Q148 -34 191 1L260 4Q215 -33 190 -65.5Q165 -98 165 -127Q165 -149 175 -161Q185 -173 203 -173Q216 -173 227.5 -169.5Q239 -166 250 -159L240 -216Q223 -223 212 -226Q201 -229 185 -229Z" glyph-name="ogonek" horiz-adv-x="440" unicode="&#731;" /><glyph d="M179 -229Q142 -229 119 -208Q96 -187 96 -150Q96 -113 120 -73Q144 -33 187 1L260 7Q214 -33 188.5 -66Q163 -99 163 -127Q163 -151 171.5 -160Q180 -169 200 -169Q210 -169 221 -166.5Q232 -164 244 -157L236 -216Q218 -224 206 -226.5Q194 -229 179 -229Z" glyph-name="ogonek.case" horiz-adv-x="440" /><glyph d="M248 581 213 638Q202 657 192 676.5Q182 696 177 713L249 716Q255 699 263.5 681.5Q272 664 279 649L316 581ZM231 -11Q150 -11 107 49Q64 109 64 205Q64 269 78.5 322.5Q93 376 119.5 413.5Q146 451 184.5 472Q223 493 270 493Q351 493 394 434Q437 375 437 280Q437 214 422.5 160Q408 106 382 68.5Q356 31 317.5 10Q279 -11 231 -11ZM239 60Q292 60 326 117.5Q360 175 360 271Q360 343 335.5 383Q311 423 262 423Q210 423 175.5 365.5Q141 308 141 211Q141 139 165.5 99.5Q190 60 239 60Z" glyph-name="ograve" horiz-adv-x="458" unicode="&#242;" /><glyph d="M272 569 164 677H251L346 569ZM252 -11Q167 -11 117 51Q67 113 67 217Q67 286 84 343.5Q101 401 131 441.5Q161 482 204 504.5Q247 527 299 527Q384 527 434 465Q484 403 484 299Q484 230 467 172.5Q450 115 420 74.5Q390 34 347 11.5Q304 -11 252 -11ZM258 60Q326 60 365 123Q404 186 404 295Q404 372 375 414.5Q346 457 292 457Q225 457 186 393.5Q147 330 147 221Q147 144 176 102Q205 60 258 60Z" glyph-name="ograve.smcp" horiz-adv-x="506" /><glyph d="M297 573Q305 582 319 600Q333 618 347.5 638Q362 658 375 675.5Q388 693 394 702H471Q464 691 449 673Q434 655 417 636Q400 617 383.5 599.5Q367 582 357 573ZM196 573Q202 582 213.5 600Q225 618 237.5 638Q250 658 261 676Q272 694 276 702H348Q342 691 329.5 673Q317 655 303 636Q289 617 275 599.5Q261 582 253 573ZM231 -11Q150 -11 107 49Q64 109 64 205Q64 269 78.5 322.5Q93 376 119.5 413.5Q146 451 184.5 472Q223 493 270 493Q351 493 394 434Q437 375 437 280Q437 214 422.5 160Q408 106 382 68.5Q356 31 317.5 10Q279 -11 231 -11ZM239 60Q292 60 326 117.5Q360 175 360 271Q360 343 335.5 383Q311 423 262 423Q210 423 175.5 365.5Q141 308 141 211Q141 139 165.5 99.5Q190 60 239 60Z" glyph-name="ohungarumlaut" horiz-adv-x="458" unicode="&#337;" /><glyph d="M321 569 418 677H490L379 569ZM219 569 300 677H373L273 569ZM252 -11Q167 -11 117 51Q67 113 67 217Q67 286 84 343.5Q101 401 131 441.5Q161 482 204 504.5Q247 527 299 527Q384 527 434 465Q484 403 484 299Q484 230 467 172.5Q450 115 420 74.5Q390 34 347 11.5Q304 -11 252 -11ZM258 60Q326 60 365 123Q404 186 404 295Q404 372 375 414.5Q346 457 292 457Q225 457 186 393.5Q147 330 147 221Q147 144 176 102Q205 60 258 60Z" glyph-name="ohungarumlaut.smcp" horiz-adv-x="506" /><glyph d="M181 606 186 662H385L381 606ZM231 -11Q150 -11 107 49Q64 109 64 205Q64 269 78.5 322.5Q93 376 119.5 413.5Q146 451 184.5 472Q223 493 270 493Q351 493 394 434Q437 375 437 280Q437 214 422.5 160Q408 106 382 68.5Q356 31 317.5 10Q279 -11 231 -11ZM239 60Q292 60 326 117.5Q360 175 360 271Q360 343 335.5 383Q311 423 262 423Q210 423 175.5 365.5Q141 308 141 211Q141 139 165.5 99.5Q190 60 239 60Z" glyph-name="omacron" horiz-adv-x="458" unicode="&#333;" /><glyph d="M197 589 202 647H420L414 589ZM252 -11Q167 -11 117 51Q67 113 67 217Q67 286 84 343.5Q101 401 131 441.5Q161 482 204 504.5Q247 527 299 527Q384 527 434 465Q484 403 484 299Q484 230 467 172.5Q450 115 420 74.5Q390 34 347 11.5Q304 -11 252 -11ZM258 60Q326 60 365 123Q404 186 404 295Q404 372 375 414.5Q346 457 292 457Q225 457 186 393.5Q147 330 147 221Q147 144 176 102Q205 60 258 60Z" glyph-name="omacron.smcp" horiz-adv-x="506" /><glyph d="M218 0H141L189 549L67 508V579L237 650H275Z" glyph-name="one" horiz-adv-x="316" unicode="1" /><glyph d="M104 -4 130 283 59 262V313L157 355H198L164 -4Z" glyph-name="one.dnom" horiz-adv-x="236" /><glyph d="M138 0 173 395 53 347 48 405 221 487H255L212 0Z" glyph-name="one.osf" horiz-adv-x="292" /><glyph d="M154 0 191 430 82 398V463L240 520H275L229 0Z" glyph-name="one.smcp" horiz-adv-x="337" /><glyph d="M137 375 163 662 92 641V692L190 734H231L197 375Z" glyph-name="one.sup" horiz-adv-x="236" /><glyph d="M77 0 83 71H207L249 549L127 508V579L298 650H335L284 71H421L410 0Z" glyph-name="one.tf" horiz-adv-x="475" /><glyph d="M93 0 99 66H217L246 395L127 347L121 405L294 487H328L291 66H413L401 0Z" glyph-name="one.tosf" horiz-adv-x="475" /><glyph d="M129 290 155 577 84 556V607L182 649H223L189 290ZM90 0 475 646H538L154 0ZM383 0V31Q435 75 466.5 107Q498 139 515 163.5Q532 188 537 208Q542 228 542 249Q542 277 526.5 293Q511 309 485 309Q467 309 449 301Q431 293 414 280V335Q430 348 453 355Q476 362 500 362Q546 362 575.5 336Q605 310 605 263Q605 211 580 166Q555 121 472 53H616L608 0Z" glyph-name="onehalf" horiz-adv-x="668" unicode="&#189;" /><glyph d="M129 290 155 577 84 556V607L182 649H223L189 290ZM90 0 475 646H538L154 0ZM453 0 460 74H315V106L471 354L543 358L523 123H565L557 74H518L511 0ZM380 123H464L478 281Z" glyph-name="onequarter" horiz-adv-x="593" unicode="&#188;" /><glyph d="M129 290 155 577 84 556V607L182 649H223L189 290Z" glyph-name="onesuperior" horiz-adv-x="235" unicode="&#185;" /><glyph d="M173 301Q129 301 101.5 339.5Q74 378 74 442Q74 540 118.5 596.5Q163 653 234 653Q266 653 294 645.5Q322 638 344 627Q340 607 335.5 578.5Q331 550 328 524L317 403Q317 392 316.5 381Q316 370 316 361Q316 348 317 336Q318 324 321 311L268 303Q266 311 264.5 322Q263 333 263 346Q263 356 263.5 365Q264 374 265 387Q249 343 225 322Q201 301 173 301ZM185 357Q212 357 238 409Q264 461 271 548L274 585Q264 591 253 594Q242 597 226 597Q185 597 160.5 558Q136 519 136 447Q136 407 149.5 382Q163 357 185 357Z" glyph-name="ordfeminine" horiz-adv-x="338" unicode="&#170;" /><glyph d="M193 299Q138 299 105.5 340Q73 381 73 450Q73 539 114 595Q155 651 222 651Q277 651 309.5 611Q342 571 342 502Q342 411 301.5 355Q261 299 193 299ZM199 356Q236 356 257.5 393.5Q279 431 279 495Q279 542 263 568.5Q247 595 216 595Q179 595 157.5 557Q136 519 136 455Q136 408 152 382Q168 356 199 356Z" glyph-name="ordmasculine" horiz-adv-x="331" unicode="&#186;" /><glyph d="M24 -50 97 64Q81 91 72.5 127Q64 163 64 205Q64 269 78.5 322.5Q93 376 119.5 413.5Q146 451 184.5 472Q223 493 270 493Q295 493 317 487Q339 481 357 469L398 533H469L400 426Q418 398 427.5 361Q437 324 437 280Q437 214 422.5 160Q408 106 382 68.5Q356 31 317.5 10Q279 -11 231 -11Q203 -11 180 -3.5Q157 4 138 18L94 -50ZM141 211Q141 192 142.5 175Q144 158 148 143L316 405Q306 414 292 418.5Q278 423 262 423Q210 423 175.5 365.5Q141 308 141 211ZM239 60Q292 60 326 117.5Q360 175 360 271Q360 293 357.5 313Q355 333 351 349L179 82Q190 72 205 66Q220 60 239 60Z" glyph-name="oslash" horiz-adv-x="458" unicode="&#248;" /><glyph d="M31 -39 105 67Q86 95 76.5 133.5Q67 172 67 217Q67 286 84 343.5Q101 401 131 441.5Q161 482 204 504.5Q247 527 299 527Q330 527 356 519Q382 511 403 495L448 559H522L446 449Q464 421 474 383Q484 345 484 299Q484 230 467 172.5Q450 115 420 74.5Q390 34 347 11.5Q304 -11 252 -11Q221 -11 195 -3Q169 5 148 21L106 -39ZM147 221Q147 199 149.5 178.5Q152 158 157 142L360 432Q347 445 329.5 451Q312 457 292 457Q225 457 186 393.5Q147 330 147 221ZM258 60Q326 60 365 123Q404 186 404 295Q404 318 401 338Q398 358 394 375L192 84Q205 72 221.5 66Q238 60 258 60Z" glyph-name="oslash.smcp" horiz-adv-x="506" /><glyph d="M264 581 309 645Q321 664 332 682Q343 700 349 716L421 713Q413 694 401 675Q389 656 373 634L331 581ZM24 -50 97 64Q81 91 72.5 127Q64 163 64 205Q64 269 78.5 322.5Q93 376 119.5 413.5Q146 451 184.5 472Q223 493 270 493Q295 493 317 487Q339 481 357 469L398 533H469L400 426Q418 398 427.5 361Q437 324 437 280Q437 214 422.5 160Q408 106 382 68.5Q356 31 317.5 10Q279 -11 231 -11Q203 -11 180 -3.5Q157 4 138 18L94 -50ZM141 211Q141 192 142.5 175Q144 158 148 143L316 405Q306 414 292 418.5Q278 423 262 423Q210 423 175.5 365.5Q141 308 141 211ZM239 60Q292 60 326 117.5Q360 175 360 271Q360 293 357.5 313Q355 333 351 349L179 82Q190 72 205 66Q220 60 239 60Z" glyph-name="oslashacute" horiz-adv-x="458" unicode="&#511;" /><glyph d="M262 570 372 678H461L335 570ZM31 -39 105 67Q86 95 76.5 133.5Q67 172 67 217Q67 286 84 343.5Q101 401 131 441.5Q161 482 204 504.5Q247 527 299 527Q330 527 356 519Q382 511 403 495L448 559H522L446 449Q464 421 474 383Q484 345 484 299Q484 230 467 172.5Q450 115 420 74.5Q390 34 347 11.5Q304 -11 252 -11Q221 -11 195 -3Q169 5 148 21L106 -39ZM147 221Q147 199 149.5 178.5Q152 158 157 142L360 432Q347 445 329.5 451Q312 457 292 457Q225 457 186 393.5Q147 330 147 221ZM258 60Q326 60 365 123Q404 186 404 295Q404 318 401 338Q398 358 394 375L192 84Q205 72 221.5 66Q238 60 258 60Z" glyph-name="oslashacute.smcp" horiz-adv-x="506" /><glyph d="M172 585Q177 636 192.5 660Q208 684 238 684Q251 684 262 679Q273 674 282 667.5Q291 661 299.5 656Q308 651 317 651Q330 651 335.5 662.5Q341 674 343 696L395 692Q390 640 372.5 615Q355 590 323 590Q311 590 300.5 595.5Q290 601 280.5 607Q271 613 263 618.5Q255 624 249 624Q239 624 232.5 614.5Q226 605 225 585ZM231 -11Q150 -11 107 49Q64 109 64 205Q64 269 78.5 322.5Q93 376 119.5 413.5Q146 451 184.5 472Q223 493 270 493Q351 493 394 434Q437 375 437 280Q437 214 422.5 160Q408 106 382 68.5Q356 31 317.5 10Q279 -11 231 -11ZM239 60Q292 60 326 117.5Q360 175 360 271Q360 343 335.5 383Q311 423 262 423Q210 423 175.5 365.5Q141 308 141 211Q141 139 165.5 99.5Q190 60 239 60Z" glyph-name="otilde" horiz-adv-x="458" unicode="&#245;" /><glyph d="M185 574Q189 626 208.5 649.5Q228 673 261 673Q276 673 287 667.5Q298 662 307.5 656Q317 650 326.5 644.5Q336 639 347 639Q360 639 368 653Q376 667 378 688L430 681Q422 629 402 605Q382 581 345 581Q328 581 317 586Q306 591 297 597Q288 603 280.5 608Q273 613 264 613Q253 613 246 603Q239 593 236 574ZM252 -11Q167 -11 117 51Q67 113 67 217Q67 286 84 343.5Q101 401 131 441.5Q161 482 204 504.5Q247 527 299 527Q384 527 434 465Q484 403 484 299Q484 230 467 172.5Q450 115 420 74.5Q390 34 347 11.5Q304 -11 252 -11ZM258 60Q326 60 365 123Q404 186 404 295Q404 372 375 414.5Q346 457 292 457Q225 457 186 393.5Q147 330 147 221Q147 144 176 102Q205 60 258 60Z" glyph-name="otilde.smcp" horiz-adv-x="506" /><glyph d="M56 -220 104 331Q108 368 109.5 405Q111 442 111 482L181 487Q181 456 179.5 418.5Q178 381 176 358Q198 425 236.5 459Q275 493 318 493Q381 493 416 438.5Q451 384 451 291Q451 151 392.5 70.5Q334 -10 231 -10Q209 -10 187.5 -5Q166 0 150 8L130 -220ZM234 57Q300 57 337.5 118.5Q375 180 375 290Q375 350 355 386.5Q335 423 301 423Q277 423 254 398.5Q231 374 212 333Q193 292 179.5 236.5Q166 181 160 120L156 78Q171 69 190 63Q209 57 234 57Z" glyph-name="p" horiz-adv-x="476" unicode="p" /><glyph d="M74 0 119 516H230Q326 516 384 475.5Q442 435 442 358Q442 275 386.5 232Q331 189 227 189H165L149 0ZM171 255H221Q292 255 327 278Q362 301 362 355Q362 404 327 427Q292 450 229 450H188Z" glyph-name="p.smcp" horiz-adv-x="446" /><glyph d="M153 -232 152 -170Q209 -154 229.5 -121.5Q250 -89 256 -20L267 110H226Q153 110 105.5 159Q58 208 58 293Q58 416 125 482.5Q192 549 299 549H512L464 0H397L439 485H372L329 -23Q321 -120 279 -168Q237 -216 153 -232Z" glyph-name="paragraph" horiz-adv-x="510" unicode="&#182;" /><glyph d="M275 -240Q183 -167 133 -58.5Q83 50 83 181Q83 365 155 509Q227 653 362 739L368 663Q265 579 212 457Q159 335 159 188Q159 80 194.5 -6Q230 -92 295 -165Z" glyph-name="parenleft" horiz-adv-x="317" unicode="(" /><glyph d="M283 -95Q193 -32 153 61Q113 154 113 267Q113 413 166.5 536.5Q220 660 355 741L358 666Q272 597 232.5 494Q193 391 193 263Q193 163 219 99Q245 35 299 -19Z" glyph-name="parenleft.case" horiz-adv-x="316" /><glyph d="M241 -83Q162 -33 126 43.5Q90 120 90 213Q90 274 103.5 332.5Q117 391 143.5 441Q170 491 210 532.5Q250 574 303 602L313 529Q241 474 203.5 398Q166 322 166 214Q166 142 189 86Q212 30 260 -13Z" glyph-name="parenleft.smcp" horiz-adv-x="297" /><glyph d="M86 740Q178 667 228 558.5Q278 450 278 319Q278 135 206 -9Q134 -153 -1 -239L-7 -163Q96 -79 149 43Q202 165 202 312Q202 420 166.5 506Q131 592 66 665Z" glyph-name="parenright" horiz-adv-x="316" unicode=")" /><glyph d="M80 741Q170 678 210 585Q250 492 250 379Q250 233 196.5 109.5Q143 -14 8 -95L5 -20Q91 49 130.5 152Q170 255 170 383Q170 483 144 547Q118 611 64 665Z" glyph-name="parenright.case" horiz-adv-x="307" /><glyph d="M101 599Q180 549 216 472.5Q252 396 252 303Q252 242 238.5 183.5Q225 125 198.5 75Q172 25 132 -16.5Q92 -58 39 -86L29 -13Q101 42 138.5 118Q176 194 176 302Q176 374 153 430Q130 486 82 529Z" glyph-name="parenright.smcp" horiz-adv-x="296" /><glyph d="M223 -11Q146 -11 106 41.5Q66 94 67 181Q68 230 82 271Q96 312 120.5 342Q145 372 178.5 389Q212 406 252 406Q289 406 317 395Q345 384 364 365Q356 461 298 520.5Q240 580 136 587L147 655Q285 645 362.5 557.5Q440 470 437 327Q434 170 375 79.5Q316 -11 223 -11ZM229 59Q283 59 321 118.5Q359 178 365 292Q343 317 317 329Q291 341 263 341Q206 341 172.5 298Q139 255 138 180Q137 123 161 91Q185 59 229 59Z" glyph-name="partialdiff" horiz-adv-x="458" unicode="&#8706;" /><glyph d="M176 285Q127 285 101.5 321.5Q76 358 76 428Q76 535 113.5 593Q151 651 214 651Q263 651 288.5 614.5Q314 578 314 508Q314 401 276.5 343Q239 285 176 285ZM142 0 527 646H590L206 0ZM184 338Q215 338 233.5 383.5Q252 429 252 506Q252 553 241 575.5Q230 598 206 598Q175 598 156.5 552.5Q138 507 138 430Q138 383 149 360.5Q160 338 184 338ZM519 -5Q470 -5 444.5 31.5Q419 68 419 138Q419 245 456.5 303Q494 361 557 361Q606 361 631.5 324.5Q657 288 657 218Q657 111 619.5 53Q582 -5 519 -5ZM527 48Q558 48 576.5 93.5Q595 139 595 216Q595 263 584 285.5Q573 308 549 308Q518 308 499.5 262.5Q481 217 481 140Q481 93 492 70.5Q503 48 527 48Z" glyph-name="percent" horiz-adv-x="677" unicode="%" /><glyph d="M157 228Q115 228 91 257Q67 286 67 342Q67 427 99 474Q131 521 186 521Q228 521 252.5 492Q277 463 277 407Q277 322 244.5 275Q212 228 157 228ZM181 0H119L458 517H518ZM162 275Q190 275 206 309Q222 343 222 405Q222 440 212 457Q202 474 181 474Q153 474 137.5 440Q122 406 122 344Q122 308 131 291.5Q140 275 162 275ZM453 -4Q410 -4 386.5 25Q363 54 363 110Q363 195 394.5 242Q426 289 481 289Q524 289 548 260Q572 231 572 175Q572 90 540 43Q508 -4 453 -4ZM457 43Q485 43 501.5 77Q518 111 518 173Q518 208 508.5 225Q499 242 477 242Q449 242 433 208Q417 174 417 112Q417 76 426.5 59.5Q436 43 457 43Z" glyph-name="percent.smcp" horiz-adv-x="593" /><glyph d="M63 0 71 95H159L151 0Z" glyph-name="period" horiz-adv-x="214" unicode="." /><glyph d="M58 284 66 371H144L136 284Z" glyph-name="periodcentered" horiz-adv-x="145" unicode="&#183;" /><glyph d="M77 310 85 400H171L163 310Z" glyph-name="periodcentered.case" horiz-adv-x="186" /><glyph d="M176 285Q127 285 101.5 321.5Q76 358 76 428Q76 535 113.5 593Q151 651 214 651Q263 651 288.5 614.5Q314 578 314 508Q314 401 276.5 343Q239 285 176 285ZM142 0 527 646H590L206 0ZM184 338Q215 338 233.5 383.5Q252 429 252 506Q252 553 241 575.5Q230 598 206 598Q175 598 156.5 552.5Q138 507 138 430Q138 383 149 360.5Q160 338 184 338ZM809 -5Q760 -5 734.5 31.5Q709 68 709 138Q709 245 746.5 303Q784 361 847 361Q896 361 921.5 324.5Q947 288 947 218Q947 111 909.5 53Q872 -5 809 -5ZM519 -5Q470 -5 444.5 31.5Q419 68 419 138Q419 245 456.5 303Q494 361 557 361Q606 361 631.5 324.5Q657 288 657 218Q657 111 619.5 53Q582 -5 519 -5ZM817 48Q848 48 866.5 93.5Q885 139 885 216Q885 263 874 285.5Q863 308 839 308Q808 308 789.5 262.5Q771 217 771 140Q771 93 782 70.5Q793 48 817 48ZM527 48Q558 48 576.5 93.5Q595 139 595 216Q595 263 584 285.5Q573 308 549 308Q518 308 499.5 262.5Q481 217 481 140Q481 93 492 70.5Q503 48 527 48Z" glyph-name="perthousand" horiz-adv-x="967" unicode="&#8240;" /><glyph d="M157 228Q115 228 91 257Q67 286 67 342Q67 427 99 474Q131 521 186 521Q228 521 252.5 492Q277 463 277 407Q277 322 244.5 275Q212 228 157 228ZM181 0H119L458 517H518ZM162 275Q190 275 206 309Q222 343 222 405Q222 440 212 457Q202 474 181 474Q153 474 137.5 440Q122 406 122 344Q122 308 131 291.5Q140 275 162 275ZM453 -4Q410 -4 386.5 25Q363 54 363 110Q363 195 394.5 242Q426 289 481 289Q524 289 548 260Q572 231 572 175Q572 90 540 43Q508 -4 453 -4ZM708 -4Q665 -4 641 25Q617 54 617 110Q617 195 649 242Q681 289 736 289Q779 289 803 260Q827 231 827 175Q827 90 795 43Q763 -4 708 -4ZM457 43Q485 43 501.5 77Q518 111 518 173Q518 208 508.5 225Q499 242 477 242Q449 242 433 208Q417 174 417 112Q417 76 426.5 59.5Q436 43 457 43ZM712 43Q740 43 756 77Q772 111 772 173Q772 208 762.5 225Q753 242 732 242Q704 242 688 208Q672 174 672 112Q672 76 681 59.5Q690 43 712 43Z" glyph-name="perthousand.smcp" horiz-adv-x="848" /><glyph d="M73 0 115 483H451L409 0H335L370 414H183L148 0Z" glyph-name="pi" horiz-adv-x="482" unicode="&#960;" /><glyph d="M213 91 231 309H79L85 369H237L254 566H317L300 369H453L448 309H295L276 91Z" glyph-name="plus" horiz-adv-x="475" unicode="+" /><glyph d="M221 171 239 389H87L93 449H245L262 646H325L308 449H461L456 389H303L284 171ZM61 0 66 62H417L411 0Z" glyph-name="plusminus" horiz-adv-x="475" unicode="&#177;" /><glyph d="M84 0 140 646H553L497 0H420L470 576H211L161 0Z" glyph-name="product" horiz-adv-x="581" unicode="&#8719;" /><glyph d="M301 -220 332 114Q307 53 273 21Q239 -11 196 -11Q135 -11 100 44.5Q65 100 65 190Q65 339 125.5 416Q186 493 285 493Q327 493 367.5 483.5Q408 474 444 456Q437 426 431.5 388Q426 350 422 307L375 -220ZM216 59Q238 59 260.5 83Q283 107 301.5 149Q320 191 334 249Q348 307 354 375L357 408Q341 417 321 421.5Q301 426 279 426Q220 426 181.5 369Q143 312 143 193Q143 133 162.5 96Q182 59 216 59Z" glyph-name="q" horiz-adv-x="467" unicode="q" /><glyph d="M437 -100Q388 -94 353 -80Q318 -66 290 -42Q273 -28 257 -19Q241 -10 220 -7Q146 2 106.5 64Q67 126 67 215Q67 286 83 344Q99 402 129 442.5Q159 483 202.5 505Q246 527 299 527Q388 527 436 463.5Q484 400 484 301Q484 183 442.5 106.5Q401 30 330 5Q340 0 353.5 -8.5Q367 -17 379 -24Q395 -32 410.5 -37Q426 -42 448 -46ZM257 60Q327 60 365.5 121Q404 182 404 295Q404 369 375.5 413Q347 457 292 457Q223 457 185 395Q147 333 147 221Q147 146 175 103Q203 60 257 60Z" glyph-name="q.smcp" horiz-adv-x="506" /><glyph d="M133 166 142 316Q220 356 254.5 394Q289 432 289 487Q289 538 265 562.5Q241 587 188 587Q160 587 135 579Q110 571 81 554L95 628Q121 643 148.5 649.5Q176 656 208 656Q283 656 326.5 614Q370 572 370 497Q370 426 328 370Q286 314 211 284L198 166ZM107 0 115 90H206L198 0Z" glyph-name="question" horiz-adv-x="369" unicode="?" /><glyph d="M127 141 131 254Q200 282 230 313Q260 344 260 388Q260 424 239 442Q218 460 178 460Q154 460 130.5 453.5Q107 447 81 433L93 503Q117 516 142.5 521.5Q168 527 196 527Q262 527 300.5 492Q339 457 339 397Q339 338 304 294Q269 250 200 222L189 141ZM106 0 113 79H195L188 0Z" glyph-name="question.smcp" horiz-adv-x="359" /><glyph d="M304 482 296 392H205L213 482ZM278 316 269 166Q191 126 156.5 88Q122 50 122 -5Q122 -56 146 -80.5Q170 -105 223 -105Q251 -105 276 -97Q301 -89 330 -72L316 -146Q290 -161 262.5 -167.5Q235 -174 203 -174Q128 -174 84.5 -132Q41 -90 41 -15Q41 56 83 112Q125 168 200 198L213 316Z" glyph-name="questiondown" horiz-adv-x="369" unicode="&#191;" /><glyph d="M319 646 311 556H220L228 646ZM293 480 284 330Q206 290 171.5 252Q137 214 137 159Q137 108 161 83.5Q185 59 238 59Q266 59 291 67Q316 75 345 92L331 18Q305 3 277.5 -3.5Q250 -10 218 -10Q143 -10 99.5 32Q56 74 56 149Q56 220 98 276Q140 332 215 362L228 480Z" glyph-name="questiondown.case" horiz-adv-x="369" /><glyph d="M298 516 291 437H209L216 516ZM277 375 273 262Q204 234 174 203Q144 172 144 128Q144 92 165 74Q186 56 226 56Q250 56 273.5 62.5Q297 69 323 83L311 13Q287 0 261.5 -5.5Q236 -11 208 -11Q142 -11 103.5 24Q65 59 65 119Q65 178 100 222Q135 266 204 294L215 375Z" glyph-name="questiondown.smcp" horiz-adv-x="359" /><glyph d="M83 418 97 646H170L145 418ZM209 418 223 646H296L271 418Z" glyph-name="quotedbl" horiz-adv-x="280" unicode="&quot;" /><glyph d="M66 -146 5 -134Q30 -88 41 -52Q52 -16 56 40L60 82H128L126 44Q122 -13 108 -58Q94 -103 66 -146ZM204 -146 143 -134Q168 -88 179 -52Q190 -16 194 40L198 82H266L264 44Q260 -13 246 -58Q232 -103 204 -146Z" glyph-name="quotedblbase" horiz-adv-x="303" unicode="&#8222;" /><glyph d="M148 696 209 684Q184 638 173 602Q162 566 158 510L154 468H86L88 506Q92 563 106 608Q120 653 148 696ZM283 696 344 684Q319 638 308 602Q297 566 293 510L289 468H221L223 506Q227 563 241 608Q255 653 283 696Z" glyph-name="quotedblleft" horiz-adv-x="299" unicode="&#8220;" /><glyph d="M136 566 197 554Q172 508 161 472Q150 436 146 380L142 338H74L76 376Q80 433 94 478Q108 523 136 566ZM271 566 332 554Q307 508 296 472Q285 436 281 380L277 338H209L211 376Q215 433 229 478Q243 523 271 566Z" glyph-name="quotedblleft.smcp" horiz-adv-x="299" /><glyph d="M119 457 58 469Q83 515 94 551Q105 587 109 643L113 685H181L179 647Q175 590 161 545Q147 500 119 457ZM254 457 193 469Q218 515 229 551Q240 587 244 643L248 685H316L314 647Q310 590 296 545Q282 500 254 457Z" glyph-name="quotedblright" horiz-adv-x="298" unicode="&#8221;" /><glyph d="M107 327 46 339Q71 385 82 421Q93 457 97 513L101 555H169L167 517Q163 460 149 415Q135 370 107 327ZM242 327 181 339Q206 385 217 421Q228 457 232 513L236 555H304L302 517Q298 460 284 415Q270 370 242 327Z" glyph-name="quotedblright.smcp" horiz-adv-x="299" /><glyph d="M148 696 209 684Q184 638 173 602Q162 566 158 510L154 468H86L88 506Q92 563 106 608Q120 653 148 696Z" glyph-name="quoteleft" horiz-adv-x="166" unicode="&#8216;" /><glyph d="M136 566 197 554Q172 508 161 472Q150 436 146 380L142 338H74L76 376Q80 433 94 478Q108 523 136 566Z" glyph-name="quoteleft.smcp" horiz-adv-x="165" /><glyph d="M119 457 58 469Q83 515 94 551Q105 587 109 643L113 685H181L179 647Q175 590 161 545Q147 500 119 457Z" glyph-name="quoteright" horiz-adv-x="165" unicode="&#8217;" /><glyph d="M107 327 46 339Q71 385 82 421Q93 457 97 513L101 555H169L167 517Q163 460 149 415Q135 370 107 327Z" glyph-name="quoteright.smcp" horiz-adv-x="165" /><glyph d="M66 -146 5 -134Q30 -88 41 -52Q52 -16 56 40L60 82H128L126 44Q122 -13 108 -58Q94 -103 66 -146Z" glyph-name="quotesinglbase" horiz-adv-x="165" unicode="&#8218;" /><glyph d="M83 418 97 646H170L145 418Z" glyph-name="quotesingle" horiz-adv-x="153" unicode="'" /><glyph d="M74 0 103 331Q107 371 108 411.5Q109 452 109 482L180 487Q180 474 179.5 446Q179 418 177 394Q177 392 176 382Q175 372 175 369Q197 426 238 458.5Q279 491 342 492V422H333Q261 422 216.5 354Q172 286 160 148L148 0Z" glyph-name="r" horiz-adv-x="324" unicode="r" /><glyph d="M73 0 118 516H227Q330 516 383 478Q436 440 436 366Q436 306 401.5 272Q367 238 311 228Q325 216 336 196Q347 176 358 148L417 0H340L284 141Q268 181 250 195Q232 209 199 209H165L146 0ZM170 272H230Q295 272 326.5 294Q358 316 358 364Q358 410 324.5 430.5Q291 451 228 451H186Z" glyph-name="r.smcp" horiz-adv-x="456" /><glyph d="M196 581 241 645Q253 664 264 682Q275 700 281 716L353 713Q345 694 333 675Q321 656 305 634L263 581ZM74 0 103 331Q107 371 108 411.5Q109 452 109 482L180 487Q180 474 179.5 446Q179 418 177 394Q177 392 176 382Q175 372 175 369Q197 426 238 458.5Q279 491 342 492V422H333Q261 422 216.5 354Q172 286 160 148L148 0Z" glyph-name="racute" horiz-adv-x="323" unicode="&#341;" /><glyph d="M241 569 351 677H440L314 569ZM73 0 118 516H227Q330 516 383 478Q436 440 436 366Q436 306 401.5 272Q367 238 311 228Q325 216 336 196Q347 176 358 148L417 0H340L284 141Q268 181 250 195Q232 209 199 209H165L146 0ZM170 272H230Q295 272 326.5 294Q358 316 358 364Q358 410 324.5 430.5Q291 451 228 451H186Z" glyph-name="racute.smcp" horiz-adv-x="456" /><glyph d="M215 -3 132 423H62L67 483H197L268 106L503 750H577L301 -3Z" glyph-name="radical" horiz-adv-x="513" unicode="&#8730;" /><glyph d="M201 567 132 700H190L235 617L291 700H354L265 570ZM74 0 103 331Q107 371 108 411.5Q109 452 109 482L180 487Q180 474 179.5 446Q179 418 177 394Q177 392 176 382Q175 372 175 369Q197 426 238 458.5Q279 491 342 492V422H333Q261 422 216.5 354Q172 286 160 148L148 0Z" glyph-name="rcaron" horiz-adv-x="323" unicode="&#345;" /><glyph d="M247 561 173 680H237L286 610L346 680H411L315 562ZM73 0 118 516H227Q330 516 383 478Q436 440 436 366Q436 306 401.5 272Q367 238 311 228Q325 216 336 196Q347 176 358 148L417 0H340L284 141Q268 181 250 195Q232 209 199 209H165L146 0ZM170 272H230Q295 272 326.5 294Q358 316 358 364Q358 410 324.5 430.5Q291 451 228 451H186Z" glyph-name="rcaron.smcp" horiz-adv-x="456" /><glyph d="M74 0 103 331Q107 371 108 411.5Q109 452 109 482L180 487Q180 474 179.5 446Q179 418 177 394Q177 392 176 382Q175 372 175 369Q197 426 238 458.5Q279 491 342 492V422H333Q261 422 216.5 354Q172 286 160 148L148 0ZM91 -236 34 -229Q53 -189 60.5 -159.5Q68 -130 72 -80L73 -68H137L135 -85Q131 -140 121.5 -171Q112 -202 91 -236Z" glyph-name="rcommaaccent" horiz-adv-x="324" unicode="&#343;" /><glyph d="M73 0 118 516H227Q330 516 383 478Q436 440 436 366Q436 306 401.5 272Q367 238 311 228Q325 216 336 196Q347 176 358 148L417 0H340L284 141Q268 181 250 195Q232 209 199 209H165L146 0ZM170 272H230Q295 272 326.5 294Q358 316 358 364Q358 410 324.5 430.5Q291 451 228 451H186ZM222 -235 163 -229Q181 -189 188 -158.5Q195 -128 199 -83L200 -68H268L266 -85Q262 -130 253 -164.5Q244 -199 222 -235Z" glyph-name="rcommaaccent.smcp" horiz-adv-x="456" /><glyph d="M346 -26Q221 -26 148 55.5Q75 137 75 275Q75 360 97.5 433.5Q120 507 162 559.5Q204 612 265.5 642Q327 672 405 672Q530 672 603 590.5Q676 509 676 371Q676 286 653.5 212.5Q631 139 589 86.5Q547 34 485.5 4Q424 -26 346 -26ZM351 40Q411 40 458.5 63.5Q506 87 538.5 130Q571 173 588 234Q605 295 605 369Q605 485 550.5 545.5Q496 606 400 606Q340 606 292.5 582.5Q245 559 212.5 516Q180 473 163 412Q146 351 146 277Q146 160 200.5 100Q255 40 351 40ZM251 146 282 502H368Q431 502 467.5 475Q504 448 504 397Q504 363 485 338Q466 313 427 303Q434 297 440 285.5Q446 274 453 252L488 146H428L395 244Q386 269 378 277.5Q370 286 353 286H321L309 146ZM326 335H369Q404 335 423.5 349Q443 363 443 394Q443 424 422.5 438Q402 452 367 452H336Z" glyph-name="registered" horiz-adv-x="695" unicode="&#174;" /><glyph d="M268 546Q229 546 206.5 568Q184 590 184 627Q184 677 210.5 707.5Q237 738 283 738Q322 738 345 715.5Q368 693 368 656Q368 607 341 576.5Q314 546 268 546ZM272 593Q291 593 302.5 608.5Q314 624 314 649Q314 668 304.5 679Q295 690 278 690Q260 690 248.5 674.5Q237 659 237 634Q237 615 246.5 604Q256 593 272 593Z" glyph-name="ring" horiz-adv-x="440" unicode="&#730;" /><glyph d="M280 684Q243 684 219 705Q195 726 195 766Q195 810 222 841.5Q249 873 296 873Q334 873 357.5 852Q381 831 381 791Q381 747 354 715.5Q327 684 280 684ZM284 731Q303 731 315.5 746Q328 761 328 785Q328 804 318.5 815Q309 826 292 826Q273 826 261 810.5Q249 795 249 772Q249 753 258.5 742Q268 731 284 731Z" glyph-name="ring.case" horiz-adv-x="440" /><glyph d="M168 -11Q131 -11 97.5 -2Q64 7 35 23V97Q71 77 102.5 66.5Q134 56 172 56Q219 56 242 74.5Q265 93 265 127Q265 152 247.5 170.5Q230 189 195 207L178 216Q120 246 94.5 279.5Q69 313 69 362Q69 422 111.5 457.5Q154 493 226 493Q259 493 295 483Q331 473 356 457L339 392Q309 408 281 417.5Q253 427 222 427Q183 427 164 412Q145 397 145 367Q145 342 163.5 320.5Q182 299 222 279L241 270Q295 242 318 210Q341 178 341 134Q341 64 295 26.5Q249 -11 168 -11Z" glyph-name="s" horiz-adv-x="370" unicode="s" /><glyph d="M191 -11Q151 -11 112 -0.5Q73 10 43 28V102Q79 80 117 68Q155 56 195 56Q246 56 272 75Q298 94 298 132Q298 164 281 184Q264 204 228 221L199 234Q136 263 106 298.5Q76 334 76 384Q76 446 121 486.5Q166 527 247 527Q287 527 326.5 517.5Q366 508 395 492L379 423Q347 440 313.5 450Q280 460 246 460Q198 460 176.5 442Q155 424 155 389Q155 364 174.5 343Q194 322 234 303L264 289Q324 261 350.5 227.5Q377 194 377 142Q377 68 327.5 28.5Q278 -11 191 -11Z" glyph-name="s.smcp" horiz-adv-x="412" /><glyph d="M197 581 242 645Q254 664 265 682Q276 700 282 716L354 713Q346 694 334 675Q322 656 306 634L264 581ZM168 -11Q131 -11 97.5 -2Q64 7 35 23V97Q71 77 102.5 66.5Q134 56 172 56Q219 56 242 74.5Q265 93 265 127Q265 152 247.5 170.5Q230 189 195 207L178 216Q120 246 94.5 279.5Q69 313 69 362Q69 422 111.5 457.5Q154 493 226 493Q259 493 295 483Q331 473 356 457L339 392Q309 408 281 417.5Q253 427 222 427Q183 427 164 412Q145 397 145 367Q145 342 163.5 320.5Q182 299 222 279L241 270Q295 242 318 210Q341 178 341 134Q341 64 295 26.5Q249 -11 168 -11Z" glyph-name="sacute" horiz-adv-x="370" unicode="&#347;" /><glyph d="M208 569 318 677H407L281 569ZM191 -11Q151 -11 112 -0.5Q73 10 43 28V102Q79 80 117 68Q155 56 195 56Q246 56 272 75Q298 94 298 132Q298 164 281 184Q264 204 228 221L199 234Q136 263 106 298.5Q76 334 76 384Q76 446 121 486.5Q166 527 247 527Q287 527 326.5 517.5Q366 508 395 492L379 423Q347 440 313.5 450Q280 460 246 460Q198 460 176.5 442Q155 424 155 389Q155 364 174.5 343Q194 322 234 303L264 289Q324 261 350.5 227.5Q377 194 377 142Q377 68 327.5 28.5Q278 -11 191 -11Z" glyph-name="sacute.smcp" horiz-adv-x="412" /><glyph d="M202 567 133 700H191L236 617L292 700H355L266 570ZM168 -11Q131 -11 97.5 -2Q64 7 35 23V97Q71 77 102.5 66.5Q134 56 172 56Q219 56 242 74.5Q265 93 265 127Q265 152 247.5 170.5Q230 189 195 207L178 216Q120 246 94.5 279.5Q69 313 69 362Q69 422 111.5 457.5Q154 493 226 493Q259 493 295 483Q331 473 356 457L339 392Q309 408 281 417.5Q253 427 222 427Q183 427 164 412Q145 397 145 367Q145 342 163.5 320.5Q182 299 222 279L241 270Q295 242 318 210Q341 178 341 134Q341 64 295 26.5Q249 -11 168 -11Z" glyph-name="scaron" horiz-adv-x="370" unicode="&#353;" /><glyph d="M214 561 140 680H204L253 610L313 680H378L282 562ZM191 -11Q151 -11 112 -0.5Q73 10 43 28V102Q79 80 117 68Q155 56 195 56Q246 56 272 75Q298 94 298 132Q298 164 281 184Q264 204 228 221L199 234Q136 263 106 298.5Q76 334 76 384Q76 446 121 486.5Q166 527 247 527Q287 527 326.5 517.5Q366 508 395 492L379 423Q347 440 313.5 450Q280 460 246 460Q198 460 176.5 442Q155 424 155 389Q155 364 174.5 343Q194 322 234 303L264 289Q324 261 350.5 227.5Q377 194 377 142Q377 68 327.5 28.5Q278 -11 191 -11Z" glyph-name="scaron.smcp" horiz-adv-x="412" /><glyph d="M133 -228Q116 -228 101 -224Q86 -220 73 -214V-161Q88 -168 102 -172Q116 -176 132 -176Q151 -176 162 -167Q173 -158 173 -139Q173 -119 156.5 -105Q140 -91 111 -89L140 -9Q111 -7 85 1.5Q59 10 35 23V97Q71 77 102.5 66.5Q134 56 172 56Q219 56 242 75.5Q265 95 265 129Q265 154 247.5 171.5Q230 189 195 207L178 216Q120 246 94.5 279.5Q69 313 69 362Q69 422 111.5 457.5Q154 493 226 493Q259 493 295 483Q331 473 356 457L339 392Q309 408 281 417.5Q253 427 222 427Q183 427 164 412Q145 397 145 367Q145 342 163.5 320.5Q182 299 222 279L241 270Q295 242 318 211Q341 180 341 135Q341 71 303 33.5Q265 -4 195 -9L174 -56Q203 -63 220.5 -84.5Q238 -106 238 -134Q238 -178 210 -203Q182 -228 133 -228Z" glyph-name="scedilla" horiz-adv-x="369" unicode="&#351;" /><glyph d="M166 -228Q149 -228 133.5 -224.5Q118 -221 106 -215V-162Q121 -169 135 -173Q149 -177 165 -177Q184 -177 195 -167.5Q206 -158 206 -140Q206 -120 189 -106Q172 -92 144 -90L172 -10Q136 -8 102.5 2Q69 12 43 28V102Q79 80 117 68Q155 56 195 56Q246 56 272 75Q298 94 298 132Q298 164 281 184Q264 204 228 221L199 234Q136 263 106 298.5Q76 334 76 384Q76 446 121 486.5Q166 527 247 527Q287 527 326.5 517.5Q366 508 395 492L379 423Q347 440 313.5 450Q280 460 246 460Q198 460 176.5 442Q155 424 155 389Q155 364 174.5 343Q194 322 234 303L264 289Q324 261 350.5 227.5Q377 194 377 142Q377 76 337.5 37Q298 -2 228 -9L207 -56Q236 -63 253.5 -85Q271 -107 271 -135Q271 -179 243 -203.5Q215 -228 166 -228Z" glyph-name="scedilla.smcp" horiz-adv-x="412" /><glyph d="M122 571 208 702 276 705 343 571H279L239 651L186 571ZM168 -11Q131 -11 97.5 -2Q64 7 35 23V97Q71 77 102.5 66.5Q134 56 172 56Q219 56 242 74.5Q265 93 265 127Q265 152 247.5 170.5Q230 189 195 207L178 216Q120 246 94.5 279.5Q69 313 69 362Q69 422 111.5 457.5Q154 493 226 493Q259 493 295 483Q331 473 356 457L339 392Q309 408 281 417.5Q253 427 222 427Q183 427 164 412Q145 397 145 367Q145 342 163.5 320.5Q182 299 222 279L241 270Q295 242 318 210Q341 178 341 134Q341 64 295 26.5Q249 -11 168 -11Z" glyph-name="scircumflex" horiz-adv-x="370" unicode="&#349;" /><glyph d="M130 569 225 686 296 688 370 569H304L257 637L196 569ZM191 -11Q151 -11 112 -0.5Q73 10 43 28V102Q79 80 117 68Q155 56 195 56Q246 56 272 75Q298 94 298 132Q298 164 281 184Q264 204 228 221L199 234Q136 263 106 298.5Q76 334 76 384Q76 446 121 486.5Q166 527 247 527Q287 527 326.5 517.5Q366 508 395 492L379 423Q347 440 313.5 450Q280 460 246 460Q198 460 176.5 442Q155 424 155 389Q155 364 174.5 343Q194 322 234 303L264 289Q324 261 350.5 227.5Q377 194 377 142Q377 68 327.5 28.5Q278 -11 191 -11Z" glyph-name="scircumflex.smcp" horiz-adv-x="412" /><glyph d="M170 -12Q133 -12 99.5 -3Q66 6 37 22V96Q73 76 104.5 65.5Q136 55 174 55Q221 55 244 73.5Q267 92 267 126Q267 151 249.5 169.5Q232 188 197 206L180 215Q122 245 96.5 278.5Q71 312 71 361Q71 421 113.5 456.5Q156 492 228 492Q261 492 297 482Q333 472 358 456L341 391Q311 407 283 416.5Q255 426 224 426Q185 426 166 411Q147 396 147 366Q147 341 165.5 319.5Q184 298 224 278L243 269Q297 241 320 209Q343 177 343 133Q343 63 297 25.5Q251 -12 170 -12ZM163 -236 106 -229Q125 -189 132.5 -159.5Q140 -130 144 -80L145 -68H209L207 -85Q203 -140 193.5 -171Q184 -202 163 -236Z" glyph-name="scommaaccent" horiz-adv-x="371" unicode="&#537;" /><glyph d="M191 -11Q151 -11 112 -0.5Q73 10 43 28V102Q79 80 117 68Q155 56 195 56Q246 56 272 75Q298 94 298 132Q298 164 281 184Q264 204 228 221L199 234Q136 263 106 298.5Q76 334 76 384Q76 446 121 486.5Q166 527 247 527Q287 527 326.5 517.5Q366 508 395 492L379 423Q347 440 313.5 450Q280 460 246 460Q198 460 176.5 442Q155 424 155 389Q155 364 174.5 343Q194 322 234 303L264 289Q324 261 350.5 227.5Q377 194 377 142Q377 68 327.5 28.5Q278 -11 191 -11ZM180 -235 121 -229Q139 -189 146 -158.5Q153 -128 157 -83L158 -68H226L224 -85Q220 -130 211 -164.5Q202 -199 180 -235Z" glyph-name="scommaaccent.smcp" horiz-adv-x="412" /><glyph d="M199 -179Q153 -179 110 -166.5Q67 -154 33 -131V-51Q73 -79 116 -93.5Q159 -108 204 -108Q261 -108 299 -85.5Q337 -63 337 -15Q337 24 321.5 53Q306 82 270 103L219 133Q141 179 98.5 238Q56 297 56 401Q56 472 75.5 531Q95 590 130.5 632.5Q166 675 217.5 698.5Q269 722 332 722Q371 722 414 711Q457 700 489 680L474 606Q438 628 400 639Q362 650 326 650Q271 650 239.5 626.5Q208 603 208 557Q208 521 225.5 495Q243 469 283 447L346 410Q421 366 455.5 307.5Q490 249 490 164Q490 90 470 26.5Q450 -37 412.5 -82.5Q375 -128 321 -153.5Q267 -179 199 -179ZM394 48Q403 71 407.5 98Q412 125 412 151Q412 214 390 258.5Q368 303 317 333L250 373Q209 398 182 429.5Q155 461 151 505Q143 481 138 456.5Q133 432 133 403Q133 336 158.5 293Q184 250 240 216L299 179Q342 152 365 121.5Q388 91 394 48Z" glyph-name="section" horiz-adv-x="500" unicode="&#167;" /><glyph d="M95 299 103 394H191L183 299ZM93 -148 27 -136Q52 -88 64 -49Q76 -10 81 50L84 94H157L154 53Q150 -7 137 -53.5Q124 -100 93 -148Z" glyph-name="semicolon" horiz-adv-x="214" unicode=";" /><glyph d="M47 0 339 573H73L85 646H437V611L130 0Z" glyph-name="seven" horiz-adv-x="408" unicode="7" /><glyph d="M42 -4 198 299H56L65 352H270V323L102 -4Z" glyph-name="seven.dnom" horiz-adv-x="273" /><glyph d="M41 -188 338 412H62L74 483H431V447L124 -182Z" glyph-name="seven.osf" horiz-adv-x="412" /><glyph d="M53 0 303 445H78L90 516H398V486L133 0Z" glyph-name="seven.smcp" horiz-adv-x="385" /><glyph d="M76 375 232 678H90L99 731H304V702L136 375Z" glyph-name="seven.sup" horiz-adv-x="273" /><glyph d="M80 0 372 573H106L118 646H470V611L163 0Z" glyph-name="seven.tf" horiz-adv-x="475" /><glyph d="M80 -188 377 412H101L113 483H470V447L163 -182Z" glyph-name="seven.tosf" horiz-adv-x="475" /><glyph d="M255 -11Q166 -11 121 54Q76 119 76 233Q76 325 102 400.5Q128 476 176 530.5Q224 585 293 617Q362 649 447 654V587Q348 577 281 529.5Q214 482 182 401Q198 407 216.5 410Q235 413 255 413Q341 413 394 360.5Q447 308 447 214Q447 164 432 122.5Q417 81 391.5 51.5Q366 22 330.5 5.5Q295 -11 255 -11ZM260 58Q305 58 337 98.5Q369 139 369 208Q369 274 330.5 308.5Q292 343 232 343Q214 343 197 340.5Q180 338 161 331Q157 309 155 285Q153 261 153 235Q153 148 181 103Q209 58 260 58Z" glyph-name="six" horiz-adv-x="476" unicode="6" /><glyph d="M156 -9Q109 -9 79.5 27.5Q50 64 50 127Q50 175 64.5 216.5Q79 258 107 289Q135 320 177 338.5Q219 357 273 359V310Q214 306 170.5 278Q127 250 114 199Q126 210 144 216.5Q162 223 181 223Q225 223 250 195.5Q275 168 275 123Q275 70 243.5 30.5Q212 -9 156 -9ZM160 40Q189 40 202.5 61.5Q216 83 216 116Q216 144 201.5 160.5Q187 177 161 177Q148 177 134 171Q120 165 107 155Q106 149 106 143.5Q106 138 106 131Q106 88 120.5 64Q135 40 160 40Z" glyph-name="six.dnom" horiz-adv-x="299" /><glyph d="M243 -10Q159 -10 113.5 54Q68 118 68 236Q68 327 96 406Q124 485 174 545.5Q224 606 295.5 644.5Q367 683 453 693V625Q352 608 280.5 550.5Q209 493 175 407Q189 411 206 414Q223 417 239 417Q326 417 379.5 364Q433 311 433 220Q433 114 381.5 52Q330 -10 243 -10ZM248 57Q299 57 328.5 99.5Q358 142 358 209Q358 277 319.5 312.5Q281 348 217 348Q201 348 185 345.5Q169 343 154 337Q149 314 146.5 288Q144 262 144 236Q144 153 171.5 105Q199 57 248 57Z" glyph-name="six.osf" horiz-adv-x="456" /><glyph d="M228 -11Q155 -11 112 42Q69 95 69 186Q69 260 92 321Q115 382 158 426.5Q201 471 263 497.5Q325 524 403 528V464Q320 457 263 424Q206 391 178 333Q190 335 202 336Q214 337 226 337Q310 337 356 293.5Q402 250 402 172Q402 89 354 39Q306 -11 228 -11ZM235 55Q277 55 301.5 86Q326 117 326 169Q326 218 291 245Q256 272 201 272Q191 272 179 270.5Q167 269 155 267Q151 249 149 230.5Q147 212 147 190Q147 126 169 90.5Q191 55 235 55Z" glyph-name="six.smcp" horiz-adv-x="435" /><glyph d="M190 370Q143 370 113.5 406.5Q84 443 84 506Q84 554 98.5 595.5Q113 637 141 668Q169 699 211 717.5Q253 736 307 738V689Q248 685 204.5 657Q161 629 148 578Q160 589 178 595.5Q196 602 215 602Q259 602 284 574.5Q309 547 309 502Q309 449 277.5 409.5Q246 370 190 370ZM194 419Q223 419 236.5 440.5Q250 462 250 495Q250 523 235.5 539.5Q221 556 195 556Q182 556 168 550Q154 544 141 534Q140 528 140 522.5Q140 517 140 510Q140 467 154.5 443Q169 419 194 419Z" glyph-name="six.sup" horiz-adv-x="300" /><glyph d="M253 -11Q164 -11 119 54Q74 119 74 233Q74 325 100 400.5Q126 476 174 530.5Q222 585 291 617Q360 649 445 654V587Q346 577 279 529.5Q212 482 180 401Q196 407 214.5 410Q233 413 253 413Q339 413 392 360.5Q445 308 445 214Q445 164 430 122.5Q415 81 389.5 51.5Q364 22 328.5 5.5Q293 -11 253 -11ZM258 58Q303 58 335 98.5Q367 139 367 208Q367 274 328.5 308.5Q290 343 230 343Q212 343 195 340.5Q178 338 159 331Q155 309 153 285Q151 261 151 235Q151 148 179 103Q207 58 258 58Z" glyph-name="six.tf" horiz-adv-x="475" /><glyph d="M259 -10Q175 -10 129.5 54Q84 118 84 236Q84 327 112 406Q140 485 190 545.5Q240 606 311.5 644.5Q383 683 469 693V625Q368 608 296.5 550.5Q225 493 191 407Q205 411 222 414Q239 417 255 417Q342 417 395.5 364Q449 311 449 220Q449 114 397.5 52Q346 -10 259 -10ZM264 57Q315 57 344.5 99.5Q374 142 374 209Q374 277 335.5 312.5Q297 348 233 348Q217 348 201 345.5Q185 343 170 337Q165 314 162.5 288Q160 262 160 236Q160 153 187.5 105Q215 57 264 57Z" glyph-name="six.tosf" horiz-adv-x="475" /><glyph d="M-5 -250 407 750H472L59 -250Z" glyph-name="slash" horiz-adv-x="422" unicode="/" /><glyph d="M346 -26Q221 -26 148 55.5Q75 137 75 275Q75 360 97.5 433.5Q120 507 162 559.5Q204 612 265.5 642Q327 672 405 672Q530 672 603 590.5Q676 509 676 371Q676 286 653.5 212.5Q631 139 589 86.5Q547 34 485.5 4Q424 -26 346 -26ZM351 40Q411 40 458.5 63.5Q506 87 538.5 130Q571 173 588 234Q605 295 605 369Q605 485 550.5 545.5Q496 606 400 606Q340 606 292.5 582.5Q245 559 212.5 516Q180 473 163 412Q146 351 146 277Q146 160 200.5 100Q255 40 351 40ZM261 146 292 502H379Q439 502 478 474Q517 446 517 386Q517 329 476.5 299Q436 269 378 269H330L319 146ZM335 321H376Q410 321 432.5 336Q455 351 455 386Q455 420 435 435Q415 450 379 450H346Z" glyph-name="soundcopyright" horiz-adv-x="695" unicode="&#8471;" /><glyph glyph-name="space" horiz-adv-x="225" unicode=" " /><glyph d="M42 -1 39 53Q108 93 138.5 151.5Q169 210 173 303H93L100 366H173Q172 385 170 403Q168 421 168 438Q168 539 216 597.5Q264 656 371 656Q398 656 425.5 650.5Q453 645 474 635V558Q448 571 420 577.5Q392 584 368 584Q305 584 275 546.5Q245 509 245 421Q245 409 246.5 395Q248 381 249 366H418L410 303H251Q249 215 222 154Q195 93 139 62Q170 62 194 58Q218 54 239.5 49Q261 44 283.5 40Q306 36 334 36Q362 36 388.5 46Q415 56 440 78L431 -3Q414 -17 388 -27Q362 -37 322 -37Q282 -37 251.5 -31.5Q221 -26 191 -19Q161 -12 126 -6.5Q91 -1 42 -1Z" glyph-name="sterling" horiz-adv-x="475" unicode="&#163;" /><glyph d="M48 -1 45 42Q102 76 129 120.5Q156 165 160 237H100L106 292H160Q159 308 156.5 322Q154 336 154 350Q154 432 199 479.5Q244 527 336 527Q361 527 386 522.5Q411 518 428 509V441Q406 451 381 456Q356 461 335 461Q281 461 254.5 436Q228 411 228 345Q228 335 229 321Q230 307 231 292H387L381 237H232Q229 171 205 126Q181 81 132 56Q186 55 226.5 45Q267 35 307 35Q332 35 354.5 42.5Q377 50 400 66L391 -2Q375 -13 352.5 -21.5Q330 -30 296 -30Q230 -30 174.5 -16.5Q119 -3 48 -1Z" glyph-name="sterling.smcp" horiz-adv-x="449" /><glyph d="M20 0 24 46 229 334 72 594 76 646H471L465 578H159L303 350L300 319L118 68H421L415 0Z" glyph-name="summation" horiz-adv-x="438" unicode="&#8721;" /><glyph d="M222 -10Q153 -10 125 24.5Q97 59 97 122Q97 128 98 145.5Q99 163 101 186L121 416H69V469Q109 480 122.5 502.5Q136 525 149 582L211 585L202 483H326L320 416H195L176 197Q174 172 173.5 155.5Q173 139 173 133Q173 95 188 77Q203 59 237 59Q252 59 269.5 63.5Q287 68 303 77L290 6Q279 1 259.5 -4.5Q240 -10 222 -10Z" glyph-name="t" horiz-adv-x="316" unicode="t" /><glyph d="M175 0 214 448H63L68 516H447L437 448H290L251 0Z" glyph-name="t.smcp" horiz-adv-x="422" /></font>
</defs>
</svg>
